<svg xmlns="http://www.w3.org/2000/svg" viewBox="0 0 512 256"><defs><style>.cls-1{fill:none;}</style></defs><g id="Layer_2" data-name="Layer 2"><g id="Layer_1-2" data-name="Layer 1"><path d="M367,256c5-1,10.14-1.6,15-3a71.64,71.64,0,0,0,14.23-5.79c5.29-2.95,7.41-8.14,5.14-13.63a231.23,231.23,0,0,0-12.83-26.86c-17.08-29.69-34.71-59.06-51.85-88.72-6.57-11.36-12.44-23.12-18.5-34.76C308.43,64.3,298.85,45.33,289,26.51,284.24,17.54,279,8.84,274,0H236c-11,10.66-22,21.25-32.94,32Q178,56.76,153.1,81.65c-10.94,10.92-9.46,20.9,5.11,28.41,10.58,5.45,21.95,9.42,33.1,13.72,22.76,8.78,45.62,17.31,68.42,26,2.45.93,4.76,2.18,8.13,3.74-3.74,5.24-6.76,10.19-10.48,14.53-6.89,8-11.6,16.65-10,27.66,1.46,10.11,9.1,14.91,19.15,12.93,12.29-2.43,16.74-12.27,20.37-21.91,3.9-10.35,6.38-21.36,8.38-32.28,2.5-13.7-.35-19.51-8.81-24.16-5.22-2.86-10.91-4.91-16.47-7.11-27.81-11-55.65-22-84-33.17l68.22-66.77A1828.56,1828.56,0,0,0,367.54,224.18c-6.29,2.51-12.17,1.87-18,1.29-6.42-.65-12.82-2.32-19.22-2.26-8.15.07-15.56,5.9-17.33,12.13s1.69,14.72,8,19.58a9.18,9.18,0,0,1,1,1.06Z"/><rect class="cls-1" width="512" height="256" transform="translate(512 256) rotate(180)"/></g></g></svg>