<svg xmlns="http://www.w3.org/2000/svg" viewBox="0 0 512 256"><defs><style>.cls-1{fill:none;}</style></defs><g id="Layer_2" data-name="Layer 2"><g id="Layer_1-2" data-name="Layer 1"><path d="M229.34,0c-16.59,12.23-33.07,24.61-49.78,36.66C165.8,46.6,151.47,55.75,138,66c-7.66,5.81-9.61,13.87-4.85,22.24A375.73,375.73,0,0,0,154.4,121.9c13.49,18.78,27.7,37,41.58,55.54a42.51,42.51,0,0,1,2.43,4.35,34.74,34.74,0,0,1-4.57.38c-7.62-.58-15.24-1.73-22.86-1.75a66.71,66.71,0,0,0-18.6,2.23,14.8,14.8,0,0,0-10.82,15.08c.33,7.17,4.57,12.68,12.05,14.86,6.38,1.86,12.76,3.11,19.62,1.56,15.23-3.44,30.6-6.22,45.87-9.49a19.07,19.07,0,0,0,13.08-10c1.22-2.39.49-6.62-.81-9.32a166.35,166.35,0,0,0-10.9-19c-13.28-20.14-26.78-40.13-40.19-60.17-4.53-6.77-9.11-13.51-13.56-20.33-2.37-3.61-1.57-6.72,2.43-8.43,15.27-6.57,28.28-16.75,41.76-26.13,10.65-7.41,20.88-15.42,31.26-23.21a27.87,27.87,0,0,0,3.64-3.4c5.19-5.6,5.37-5.78,10.5.21,10.82,12.64,21,25.81,32.19,38.15,13.6,15.07,27.3,30.14,42.08,44,11.22,10.53,23.92,19.57,36.46,28.58,21.19,15.23,42.79,29.88,64.19,44.83,4.25,3,7.59,6.3,5.36,12.36-2.85,7.79-5.17,15.77-7.92,23.59-2.92,8.3-5.12,16.68-1.79,25.29,2.77,7.16,8.72,10.86,16,11.82,6.42.84,10.18-3.17,13.43-8.39,5.8-9.32,6.72-19.79,7.46-30.16a263.85,263.85,0,0,0,.36-34.89c-.26-4.08-3.15-9.17-6.45-11.7-19.92-15.3-39.93-30.53-60.64-44.74-26.34-18.08-50.89-37.72-70.88-63.09-15.85-20.1-33.54-38.76-50.39-58.08A15.48,15.48,0,0,1,274.33,0Z"/><rect class="cls-1" width="512" height="256" transform="translate(512 256) rotate(180)"/></g></g></svg>