<svg xmlns="http://www.w3.org/2000/svg" viewBox="0 0 512 256"><defs><style>.cls-1{fill:none;}</style></defs><g id="Layer_2" data-name="Layer 2"><g id="Layer_1-2" data-name="Layer 1"><path d="M291,1.19c15.93,9.34,31.84,18.73,47.81,28,13.4,7.77,26.82,15.5,40.33,23.07,7.5,4.2,11,10.44,9,18.68-3.07,12.56-6.6,25-10.51,37.37-6.78,21.41-14,42.68-21,64-.44,1.34-.58,2.78-1.14,5.62,3.75-1.55,6.39-2.62,9-3.73,6.73-2.82,13.24-6.34,20.2-8.33,9.42-2.69,15.35,1,18.33,9.78s0,18.26-8,21.28A233.21,233.21,0,0,1,365,206c-9.19,2.15-18.65,3.18-28,4.47-10.23,1.4-17.78-6.77-15.33-16.84,8.33-34.29,17.93-68.19,31.07-101,1.78-4.47,3.12-9.12,4.63-13.7,1.16-3.51.24-6.06-3.2-7.85-13.14-6.83-26.37-13.5-39.27-20.75-14.93-8.4-29.66-17.17-44.25-26.15-7.29-4.48-9.87-4.56-16.1,1.34C230.49,48.29,206.33,71,182.31,93.8a62.73,62.73,0,0,1-38.65,17.69c-17.71,1.67-35.28,4.65-52.95,6.77C77,119.9,63.24,121,49.51,122.49c-3.78.4-7.53,1.08-12,1.74,2,5.38,3.85,10.24,5.71,15.1,3.58,9.36,6.87,18.72,6.2,29-.52,7.93-5,12.84-11.56,16.2-7.05,3.6-13.22.71-18.17-4a16.07,16.07,0,0,1-4.28-9.74c-1.14-16.6-2.11-33.22-2.3-49.85C13,109.71,20.82,100.83,32,99c13.76-2.3,27.67-3.77,41.49-5.74,8.73-1.25,17.41-2.79,26.12-4.14,14.47-2.25,28.88-5,43.42-6.47C154.28,81.5,162.08,75,169.56,68c22.52-21,44.65-42.47,66.92-63.78a33.31,33.31,0,0,0,2.52-3Z"/><rect class="cls-1" width="512" height="256"/></g></g></svg>