<svg xmlns="http://www.w3.org/2000/svg" viewBox="0 0 512 256"><defs><style>.cls-1{fill:none;}</style></defs><g id="Layer_2" data-name="Layer 2"><g id="Layer_1-2" data-name="Layer 1"><path d="M220,.87C206,8.11,192,15.25,178,22.62c-15.3,8.08-30.64,16.11-45.68,24.66-8.86,5-13.33,13-13.38,23.54-.19,33.8-.58,67.61-1,101.42,0,1.65-.76,3.29-1.16,4.94-1.65-.88-3.72-1.4-4.87-2.72-4-4.65-7.34-10-11.69-14.27a46.51,46.51,0,0,0-12.47-8.8c-7.57-3.62-12.88-2.12-17.84,3.78s-5.68,11.6-.68,18.27c4.44,5.92,9.55,11.88,15.62,15.95a371.76,371.76,0,0,0,37,21.54c9.23,4.74,18.15,0,20.77-10.15A59.66,59.66,0,0,0,144.77,187c.54-32.3.85-64.6,1.23-96.9A104.85,104.85,0,0,0,146,79.62c-.43-4.93,2-7.44,6.14-9.62,27.16-14.12,54.21-28.47,81.29-42.74,3.39-1.78,6.76-3.61,10.19-5.3,5.7-2.79,9.4-2.05,13.83,2.64,5.48,5.81,11.28,11.36,16.34,17.51,14.93,18.16,33.24,32.62,51.2,47.47a200.75,200.75,0,0,0,16.49,12c7.19,4.83,15,4.71,23,2.13,20.39-6.62,40.8-13.16,61.12-20,13.85-4.65,27.54-9.81,41.36-14.58,6.7-2.32,7.42-1.84,8.23,5.11,1.08,9.41,1.74,18.87,2.95,28.27a42.35,42.35,0,0,0,3.1,12c4,8.88,17,9.92,23.66,2.27,6.25-7.2,4.89-15.68,3.67-23.82-2-13.28-6.93-25.68-13.63-37.25-2.63-4.55-6.22-8.61-9.72-12.57-4-4.46-9.58-4.24-14.49-2.92Q438.4,49,406.38,58.6c-16.24,4.86-32.31,10.28-48.45,15.48-4.43,1.43-7.93.33-11.33-2.9Q314.92,41.09,283,11.25c-3.85-3.61-8-6.93-12-10.38Z"/><rect class="cls-1" width="512" height="256" transform="translate(512 256) rotate(180)"/></g></g></svg>