<svg xmlns="http://www.w3.org/2000/svg" viewBox="0 0 512 256"><defs><style>.cls-1{fill:none;}</style></defs><g id="Layer_2" data-name="Layer 2"><g id="Layer_1-2" data-name="Layer 1"><path d="M292,.87C306,8.11,320,15.25,334,22.62c15.3,8.08,30.64,16.11,45.68,24.66,8.86,5,13.33,13,13.38,23.54.19,33.8.58,67.61,1,101.42,0,1.65.76,3.29,1.16,4.94,1.65-.88,3.72-1.4,4.87-2.72,4-4.65,7.34-10,11.69-14.27a46.51,46.51,0,0,1,12.47-8.8c7.57-3.62,12.88-2.12,17.84,3.78s5.68,11.6.68,18.27c-4.44,5.92-9.55,11.88-15.62,15.95a371.76,371.76,0,0,1-37,21.54c-9.23,4.74-18.15,0-20.77-10.15A59.66,59.66,0,0,1,367.23,187c-.54-32.3-.85-64.6-1.23-96.9a104.85,104.85,0,0,1,.05-10.49c.43-4.93-1.95-7.44-6.14-9.62-27.16-14.12-54.21-28.47-81.29-42.74-3.39-1.78-6.76-3.61-10.19-5.3-5.7-2.79-9.4-2.05-13.83,2.64-5.48,5.81-11.28,11.36-16.34,17.51C223.33,60.27,205,74.73,187.06,89.58a200.75,200.75,0,0,1-16.49,12c-7.19,4.83-15,4.71-23,2.13-20.39-6.62-40.8-13.16-61.12-20C72.63,79.1,58.94,73.94,45.12,69.17c-6.7-2.32-7.42-1.84-8.23,5.11-1.08,9.41-1.74,18.87-3,28.27a42.35,42.35,0,0,1-3.1,12c-4,8.88-17,9.92-23.66,2.27C.93,109.62,2.29,101.14,3.51,93c2-13.28,6.93-25.68,13.63-37.25,2.63-4.55,6.22-8.61,9.72-12.57,4-4.46,9.58-4.24,14.49-2.92Q73.6,49,105.62,58.6c16.24,4.86,32.31,10.28,48.45,15.48,4.43,1.43,7.93.33,11.33-2.9Q197.08,41.09,229,11.25c3.85-3.61,8-6.93,12-10.38Z"/><rect class="cls-1" width="512" height="256"/></g></g></svg>