<svg xmlns="http://www.w3.org/2000/svg" viewBox="0 0 512 256"><defs><style>.cls-1{fill:none;}</style></defs><g id="Layer_2" data-name="Layer 2"><g id="Layer_1-2" data-name="Layer 1"><path d="M218,1c-10.77,6.24-21.4,12.75-32.35,18.67C167.51,29.5,149,38.68,131,48.63a32.75,32.75,0,0,0-16.53,21.59q-11,46.13-21.85,92.27a27.54,27.54,0,0,1-3.4,8.61c-2.69-4.57-5.43-9.12-8.06-13.72-4.23-7.39-8.28-14.85-16.66-18.59-6-2.71-11.68-2.66-16.74,1.87s-7.26,10.13-4.63,16.63c1.79,4.43,3.71,9.2,6.87,12.61C61,181.82,72.45,193.47,84.22,204.71A14.9,14.9,0,0,0,100.53,208c2.69-1.12,6-3.21,7-5.66,5.13-13.48,10.51-27,14.11-40.9,6.78-26.22,12.29-52.76,18.7-79.09.69-2.83,3.33-5.84,5.89-7.43,7.33-4.58,15-8.66,22.7-12.6,22.84-11.68,45.21-24.16,66.38-38.7,1.65-1.12,3.39-2.63,5.21-2.84,2.3-.26,5.59-.22,7,1.16,16.43,16.3,32.25,33.22,48.93,49.24,12.58,12.09,26,23.3,39.39,34.55,6.15,5.17,13.64,4.38,19.64.19C385.32,85,414.9,63.74,444.57,42.54a40.11,40.11,0,0,0,6.54-5.41c3.32-3.66,5.88-2.38,7.78,1.08,5.48,10,10.4,20.38,16.21,30.21a54,54,0,0,0,11,13.19c6.67,5.74,20.07,2.14,22.24-7.42,1.49-6.6,1.69-12.67-.95-19-5-12-14.06-20.92-23.13-29.71a145.16,145.16,0,0,0-16.19-13.27c-7.61-5.51-15.56-6-23.68-.58C425,24.55,405.48,37.25,386.1,50.2c-12.58,8.4-25,17-37.41,25.71-2.55,1.79-4.31,1.79-6.47-.39C329.77,63,317.44,50.37,304.74,38.12,291.69,25.54,278.26,13.37,265,1Z"/><rect class="cls-1" width="512" height="256" transform="translate(512 256) rotate(180)"/></g></g></svg>