<svg xmlns="http://www.w3.org/2000/svg" viewBox="0 0 512 256"><defs><style>.cls-1{fill:none;}</style></defs><g id="Layer_2" data-name="Layer 2"><g id="Layer_1-2" data-name="Layer 1"><path d="M294,1c10.77,6.24,21.4,12.75,32.35,18.67C344.49,29.5,363,38.68,381,48.63a32.75,32.75,0,0,1,16.53,21.59q11,46.13,21.85,92.27a27.54,27.54,0,0,0,3.4,8.61c2.69-4.57,5.43-9.12,8.06-13.72,4.23-7.39,8.28-14.85,16.66-18.59,6.05-2.71,11.68-2.66,16.74,1.87s7.26,10.13,4.63,16.63c-1.79,4.43-3.71,9.2-6.87,12.61-11.07,11.92-22.48,23.57-34.25,34.81A14.9,14.9,0,0,1,411.47,208c-2.69-1.12-6-3.21-7-5.66-5.13-13.48-10.51-27-14.11-40.9-6.78-26.22-12.29-52.76-18.7-79.09-.69-2.83-3.33-5.84-5.89-7.43-7.33-4.58-15-8.66-22.7-12.6-22.84-11.68-45.21-24.16-66.38-38.7-1.65-1.12-3.39-2.63-5.21-2.84-2.3-.26-5.59-.22-7,1.16-16.43,16.3-32.25,33.22-48.93,49.24-12.58,12.09-26,23.3-39.39,34.55-6.15,5.17-13.64,4.38-19.64.19C126.68,85,97.1,63.74,67.43,42.54a40.11,40.11,0,0,1-6.54-5.41c-3.32-3.66-5.88-2.38-7.78,1.08-5.48,10-10.4,20.38-16.21,30.21a54,54,0,0,1-11,13.19c-6.67,5.74-20.07,2.14-22.24-7.42-1.49-6.6-1.69-12.67.95-19,5-12,14.06-20.92,23.13-29.71A145.16,145.16,0,0,1,43.88,12.22c7.61-5.51,15.56-6,23.68-.58C87,24.55,106.52,37.25,125.9,50.2c12.58,8.4,25,17,37.41,25.71,2.55,1.79,4.31,1.79,6.47-.39,12.45-12.52,24.78-25.15,37.48-37.4C220.31,25.54,233.74,13.37,247,1Z"/><rect class="cls-1" width="512" height="256"/></g></g></svg>