<svg xmlns="http://www.w3.org/2000/svg" viewBox="0 0 512 256"><defs><style>.cls-1{fill:none;}</style></defs><g id="Layer_2" data-name="Layer 2"><g id="Layer_1-2" data-name="Layer 1"><path d="M225,1,173.5,40.56c-11.21,8.61-22.76,16.83-33.54,26-9.63,8.13-16.42,18.44-21.38,30.28C111,114.9,102.13,132.48,94,150.37c-3.62,8-6.77,16.13-10.13,24.21l-1.49,0c-.66-2-1.33-4.05-2-6.08-2.7-8.53-2.83-17.92-6.44-26-3.22-7.24-11.22-11-20-9.74-7.43,1-12.12,5.29-11.78,12.9.28,6.53,1,13.46,3.53,19.38,5.45,12.83,11.94,25.25,18.47,37.59A39.18,39.18,0,0,0,72.66,213c8.38,7.63,18.33,6.54,24-3.22,7.35-12.62,14.33-25.53,20.44-38.8,11.61-25.21,22.46-50.78,33.74-76.15a13.44,13.44,0,0,1,4-5c17.91-13.8,36-27.4,53.87-41.25,10.24-7.94,20.23-16.2,30.29-24.38,2.65-2.16,4.71-2.5,7,.65q18.67,25.32,37.6,50.46c10.12,13.38,20.34,26.7,30.79,39.83,7.3,9.16,17,10.42,26.34,3.05,12.38-9.81,24.38-20.12,36.4-30.37,16.47-14,32.79-28.25,49.2-42.35,6-5.12,7.15-5.31,13.41-.58S452,55.13,458.36,60a125.53,125.53,0,0,0,15.28,10.27c7.92,4.35,17.08,2.65,21.83-3.39,5.54-7,5.81-16.68-.83-23.26-5.21-5.16-11.67-9.26-18.07-13-9-5.26-18.26-10.43-27.92-14.34-10.85-4.38-21.78-5.14-31.86,3.39C390,42.34,362.88,64.66,336,87.27c-3,2.53-4.64,2.12-6.77-.79q-26.87-36.65-53.85-73.21C272.33,9.13,269.13,5.1,266,1Z"/><rect class="cls-1" width="512" height="256" transform="translate(512 256) rotate(180)"/></g></g></svg>