<svg xmlns="http://www.w3.org/2000/svg" viewBox="0 0 512 256"><defs><style>.cls-1{fill:none;}</style></defs><g id="Layer_2" data-name="Layer 2"><g id="Layer_1-2" data-name="Layer 1"><path d="M233,1c-12.36,15-24.64,30.13-37.12,45.07-12.06,14.45-24.7,28.43-36.37,43.17C147.08,105,140,123.51,134,142.53c-6.13,19.52-12.79,38.88-19.25,58.29-.46,1.37-1.24,2.63-2.38,5-3.11-8.29-5.44-15.72-8.65-22.74-3.71-8.12-8.35-15.73-18.3-17.51-8-1.43-13.63,2.51-14.24,10.6a30.06,30.06,0,0,0,1.31,12.25,161.77,161.77,0,0,0,33,54.2c6.2,6.76,13.29,6.29,18.15-1.59,5-8.16,9.94-16.62,13.25-25.57,7.66-20.72,14.55-41.74,21.34-62.77,6.26-19.41,15.09-37.27,28.57-52.73q21.84-25,43.33-50.38c4.93-5.82,9.41-12,14.65-18.78a54.37,54.37,0,0,1,2.71,5.06c10.4,26.29,20.66,52.64,31.21,78.88a124.31,124.31,0,0,0,9.1,18.26c4.3,7,12,9.77,19.58,6.16,10.15-4.86,19.84-10.75,29.58-16.44q28.44-16.62,56.7-33.56c4.85-2.9,9.37-6.35,14.05-9.52,5.17-3.5,7.86-3.23,12.1,1.45,5.37,5.9,10.3,12.26,16.07,17.74,3.91,3.71,8.75,6.56,13.5,9.23,6.79,3.83,13.31,2,19-2.55,5.48-4.35,6.39-9.89,2.75-16a35.27,35.27,0,0,0-6.47-8.19C452.62,70.53,439.56,61,424.89,54c-7.19-3.43-14.19-4-22.27.19a884.91,884.91,0,0,0-86,51.63c-9.33,6.3-10.27,5.9-14.08-4.74-5.9-16.44-11.5-33-17.78-49.28C278.21,34.76,271,17.94,264,1Z"/><rect class="cls-1" width="512" height="256" transform="translate(512 256) rotate(180)"/></g></g></svg>