<svg xmlns="http://www.w3.org/2000/svg" viewBox="0 0 512 256.98"><defs><style>.cls-1{fill:none;}</style></defs><g id="Layer_2" data-name="Layer 2"><g id="Layer_1-2" data-name="Layer 1"><path d="M272.66,1C291.77,34.91,310.8,68.85,330,102.69c5.85,10.3,6.29,20.58,2.2,31.59-11.06,29.76-21.84,59.63-32.72,89.46-.67,1.85-1.17,3.77-2.29,7.43,6.59-1.72,12.18-2.73,17.46-4.63,10.55-3.81,20.79-5.07,31.41,0,6.24,3,10.35,7.25,11.38,14,1,6.45-3.53,9.95-8,13.33-1.3,1-2.55,2.05-3.81,3.07h-78a15.26,15.26,0,0,1-2.18-13.74c6.57-20.9,12.7-42,19.89-62.65,5.67-16.34,12.59-32.24,19.07-48.29,3-7.43,2.66-14-1.66-21.25-10.25-17.32-19.54-35.21-29.22-52.86-.37-.68-.84-1.3-1.35-2.07,0,8.75-.07,17.14,0,25.53.16,16.78.82,33.57.48,50.33-.28,14.19-16,21.07-27.36,16.47-25.88-10.45-52.07-20.1-78.18-30-9-3.41-18.16-6.47-27.19-9.82-4.28-1.59-7.46-.76-9.52,3.45-3.21,6.57-6.39,13.15-9.61,19.71-2.42,4.91-4.54,10-7.39,14.67-5.44,8.87-17.95,11.34-26.39,5.38-5.48-3.88-7.5-9.77-5.68-15.84s4.32-12.13,8.19-16.83C98.24,108.69,108,99.12,117.2,89c6.9-7.61,15.64-8.94,24.69-6.42,12.29,3.41,24.31,7.82,36.36,12.06,21,7.39,42,15,63,22.46,4.6,1.65,4.27-1.88,4.17-4.37-.26-6.81-1.07-13.6-1.3-20.42q-1.27-39.42-2.27-78.86c-.1-4.15.53-8.3.82-12.45Z"/><rect class="cls-1" width="512" height="256"/></g></g></svg>