<svg xmlns="http://www.w3.org/2000/svg" viewBox="0 0 512 256.98"><defs><style>.cls-1{fill:none;}</style></defs><g id="Layer_2" data-name="Layer 2"><g id="Layer_1-2" data-name="Layer 1"><path d="M160,257a25.11,25.11,0,0,0-2.45-1.54c-8.26-4-11.23-12.28-6-19.89,6.48-9.43,13.84-18.27,21.12-27.11,2.54-3.09,3.9-5.15,2.34-9.78-1.75-5.21-1.5-11.47-.7-17.08a278.1,278.1,0,0,1,6-29.21c3-11.79,9.35-20.17,22.83-21.6,9.06-1,18-3.27,26.89-5.35,1.29-.3,2.81-2.59,3-4.12,2-16.18,4.22-32.36,5.56-48.6,1.87-22.87,3.06-45.8,4.52-68.7A27,27,0,0,0,243,1h30c8.56,14.24,17.24,28.41,25.65,42.75,12.56,21.39,25.13,42.78,37.3,64.39,5.53,9.82,3.13,17.27-7.2,21.39A180.76,180.76,0,0,1,300.17,138c-13,2.8-26.18,4.48-39.23,7-1.85.35-3.69,2.27-4.94,3.92-2.79,3.7-4.78,8.07-7.85,11.49-14,15.6-28.35,30.9-42.4,46.44-5.25,5.8-10.1,12-15,18-1,1.19-1.49,2.75-2.85,5.36,3.66-.8,6-1.35,8.34-1.8,6.7-1.28,13.37-2.72,20.1-3.71,6.32-.93,12.18.76,17.65,4.06,10.16,6.12,10.74,18.33,1.13,25.47-1.31,1-2.72,1.82-4.09,2.72ZM305.75,109.71,267.82,43c-2.28,26.12-4.45,50.93-6.73,77Z"/><rect class="cls-1" width="512" height="256"/></g></g></svg>