<svg xmlns="http://www.w3.org/2000/svg" viewBox="0 0 612.61 202.87"><defs><style>.cls-1{fill:#ad4dc4;}.cls-2{fill:#f3bbff;}.cls-3{fill:none;}</style></defs><g id="Layer_2" data-name="Layer 2"><g id="Layer_1-2" data-name="Layer 1"><g id="Layer0_0_MEMBER_0_FILL" data-name="Layer0 0 MEMBER 0 FILL"><path class="cls-1" d="M523.16,110A33.53,33.53,0,0,0,537,116.79a30.73,30.73,0,0,0,13.22-.46,127.44,127.44,0,0,0,12.91-4.15q15.36-5.84,24.13-10A137.38,137.38,0,0,0,610,89.43c.92-.66,1.79-1.33,2.62-2-1.6-.86-4.11-2.29-7.53-4.31A84,84,0,0,1,586.17,91a45.63,45.63,0,0,1-16,2,32.89,32.89,0,0,1-13.53-3.54A8.51,8.51,0,0,1,559,92.35a8,8,0,0,1,.77,5.54q-1.69,5.07-7.38,8.45-7.85,4.45-19.06,4.46A78.49,78.49,0,0,1,523.16,110Z"/><path class="cls-2" d="M509.63,84.67c-1.32,1.65-2.6,3.13-3.84,4.46a57.66,57.66,0,0,0,10.45,14.6,64.24,64.24,0,0,0,6.92,6.3,78.49,78.49,0,0,0,10.14.77q11.22,0,19.06-4.46,5.68-3.37,7.38-8.45a8,8,0,0,0-.77-5.54,8.51,8.51,0,0,0-2.31-2.92A32.89,32.89,0,0,0,570.19,93a45.63,45.63,0,0,0,16-2,84,84,0,0,0,18.91-7.84l-2.31-1.38Q585,71.3,555.89,67.15,535,64.22,523.62,71,518.23,74.22,509.63,84.67Z"/></g><path id="Layer0_0_MEMBER_1_1_STROKES" data-name="Layer0 0 MEMBER 1 1 STROKES" class="cls-3" d="M0,0H612.61V202.87H0Z"/></g></g></svg>