<svg xmlns="http://www.w3.org/2000/svg" viewBox="0 0 612.61 202.87"><defs><style>.cls-1{fill:#ad4dc4;}.cls-2{fill:#e2e2e2;}.cls-3{fill:#f3bbff;}.cls-4{fill:none;}</style></defs><g id="Layer_2" data-name="Layer 2"><g id="Layer_1-2" data-name="Layer 1"><g id="Layer0_9_MEMBER_0_FILL" data-name="Layer0 9 MEMBER 0 FILL"><path class="cls-1" d="M101,71.3c1.85-1.44,2.82-2.92,2.92-4.46a4.33,4.33,0,0,0-1.38-3.54,6.33,6.33,0,0,0-3.84-1.69q-3.22-.15-7.69,2.77-4.14,3.08-5.07,6a5.85,5.85,0,0,0,1.23,6c1.85,1.84,3.79,2.2,5.84,1.07a14,14,0,0,0,3.38-3.07A21.91,21.91,0,0,1,101,71.3M118.64,55a7.46,7.46,0,0,0-2.92.93,2.75,2.75,0,0,0-.31,4.76,8.6,8.6,0,0,0,2.61.92q1.55.31,6.46.93a31.56,31.56,0,0,1,6.45,1.23,12.37,12.37,0,0,0,3.69.61,2.81,2.81,0,0,0,2.31-2,4.39,4.39,0,0,0,0-3.23q-1.23-2.91-5.07-4-4.46-1.38-13.22-.16m129,13.22a5.16,5.16,0,0,0-4.46-4,4.16,4.16,0,0,0-3.07.92,3.69,3.69,0,0,0-1.69,2.46,4.65,4.65,0,0,0,2.15,4.45l2,1.08a4.4,4.4,0,0,0,4-.31,3.65,3.65,0,0,0,1.38-3.07l-.3-1.54M198.25,52.85c-2.56-2.35-4.92-3.79-7.07-4.3a18.31,18.31,0,0,0-6.76-.31A21.91,21.91,0,0,0,177,49.93q-4,2-7.68,7.69A28.32,28.32,0,0,0,166.44,63q-1.55,4.75-.31,13.52a7.69,7.69,0,0,1,.15,4,14.11,14.11,0,0,1-.76,2.3l-.16.31A20.48,20.48,0,0,1,162,81.44a13.66,13.66,0,0,1-2.92-2.77,21.29,21.29,0,0,0-2.92-2.76q-2.46-1.55-3.84-.46-2,1.53.15,4.76a22.52,22.52,0,0,0,7.84,7.69c2.15,1,3.43,2.1,3.84,3.22a5,5,0,0,1,.16,2.77c-.11,1.13-.31,2.71-.62,4.76a25.74,25.74,0,0,0-.15,4.77l.77,5.53a6.71,6.71,0,0,1-.93,5.38q-7.37.61-14.29,8.3a65,65,0,0,0-5.07,6.92c-2.46,3.79-4.05,6.14-4.77,7.07q-1.84,2.61-1.23,4.3a2.69,2.69,0,0,0,2.31,1.54q3.84.91,8.45-3.69a20.84,20.84,0,0,0,5.07-6,38,38,0,0,0,1.85-4.76,10.3,10.3,0,0,1,6.45-5.53l3.08-.77,4.61-1.69a9.11,9.11,0,0,0,4.3-3.38,10.93,10.93,0,0,0,1.23-5.69c.21-3.18-.2-5.48-1.23-6.92l-1.84-2.76a11.27,11.27,0,0,1,.15-3.08,14.42,14.42,0,0,0-.15-6.15,6.49,6.49,0,0,0,3.07-.15A12.39,12.39,0,0,0,180,89.12a12.16,12.16,0,0,0,3.54-5.53,2.81,2.81,0,0,1,.92,0,3.77,3.77,0,0,0,2.3,1.54A20.42,20.42,0,0,0,191,86.2a23.83,23.83,0,0,0,6.45,1.23h.31c.41.3.87.65,1.38,1.08a47.46,47.46,0,0,1,7.53,10.3q2.93,5.22,1.54,9.22a42,42,0,0,1-2.15,4.3,19.36,19.36,0,0,0-.77,5.38q-.62,2.46-4.15,5.69c-2.46,2-4.4,3.28-5.84,3.69a20.23,20.23,0,0,0-2.61.77,2.33,2.33,0,0,0-1.69,1.53c-.41.92,0,2,1.23,3.23a10.53,10.53,0,0,0,6.45,3.69,10.08,10.08,0,0,0,6.77-1.54,19.73,19.73,0,0,0,3.53-2.46c.79-.09,1.46-.19,2-.3q7.38-1.69,12.6-10.15a5.31,5.31,0,0,1,2.61-2.77c.41-.2,1.69-.15,3.85.16a9.92,9.92,0,0,0,6.14-.77,13.14,13.14,0,0,0,4.92-4,17.9,17.9,0,0,0,3.08-12,3.3,3.3,0,0,1,.46-2.77,3.78,3.78,0,0,1,2.3-1.08,79.5,79.5,0,0,0,11.68-2.92,33.61,33.61,0,0,0,3.54-1.38,18.48,18.48,0,0,1,0,5.84,12.92,12.92,0,0,0,0,5.69,16.48,16.48,0,0,0,2,3.38,12.33,12.33,0,0,0,3.22,2.61,11.73,11.73,0,0,0,4.92.77q5.07.3,7.69-1.23a16.08,16.08,0,0,0,3.38-3.07,39.35,39.35,0,0,1,7.37-6.61l2.46-1.54a10.16,10.16,0,0,0,2.46-2.3,2.7,2.7,0,0,0,1.23-1.7,2.08,2.08,0,0,0-1.53-2.45,5,5,0,0,0-3.08-.31,50.09,50.09,0,0,0-8.3,2,35,35,0,0,1-8.45,2,13.68,13.68,0,0,0-5.07-11.22,10.54,10.54,0,0,0,.61-2.3,11.82,11.82,0,0,0-1.53-7.53,11.47,11.47,0,0,0-6-4.92,11,11,0,0,0-7.68,0,7.68,7.68,0,0,0-4.46,3.84,6.54,6.54,0,0,0,0,5.54A7,7,0,0,0,255.27,85a57.56,57.56,0,0,0-17.21,3.22l-.46.16A17.5,17.5,0,0,0,229.91,87q-5.53.32-8,2.15a13.32,13.32,0,0,1-2,1.39,4,4,0,0,1-2.46-.77c-.67-.38-1.34-.79-2-1.23a25.17,25.17,0,0,0-3.39-4.3,27.73,27.73,0,0,0-3.22-2.62,12.8,12.8,0,0,0,.61-6.14q-.61-12.77-11.22-22.6m.62,17.68a5.06,5.06,0,0,1-.62,1.23,21,21,0,0,1,1.85,5.38,8.81,8.81,0,0,1,7.68,4.76,35.71,35.71,0,0,1,2.61,5.53A23.89,23.89,0,0,0,213.31,91a12.8,12.8,0,0,1,2.62,3.69c.71,1.84,1.48,2.92,2.3,3.23A16,16,0,0,1,223,92.66a8.13,8.13,0,0,1,6.91-1.38l2.31.76a7.54,7.54,0,0,0,2.3.47,12.49,12.49,0,0,0,4-.62,4.77,4.77,0,0,1,3.23.15,16.46,16.46,0,0,1,2.46-.15,3.2,3.2,0,0,1,1.38,0,1.78,1.78,0,0,1,1.23.62,2.29,2.29,0,0,1,0,2.3,2.42,2.42,0,0,1-.77,1.38,3.56,3.56,0,0,1-2.46.62H243a13.87,13.87,0,0,1-1.85,2.77q-4,4.61-17.06,16a21.19,21.19,0,0,1-4,2.92,5.69,5.69,0,0,1-4.92.46c-1.85-.82-3-2.46-3.38-4.92a13.92,13.92,0,0,1,1.07-6q1.69-5.53.92-7.53-.77-1.84-4.3-3.69-4.75-3.07-5.84-5.07c-.51-1.33-.92-2.31-1.23-2.92a5.09,5.09,0,0,0-1.69-2.62,6.88,6.88,0,0,0-2.46-.92c-1.43-.3-2.3-.51-2.61-.61q-3.06-1.38-4.61-7.07h-.16a5.49,5.49,0,0,1-3.07,2.3,6.15,6.15,0,0,1-3.84,0c-2.05-.51-3.28-.66-3.69-.46A3.5,3.5,0,0,0,179,81.9a31.89,31.89,0,0,1-1.84,4,8.88,8.88,0,0,1-2.77,2.76,3.67,3.67,0,0,1-3.84,0c-1.64-1-2.05-2.92-1.23-5.68A23.23,23.23,0,0,0,172,77.29a22.4,22.4,0,0,0,.31-4.46,11.59,11.59,0,0,1,.46-4.61,11.48,11.48,0,0,1,3.07-4.15,12.5,12.5,0,0,1,1.85-4.45,10.84,10.84,0,0,1,6.76-4.77q5.07-.76,10.14,3.23a11.74,11.74,0,0,1,4,4.76,9.94,9.94,0,0,1,.31,7.69m52.71,24.59a2.1,2.1,0,0,1-2-1.08,2,2,0,0,1-.16-2.3l1.23-1.08,2-1.23,1.07-.46a4,4,0,0,1,1.85.92,1.76,1.76,0,0,1,.61,1.85l-.76,1.07a11.58,11.58,0,0,1-2.16,1.54l-1.69.77m359,3.23a4,4,0,0,0,2-3.23,4,4,0,0,0-.92-2.31,4.41,4.41,0,0,0-2.62-1.38v.31a3.17,3.17,0,0,0-2.3.61,4.17,4.17,0,0,0-1.39,2.15A3.64,3.64,0,0,0,606.77,98a3.34,3.34,0,0,0,3.84.31M584.94,90.2l-3.07-.31a2.94,2.94,0,0,0-2.61,1.39,3.78,3.78,0,0,0-.46,2,3.53,3.53,0,0,0,.92,2.62,3.45,3.45,0,0,0,2.76.92,30.36,30.36,0,0,0,8.76-.31c1.85-.2,2.92-.92,3.23-2.15a2.62,2.62,0,0,0-.77-2.77,5.94,5.94,0,0,0-2.92-1.07,40.61,40.61,0,0,1-5.84-.31m-58.4.77c-1-1-2.92-1.54-5.69-1.54q-8.76-.3-13.06,0a13.64,13.64,0,0,0-3.23.77,3.09,3.09,0,0,0-1.69,2.61c0,1.34.82,2.31,2.46,2.92.1,0,1.43.16,4,.46a59.94,59.94,0,0,1,7.22,1.39,15.2,15.2,0,0,0,7.07.15,6.1,6.1,0,0,0,3.53-2.46,3.68,3.68,0,0,0-.61-4.3m33-3.38a14.61,14.61,0,0,1-4.91.92c-1.85-.61-3.23-1-4.15-1.23-1.95-.51-5-.36-9.23.46A8.49,8.49,0,0,0,537.91,89,2.69,2.69,0,0,0,536.53,92c.2,1,1.08,1.75,2.61,2.16.72.2,1.85.46,3.38.77q2.46.77,6,4.3c2.05,1.43,4.71,2,8,1.54a56.75,56.75,0,0,0,8-2.46q4.15-1.69,5.07-3.85a3.91,3.91,0,0,0-.15-3.53A5.43,5.43,0,0,0,567,88.2c-2-1.12-4.4-1.33-7.38-.61m2.77,9.68c-2.25.31-3.64.51-4.15.62l-2.3.76a5.56,5.56,0,0,1-3.39-.15,4.34,4.34,0,0,1-2.92-1.69,2.19,2.19,0,0,1-.46-3.07,4.6,4.6,0,0,1,2.46-1.54l6-2a9.4,9.4,0,0,1,5.84,0,5.42,5.42,0,0,1,2.15,2.15,3,3,0,0,1,.15,2.77c-.51,1-1.64,1.74-3.38,2.15M498.87,94.2c-.51-.31-2-.46-4.45-.46a28.18,28.18,0,0,0-6.92.15,18.53,18.53,0,0,0-3.84,1.84,8.35,8.35,0,0,0-3.07,2.77,2.7,2.7,0,0,0,.76,3.69A3.35,3.35,0,0,0,484,102a10.45,10.45,0,0,0,2.46-1.38q3.22-1.53,10.75-1.07a4.2,4.2,0,0,0,2.62-1.08c.51-.72.82-1.13.92-1.23l.46-.31c.21-.1.15-.3-.15-.61a6.68,6.68,0,0,0-2.16-2.15m-18.28-3.69q-.16-3.69-4.92-4.92a30.19,30.19,0,0,0-7.53-.61q-5.38-.32-6.61-.31a11.12,11.12,0,0,0-6.15,2A6.3,6.3,0,0,0,452.61,92v.47a40.6,40.6,0,0,0-14.29-2.31,121.34,121.34,0,0,0-17.21,1.69,6.44,6.44,0,0,0-1.85-4.46,7.24,7.24,0,0,0-4.3-2.15,6.78,6.78,0,0,0-4.61,1.08,8.32,8.32,0,0,0-3.84,8.45,7.78,7.78,0,0,0,2,4.46,9,9,0,0,1,1.69,2.46,3.94,3.94,0,0,1-1.38,3.53q-3.84,4-12.91,2.77-6.15-.93-8.61-3.07-2.76-2.31-4.91-8a79.49,79.49,0,0,0-4.15-9.22q-3.39-5.07-7.53-6.45a17.76,17.76,0,0,0-5.85-.77H359a7.56,7.56,0,0,0-3.84-5.38,4.86,4.86,0,0,0-3.23-.62,3.52,3.52,0,0,0-.61-.61,9.82,9.82,0,0,0-4.46-2.61,6.86,6.86,0,0,0-4.45.61q-3.07,1.23-3.69,3.23t2.61,5.38l2.15,3.07a11.44,11.44,0,0,1,1.85,4.92,4.84,4.84,0,0,1-1.85,4.61q-2,1.84-7.22.92l-5.69-.92a3.75,3.75,0,0,1-2.46-.77L326.74,91q-6.15-8.46-9.84-10.91a7.75,7.75,0,0,0-3.69-1.23c-1.64,0-2.56.71-2.76,2.15q-.46,1.84,2,3.69c.61.51,1.58,1.28,2.92,2.3a8,8,0,0,1,2.3,2.77l1.08,2.77A38.7,38.7,0,0,0,321.82,98q3.54,5.38,6.46,7.22a19.35,19.35,0,0,0,6.14,2.15,39.81,39.81,0,0,0,9.07.62,15.54,15.54,0,0,0,8.45-2.92,24,24,0,0,0,4.31-4.61l2.3-4.15a7.54,7.54,0,0,0,.16-.77A52.66,52.66,0,0,0,365,96a13.78,13.78,0,0,1,6.15,3.23A12.15,12.15,0,0,1,375,104.8c.82,2.67,1.33,4.2,1.54,4.61a11.75,11.75,0,0,0,4.61,4.77,31.81,31.81,0,0,0,12.45,4.76A29.37,29.37,0,0,0,407,118a20.69,20.69,0,0,0,7.68-4.15q2.78-2.93,5.23-10,6.45-2.77,16.75-3.69,5.83-.47,17.52-1.54a4.23,4.23,0,0,0,2.61-.92,20.23,20.23,0,0,0,4.92.46l7.84-.3a21.85,21.85,0,0,0,7.38-1.39A7.88,7.88,0,0,0,479.66,94a5.56,5.56,0,0,0,.93-3.53M354.25,84.36c.72-.51,2-.67,3.84-.46a8.65,8.65,0,0,0,3.23-2.15q2.46-1.08,6,3.07,2.07,2.55,2,4.46a3.22,3.22,0,0,1,1.69.31,7.55,7.55,0,0,1,2.46,2.3c.92.1,2.1,1.08,3.54,2.92a48.51,48.51,0,0,0,3.84,3.69,9,9,0,0,1,2.61,4.15c.21.92.05,1.54-.46,1.84-.51.11-1.13-.2-1.84-.92l-2.77-3.23a1.83,1.83,0,0,0-1.08-.92l-1.38-.61a3.32,3.32,0,0,1-1.84-2.15,12,12,0,0,0-.31-1.23,2.27,2.27,0,0,0-.77-1.08l-1.38-.46a4.26,4.26,0,0,1-2.92-2.15,3,3,0,0,1-.16-.31,5.49,5.49,0,0,1-2.76,1.69,5.17,5.17,0,0,1-4.61-.61,3.45,3.45,0,0,1-1.54-1.85,3.14,3.14,0,0,1-.31-2.3,4.63,4.63,0,0,0-3.07-.16,12.44,12.44,0,0,0-1.69,3.54,25.12,25.12,0,0,1-1.39,3.53,30.76,30.76,0,0,1-4.3,6.15c-1.64,1.84-3,2.87-4.15,3.07-1.74.21-3.79-.87-6.15-3.22q.31-1.55,2.46-1.23a29,29,0,0,0,3.08.77,6.26,6.26,0,0,0,2.15-1.23q4.61-4,6.91-13.22a3.46,3.46,0,0,1,1.08-2m36.58,27.36c-1.13-.41-1.49-.92-1.08-1.54a1.21,1.21,0,0,1,1.08-.46,29.9,29.9,0,0,1,5.53.92,18.27,18.27,0,0,0,5.53.31q2.31-.32,6.31-3.07a40.39,40.39,0,0,0,7.22-5.85c1.13-1,1.79-1.63,2-1.84,1.12-.51,1.94-.36,2.46.46q-1.54,1.08-4,6c-1.33,3-3.07,4.5-5.22,4.61h-2a5.07,5.07,0,0,0-1.08,1.07,4.87,4.87,0,0,1-1.07,1.08c-.41.31-1.44.31-3.08,0A45.08,45.08,0,0,0,397,113a15.66,15.66,0,0,1-6.15-1.23m36.73-12.14a6,6,0,0,1-2.46.92,5.6,5.6,0,0,1-4,.31,4.26,4.26,0,0,1-1.85-1.08,2.8,2.8,0,0,1-.46-2,3.11,3.11,0,0,1,1.38-1.84l1.54-1.69c.92-.72,1.59-1,2-.93s.61,0,.61-.15A3.42,3.42,0,0,1,428.64,95,3.33,3.33,0,0,1,427.56,99.58Z"/><path class="cls-2" d="M249.59,94a2.1,2.1,0,0,0,2,1.08l1.69-.77a11.58,11.58,0,0,0,2.16-1.54l.76-1.07a1.76,1.76,0,0,0-.61-1.85,4,4,0,0,0-1.85-.92l-1.07.46-2,1.23-1.23,1.08a2,2,0,0,0,.16,2.3M558.2,97.89c.51-.11,1.9-.31,4.15-.62,1.74-.41,2.87-1.13,3.38-2.15a3,3,0,0,0-.15-2.77,5.42,5.42,0,0,0-2.15-2.15,9.4,9.4,0,0,0-5.84,0l-6,2a4.6,4.6,0,0,0-2.46,1.54,2.19,2.19,0,0,0,.46,3.07,4.34,4.34,0,0,0,2.92,1.69,5.56,5.56,0,0,0,3.39.15l2.3-.76M389.75,110.18c-.41.62-.05,1.13,1.08,1.54A15.66,15.66,0,0,0,397,113a45.08,45.08,0,0,1,6.45.46c1.64.31,2.67.31,3.08,0a4.87,4.87,0,0,0,1.07-1.08,5.07,5.07,0,0,1,1.08-1.07h2c2.15-.11,3.89-1.64,5.22-4.61q2.46-4.92,4-6c-.52-.82-1.34-1-2.46-.46-.21.21-.87.82-2,1.84a40.39,40.39,0,0,1-7.22,5.85q-4,2.76-6.31,3.07a18.27,18.27,0,0,1-5.53-.31,29.9,29.9,0,0,0-5.53-.92A1.21,1.21,0,0,0,389.75,110.18Z"/><path class="cls-3" d="M198.25,71.76a5.06,5.06,0,0,0,.62-1.23,9.94,9.94,0,0,0-.31-7.69,11.74,11.74,0,0,0-4-4.76q-5.07-4-10.14-3.23a10.84,10.84,0,0,0-6.76,4.77,12.5,12.5,0,0,0-1.85,4.45,11.48,11.48,0,0,0-3.07,4.15,11.59,11.59,0,0,0-.46,4.61,22.4,22.4,0,0,1-.31,4.46A23.23,23.23,0,0,1,169.36,83c-.82,2.76-.41,4.66,1.23,5.68a3.67,3.67,0,0,0,3.84,0,8.88,8.88,0,0,0,2.77-2.76,31.89,31.89,0,0,0,1.84-4,3.5,3.5,0,0,1,1.23-2.46c.41-.2,1.64,0,3.69.46a6.15,6.15,0,0,0,3.84,0,5.49,5.49,0,0,0,3.07-2.3H191q1.54,5.69,4.61,7.07c.31.1,1.18.31,2.61.61a6.88,6.88,0,0,1,2.46.92,5.09,5.09,0,0,1,1.69,2.62c.31.61.72,1.59,1.23,2.92q1.08,2,5.84,5.07,3.54,1.84,4.3,3.69.78,2-.92,7.53a13.92,13.92,0,0,0-1.07,6c.41,2.46,1.53,4.1,3.38,4.92a5.69,5.69,0,0,0,4.92-.46,21.19,21.19,0,0,0,4-2.92q13.06-11.37,17.06-16A13.87,13.87,0,0,0,243,96.81h.61a3.56,3.56,0,0,0,2.46-.62,2.42,2.42,0,0,0,.77-1.38,2.29,2.29,0,0,0,0-2.3,1.78,1.78,0,0,0-1.23-.62,3.2,3.2,0,0,0-1.38,0,16.46,16.46,0,0,0-2.46.15,4.77,4.77,0,0,0-3.23-.15,12.49,12.49,0,0,1-4,.62,7.54,7.54,0,0,1-2.3-.47l-2.31-.76A8.13,8.13,0,0,0,223,92.66a16,16,0,0,0-4.77,5.23c-.82-.31-1.59-1.39-2.3-3.23A12.8,12.8,0,0,0,213.31,91a23.89,23.89,0,0,1-2.92-3.54,35.71,35.71,0,0,0-2.61-5.53,8.81,8.81,0,0,0-7.68-4.76,21,21,0,0,0-1.85-5.38M425.1,100.5a6,6,0,0,0,2.46-.92A3.33,3.33,0,0,0,428.64,95a3.42,3.42,0,0,0-4.31-1.85c0,.1-.2.15-.61.15s-1.08.21-2,.93l-1.54,1.69a3.11,3.11,0,0,0-1.38,1.84,2.8,2.8,0,0,0,.46,2,4.26,4.26,0,0,0,1.85,1.08,5.6,5.6,0,0,0,4-.31m-67-16.6c-1.84-.21-3.12-.05-3.84.46a3.46,3.46,0,0,0-1.08,2q-2.3,9.23-6.91,13.22a6.26,6.26,0,0,1-2.15,1.23A29,29,0,0,1,341,100q-2.14-.32-2.46,1.23c2.36,2.35,4.41,3.43,6.15,3.22,1.13-.2,2.51-1.23,4.15-3.07a30.76,30.76,0,0,0,4.3-6.15,25.12,25.12,0,0,0,1.39-3.53,12.44,12.44,0,0,1,1.69-3.54,4.63,4.63,0,0,1,3.07.16,3.14,3.14,0,0,0,.31,2.3,3.45,3.45,0,0,0,1.54,1.85,5.17,5.17,0,0,0,4.61.61,5.49,5.49,0,0,0,2.76-1.69,3,3,0,0,0,.16.31,4.26,4.26,0,0,0,2.92,2.15l1.38.46a2.27,2.27,0,0,1,.77,1.08,12,12,0,0,1,.31,1.23,3.32,3.32,0,0,0,1.84,2.15l1.38.61a1.83,1.83,0,0,1,1.08.92l2.77,3.23c.71.72,1.33,1,1.84.92.51-.3.67-.92.46-1.84a9,9,0,0,0-2.61-4.15A48.51,48.51,0,0,1,377,94.81c-1.44-1.84-2.62-2.82-3.54-2.92a7.55,7.55,0,0,0-2.46-2.3,3.22,3.22,0,0,0-1.69-.31q.07-1.91-2-4.46-3.53-4.16-6-3.07A8.65,8.65,0,0,1,358.09,83.9Z"/></g><path id="Layer0_9_MEMBER_1_1_STROKES" data-name="Layer0 9 MEMBER 1 1 STROKES" class="cls-4" d="M0,0H612.61V202.87H0Z"/></g></g></svg>