<svg xmlns="http://www.w3.org/2000/svg" viewBox="0 0 612.61 202.87"><defs><style>.cls-1{fill:#ad4dc4;}.cls-2{fill:#f3bbff;}.cls-3{fill:#e2e2e2;}.cls-4{fill:none;}</style></defs><g id="Layer_2" data-name="Layer 2"><g id="Layer_1-2" data-name="Layer 1"><g id="Layer0_10_MEMBER_0_FILL" data-name="Layer0 10 MEMBER 0 FILL"><path class="cls-1" d="M169.08,84.36a50.12,50.12,0,0,0-5.68-5.53,10.87,10.87,0,0,0-7.53-2.15,5.55,5.55,0,0,0-2.62,1.23,3.23,3.23,0,0,0-1.38,2.3A2.67,2.67,0,0,0,152.94,83a13.51,13.51,0,0,0,2.77,1.23q3.22,1.38,6.92,6.76l1.07,1.84a4.31,4.31,0,0,1,0,2.31l-.15,4.46a9,9,0,0,0,.61,4.91,21.19,21.19,0,0,0,1.85,2.77q.77,2-.77,4.77l-3.07,4a29.51,29.51,0,0,1-2.92,4.92,23,23,0,0,0-2.31,1.84,4.31,4.31,0,0,0-2.3-.15,6.94,6.94,0,0,0-4.31,1.69,5.4,5.4,0,0,0-2,4.3,4.26,4.26,0,0,0,1.23,2.62,3.89,3.89,0,0,0,2.62,1.38q2.91.47,5.84-2.77a1.74,1.74,0,0,0,.3-.61,5.6,5.6,0,0,0,1.23-.46A39.3,39.3,0,0,0,164,125.4q1.85-1.4,5.53-4a24.48,24.48,0,0,0,3.85-5.53l2-3.54a18.46,18.46,0,0,0,2-4.76,10,10,0,0,0,0-4.92,6.16,6.16,0,0,0-2.46-3.54,5.58,5.58,0,0,1-1.69-1.22,3.45,3.45,0,0,1-.46-2c.21-3.59-.31-6.46-1.54-8.61l-2.15-2.92M123.74,53.93a13.19,13.19,0,0,0-6,2.15,4.48,4.48,0,0,0-1.85,2.61,4,4,0,0,0,.31,3.08,5.06,5.06,0,0,0,3.84,2.15,17.24,17.24,0,0,0,4.62-.46l3.38-.77a6.65,6.65,0,0,0,4-2,3.38,3.38,0,0,0,0-4.3,6.3,6.3,0,0,0-3.84-2.46,15.48,15.48,0,0,0-4.46,0M101.61,64.38a2.8,2.8,0,0,0,.16-1.54,2.74,2.74,0,0,0-1.08-1.07,6.17,6.17,0,0,0-4.15-.16l-6.76,3.54a7.3,7.3,0,0,0-2,1.54,3.51,3.51,0,0,0-.15,4.3,4,4,0,0,0,4,1.84,10.42,10.42,0,0,0,2.92-1.07q5.53-3.23,7.07-7.38m167.22,29.2a8.25,8.25,0,0,0,.31,5.38,10.38,10.38,0,0,0-4.31,3.23,8.17,8.17,0,0,0-2.15,4.92,8.54,8.54,0,0,0,1.08,5.22A7.89,7.89,0,0,0,267.6,116a8.11,8.11,0,0,0,8.3-.61,11.78,11.78,0,0,0,5.38-6.61c.1-.27.2-.58.31-.92a8.14,8.14,0,0,0,2.61-.47c1.64-.51,3.58-2,5.84-4.45a13,13,0,0,0,1.84-2.46c.52-1.23.46-3.08-.15-5.53a8.39,8.39,0,0,0-1.23-2.16,2.57,2.57,0,0,0-2.46.46l-2.3,1.39a31.83,31.83,0,0,1-3.85,2,.53.53,0,0,0-.15-.31,6.91,6.91,0,0,0-2.31-1.69A25.61,25.61,0,0,1,277,93.43,15.9,15.9,0,0,0,273.13,91c-1.94-.31-3.38.56-4.3,2.61m-28.89-4.92Q237,90.21,235.48,91q-3.07,1.23-4.46,1.84a23.81,23.81,0,0,1-4.3,2,11.79,11.79,0,0,0-3.38.77,14.57,14.57,0,0,1-1.85.77l-.31-.16a8.19,8.19,0,0,0-1.53-4.3,24.59,24.59,0,0,0-2.92-3.69,34.45,34.45,0,0,1-3.38-4,26.92,26.92,0,0,1-3.08-6.46,21,21,0,0,0-3.07-6.3,30.93,30.93,0,0,1-2.15-3.07,8.86,8.86,0,0,1-.16-3.69,12.18,12.18,0,0,0-.46-5.38q-1.68-4.31-8.3-7.38-8.61-3.84-16.29-2.61a19.92,19.92,0,0,0-7.53,3.38,15,15,0,0,0-4.76,6.61,24.44,24.44,0,0,0-.77,7.22,20.55,20.55,0,0,0,.77,8,13.54,13.54,0,0,0,6.14,7.07,18.37,18.37,0,0,0,15.68,2.16c2.87-.93,4.87-1.23,6-.93,1.54.21,2.92,1.28,4.15,3.23.72,1,1.75,2.56,3.08,4.61a26.56,26.56,0,0,0,4.76,4.15c.21.21,1.23,1.13,3.08,2.77a22,22,0,0,0,3.22,2.3l.31.16a10.48,10.48,0,0,0,.77,3.38l.77,2a13.4,13.4,0,0,1-.16,3.38,8.72,8.72,0,0,0,1.39,5.22,8.5,8.5,0,0,0,.92,1.08,84.77,84.77,0,0,1-5.38,10.45c-1.23,2.36-2.46,3.84-3.69,4.46a10.73,10.73,0,0,1-4.76.92,12.34,12.34,0,0,0-4.61,1.08c-1.75,1.22-2.31,2.61-1.69,4.14.51,1.34,2.25,2,5.22,2q7.06,0,10-2.3l3.38-3.38a26.45,26.45,0,0,1,6.15-4,13.33,13.33,0,0,0,5.69-10,5,5,0,0,1-1.08.92,6.15,6.15,0,0,1-3.69,1.23c-1.64,0-2.61-.66-2.92-2s.16-2.66,1.69-4a3.6,3.6,0,0,0,1.39-1.54,3.76,3.76,0,0,0,0-2.15,15.16,15.16,0,0,1,.15-4.77,8,8,0,0,1,1.08-3.53,13,13,0,0,1,3.07-2.61,47,47,0,0,1,8.91-4,3.37,3.37,0,0,1,2.31.15c.92.72,1,1.64.31,2.77a6.82,6.82,0,0,1-2.62,1.85L229,104.65a3.06,3.06,0,0,0-1.07.77,2.15,2.15,0,0,0,.3,1.84c.52.92,1.34,2.31,2.46,4.15a5.83,5.83,0,0,1-.61,4.46,6.72,6.72,0,0,1-1.69,2.15,10.85,10.85,0,0,0,3.23-1.23,7.18,7.18,0,0,0,3.53-2.92,16.42,16.42,0,0,0,1.23-2.77,11.89,11.89,0,0,0,1.08-5.07,4.74,4.74,0,0,1,.3-2.15,8.58,8.58,0,0,0,5.69,1.38,7.67,7.67,0,0,0,5.07-2.46,8.32,8.32,0,0,0,2.61-5.07,8.11,8.11,0,0,0-1.07-5.53,8.6,8.6,0,0,0-4.46-3.54,7.83,7.83,0,0,0-5.68,0M196.75,65.92a8.68,8.68,0,0,1,3.38,1.69,14.92,14.92,0,0,1,2,2.92,10.75,10.75,0,0,0,3.84,2.3q3.08,2,3.38,8.92c0,1.84-.31,3-.92,3.53-.92.72-2.36.51-4.31-.61a61.78,61.78,0,0,1-8.91-5.84c-2-1.57-3.41-2.69-4.3-3.38A12.63,12.63,0,0,1,183.38,77a9.79,9.79,0,0,1-5.84-2.76q-2.78-2.93-2.46-10.76,0-4.77,2.3-6.15c.62-.41,2.26-.61,4.92-.61h4a20.61,20.61,0,0,1,3.84.3,9.83,9.83,0,0,1,4.3,2.77,8.72,8.72,0,0,1,2.15,4.76,10.23,10.23,0,0,1,.16,1.39m46.11,1.23a7.53,7.53,0,0,0,3.68,1.38,5.5,5.5,0,0,0,4.31-1.08,5.24,5.24,0,0,0,2.3-3.84,4.92,4.92,0,0,0-1.38-4.3,6.65,6.65,0,0,0-4-1.85,5.76,5.76,0,0,0-5.68,2.46,4.84,4.84,0,0,0-.93,3.69,6.07,6.07,0,0,0,1.7,3.54m6.91,17.36a7,7,0,0,0-.15,5.23,7.62,7.62,0,0,0,2.92,4.46,10.12,10.12,0,0,0,6,1.84q6.62,0,9.68-5.07a10,10,0,0,0,1.23-7.38,15.78,15.78,0,0,0-3.22-7.22A11.13,11.13,0,0,0,261.61,73a6.35,6.35,0,0,0-4.92.46,8.17,8.17,0,0,0-3.54,3.69l-1.07,2.92a37.84,37.84,0,0,1-2.31,4.45m6.92,4.92a4.69,4.69,0,0,1-2.46-3.69,4.53,4.53,0,0,1,.92-3.53,5.53,5.53,0,0,1,2.77-1.69,5,5,0,0,1,3.22.46,3,3,0,0,0,1.54.61h.77a1.47,1.47,0,0,1,1.23.62c.72.72.77,1.89.15,3.53l-.61,1.39-1.23.92a7.31,7.31,0,0,1-1.85,1.23,4.55,4.55,0,0,1-4.45.15m352.42,6.92a2.18,2.18,0,0,0,2.61-.46,1.75,1.75,0,0,0,.61-2.46,12.67,12.67,0,0,0-1.07-.92c-.82-.31-1.33-.41-1.54-.31v.31a2.1,2.1,0,0,0-1.38.3,2.31,2.31,0,0,0-.77,1.23l.15,1.23a2.23,2.23,0,0,0,1.39,1.08m-26,1.23a8,8,0,0,0,2.61.77q6.62.77,8.3.46,3.69-.61,3.85-3.23c.3-1.43-.31-2.61-1.85-3.54a10.48,10.48,0,0,0-4.3-.76,42.83,42.83,0,0,0-5.84.61A5.54,5.54,0,0,0,582.82,93a2.34,2.34,0,0,0-.92,2.3,2.72,2.72,0,0,0,1.23,2.31M350.75,87.74a9.89,9.89,0,0,0,0,2.77q-5,.12-11.84,3.53-3.37,1.69-4.91,1.39a8.28,8.28,0,0,1-3.69-1.69,7.15,7.15,0,0,1-1.54-1.39,12.79,12.79,0,0,1-1.23-2.46,25.55,25.55,0,0,0-2.46-4.61c-1.43-2-2.82-3.17-4.15-3.38q-2.61-.62-6.76,2.15c-1.23,1-1.9,1.85-2,2.46a1.66,1.66,0,0,0,1.23,2.15,6.42,6.42,0,0,0,2.31.31,39.89,39.89,0,0,1,3.68,2.15l2.31,1.39a5.61,5.61,0,0,1,.77,2.15l.92,4.45c.62,3.69,1.64,6.26,3.07,7.69s3.8,2.61,7.07,3.23a43.57,43.57,0,0,0,6.15.61,18,18,0,0,0,4.61-.77,13.19,13.19,0,0,0,3.54-2.92,31.64,31.64,0,0,1,3.23-3.53,43.76,43.76,0,0,1,4.61-3.38,10.63,10.63,0,0,0,2.3-2.92,11.53,11.53,0,0,0,4.61-.16c2.05-.51,3.18-.77,3.38-.77l1.85.31q6.15.93,8.76-3.07a7.94,7.94,0,0,0,1.07-5.23,10.82,10.82,0,0,0-2.3-5.07A10.05,10.05,0,0,0,371,79.9,23.05,23.05,0,0,0,363.5,79a13.85,13.85,0,0,0-1.38-3.84,4.13,4.13,0,0,0-1.38-1.54,4,4,0,0,0-2.62-.77,35.22,35.22,0,0,0-14,2L342,75.91a3.09,3.09,0,0,0-.92,2.3,2.64,2.64,0,0,0,1.07,2.31,4.64,4.64,0,0,0,2,1.07,9.6,9.6,0,0,0,3.07.46,23.17,23.17,0,0,0,4.46-.76,12.46,12.46,0,0,1,4.3-.62,8.22,8.22,0,0,0-5.22,7.07M362,89.12c-.72-.92-.72-2.1,0-3.53a3.72,3.72,0,0,1,1.38-1.69,4.39,4.39,0,0,1,2-.46l2.3-.16c.52,0,.67-.1.46-.3,1.75.41,2.82,1.12,3.23,2.15a14.74,14.74,0,0,1,.46,1.69L371,89.43A3.31,3.31,0,0,1,369,91a7.26,7.26,0,0,1-2.62-.31L364,90.35a3,3,0,0,1-2-1.23m-22.29,8a27,27,0,0,0,3.69-1.23l4-.62a19.67,19.67,0,0,0,5.53-3.38l1.23-.31A1.92,1.92,0,0,1,355.36,93l-.31,1.69a18.35,18.35,0,0,1-2,4.92,6.43,6.43,0,0,1-4.15,2.92,10.47,10.47,0,0,0-3.38.15c-1,.72-1.79,1.23-2.3,1.54q-2,1.38-6.61.3a13.56,13.56,0,0,1-4-1.38,3.35,3.35,0,0,1-1.54-3.53c.41-1.44,1.7-2.26,3.85-2.46h4.76M552.85,105a28.82,28.82,0,0,0,6.92.3,11.37,11.37,0,0,0,6.61-3.84,6.84,6.84,0,0,0,1.69-2.92c.1-1.43-.62-2.82-2.15-4.15a17.53,17.53,0,0,0-20.44-1.69c-1.44.92-2.36,1.49-2.77,1.69-1.43.51-2.25,1.08-2.46,1.69a2.49,2.49,0,0,0,.77,2c.1.1.72.56,1.84,1.38l2.16,2.46c1.12,1.13,3.74,2.15,7.83,3.08m6.46-3.69a6.23,6.23,0,0,1-2.46.15q-2-.15-2.61-.15l-2.62.3c-2.35,0-3.79-1.07-4.3-3.22a8.54,8.54,0,0,1,4-4.92,8.1,8.1,0,0,1,6.3-.77,9.12,9.12,0,0,1,3.23,2A3.88,3.88,0,0,1,561.92,98a3.62,3.62,0,0,1-2.61,3.23m-34.89-3.38A20.05,20.05,0,0,1,529.65,99a10.68,10.68,0,0,0,7.53-2,3.81,3.81,0,0,0,1.23-1.69,2.79,2.79,0,0,0-1.85-2.46A24.68,24.68,0,0,0,531.49,91a20.08,20.08,0,0,0-10.14.77c-1.85.61-2.92,1.53-3.23,2.76a2.81,2.81,0,0,0,.46,2.31A3,3,0,0,0,520.42,98a20.32,20.32,0,0,0,4-.15m-33.66,3.22c3.59-.3,5.59-.51,6-.61a5.66,5.66,0,0,0,2.46-1.85A3.56,3.56,0,0,0,500,96c-.41-1.84-2-3-4.76-3.38a24.56,24.56,0,0,0-8.92.46,26.19,26.19,0,0,0-3.38,1.23,3.5,3.5,0,0,0-1.84,2.92,3.15,3.15,0,0,0,1.08,2.61,5,5,0,0,0,2.61,1.39,9.82,9.82,0,0,0,3.07.15,20.75,20.75,0,0,0,2.92-.31M442.2,94.66l-3.69-.31a64.1,64.1,0,0,1-7.07-1.08l-3.69-.92a7.27,7.27,0,0,0-3.08.46,4.39,4.39,0,0,1-2.3.46,3.2,3.2,0,0,1-1.85-.92q-3.37-2.14-5.22-2.15h-1.85a13.68,13.68,0,0,1-3.84-1.08c.21.31-.05.47-.77.47a2.13,2.13,0,0,0-1.69,1.07,2,2,0,0,0-.3,1.85,4.5,4.5,0,0,0,2.61,2.92L413.15,97c1.12.72,1.69,1.34,1.69,1.85a6.46,6.46,0,0,0-.46,4.61c0,.27.1.52.15.77a6,6,0,0,0-1.38.3l-1.54.93-2.61,2a18.86,18.86,0,0,1-2,1.08c-.19-.2-.39-.41-.62-.61a5.36,5.36,0,0,0-4.61-1.7,16.51,16.51,0,0,1-5.68,1.08c-1.44-.51-2.51-.87-3.23-1.08a6.5,6.5,0,0,0-6.3,1.54,36.54,36.54,0,0,0-3.08-4.92c-.61-1-1.28-1.48-2-1.38-.93.31-1.28,1.08-1.08,2.31a13,13,0,0,0,.92,2.45A6.57,6.57,0,0,1,381,110a10.52,10.52,0,0,0-.62,3.84,5.38,5.38,0,0,0,3.23,3.53l8.3,3.08a13.47,13.47,0,0,0,12.29-1.69q4-2.46,4.15-6.3c0-.18,0-.38,0-.62a11.13,11.13,0,0,0,6.46-2.77,4.53,4.53,0,0,0,1.53-1.84,3,3,0,0,0,.31.31,8.47,8.47,0,0,0,4.31,2,9.62,9.62,0,0,0,4.91-.31,18.42,18.42,0,0,0,3.38-2.61l2.46-2.46,1.85-1.39,3.23-.46a19.37,19.37,0,0,0,9.52-3.07,11.41,11.41,0,0,0,2-1.69c.72-.92.87-1.69.46-2.31-.2-.51-.76-.87-1.69-1.07l-4.91.46M388.25,115a2,2,0,0,1,.46-2.16,2.94,2.94,0,0,1,2.15-.61l1.08.15,1.07-.15a15,15,0,0,1,4.15-.31,4.83,4.83,0,0,1,2.15.46c.82.62,1.23,1.18,1.23,1.69.21,1.34-.46,2.21-2,2.62l-3.54.46a11.65,11.65,0,0,1-3.53.46,3.85,3.85,0,0,1-1.69-.92c-.93-.52-1.44-1.08-1.54-1.69m35.5-18.45a7.33,7.33,0,0,1,3.08-.92l.3-.31a4.61,4.61,0,0,1,4.15,2.15,3.71,3.71,0,0,1,.16,4.61,5.85,5.85,0,0,1-2.31,1.85,6.66,6.66,0,0,1-2.15.92,4.58,4.58,0,0,1-4.3-1.23,4.38,4.38,0,0,1-1.23-4.15,6.26,6.26,0,0,1,2.3-2.92M477.24,89c-.52-1.13-2-2-4.46-2.77L468,85.44a12.13,12.13,0,0,0-5.54.3A7.27,7.27,0,0,0,459,89.43c-.82,1.74-.57,3,.77,3.84a4.92,4.92,0,0,0,2.46.47,20.32,20.32,0,0,1,3.53.92,16.92,16.92,0,0,0,4.92.61,9.52,9.52,0,0,0,5.07-1.53C477.54,92.3,478.06,90.71,477.24,89Z"/><path class="cls-2" d="M236.55,100.81A6.82,6.82,0,0,0,239.17,99c.71-1.13.61-2-.31-2.77a3.37,3.37,0,0,0-2.31-.15,47,47,0,0,0-8.91,4,13,13,0,0,0-3.07,2.61,8,8,0,0,0-1.08,3.53,15.16,15.16,0,0,0-.15,4.77,3.76,3.76,0,0,1,0,2.15,3.6,3.6,0,0,1-1.39,1.54c-1.53,1.33-2.1,2.66-1.69,4s1.28,2,2.92,2a6.15,6.15,0,0,0,3.69-1.23,5,5,0,0,0,1.08-.92.9.9,0,0,0,.46-.46,6.72,6.72,0,0,0,1.69-2.15,5.83,5.83,0,0,0,.61-4.46c-1.12-1.84-1.94-3.23-2.46-4.15a2.15,2.15,0,0,1-.3-1.84,3.06,3.06,0,0,1,1.07-.77l7.53-3.84m-36.42-33.2a8.68,8.68,0,0,0-3.38-1.69,10.23,10.23,0,0,0-.16-1.39,8.72,8.72,0,0,0-2.15-4.76,9.83,9.83,0,0,0-4.3-2.77,20.61,20.61,0,0,0-3.84-.3h-4c-2.66,0-4.3.2-4.92.61q-2.3,1.38-2.3,6.15-.32,7.83,2.46,10.76A9.79,9.79,0,0,0,183.38,77a12.63,12.63,0,0,0,7.53-1.53c.89.69,2.33,1.81,4.3,3.38a61.78,61.78,0,0,0,8.91,5.84c1.95,1.12,3.39,1.33,4.31.61.61-.51.92-1.69.92-3.53q-.3-6.91-3.38-8.92a10.75,10.75,0,0,1-3.84-2.3,14.92,14.92,0,0,0-2-2.92m54.1,18.13a4.69,4.69,0,0,0,2.46,3.69,4.55,4.55,0,0,0,4.45-.15A7.31,7.31,0,0,0,263,88.05l1.23-.92.61-1.39c.62-1.64.57-2.81-.15-3.53a1.47,1.47,0,0,0-1.23-.62h-.77a3,3,0,0,1-1.54-.61,5,5,0,0,0-3.22-.46,5.53,5.53,0,0,0-2.77,1.69,4.53,4.53,0,0,0-.92,3.53m89.14,10.15a27,27,0,0,1-3.69,1.23h-4.76c-2.15.2-3.44,1-3.85,2.46a3.35,3.35,0,0,0,1.54,3.53,13.56,13.56,0,0,0,4,1.38q4.61,1.08,6.61-.3c.51-.31,1.28-.82,2.3-1.54a10.47,10.47,0,0,1,3.38-.15,6.43,6.43,0,0,0,4.15-2.92,18.35,18.35,0,0,0,2-4.92l.31-1.69a1.92,1.92,0,0,0-1.23-1.39l-1.23.31a19.67,19.67,0,0,1-5.53,3.38l-4,.62M362,85.59c-.72,1.43-.72,2.61,0,3.53a3,3,0,0,0,2,1.23l2.45.31A7.26,7.26,0,0,0,369,91a3.31,3.31,0,0,0,2-1.54l.76-2.61a14.74,14.74,0,0,0-.46-1.69c-.41-1-1.48-1.74-3.23-2.15.21.2.06.3-.46.3l-2.3.16a4.39,4.39,0,0,0-2,.46A3.72,3.72,0,0,0,362,85.59m64.86,10a7.33,7.33,0,0,0-3.08.92,6.26,6.26,0,0,0-2.3,2.92,4.38,4.38,0,0,0,1.23,4.15,4.58,4.58,0,0,0,4.3,1.23,6.66,6.66,0,0,0,2.15-.92,5.85,5.85,0,0,0,2.31-1.85,3.71,3.71,0,0,0-.16-4.61,4.61,4.61,0,0,0-4.15-2.15l-.3.31m-38.12,17.21a2,2,0,0,0-.46,2.16c.1.61.61,1.17,1.54,1.69a3.85,3.85,0,0,0,1.69.92,11.65,11.65,0,0,0,3.53-.46l3.54-.46c1.53-.41,2.2-1.28,2-2.62,0-.51-.41-1.07-1.23-1.69a4.83,4.83,0,0,0-2.15-.46,15,15,0,0,0-4.15.31l-1.07.15-1.08-.15A2.94,2.94,0,0,0,388.71,112.79Z"/><path class="cls-3" d="M556.85,101.42a6.23,6.23,0,0,0,2.46-.15A3.62,3.62,0,0,0,561.92,98a3.88,3.88,0,0,0-1.07-3.38,9.12,9.12,0,0,0-3.23-2,8.1,8.1,0,0,0-6.3.77,8.54,8.54,0,0,0-4,4.92c.51,2.15,1.95,3.22,4.3,3.22l2.62-.3Q554.86,101.27,556.85,101.42Z"/></g><path id="Layer0_10_MEMBER_1_1_STROKES" data-name="Layer0 10 MEMBER 1 1 STROKES" class="cls-4" d="M0,0H612.61V202.87H0Z"/></g></g></svg>