<svg xmlns="http://www.w3.org/2000/svg" viewBox="0 0 612.61 202.87"><defs><style>.cls-1{fill:#ad4dc4;}.cls-2{fill:#e2e2e2;}.cls-3{fill:#f3bbff;}.cls-4{fill:none;}</style></defs><g id="Layer_2" data-name="Layer 2"><g id="Layer_1-2" data-name="Layer 1"><g id="Layer0_11_MEMBER_0_FILL" data-name="Layer0 11 MEMBER 0 FILL"><path class="cls-1" d="M191.47,107.11a5.6,5.6,0,0,0,.15-5.54,5.12,5.12,0,0,0-4.91-3.07c0,.1-.16.15-.47.15a3,3,0,0,0-2.15.62,5.43,5.43,0,0,0-2.15,3.84,7.88,7.88,0,0,0,1.38,4.3,5.4,5.4,0,0,0,2.62,2,3.6,3.6,0,0,0,3.07-.15,5.09,5.09,0,0,0,2.46-2.15M170,127.86l2.31.92.92-.31a2.84,2.84,0,0,0,1.54-3.23,3,3,0,0,0-2.62-2.3v.3a1.75,1.75,0,0,0-1.84.47l-.77.61-.15,1.08a2.56,2.56,0,0,0,.61,2.46M155.2,55.62a11.76,11.76,0,0,0-4.46-2.46c-2.05-.41-3.58,0-4.61,1.23a3.31,3.31,0,0,0-.92,3.07,3.84,3.84,0,0,0,1.69,2.62l2.3.92a19.45,19.45,0,0,1,3.23,2.15,3.25,3.25,0,0,0,3.54.31,2.9,2.9,0,0,0,1.38-2,4.94,4.94,0,0,0,0-2.46,5.29,5.29,0,0,0-.77-2,4.21,4.21,0,0,0-1.38-1.38m32,23.36a9.7,9.7,0,0,0-3.08-2.46,9.3,9.3,0,0,0-4.76-.31A6.09,6.09,0,0,0,175.18,79c-1.13,1.85-1.13,3.48,0,4.92a14.49,14.49,0,0,0,3.53,2.61,12.44,12.44,0,0,1,1.39,2,4.79,4.79,0,0,0,1.53,1.84,4,4,0,0,0,3.38.93,6,6,0,0,0,3.08-1.85c1.54-1.94,1.84-4.3.92-7.07A9.37,9.37,0,0,0,187.17,79M303.82,95.27a5.35,5.35,0,0,0-3.54.92,6.16,6.16,0,0,0-2.3,5.08,7.21,7.21,0,0,0,1.38,4.45,4,4,0,0,0,4,2.16q3.52,0,4.92-3.69A6.13,6.13,0,0,0,307.2,97a5.4,5.4,0,0,0-3.38-1.69m-7.22,15.37a3.85,3.85,0,0,0,.61,1.54,2.62,2.62,0,0,0,2.15.77,2.91,2.91,0,0,0,2.15-.77,1.78,1.78,0,0,0,.62-1.23,2.67,2.67,0,0,0-.31-2.46,2.41,2.41,0,0,0-2.15-1.23l-.15.15a2.31,2.31,0,0,0-2.77,2l-.15,1.23M278.92,80.06a11,11,0,0,0,1.54,10.6,11.83,11.83,0,0,0,9.37,5.23q4,0,6-2a6,6,0,0,0,1.53-4.61,6,6,0,0,0-2.3-4.3c-1.12-.85-3-1.31-5.53-1.39a11,11,0,0,1,2.76,2.92,4.7,4.7,0,0,1,1.23,2.61,3.06,3.06,0,0,1-1.23,3.08,3.68,3.68,0,0,1-3.23.61A6.4,6.4,0,0,1,286.3,91l-2.15-2.61a8.34,8.34,0,0,1-1.08-2.31,3.14,3.14,0,0,1,2.46-3.23,4.51,4.51,0,0,1,3.38.31,5.6,5.6,0,0,0-3.84-7.38,5.21,5.21,0,0,0-3.08.31,6.44,6.44,0,0,0-3.07,4M223.59,68.68c-.31-1.64-1.48-3.89-3.53-6.76l-1.54-2a6.75,6.75,0,0,1,.61,3.08,6.55,6.55,0,0,1-1.53,4,9.92,9.92,0,0,1-5.84,3.38,9.52,9.52,0,0,1-6.77-.92c-1.12,1.33-3.38,1.8-6.76,1.39a15.8,15.8,0,0,1-4.15-1.23,4.06,4.06,0,0,1-2.15-3.69,4,4,0,0,1,2.15-3.38,10.35,10.35,0,0,1,4.15-1.23,6.81,6.81,0,0,1,2.92-5.08,17.6,17.6,0,0,1,5.54-2.15,9.88,9.88,0,0,1,5.68-.15c.09,0,.14,0,.16,0a19.32,19.32,0,0,0-6.46-3.54q-4-.91-5.84.77a4.44,4.44,0,0,0-1.69,2.92l-1.54,2c-2.35,1.44-3.84,2.77-4.45,4l-.93,2.3L188.55,65q-2.61,2.76-.92,6.91A9,9,0,0,0,193,76.68a7.89,7.89,0,0,0,4.61.46A13.83,13.83,0,0,0,201,76.06L205.46,75A10.37,10.37,0,0,0,209,72.83a11.19,11.19,0,0,0,5.07,2.92l.62.16.15.15L216.06,79a11.49,11.49,0,0,0,1.54,2.61,5.31,5.31,0,0,0,6.15,1.69,4.27,4.27,0,0,0,2.3-2.15,4.05,4.05,0,0,0,.46-3.22,7.43,7.43,0,0,0-1.07-2,10.45,10.45,0,0,1-1.39-2l-.61-1.08a6.8,6.8,0,0,0,.15-4.15m39,21.52h-4a5.46,5.46,0,0,0-3.84,2.92,5.28,5.28,0,0,0-.46,4.77,23.43,23.43,0,0,1-3.23,3.68c-.26.26-.51.52-.77.77a4.23,4.23,0,0,0-2.92-2q-3.07-.45-5.07,2.62a10.38,10.38,0,0,0-1.38,5.68q-.47,5.85-.46,6c-.82,2.66-1.23,4.1-1.23,4.3a4.34,4.34,0,0,0,.15,2.92,4.48,4.48,0,0,0-1.69.46l-1.54,1.39a6.76,6.76,0,0,0-1.23,1.53,3,3,0,0,0-.3,2.62,3.22,3.22,0,0,0,2.15,1.69,3.56,3.56,0,0,0,2-.77l2.3-2.77.31-.77a6.14,6.14,0,0,0,.15-1.38,4.18,4.18,0,0,0,2,.15,10,10,0,0,0,3.38-1.38,10.66,10.66,0,0,0,3.54-3.23,12.33,12.33,0,0,0,1.69-6.91,7.92,7.92,0,0,0,1.54,0,9.56,9.56,0,0,0,4.76-2.31,31,31,0,0,0,6.92-8,10.62,10.62,0,0,1,2-2.77l2.31-1.69A4.36,4.36,0,0,0,271.08,93a4.27,4.27,0,0,0-3.84-3.23,8.84,8.84,0,0,0-2.31,0l-2.3.46M260.17,95c1.74.61,2.61,1.63,2.61,3.07l-.77,3.23a6.76,6.76,0,0,1-1.53,2l-.77.77a2.83,2.83,0,0,1-2.61.31,3.3,3.3,0,0,1-2.16-1.54l-.46-2.3.16-1.69.92-1.85,1.23-1.38a3.82,3.82,0,0,1,3.38-.61m-4.46,12.75a4.68,4.68,0,0,1-1.07,1.38,2.59,2.59,0,0,1-2.15.77,4,4,0,0,1-2.92-1.07,2.71,2.71,0,0,1-.93-2.92,3.53,3.53,0,0,1,1.08-1.69l1.08-.93a3.69,3.69,0,0,1,3.68-.15,2.7,2.7,0,0,1,1.69,3.23l-.46,1.38m-8.6,2.77h1.07l.16.15.61,1.08-.61,1.07-.93.46-.92-.46-.46-.61.31-.62.77-1.07M601.83,96.35a4.69,4.69,0,0,0,2.61,2.92,8.65,8.65,0,0,0,2.77.46,7.89,7.89,0,0,0,3.23-.46,3.74,3.74,0,0,0,2-2.61,4.4,4.4,0,0,0-.3-3.23c-1-2.15-2.87-3.13-5.54-2.92a5.94,5.94,0,0,0-3.84,1.84,4.59,4.59,0,0,0-.92,4m-184,11.22a12.65,12.65,0,0,0-9.68-.46,5.77,5.77,0,0,0-2.62-4.77,4,4,0,0,0-2.61-.61,3.59,3.59,0,0,0-2.61,1.07q-1.54,1.55-1.23,5.08a16.81,16.81,0,0,0,1.54,7.83c1.33,3,3.38,4.46,6.14,4.46a6.9,6.9,0,0,0,3.54-.77c.82-.31,1.95-.82,3.38-1.53q4.6-1.7,4.92-1.85a4.32,4.32,0,0,0,2.76-4c0-1.75-1.17-3.23-3.53-4.46M408,108.64v-.15a3.3,3.3,0,0,1,3.69,1.84,3.49,3.49,0,0,1-.61,4.15,3.46,3.46,0,0,1-4,1.08,4.28,4.28,0,0,1-2.77-3.23l.16-1.23.31-.77a4.43,4.43,0,0,1,1.38-1.38,2,2,0,0,1,1.84-.31m-30.27-2.15a7.62,7.62,0,0,0,2-4.92,5.73,5.73,0,0,0-1.84-4.76,7.66,7.66,0,0,0-7.84-1.54,17,17,0,0,0-6.92,4.46c-2.86,2.46-4.3,4.87-4.3,7.22a6.78,6.78,0,0,0,1.85,4.15,5.41,5.41,0,0,0,4.91,2,9.45,9.45,0,0,0,4.61-1.38l4-2.62a20.72,20.72,0,0,0,3.54-2.61m-8.92-7.84a8.77,8.77,0,0,1,3.23.46,4.2,4.2,0,0,1,2.15,2.77,4,4,0,0,1-.77,3.38q-1.53,1.84-5.07,2.15a8.7,8.7,0,0,1-3.69-.15,4.73,4.73,0,0,1-2.61-2.46,3.73,3.73,0,0,1,0-2.15A5.54,5.54,0,0,1,365.76,99a10.91,10.91,0,0,1,3.07-.31M337.94,86.51A12.59,12.59,0,0,0,342.09,89a6.84,6.84,0,0,0,3.07.77,3.63,3.63,0,0,0,3.23-2.61,3.83,3.83,0,0,0-.46-4,7.28,7.28,0,0,0-3.07-2.61,13.78,13.78,0,0,0-4.46-2.15c.2.2,0,.3-.62.3q-2.14-.15-3.38,2.46a3.76,3.76,0,0,0-.31,2.92,4.88,4.88,0,0,0,1.85,2.46m50.87-8.14a9.37,9.37,0,0,0-5.38-2.46,11.47,11.47,0,0,0-5.07,1.38c-2.77,1.54-4.2,3.48-4.3,5.84a6.29,6.29,0,0,0,1.38,4.15c.61.92,1.54,2.2,2.77,3.84q.92,1.23,2.46,3.69a7,7,0,0,0,4.76,2.46,7.07,7.07,0,0,0,5.23-1.08,8.35,8.35,0,0,0,3.22-4,9.9,9.9,0,0,0,.46-5.23q-.61-4.75-5.53-8.6m-5.53.46a4.07,4.07,0,0,1,3.38,1.23,8.59,8.59,0,0,1,2.15,3.69,12.66,12.66,0,0,1,.77,3.07A5.39,5.39,0,0,1,388.35,91q-2,3.23-5.23,2.46a4.34,4.34,0,0,1-2.3-1.39,9.78,9.78,0,0,1-2.31-9.68,6,6,0,0,1,1.39-2.15,4.29,4.29,0,0,1,3.38-1.38m193.65,18,.31.61,3.23-.3h.15l.15-.62a10.23,10.23,0,0,0-3.53-.61l-.31.92M575.09,91a3.27,3.27,0,0,0-.92-1.85,6.42,6.42,0,0,0-3.69-1.22A15.47,15.47,0,0,0,560,90.82a7.89,7.89,0,0,0-1.23,1.38,1.82,1.82,0,0,0,.46,1.84A1.92,1.92,0,0,0,561,95l2.15-.47a16.57,16.57,0,0,1,8-1.23c1.74.21,2.92,0,3.54-.61a1.88,1.88,0,0,0,.46-1.69m-21.83-.31a6.28,6.28,0,0,0-3.53-.92,38,38,0,0,0-4.77,0,6.22,6.22,0,0,0-3.69,1.38,3.42,3.42,0,0,0-.92,3.38,3.79,3.79,0,0,0,2.15,2.62,9.38,9.38,0,0,0,3.39.46h2.45A14.16,14.16,0,0,0,552.8,97a3.54,3.54,0,0,0,2.46-3.38,3.26,3.26,0,0,0-2-2.92m-39.5,2.46a12.47,12.47,0,0,0-6.3.92,8.89,8.89,0,0,0-3.84,2.15,4,4,0,0,0-.92,3.08,4.48,4.48,0,0,0,1.23,2.92,5.63,5.63,0,0,0,4.15,1.38,11.35,11.35,0,0,0,4.45-1.07,13,13,0,0,0,3.39-1.69,4.41,4.41,0,0,0,1.84-3.39,3.32,3.32,0,0,0-1.08-2.76,5.44,5.44,0,0,0-2.92-1.54m-48.1,6a4.53,4.53,0,0,0-2.77-4.3,9.42,9.42,0,0,0-5.22-.77l-5.38.77h-3.54a4.79,4.79,0,0,0-.46-3.23c-.85-1.61-2.6-3.3-5.23-5.07a11.16,11.16,0,0,1,.31,3.54,3.13,3.13,0,0,1-.92,2.3,3,3,0,0,1-1.54.62,2.91,2.91,0,0,1-2.3-.77,3.43,3.43,0,0,1-1.39-2l-.15-1.84a6.16,6.16,0,0,1,.92-2.77,3.12,3.12,0,0,1,.93-1.08c-.47-.07-.93-.12-1.39-.15A6.9,6.9,0,0,0,432,85.74a6.64,6.64,0,0,0-2.61,3.85,4,4,0,0,0,1.23,4.3q.76.77,5.07,2.15l5.38,2.61a8.08,8.08,0,0,0,2.46.62,5,5,0,0,0,0,.77,4.2,4.2,0,0,0,1.69,3.38,7.54,7.54,0,0,0,4.15,1.07l4.76.16h.62a7.29,7.29,0,0,1-.93-.46,3.54,3.54,0,0,1-1.84-2.62,2.87,2.87,0,0,1,.77-2.3,3.28,3.28,0,0,1,2-1.54,20.06,20.06,0,0,1,2.92-.15,3.2,3.2,0,0,1,1.38,0,2.71,2.71,0,0,1,2.46,2.61,4.86,4.86,0,0,1-1.54,3.54,1.38,1.38,0,0,1-.61.46,12.4,12.4,0,0,0,4-1.39q2.31-1.68,2.31-3.69m24.13-14.75a13.51,13.51,0,0,0-5.07-.31,12.18,12.18,0,0,0-4.15.62,4.52,4.52,0,0,0-2.92,3.07,3.66,3.66,0,0,0,.61,2.46,3.17,3.17,0,0,0,2.15,1.38l2-.15a25.86,25.86,0,0,1,6.92,0l2,.15a2.74,2.74,0,0,0,1.85-1.53,4,4,0,0,0,.15-2.46A4.76,4.76,0,0,0,489.79,84.36Z"/><path class="cls-2" d="M289.53,83.59a3.43,3.43,0,0,1-.62-.46,4.51,4.51,0,0,0-3.38-.31,3.14,3.14,0,0,0-2.46,3.23,8.34,8.34,0,0,0,1.08,2.31L286.3,91a6.4,6.4,0,0,0,2.76,1.84,3.68,3.68,0,0,0,3.23-.61,3.06,3.06,0,0,0,1.23-3.08,4.7,4.7,0,0,0-1.23-2.61,11,11,0,0,0-2.76-2.92m-41.35,26.9h-1.07l-.77,1.07-.31.62.46.61.92.46.93-.46.61-1.07-.61-1.08Z"/><path class="cls-3" d="M212.53,53.93s-.07,0-.16,0a9.88,9.88,0,0,0-5.68.15,17.6,17.6,0,0,0-5.54,2.15,6.81,6.81,0,0,0-2.92,5.08,10.35,10.35,0,0,0-4.15,1.23,4,4,0,0,0-2.15,3.38,4.06,4.06,0,0,0,2.15,3.69,15.8,15.8,0,0,0,4.15,1.23c3.38.41,5.64-.06,6.76-1.39a9.52,9.52,0,0,0,6.77.92A9.92,9.92,0,0,0,217.6,67a6.55,6.55,0,0,0,1.53-4,6.75,6.75,0,0,0-.61-3.08,13.72,13.72,0,0,0-1.23-2.15,10.9,10.9,0,0,0-4.76-3.84m42.11,55.17a4.68,4.68,0,0,0,1.07-1.38l.46-1.38a2.7,2.7,0,0,0-1.69-3.23,3.69,3.69,0,0,0-3.68.15l-1.08.93a3.53,3.53,0,0,0-1.08,1.69,2.71,2.71,0,0,0,.93,2.92,4,4,0,0,0,2.92,1.07,2.59,2.59,0,0,0,2.15-.77M262.78,98c0-1.44-.87-2.46-2.61-3.07a3.82,3.82,0,0,0-3.38.61L255.56,97l-.92,1.85-.16,1.69.46,2.3a3.3,3.3,0,0,0,2.16,1.54,2.83,2.83,0,0,0,2.61-.31l.77-.77a6.76,6.76,0,0,0,1.53-2l.77-3.23M408,108.49v.15a2,2,0,0,0-1.84.31,4.43,4.43,0,0,0-1.38,1.38l-.31.77-.16,1.23a4.28,4.28,0,0,0,2.77,3.23,3.46,3.46,0,0,0,4-1.08,3.49,3.49,0,0,0,.61-4.15,3.3,3.3,0,0,0-3.69-1.84m-36-9.38a8.77,8.77,0,0,0-3.23-.46,10.91,10.91,0,0,0-3.07.31,5.54,5.54,0,0,0-3.69,3.69,3.73,3.73,0,0,0,0,2.15,4.73,4.73,0,0,0,2.61,2.46,8.7,8.7,0,0,0,3.69.15q3.54-.3,5.07-2.15a4,4,0,0,0,.77-3.38,4.2,4.2,0,0,0-2.15-2.77m14.6-19a4.07,4.07,0,0,0-3.38-1.23,4.29,4.29,0,0,0-3.38,1.38,6,6,0,0,0-1.39,2.15A9.78,9.78,0,0,0,380.82,92a4.34,4.34,0,0,0,2.3,1.39q3.24.76,5.23-2.46a5.39,5.39,0,0,0,1.23-4.15,12.66,12.66,0,0,0-.77-3.07,8.59,8.59,0,0,0-2.15-3.69m50.41,8.3.15,1.84a3.43,3.43,0,0,0,1.39,2,2.91,2.91,0,0,0,2.3.77,3,3,0,0,0,1.54-.62,3.13,3.13,0,0,0,.92-2.3,11.16,11.16,0,0,0-.31-3.54h0l-.76-1.23a2.73,2.73,0,0,0-2-.77,3.21,3.21,0,0,0-1.38,0,3.12,3.12,0,0,0-.93,1.08,6.16,6.16,0,0,0-.92,2.77m20.6,9.22a20.06,20.06,0,0,0-2.92.15,3.28,3.28,0,0,0-2,1.54,2.87,2.87,0,0,0-.77,2.3,3.54,3.54,0,0,0,1.84,2.62,7.29,7.29,0,0,0,.93.46,5.29,5.29,0,0,0,2.3.31,3.33,3.33,0,0,0,1.69-.31,1.62,1.62,0,0,0,.62-.46,1.38,1.38,0,0,0,.61-.46,4.86,4.86,0,0,0,1.54-3.54,2.71,2.71,0,0,0-2.46-2.61A3.2,3.2,0,0,0,457.67,97.58Z"/></g><path id="Layer0_11_MEMBER_1_1_STROKES" data-name="Layer0 11 MEMBER 1 1 STROKES" class="cls-4" d="M0,0H612.61V202.87H0Z"/></g></g></svg>