<svg xmlns="http://www.w3.org/2000/svg" viewBox="0 0 612.61 202.87"><defs><style>.cls-1{fill:#ad4dc4;}.cls-2{fill:#f3bbff;}.cls-3{fill:none;}</style></defs><g id="Layer_2" data-name="Layer 2"><g id="Layer_1-2" data-name="Layer 1"><g id="Layer0_1_MEMBER_0_FILL" data-name="Layer0 1 MEMBER 0 FILL"><path class="cls-1" d="M588.63,95.58a188.47,188.47,0,0,0,24-8.3,119,119,0,0,1-26.9-4.76q-8.07,2.79-12.91,4.3Q547.9,95.43,531,87.9a22.83,22.83,0,0,1-6.92,8.45A20.53,20.53,0,0,1,503,99.12a21.71,21.71,0,0,1-8.91-6.61q-6.3,13.21-22.29,16.9a37.49,37.49,0,0,1-12,1.08q21.62,7,41.19-1.38,8.3,6.92,20.28,4.15,11.84-2.92,16.14-13.07,6.62,3.39,16.14,3.08a122.09,122.09,0,0,0,16.91-2.62Q581.41,97.89,588.63,95.58Z"/><path class="cls-2" d="M440.62,77.6a30.62,30.62,0,0,0-7.06,16.91,60.93,60.93,0,0,0,23.66,15.06c.87.32,1.75.62,2.62.92a37.49,37.49,0,0,0,12-1.08q16-3.68,22.29-16.9A21.71,21.71,0,0,0,503,99.12a20.53,20.53,0,0,0,21.06-2.77A22.83,22.83,0,0,0,531,87.9q16.9,7.53,41.8-1.08,4.85-1.5,12.91-4.3c-2.37-.69-4.72-1.46-7.07-2.31q-11.22-4.3-17.06-5.84-9.84-2.91-17.21-1.38a47.85,47.85,0,0,0-5.69,1.08,27.67,27.67,0,0,1-5.38.76q-5.37-.3-13.52-6.14-7.08-4.77-11.22-7.07a44.12,44.12,0,0,0-12.14-4.46A25.91,25.91,0,0,0,483.2,58.7a16,16,0,0,0-9.07,8.45,30.94,30.94,0,0,0-18.29.31A30,30,0,0,0,440.62,77.6Z"/></g><path id="Layer0_1_MEMBER_1_1_STROKES" data-name="Layer0 1 MEMBER 1 1 STROKES" class="cls-3" d="M0,0H612.61V202.87H0Z"/></g></g></svg>