<svg xmlns="http://www.w3.org/2000/svg" viewBox="0 0 612.61 202.87"><defs><style>.cls-1{fill:#f3bbff;}.cls-2{fill:#ad4dc4;}.cls-3{fill:none;}</style></defs><g id="Layer_2" data-name="Layer 2"><g id="Layer_1-2" data-name="Layer 1"><g id="Layer0_2_MEMBER_0_FILL" data-name="Layer0 2 MEMBER 0 FILL"><path class="cls-1" d="M315.06,87.13a51.33,51.33,0,0,0-1.69,6.61,66.49,66.49,0,0,0,4,6.91,56,56,0,0,0,18.14,17.22,36.06,36.06,0,0,0,14-3.84,62.34,62.34,0,0,0,15.83-12.3,172.87,172.87,0,0,0,13.37-16.14q12.6,16.45,35.65,17.52t37.35-14Q460,93.27,471.36,93A119.53,119.53,0,0,0,492,90.2q37.83-7.45,66.7-13.21a459.8,459.8,0,0,1-57.48-14q-12-3.84-16.75-5.07a73.31,73.31,0,0,0-17.06-2.31,37.93,37.93,0,0,0-16.91,3.84A26.46,26.46,0,0,0,438.17,71q-14.61-22.44-33.05-25.36-10.75-2-20.59,4.46-10.15,6.77-10.15,17.06a40,40,0,0,0-45.64.46A36.48,36.48,0,0,0,315.06,87.13Z"/><path class="cls-2" d="M597.85,89.13q6-2,14.76-5.69a447.26,447.26,0,0,1-54-6.45Q529.8,82.73,492,90.2A119.53,119.53,0,0,1,471.36,93q-11.37.3-19.67-3.84-14.44,15.06-37.35,14T378.69,85.59a172.87,172.87,0,0,1-13.37,16.14A62.34,62.34,0,0,1,349.49,114a36.06,36.06,0,0,1-14,3.84c.66.45,1.33.86,2,1.23a69.68,69.68,0,0,0,17.36,6.14A47.84,47.84,0,0,0,378.23,124a47.38,47.38,0,0,0,14.29-8.3q3.76,2.63,4.15,2.92A50.88,50.88,0,0,0,407.12,124q12.75,5.37,23.36,1.22a20.94,20.94,0,0,0,5.84-3.22q.31-.17,5.38-4.15a10.2,10.2,0,0,0,1.23-1.23l.62.31c1,.41,2.56,1.12,4.61,2.15a19.44,19.44,0,0,0,8.45.3q10.14,0,13.83-3.84,2.26-2.11,3.84-7.53a38.11,38.11,0,0,0,13.53,3.69,33.3,33.3,0,0,0,16.91-3.07A71.65,71.65,0,0,0,515.47,102a63.58,63.58,0,0,1,11.07-6.46q6.45-2.14,16-1.53,5.54.3,16.29,1.22Q576.65,96.35,597.85,89.13Z"/></g><path id="Layer0_2_MEMBER_1_1_STROKES" data-name="Layer0 2 MEMBER 1 1 STROKES" class="cls-3" d="M0,0H612.61V202.87H0Z"/></g></g></svg>