<svg xmlns="http://www.w3.org/2000/svg" viewBox="0 0 612.61 202.87"><defs><style>.cls-1{fill:#ad4dc4;}.cls-2{fill:#f3bbff;}.cls-3{fill:none;}</style></defs><g id="Layer_2" data-name="Layer 2"><g id="Layer_1-2" data-name="Layer 1"><g id="Layer0_3_MEMBER_0_FILL" data-name="Layer0 3 MEMBER 0 FILL"><path class="cls-1" d="M597.08,85.13c-1,.25-2,.45-3.07.62q-14.14,2.15-44.11,2.61H483.35Q479.66,94.2,472,94.51t-12-5.08a24.71,24.71,0,0,1-25.82,15.07,24.49,24.49,0,0,1-13.52-7.69,22.51,22.51,0,0,1-6.31-12.6q.68,9.48-9.68,15.37-10.76,6.15-21.21,2.15-9.22-3.54-16.9-13.22-4.92-6.15-11.84-18.59-6.91,6.92-2.77,18,4,10.91,13.84,11.52a70.13,70.13,0,0,1-32.59,18.14,72.5,72.5,0,0,1-32,1.23A46.52,46.52,0,0,0,312,125.55a49,49,0,0,0,29,3.54,50,50,0,0,0,26.28-12.76q18.3,11.53,34.58,11.53a37.1,37.1,0,0,0,17.83-4.46,27.62,27.62,0,0,0,5.38-3.84,30.18,30.18,0,0,0,12.14.61q11.53-1.38,15.37-10,12.92,11.53,23.06,8.15c1.94-.82,4.92-3.13,8.91-6.92q3-3.16,7.38-7.68c3.51,2.63,6.08,4.43,7.68,5.38a38.48,38.48,0,0,0,13.68,5.38,23.93,23.93,0,0,0,14.76-2q7.53-3.69,9.53-10.76,16.9,8.14,24.89,2c.52-.41,2-1.9,4.46-4.46A10.66,10.66,0,0,1,571.73,96q2.44-1.07,8.45,0,10.29,1.54,22.44-3.07a89.83,89.83,0,0,0,10-4.61A82.55,82.55,0,0,1,597.08,85.13Z"/><path class="cls-2" d="M597.08,85.13c-1.86-.52-3.76-1.13-5.68-1.84q-3.54-1.23-13.68-5.38A85.35,85.35,0,0,0,564,73a42.71,42.71,0,0,0-14.6-1.08,25.61,25.61,0,0,0-13.37,5.23q-10.46-11.83-27.36-13.22Q493,62.65,481.35,71a57.73,57.73,0,0,1-6.6-4.15q-15.08-10.9-19.83-12.75a30.48,30.48,0,0,0-23.06.46q-12,4.61-16.9,15.37a173.14,173.14,0,0,0-15.52-12.76,50.81,50.81,0,0,0-17.53-8.45,31.93,31.93,0,0,0-19.82,1.38Q352,54.25,348.87,63.31A49.84,49.84,0,0,0,326,57.93a47.52,47.52,0,0,0-22.75,5.84,48.61,48.61,0,0,0-17.06,16.44,52.85,52.85,0,0,0-3.22,6,53.78,53.78,0,0,0,18.29,32.58,72.5,72.5,0,0,0,32-1.23,70.13,70.13,0,0,0,32.59-18.14q-9.84-.61-13.84-11.52-4.14-11.07,2.77-18,6.92,12.43,11.84,18.59,7.68,9.69,16.9,13.22,10.46,4,21.21-2.15,10.35-5.89,9.68-15.37a22.51,22.51,0,0,0,6.31,12.6,24.49,24.49,0,0,0,13.52,7.69A24.71,24.71,0,0,0,460,89.43q4.31,5.53,12,5.08t11.37-6.15H549.9q30-.47,44.11-2.61C595.08,85.58,596.1,85.38,597.08,85.13Z"/></g><path id="Layer0_3_MEMBER_1_1_STROKES" data-name="Layer0 3 MEMBER 1 1 STROKES" class="cls-3" d="M0,0H612.61V202.87H0Z"/></g></g></svg>