<svg xmlns="http://www.w3.org/2000/svg" viewBox="0 0 612.61 202.87"><defs><style>.cls-1{fill:#f3bbff;}.cls-2{fill:#ad4dc4;}.cls-3{fill:none;}</style></defs><g id="Layer_2" data-name="Layer 2"><g id="Layer_1-2" data-name="Layer 1"><g id="Layer0_4_MEMBER_0_FILL" data-name="Layer0 4 MEMBER 0 FILL"><path class="cls-1" d="M537.76,82.21q-4.31-3.69-6.46-5.38A31.23,31.23,0,0,0,513.63,69q-8.31-.83-14.14,2.92a38.83,38.83,0,0,0-8.61-6.3,33,33,0,0,0-21.05-4.15q-4.15.47-24.9,7.53-14.76,5.07-24,1.23A34.23,34.23,0,0,1,412,64.69q-5.39-4.61-8.3-6.76-12.6-9.23-29.51-6.77a41.27,41.27,0,0,0-20.6,8.46A47.21,47.21,0,0,0,346.72,53a42.83,42.83,0,0,0-20.6-8.91A45.7,45.7,0,0,0,303.68,47a42.77,42.77,0,0,0-18,13.21q-9.37-8-23.05-8.3a41.16,41.16,0,0,0-24.13,6.77,52.14,52.14,0,0,0-17.37,18,66.34,66.34,0,0,0-6.91,16,51,51,0,0,0,5.22,9.07,66.79,66.79,0,0,0,10.91,12,66.91,66.91,0,0,0,16.29,2.76A65.57,65.57,0,0,0,276.94,111q10.31-5.53,10.3-11.83a12,12,0,0,0-2-7.23c-2.05-2.87-3.53-5.07-4.46-6.61q-4-7.83,0-16.9,3.86-8.91,12.3-11.53a54.9,54.9,0,0,0,1.08,21.36,40.39,40.39,0,0,0,10,18.6,33,33,0,0,0,18.29,10.61A28.92,28.92,0,0,0,343,104.8q9.38-5.22,11.83-16.9a19.58,19.58,0,0,0,.47-3.54c.74,1,1.51,2.06,2.3,3.08a33.06,33.06,0,0,0,16.91,11.68,32.32,32.32,0,0,0,20.13-.62,33.31,33.31,0,0,0,16.75-11.68q10,12.15,28,10.76t26.12-15.06a28.5,28.5,0,0,0,18,7.68,26.8,26.8,0,0,0,18.9-5.38q5.54,12.92,31.2,11.22l69.93-4.91c-1.86-1.08-4.32-2.56-7.38-4.46A56.36,56.36,0,0,0,584.64,81a36,36,0,0,0-22.29,0c-3.59,1.74-6.35,3-8.3,3.69a13.92,13.92,0,0,1-16.29-2.46Z"/><path class="cls-2" d="M607.38,93.28c-.74-.35-2-1.07-3.84-2.15L533.61,96q-25.67,1.69-31.2-11.22a26.8,26.8,0,0,1-18.9,5.38,28.5,28.5,0,0,1-18-7.68q-8,13.52-26.12,15.06-18,1.38-28-10.76A33.31,33.31,0,0,1,394.67,98.5a32.32,32.32,0,0,1-20.13.62,33.06,33.06,0,0,1-16.91-11.68c-.79-1-1.56-2-2.3-3.08a19.58,19.58,0,0,1-.47,3.54Q352.4,99.57,343,104.8a28.92,28.92,0,0,1-20.59,2.62,33,33,0,0,1-18.29-10.61,40.39,40.39,0,0,1-10-18.6,54.9,54.9,0,0,1-1.08-21.36q-8.46,2.61-12.3,11.53t0,16.9c.93,1.54,2.41,3.74,4.46,6.61a12,12,0,0,1,2,7.23q0,6.3-10.3,11.83a65.57,65.57,0,0,1-30.28,5.53,66.91,66.91,0,0,1-16.29-2.76,74.42,74.42,0,0,0,13.84,9.22q11.37,5.84,21.82,6.45,12.45.78,20.44-6.14a32.93,32.93,0,0,0,4.92-4.46,10.23,10.23,0,0,1,5.84-2.77c2.25-.3,4.66.46,7.22,2.31a70.55,70.55,0,0,1,6.3,5.38q8,7.22,20.14,8.6a49.6,49.6,0,0,0,22.44-2.45q13.79-4.85,28.43-18.14a48.39,48.39,0,0,0,10,6,41.7,41.7,0,0,0,18.44,3.69,42.24,42.24,0,0,0,18.6-4.3,44.08,44.08,0,0,0,14.91-11.84,27.6,27.6,0,0,0,17.21,8,27.91,27.91,0,0,0,18.45-3.85q1.38-.76,4.15-2.61a15.7,15.7,0,0,1,4.3-2,14.62,14.62,0,0,1,6.76.77q1.69.62,6.3,2.77a55,55,0,0,0,50-4.46,52.89,52.89,0,0,0,18.6,5.07,51.39,51.39,0,0,0,26.43-4.15q4.78-1.93,16.76-9.53A30,30,0,0,1,607.38,93.28Z"/></g><path id="Layer0_4_MEMBER_1_1_STROKES" data-name="Layer0 4 MEMBER 1 1 STROKES" class="cls-3" d="M0,0H612.61V202.87H0Z"/></g></g></svg>