<svg xmlns="http://www.w3.org/2000/svg" viewBox="0 0 612.61 202.87"><defs><style>.cls-1{fill:#f3bbff;}.cls-2{fill:#ad4dc4;}.cls-3{fill:none;}</style></defs><g id="Layer_2" data-name="Layer 2"><g id="Layer_1-2" data-name="Layer 1"><g id="Layer0_5_MEMBER_0_FILL" data-name="Layer0 5 MEMBER 0 FILL"><path class="cls-1" d="M280.63,89.9a23.14,23.14,0,0,0-1.54-10.76q-1.29-4.78-2.45-8.92a44.57,44.57,0,0,0-11.07-11.06,43.93,43.93,0,0,0-20.29-7.69,43.27,43.27,0,0,0-21.36,3.69,54,54,0,0,0-8.76,4.92,67.28,67.28,0,0,0,2.15,19.36q2,9.69,5.69,14.61,6.13,8.57,19.05,10.75a61.56,61.56,0,0,0,13.22.77,47.05,47.05,0,0,0,15.83-3.38,18.15,18.15,0,0,0,6.15-4.92,16,16,0,0,0,3.38-7.37m-146.78-6a79.38,79.38,0,0,0-3.38,8.92,35.77,35.77,0,0,0,8.76,8.14,46.25,46.25,0,0,0,8.76,4.3,41.59,41.59,0,0,0,21.21-2q5.38-1.69,7.38-1.54a39.14,39.14,0,0,1,5.69,3.07,54.94,54.94,0,0,0,15.37,7.38,25.18,25.18,0,0,0,11.37.15q6-1.53,7.53-6.3,1.23-4.14-1.38-8.91a46.21,46.21,0,0,0-6-8q-8.59-10-9.53-18.45a19.08,19.08,0,0,1,.62-9.06q-7.58-5.68-18.75-6.92-16.14-1.85-28.74,6.76-12.3,7.84-18.91,22.44m318.3-13.52a129.14,129.14,0,0,0-13.52.61,28,28,0,0,0-7.53,2A19.44,19.44,0,0,0,428,69.92a26,26,0,0,0-15.21-6.15q-12.45-.47-31.82,8.45a124.48,124.48,0,0,1-15.67,5.53A40.13,40.13,0,0,1,349,79.14q-7.68-.93-18.59-6.92Q316.28,64.54,312.14,63a29.31,29.31,0,0,0-20.44-.62q-7.79,2.64-10.45,8.15l5.22,18.9q2,6.76,5.38,8.46,3.69,1.53,9.07-2.77,6.76-5.84,8.91-6.45,5.85-2.16,14.76,5.07,10.14,8.3,15.21,8.76,6.61.61,17.68-8.92,10.61-9.06,17.36-7.53A40.51,40.51,0,0,1,381,88.36a13.45,13.45,0,0,0,6.15,1.54q2.76-.32,7.07-3.23,4.31-3.08,6.76-3.38,3.84-.62,8.46,2.61,2.61,2,7.68,6.61a35.47,35.47,0,0,0,16.75,8.91,38.08,38.08,0,0,0,18.91-.46,34.75,34.75,0,0,0,16.13-9.53A36.26,36.26,0,0,0,476,81.9c-1.22-.94-2.66-2.12-4.3-3.53a41.74,41.74,0,0,0-6.91-5.07,27.21,27.21,0,0,0-12.61-2.92M573.57,89.59q6-3.07,8-4l.77-.31c-1.52-.62-2.8-1.14-3.84-1.53a43.08,43.08,0,0,0-10-3.08,21.86,21.86,0,0,0-10.3,0,17,17,0,0,0-5.84,2.46,24.68,24.68,0,0,0-7.68-6,23.15,23.15,0,0,0-16.6-2.31q-4.77,1.23-12.15,5.69-8.29,5.07-11.68,6.3c-.18.06-.39.11-.61.16l1.84,3.22a24.3,24.3,0,0,0,6.15,6.92,17.83,17.83,0,0,0,8.61,3.69,11.21,11.21,0,0,0,8.6-2.15,42.83,42.83,0,0,0,5.38-5.38q3.07-3.07,5.84-3.08t7.69,3.08q7.07,3.69,17.67,0A68.85,68.85,0,0,0,573.57,89.59Z"/><path class="cls-2" d="M581.56,85.59q-2,.93-8,4a68.85,68.85,0,0,1-8.15,3.69q-10.6,3.69-17.67,0-5.07-3.07-7.69-3.08t-5.84,3.08a42.83,42.83,0,0,1-5.38,5.38,11.21,11.21,0,0,1-8.6,2.15,17.83,17.83,0,0,1-8.61-3.69,24.3,24.3,0,0,1-6.15-6.92L503.64,87A31.63,31.63,0,0,1,491,88.05a30.42,30.42,0,0,1-12.45-4.3c-.74-.46-1.61-1.08-2.62-1.85a36.26,36.26,0,0,1-7.07,9.53A34.75,34.75,0,0,1,452.77,101a38.08,38.08,0,0,1-18.91.46,35.47,35.47,0,0,1-16.75-8.91q-5.07-4.62-7.68-6.61-4.62-3.23-8.46-2.61-2.46.3-6.76,3.38-4.31,2.91-7.07,3.23A13.45,13.45,0,0,1,381,88.36a40.51,40.51,0,0,0-6.15-2.31q-6.75-1.53-17.36,7.53-11.07,9.54-17.68,8.92-5.07-.47-15.21-8.76-8.93-7.23-14.76-5.07-2.15.61-8.91,6.45-5.39,4.3-9.07,2.77-3.37-1.69-5.38-8.46l-5.22-18.9a15,15,0,0,0-1.39,5.07,40.28,40.28,0,0,0-3.22-5.38q1.16,4.14,2.45,8.92a23.14,23.14,0,0,1,1.54,10.76,16,16,0,0,1-3.38,7.37,18.15,18.15,0,0,1-6.15,4.92,47.05,47.05,0,0,1-15.83,3.38,61.56,61.56,0,0,1-13.22-.77Q229.14,102.63,223,94.05q-3.69-4.92-5.69-14.61a67.28,67.28,0,0,1-2.15-19.36,48.65,48.65,0,0,0-8.3,8.3,34.17,34.17,0,0,0-6.61-6.76,19.08,19.08,0,0,0-.62,9.06q.93,8.46,9.53,18.45a46.21,46.21,0,0,1,6,8q2.61,4.77,1.38,8.91-1.53,4.77-7.53,6.3a25.18,25.18,0,0,1-11.37-.15,54.94,54.94,0,0,1-15.37-7.38,39.14,39.14,0,0,0-5.69-3.07q-2-.15-7.38,1.54a41.59,41.59,0,0,1-21.21,2,61.61,61.61,0,0,0,24,3.39,12.71,12.71,0,0,0-1.54,8.3,17.19,17.19,0,0,0,3.38,7.83,20.71,20.71,0,0,0,11.84,7.38,27.14,27.14,0,0,0,14.29-.46q10.76-2.61,25.05-14.14c.79-.56,1.66-1.18,2.62-1.84a34.51,34.51,0,0,0,13.68,11.37,42.55,42.55,0,0,0,24,4.3Q288.78,128.63,306,106a39.67,39.67,0,0,0,14.91,9.38,40.71,40.71,0,0,0,34.43-2.77,37.77,37.77,0,0,0,8-5.68q9.62,6.69,22.59,6.45,16.29-.3,26.59-11.22,13.68,8.15,23.51,11.22,13.68,4.45,24.9,1.08a50.93,50.93,0,0,0,10.91-4.61c5.44-2.87,9.07-4.67,10.92-5.38A45.28,45.28,0,0,1,501,102a17.54,17.54,0,0,0,6.91,7.37A21.8,21.8,0,0,0,522.7,113a37.61,37.61,0,0,0,14.44-5.07q4-2.31,12.91-8.76,7.23,6.91,19.37,7.07a55.25,55.25,0,0,0,21.67-4.77q6.76-2.91,20-9.37c.54-.24,1-.5,1.54-.77A79,79,0,0,1,588,87.59q-3.25-1.35-5.69-2.31Z"/></g><path id="Layer0_5_MEMBER_1_1_STROKES" data-name="Layer0 5 MEMBER 1 1 STROKES" class="cls-3" d="M0,0H612.61V202.87H0Z"/></g></g></svg>