<svg xmlns="http://www.w3.org/2000/svg" viewBox="0 0 612.61 202.87"><defs><style>.cls-1{fill:#f3bbff;}.cls-2{fill:#ad4dc4;}.cls-3{fill:none;}</style></defs><g id="Layer_2" data-name="Layer 2"><g id="Layer_1-2" data-name="Layer 1"><g id="Layer0_6_MEMBER_0_FILL" data-name="Layer0 6 MEMBER 0 FILL"><path class="cls-1" d="M235.75,69.45l-2.46-3.84q-11.61-11.14-24.43-14.14a39.16,39.16,0,0,0-22.75,1.23c-.92.34-1.84.7-2.77,1.08a62.88,62.88,0,0,0-2.15,13.83q-1.53,12.28,3.38,19.52a16.69,16.69,0,0,0,7.53,6.76,12.7,12.7,0,0,0,9.84.61c1-.41,2.61-1.17,4.76-2.3a7.33,7.33,0,0,1,4.77-.46A13.64,13.64,0,0,1,215,95.27q4.16,6.77,6.15,8.76,4.46,4.77,9.53,3.54a10.71,10.71,0,0,0,6.15-6.15q4.3-6.45,4.3-16.14a36.45,36.45,0,0,0-3.07-12c-.33-.64-1.09-1.92-2.31-3.84m42.58,17.37a7,7,0,0,1,4,2.92q.93,1.53,2.92,4.76a14.72,14.72,0,0,0,6,4.92,15.19,15.19,0,0,0,7.83,1.54,15.7,15.7,0,0,0,13.07-8.76q2.25-4.82,1.23-12.14a16.76,16.76,0,0,1-3.84-.62q-6-1.84-13.84-8.14-10.29-8.14-13.06-9.84Q270,54.23,254.5,58.39a41.86,41.86,0,0,0-9.06,3.53c0,1.11.05,2.24.15,3.38a39.52,39.52,0,0,0,5.07,16.45,22.83,22.83,0,0,0,7.69,7.68q5.07,3.07,9.68,1.23.15,0,4.92-2.61a8,8,0,0,1,5.38-1.23m-189.51,6q4,3.57,12.76,6.61a61,61,0,0,0,10.76,3.38,20.6,20.6,0,0,0,10.76-.61,52.56,52.56,0,0,0,6.45-3.38,12.34,12.34,0,0,1,6.3-1.69q4.16.3,8.61,5.22,6,6.61,7.84,7.84,4.92,2.92,10.91.62a12.42,12.42,0,0,0,7.53-7.84q1.23-4.62-.92-10.76-3.07-7.07-4.46-10.76-2.76-9.22-.77-15.83c.31-1,.67-2.07,1.08-3.07Q158.1,55,145.53,53.47a44.41,44.41,0,0,0-28.12,5.68q-16.25,9.06-28.9,32c.13.62.23,1.18.31,1.69M383.3,91.43q12,6.91,24.59,4.61a15.67,15.67,0,0,0,8.61-3.69q4-3.37,2.92-7.53a42.7,42.7,0,0,0,5.22,6.3A11.11,11.11,0,0,0,431.71,94q4.31.31,7.69-3.84a16,16,0,0,0,2.15-3.69,61.87,61.87,0,0,1-7.07-3.23q-9.84-5.69-15.06-8a31.5,31.5,0,0,0-17.06-2.76q-7.28.81-11.22,5.07c-.61-.37-1.23-.78-1.85-1.23q-10.6-7.68-15.21-9.22Q363.16,63.61,341.8,73q-12.35,5.42-21.06,6.76a12.21,12.21,0,0,0,6.46,11.68,14.27,14.27,0,0,0,6.92,1.84q5.07-.45,13.21-6.3,8.15-6.15,12.91-6.76,5.53-.46,12,3.54,3.84,2.44,11.07,7.68m175.36-.77c.1-.2-.1-.56-.61-1.07l-.93-.47a1.69,1.69,0,0,0-1.22.16,23.35,23.35,0,0,1-4.62.46,8.5,8.5,0,0,0-2.61.31l-1.84.77-1.08.61a.91.91,0,0,0-.15.92,1.38,1.38,0,0,0,.77.77,4.17,4.17,0,0,0,2.3,0l2.77-.31a29.72,29.72,0,0,0,4.15-.15l2.15-.92c.61-.41.92-.77.92-1.08m-65.78-6.61q-3.37.17-8.91,3.23c-3.9,2.25-6.82,3.54-8.76,3.84-1.34.21-2.1.57-2.31,1.08-.31.82.05,1.54,1.08,2.15q2.14,1.23,6,.46a31.22,31.22,0,0,1,6.46-.77,14.82,14.82,0,0,1,5.07,1.69,24.87,24.87,0,0,0,5.07,2,8.86,8.86,0,0,0,6.76-1.23,5.45,5.45,0,0,0,2.77-3.38,5.16,5.16,0,0,0-1.54-4.3,12.47,12.47,0,0,0-3.84-2.46A18.26,18.26,0,0,0,492.88,84.05Z"/><path class="cls-2" d="M513.17,88.66q-5.23-6-5.38-6.14-5.39-4.3-13.68-4.31A39.73,39.73,0,0,0,479.36,81q-9.54,3.84-14.3,5.38a41.68,41.68,0,0,1-14.6,2.3,34.74,34.74,0,0,1-8.91-2.15,16,16,0,0,1-2.15,3.69Q436,94.35,431.71,94a11.11,11.11,0,0,1-7.07-2.92,42.7,42.7,0,0,1-5.22-6.3q1.06,4.16-2.92,7.53A15.67,15.67,0,0,1,407.89,96q-12.6,2.31-24.59-4.61-7.23-5.22-11.07-7.68-6.45-4-12-3.54-4.75.62-12.91,6.76-8.15,5.85-13.21,6.3a14.27,14.27,0,0,1-6.92-1.84,12.21,12.21,0,0,1-6.46-11.68,29.41,29.41,0,0,1-7.37.31q1,7.32-1.23,12.14A15.7,15.7,0,0,1,299.07,101a15.19,15.19,0,0,1-7.83-1.54,14.72,14.72,0,0,1-6-4.92q-2-3.23-2.92-4.76a7,7,0,0,0-4-2.92A8,8,0,0,0,273,88.05q-4.77,2.61-4.92,2.61-4.62,1.84-9.68-1.23a22.83,22.83,0,0,1-7.69-7.68,39.52,39.52,0,0,1-5.07-16.45c-.1-1.14-.15-2.27-.15-3.38a35.6,35.6,0,0,0-9.07,6.76l-.62.77c1.22,1.92,2,3.2,2.31,3.84a36.45,36.45,0,0,1,3.07,12q0,9.69-4.3,16.14a10.71,10.71,0,0,1-6.15,6.15q-5.07,1.23-9.53-3.54-2-2-6.15-8.76a13.64,13.64,0,0,0-3.53-3.53,7.33,7.33,0,0,0-4.77.46c-2.15,1.13-3.74,1.89-4.76,2.3a12.7,12.7,0,0,1-9.84-.61,16.69,16.69,0,0,1-7.53-6.76q-4.92-7.23-3.38-19.52a62.88,62.88,0,0,1,2.15-13.83A30.21,30.21,0,0,0,169.2,66.84a34.64,34.64,0,0,0-3.53-4.3c-.41,1-.77,2-1.08,3.07q-2,6.61.77,15.83,1.38,3.69,4.46,10.76,2.15,6.15.92,10.76a12.42,12.42,0,0,1-7.53,7.84q-6,2.3-10.91-.62-1.85-1.23-7.84-7.84-4.46-4.92-8.61-5.22a12.34,12.34,0,0,0-6.3,1.69,52.56,52.56,0,0,1-6.45,3.38,20.6,20.6,0,0,1-10.76.61,61,61,0,0,1-10.76-3.38q-8.77-3-12.76-6.61a27.76,27.76,0,0,0,2.77,7.84,25.77,25.77,0,0,0,11.06,10.61A26.07,26.07,0,0,0,117.72,114a82.94,82.94,0,0,0,9.06-1.23q5.39-.77,8.61.93,3.23,1.53,6.15,6l5.07,7.38a21.55,21.55,0,0,0,9.38,6.76,22.78,22.78,0,0,0,11.37,1.38,21.18,21.18,0,0,0,10.45-4.76,22.07,22.07,0,0,0,6.76-9.53,25.78,25.78,0,0,0,16.29-5.23c.42-.29.83-.6,1.23-.92a39.67,39.67,0,0,0,10.46,11.07,36.56,36.56,0,0,0,22,7.37,37.61,37.61,0,0,0,22.13-7.68,35.6,35.6,0,0,0,13.68-18.75A36.18,36.18,0,0,0,291.24,118q13,2.15,23.66-3.54c2.16-1.23,5.38-3.27,9.69-6.14q5.84-3.39,10.6-3.08a18.15,18.15,0,0,1,7.07,2.31q5.53,2.61,6.76,3.07,10.61,4.31,24.13-.31a56.92,56.92,0,0,0,7.23-3.07,78.27,78.27,0,0,0,24.13,9.68q17.67,3.84,32.12-2.46,4.61-2.15,13.83-7.22,8.15-4,14.3-3.53,4.46.15,10.91,3.22,8.61,4.15,10.6,4.77,11.37,3.84,25.51-1.08a95,95,0,0,0,13.38-6.15,22.23,22.23,0,0,0,5.07,2,20.77,20.77,0,0,0,10.91-.15,36.88,36.88,0,0,0,5.38-1.54,12.62,12.62,0,0,1,5.38-.31,9.06,9.06,0,0,1,3.69,1.54,19.34,19.34,0,0,0,3.69,2.31q6.13,2.91,16.13,0a147.4,147.4,0,0,0,30.74-11.53q3.54-1.83,6.46-3.38-7.87-1.49-19.06-4.61-19.83-5.38-28.89-6.3-15.84-1.55-26.9,4.61A91.91,91.91,0,0,1,528.84,92q-5.37,2.46-9.52,1.23-3.08-.92-6.15-4.61M484,87.28q5.53-3.07,8.91-3.23a18.26,18.26,0,0,1,7.84,2.31,12.47,12.47,0,0,1,3.84,2.46,5.16,5.16,0,0,1,1.54,4.3,5.45,5.45,0,0,1-2.77,3.38,8.86,8.86,0,0,1-6.76,1.23,24.87,24.87,0,0,1-5.07-2A14.82,14.82,0,0,0,486.43,94a31.22,31.22,0,0,0-6.46.77q-3.84.76-6-.46c-1-.61-1.39-1.33-1.08-2.15.21-.51,1-.87,2.31-1.08,1.94-.3,4.86-1.59,8.76-3.84m74.08,2.31c.51.51.71.87.61,1.07s-.31.67-.92,1.08l-2.15.92a29.72,29.72,0,0,1-4.15.15l-2.77.31a4.17,4.17,0,0,1-2.3,0,1.38,1.38,0,0,1-.77-.77.91.91,0,0,1,.15-.92l1.08-.61,1.84-.77a8.5,8.5,0,0,1,2.61-.31,23.35,23.35,0,0,0,4.62-.46,1.69,1.69,0,0,1,1.22-.16Z"/></g><path id="Layer0_6_MEMBER_1_1_STROKES" data-name="Layer0 6 MEMBER 1 1 STROKES" class="cls-3" d="M0,0H612.61V202.87H0Z"/></g></g></svg>