<svg xmlns="http://www.w3.org/2000/svg" viewBox="0 0 612.61 202.87"><defs><style>.cls-1{fill:#f3bbff;}.cls-2{fill:#ad4dc4;}.cls-3{fill:none;}</style></defs><g id="Layer_2" data-name="Layer 2"><g id="Layer_1-2" data-name="Layer 1"><g id="Layer0_7_MEMBER_0_FILL" data-name="Layer0 7 MEMBER 0 FILL"><path class="cls-1" d="M223.46,88.66q1-7.44-4.15-16c-.79-.53-1.56-1.1-2.31-1.69a84.23,84.23,0,0,1-7.22-7.69,51.68,51.68,0,0,0-7.38-7.22,28,28,0,0,0-12.6-5.53,27.54,27.54,0,0,0-13.53,1.23,26.24,26.24,0,0,0-11.06,7.53,30.45,30.45,0,0,0-2.92,3.84,34.33,34.33,0,0,0,.15,6,22.86,22.86,0,0,0,3.38,8.3,16.14,16.14,0,0,0,6.92,5.84,31.69,31.69,0,0,0,3.84,1.39,20.56,20.56,0,0,1,3.84,1.69q2.93,2,5.07,8.14,2.46,7.23,4.15,9.23,3.08,3.52,9.69,4.91,8.76,1.23,16.13-4.91a20.9,20.9,0,0,0,8-15.07m16.9-20a5,5,0,0,0,2,1.23,5.73,5.73,0,0,0,.46,2.92,8.61,8.61,0,0,0,2.62,3.54c.51.41,1.33,1,2.45,1.69a10.7,10.7,0,0,1,2.16,2.15q.76,1.85-.31,5.69-1.23,4.14-.92,5.84,1.06,4.76,8.91,5.38a47.06,47.06,0,0,1,5.23.15A10.53,10.53,0,0,1,268,98.65a41,41,0,0,1,5.68,6.15q3.24,4,6.31,4.3,5.84.93,9.22-9.22,2.29-9.67,7.22-11.52a13.29,13.29,0,0,1-7.84-4.92,19.41,19.41,0,0,1-2.3-3.38,19.26,19.26,0,0,1-3.38-3.38q-1.23-1.55-4.92-7.54-8.14-11.37-22.75-14.9a39.82,39.82,0,0,0-16.9-.77,26.35,26.35,0,0,0-.77,4.92,23,23,0,0,0,1.07,8.76,8.58,8.58,0,0,0,1.69,1.53M80.22,75.45a68.59,68.59,0,0,0-7.69,17.67,35.08,35.08,0,0,0,18.9,9.38,32,32,0,0,0,5.23-6.15c.51-.62,2.15-3,4.92-7.23a50.59,50.59,0,0,1,5.53-6.91,31,31,0,0,1,10.3-7.38,21.7,21.7,0,0,1,12.29-1.54,17.21,17.21,0,0,1,10.92,6.15q4.6,5.39,3.69,11.53c-.11.92-.26,2.25-.47,4a5.49,5.49,0,0,0,.93,3.38,18.55,18.55,0,0,0,3.84,2.61q2.31,2,1.69,5.69a12.89,12.89,0,0,1-3.23,6.3q-3.23,2.91-4.76,4.61a13.22,13.22,0,0,0-3.69,5.38q12.3-4.16,18.44-9.69a23.76,23.76,0,0,0,6.61-8,17.28,17.28,0,0,0,1.84-10,14.76,14.76,0,0,0-4.61-9.22,11.67,11.67,0,0,0-9.22-3.84,75.14,75.14,0,0,0,3.54-9.07,25.91,25.91,0,0,0,.92-6.45q-7.3-10.27-21.36-14.45-16.61-4.92-31.51,1.84-14,6.77-23,21.37m297.24,10.6q-5.68-6-8.3-7.68a24.44,24.44,0,0,0-18.45-3.54q-1.53.47-6.76,2.46a30.29,30.29,0,0,1-6.76,1.84h-1.54A24,24,0,0,0,333,81q-7.85,6.45-7.38,14.29,5.54,4,16.6-.77Q353,89.43,358.4,90.2A17.78,17.78,0,0,1,367,94q2.61,2,7.53,6.61a39.75,39.75,0,0,0,17.06,8.45q10.29,2.16,17.83-2.76,3.52-1.84,9.68-7.69,6-4.61,11.83-3.07,4,2,5.07,2a2.67,2.67,0,0,0,2.62-1.08c.92-.92,1.18-1.74.77-2.46q-3.86-.3-12.76-5.53Q419,84.06,414,85.28a15.83,15.83,0,0,0-4.77,2.77L406,90.51l-1.53,1.23a18.38,18.38,0,0,1-8.76,3.07,18.15,18.15,0,0,1-9.07-1.38l-.31-.16Q382.53,91.43,377.46,86.05Z"/><path class="cls-2" d="M473.67,81q-4,.47-13.83,5.38Q451.23,90.5,446,89.89a22.05,22.05,0,0,1-8.6-3.53q-7.23-4.45-8.3-4.92-11.07-5.84-23.82-2a31.38,31.38,0,0,0-15.53,9.68l.46.31a16.57,16.57,0,0,0,8.3,2.92A10.61,10.61,0,0,0,406,90.51l3.23-2.46A15.83,15.83,0,0,1,414,85.28q4.9-1.23,12.6,3.23,8.91,5.22,12.76,5.53c.41.72.15,1.54-.77,2.46A2.67,2.67,0,0,1,436,97.58q-1.06,0-5.07-2-5.83-1.53-11.83,3.07-6.15,5.85-9.68,7.69-7.55,4.92-17.83,2.76a39.75,39.75,0,0,1-17.06-8.45Q369.62,96,367,94a17.78,17.78,0,0,0-8.61-3.84q-5.38-.77-16.14,4.3-11.07,4.77-16.6.77Q325.21,87.44,333,81a24,24,0,0,1,2.61-1.85h1.54A30.29,30.29,0,0,0,344,77.29q5.24-2,6.76-2.46a24.44,24.44,0,0,1,18.45,3.54q2.61,1.68,8.3,7.68,5.07,5.39,8.91,7.22l.31.16a36.23,36.23,0,0,1,3.07-4.31,43.52,43.52,0,0,1-6.15-5.68q-3.84-4.45-6-6.61a42.18,42.18,0,0,0-16.44-9.07,53.07,53.07,0,0,0-18.91-2.15q-17.52,1.69-36.12,12A66.27,66.27,0,0,1,298,81.44q-4.92,1.69-8.46.31a13.31,13.31,0,0,1-3.22-1.69,19.41,19.41,0,0,0,2.3,3.38,13.29,13.29,0,0,0,7.84,4.92q-4.92,1.85-7.22,11.52Q285.85,110,280,109.1q-3.07-.3-6.31-4.3A41,41,0,0,0,268,98.65,10.53,10.53,0,0,0,263,97.27a47.06,47.06,0,0,0-5.23-.15q-7.85-.62-8.91-5.38-.31-1.69.92-5.84,1.08-3.84.31-5.69a10.7,10.7,0,0,0-2.16-2.15c-1.12-.72-1.94-1.28-2.45-1.69a8.61,8.61,0,0,1-2.62-3.54,5.73,5.73,0,0,1-.46-2.92,5,5,0,0,1-2-1.23,8.58,8.58,0,0,1-1.69-1.53,18.51,18.51,0,0,0,6.3,8.91,29.18,29.18,0,0,1-14.6.92,30.56,30.56,0,0,1-11.06-4.3q5.12,8.53,4.15,16a20.9,20.9,0,0,1-8,15.07q-7.36,6.13-16.13,4.91-6.62-1.38-9.69-4.91-1.68-2-4.15-9.23-2.15-6.14-5.07-8.14a20.56,20.56,0,0,0-3.84-1.69,31.69,31.69,0,0,1-3.84-1.39,16.14,16.14,0,0,1-6.92-5.84,22.86,22.86,0,0,1-3.38-8.3,34.33,34.33,0,0,1-.15-6,27.55,27.55,0,0,0-3.38,8.3,43.81,43.81,0,0,0-2.77-4.76,25.91,25.91,0,0,1-.92,6.45,75.14,75.14,0,0,1-3.54,9.07,11.67,11.67,0,0,1,9.22,3.84,14.76,14.76,0,0,1,4.61,9.22,17.28,17.28,0,0,1-1.84,10,23.76,23.76,0,0,1-6.61,8q-6.15,5.53-18.44,9.69a13.22,13.22,0,0,1,3.69-5.38q1.53-1.69,4.76-4.61a12.89,12.89,0,0,0,3.23-6.3q.62-3.69-1.69-5.69a18.55,18.55,0,0,1-3.84-2.61,5.49,5.49,0,0,1-.93-3.38c.21-1.75.36-3.08.47-4q.91-6.15-3.69-11.53a17.21,17.21,0,0,0-10.92-6.15,21.7,21.7,0,0,0-12.29,1.54,31,31,0,0,0-10.3,7.38,50.59,50.59,0,0,0-5.53,6.91c-2.77,4.21-4.41,6.61-4.92,7.23a32,32,0,0,1-5.23,6.15,34.2,34.2,0,0,0,10.3,0,60.25,60.25,0,0,0,10.15-2.77,68.75,68.75,0,0,1,10.6-2.92q10.3-1.55,14.6,4.92a12,12,0,0,1,1.08,7.68,17,17,0,0,1-6,11.53,14.35,14.35,0,0,1-6.14,3.23,29.82,29.82,0,0,0,3.84,6,31.68,31.68,0,0,0,11.37,8.45,29.53,29.53,0,0,0,14,1.85,26.66,26.66,0,0,0,12.91-5.23Q176,130,177,122.48q.61-5.69,3.38-6.15,2.31-.31,5.07,3.84Q191,130,203.32,133.54a39.07,39.07,0,0,0,23.21-.61q17.06-5.86,30.74-24.9a31.45,31.45,0,0,0,7.07,5.22A27.94,27.94,0,0,0,280,116.79a27.29,27.29,0,0,0,14.9-5.84,26.09,26.09,0,0,0,9.23-13.06,44.35,44.35,0,0,1,10,6.14q2.91,2.46,8.91,7.38,11.83,8.91,21.52,4.92,1.68-.61,9.83-6.46,5.85-4.31,10.15-3.07a11.05,11.05,0,0,1,4.45,2.3q1.39,1.08,4,3.39,11.83,12.6,24.59,13.06,10,.3,23.82-9.07T441.7,104q3.6-.45,6.46-.61,12.29-.77,21.21,3.38,3.38,1.53,10,5.23,5.83,2.76,10.45,2c2.76-.3,6.2-1.89,10.29-4.76q6.91-5.07,10-6,6.15-1.85,15.68,1.39,13.53,4.45,15.83,4.76A44.45,44.45,0,0,0,557,108q5.22-1.23,15.37-4A270.86,270.86,0,0,1,599.85,101a65,65,0,0,0,12.76-2.77A53.59,53.59,0,0,0,605.84,95,45.62,45.62,0,0,0,583.1,92.2q-5.24.92-7.84,1.23a17.59,17.59,0,0,1-7.53-.92,22.81,22.81,0,0,1-6.15-4.31,63.47,63.47,0,0,0-5.69-4.92q-8-4.75-22.74.77Q515,90.67,508.56,90.2,503.33,90,491.34,85,480.29,80.21,473.67,81Z"/></g><path id="Layer0_7_MEMBER_1_1_STROKES" data-name="Layer0 7 MEMBER 1 1 STROKES" class="cls-3" d="M0,0H612.61V202.87H0Z"/></g></g></svg>