<svg xmlns="http://www.w3.org/2000/svg" viewBox="0 0 612.61 202.87"><defs><style>.cls-1{fill:#f3bbff;}.cls-2{fill:#ad4dc4;}.cls-3{fill:none;}</style></defs><g id="Layer_2" data-name="Layer 2"><g id="Layer_1-2" data-name="Layer 1"><g id="Layer0_8_MEMBER_0_FILL" data-name="Layer0 8 MEMBER 0 FILL"><path class="cls-1" d="M228.68,90.66c-3.07-1.84-5-3.28-5.84-4.3q-2.61-3.54-.31-9.22a55.11,55.11,0,0,0,4.15-8.46,18.83,18.83,0,0,0,1.39-10,.63.63,0,0,0-.16-.3,24.66,24.66,0,0,0-7.83-6.15,25.11,25.11,0,0,0-16.45-2.31,26.35,26.35,0,0,0-14.45,8.46c-.37.41-.73.82-1.07,1.23a26,26,0,0,0-.92,2.61,26.34,26.34,0,0,0-.77,12.29q.62,4.77,3.84,6.92a10.79,10.79,0,0,0,5.22,1.23,28.09,28.09,0,0,1,5.85.61q7.53,1.69,10.75,15.37a25.62,25.62,0,0,0,2.77,8.92q2.76,4.61,7.22,4.61,4.77,0,8.92-6.92,4.6-5.54,2.61-9.68-.76-2.46-4.92-4.92M282,71a12,12,0,0,0-3.38-4.92A5.61,5.61,0,0,0,275.71,65a4.27,4.27,0,0,0-2.92.61A9.76,9.76,0,0,0,271,70.22a15.77,15.77,0,0,0,.31,3.84,6.44,6.44,0,0,0,3.07,2.46c1.62.73,2.69,1.24,3.23,1.54a48.4,48.4,0,0,0-.31,6.61,29.09,29.09,0,0,0,2.15,10.91,15,15,0,0,0,4.15,5.69,9.44,9.44,0,0,0,6.15,2.46,5.07,5.07,0,0,0,3.69-1.54,3.32,3.32,0,0,0,.92-3.54,5.57,5.57,0,0,0-2.61-2.46A15.27,15.27,0,0,1,288.16,94q-1.85-1.85-1.84-6.45a28.81,28.81,0,0,0,.3-6.92,9.76,9.76,0,0,0-1.84-3.84A38.42,38.42,0,0,0,282,71M390.37,85.28c-2.67-1.12-4.61-2-5.84-2.61a6.33,6.33,0,0,1-3.69-4,5.46,5.46,0,0,0-1.23-2.3,2.24,2.24,0,0,0-.77-.46,33.62,33.62,0,0,1-3.53-.31q-4-.31-6.46-.31-6.15.61-7.68,4.61c-.52,1.13-.77,3.69-.77,7.69-.52,3.48-1.8,5.38-3.84,5.68A49.68,49.68,0,0,0,367,94.5c1.74,0,2.87-.25,3.38-.76a7.52,7.52,0,0,0,2-3.08,6.63,6.63,0,0,1,7.22-3.53q2.92.45,7.38,4.61a60.29,60.29,0,0,0,5.38,5.38h0a12,12,0,0,0,5.37,4.3A14.24,14.24,0,0,0,396.67,92a16.17,16.17,0,0,0-6.3-6.76m-24.13-8.76c-.31-.1-.46-.25-.46-.46h1.53A1,1,0,0,1,366.24,76.52Z"/><path class="cls-2" d="M483.35,80.67a20.35,20.35,0,0,0-9.07,4.15q-5.22,4.46-8.14,6.61a21.23,21.23,0,0,1-9.68,3.84q-5.85.77-8.77-2.76a22.84,22.84,0,0,1-2.92-5.08A11.63,11.63,0,0,0,441.55,83q-4.92-3.54-12.76,4-9.53,9.07-14.14,9.38-5.38.47-10.3-5.23-5.37-7.38-8.14-10.91-9.52-12.92-28-11.53-16.15,1.23-24,12.61h0a13.59,13.59,0,0,0-10-1.39,29.69,29.69,0,0,0-9.53,3.54c-5.63,3.17-8.61,4.81-8.91,4.92a25.47,25.47,0,0,1-10.3,2q-5.68-.15-8.92-3.53A14.11,14.11,0,0,1,294,81.75c-.61-2.36-1.13-4.15-1.53-5.38q-4-13.53-13.53-18.75a20.43,20.43,0,0,0-11.53-2.46,14.59,14.59,0,0,0-10.29,4.76q10,10,13.83,25.67-3.69-1.7-10.91,1.23-8,3.38-11.38,3.07-6.6-.77-10.6-9.68a144.4,144.4,0,0,0-6.3-16.14,24.19,24.19,0,0,0-3.85-5.68.63.63,0,0,1,.16.3,18.83,18.83,0,0,1-1.39,10,55.11,55.11,0,0,1-4.15,8.46q-2.29,5.69.31,9.22c.82,1,2.77,2.46,5.84,4.3q4.15,2.46,4.92,4.92,2,4.15-2.61,9.68-4.16,6.92-8.92,6.92-4.45,0-7.22-4.61a25.62,25.62,0,0,1-2.77-8.92Q208.86,85,201.33,83.28a28.09,28.09,0,0,0-5.85-.61,10.79,10.79,0,0,1-5.22-1.23q-3.22-2.14-3.84-6.92a26.34,26.34,0,0,1,.77-12.29,26,26,0,0,1,.92-2.61,24.22,24.22,0,0,0-5.54,13.67q-6.3-12.29-20-18.9a41.63,41.63,0,0,0-51.33,9.84A42.64,42.64,0,0,0,101,82.67q5.17,1.85,12-.46a56.68,56.68,0,0,0,12.45-6,84.45,84.45,0,0,1,12.14-6.3,31,31,0,0,1,15.83-1.38,25.8,25.8,0,0,1,14.14,7.07,20.63,20.63,0,0,1,5.84,14.6q.32,8.91-5.38,14.29a30.53,30.53,0,0,0-3.38,3.08,6.17,6.17,0,0,0-2,3.84,11.31,11.31,0,0,0,.62,2.92,14.9,14.9,0,0,1,.46,3.23,5,5,0,0,1-1.38,2.61c-1.13,1-1.95,1.79-2.46,2.31l-10.76,8.91a27.61,27.61,0,0,0,12,7.22q11.22,3.39,20.75-1.84a26,26,0,0,0,12.75-16.29,26.06,26.06,0,0,0-2-20.6,10.37,10.37,0,0,1,5.69-2.3,11.53,11.53,0,0,1,6.15,1.07,10.87,10.87,0,0,1,4.15,4.61,10.18,10.18,0,0,1,1.23,5.84,35.46,35.46,0,0,1-2,5.54,15.46,15.46,0,0,0-1.38,5.53,10.89,10.89,0,0,0,2.46,8,21.78,21.78,0,0,0,7.07,5.54,33.25,33.25,0,0,0,18.9,2.92,41.83,41.83,0,0,0,18.44-6.77,47.31,47.31,0,0,0,13.22-14.44,51.41,51.41,0,0,0,4.61-10q6.9,6.8,12.14,9.37A26.71,26.71,0,0,0,294,118a20.8,20.8,0,0,0,11.07-2,26.61,26.61,0,0,0,6.61-5.22q2-2,5.68-6.31,9.84-9.83,19.21-7.68,4.92.76,11.84,6.45,7.68,6.31,11.68,7.69,9.53,3.38,19.52-2.61a62.13,62.13,0,0,0,6-4.61q3.56,9.4,13.37,15.06,11.07,6.6,22.6,3.69,7.53-1.85,21.36-11.84Q456.29,101,464.6,99.42q7.84-1.53,20.6,1.69Q501,105,506.1,105.26a82.65,82.65,0,0,0,16.75-1.84q12.92-2.46,16.6-2.77,7.68-.91,21.06.31,15.36,1.38,20.9,1.23a98.42,98.42,0,0,0,25.82-4.92c1.55-.53,3.34-1.19,5.38-2q-5.45-1.36-11.38-3.38-32.58-10.9-48-8.61-1.69.31-20.44,5.38-12.3,3.24-20.29,1.23-2.76-.61-14.44-6.14-8.61-4.31-14.76-3.08m-98.82,2c1.23.61,3.17,1.49,5.84,2.61a16.17,16.17,0,0,1,6.3,6.76,14.24,14.24,0,0,1,1.07,9.38,12,12,0,0,1-5.37-4.3h0A60.29,60.29,0,0,1,387,91.74q-4.46-4.15-7.38-4.61a6.63,6.63,0,0,0-7.22,3.53,7.52,7.52,0,0,1-2,3.08c-.51.51-1.64.76-3.38.76a49.68,49.68,0,0,1-10.45-1.23c2-.3,3.32-2.2,3.84-5.68,0-4,.25-6.56.77-7.69q1.53-4,7.68-4.61,2.5,0,6.46.31a8.42,8.42,0,0,0,1.23,0,6.55,6.55,0,0,1,2.3.31,2.24,2.24,0,0,1,.77.46,5.46,5.46,0,0,1,1.23,2.3,6.33,6.33,0,0,0,3.69,4m-105.9-16.6A12,12,0,0,1,282,71a38.42,38.42,0,0,1,2.77,5.84,9.76,9.76,0,0,1,1.84,3.84,28.81,28.81,0,0,1-.3,6.92q0,4.6,1.84,6.45a15.27,15.27,0,0,0,3.54,2.15,5.57,5.57,0,0,1,2.61,2.46,3.32,3.32,0,0,1-.92,3.54,5.07,5.07,0,0,1-3.69,1.54,9.44,9.44,0,0,1-6.15-2.46,15,15,0,0,1-4.15-5.69,29.09,29.09,0,0,1-2.15-10.91,48.4,48.4,0,0,1,.31-6.61c-.54-.3-1.61-.81-3.23-1.54a6.44,6.44,0,0,1-3.07-2.46,15.77,15.77,0,0,1-.31-3.84,9.76,9.76,0,0,1,1.84-4.61,4.27,4.27,0,0,1,2.92-.61A5.61,5.61,0,0,1,278.63,66.07Z"/></g><path id="Layer0_8_MEMBER_1_1_STROKES" data-name="Layer0 8 MEMBER 1 1 STROKES" class="cls-3" d="M0,0H612.61V202.87H0Z"/></g></g></svg>