<svg xmlns="http://www.w3.org/2000/svg" viewBox="0 0 700.64 296.37"><defs><style>.cls-1{fill:#fff;}.cls-2{fill:none;}</style></defs><g id="Layer_2" data-name="Layer 2"><g id="Layer_1-2" data-name="Layer 1"><g id="Layer0_9_MEMBER_0_FILL" data-name="Layer0 9 MEMBER 0 FILL"><path class="cls-1" d="M86.45,186.37q3.26-15.27-.92-23.42-12.89-20.49-33.34,0-20.38,24-5.29,47.63-17.31,20.31,3.44,36.12Q40.83,262,60.92,266.15h71.44a6.52,6.52,0,0,0,1.59-.4q3.51-.93-5-2.91-20-3.1-32.15-9.26-6.17-7.2,20.38,1.72,19.38,5.55-15.08-12-13.75-7.74-5.3-7.67,14.27,8.57,14.29,6.74-25.22-26.42-24.61-56M114.5,164.8q-4.91,1.2-10,6.48a17.11,17.11,0,0,0-5.3,11.78c-.08,2.56-.13,5-.13,7.28a18.88,18.88,0,0,0,3.71,11.77l1.45,1.59c1.06,1.14,2.48-.27,4.24-4.23a70.48,70.48,0,0,0,4.36-8.74,13.25,13.25,0,0,1,7.15-6.74,46.28,46.28,0,0,1,8.6-2.92q3.32-.66,4.89-5.29,1.05-3-.93-7.28-2-4.06-7.54-4.49a33.29,33.29,0,0,0-10.45.79m-12.57-7.28c-.32-1.26-1.34-2-3-2.11l-2.65-.14a1.61,1.61,0,0,0-1.19.93,6.06,6.06,0,0,0-.53,2v1.2c0,2.82,1.42,4.23,4.24,4.23a3,3,0,0,0,2.78-2.12,6,6,0,0,0,.39-4m447,72c1.58-5.76,2-9.68,1.32-11.78a29.05,29.05,0,0,1-1.19-3.83q0-.9-2.78-4.5c-1.76-2.38-4.28-3.35-7.54-2.91q-7.15,2.53-5.95,8.33a69.45,69.45,0,0,0,3.57,11.91q2.49,6.06.13,11l1.86,1.72h3.3q4.9-1.18,7.28-9.92m49.35-68.27q-22.23-3.14-24.88,24-4.43,37.45-29.76,56.1-14.5,10.83,12.3-1.86-3.43,6.22,10.59-1.72-3.36,7.53-18.26,15.48l-.66.53q-21.9,7.48-22.76,11.12L583,267.34q19,2.46,28.58-9.79,8.69-19.43-8.6-29.5,23.81-52.26-4.63-66.82m-61,12a21.56,21.56,0,0,0,6.08,7.67q4.38,3.74,4.63,8.34v1.32c.55.32,1.92.37,4.1.13s4.27-2.53,6-6.88a17.25,17.25,0,0,0,.53-12.57,15.29,15.29,0,0,0-3.71-6.08,13.55,13.55,0,0,0-9.92-3.44,15.6,15.6,0,0,0-5,1.85Q534.56,166.79,537.33,173.27Z"/></g><path id="Layer0_9_MEMBER_1_1_STROKES" data-name="Layer0 9 MEMBER 1 1 STROKES" class="cls-2" d="M0,0H700.64V296.37H0Z"/></g></g></svg>