<svg xmlns="http://www.w3.org/2000/svg" viewBox="0 0 700.64 296.37"><defs><style>.cls-1{fill:#fff;}.cls-2{fill:none;}</style></defs><g id="Layer_2" data-name="Layer 2"><g id="Layer_1-2" data-name="Layer 1"><g id="Layer0_10_MEMBER_0_FILL" data-name="Layer0 10 MEMBER 0 FILL"><path class="cls-1" d="M83.62,251.2c-2.55-1-3.88-1.5-4-1.59-1.94-1.76-3.3-3-4.1-3.57-1.23-1.15-2.2-1.72-2.91-1.72-1.06,0-1.58.44-1.58,1.32-.09,1.15,1,2.83,3.44,5,.08.09.74.93,2,2.51a15.14,15.14,0,0,0,2.91,2.92A12.62,12.62,0,0,0,83,257.82c1.33.52,2,.66,2,.39h-.4a.58.58,0,0,0,.4-.13v.13q2.51-.25,2.51-3.57,0-1.59-3.84-3.44m.67-77.4q3.78-26.61-23.82-20.91Q28.69,170,43.8,207.93q-16.26,11.06.8,32.55-5.18,25,19.31,25.94Q108,270.76,88,262.18q-29.67-16.35-23-27.25-1.84-4.11,20.64,9.52,1.9-3.7-12.7-18.79,5.06-11.32-6.35-19.58Q68.65,195,84,218.52,101.57,239,99.9,230.16,82.34,208,84.29,173.8M109.69,185a10.8,10.8,0,0,1,4.89-3.7,33.88,33.88,0,0,1,9.66-2.78,35.81,35.81,0,0,0,9-1.72q5.26-1.49,4.23-6.75a9.92,9.92,0,0,0-5.16-7.41q-4.23-2.16-12.44-1.19t-12,6.35a26.33,26.33,0,0,0-4.63,9.93l.8,6.74a7.16,7.16,0,0,0,1.85,1.33,2,2,0,0,0,.93.53,3.3,3.3,0,0,0,2.91-1.33M95.27,161.36a2.74,2.74,0,0,0,1.45,2.38,4,4,0,0,0,2.12.8,4.06,4.06,0,0,0,3.17-1.33,3.34,3.34,0,0,0,.93-2.25,3.8,3.8,0,0,0-1.32-2.64c-.8-.8-1.41-1.19-1.86-1.19-1.05-.09-2.29.61-3.7,2.11-.53,0-.79.71-.79,2.12m516.62,7.14q-16.44-23.42-29.9-5-3.53,9.83,0,37.31,1.15,17.63-14.55,32.28.46,3.93,17.2-11.38-1.56,8.13-9,14.29,1.27,2.57,12.17-4.49-7.65,20.64-24.87,28.84-15.78,1.34-10.58,4.76h55.56q15.32-4.74,13-22.49-.57-16-14-15.61,19.07-26.42,5-58.49m-75.81,34.94a7,7,0,0,0-1.45,2.51,16.51,16.51,0,0,0-.13,2.65,9.4,9.4,0,0,0,1.72,5.68q1.18,1.47,4.49,5.16c1.42,1.86,2.65,3.45,3.71,4.77a5.37,5.37,0,0,1,.66,3l-.13,1.59c.15.26.28.48.4.66.61,1.24,1.31,1.85,2.11,1.85a4,4,0,0,0,3.84-2,15.17,15.17,0,0,0,.79-5.82,29.27,29.27,0,0,0-3.7-14.56q-3.84-6.75-8.73-6.75l.13-.13c-.36,0-.76.07-1.19.13a3.28,3.28,0,0,0-2.52,1.2m-1.58-38.9a12.62,12.62,0,0,0,5.16,7.27,61.08,61.08,0,0,0,9.26,4.9c1.27.28,2.38,1.6,3.3,4q2.34,3.47,4.37,1.32a10,10,0,0,0,2.91-5.16,17.11,17.11,0,0,0,0-7.28q-.66-4-5.42-7.67T541.24,159Q533.17,159.81,534.5,164.54Z"/></g><path id="Layer0_10_MEMBER_1_1_STROKES" data-name="Layer0 10 MEMBER 1 1 STROKES" class="cls-2" d="M0,0H700.64V296.37H0Z"/></g></g></svg>