<svg xmlns="http://www.w3.org/2000/svg" viewBox="0 0 700.64 296.37"><defs><style>.cls-1{fill:#fff;}.cls-2{fill:none;}</style></defs><g id="Layer_2" data-name="Layer 2"><g id="Layer_1-2" data-name="Layer 1"><g id="Layer0_11_MEMBER_0_FILL" data-name="Layer0 11 MEMBER 0 FILL"><path class="cls-1" d="M65.77,239.29a13.34,13.34,0,0,0-1.86-2.12,4.79,4.79,0,0,0-2.91-.79c-.49,0-.76.22-.79.66q-1.32,3.57,2.38,8.73t6.75,5.17c.88,0,1.32-1,1.32-3.05a6.79,6.79,0,0,0-1.32-3.7q-2-2.79-3.57-4.9m41.8-69.59a16.73,16.73,0,0,1-1.19,1.58,7.8,7.8,0,0,0-1.59,2.39c-.08,1.59.1,2.61.53,3a6.27,6.27,0,0,0,2.91.4,34.23,34.23,0,0,0,6.75-1.2,23.78,23.78,0,0,1,5.56.93,34,34,0,0,0,7.14.79q10.19,0,10.19-7.27,0-8.21-9.39-8.21a31.91,31.91,0,0,0-20.91,7.55M46.45,155.94q-16.5,16.68-3.7,45.91Q23,215.92,42.75,240q-11.14,9.27,9.79,25.14,24.67,5.22,25.66-.53Q62.74,255.34,53.73,237a59.43,59.43,0,0,1-3-6.48,22.86,22.86,0,0,1-1-12.84c.71-1.74,2.6-2.32,5.68-1.72,1.44.84,3,1.72,4.63,2.65a27.42,27.42,0,0,1,6,5.69h1.72q-2.91-6.22-6.22-12.44a48.26,48.26,0,0,1-4.76-14q-1.57-8.17,5.69-9.79a18.7,18.7,0,0,1,1.85.92,34.83,34.83,0,0,1,9.39,8.47q3.71,4.64,7.28,9.92a52.48,52.48,0,0,1,0-24.61,50.19,50.19,0,0,0,.26-23.94Q68.27,137,46.45,155.94m14.95,46.7a1.33,1.33,0,0,1-.13.53,16.11,16.11,0,0,0,1.85,8.34c1.5,3,3,4.49,4.63,4.49q1.73,0,1.72-5.29a8.9,8.9,0,0,0-.66-3.44A30.47,30.47,0,0,1,67.62,203q-.66-3.31-3.57-3.31-1.59,0-1.86.66a9,9,0,0,0-.79,2.25m528.53,28.18a28.61,28.61,0,0,0-5,3.05,4.78,4.78,0,0,0-2,4.1,3,3,0,0,0,.66,2,1.41,1.41,0,0,0,.93.53q2.38,0,5.16-3.7c1.67-2.3,2.51-4,2.51-5q0-.93-2.25-.93m.93-74.75q-6.36,6.62-1.85,16.14A58,58,0,0,1,594.83,196a43.49,43.49,0,0,1-.27,6.74A26.76,26.76,0,0,1,585.7,220a4.06,4.06,0,0,0,.53,1.46,2.85,2.85,0,0,0,.92.4,4.41,4.41,0,0,0,1.59-.8,75,75,0,0,0,12.31-8.6q-13.68,16.45,2.24,13-4.45,4.8-6.88,7.94c-1.53,2.1-1.36,3.91.53,5.42s2.83,3.37,2.52,5.29q-3.09,2.63-2.52,7.41.73,4.92-9.92,10.46t-4.89,3.44q11.1,0,18.92,0a44.92,44.92,0,0,0,16-2.65q8.18-2.85,7.81-16t-9.79-20.51a54.74,54.74,0,0,0,5-14.55,75.55,75.55,0,0,0,.53-25.14,69.94,69.94,0,0,0-7.55-23.16,19,19,0,0,0-10.18-9.26,9.81,9.81,0,0,0-4.9-.66q-4.89.14-7.14,2.65m-47.5,42.07a6.49,6.49,0,0,0-2.51-.26,1.18,1.18,0,0,0,.4.13h-.4q-3.12.09-4.23,1.59c-.71.88-1.06,2.51-1.06,4.89a5.87,5.87,0,0,0,2.38,4.63,20.71,20.71,0,0,0,6.35,3.31,7.37,7.37,0,0,1,4.23,3.57,3.58,3.58,0,0,0,3.31,2.12H552c1.25.57,2.18.09,2.78-1.45l.4-1.86q0-.31,0-.66-.67-4.43-.93-5.42a30.8,30.8,0,0,0-2.51-5.43,10.54,10.54,0,0,0-4.1-4,14.54,14.54,0,0,0-4.24-1.19m-4-42.73c-1-.36-2.51-.06-4.63.92a5.7,5.7,0,0,0-3.17,5.56c0,2.73.48,4.5,1.45,5.29.71.62,2.87,1.32,6.49,2.12l6.08,1.32a29,29,0,0,0,5,.53c2.12,0,3.54-.31,4.23-.92a2.53,2.53,0,0,0,1.19-2.12,13.74,13.74,0,0,0-.39-3.31c-.28-1.32-2.08-3.13-5.43-5.42A19.65,19.65,0,0,0,539.39,155.41Z"/></g><path id="Layer0_11_MEMBER_1_1_STROKES" data-name="Layer0 11 MEMBER 1 1 STROKES" class="cls-2" d="M0,0H700.64V296.37H0Z"/></g></g></svg>