<svg xmlns="http://www.w3.org/2000/svg" viewBox="0 0 700.64 296.37"><defs><style>.cls-1{fill:#fff;}.cls-2{fill:none;}</style></defs><g id="Layer_2" data-name="Layer 2"><g id="Layer_1-2" data-name="Layer 1"><g id="Layer0_12_MEMBER_0_FILL" data-name="Layer0 12 MEMBER 0 FILL"><path class="cls-1" d="M55.61,231.7a2.08,2.08,0,0,0-1.19.27,5.51,5.51,0,0,0-1.06,1.32,5,5,0,0,0-.53,2.25q0,2.25,3.58,5.69,3.17,3,4.49,3c1.33,0,2-1.1,2-3.3q0-2.39-3.31-7.41a3.32,3.32,0,0,0-2.12-1.46c-.86-.2-1.48-.33-1.85-.4m77.93-68.27a17.79,17.79,0,0,0-8.21-2.12,26.44,26.44,0,0,0-6.22.93q-6.35,3-6.35,4.5a3.46,3.46,0,0,0,2.92,3.57q1.71.52,4.89,1.19a23.73,23.73,0,0,1,5.69,4.37,7.7,7.7,0,0,0,5.69,2.25,7.31,7.31,0,0,0,4.36-1.32q2.52-1.86,2.52-6.09,0-4.5-5.29-7.28M44,156.29q-14.86,16-3.44,43.66-5.87-.52-8.2,6.88-6.16,15,7.14,29.9-7.65,13.89,6.09,24.08,17.58,7.81,14.81,2.65-15.94-12.7-11.11-25.4-16.48-21.65-3.7-27.79,10.61,1.38,7.14-1.32-9.81-25.42,3.44-38.9Q68.32,162.43,76,187.12q4.79.65.26-30.83-10.73-21.66-32.28,0m12.7,40.62a6.25,6.25,0,0,0-.93,3.83,6.18,6.18,0,0,0,1.46,3.44c1,1.33,1.85,2,2.65,2,2.12,0,3-1.56,2.64-4.63s-.82-4.91-1.32-5.56a2,2,0,0,0-2-.93c-.94.16-1.43.29-1.45.4a4.6,4.6,0,0,1-1.06,1.46m538.59,29.37A5.4,5.4,0,0,0,590,227.6a5.3,5.3,0,0,0-2.25,4.1c0,1,.83,1.46,2.51,1.46a5.87,5.87,0,0,0,4.1-1.72,5.17,5.17,0,0,0,1.72-2.51v-2.65h-.79m16.8,22.36q2.38,0,2.38-3.84c0-2.55-1.28-4-3.84-4.23s-3.83.93-3.83,3.57q0,1.59,2.25,3.18a5.75,5.75,0,0,0,3,1.32M608.62,224q-3.43,1.32-3.44,4.1,0,5.56,5,9.79t4.89,8.74a16.74,16.74,0,0,1-1.85,8.2,11.83,11.83,0,0,1-4.76,4.89c-2,1-3.25,1.7-3.84,2s-.93.58-1.32.79-.53.58-.53,1.19a1.07,1.07,0,0,0,1.06,1.19H606q8.47,0,15.09-6.74a21.66,21.66,0,0,0,6.61-15.62,24.21,24.21,0,0,0-3.57-13.36q-4-6.09-9.92-6.09a15.24,15.24,0,0,0-5.56.93m-19-40q0,4,.79,5.29a2.61,2.61,0,0,0,2.52,1.2q3.3,0,3.3-4.64a7.06,7.06,0,0,0-1.45-4.89q-1.72-1.72-4.76-.79a25.09,25.09,0,0,1-.4,3.83m4.76-31.36c-1.78,0-3.11,1.35-4,4.11s-.38,6,1.19,9.39a60.42,60.42,0,0,0,4.63,8.47q3.18,4.63,6,9.13a18.67,18.67,0,0,1,2.77,8.86,33.86,33.86,0,0,1-3.43,17.2,28.6,28.6,0,0,0,6.61-7.14c.42-.68,1.08-.72,2-.13a.83.83,0,0,0,.14.13h-.14a13.62,13.62,0,0,1,.27,2.51,24,24,0,0,1-.53,4.77,11.88,11.88,0,0,1-2.51,6.08q-2,2.39-1.59,2.91,4.69-.5,5.82-3.17a12.33,12.33,0,0,1,1.85-3.18,6.7,6.7,0,0,1,.66,1.46,16.93,16.93,0,0,1,.66,3.3c.27,1.5.58,2.3.93,2.39s.88-.58,1.32-2.25a118.36,118.36,0,0,0,3.31-12.31,80.28,80.28,0,0,0,1.59-10.85,54.54,54.54,0,0,0-1.06-14,49.68,49.68,0,0,0-8.07-18.26,24.53,24.53,0,0,0-4.5-5,17.72,17.72,0,0,0-13.89-4.37m-52.92,44.06c-1.86-.48-2.87-.52-3-.13a.91.91,0,0,0,.4.13h-.4a4.3,4.3,0,0,0-3.44,2,3.61,3.61,0,0,0-.93,2.12c0,1.14,1,2.16,3,3a10.07,10.07,0,0,0,3.57.93l3.44-.27a4.83,4.83,0,0,1,2.64,1.19,4.75,4.75,0,0,0,2.52,1.19,3.72,3.72,0,0,0,2.51-.79,1.83,1.83,0,0,0,.66-1.19,4.56,4.56,0,0,0-.79-1.85,4.17,4.17,0,0,1-.53-.53c-.46-.41-1.08-1-1.85-1.86a12.53,12.53,0,0,0-2.65-2.25,30.92,30.92,0,0,0-5.16-1.72m.53-42.07a22.93,22.93,0,0,0-3.57-.13q-5.16,0-7.54,1.45a6.1,6.1,0,0,0-2.91,5.69,3.34,3.34,0,0,0,1.85,2.78,7.63,7.63,0,0,0,4.1,1.06,7.83,7.83,0,0,0,4.76-1.46,14.46,14.46,0,0,1,5.3-2.38c1.32-.26,2.6-.48,3.83-.66.71-.18,1.06-.93,1.06-2.25a1.54,1.54,0,0,0-.53-1.32,6.75,6.75,0,0,1-1.59-1.33l-.13-.13A28.56,28.56,0,0,0,541.94,154.7Z"/></g><path id="Layer0_12_MEMBER_1_1_STROKES" data-name="Layer0 12 MEMBER 1 1 STROKES" class="cls-2" d="M0,0H700.64V296.37H0Z"/></g></g></svg>