<svg xmlns="http://www.w3.org/2000/svg" viewBox="0 0 700.64 296.37"><defs><style>.cls-1{fill:#fff;}.cls-2{fill:none;}</style></defs><g id="Layer_2" data-name="Layer 2"><g id="Layer_1-2" data-name="Layer 1"><g id="Layer0_13_MEMBER_0_FILL" data-name="Layer0 13 MEMBER 0 FILL"><path class="cls-1" d="M52.38,236.47a3.33,3.33,0,0,0,2.39,1.06q3.3,0,3.3-4.77,0-5-5.55-4.23a5.69,5.69,0,0,0-1.33,2,5.12,5.12,0,0,0-.13,1.72,6.1,6.1,0,0,0,1.32,4.24m-9.26.79c-.53-1.06-1.85-1.59-4-1.59a5,5,0,0,0-4.36,2.78,12.61,12.61,0,0,0-1.85,7.15q0,2.25,4.89,7.54a7.81,7.81,0,0,0,6.22,3.31q1.59,0,1.59-1.86A6.79,6.79,0,0,0,43.92,251a8.43,8.43,0,0,1-1.72-5.29,31.07,31.07,0,0,0,1.19-5.82,7.62,7.62,0,0,0-.27-2.65m84.54-72.9a7.3,7.3,0,0,0,1.32,4.1,9.25,9.25,0,0,1,1.33,4.37,10.63,10.63,0,0,1,.26,1.32c.09,1,.13,2.2.13,3.44.18,1,1.11,1.45,2.78,1.45q2.91,0,3.84-.66c.88-.61,1.32-1.94,1.32-4a20.83,20.83,0,0,0-2-9.39q-2.39-4.64-6.48-4.63-2.52,0-2.52,4m-75.81,40a6.28,6.28,0,0,0,3,.79c2.64,0,4-1.9,4-5.69,0-2.47-.67-4.1-2-4.9a12.07,12.07,0,0,0-4.1-1.19s0,0-.13,0a8.66,8.66,0,0,0-2.12,4.11,12.1,12.1,0,0,0-.66,3.83,3.32,3.32,0,0,0,2,3m-5-2.39q0-4.89-3.71-4.89a12.25,12.25,0,0,0-9.26,4.1,16.31,16.31,0,0,0-4.23,11.64q0,9.27,4.23,14c1.06,1.15,2,1.63,2.91,1.45s1.33-1,1.33-2.64q-.14-3.7-.14-6.09c.09-3.09.53-5.11,1.33-6.08l3.3-5q4.24-5.82,4.24-6.49M34.66,181.56a12.91,12.91,0,0,0,.52,4.36q.78,2.09,4.37,6.49a4,4,0,0,0,.79-.27,5.7,5.7,0,0,0,2-1.19c.62-.7.93-2,.93-4A20.91,20.91,0,0,0,42.2,181c-1.06-3.26-2.43-4.9-4.1-4.9s-2.61.53-3.05,1.59a12,12,0,0,0-.39,3.84m5.82-24.88a93.58,93.58,0,0,0-4,10.72A5.91,5.91,0,0,0,38,173.62a7.86,7.86,0,0,0,7.28-3q2-2.12,4.1-4.77a19.08,19.08,0,0,1,7.41-5.55,20.6,20.6,0,0,1,3.84-1.72h5.29a8.58,8.58,0,0,0,1.59.66c1,.34,1.61,1.66,1.72,4s1,3.34,2.64,2.91a5,5,0,0,0,3.44-3.31c.79-1.68,1.23-4.32,1.32-7.94s-1.45-6.58-4.89-9.13a15.33,15.33,0,0,0-12-2.78,32.84,32.84,0,0,0-11.38,4.63,21.64,21.64,0,0,0-7.8,9.13m579.2,81.9a4.68,4.68,0,0,0-2-1.32h0c-1.86,0-2.78,1.19-2.78,3.57a5.39,5.39,0,0,0,1.19,2.91,3.22,3.22,0,0,0,2.51,1.72q2.11,0,1.85-4a4.78,4.78,0,0,0-.79-2.92m-4.37-15.21-1,2.64a17.21,17.21,0,0,0,4.89,10.85l.53.53a10.71,10.71,0,0,1,2.51,11.38,32.32,32.32,0,0,1-6,10.85v2.65a2.57,2.57,0,0,0,1.19-.27,20.83,20.83,0,0,0,10.06-9,25.51,25.51,0,0,0,3.3-11.78q.38-6.79-4.36-14.16t-11.12-3.7m-22-42.61a6.18,6.18,0,0,0,1.59,4.11c.79,1,1.5,1.45,2.12,1.45s1.14-.62,1.85-1.85a6.35,6.35,0,0,0,.92-2.38c0-2.65-.83-4-2.51-4a5.48,5.48,0,0,0-2.25.53c-1.14.53-1.72,1.23-1.72,2.11m22,7a1.77,1.77,0,0,1-.66-.27h-1.72c-2,3.44-3.17,5.47-3.44,6.09a13.61,13.61,0,0,0-.92,5.16c0,1.15.53,1.72,1.58,1.72q2,0,3.58-4.63c.26-.8.79-2.78,1.58-6v-2.11m-17.59-34.67a12.69,12.69,0,0,0-.93,4.9,22.22,22.22,0,0,0,3.84,12.17q2.25,3.18,6.22,8.73c.7,1.33,2.77,3.79,6.21,7.41a7,7,0,0,0,1.59,1.19l.66.13v.14a10.83,10.83,0,0,0,4.63.92h.4a6,6,0,0,0-2.91,3.44,41.21,41.21,0,0,0-.13,4.63,34.1,34.1,0,0,0,.53,6c.53,3.09,1.36,4.63,2.51,4.63q2.11,0,3.31-5a29.48,29.48,0,0,0,.92-6.88q0-5.52-3.3-7a1.18,1.18,0,0,0,.53-.13l.79-.8a45.23,45.23,0,0,0,.93-9.66,30.68,30.68,0,0,0-5.82-18.65q-5.73-7.75-13.63-8.07h-.66a11.2,11.2,0,0,0-3.84.39c-1.15.44-1.76,1-1.85,1.59M540.3,195.32a9.09,9.09,0,0,0-3.57,1.45,11.32,11.32,0,0,1-1.32,1.06,11.4,11.4,0,0,0-1.06,1.59c-.44.88.39,1.68,2.51,2.38a12.45,12.45,0,0,0,4.1.8q6.62,0,6.62-4.37c0-.62-.44-1.19-1.33-1.72a5.41,5.41,0,0,0-1-.66l-4.9-.53m-2.25-39.83a5.45,5.45,0,0,0-3.57-.92,2.81,2.81,0,0,0-2,.53q-6.21,1.85-6.21,7.8,0,4.36,3.7,4.37a9.37,9.37,0,0,0,3.84-1.32,18.74,18.74,0,0,0,2.91-2c1.41-1.59,2.2-2.51,2.38-2.78v-2.25C539.11,157.26,538.76,156.11,538.05,155.49Z"/></g><path id="Layer0_13_MEMBER_1_1_STROKES" data-name="Layer0 13 MEMBER 1 1 STROKES" class="cls-2" d="M0,0H700.64V296.37H0Z"/></g></g></svg>