<svg xmlns="http://www.w3.org/2000/svg" viewBox="0 0 700.64 296.37"><defs><style>.cls-1{fill:#fff;}.cls-2{fill:none;}</style></defs><g id="Layer_2" data-name="Layer 2"><g id="Layer_1-2" data-name="Layer 1"><g id="Layer0_14_MEMBER_0_FILL" data-name="Layer0 14 MEMBER 0 FILL"><path class="cls-1" d="M49.7,230.51a3.28,3.28,0,0,0,.79,1.86,2.66,2.66,0,0,0,2,1,2.3,2.3,0,0,0,2-1.32,5.14,5.14,0,0,0,.53-2.38q0-3-2.64-3.18c-1.77,0-2.65,1.33-2.65,4m-8.6,7.55c0-1.59-.4-2.56-1.19-2.92a25.13,25.13,0,0,1-3.31-.92q-3.43,2.11-3.44,11.11,0,8.21,3.44,8.21c1.15,0,1.81-.84,2-2.52-.09-2-.14-3.35-.14-4a11.54,11.54,0,0,1,1.33-4.76,11,11,0,0,0,1.32-4.23m91.68-62.46a2.88,2.88,0,0,0,1.06,2.25,3.06,3.06,0,0,0,2.25.93q.79,0,1.59-1.59c.53-1.23.92-2.12,1.19-2.64a13.57,13.57,0,0,0,.66-4.9c0-1.5-.4-2.38-1.19-2.65a32.58,32.58,0,0,0-3.84-.26,20.46,20.46,0,0,0-1.72,8.86M55.39,190.42a4,4,0,0,0-3-.92Q51,190.82,51,194.66a4.64,4.64,0,0,0,.8,2.64,2.19,2.19,0,0,0,1.72,1.06q2.77,0,2.77-4.23a5.68,5.68,0,0,0-.92-3.71m-25.27-9.26c0,2.74.35,4.63,1.06,5.69a3.62,3.62,0,0,0,3.31,1.46c1,0,1.8-.8,2.24-2.39a21.08,21.08,0,0,1,.8-4,22.38,22.38,0,0,0,1.06-6.09A2.91,2.91,0,0,0,37,173.22c-1.15-.44-1.81-.7-2-.79a7.12,7.12,0,0,0-3.43,3.84,10.08,10.08,0,0,0-1.46,2.64v2.25m3.57,16.14a10.51,10.51,0,0,0-2.64,3.44l-2.52,5q-1.46,2.39-1.45,11.12a8,8,0,0,0,1.72,5.42,4.38,4.38,0,0,0,3.3,1.59c1.94,0,2.83-1.77,2.65-5.29-.26-5.12.26-9.05,1.59-11.78a16.69,16.69,0,0,1,6.35-6.35c2.64-1.5,4-3.09,4-4.76,0-1.15-.66-1.81-2-2a6.56,6.56,0,0,1-2.78,0q-2.64-1.32-8.2,3.57m17.6-43.79a30.35,30.35,0,0,1,4.76-3,20.11,20.11,0,0,1,6.48-1.72c.8-.08,2.6-.26,5.43-.52,2.47-.45,3.7-1.2,3.7-2.25q0-6.5-9.39-6.49-10.19,0-16.27,5.43-2.18,2-7.55,10.19a5.93,5.93,0,0,1-.13.66,16.44,16.44,0,0,1-.79,2.91,12.79,12.79,0,0,0-.27,3.17A9.19,9.19,0,0,0,37.4,164a1.29,1.29,0,0,0,1.32,1.19q3.44,0,5.69-3.57a25.42,25.42,0,0,1,6.88-8.07M621.49,231a12.52,12.52,0,0,0,2.12,3.18,11.23,11.23,0,0,1,3,10.85,14.27,14.27,0,0,1-1.72,4.89,10.85,10.85,0,0,0-.92,1.72,7.23,7.23,0,0,0,.53,1.86,3.41,3.41,0,0,0,.53.39l2.11-.26a2.31,2.31,0,0,0,.66-.66,23.49,23.49,0,0,0,5.43-11.12,21,21,0,0,0-2.78-14.82q-4.26-7.44-9.92-3.7a13.55,13.55,0,0,0,.92,7.67m-5.42-41.68q0-3.44-1.59-4.23a16.31,16.31,0,0,0-2.64,6.22v1.72l2.51.4a1.59,1.59,0,0,0,1.72-1.46v-2.65m7.41-3.57c-1.85-1.14-3-.48-3.31,2a47.07,47.07,0,0,0-.13,5.16,33.48,33.48,0,0,0,.13,4.1c.35,1.59,1.19,2.38,2.51,2.38q3,0,3.05-6.48a26.33,26.33,0,0,0-.27-4.9,4,4,0,0,0-2-2.25m-.53-17.2a40.44,40.44,0,0,0-6-12,18.89,18.89,0,0,0-9.53-7.14q-4.1-1.72-4.76,3-.4,3.3,4,7.28a70.25,70.25,0,0,1,7.93,9.13q1.46,1.84,3.31,8.07c1.35,4.24,3.15,6,5.43,5.16.09-.44.4-1.67.92-3.71s.15-5.21-1.32-9.79M594.9,180a3.23,3.23,0,0,0,.93,2.12,2.77,2.77,0,0,0,2.11,1.06q2.92,0,2.92-3.84c0-1.32-1-2.07-2.92-2.25s-3,.71-3,2.91M531.27,202.6a7.4,7.4,0,0,0,2.91.39c3.52,0,5.29-2,5.29-6,0-1.15-.22-1.86-.66-2.12a2.38,2.38,0,0,0-1.33-.4,11.36,11.36,0,0,0-1.19,0,3.88,3.88,0,0,0-.66.14,23.82,23.82,0,0,0-4.23,2.51,3.31,3.31,0,0,0-1.32,2.91,2.62,2.62,0,0,0,1.19,2.52m-6.88-38.37q0,1.05,2,2.64a6.62,6.62,0,0,0,3.84,1.59c0,.09.26-.09.79-.53a11.45,11.45,0,0,0,1.72-1.46,7.47,7.47,0,0,0,2-2.51,3.56,3.56,0,0,0,0-3.7q-1-2-5.69-.67C525.92,160.49,524.38,162,524.39,164.23Z"/></g><path id="Layer0_14_MEMBER_1_1_STROKES" data-name="Layer0 14 MEMBER 1 1 STROKES" class="cls-2" d="M0,0H700.64V296.37H0Z"/></g></g></svg>