<svg xmlns="http://www.w3.org/2000/svg" viewBox="0 0 700.64 296.37"><defs><style>.cls-1{fill:#fff;}.cls-2{fill:none;}</style></defs><g id="Layer_2" data-name="Layer 2"><g id="Layer_1-2" data-name="Layer 1"><g id="Layer0_15_MEMBER_0_FILL" data-name="Layer0 15 MEMBER 0 FILL"><path class="cls-1" d="M38.12,237.92a2.49,2.49,0,0,0,.66-1.58,2.77,2.77,0,0,0-.92-2,3.39,3.39,0,0,0-2.25-1.19,5.85,5.85,0,0,0-3.18,4.23,25.5,25.5,0,0,0-.52,6.35,4.2,4.2,0,0,0,.39.93A3.1,3.1,0,0,0,33,246h2.25a11.67,11.67,0,0,1,1.33-5.29,18.23,18.23,0,0,1,1.58-2.78m97.51-64-1.46.67a4.78,4.78,0,0,0-1.72,2.11,6.32,6.32,0,0,0-.53,2.25c0,1.41.31,2.34.93,2.78a4.57,4.57,0,0,0,2.65.53q3.83,0,3.83-4.9,0-4.23-3.7-3.44M47.25,194.13q0,1.85,4.24,2.25c.35,0,1-.4,1.85-1.19a3.62,3.62,0,0,0,1.45-2.52q0-2.91-3.7-2.64t-3.84,4.1M29.79,176.66a14.93,14.93,0,0,0-.27,3.84c0,2.12.22,3.53.67,4.23s1.63,1.06,3.3,1.06c.53,0,1.15-.7,1.86-2.11a9.47,9.47,0,0,0,.92-3.58c0-4.07-1.1-6.28-3.31-6.61a12.79,12.79,0,0,0-3.17,3.17m-1.46,22.23a15.63,15.63,0,0,0-1.85,6.62v5.29a11.46,11.46,0,0,0,.27,3.57c.35.71,1.5,1.06,3.44,1.06q.91,0,2.64-4.1,1.72-4.64,2.25-5.69A20.66,20.66,0,0,1,38.92,200a6.45,6.45,0,0,0,2-4,4.6,4.6,0,0,1-.4-2.38,28,28,0,0,0-4-.66q-4.77,0-8.21,5.95m36.78-58.08a3.63,3.63,0,0,0-1.45-1.59,18.42,18.42,0,0,0-3-1.06c-.79-.18-1.5-.31-2.11-.4a16.87,16.87,0,0,0-2.52-.13,15.94,15.94,0,0,0-3.3.66,31.77,31.77,0,0,0-3,1.46q-1.85,1.32-3.57,2.78l-3.7,3.17a13,13,0,0,0-3.44,3.84,30.08,30.08,0,0,0-2.25,4.76,11.72,11.72,0,0,0-.66,2,6.5,6.5,0,0,0,.92,3.17c.63.94,2,.68,4.24-.79A13.33,13.33,0,0,0,42.62,157l2.91-3.71A8.53,8.53,0,0,1,47,151.66a11.82,11.82,0,0,1,2.91-1.72c1.23-.53,2.51-1.15,3.83-1.86A36.46,36.46,0,0,1,60,145.3a13.86,13.86,0,0,0,5.56-2.91,3,3,0,0,0-.4-1.58m560.29,84a11.29,11.29,0,0,0,.79,4.24,23.69,23.69,0,0,1,1.72,5.42,4.74,4.74,0,0,1,.13.93,11.85,11.85,0,0,0-.13,1.85,2.3,2.3,0,0,0,.53,1.46,2.16,2.16,0,0,0,1.85.92q3.71,0,3.71-7.8,0-10.46-6-10.46a2.39,2.39,0,0,0-2,.67,4.07,4.07,0,0,0-.66,2.77m-8.47-70.52q-3.43-2.25-5.43-2.25-4.37,0-2.91,4.24a4.25,4.25,0,0,0,1.72,2c1.33,1,2.12,1.59,2.39,1.85q4,4.77,4.49,5.69a39.19,39.19,0,0,0,2.12,3.84,3.26,3.26,0,0,0,2.78,1.06,5.39,5.39,0,0,0,1.72-.13,5.88,5.88,0,0,0,.26-2.52,15.07,15.07,0,0,0-.66-5.29q-1.45-2.39-3-5.42c-.35-.71-1.5-1.72-3.44-3m-19.58,23.42v1.06c0,2,1,3,2.91,3a2,2,0,0,0,2.25-2.25q0-1.26-3.18-2.64l-1.05.13q-.93.52-.93.66M537,196a1.77,1.77,0,0,0-1.72.13,2.7,2.7,0,0,0-1.19.66,1.35,1.35,0,0,0-1.19.93v1.19a3.25,3.25,0,0,0,1.72,2.91,5.54,5.54,0,0,0,2.91.8c1.15,0,1.72-1.11,1.72-3.31a3.38,3.38,0,0,0-.79-2A6.43,6.43,0,0,0,537,196m-10.58-33.34q-2.91,1.19-2.91,3.57c0,2.21,1.5,3.66,4.49,4.37,1.86,0,2.78-1.19,2.78-3.58,0-1.41-.39-2.33-1.19-2.77A25.25,25.25,0,0,1,526.44,162.64Z"/></g><path id="Layer0_15_MEMBER_1_1_STROKES" data-name="Layer0 15 MEMBER 1 1 STROKES" class="cls-2" d="M0,0H700.64V296.37H0Z"/></g></g></svg>