<svg xmlns="http://www.w3.org/2000/svg" viewBox="0 0 700.64 296.37"><defs><style>.cls-1{fill:none;}.cls-2{fill:#fff;}</style></defs><g id="Layer_2" data-name="Layer 2"><g id="Layer_1-2" data-name="Layer 1"><path id="Layer0_16_MEMBER_0_1_STROKES" data-name="Layer0 16 MEMBER 0 1 STROKES" class="cls-1" d="M0,0H700.64V296.37H0Z"/><g id="Layer0_16_MEMBER_1_FILL" data-name="Layer0 16 MEMBER 1 FILL"><path class="cls-2" d="M36.63,238.72a4.41,4.41,0,0,0-1.06-3.05,2.94,2.94,0,0,0-2.12-.92,2.9,2.9,0,0,0-1.19-.4c-.52-.09-1,.31-1.32,1.19q-2.25,3.18-2.25,4.24c0,.52.62,1.14,1.85,1.85a6.81,6.81,0,0,0,3.18,1.06,2.67,2.67,0,0,0,2.65-1.33,8.7,8.7,0,0,0,.26-2.64M32.53,201q2.38-3.57,2.38-5.82c0-.72-.71-1.34-2.12-1.86a54.35,54.35,0,0,1-5.95,5.83q-2.25,2.78-2.25,8.07c0,.88.09,1.41.27,1.58a2.08,2.08,0,0,0,1.05.14,4.26,4.26,0,0,0,2.65-1.06c1-.71,1.46-1.37,1.46-2a5.43,5.43,0,0,1,.92-2.38A12.43,12.43,0,0,1,32.53,201m-3.18-21.83a3.05,3.05,0,0,0,.53,2.11,2.81,2.81,0,0,0,2,.53,2.3,2.3,0,0,0,2-1.32,5,5,0,0,0,.53-2.25q0-3.57-2.51-3.57t-2.52,4.5M54.75,139a6.18,6.18,0,0,0-1.71-.13q-4.63,0-9.93,3.84a9.16,9.16,0,0,0-3.44,4.1q-1.71,4.13-2.51,5.69-.27,2,.93,2,1.71,0,3.83-3a51.8,51.8,0,0,1,3.31-4.89,28.89,28.89,0,0,1,2.65-2q2.11-1.32,2.64-1.59c3.26-1.14,4.9-2,4.9-2.64,0-.8-.22-1.24-.67-1.33m574.71,82.43a1,1,0,0,0-1.19.93V224q0,5.16,3.17,5.16,2.25,0,2.25-4.5c0-2.2-1.41-3.31-4.23-3.31M621.39,185a5.81,5.81,0,0,0,.79,2.78c.53.88,1,1.32,1.46,1.32,1.59,0,2.38-1.06,2.38-3.18a2.92,2.92,0,0,0-1.32-2.51,3.28,3.28,0,0,0-1.86-.79c-.35,0-.57.31-.66.92-.53,0-.79.49-.79,1.46M626,166a6.08,6.08,0,0,0,.13-1.59,11.7,11.7,0,0,0-3.7-9,8.79,8.79,0,0,0-6.09-2.78l-1.19.13v1.2q3.57,2.11,6,7.4a46.4,46.4,0,0,1,2.52,6.88A6.56,6.56,0,0,0,626,166Z"/></g></g></g></svg>