<svg xmlns="http://www.w3.org/2000/svg" viewBox="0 0 700.64 296.37"><defs><style>.cls-1{fill:none;}.cls-2{fill:#fff;fill-opacity:0.54;}</style></defs><g id="Layer_2" data-name="Layer 2"><g id="Layer_1-2" data-name="Layer 1"><path id="Layer0_17_MEMBER_0_1_STROKES" data-name="Layer0 17 MEMBER 0 1 STROKES" class="cls-1" d="M0,0H700.64V296.37H0Z"/><g id="Layer0_17_MEMBER_1_FILL" data-name="Layer0 17 MEMBER 1 FILL"><path class="cls-2" d="M30.84,198.23a5.57,5.57,0,0,0-.53-2.51c-.35-.71-.75-1.06-1.19-1.06a16.54,16.54,0,0,0-2.12.39l-2,4.37v2.65h4.5a8.61,8.61,0,0,0,1.32-3.84M31.9,180.9a11.57,11.57,0,0,0,.26-3.18,29,29,0,0,1-2.38-4c-1,.18-1.76,1-2.38,2.38a6.09,6.09,0,0,0-.79,2.39V182a5.61,5.61,0,0,0,2.11.26q2.52,0,3.18-1.32m18.25-40.76q0-3.7-6.21-.52t-6.22,8.2v.53l.53.26q11.91-7.8,11.9-8.47m580.27,84.68c0,1.24.26,2,.79,2.39a6.62,6.62,0,0,0,2.51.26c1.5,0,2.25-.84,2.25-2.51,0-2.39-.62-3.58-1.85-3.58a3.43,3.43,0,0,0-1.85.27c-1.24.44-1.85,1.5-1.85,3.17M620.1,156.55a3.51,3.51,0,0,0,.79,2.38,3,3,0,0,0,2.38,1.06c.8,0,1.5-.62,2.12-1.85a8.13,8.13,0,0,0,.79-3.44c0-1.32-1-2.12-3-2.38S620.1,153.46,620.1,156.55Z"/></g></g></g></svg>