<svg xmlns="http://www.w3.org/2000/svg" viewBox="0 0 700.64 296.37"><defs><style>.cls-1{fill:#fff;}.cls-2{fill:none;}</style></defs><g id="Layer_2" data-name="Layer 2"><g id="Layer_1-2" data-name="Layer 1"><g id="Layer0_1_MEMBER_0_FILL" data-name="Layer0 1 MEMBER 0 FILL"><path class="cls-1" d="M414.3,224.78q-3.32,0-14.69,3.71t-26.06,8.07v3a239.72,239.72,0,0,0,29.5-6.62q11.51-3.57,11.64-6.88l-.39-1.32m-2.78,38q6.41-3.84,2.78-4.89c-2.44-.6-3.28-1.21-2.52-1.85a37.58,37.58,0,0,1,6-3q7.51-7.14,2.25-12.83-9.54-5.43-22.36-2.91a239.45,239.45,0,0,0-23.55,6.08Q364,246.89,354,250.85,343.26,255,332.8,260a24.39,24.39,0,0,1-20.9.79,196,196,0,0,0-21.57-7.14A117.34,117.34,0,0,1,266.78,244q-12.57-6.65-21-8.87a15.78,15.78,0,0,0-14.69,3.18q-6.3,5.25.8,16.93H232q-6.62,2.11-4.5,4.9a4.83,4.83,0,0,0,1.19,6.35c.62.09,1.28.18,2,.26a133.27,133.27,0,0,0,35.58,1.86q13,.39,26.07,1.19,12,.14,24.47-.14,8.47-.25,17.47-.26h14Q380.7,265.8,411.52,262.75Z"/></g><path id="Layer0_1_MEMBER_1_1_STROKES" data-name="Layer0 1 MEMBER 1 1 STROKES" class="cls-2" d="M0,0H700.64V296.37H0Z"/></g></g></svg>