<svg xmlns="http://www.w3.org/2000/svg" viewBox="0 0 700.64 296.37"><defs><style>.cls-1{fill:#fff;}.cls-2{fill:none;}</style></defs><g id="Layer_2" data-name="Layer 2"><g id="Layer_1-2" data-name="Layer 1"><g id="Layer0_2_MEMBER_0_FILL" data-name="Layer0 2 MEMBER 0 FILL"><path class="cls-1" d="M143.18,255.08q-5.28,8.25,18,12H314q8.55.12-3.31-4.63a134,134,0,0,1-62.18-19.19q-20.6-16.68-27.12-11.24Q173.11,200.83,146,219.49q-13,17.5,5.95,31.09l-8.73,4.5M168.05,204c-1.41.26-2.82.57-4.23.92v3.31a165.27,165.27,0,0,0,17.06,2.52q3,.66,6.09,1.45l1.32-4q-9.39-6.87-20.24-4.23m281.53,6.22q29.76-12.18,16.54-13.23L437,210.23q-3.42,6.47,12.57,0m41.68,37.71a36.61,36.61,0,0,0,4-9.53,41.2,41.2,0,0,0,.93-17.07q-.93-6.75-6.22-9.79a27.7,27.7,0,0,0-15.61-3.7l-.26-.27a64,64,0,0,0-23.68,5.29q-10.45,4.9-20.91,9.4A154.68,154.68,0,0,0,409,233.12q-10.73,6.62-21.44,12.17a138.68,138.68,0,0,1-21.69,9.26q-12.43,4-24.88,8.2t-10.45,5q93.84,5.19,144.21-2.64l1.85-.27a1.85,1.85,0,0,0,.79-.26c1.21-.46,2.09-1.79,2.65-4a14.22,14.22,0,0,1,5.42-7.15Q489.86,250.36,491.26,247.94Z"/></g><path id="Layer0_2_MEMBER_1_1_STROKES" data-name="Layer0 2 MEMBER 1 1 STROKES" class="cls-2" d="M0,0H700.64V296.37H0Z"/></g></g></svg>