<svg xmlns="http://www.w3.org/2000/svg" viewBox="0 0 700.64 296.37"><defs><style>.cls-1{fill:#fff;}.cls-2{fill:none;}</style></defs><g id="Layer_2" data-name="Layer 2"><g id="Layer_1-2" data-name="Layer 1"><g id="Layer0_3_MEMBER_0_FILL" data-name="Layer0 3 MEMBER 0 FILL"><path class="cls-1" d="M218.14,228.75q-26.34-27.27-50.94-15.88-29.17-43-70.12-29.11Q67,206.2,75.25,234q-16.06,25.61,20.51,33.35l185.22,3q23.79,1.44,7.54-6.22-35.59-4-70.38-35.46M101.71,167.23Q94,168.94,86.5,179.13v5.3h3.31q6.07-2.79,10.58-5,8.6-4.5,8.6-7.28a4,4,0,0,0-2.51-3.57,10.12,10.12,0,0,0-4.77-1.32m398,39.69q8.56-15.24-11,0-4.62,8.73-19.85,16.54-19.81-17.1-50.8,8.2l-2.25,1.46q-44.55,28.63-75.28,28.71-10.06,6.17,13.89,5.95H537q24.64-5.25,18.52-21.83,21.53-34-4.37-52.26-27-15-55.17,24.48-7.89,2.27,3.71-11.25m8.86-23.82v3.31q6.12,3.69,16.41-2t16.4-6.22q1-2.52-6.88-5-7.53-.41-16.8,3.57A32.91,32.91,0,0,0,508.53,183.1Z"/></g><path id="Layer0_3_MEMBER_1_1_STROKES" data-name="Layer0 3 MEMBER 1 1 STROKES" class="cls-2" d="M0,0H700.64V296.37H0Z"/></g></g></svg>