<svg xmlns="http://www.w3.org/2000/svg" viewBox="0 0 700.64 296.37"><defs><style>.cls-1{fill:#fff;}.cls-2{fill:none;}</style></defs><g id="Layer_2" data-name="Layer 2"><g id="Layer_1-2" data-name="Layer 1"><g id="Layer0_4_MEMBER_0_FILL" data-name="Layer0 4 MEMBER 0 FILL"><path class="cls-1" d="M56.82,235.37q-5.09,22.86,21.83,32.41H276.43q18,.08-17.86-9.92-33.65-3-78.72-36.39-6.18-14.64-14.55-21.83-17.64-7-27.78,13.23Q121.76,158.39,78,180.46q-18.11,14.1-9.26,44.32-9.57,1.68-11.9,10.59m110.47-45q-5.86-3.69-9.26,0v2q6.28,4,9.79,4.5l.13.14h2q-.66-6-2.64-6.62M92.8,162.73q-11-1.33-15.61,6.61a2.6,2.6,0,0,0-.26,1.19.73.73,0,0,0,.26.53,6,6,0,0,0,1.19.93Q89.9,170.4,101,168.55a1.66,1.66,0,0,0,1.72-.53c-.52-2.38-2.29-3.88-5.29-4.5a9.62,9.62,0,0,0-4.63-.79m472,24.08q-25.15-8.53-43,17.46Q511,217.89,502.66,220.15q5.94-22.11-15.21-23.82-13.67,2.29-19.85,18.53-14.76,22-24.47,23.81-8.29-12.36-21.57,4-38,20.25-67.07,19.85-5.21,5.37,3.31,4.63H560.48q23.91-4.89,10.58-28.18,21.24-29.48-6.22-52.13M498.69,191v4q2,6.38,10.85,6l2-.8a6.66,6.66,0,0,0,.26-4.5,2.85,2.85,0,0,0-.53-1.19,6.92,6.92,0,0,0-.92-1.59,5.81,5.81,0,0,0-.8-.66l-5.82-1.59a9,9,0,0,0-5,.4m44.59-20.37q-4.2-1.36-14.16-.14c-3.35,2.3-4.36,5.38-3,9.27q8.34,5.55,20.11-.14a81.42,81.42,0,0,0,7.94-3.83l.39-1.33Q550.42,169.61,543.28,170.67Z"/></g><path id="Layer0_4_MEMBER_1_1_STROKES" data-name="Layer0 4 MEMBER 1 1 STROKES" class="cls-2" d="M0,0H700.64V296.37H0Z"/></g></g></svg>