<svg xmlns="http://www.w3.org/2000/svg" viewBox="0 0 700.64 296.37"><defs><style>.cls-1{fill:#fff;}.cls-2{fill:none;}</style></defs><g id="Layer_2" data-name="Layer 2"><g id="Layer_1-2" data-name="Layer 1"><g id="Layer0_5_MEMBER_0_FILL" data-name="Layer0 5 MEMBER 0 FILL"><path class="cls-1" d="M102.59,178.47q-22.25-21.1-39.29,7.28-4.38,14.9-3,37.71-18.39,5.73-4.63,26.46l5.95,6q-2.74,12.53,19.58,10.59H265.32q-4.83-5.32-32-7-62.88-15.69-81.62-48.56L142.55,195q-17-20.88-24.08,11.25a76.86,76.86,0,0,1-15.88-27.79M97,164.58a12.73,12.73,0,0,0-7-4.37A34.19,34.19,0,0,0,84.6,160H81.16a3,3,0,0,0-2.64,3.31l.26,2.64a78.48,78.48,0,0,1,8.73.66q4.55.54,8.47.67H97v-2.65m487,21.83q-23.13-14.5-41.68,11.25l-16.53,17.2q.58-28.32-20.51-22.76-16,8.33-9.26,25.4-3.35,10.38-18.26,16.94-8.79-9-20.11,8.2-29,15.48-71.44,20.51-16.53,1.74-10.58,4.63H573.05q27.51-.86,11-31.09,21.62-27.37,0-50.28m-48.29-6.61a25.46,25.46,0,0,1,2.64.66q26.18,1.66,21-6.88-1-4-15.74-3.44a27.14,27.14,0,0,0-7.81,3.44,15.75,15.75,0,0,0-1.32,1.19,15.64,15.64,0,0,0,.13,2,4.31,4.31,0,0,0,.4,1.72A8.64,8.64,0,0,0,535.74,179.8Z"/></g><path id="Layer0_5_MEMBER_1_1_STROKES" data-name="Layer0 5 MEMBER 1 1 STROKES" class="cls-2" d="M0,0H700.64V296.37H0Z"/></g></g></svg>