<svg xmlns="http://www.w3.org/2000/svg" viewBox="0 0 700.64 296.37"><defs><style>.cls-1{fill:#fff;}.cls-2{fill:none;}</style></defs><g id="Layer_2" data-name="Layer 2"><g id="Layer_1-2" data-name="Layer 1"><g id="Layer0_6_MEMBER_0_FILL" data-name="Layer0 6 MEMBER 0 FILL"><path class="cls-1" d="M138.3,182l-.53,8.07c.18.71,1,1.06,2.38,1.06a2.14,2.14,0,0,0,2.25-2,23.65,23.65,0,0,0,.13-3.31,12.68,12.68,0,0,0-.26-2.38,8,8,0,0,1-.4-2.25c-.44-.18-.71-.4-.79-.66s-.31-.27-.93-.27c-.44,0-.93.35-1.45,1.06-.12.22-.25.44-.4.66m-32.15,14.82q-4,2-5.56-12.57Q90.33,155,64.21,167.05q-22,22.42-9,48.95-19.11,13.73,0,35.73-5.52,16.5,15.88,15.88H207.36q40.39,5,28.44-4.63-28.67.19-61.12-15.88-45.36-19.46-44.32-47Q141.61,181,123,177.63q-15.61,1.78-16.8,19.19M98.48,168c1,0,1.54-.36,1.72-1.06v-2.25c0-2.65-1.37-4.63-4.11-6a19,19,0,0,0-8.2-1.58q-5,0-5,2.77c0,.36.83,1.06,2.51,2.12l4.23,2.52q2.52,1.05,5.43,2.51a8.35,8.35,0,0,0,3.44.93m464.63,6c1-.79,1.45-1.5,1.45-2.12,0-1.5-1-2.6-3.17-3.31a8.59,8.59,0,0,0-4.9-.13c-4,.44-6.61,1.33-7.67,2.65q-1.07,1.18-1.06,5c0,1.85.27,3,.8,3.57s1.45.79,3,.79a12.68,12.68,0,0,0,4.1-.92c.53-.18,1.23-.44,2.12-.8a4.82,4.82,0,0,0,2.11-1.58,13.62,13.62,0,0,1,3.18-3.18M527,183.59q-16.67,6.9-6,21.17,5,14.3-11.25,26.46-4.76-21.16-18.52,2.65Q479.5,256.73,430.41,261q-27.54-.18-19.84,4.5l172.91.13q19.93-.4,15.22-19.18-1.65-6.28-8.21-12.57,18.39-19.16,6.88-45.25-7.38-20.16-28.84-10.06-12.37,3.12-22.36,30.17Q546.88,182.24,527,183.59Z"/></g><path id="Layer0_6_MEMBER_1_1_STROKES" data-name="Layer0 6 MEMBER 1 1 STROKES" class="cls-2" d="M0,0H700.64V296.37H0Z"/></g></g></svg>