<svg xmlns="http://www.w3.org/2000/svg" viewBox="0 0 700.64 296.37"><defs><style>.cls-1{fill:#fff;}.cls-2{fill:none;}</style></defs><g id="Layer_2" data-name="Layer 2"><g id="Layer_1-2" data-name="Layer 1"><g id="Layer0_7_MEMBER_0_FILL" data-name="Layer0 7 MEMBER 0 FILL"><path class="cls-1" d="M121.69,193.78q7.91-6.09,6.09-14.56-8.28-16.74-24.21,2.38-10.33,31.25,19.18,45.65-10-19.81-1.06-33.47m-25.4-1.59Q87.6,151,63.22,163.74,37.81,179.9,52.63,213.36q-21,20,0,36.38-6.54,22.35,22.1,16.54h110.2q11.26,1.22,7.28-2.64-88.92-23.83-95.92-71.45m-.66-36a7,7,0,0,0-2-2,8.18,8.18,0,0,1-1.72-1.06H89.28l-.53,3.3c.4,1.13.93,2.71,1.59,4.77a4.86,4.86,0,0,0,4.1,3.17H97a3.23,3.23,0,0,1,.8-1.72,3.63,3.63,0,0,0,.66-1.45,8.07,8.07,0,0,0-1.33-2.65c-.35-.62-.83-1.41-1.45-2.38m498.5,16.14q-33.71-17.9-34.66,21.17-3.68,17.2-6,6,5.28-24.15-11.9-23.82-21.9.91-6.22,40.35,5.79,7.75-6.62,16.54-.35-19.31-11.64-17.2-8.79,2.85-7.54,21.83-6.81,19.26-27,24l-2.51.66q-23.28,2.63-17.2,5.16H592.28q16.58-2.51,12.17-19.18-1-8.92-10.32-14.29Q620.11,190.39,594.13,172.34Z"/></g><path id="Layer0_7_MEMBER_1_1_STROKES" data-name="Layer0 7 MEMBER 1 1 STROKES" class="cls-2" d="M0,0H700.64V296.37H0Z"/></g></g></svg>