<svg xmlns="http://www.w3.org/2000/svg" viewBox="0 0 700.64 296.37"><defs><style>.cls-1{fill:#fff;}.cls-2{fill:none;}</style></defs><g id="Layer_2" data-name="Layer 2"><g id="Layer_1-2" data-name="Layer 1"><g id="Layer0_8_MEMBER_0_FILL" data-name="Layer0 8 MEMBER 0 FILL"><path class="cls-1" d="M85.73,173q-8.6-26.24-31.88-6.08Q39,185.61,49.35,211.77l.13,1.32Q34.12,231.26,52.13,247q-6.9,16.1,9.13,19.18l70.25,1.32q34.14,3.3,26.19-4.63-24.6-5.94-43.65-26.19l-1.2-.8Q88,209.06,85.73,173m13.5,14.82A61.12,61.12,0,0,0,101,202q1.58,6.54,5.29,10.06,7.1,7.67,7-2.12T118,194.83a130.8,130.8,0,0,0,9.4-11.77q3.71-5,3-8.2a12.11,12.11,0,0,0-2-5q-1.27-1.91-9.66-4.24a19.77,19.77,0,0,0-5.56,1.06q-3.77,1.28-8.86,8.21t-5.16,13M98,157.26l-1.33-1.19-4-.53-1.46,1.06c-1.88,1.23-1.93,3.31-.13,6.22l2.91.66h.13v.13l3.18-.79.66-.93v-4.63m465.29,43.26a10.12,10.12,0,0,1-.26,1.2q-3.24,17.52-19.72,29.77-1.46-21.69-12.56-17.07-9.18,3.87-6.62,21.7-3.2,19.81-23.81,25.14-12.58,2.31-4.24,4.63h98.3q13.88-.48,15.22-16.94,1.47-12.3-11-18.79,17.63-21,7.81-53.45a11.86,11.86,0,0,0-.93-1.85q-10.72-20.43-34.26-8.47c-.36.29-.71.6-1.06.92q-8.65,8.58-6.88,33.21m-25.4-29.1a10.76,10.76,0,0,0-3.44,7.8,16.54,16.54,0,0,0,1.46,7.41q1.18,2.12,5.42,9.79c.35.8.53,2.91.53,6.35q0,3,3.17,3a9.13,9.13,0,0,0,4.37-.93,12.43,12.43,0,0,0,4.23-5q4-7.8,4.1-8.2a21,21,0,0,0,.8-6.62,51.79,51.79,0,0,0-.27-6.61,8.74,8.74,0,0,0-2-5,19.53,19.53,0,0,0-5.16-4.1,12.65,12.65,0,0,0-5.95-1.32A9.91,9.91,0,0,0,537.93,171.42Z"/></g><path id="Layer0_8_MEMBER_1_1_STROKES" data-name="Layer0 8 MEMBER 1 1 STROKES" class="cls-2" d="M0,0H700.64V296.37H0Z"/></g></g></svg>