<svg xmlns="http://www.w3.org/2000/svg" xmlns:xlink="http://www.w3.org/1999/xlink" viewBox="0 0 512.37 197.72"><defs><style>.cls-1{isolation:isolate;}.cls-2{fill:none;}.cls-3{fill:#d0ecf4;}.cls-4{fill:#d9f7ff;}.cls-12,.cls-13,.cls-15,.cls-17,.cls-19,.cls-21,.cls-5{mix-blend-mode:color-burn;}.cls-5{fill:url(#radial-gradient);}.cls-14,.cls-16,.cls-18,.cls-20,.cls-22,.cls-6{opacity:0.1;mix-blend-mode:multiply;}.cls-6{fill:url(#linear-gradient);}.cls-10,.cls-11,.cls-7,.cls-8,.cls-9{opacity:0.8;mix-blend-mode:color-dodge;}.cls-7{fill:url(#linear-gradient-2);}.cls-8{fill:url(#linear-gradient-3);}.cls-9{fill:url(#linear-gradient-4);}.cls-10{fill:url(#linear-gradient-5);}.cls-11{fill:url(#linear-gradient-6);}.cls-12{fill:#0071bc;opacity:0.2;}.cls-13{fill:url(#radial-gradient-2);}.cls-14{fill:url(#linear-gradient-7);}.cls-15{fill:url(#radial-gradient-3);}.cls-16{fill:url(#linear-gradient-8);}.cls-17{fill:url(#radial-gradient-4);}.cls-18{fill:url(#linear-gradient-9);}.cls-19{fill:url(#radial-gradient-5);}.cls-20{fill:url(#linear-gradient-10);}.cls-21{fill:url(#radial-gradient-6);}.cls-22{fill:url(#linear-gradient-11);}</style><radialGradient id="radial-gradient" cx="1488.55" cy="133.82" r="59.54" gradientTransform="matrix(-1, 0, 0, 1, 1748.94, 0)" gradientUnits="userSpaceOnUse"><stop offset="0" stop-color="#fff"/><stop offset="0.22" stop-color="#fcfcfd"/><stop offset="0.36" stop-color="#f4f4f8"/><stop offset="0.47" stop-color="#e6e5ee"/><stop offset="0.58" stop-color="#d1d0e0"/><stop offset="0.68" stop-color="#b7b5ce"/><stop offset="0.77" stop-color="#9793b8"/><stop offset="0.85" stop-color="#706c9e"/><stop offset="0.93" stop-color="#453f81"/><stop offset="1" stop-color="#1b1464"/></radialGradient><linearGradient id="linear-gradient" x1="1487.92" y1="166.34" x2="1487.92" y2="121.34" gradientTransform="matrix(-1, 0, 0, 1, 1748.94, 0)" gradientUnits="userSpaceOnUse"><stop offset="0" stop-color="#1b1464"/><stop offset="0.07" stop-color="#453f81"/><stop offset="0.15" stop-color="#706c9e"/><stop offset="0.23" stop-color="#9793b8"/><stop offset="0.32" stop-color="#b7b5ce"/><stop offset="0.42" stop-color="#d1d0e0"/><stop offset="0.53" stop-color="#e6e5ee"/><stop offset="0.64" stop-color="#f4f4f8"/><stop offset="0.78" stop-color="#fcfcfd"/><stop offset="1" stop-color="#fff"/></linearGradient><linearGradient id="linear-gradient-2" x1="1440.02" y1="148.42" x2="1446.98" y2="133.98" gradientTransform="matrix(-1, 0, 0, 1, 1748.94, 0)" gradientUnits="userSpaceOnUse"><stop offset="0" stop-color="#fff"/><stop offset="1"/></linearGradient><linearGradient id="linear-gradient-3" x1="1459.99" y1="146.08" x2="1471.14" y2="155.67" xlink:href="#linear-gradient-2"/><linearGradient id="linear-gradient-4" x1="1490.89" y1="155.9" x2="1513.08" y2="136.01" gradientTransform="matrix(-1, 0, 0, 1, 1748.94, 0)" gradientUnits="userSpaceOnUse"><stop offset="0"/><stop offset="1" stop-color="#fff"/></linearGradient><linearGradient id="linear-gradient-5" x1="1522.11" y1="138.05" x2="1533.14" y2="128.16" xlink:href="#linear-gradient-4"/><linearGradient id="linear-gradient-6" x1="1510.87" y1="151.62" x2="1523.83" y2="140" xlink:href="#linear-gradient-4"/><radialGradient id="radial-gradient-2" cx="1274.5" cy="126.3" r="3.87" gradientTransform="matrix(-0.97, 0.26, 0.26, 0.97, 1420.22, -337.63)" xlink:href="#radial-gradient"/><linearGradient id="linear-gradient-7" x1="1274.48" y1="129.88" x2="1274.48" y2="124.93" gradientTransform="matrix(-0.97, 0.26, 0.26, 0.97, 1420.22, -337.63)" xlink:href="#linear-gradient"/><radialGradient id="radial-gradient-3" cx="1204.43" cy="56.07" r="3.87" gradientTransform="matrix(-1.2, 0.57, 0.38, 0.8, 1621.23, -624.84)" xlink:href="#radial-gradient"/><linearGradient id="linear-gradient-8" x1="1204.41" y1="59.65" x2="1204.41" y2="54.7" gradientTransform="matrix(-1.2, 0.57, 0.38, 0.8, 1621.23, -624.84)" xlink:href="#linear-gradient"/><radialGradient id="radial-gradient-4" cx="1110.15" cy="87.61" r="3.87" gradientTransform="matrix(-0.87, 0.42, 0.38, 0.8, 1136.65, -392.22)" xlink:href="#radial-gradient"/><linearGradient id="linear-gradient-9" x1="1110.13" y1="91.19" x2="1110.13" y2="86.23" gradientTransform="matrix(-0.87, 0.42, 0.38, 0.8, 1136.65, -392.22)" xlink:href="#linear-gradient"/><radialGradient id="radial-gradient-5" cx="1835.57" cy="147.5" r="3.87" gradientTransform="matrix(-0.9, -0.36, -0.33, 0.82, 1990, 657.57)" xlink:href="#radial-gradient"/><linearGradient id="linear-gradient-10" x1="1835.56" y1="151.08" x2="1835.56" y2="146.13" gradientTransform="matrix(-0.9, -0.36, -0.33, 0.82, 1990, 657.57)" xlink:href="#linear-gradient"/><radialGradient id="radial-gradient-6" cx="1700.34" cy="151.02" r="3.87" gradientTransform="matrix(-1.17, -0.47, -0.33, 0.82, 2366.03, 807.84)" xlink:href="#radial-gradient"/><linearGradient id="linear-gradient-11" x1="1700.32" y1="154.6" x2="1700.32" y2="149.65" gradientTransform="matrix(-1.17, -0.47, -0.33, 0.82, 2366.03, 807.84)" xlink:href="#linear-gradient"/></defs><g class="cls-1"><g id="Layer_2" data-name="Layer 2"><g id="bg"><rect class="cls-2" width="512.37" height="197.72" transform="translate(512.37 197.72) rotate(180)"/></g><g id="_1" data-name="1"><path class="cls-3" d="M239,166.7s3.27-.29,8.17-.45c2.45-.1,5.31-.16,8.37-.19,1.53,0,3.11,0,4.71,0s3.21,0,4.85,0H270c1.6,0,3.18,0,4.71,0,3,0,5.91.07,8.35.12,4.9.1,8.17.23,8.17.23s-3.24.54-8.13.92c-2.45.2-5.3.37-8.37.49-1.53.05-3.11.13-4.72.14l-4.87.07c-1.62,0-3.29,0-4.89-.06s-3.18-.1-4.71-.15c-3.06-.12-5.91-.27-8.36-.43C242.24,167.08,239,166.7,239,166.7Z"/><path class="cls-3" d="M295.8,165.52s-.27,0-.78-.08-1.26-.05-2.22-.08c-1.91-.07-4.65,0-7.93,0l-24.05.1h-24c-3.28,0-6,0-7.92.16l-.66.07-.29,0c-.08,0-.2.08-.17.05s0,0,.1,0a1,1,0,0,0,.23.08l.41.12.77.16s-.28,0-.79-.06l-.43,0-.26-.06a.48.48,0,0,1-.14-.05.2.2,0,0,1-.12-.24c.12-.2.21-.17.32-.23l.3-.1c.22-.06.44-.1.68-.15,1.91-.34,4.64-.67,7.92-.92s7.11-.47,11.22-.61c2.06-.06,4.18-.15,6.33-.17l6.54-.06,6.54,0c2.16,0,4.28.09,6.34.15,4.11.12,7.94.32,11.22.56s6,.55,7.92.78A21,21,0,0,1,295.8,165.52Z"/><path class="cls-3" d="M300.09,167.49l1-.21a12.8,12.8,0,0,0,2.61-.82.62.62,0,0,0,.25-.2s0,0-.14-.12a4.13,4.13,0,0,0-.92-.31,19.85,19.85,0,0,0-2.28-.36c-1.66-.19-3.54-.31-5.59-.44-4.12-.22-8.92-.37-14.07-.47l-7.95-.13-8.2-.06c-5.5,0-11,0-16.15,0s-10,.12-14.09.23l-5.62.19c-1.68.08-3.13.17-4.33.27s-2.14.21-2.78.3l-1,.17.95-.28c.63-.15,1.56-.37,2.75-.57,2.38-.4,5.81-.87,9.93-1.23s8.95-.66,14.12-.85c2.58-.08,5.25-.18,8-.2l8.23-.05,8.23.12c2.71.06,5.38.18,8,.3,5.16.25,10,.61,14.1,1.09,2.06.24,3.95.52,5.61.85a22,22,0,0,1,2.32.56,4.05,4.05,0,0,1,1,.46.55.55,0,0,1,.28.67.93.93,0,0,1-.46.38,11.33,11.33,0,0,1-2.78.58Z"/><path class="cls-3" d="M220.38,166.8l.29.06a8.47,8.47,0,0,0,.84.14c.72.12,1.76.2,3,.32s2.7.18,4.26.28l4.9.3,4.9.32,4.28.33c1.25.08,2.29.22,3,.27L247,169l-1.15.07c-.73,0-1.78.09-3,.09s-2.73,0-4.3,0-3.24-.11-4.92-.2-3.35-.24-4.91-.42-3-.4-4.27-.61c-.62-.09-1.19-.23-1.69-.34s-.93-.22-1.29-.34a6.29,6.29,0,0,1-.8-.28Z"/><path class="cls-3" d="M251.09,169,253,169c1.21,0,2.93-.11,5-.14l15.14-.29,15.13-.31,6.89-.19s-2.73.41-6.86.76c-2.06.15-4.47.35-7,.47s-5.34.21-8.09.27-5.52.07-8.1,0-5-.12-7.07-.19-3.78-.17-5-.22Z"/><path class="cls-4" d="M211.94,145.59c1.11,1.58,5.12,7.25,9.36,12.24a4.63,4.63,0,0,1,.33.37c3.54,4.12,7.21,7.68,9.45,7.91,4.3.45,46.51.13,58.33,0a10.74,10.74,0,0,0,5.71-1.7c3.87-2.49,10.46-6.92,8.73-7.29-.84-.18-1.25-.55-1.38-1.06-.26-.93.41-2.31.86-3.77.69-2.24,9-13.8,6.72-12.24s-6,3.62-4.65,1.2,3.79-8.79,2.41-8.79-1-4.14-.34-5.35c.46-.8-.53-.54-1.8,1a13.27,13.27,0,0,0-2,3.19,47.62,47.62,0,0,1-5.63,7.66h0c-4.46,5.29-9.82,10.83-9.71,9.75.17-1.73,2.07-10,1-9.31S270.91,158,271.6,155.77s-1.38-4.66-5.34,2.07c0,0-1,2.06-2.76,0s-16-16.73-15.69-15.35.51,3.79-1.9,1.55-22.07-23.79-22.07-21.73,2.07,4.83,0,4-8.8-7.18-7.76-4.11,1.9,5.49,1,4.63-2.11-1.55-1.14,2.58,6.32,24.14,3.9,21.73S209.87,142.66,211.94,145.59Z"/><path class="cls-5" d="M211.94,145.59c1.11,1.58,5.12,7.25,9.36,12.24a4.63,4.63,0,0,1,.33.37c3.54,4.12,7.21,7.68,9.45,7.91,4.3.45,46.51.13,58.33,0a10.74,10.74,0,0,0,5.71-1.7c3.87-2.49,10.46-6.92,8.73-7.29-.84-.18-1.25-.55-1.38-1.06-.26-.93.41-2.31.86-3.77.69-2.24,9-13.8,6.72-12.24s-6,3.62-4.65,1.2,3.79-8.79,2.41-8.79-1-4.14-.34-5.35c.46-.8-.53-.54-1.8,1a13.27,13.27,0,0,0-2,3.19,47.62,47.62,0,0,1-5.63,7.66h0c-4.46,5.29-9.82,10.83-9.71,9.75.17-1.73,2.07-10,1-9.31S270.91,158,271.6,155.77s-1.38-4.66-5.34,2.07c0,0-1,2.06-2.76,0s-16-16.73-15.69-15.35.51,3.79-1.9,1.55-22.07-23.79-22.07-21.73,2.07,4.83,0,4-8.8-7.18-7.76-4.11,1.9,5.49,1,4.63-2.11-1.55-1.14,2.58,6.32,24.14,3.9,21.73S209.87,142.66,211.94,145.59Z"/><path class="cls-6" d="M211.94,145.59c1.11,1.58,5.12,7.25,9.36,12.24a4.63,4.63,0,0,1,.33.37c3.54,4.12,7.21,7.68,9.45,7.91,4.3.45,46.51.13,58.33,0a10.74,10.74,0,0,0,5.71-1.7c3.87-2.49,10.46-6.92,8.73-7.29-.84-.18-1.25-.55-1.38-1.06-.26-.93.41-2.31.86-3.77.69-2.24,9-13.8,6.72-12.24s-6,3.62-4.65,1.2,3.79-8.79,2.41-8.79-1-4.14-.34-5.35c.46-.8-.53-.54-1.8,1a13.27,13.27,0,0,0-2,3.19,47.62,47.62,0,0,1-5.63,7.66h0c-4.46,5.29-9.82,10.83-9.71,9.75.17-1.73,2.07-10,1-9.31S270.91,158,271.6,155.77s-1.38-4.66-5.34,2.07c0,0-1,2.06-2.76,0s-16-16.73-15.69-15.35.51,3.79-1.9,1.55-22.07-23.79-22.07-21.73,2.07,4.83,0,4-8.8-7.18-7.76-4.11,1.9,5.49,1,4.63-2.11-1.55-1.14,2.58,6.32,24.14,3.9,21.73S209.87,142.66,211.94,145.59Z"/><path class="cls-7" d="M305.38,143.39c1.22-.29,3.34-1.17,2.47,0s-5.75,8.53-5.5,7.23,2-6.67.87-6.18-1.18-.92-.19-3.58,3.22-6.18,1.67-5.69S302,134,302,134l3.78-8.08a34.48,34.48,0,0,0,.31,4.57c.31,1.86,1.18,3.22.8,4.08S303.07,144,305.38,143.39Z"/><path class="cls-8" d="M287.18,150.78s2-7.85,0-6.18-13.54,10.79-10.42,9.83,7.66-6,8-3.65S287.18,150.78,287.18,150.78Z"/><path class="cls-9" d="M248.76,143.84s0,4.19-2.65,2.24-10.69-10.81-10.69-10.81.46,4,2.19,5.67,8.62,9.51,9.65,8,3.57-1.79,5.41.49,6.55,5.06,6.55,5.06S251.75,145.39,248.76,143.84Z"/><path class="cls-10" d="M225.54,124.51s.21,5.54-.76,4-6.31-6.74-5.66-4-1.25,4.66-1.63,3.48,3.15,16.9,3.15,16.9a3.36,3.36,0,0,0,.87-3.42c-.54-2.28-3.26-11.2-2.28-11.63s0-3,1.74-2,6.09,4.78,6.09,2.28A16,16,0,0,0,225.54,124.51Z"/><path class="cls-11" d="M226.75,137.45s5.5,4.74,7.29,6.66,6,8.9,3.46,6.95-4.83-3.24-5-2.09-2.57-.33-3.72-1.64S226.75,137.45,226.75,137.45Z"/><path class="cls-12" d="M221.63,158.2c3.54,4.12,7.21,7.68,9.45,7.91,4.3.45,46.51.13,58.33,0a10.74,10.74,0,0,0,5.71-1.7c3.87-2.49,10.46-6.92,8.73-7.29-.84-.18-1.25-.55-1.38-1.06,0,0-14.72,10.11-14.38,7.77s-.61-6.42-2-5.17-18.2,8-26.86,6.26-17.59-7.2-18.06-5.16-6.41.62-7.2,0S225.31,162.69,221.63,158.2Z"/><path class="cls-3" d="M219.67,112.38c.35,1.33,1.21,2.25,1.91,2.06s1-1.41.64-2.73-1.21-2.24-1.91-2.06S219.32,111.06,219.67,112.38Z"/><path class="cls-13" d="M219.67,112.38c.35,1.33,1.21,2.25,1.91,2.06s1-1.41.64-2.73-1.21-2.24-1.91-2.06S219.32,111.06,219.67,112.38Z"/><path class="cls-14" d="M219.67,112.38c.35,1.33,1.21,2.25,1.91,2.06s1-1.41.64-2.73-1.21-2.24-1.91-2.06S219.32,111.06,219.67,112.38Z"/><path class="cls-3" d="M200.26,111.94a2,2,0,0,0,2.52,1.23,2.26,2.26,0,1,0-2.52-1.23Z"/><path class="cls-15" d="M200.26,111.94a2,2,0,0,0,2.52,1.23,2.26,2.26,0,1,0-2.52-1.23Z"/><path class="cls-16" d="M200.26,111.94a2,2,0,0,0,2.52,1.23,2.26,2.26,0,1,0-2.52-1.23Z"/><path class="cls-3" d="M203.49,142.06c.52,1.1,1.46,1.74,2.09,1.43s.72-1.43.2-2.53-1.46-1.73-2.1-1.43S203,141,203.49,142.06Z"/><path class="cls-17" d="M203.49,142.06c.52,1.1,1.46,1.74,2.09,1.43s.72-1.43.2-2.53-1.46-1.73-2.1-1.43S203,141,203.49,142.06Z"/><path class="cls-18" d="M203.49,142.06c.52,1.1,1.46,1.74,2.09,1.43s.72-1.43.2-2.53-1.46-1.73-2.1-1.43S203,141,203.49,142.06Z"/><path class="cls-3" d="M294.62,124.38c-.45,1.13-.28,2.25.37,2.51s1.54-.44,2-1.57.29-2.26-.36-2.51S295.07,123.25,294.62,124.38Z"/><path class="cls-19" d="M294.62,124.38c-.45,1.13-.28,2.25.37,2.51s1.54-.44,2-1.57.29-2.26-.36-2.51S295.07,123.25,294.62,124.38Z"/><path class="cls-20" d="M294.62,124.38c-.45,1.13-.28,2.25.37,2.51s1.54-.44,2-1.57.29-2.26-.36-2.51S295.07,123.25,294.62,124.38Z"/><path class="cls-3" d="M321.24,139a1.73,1.73,0,1,0,2.36-1.43A2,2,0,0,0,321.24,139Z"/><path class="cls-21" d="M321.24,139a1.73,1.73,0,1,0,2.36-1.43A2,2,0,0,0,321.24,139Z"/><path class="cls-22" d="M321.24,139a1.73,1.73,0,1,0,2.36-1.43A2,2,0,0,0,321.24,139Z"/></g></g></g></svg>