<svg xmlns="http://www.w3.org/2000/svg" xmlns:xlink="http://www.w3.org/1999/xlink" viewBox="0 0 512.37 197.72"><defs><style>.cls-1{isolation:isolate;}.cls-2{fill:none;}.cls-3{fill:#d9f7ff;}.cls-30,.cls-4{mix-blend-mode:color-burn;}.cls-5{fill:url(#radial-gradient);}.cls-10,.cls-11,.cls-12,.cls-13,.cls-14,.cls-15,.cls-16,.cls-17,.cls-18,.cls-19,.cls-20,.cls-21,.cls-22,.cls-23,.cls-24,.cls-25,.cls-26,.cls-27,.cls-28,.cls-29,.cls-31,.cls-6,.cls-8,.cls-9{opacity:0.1;mix-blend-mode:multiply;}.cls-7{fill:url(#linear-gradient);}.cls-8{fill:url(#linear-gradient-2);}.cls-9{fill:url(#linear-gradient-3);}.cls-10{fill:url(#linear-gradient-4);}.cls-11{fill:url(#linear-gradient-5);}.cls-12{fill:url(#linear-gradient-6);}.cls-13{fill:url(#linear-gradient-7);}.cls-14{fill:url(#linear-gradient-8);}.cls-15{fill:url(#linear-gradient-9);}.cls-16{fill:url(#linear-gradient-10);}.cls-17{fill:url(#linear-gradient-11);}.cls-18{fill:url(#linear-gradient-12);}.cls-19{fill:url(#linear-gradient-13);}.cls-20{fill:url(#linear-gradient-14);}.cls-21{fill:url(#linear-gradient-15);}.cls-22{fill:url(#linear-gradient-16);}.cls-23{fill:url(#linear-gradient-17);}.cls-24{fill:url(#linear-gradient-18);}.cls-25{fill:url(#linear-gradient-19);}.cls-26{fill:url(#linear-gradient-20);}.cls-27{fill:url(#linear-gradient-21);}.cls-28{fill:url(#linear-gradient-22);}.cls-29{fill:url(#linear-gradient-23);}.cls-30{fill:#476b82;opacity:0.2;}.cls-31{fill:url(#linear-gradient-26);}.cls-32,.cls-33,.cls-34,.cls-35,.cls-36,.cls-37,.cls-38,.cls-39,.cls-40,.cls-41,.cls-42,.cls-43,.cls-44,.cls-45,.cls-46,.cls-47,.cls-48,.cls-49,.cls-50,.cls-51,.cls-52,.cls-53,.cls-54,.cls-55,.cls-56,.cls-57{opacity:0.8;mix-blend-mode:color-dodge;}.cls-32{fill:url(#linear-gradient-27);}.cls-33{fill:url(#linear-gradient-28);}.cls-34{fill:url(#linear-gradient-29);}.cls-35{fill:url(#linear-gradient-30);}.cls-36{fill:url(#linear-gradient-31);}.cls-37{fill:url(#linear-gradient-32);}.cls-38{fill:url(#linear-gradient-33);}.cls-39{fill:url(#linear-gradient-34);}.cls-40{fill:url(#linear-gradient-35);}.cls-41{fill:url(#linear-gradient-36);}.cls-42{fill:url(#linear-gradient-37);}.cls-43{fill:url(#linear-gradient-38);}.cls-44{fill:url(#linear-gradient-39);}.cls-45{fill:url(#linear-gradient-40);}.cls-46{fill:url(#linear-gradient-41);}.cls-47{fill:url(#linear-gradient-42);}.cls-48{fill:url(#linear-gradient-43);}.cls-49{fill:url(#linear-gradient-44);}.cls-50{fill:url(#linear-gradient-45);}.cls-51{fill:url(#linear-gradient-46);}.cls-52{fill:url(#linear-gradient-47);}.cls-53{fill:url(#linear-gradient-48);}.cls-54{fill:url(#linear-gradient-49);}.cls-55{fill:url(#linear-gradient-50);}.cls-56{fill:url(#linear-gradient-51);}.cls-57{fill:url(#linear-gradient-52);}</style><radialGradient id="radial-gradient" cx="1488.69" cy="108.71" r="192.41" gradientTransform="matrix(-1, 0, 0, 1, 1748.94, 0)" gradientUnits="userSpaceOnUse"><stop offset="0" stop-color="#1b1464"/><stop offset="0.07" stop-color="#453f81"/><stop offset="0.15" stop-color="#706c9e"/><stop offset="0.23" stop-color="#9793b8"/><stop offset="0.32" stop-color="#b7b5ce"/><stop offset="0.42" stop-color="#d1d0e0"/><stop offset="0.53" stop-color="#e6e5ee"/><stop offset="0.64" stop-color="#f4f4f8"/><stop offset="0.78" stop-color="#fcfcfd"/><stop offset="1" stop-color="#fff"/></radialGradient><linearGradient id="linear-gradient" x1="1494.19" y1="173.59" x2="1494.19" y2="121.18" gradientTransform="matrix(-1, 0, 0, 1, 1748.94, 0)" xlink:href="#radial-gradient"/><linearGradient id="linear-gradient-2" x1="1344.96" y1="141.35" x2="1344.96" y2="118.4" gradientTransform="matrix(-1, 0, 0, 1, 1748.94, 0)" xlink:href="#radial-gradient"/><linearGradient id="linear-gradient-3" x1="1353.94" y1="146.01" x2="1353.94" y2="136.57" gradientTransform="matrix(-1, 0, 0, 1, 1748.94, 0)" xlink:href="#radial-gradient"/><linearGradient id="linear-gradient-4" x1="1403.08" y1="139.56" x2="1403.08" y2="126.7" gradientTransform="matrix(-1, 0, 0, 1, 1748.94, 0)" xlink:href="#radial-gradient"/><linearGradient id="linear-gradient-5" x1="1403.07" y1="118.36" x2="1403.07" y2="111.05" gradientTransform="matrix(-1, 0, 0, 1, 1748.94, 0)" xlink:href="#radial-gradient"/><linearGradient id="linear-gradient-6" x1="1392.73" y1="97.25" x2="1392.73" y2="83.55" gradientTransform="matrix(-1, 0, 0, 1, 1748.94, 0)" xlink:href="#radial-gradient"/><linearGradient id="linear-gradient-7" x1="1394.35" y1="101.76" x2="1394.35" y2="98.52" gradientTransform="matrix(-1, 0, 0, 1, 1748.94, 0)" xlink:href="#radial-gradient"/><linearGradient id="linear-gradient-8" x1="1405.73" y1="98.58" x2="1405.73" y2="89.83" gradientTransform="matrix(-1, 0, 0, 1, 1748.94, 0)" xlink:href="#radial-gradient"/><linearGradient id="linear-gradient-9" x1="1415.89" y1="98.68" x2="1415.89" y2="93.26" gradientTransform="matrix(-1, 0, 0, 1, 1748.94, 0)" xlink:href="#radial-gradient"/><linearGradient id="linear-gradient-10" x1="1485.98" y1="110.43" x2="1485.98" y2="102.5" gradientTransform="matrix(-1, 0, 0, 1, 1748.94, 0)" xlink:href="#radial-gradient"/><linearGradient id="linear-gradient-11" x1="1486.4" y1="98.63" x2="1486.4" y2="88.17" gradientTransform="matrix(-1, 0, 0, 1, 1748.94, 0)" xlink:href="#radial-gradient"/><linearGradient id="linear-gradient-12" x1="1537.98" y1="139.08" x2="1537.98" y2="127.46" gradientTransform="matrix(-1, 0, 0, 1, 1748.94, 0)" xlink:href="#radial-gradient"/><linearGradient id="linear-gradient-13" x1="1540.43" y1="125.91" x2="1540.43" y2="116.85" gradientTransform="matrix(-1, 0, 0, 1, 1748.94, 0)" xlink:href="#radial-gradient"/><linearGradient id="linear-gradient-14" x1="1537.88" y1="105.22" x2="1537.88" y2="85.52" gradientTransform="matrix(-1, 0, 0, 1, 1748.94, 0)" xlink:href="#radial-gradient"/><linearGradient id="linear-gradient-15" x1="1547.28" y1="84.6" x2="1547.28" y2="69.76" gradientTransform="matrix(-1, 0, 0, 1, 1748.94, 0)" xlink:href="#radial-gradient"/><linearGradient id="linear-gradient-16" x1="1562.8" y1="144.63" x2="1562.8" y2="138.41" gradientTransform="matrix(-1, 0, 0, 1, 1748.94, 0)" xlink:href="#radial-gradient"/><linearGradient id="linear-gradient-17" x1="1582.82" y1="143.9" x2="1582.82" y2="126.46" gradientTransform="matrix(-1, 0, 0, 1, 1748.94, 0)" xlink:href="#radial-gradient"/><linearGradient id="linear-gradient-18" x1="1588.81" y1="118.63" x2="1588.81" y2="104.03" gradientTransform="matrix(-1, 0, 0, 1, 1748.94, 0)" xlink:href="#radial-gradient"/><linearGradient id="linear-gradient-19" x1="1569.29" y1="99.36" x2="1569.29" y2="92.16" gradientTransform="matrix(-1, 0, 0, 1, 1748.94, 0)" xlink:href="#radial-gradient"/><linearGradient id="linear-gradient-20" x1="1586.17" y1="98.62" x2="1586.17" y2="89.38" gradientTransform="matrix(-1, 0, 0, 1, 1748.94, 0)" xlink:href="#radial-gradient"/><linearGradient id="linear-gradient-21" x1="1606.73" y1="150.88" x2="1606.73" y2="146.06" gradientTransform="matrix(-1, 0, 0, 1, 1748.94, 0)" xlink:href="#radial-gradient"/><linearGradient id="linear-gradient-22" x1="1613.25" y1="151.5" x2="1613.25" y2="146.88" gradientTransform="matrix(-1, 0, 0, 1, 1748.94, 0)" xlink:href="#radial-gradient"/><linearGradient id="linear-gradient-23" x1="1640.6" y1="150.85" x2="1640.6" y2="114.03" gradientTransform="matrix(-1, 0, 0, 1, 1748.94, 0)" xlink:href="#radial-gradient"/><linearGradient id="linear-gradient-26" x1="1435.83" y1="147.67" x2="1435.83" y2="146.19" gradientTransform="matrix(-1, 0, 0, 1, 1748.94, 0)" xlink:href="#radial-gradient"/><linearGradient id="linear-gradient-27" x1="1449.72" y1="167.73" x2="1456.57" y2="161.59" gradientTransform="matrix(-1, 0, 0, 1, 1748.94, 0)" gradientUnits="userSpaceOnUse"><stop offset="0"/><stop offset="1" stop-color="#fff"/></linearGradient><linearGradient id="linear-gradient-28" x1="1452.82" y1="130.36" x2="1454.74" y2="128.65" xlink:href="#linear-gradient-27"/><linearGradient id="linear-gradient-29" x1="1459.82" y1="156.91" x2="1470.66" y2="147.2" xlink:href="#linear-gradient-27"/><linearGradient id="linear-gradient-30" x1="1477.93" y1="146.02" x2="1488.07" y2="136.94" xlink:href="#linear-gradient-27"/><linearGradient id="linear-gradient-31" x1="1505.84" y1="153.73" x2="1516.59" y2="144.09" xlink:href="#linear-gradient-27"/><linearGradient id="linear-gradient-32" x1="1419.19" y1="157" x2="1429.3" y2="147.93" xlink:href="#linear-gradient-27"/><linearGradient id="linear-gradient-33" x1="1352.31" y1="164.93" x2="1364.85" y2="153.69" xlink:href="#linear-gradient-27"/><linearGradient id="linear-gradient-34" x1="1316.43" y1="168.6" x2="1332.85" y2="153.88" xlink:href="#linear-gradient-27"/><linearGradient id="linear-gradient-35" x1="1410.4" y1="173.99" x2="1426.01" y2="159.99" xlink:href="#linear-gradient-27"/><linearGradient id="linear-gradient-36" x1="1510.55" y1="175.87" x2="1523.84" y2="163.97" xlink:href="#linear-gradient-27"/><linearGradient id="linear-gradient-37" x1="1574.4" y1="176.2" x2="1591.73" y2="160.67" xlink:href="#linear-gradient-27"/><linearGradient id="linear-gradient-38" x1="1632.81" y1="166.58" x2="1645.62" y2="155.1" xlink:href="#linear-gradient-27"/><linearGradient id="linear-gradient-39" x1="1649.68" y1="160.62" x2="1655.58" y2="155.32" xlink:href="#linear-gradient-27"/><linearGradient id="linear-gradient-40" x1="1665.5" y1="168.45" x2="1675.22" y2="159.74" xlink:href="#linear-gradient-27"/><linearGradient id="linear-gradient-41" x1="1637.1" y1="127.38" x2="1645.69" y2="119.68" xlink:href="#linear-gradient-27"/><linearGradient id="linear-gradient-42" x1="1619.94" y1="159.99" x2="1631.44" y2="149.69" xlink:href="#linear-gradient-27"/><linearGradient id="linear-gradient-43" x1="1581.27" y1="136.35" x2="1586.4" y2="131.75" xlink:href="#linear-gradient-27"/><linearGradient id="linear-gradient-44" x1="1396.69" y1="144.65" x2="1398.54" y2="142.99" xlink:href="#linear-gradient-27"/><linearGradient id="linear-gradient-45" x1="1380.65" y1="152.91" x2="1391.17" y2="143.48" xlink:href="#linear-gradient-27"/><linearGradient id="linear-gradient-46" x1="1390.49" y1="91.4" x2="1394.95" y2="87.4" xlink:href="#linear-gradient-27"/><linearGradient id="linear-gradient-47" x1="1401.71" y1="115.79" x2="1404.4" y2="113.38" xlink:href="#linear-gradient-27"/><linearGradient id="linear-gradient-48" x1="1341.88" y1="129.94" x2="1350.04" y2="122.62" xlink:href="#linear-gradient-27"/><linearGradient id="linear-gradient-49" x1="1546.08" y1="78.83" x2="1550.77" y2="74.63" xlink:href="#linear-gradient-27"/><linearGradient id="linear-gradient-50" x1="1534.24" y1="98.99" x2="1542.18" y2="91.87" xlink:href="#linear-gradient-27"/><linearGradient id="linear-gradient-51" x1="1485.04" y1="92.77" x2="1487.31" y2="90.74" xlink:href="#linear-gradient-27"/><linearGradient id="linear-gradient-52" x1="1537.55" y1="123.01" x2="1541.37" y2="119.58" xlink:href="#linear-gradient-27"/></defs><g class="cls-1"><g id="Layer_2" data-name="Layer 2"><g id="bg"><rect class="cls-2" width="512.37" height="197.72" transform="translate(512.37 197.72) rotate(180)"/></g><g id="_10" data-name="10"><path class="cls-3" d="M70.77,163.36c.89.55.8,1.49,4.34,2.82s15,1.15,15,2.48,4.88,0,12.16,0,22.43.54,22.79,1.6,12.24-.44,15.25-.44,11.53-.89,10.91.53,39.47.44,39.47.44a5.29,5.29,0,0,0,3.55.45c2-.45,9.67.35,8.34,1s34.14.62,34.14.62,50.47,0,54.11.62,2.75-1,4.52-2,13.13.6,14,0,8,.08,9.94,0,2.66-1.34,5.41-2,9.4,1.86,12.24,1.95,6.83-.8,9.31-1S362,170,363.1,168.49c5.32.79,28.74-.63,29-1.18s6.2-1.49,9.66-.24,21.73-2.58,24.39-3.11,14-1.68,18.36-2.13c1.93-.19,1.83-.84,1-1.5a0,0,0,0,0,0,0,9.78,9.78,0,0,0-4.09-1.72c-1.51,0-11.71-3.33-14.1-3.15s-2.49-.71-4.7-1.6-9.85-.71-9.85-.71c-2.22-6-6.65-6.65-7.63-5.75s-1.15-3.3-3.19-3.65.27,3.28-.8,3.28-1,3.28-1,3.28c-3.11-1-9.05,1.16-11.45,1.33s-12.06-.17-12.23-.88-7.63-1.87-9.76-2.4a9.17,9.17,0,0,1-5.06-4.34c-.8-1.6-2.83-.71-4.08-.54s-2.21-1.77-4.87-2.92-3.62,1.88-5.39,3.48h0l-.28.24c-1.95,1.51,2.3,4.88,1.51,4.88s-3.11-.18-2.84.62-15.79.89-15.79.89-.13-.32-.34-.79a41.55,41.55,0,0,0-1.88-4c-.53-.8-1.33,1.86-2,2.66s-1.24-1-2.12-1.51-2.22,3.11-4.71,3.55-2.83-3.81-4.08-4.35a1.08,1.08,0,0,0-.73,0,4.46,4.46,0,0,0-1.85,1.48c-.16.2-.25.33-.25.33l-.1,0a1.93,1.93,0,0,0-1.68.13c-.88.53-6.29-3.37-6.83-2.22s-2.39,1.06-3.46,1c-.75-.06-.79-4.49-.31-8.36a22.49,22.49,0,0,1,.85-4.14c1.24-3.64-.09-7.89-1.07-9.93,0-.07-.07-.14-.1-.2-1.07-1.69-3.8.35-3.89,2.24s-.8,1.41-3,2.48-1.15,3-1.15,5.85,2.31,1.78,4.53,2.4.88,7.18.08,10.21-3.63.78-4.7,0-2.83-.63-4.61,0-2.13-1.08-3.64-2-1.86,2-1.86,2-.55-.77-1.09-1.59h0a15.82,15.82,0,0,1-.86-1.43c-.44-.89-.89.44-2.75,1.42s-2.48-.89-3.1-2.39-3.11-1.07-4.61,1.5-3.11-1.95-3.64-2.83,1.15-2,2.48-3.2.8-3-.18-5.59-.17-1.59.71-5.14a4.58,4.58,0,0,0-.85-4.27h0a12.39,12.39,0,0,0-2.95-2.37c-2.22-1.42-1.06,2.57-1,4.61s-.53,3.46-2.74,5.77-.36,6.12.62,6.91.26,2.49-1.42,1.95-4.17,5.15-5.19,6.12-1.11-2.92-1.82-3.63-5.14.83-7.38,2a6.13,6.13,0,0,0-1,.63c-1.42,1.24-1.77-1.86-2.92-2.93s-1.51.27-3.11.62-3.28-.53-4.61.45-.35,2-2.31,2.12-5.94.54-7.36,1.69-3.28-2.66-4.34-3.1-2.66,3.28-4.08,3.9-2.49-5.32-4.79-6.12-3,5.32-3,5.32-28.65,1.33-30.24,1.33-5.95-.62-7.45-1.86-2.58-1.42-4.26,0-7.36,3.37-10,3.81-9.58.53-12.6,1.51-10.55,1-13.21.35-8.43-2.75-9.85-3-1.86,2.17-3.28,3.05-7,1.33-8.87,1.07-1.77,2.21-1.77,2.21l0,0h0a20.65,20.65,0,0,1-2.72-4c-.53-1.41-1.42.63-2.13,2.13s-1.6-1.59-2.31-3-2.57-1.86-3.46-.71c-.71.93,0,4.62.33,6,.07.31.12.5.12.5s-3.28-.09-4.08,1-6.3.35-8-.27-1.6-1.77-2.58-1a11.06,11.06,0,0,1-5.41,1.59c-2.21.18-2.92,2.84-4.43,2.84H71.2c-1.81-.15-6.78-1.53-7.7-.7S69.88,162.81,70.77,163.36Zm342-5.69a1.84,1.84,0,0,1,.19-.83h0a1.2,1.2,0,0,1,1.14-.67c1,0,.27,1.33,3,1.59s9.4.36,9.4.36a14,14,0,0,1,2.31-.42l1.18.16h0a.32.32,0,0,1,.13.26c0,1-2.66,2.75-5.32,2.39s-10.82,1.34-10.73.05S412.77,158.39,412.77,157.67Zm-83.55.44s2.93-.18,2.66-2.48a4.84,4.84,0,0,0-1.89-3.34l-.06,0s4.53.1,8.77.29a67.37,67.37,0,0,1,6.75.51c2.66.54,27.5-.62,29.36.27s20.16.16,20.92,1.44h0a.12.12,0,0,1,0,.15c-.59,1.21-1,1.15-.89,2.48s.89,3.29-1.41,3.64-19,3.37-20.76,3.9-5.41,1.06-6.47.71-11.53-.89-13.75-.71-10.82-.71-14.19-1.86-9-1.49-9-2.74l0-.47A14.62,14.62,0,0,1,329.22,158.11Zm-21.91,4.7s18.63-3.64,18.63-2.57a10,10,0,0,1-1.71,1.51l0,0c-.52.44-1.06.89-1.48,1.31l-.1.09c-.11.12-.22.23-.31.34a15.1,15.1,0,0,1-9,3.9c-3.64,0-5.86-.71-5.95-2A23.39,23.39,0,0,1,307.31,162.81ZM202.92,168c1.6-.44,12.24-3.47,16.94-4.22s5.32-1.63,12-.83,23.68-.18,25.36.35,32.8.84,36.33.52l.3,0s.53,2.63-.88,3-7.54-.18-9.05.71a6.9,6.9,0,0,1-4.35,1.24c-1.77-.09-7.62-.24-7.8,0s-11.44.7-11.44.7a6.29,6.29,0,0,0-3.37-1.42,42.54,42.54,0,0,1-4.88-.53c-.8-.09-8.87,1.07-9.31.44s-3.29-3.45-5.06-2.74a57.22,57.22,0,0,1-8.69,2.3c-1.95.27-16.5,1.15-19.16,1S201.33,168.4,202.92,168Zm-85.85-10c2-.89,19.6.53,20.31-.44s-1.24-1.24-.36-1.78,16.41-.79,18-1.24-.62-1.77,1-1.77,14-.62,13.84.44,1.15.8,5.14.71,5.86.89,8.43,2.22,9.93,2.75,9.4,1.42-10.91-4.08-9.76-4.79,14.91.8,16.15-.27,6.56-1,6.56-1-3.9,8.33-2.39,9.22,11.26,1.32,9.75,1.9S198,165.07,196.27,166a6.38,6.38,0,0,1-1.61.39c-4.2.62-14.4.78-15.6-.39-1.42-1.4-5.05-4.95-6.83-3.4s-2.83,3-3.45,2.54-4-2.67-5.15-2-1.15-.36-3.19-.58-5.23-.3-5.86.67-4.52,2.62-6.29,2.73-18.27,1.19-20,.87-7.27-1.65-8.33-3.33c.25-.06.52-.12.81-.17h0c4.11-.77,11.83-.73,16.38-.77,4.88,0,15.08-1.37,16.94-1.46s14.81,1.06,15.08,1.46c0,0-.89-1.37-4.26-2.08s-12.59-2-16-1.32a99.91,99.91,0,0,1-13.75,1.5c-2.84,0-11.18-.27-13.66-.27S115.12,158.82,117.07,157.93Z"/><g class="cls-4"><path class="cls-5" d="M70.77,163.36c.89.55.8,1.49,4.34,2.82s15,1.15,15,2.48,4.88,0,12.16,0,22.43.54,22.79,1.6,12.24-.44,15.25-.44,11.53-.89,10.91.53,39.47.44,39.47.44a5.29,5.29,0,0,0,3.55.45c2-.45,9.67.35,8.34,1s34.14.62,34.14.62,50.47,0,54.11.62,2.75-1,4.52-2,13.13.6,14,0,8,.08,9.94,0,2.66-1.34,5.41-2,9.4,1.86,12.24,1.95,6.83-.8,9.31-1S362,170,363.1,168.49c5.32.79,28.74-.63,29-1.18s6.2-1.49,9.66-.24,21.73-2.58,24.39-3.11,14-1.68,18.36-2.13c1.93-.19,1.83-.84,1-1.5a0,0,0,0,0,0,0,9.78,9.78,0,0,0-4.09-1.72c-1.51,0-11.71-3.33-14.1-3.15s-2.49-.71-4.7-1.6-9.85-.71-9.85-.71c-2.22-6-6.65-6.65-7.63-5.75s-1.15-3.3-3.19-3.65.27,3.28-.8,3.28-1,3.28-1,3.28c-3.11-1-9.05,1.16-11.45,1.33s-12.06-.17-12.23-.88-7.63-1.87-9.76-2.4a9.17,9.17,0,0,1-5.06-4.34c-.8-1.6-2.83-.71-4.08-.54s-2.21-1.77-4.87-2.92-3.62,1.88-5.39,3.48h0l-.28.24c-1.95,1.51,2.3,4.88,1.51,4.88s-3.11-.18-2.84.62-15.79.89-15.79.89-.13-.32-.34-.79a41.55,41.55,0,0,0-1.88-4c-.53-.8-1.33,1.86-2,2.66s-1.24-1-2.12-1.51-2.22,3.11-4.71,3.55-2.83-3.81-4.08-4.35a1.08,1.08,0,0,0-.73,0,4.46,4.46,0,0,0-1.85,1.48c-.16.2-.25.33-.25.33l-.1,0a1.93,1.93,0,0,0-1.68.13c-.88.53-6.29-3.37-6.83-2.22s-2.39,1.06-3.46,1c-.75-.06-.79-4.49-.31-8.36a22.49,22.49,0,0,1,.85-4.14c1.24-3.64-.09-7.89-1.07-9.93,0-.07-.07-.14-.1-.2-1.07-1.69-3.8.35-3.89,2.24s-.8,1.41-3,2.48-1.15,3-1.15,5.85,2.31,1.78,4.53,2.4.88,7.18.08,10.21-3.63.78-4.7,0-2.83-.63-4.61,0-2.13-1.08-3.64-2-1.86,2-1.86,2-.55-.77-1.09-1.59h0a15.82,15.82,0,0,1-.86-1.43c-.44-.89-.89.44-2.75,1.42s-2.48-.89-3.1-2.39-3.11-1.07-4.61,1.5-3.11-1.95-3.64-2.83,1.15-2,2.48-3.2.8-3-.18-5.59-.17-1.59.71-5.14a4.58,4.58,0,0,0-.85-4.27h0a12.39,12.39,0,0,0-2.95-2.37c-2.22-1.42-1.06,2.57-1,4.61s-.53,3.46-2.74,5.77-.36,6.12.62,6.91.26,2.49-1.42,1.95-4.17,5.15-5.19,6.12-1.11-2.92-1.82-3.63-5.14.83-7.38,2a6.13,6.13,0,0,0-1,.63c-1.42,1.24-1.77-1.86-2.92-2.93s-1.51.27-3.11.62-3.28-.53-4.61.45-.35,2-2.31,2.12-5.94.54-7.36,1.69-3.28-2.66-4.34-3.1-2.66,3.28-4.08,3.9-2.49-5.32-4.79-6.12-3,5.32-3,5.32-28.65,1.33-30.24,1.33-5.95-.62-7.45-1.86-2.58-1.42-4.26,0-7.36,3.37-10,3.81-9.58.53-12.6,1.51-10.55,1-13.21.35-8.43-2.75-9.85-3-1.86,2.17-3.28,3.05-7,1.33-8.87,1.07-1.77,2.21-1.77,2.21l0,0h0a20.65,20.65,0,0,1-2.72-4c-.53-1.41-1.42.63-2.13,2.13s-1.6-1.59-2.31-3-2.57-1.86-3.46-.71c-.71.93,0,4.62.33,6,.07.31.12.5.12.5s-3.28-.09-4.08,1-6.3.35-8-.27-1.6-1.77-2.58-1a11.06,11.06,0,0,1-5.41,1.59c-2.21.18-2.92,2.84-4.43,2.84H71.2c-1.81-.15-6.78-1.53-7.7-.7S69.88,162.81,70.77,163.36Zm342-5.69a1.84,1.84,0,0,1,.19-.83h0a1.2,1.2,0,0,1,1.14-.67c1,0,.27,1.33,3,1.59s9.4.36,9.4.36a14,14,0,0,1,2.31-.42l1.18.16h0a.32.32,0,0,1,.13.26c0,1-2.66,2.75-5.32,2.39s-10.82,1.34-10.73.05S412.77,158.39,412.77,157.67Zm-83.55.44s2.93-.18,2.66-2.48a4.84,4.84,0,0,0-1.89-3.34l-.06,0s4.53.1,8.77.29a67.37,67.37,0,0,1,6.75.51c2.66.54,27.5-.62,29.36.27s20.16.16,20.92,1.44h0a.12.12,0,0,1,0,.15c-.59,1.21-1,1.15-.89,2.48s.89,3.29-1.41,3.64-19,3.37-20.76,3.9-5.41,1.06-6.47.71-11.53-.89-13.75-.71-10.82-.71-14.19-1.86-9-1.49-9-2.74l0-.47A14.62,14.62,0,0,1,329.22,158.11Zm-21.91,4.7s18.63-3.64,18.63-2.57a10,10,0,0,1-1.71,1.51l0,0c-.52.44-1.06.89-1.48,1.31l-.1.09c-.11.12-.22.23-.31.34a15.1,15.1,0,0,1-9,3.9c-3.64,0-5.86-.71-5.95-2A23.39,23.39,0,0,1,307.31,162.81ZM202.92,168c1.6-.44,12.24-3.47,16.94-4.22s5.32-1.63,12-.83,23.68-.18,25.36.35,32.8.84,36.33.52l.3,0s.53,2.63-.88,3-7.54-.18-9.05.71a6.9,6.9,0,0,1-4.35,1.24c-1.77-.09-7.62-.24-7.8,0s-11.44.7-11.44.7a6.29,6.29,0,0,0-3.37-1.42,42.54,42.54,0,0,1-4.88-.53c-.8-.09-8.87,1.07-9.31.44s-3.29-3.45-5.06-2.74a57.22,57.22,0,0,1-8.69,2.3c-1.95.27-16.5,1.15-19.16,1S201.33,168.4,202.92,168Zm-85.85-10c2-.89,19.6.53,20.31-.44s-1.24-1.24-.36-1.78,16.41-.79,18-1.24-.62-1.77,1-1.77,14-.62,13.84.44,1.15.8,5.14.71,5.86.89,8.43,2.22,9.93,2.75,9.4,1.42-10.91-4.08-9.76-4.79,14.91.8,16.15-.27,6.56-1,6.56-1-3.9,8.33-2.39,9.22,11.26,1.32,9.75,1.9S198,165.07,196.27,166a6.38,6.38,0,0,1-1.61.39c-4.2.62-14.4.78-15.6-.39-1.42-1.4-5.05-4.95-6.83-3.4s-2.83,3-3.45,2.54-4-2.67-5.15-2-1.15-.36-3.19-.58-5.23-.3-5.86.67-4.52,2.62-6.29,2.73-18.27,1.19-20,.87-7.27-1.65-8.33-3.33c.25-.06.52-.12.81-.17h0c4.11-.77,11.83-.73,16.38-.77,4.88,0,15.08-1.37,16.94-1.46s14.81,1.06,15.08,1.46c0,0-.89-1.37-4.26-2.08s-12.59-2-16-1.32a99.91,99.91,0,0,1-13.75,1.5c-2.84,0-11.18-.27-13.66-.27S115.12,158.82,117.07,157.93Z"/></g><g class="cls-6"><path class="cls-7" d="M70.77,163.36c.89.55.8,1.49,4.34,2.82s15,1.15,15,2.48,4.88,0,12.16,0,22.43.54,22.79,1.6,12.24-.44,15.25-.44,11.53-.89,10.91.53,39.47.44,39.47.44a5.29,5.29,0,0,0,3.55.45c2-.45,9.67.35,8.34,1s34.14.62,34.14.62,50.47,0,54.11.62,2.75-1,4.52-2,13.13.6,14,0,8,.08,9.94,0,2.66-1.34,5.41-2,9.4,1.86,12.24,1.95,6.83-.8,9.31-1S362,170,363.1,168.49c5.32.79,28.74-.63,29-1.18s6.2-1.49,9.66-.24,21.73-2.58,24.39-3.11,14-1.68,18.36-2.13c1.93-.19,1.83-.84,1-1.5a0,0,0,0,0,0,0,9.78,9.78,0,0,0-4.09-1.72c-1.51,0-11.71-3.33-14.1-3.15s-2.49-.71-4.7-1.6-9.85-.71-9.85-.71c-2.22-6-6.65-6.65-7.63-5.75s-1.15-3.3-3.19-3.65.27,3.28-.8,3.28-1,3.28-1,3.28c-3.11-1-9.05,1.16-11.45,1.33s-12.06-.17-12.23-.88-7.63-1.87-9.76-2.4a9.17,9.17,0,0,1-5.06-4.34c-.8-1.6-2.83-.71-4.08-.54s-2.21-1.77-4.87-2.92-3.62,1.88-5.39,3.48h0l-.28.24c-1.95,1.51,2.3,4.88,1.51,4.88s-3.11-.18-2.84.62-15.79.89-15.79.89-.13-.32-.34-.79a41.55,41.55,0,0,0-1.88-4c-.53-.8-1.33,1.86-2,2.66s-1.24-1-2.12-1.51-2.22,3.11-4.71,3.55-2.83-3.81-4.08-4.35a1.08,1.08,0,0,0-.73,0,4.46,4.46,0,0,0-1.85,1.48c-.16.2-.25.33-.25.33l-.1,0a1.93,1.93,0,0,0-1.68.13c-.88.53-6.29-3.37-6.83-2.22s-2.39,1.06-3.46,1c-.75-.06-.79-4.49-.31-8.36a22.49,22.49,0,0,1,.85-4.14c1.24-3.64-.09-7.89-1.07-9.93,0-.07-.07-.14-.1-.2-1.07-1.69-3.8.35-3.89,2.24s-.8,1.41-3,2.48-1.15,3-1.15,5.85,2.31,1.78,4.53,2.4.88,7.18.08,10.21-3.63.78-4.7,0-2.83-.63-4.61,0-2.13-1.08-3.64-2-1.86,2-1.86,2-.55-.77-1.09-1.59h0a15.82,15.82,0,0,1-.86-1.43c-.44-.89-.89.44-2.75,1.42s-2.48-.89-3.1-2.39-3.11-1.07-4.61,1.5-3.11-1.95-3.64-2.83,1.15-2,2.48-3.2.8-3-.18-5.59-.17-1.59.71-5.14a4.58,4.58,0,0,0-.85-4.27h0a12.39,12.39,0,0,0-2.95-2.37c-2.22-1.42-1.06,2.57-1,4.61s-.53,3.46-2.74,5.77-.36,6.12.62,6.91.26,2.49-1.42,1.95-4.17,5.15-5.19,6.12-1.11-2.92-1.82-3.63-5.14.83-7.38,2a6.13,6.13,0,0,0-1,.63c-1.42,1.24-1.77-1.86-2.92-2.93s-1.51.27-3.11.62-3.28-.53-4.61.45-.35,2-2.31,2.12-5.94.54-7.36,1.69-3.28-2.66-4.34-3.1-2.66,3.28-4.08,3.9-2.49-5.32-4.79-6.12-3,5.32-3,5.32-28.65,1.33-30.24,1.33-5.95-.62-7.45-1.86-2.58-1.42-4.26,0-7.36,3.37-10,3.81-9.58.53-12.6,1.51-10.55,1-13.21.35-8.43-2.75-9.85-3-1.86,2.17-3.28,3.05-7,1.33-8.87,1.07-1.77,2.21-1.77,2.21l0,0h0a20.65,20.65,0,0,1-2.72-4c-.53-1.41-1.42.63-2.13,2.13s-1.6-1.59-2.31-3-2.57-1.86-3.46-.71c-.71.93,0,4.62.33,6,.07.31.12.5.12.5s-3.28-.09-4.08,1-6.3.35-8-.27-1.6-1.77-2.58-1a11.06,11.06,0,0,1-5.41,1.59c-2.21.18-2.92,2.84-4.43,2.84H71.2c-1.81-.15-6.78-1.53-7.7-.7S69.88,162.81,70.77,163.36Zm342-5.69a1.84,1.84,0,0,1,.19-.83h0a1.2,1.2,0,0,1,1.14-.67c1,0,.27,1.33,3,1.59s9.4.36,9.4.36a14,14,0,0,1,2.31-.42l1.18.16h0a.32.32,0,0,1,.13.26c0,1-2.66,2.75-5.32,2.39s-10.82,1.34-10.73.05S412.77,158.39,412.77,157.67Zm-83.55.44s2.93-.18,2.66-2.48a4.84,4.84,0,0,0-1.89-3.34l-.06,0s4.53.1,8.77.29a67.37,67.37,0,0,1,6.75.51c2.66.54,27.5-.62,29.36.27s20.16.16,20.92,1.44h0a.12.12,0,0,1,0,.15c-.59,1.21-1,1.15-.89,2.48s.89,3.29-1.41,3.64-19,3.37-20.76,3.9-5.41,1.06-6.47.71-11.53-.89-13.75-.71-10.82-.71-14.19-1.86-9-1.49-9-2.74l0-.47A14.62,14.62,0,0,1,329.22,158.11Zm-21.91,4.7s18.63-3.64,18.63-2.57a10,10,0,0,1-1.71,1.51l0,0c-.52.44-1.06.89-1.48,1.31l-.1.09c-.11.12-.22.23-.31.34a15.1,15.1,0,0,1-9,3.9c-3.64,0-5.86-.71-5.95-2A23.39,23.39,0,0,1,307.31,162.81ZM202.92,168c1.6-.44,12.24-3.47,16.94-4.22s5.32-1.63,12-.83,23.68-.18,25.36.35,32.8.84,36.33.52l.3,0s.53,2.63-.88,3-7.54-.18-9.05.71a6.9,6.9,0,0,1-4.35,1.24c-1.77-.09-7.62-.24-7.8,0s-11.44.7-11.44.7a6.29,6.29,0,0,0-3.37-1.42,42.54,42.54,0,0,1-4.88-.53c-.8-.09-8.87,1.07-9.31.44s-3.29-3.45-5.06-2.74a57.22,57.22,0,0,1-8.69,2.3c-1.95.27-16.5,1.15-19.16,1S201.33,168.4,202.92,168Zm-85.85-10c2-.89,19.6.53,20.31-.44s-1.24-1.24-.36-1.78,16.41-.79,18-1.24-.62-1.77,1-1.77,14-.62,13.84.44,1.15.8,5.14.71,5.86.89,8.43,2.22,9.93,2.75,9.4,1.42-10.91-4.08-9.76-4.79,14.91.8,16.15-.27,6.56-1,6.56-1-3.9,8.33-2.39,9.22,11.26,1.32,9.75,1.9S198,165.07,196.27,166a6.38,6.38,0,0,1-1.61.39c-4.2.62-14.4.78-15.6-.39-1.42-1.4-5.05-4.95-6.83-3.4s-2.83,3-3.45,2.54-4-2.67-5.15-2-1.15-.36-3.19-.58-5.23-.3-5.86.67-4.52,2.62-6.29,2.73-18.27,1.19-20,.87-7.27-1.65-8.33-3.33c.25-.06.52-.12.81-.17h0c4.11-.77,11.83-.73,16.38-.77,4.88,0,15.08-1.37,16.94-1.46s14.81,1.06,15.08,1.46c0,0-.89-1.37-4.26-2.08s-12.59-2-16-1.32a99.91,99.91,0,0,1-13.75,1.5c-2.84,0-11.18-.27-13.66-.27S115.12,158.82,117.07,157.93Z"/></g><path class="cls-3" d="M407.65,128.46s1.11,5.35,0,6.54-2.21,2.31-2.21,4-.37,3.31-1.47,1.75-3.51-3.69-3.41-7.1,1.28-5.25,0-6.72-3.68-7.56.56-8.3,5.44.74,5.44.74S411.8,122.2,407.65,128.46Z"/><path class="cls-8" d="M407.65,128.46s1.11,5.35,0,6.54-2.21,2.31-2.21,4-.37,3.31-1.47,1.75-3.51-3.69-3.41-7.1,1.28-5.25,0-6.72-3.68-7.56.56-8.3,5.44.74,5.44.74S411.8,122.2,407.65,128.46Z"/><path class="cls-3" d="M395.76,136.57A27.76,27.76,0,0,1,397,142c0,1.19-.56,3.68-1.2,4s-2.57-.92-2.57-3-.37-3.6,0-4.7S395.76,136.57,395.76,136.57Z"/><path class="cls-9" d="M395.76,136.57A27.76,27.76,0,0,1,397,142c0,1.19-.56,3.68-1.2,4s-2.57-.92-2.57-3-.37-3.6,0-4.7S395.76,136.57,395.76,136.57Z"/><path class="cls-3" d="M347.94,127.26c.57.48-.55,2.58-.27,5s.55,3.69-.09,4.79a18.12,18.12,0,0,1-2.12,2.49c-.28.37-1.85-1.66-1.85-3.69a21,21,0,0,1,.74-5.06C344.81,128.46,345.73,125.42,347.94,127.26Z"/><path class="cls-10" d="M347.94,127.26c.57.48-.55,2.58-.27,5s.55,3.69-.09,4.79a18.12,18.12,0,0,1-2.12,2.49c-.28.37-1.85-1.66-1.85-3.69a21,21,0,0,1,.74-5.06C344.81,128.46,345.73,125.42,347.94,127.26Z"/><path class="cls-3" d="M349,113s.64,3.23,0,4.06-2.86,1.93-4.06.92a7.79,7.79,0,0,1-2.39-2.95c-.19-.74.64-2.23,1.1-2.82s.1-1.14,1.75-1.14S348.75,111.6,349,113Z"/><path class="cls-11" d="M349,113s.64,3.23,0,4.06-2.86,1.93-4.06.92a7.79,7.79,0,0,1-2.39-2.95c-.19-.74.64-2.23,1.1-2.82s.1-1.14,1.75-1.14S348.75,111.6,349,113Z"/><path class="cls-3" d="M360.57,85.52c.11.55-.56,3.87-.56,6.45s.28,4.06-.92,4.7-2.48-.83-3.59-.55-1.94,2.4-2.67,0-2-7.46.46-10.13S359.92,82.39,360.57,85.52Z"/><path class="cls-12" d="M360.57,85.52c.11.55-.56,3.87-.56,6.45s.28,4.06-.92,4.7-2.48-.83-3.59-.55-1.94,2.4-2.67,0-2-7.46.46-10.13S359.92,82.39,360.57,85.52Z"/><path class="cls-3" d="M356.2,98.52c-.42,1-.06,1.56-.42,2.3a1.75,1.75,0,0,1-1.66.92c-.37-.09-1.75-1.1-.83-2A6.12,6.12,0,0,1,356.2,98.52Z"/><path class="cls-13" d="M356.2,98.52c-.42,1-.06,1.56-.42,2.3a1.75,1.75,0,0,1-1.66.92c-.37-.09-1.75-1.1-.83-2A6.12,6.12,0,0,1,356.2,98.52Z"/><path class="cls-3" d="M344.72,90.4c0,1.21,1.2,2.31.18,4.8s-.55,3.68-1.84,3.32-1.75-1.85-1.93-3.6.77-4.88,1.35-5.06S344.72,90.4,344.72,90.4Z"/><path class="cls-14" d="M344.72,90.4c0,1.21,1.2,2.31.18,4.8s-.55,3.68-1.84,3.32-1.75-1.85-1.93-3.6.77-4.88,1.35-5.06S344.72,90.4,344.72,90.4Z"/><path class="cls-3" d="M333.75,93.26s2.22-.09.56,2.22-2,3.68-2.31,3-1.1-2.4-.73-3.41S333.75,93.26,333.75,93.26Z"/><path class="cls-15" d="M333.75,93.26s2.22-.09.56,2.22-2,3.68-2.31,3-1.1-2.4-.73-3.41S333.75,93.26,333.75,93.26Z"/><path class="cls-3" d="M264.46,103a18.61,18.61,0,0,1-.09,4.61c-.37,1.56-1.2,3.68-1.56,2.39s.36-2.82-.37-3.3-1.57-1.4-.74-2.41S264.44,101.65,264.46,103Z"/><path class="cls-16" d="M264.46,103a18.61,18.61,0,0,1-.09,4.61c-.37,1.56-1.2,3.68-1.56,2.39s.36-2.82-.37-3.3-1.57-1.4-.74-2.41S264.44,101.65,264.46,103Z"/><path class="cls-3" d="M264.57,89.49a6.14,6.14,0,0,1,0,5.62c-1.21,2.12-.9,4.33-1.61,3.22s-.39-2.85-1.61-3.68a2.72,2.72,0,0,1-1.49-3.14C260,89.76,262.83,86.26,264.57,89.49Z"/><path class="cls-17" d="M264.57,89.49a6.14,6.14,0,0,1,0,5.62c-1.21,2.12-.9,4.33-1.61,3.22s-.39-2.85-1.61-3.68a2.72,2.72,0,0,1-1.49-3.14C260,89.76,262.83,86.26,264.57,89.49Z"/><path class="cls-3" d="M213.28,127.91c.15.72,1,3.32.41,4.7s-1.56,2.49-1.65,3.5-.19,3.22-.93,2.95-3.41-2-3-4.06a14.17,14.17,0,0,1,1.75-4.42C210.56,129.11,213,126.38,213.28,127.91Z"/><path class="cls-18" d="M213.28,127.91c.15.72,1,3.32.41,4.7s-1.56,2.49-1.65,3.5-.19,3.22-.93,2.95-3.41-2-3-4.06a14.17,14.17,0,0,1,1.75-4.42C210.56,129.11,213,126.38,213.28,127.91Z"/><path class="cls-3" d="M211,119.43s1,5.07,0,5.9-2.31.83-2.92-.37-2.55-3.41-2.45-4.88S209.15,114,211,119.43Z"/><path class="cls-19" d="M211,119.43s1,5.07,0,5.9-2.31.83-2.92-.37-2.55-3.41-2.45-4.88S209.15,114,211,119.43Z"/><path class="cls-3" d="M213.88,88.66a7.06,7.06,0,0,1,0,5.71c-1.38,2.86-.92,3.41-1.11,6.54s-2.3,5.16-3,4S206.62,98,208,95.75a10,10,0,0,0,1.6-5.89c-.09-1.39-.09-4.52.83-4.34A3.45,3.45,0,0,1,213.88,88.66Z"/><path class="cls-20" d="M213.88,88.66a7.06,7.06,0,0,1,0,5.71c-1.38,2.86-.92,3.41-1.11,6.54s-2.3,5.16-3,4S206.62,98,208,95.75a10,10,0,0,0,1.6-5.89c-.09-1.39-.09-4.52.83-4.34A3.45,3.45,0,0,1,213.88,88.66Z"/><path class="cls-3" d="M207.62,76.4a3.22,3.22,0,0,1-2,2.86c-2.11,1-2.76.28-2.94,2.67s-1.57,3.13-3.69,2.4-4.88-7.1-2.21-9.22,1.66-4.51,3.59-5.25S208.36,72.72,207.62,76.4Z"/><path class="cls-21" d="M207.62,76.4a3.22,3.22,0,0,1-2,2.86c-2.11,1-2.76.28-2.94,2.67s-1.57,3.13-3.69,2.4-4.88-7.1-2.21-9.22,1.66-4.51,3.59-5.25S208.36,72.72,207.62,76.4Z"/><path class="cls-3" d="M188.08,139.08c.46,2.37.74,3.57-.83,4.4s-4.15,2.4-3.23-.64,1.55-4.43,2.11-4.43A7.39,7.39,0,0,1,188.08,139.08Z"/><path class="cls-22" d="M188.08,139.08c.46,2.37.74,3.57-.83,4.4s-4.15,2.4-3.23-.64,1.55-4.43,2.11-4.43A7.39,7.39,0,0,1,188.08,139.08Z"/><path class="cls-3" d="M169.83,131.23c-.05.87.74,3.68-.09,5.62s-.27,7.64-3,7-5-2.21-4.42-5.9-1-5.25.55-7.92.75-3.87,2.08-3.5S170,128.19,169.83,131.23Z"/><path class="cls-23" d="M169.83,131.23c-.05.87.74,3.68-.09,5.62s-.27,7.64-3,7-5-2.21-4.42-5.9-1-5.25.55-7.92.75-3.87,2.08-3.5S170,128.19,169.83,131.23Z"/><path class="cls-3" d="M163.57,110.59c-1,1.33-1.48,4.42-2.4,5.53s-1.75,3.31-2.67,2.21-3-.92-1.75-3.32,2.49-3.13,2.76-4.88-.73-2.4-.27-3.69,1.1-3.13,1.93-2.12S164.86,108.93,163.57,110.59Z"/><path class="cls-24" d="M163.57,110.59c-1,1.33-1.48,4.42-2.4,5.53s-1.75,3.31-2.67,2.21-3-.92-1.75-3.32,2.49-3.13,2.76-4.88-.73-2.4-.27-3.69,1.1-3.13,1.93-2.12S164.86,108.93,163.57,110.59Z"/><path class="cls-3" d="M181.81,93.17s1.29,1.84.74,3.41-.09,3.23-2.67,2.67-2.67-.73-3-2.58-.37-3.68.64-4.14S181.16,91.83,181.81,93.17Z"/><path class="cls-25" d="M181.81,93.17s1.29,1.84.74,3.41-.09,3.23-2.67,2.67-2.67-.73-3-2.58-.37-3.68.64-4.14S181.16,91.83,181.81,93.17Z"/><path class="cls-3" d="M166.12,90.32a8.72,8.72,0,0,0-1.21,3.13c-.42,2-.13,2.86-1,4.24s-4.11,1.38-4.48-1,.09-5.89,1.66-6.35S167,88.46,166.12,90.32Z"/><path class="cls-26" d="M166.12,90.32a8.72,8.72,0,0,0-1.21,3.13c-.42,2-.13,2.86-1,4.24s-4.11,1.38-4.48-1,.09-5.89,1.66-6.35S167,88.46,166.12,90.32Z"/><path class="cls-3" d="M142.38,150.76c1.19.55,1.19-.92,1.56-2.12s-.55-2-1.1-2.58a10.26,10.26,0,0,0-2.12,2C139.7,149.38,141.18,150.21,142.38,150.76Z"/><path class="cls-27" d="M142.38,150.76c1.19.55,1.19-.92,1.56-2.12s-.55-2-1.1-2.58a10.26,10.26,0,0,0-2.12,2C139.7,149.38,141.18,150.21,142.38,150.76Z"/><path class="cls-3" d="M135.47,151.45c.27.33.82-1.24,1.84-2s-.46-2.12-.46-2.58c0,0-2.12-.18-2.95,1.11S135.19,151.13,135.47,151.45Z"/><path class="cls-28" d="M135.47,151.45c.27.33.82-1.24,1.84-2s-.46-2.12-.46-2.58c0,0-2.12-.18-2.95,1.11S135.19,151.13,135.47,151.45Z"/><path class="cls-3" d="M111.51,120.26A5.44,5.44,0,0,1,114,126.9c-1.48,4.6-4.61,4.7-4.7,3.13s1.38,3.12,0,5.15a5,5,0,0,0-.65,5.17c.65,1.29-.53,3.05-.45,3.55s1.74,2.1.73,4.57-5.62,3.48-5.25.72a7.54,7.54,0,0,0-.65-4.56c-.09-.23,3.32-2.12,3.41-3.11s-2.12-1.91-1.66-4.21,2.31-3.6,2.31-4.33a8.87,8.87,0,0,0-1.75-4.43c-1.11-1.19-4.43-5.34-2.31-10.41s3.6-4.14,5.3-3.87S112.25,117.31,111.51,120.26Z"/><path class="cls-29" d="M111.51,120.26A5.44,5.44,0,0,1,114,126.9c-1.48,4.6-4.61,4.7-4.7,3.13s1.38,3.12,0,5.15a5,5,0,0,0-.65,5.17c.65,1.29-.53,3.05-.45,3.55s1.74,2.1.73,4.57-5.62,3.48-5.25.72a7.54,7.54,0,0,0-.65-4.56c-.09-.23,3.32-2.12,3.41-3.11s-2.12-1.91-1.66-4.21,2.31-3.6,2.31-4.33a8.87,8.87,0,0,0-1.75-4.43c-1.11-1.19-4.43-5.34-2.31-10.41s3.6-4.14,5.3-3.87S112.25,117.31,111.51,120.26Z"/><path class="cls-30" d="M71.21,161.29a2.31,2.31,0,0,0,2.07.26c2.07-.61,1.69-1.15,3.61-1.22s3.52,1.61,5.75,2.07,2.84.23,5.37.23,4.83.84,5.75,0,2.76-5.22,2.76-5.22l-.68-.78c.07.31.12.5.12.5s-3.28-.09-4.08,1-6.3.35-8-.27-1.6-1.77-2.58-1a11.06,11.06,0,0,1-5.41,1.59c-2.21.18-2.92,2.84-4.43,2.84Z"/><path class="cls-3" d="M143.94,148.64c.37-1.2-.55-2-1.1-2.58a10.26,10.26,0,0,0-2.12,2c-1,1.29.46,2.12,1.66,2.67S143.57,149.84,143.94,148.64Z"/><path class="cls-27" d="M143.94,148.64c.37-1.2-.55-2-1.1-2.58a10.26,10.26,0,0,0-2.12,2c-1,1.29.46,2.12,1.66,2.67S143.57,149.84,143.94,148.64Z"/><path class="cls-3" d="M136.85,146.89s-2.12-.18-2.95,1.11,1.29,3.13,1.57,3.45.82-1.24,1.84-2S136.85,147.35,136.85,146.89Z"/><path class="cls-28" d="M136.85,146.89s-2.12-.18-2.95,1.11,1.29,3.13,1.57,3.45.82-1.24,1.84-2S136.85,147.35,136.85,146.89Z"/><path class="cls-30" d="M324.19,161.78c-.52.44-1.06.89-1.48,1.31Z"/><path class="cls-30" d="M106.14,156.3l.12.5s2.22,5,4.29,4.68,2.84-2.38,4.6-1.61,3.38,2.62,4.07,3.13a6.23,6.23,0,0,0,1.5.35h0c4.11-.77,11.83-.73,16.38-.77,4.88,0,15.08-1.37,16.94-1.46s14.81,1.06,15.08,1.46c0,0-.89-1.37-4.26-2.08s-12.59-2-16-1.32a99.91,99.91,0,0,1-13.75,1.5c-2.84,0-11.18-.27-13.66-.27s-6.38-1.59-4.43-2.48,19.6.53,20.31-.44-1.24-1.24-.36-1.78,16.41-.79,18-1.24-.62-1.77,1-1.77,14-.62,13.84.44,1.15.8,5.14.71,5.86.89,8.43,2.22,9.93,2.75,9.4,1.42-10.91-4.08-9.76-4.79,14.91.8,16.15-.27,6.56-1,6.56-1-3.9,8.33-2.39,9.22,11.26,1.32,9.75,1.9S198,165.07,196.27,166a6.38,6.38,0,0,1-1.61.39s6.11,1.26,8.26,1.58c1.6-.44,12.24-3.47,16.94-4.22s5.32-1.63,12-.83,23.68-.18,25.36.35,34.24.86,36.53.5l.1,0s-.19-1.57.76-1.93,1-1.87,1.24-2.79-.08-2.74,1.53-1.65.87,4.08,2.4,2a9.07,9.07,0,0,0,1.89-3.5,4.47,4.47,0,0,1,.87-1.53c.44-.65.51-2.25.88-.87s.22,2.91.58,4.15-.29,2.55.73,1.67,1.45-1.89,1.6-1.52.15,1.58.36,2.24.64,2.77.64,2.77,18.63-3.64,18.63-2.57c0,0,.49,1.75,3.25-.37a14.62,14.62,0,0,1,0-1.76s2.93-.18,2.66-2.48a4.84,4.84,0,0,0-1.89-3.34l-.06,0s4.53.1,8.77.29a67.37,67.37,0,0,1,6.75.51c2.66.54,27.5-.62,29.36.27s20.16.16,20.92,1.44c0-.52.1-2.09,2.25-1.81,2.57.35,2.2-2.65,2.2-2.65-3.11-1-9.05,1.16-11.45,1.33s-12.06-.17-12.23-.88-7.63-1.87-9.76-2.4a9.17,9.17,0,0,1-5.06-4.34c-.8-1.6-2.83-.71-4.08-.54s-2.21-1.77-4.87-2.92-3.62,1.88-5.39,3.48h0l-.28.24c-1.95,1.51,2.3,4.88,1.51,4.88s-3.11-.18-2.84.62-15.79.89-15.79.89-.13-.32-.34-.79a41.55,41.55,0,0,0-1.88-4c-.53-.8-1.33,1.86-2,2.66s-1.24-1-2.12-1.51-2.22,3.11-4.71,3.55-2.83-3.81-4.08-4.35a1.08,1.08,0,0,0-.73,0,4.46,4.46,0,0,0-1.85,1.48l-.35.29a1.93,1.93,0,0,0-1.68.13c-.88.53-6.29-3.37-6.83-2.22s-2.39,1.06-3.46,1c-.75-.06-.79-4.49-.31-8.36a22.49,22.49,0,0,1,.85-4.14c1.24-3.64-.09-7.89-1.07-9.93,0-.07-.07-.14-.1-.2-1.07-1.69-3.8.35-3.89,2.24s-.8,1.41-3,2.48-1.15,3-1.15,5.85,2.31,1.78,4.53,2.4.88,7.18.08,10.21-3.63.78-4.7,0-2.83-.63-4.61,0-2.13-1.08-3.64-2-1.86,2-1.86,2-.55-.77-1.09-1.59h0a15.82,15.82,0,0,1-.86-1.43c-.44-.89-.89.44-2.75,1.42s-2.48-.89-3.1-2.39-3.11-1.07-4.61,1.5-3.11-1.95-3.64-2.83,1.15-2,2.48-3.2.8-3-.18-5.59-.17-1.59.71-5.14a4.58,4.58,0,0,0-.85-4.27h0a12.39,12.39,0,0,0-2.95-2.37c-2.22-1.42-1.06,2.57-1,4.61s-.53,3.46-2.74,5.77-.36,6.12.62,6.91.26,2.49-1.42,1.95-4.17,5.15-5.19,6.12-1.11-2.92-1.82-3.63-5.14.83-7.38,2a6.13,6.13,0,0,0-1,.63c-1.42,1.24-1.77-1.86-2.92-2.93s-1.51.27-3.11.62-3.28-.53-4.61.45-.35,2-2.31,2.12-5.94.54-7.36,1.69-3.28-2.66-4.34-3.1-2.66,3.28-4.08,3.9-2.49-5.32-4.79-6.12-3,5.32-3,5.32-28.65,1.33-30.24,1.33-5.95-.62-7.45-1.86-2.58-1.42-4.26,0-7.36,3.37-10,3.81-9.58.53-12.6,1.51-10.55,1-13.21.35-8.43-2.75-9.85-3-1.86,2.17-3.28,3.05-7,1.33-8.87,1.07-1.77,2.21-1.77,2.21Z"/><path class="cls-3" d="M312.18,147.67c.63-.51,1.26-1,1.85-1.48A4.46,4.46,0,0,0,312.18,147.67Z"/><path class="cls-31" d="M312.18,147.67c.63-.51,1.26-1,1.85-1.48A4.46,4.46,0,0,0,312.18,147.67Z"/><path class="cls-30" d="M329.59,149.87v2.38l.4,0-.06,0s4.53.1,8.77.29c2.52-.45,8.85-1.41,10.49-1.93,2-.65,2.22-.86,3.94-1.44a1.54,1.54,0,0,0,.64-2.64c-.5-.5-2.57.5-5.29.86-1.68.22-1.56-1.69-1.15-3.36l-.28.24c-1.95,1.51,2.3,4.88,1.51,4.88s-3.11-.18-2.84.62-15.79.89-15.79.89S329.8,150.34,329.59,149.87Z"/><path class="cls-30" d="M413,156.83a1.2,1.2,0,0,1,1.14-.67c1,0,.27,1.33,3,1.59s9.4.36,9.4.36a14,14,0,0,1,2.31-.42l1.18.16h0c3.2.44,12,1.67,15.49,2.47a9.78,9.78,0,0,0-4.09-1.72c-1.51,0-11.71-3.33-14.1-3.15s-2.49-.71-4.7-1.6-9.85-.71-9.85-.71A18.2,18.2,0,0,1,413,156.83Z"/><path class="cls-32" d="M305.16,160c0-.59-.69,1.8-1.18.43s-.68-6.08-1-4.51-2.94,6.25-3.23,5.82-2.46-3.85-2.65-2.77-.38,5.14-1.27,4.72.29,2.79-.89,3.69-11.18,2.56-10.49,2.66,10.2,0,12-1.57,1.57-7.35,2.26-6.07.49,2.35,2.25.44.88-3.29,1.77-1.92S305.06,162.36,305.16,160Z"/><path class="cls-33" d="M299.38,126.7c-.71-1.15-2.21-2-2.61-1s-.65,2.3-2,3.1-4,4.41-2.33,4.91,1.65-4.36,2.33-4.23S299.38,126.7,299.38,126.7Z"/><path class="cls-34" d="M295.65,149.58c-.58.1-5.69.2-6-.4s-2.1.55-3.6.48-3.11-3.68-3.51-2.73-3.1,1.46-3.1.46.8-2.79-.8-1.2-6.81,12.71-4.41,9.45,3.61-7.86,4.21-6.56,1.1,1.8,2.7.5,2.46,0,3.48,1.32,2.93-.19,3.83,0S295.65,149.58,295.65,149.58Z"/><path class="cls-35" d="M269.13,146.19c-.4-.21-1.2,2.9-2.4,1.2s-2.3-2.21-3.1-4.32,2.8-4.3,2.75-6.21-1.35-6-1.35-5a26.52,26.52,0,0,1-3.21,9.61c-2.1,3.41,2.61,8.81,4.81,8.61S269.13,146.19,269.13,146.19Z"/><path class="cls-36" d="M249,145.56s-5.54,6.51-5.78,4.53-1.44-4.85-2.28-3.9-3.37,4-4.22,2.22,2.29-1.86-4.57,0-9,4.08-3.61,2.49,6.14-3.69,6.62-2.4,2.17,3,4.09,1.05,3.37,4.8,4.69,3.24S249,145.56,249,145.56Z"/><path class="cls-37" d="M330.4,156.24c0-.17-2-8.22-2.52-7.83s-.62,2.78-1.94,1.68-2.16-2.5-3.23-.91-5.74,2.13-6.1,1.72-.46,2.53,2.05,1.89,4.35-2.41,5.53-1.89,3.6,1.16,3.69.88S330.4,156.24,330.4,156.24Z"/><path class="cls-38" d="M408.72,150.77s-2.47-2.31-3.67-1.2-3.24-.94-3.16-.3.43,4.57-.94,5.25-2.9,1.33-3,2.2,1.88,6.23-.59,7-26.21,3.69-26.21,3.69,25.27-4.36,25.27-5.64-.86-6.23.17-6.66,3.41-1.13,4-2.87-.43-4.3.85-4.39S402.75,146,403,146s.94,2.44,2.39,2.28S408.72,150.77,408.72,150.77Z"/><path class="cls-39" d="M439.59,160.64s-7.44-2.16-8.53-1.27-6.93,2.36-10.81,2.42-9.6.86-9.6-.75-1.21-1.51-1.14,0,.63,3.93,8.77,2.47S439.14,160.33,439.59,160.64Z"/><path class="cls-40" d="M345.86,165.76c.48-.37-14.32-1.15-16-2.67s-4.05-2.5-5.24-1.31-4,5-8,5.64,1.33.87,3.19,0,5-3.85,6.76-3.69S343.08,167.9,345.86,165.76Z"/><path class="cls-41" d="M244.15,169.37s-2.28.94-3.31-.81-1.65-2.16-3.1-1.65-18.8,3.2-18.8,3.2,15.64-1.27,18.26-.74S241.77,172.46,244.15,169.37Z"/><path class="cls-42" d="M181.13,168.79c-1,0-4.65-3.54-6-3.95s-3.31,2.38-5,2.07-3.66-3.11-5.21-2.59-2.27-.13-5.48-.06A22.27,22.27,0,0,0,152,166c-1.34.51-3.51,3.33,2,2s6-2.54,9.94-1.43,6,2.18,8.14,2.27S181.13,168.79,181.13,168.79Z"/><path class="cls-43" d="M118.82,163.53s-2.83-4.16-4.83-2.66-4.42,2.17-5.34,1.17-5.58-8.59-5.66-7.17,2.41,10.91,6,9.83,7.11-2.83,7.55-2.17S118.82,163.53,118.82,163.53Z"/><path class="cls-44" d="M97.07,150.88c-.83.4.67,6.07.42,7.49s-4.09,7.19-2.17,5.88,5-4.05,4.33-6.05S97.07,150.88,97.07,150.88Z"/><path class="cls-45" d="M82.15,163s-3.41-2.05-4.91-1.8-5.3.7-6,.89.53,1.22,2.61,2.16,9.08.78,11.5,1.37S82.15,163,82.15,163Z"/><path class="cls-46" d="M109.78,117.61c0,.3-4.68,3-4.2,4.76s2.25,8,2.08,9.64a47.43,47.43,0,0,1-2.94-6.77c-1-3.06-1.24-6.66.67-8.39S109.68,116.46,109.78,117.61Z"/><path class="cls-47" d="M133.71,154.69s-9.44-1-10.87-2.17a2.58,2.58,0,0,0-4,.38c-1.13,1.43-6.37,1.79-6.37,1.79a9.67,9.67,0,0,0,4.57.88C119.12,155.28,133.71,154.69,133.71,154.69Z"/><path class="cls-48" d="M167.11,128.29c.65.54,1.93,2.74.95,3.15s-4.2,9.68-4.16,9.06-.68-2.22-.53-4.07a24.29,24.29,0,0,1,.53-4.68C164.35,130.05,165.28,126.79,167.11,128.29Z"/><path class="cls-49" d="M353.9,142.79a35.58,35.58,0,0,1-3.63,2.77c-1.21.68-1-1.39-1-1.39S352.51,142.05,353.9,142.79Z"/><path class="cls-50" d="M370.48,150.43s-5.87-1.23-7.45-2.76-2.24-3.29-3.35-3.1-6.39.73-3.48,1.62S368.52,152.2,370.48,150.43Z"/><path class="cls-51" d="M359.21,85.16s-5.51,5.59-3.87,7.08-.34,3.35-.75,2.6S348.88,86.37,359.21,85.16Z"/><path class="cls-52" d="M346.92,111.88s-1.21,2.79-.56,4.28-3.08.94-2.75-.55S345.18,111.51,346.92,111.88Z"/><path class="cls-53" d="M406.16,119.73s-6.06,5.62-4.61,6.89,1,4.35,1.2,7.07-1.65.63-1.42-1,.73-3.47-.35-5.81S398.52,116.51,406.16,119.73Z"/><path class="cls-54" d="M203.8,72.07c.16.23,1.55,2.09-.62,3s-3.87,2.09-3.33,4.65-.54,3.71-1.7,2.48S195,79.44,197.06,77s2.17-4,3.18-5S203.8,72.07,203.8,72.07Z"/><path class="cls-55" d="M211.06,86.63s-.75,4.86-1,6.77-1.76,2.61-1.58,4.16,1.66,6.47,1.66,6.47-.47-4.15.23-5.93S212.81,88.65,211.06,86.63Z"/><path class="cls-56" d="M263.7,89.58s-1.63,2.53-1.16,3.82-.43,1-1.19,0S262.36,88.44,263.7,89.58Z"/><path class="cls-57" d="M209.3,117.78c-.23.15-1.7,2.79-.81,4.11s1.67,2.48,1.67,2.48-3.41-1.09-3.41-3S209.3,117.78,209.3,117.78Z"/><path class="cls-30" d="M199,167.42l3.93.53c1.6-.44,12.24-3.47,16.94-4.22s5.32-1.63,12-.83,23.68-.18,25.36.35,32.8.84,36.33.52l.3,0,0-.85s-14.7.86-15.72-.45-2-4.53-2.56-3.42a6.62,6.62,0,0,1-7.35,2.77c-4.1-1.07-7.17-3.36-8-2.77s-20.15,4.6-23.48,3.58-8.62-2.31-10.42-2S199,167.42,199,167.42Z"/></g></g></g></svg>