<svg xmlns="http://www.w3.org/2000/svg" xmlns:xlink="http://www.w3.org/1999/xlink" viewBox="0 0 512.37 197.72"><defs><style>.cls-1{isolation:isolate;}.cls-2{fill:none;}.cls-3{fill:#d9f7ff;}.cls-31,.cls-4,.cls-6,.cls-8{mix-blend-mode:color-burn;}.cls-4{fill:url(#radial-gradient);}.cls-10,.cls-12,.cls-13,.cls-14,.cls-15,.cls-16,.cls-17,.cls-18,.cls-19,.cls-20,.cls-21,.cls-22,.cls-23,.cls-24,.cls-25,.cls-26,.cls-27,.cls-28,.cls-29,.cls-30,.cls-5,.cls-7{opacity:0.1;mix-blend-mode:multiply;}.cls-5{fill:url(#linear-gradient);}.cls-6{fill:url(#radial-gradient-2);}.cls-7{fill:url(#linear-gradient-2);}.cls-9{fill:url(#radial-gradient-3);}.cls-11{fill:url(#linear-gradient-3);}.cls-12{fill:url(#linear-gradient-4);}.cls-13{fill:url(#linear-gradient-5);}.cls-14{fill:url(#linear-gradient-6);}.cls-15{fill:url(#linear-gradient-7);}.cls-16{fill:url(#linear-gradient-8);}.cls-17{fill:url(#linear-gradient-9);}.cls-18{fill:url(#linear-gradient-10);}.cls-19{fill:url(#linear-gradient-11);}.cls-20{fill:url(#linear-gradient-12);}.cls-21{fill:url(#linear-gradient-13);}.cls-22{fill:url(#linear-gradient-14);}.cls-23{fill:url(#linear-gradient-15);}.cls-24{fill:url(#linear-gradient-16);}.cls-25{fill:url(#linear-gradient-17);}.cls-26{fill:url(#linear-gradient-18);}.cls-27{fill:url(#linear-gradient-19);}.cls-28{fill:url(#linear-gradient-20);}.cls-29{fill:url(#linear-gradient-21);}.cls-30{fill:url(#linear-gradient-22);}.cls-31{fill:#476b82;opacity:0.2;}.cls-32,.cls-33,.cls-34,.cls-35,.cls-36,.cls-37,.cls-38,.cls-39,.cls-40,.cls-41,.cls-42,.cls-43,.cls-44,.cls-45,.cls-46,.cls-47,.cls-48,.cls-49,.cls-50,.cls-51,.cls-52,.cls-53,.cls-54{opacity:0.8;mix-blend-mode:color-dodge;}.cls-32{fill:url(#linear-gradient-23);}.cls-33{fill:url(#linear-gradient-24);}.cls-34{fill:url(#linear-gradient-25);}.cls-35{fill:url(#linear-gradient-26);}.cls-36{fill:url(#linear-gradient-27);}.cls-37{fill:url(#linear-gradient-28);}.cls-38{fill:url(#linear-gradient-29);}.cls-39{fill:url(#linear-gradient-30);}.cls-40{fill:url(#linear-gradient-31);}.cls-41{fill:url(#linear-gradient-32);}.cls-42{fill:url(#linear-gradient-33);}.cls-43{fill:url(#linear-gradient-34);}.cls-44{fill:url(#linear-gradient-35);}.cls-45{fill:url(#linear-gradient-36);}.cls-46{fill:url(#linear-gradient-37);}.cls-47{fill:url(#linear-gradient-38);}.cls-48{fill:url(#linear-gradient-39);}.cls-49{fill:url(#linear-gradient-40);}.cls-50{fill:url(#linear-gradient-41);}.cls-51{fill:url(#linear-gradient-42);}.cls-52{fill:url(#linear-gradient-43);}.cls-53{fill:url(#linear-gradient-44);}.cls-54{fill:url(#linear-gradient-45);}</style><radialGradient id="radial-gradient" cx="1569.44" cy="149.48" r="9.68" gradientTransform="matrix(-1, 0, 0, 1, 1748.94, 0)" gradientUnits="userSpaceOnUse"><stop offset="0" stop-color="#1b1464"/><stop offset="0.07" stop-color="#453f81"/><stop offset="0.15" stop-color="#706c9e"/><stop offset="0.23" stop-color="#9793b8"/><stop offset="0.32" stop-color="#b7b5ce"/><stop offset="0.42" stop-color="#d1d0e0"/><stop offset="0.53" stop-color="#e6e5ee"/><stop offset="0.64" stop-color="#f4f4f8"/><stop offset="0.78" stop-color="#fcfcfd"/><stop offset="1" stop-color="#fff"/></radialGradient><linearGradient id="linear-gradient" x1="1569.72" y1="151.49" x2="1569.72" y2="149.87" gradientTransform="matrix(-1, 0, 0, 1, 1748.94, 0)" xlink:href="#radial-gradient"/><radialGradient id="radial-gradient-2" cx="1506.26" cy="148.58" r="33.73" xlink:href="#radial-gradient"/><linearGradient id="linear-gradient-2" x1="1507.27" y1="152.38" x2="1507.27" y2="149.31" gradientTransform="matrix(-1, 0, 0, 1, 1748.94, 0)" xlink:href="#radial-gradient"/><radialGradient id="radial-gradient-3" cx="1487" cy="139.01" r="218.48" xlink:href="#radial-gradient"/><linearGradient id="linear-gradient-3" x1="1493.49" y1="175.77" x2="1493.49" y2="146.08" gradientTransform="matrix(-1, 0, 0, 1, 1748.94, 0)" xlink:href="#radial-gradient"/><linearGradient id="linear-gradient-4" x1="1644.27" y1="146.76" x2="1644.27" y2="139.98" gradientTransform="matrix(-1, 0, 0, 1, 1748.94, 0)" xlink:href="#radial-gradient"/><linearGradient id="linear-gradient-5" x1="1644.49" y1="126.25" x2="1644.49" y2="113.5" gradientTransform="matrix(-1, 0, 0, 1, 1748.94, 0)" xlink:href="#radial-gradient"/><linearGradient id="linear-gradient-6" x1="1589.97" y1="146.3" x2="1589.97" y2="136.34" gradientTransform="matrix(-1, 0, 0, 1, 1748.94, 0)" xlink:href="#radial-gradient"/><linearGradient id="linear-gradient-7" x1="1588.36" y1="123.79" x2="1588.36" y2="111.76" gradientTransform="matrix(-1, 0, 0, 1, 1748.94, 0)" xlink:href="#radial-gradient"/><linearGradient id="linear-gradient-8" x1="1570.6" y1="105.78" x2="1570.6" y2="99.74" gradientTransform="matrix(-1, 0, 0, 1, 1748.94, 0)" xlink:href="#radial-gradient"/><linearGradient id="linear-gradient-9" x1="1536.79" y1="143.99" x2="1536.79" y2="138.72" gradientTransform="matrix(-1, 0, 0, 1, 1748.94, 0)" xlink:href="#radial-gradient"/><linearGradient id="linear-gradient-10" x1="1539.37" y1="130.82" x2="1539.37" y2="127.41" gradientTransform="matrix(-1, 0, 0, 1, 1748.94, 0)" xlink:href="#radial-gradient"/><linearGradient id="linear-gradient-11" x1="1492.26" y1="146.58" x2="1492.26" y2="142.76" gradientTransform="matrix(-1, 0, 0, 1, 1748.94, 0)" xlink:href="#radial-gradient"/><linearGradient id="linear-gradient-12" x1="1484.23" y1="145.65" x2="1484.23" y2="121.29" gradientTransform="matrix(-1, 0, 0, 1, 1748.94, 0)" xlink:href="#radial-gradient"/><linearGradient id="linear-gradient-13" x1="1449.12" y1="149.31" x2="1449.12" y2="129.66" gradientTransform="matrix(-1, 0, 0, 1, 1748.94, 0)" xlink:href="#radial-gradient"/><linearGradient id="linear-gradient-14" x1="1400.75" y1="143.94" x2="1400.75" y2="132.68" gradientTransform="matrix(-1, 0, 0, 1, 1748.94, 0)" xlink:href="#radial-gradient"/><linearGradient id="linear-gradient-15" x1="1399.5" y1="121.6" x2="1399.5" y2="115.6" gradientTransform="matrix(-1, 0, 0, 1, 1748.94, 0)" xlink:href="#radial-gradient"/><linearGradient id="linear-gradient-16" x1="1344.15" y1="134.05" x2="1344.15" y2="130.01" gradientTransform="matrix(-1, 0, 0, 1, 1748.94, 0)" xlink:href="#radial-gradient"/><linearGradient id="linear-gradient-17" x1="1344.4" y1="124.49" x2="1344.4" y2="115.53" gradientTransform="matrix(-1, 0, 0, 1, 1748.94, 0)" xlink:href="#radial-gradient"/><linearGradient id="linear-gradient-18" x1="1392.75" y1="108.56" x2="1392.75" y2="95.93" gradientTransform="matrix(-1, 0, 0, 1, 1748.94, 0)" xlink:href="#radial-gradient"/><linearGradient id="linear-gradient-19" x1="1485.87" y1="113.15" x2="1485.87" y2="109.06" gradientTransform="matrix(-1, 0, 0, 1, 1748.94, 0)" xlink:href="#radial-gradient"/><linearGradient id="linear-gradient-20" x1="1486.9" y1="88.84" x2="1486.9" y2="85.87" gradientTransform="matrix(-1, 0, 0, 1, 1748.94, 0)" xlink:href="#radial-gradient"/><linearGradient id="linear-gradient-21" x1="1538.97" y1="109.28" x2="1538.97" y2="98.36" gradientTransform="matrix(-1, 0, 0, 1, 1748.94, 0)" xlink:href="#radial-gradient"/><linearGradient id="linear-gradient-22" x1="1543.64" y1="85.44" x2="1543.64" y2="78.05" gradientTransform="matrix(-1, 0, 0, 1, 1748.94, 0)" xlink:href="#radial-gradient"/><linearGradient id="linear-gradient-23" x1="1500.19" y1="168.47" x2="1520.57" y2="150.19" gradientTransform="matrix(-1, 0, 0, 1, 1748.94, 0)" gradientUnits="userSpaceOnUse"><stop offset="0"/><stop offset="1" stop-color="#fff"/></linearGradient><linearGradient id="linear-gradient-24" x1="1542.89" y1="159.9" x2="1552.04" y2="151.7" xlink:href="#linear-gradient-23"/><linearGradient id="linear-gradient-25" x1="1445.13" y1="170.93" x2="1451.37" y2="165.33" xlink:href="#linear-gradient-23"/><linearGradient id="linear-gradient-26" x1="1413.53" y1="160.88" x2="1428.43" y2="147.52" xlink:href="#linear-gradient-23"/><linearGradient id="linear-gradient-27" x1="1408.98" y1="176.26" x2="1422.33" y2="164.29" xlink:href="#linear-gradient-23"/><linearGradient id="linear-gradient-28" x1="1346.89" y1="165.33" x2="1357.34" y2="155.96" xlink:href="#linear-gradient-23"/><linearGradient id="linear-gradient-29" x1="1313.12" y1="171.19" x2="1328.53" y2="157.38" xlink:href="#linear-gradient-23"/><linearGradient id="linear-gradient-30" x1="1340.01" y1="168.85" x2="1344.8" y2="164.56" xlink:href="#linear-gradient-23"/><linearGradient id="linear-gradient-31" x1="1433.84" y1="163.98" x2="1443.47" y2="155.35" xlink:href="#linear-gradient-23"/><linearGradient id="linear-gradient-32" x1="1462.95" y1="165.84" x2="1474.06" y2="155.88" xlink:href="#linear-gradient-23"/><linearGradient id="linear-gradient-33" x1="1512.84" y1="186.77" x2="1541.64" y2="160.95" xlink:href="#linear-gradient-23"/><linearGradient id="linear-gradient-34" x1="1591.64" y1="172.76" x2="1599.08" y2="166.1" xlink:href="#linear-gradient-23"/><linearGradient id="linear-gradient-35" x1="1644.35" y1="169.4" x2="1654.24" y2="160.54" xlink:href="#linear-gradient-23"/><linearGradient id="linear-gradient-36" x1="1689.1" y1="170.5" x2="1704.08" y2="157.07" xlink:href="#linear-gradient-23"/><linearGradient id="linear-gradient-37" x1="1478.8" y1="137.35" x2="1488.31" y2="128.83" xlink:href="#linear-gradient-23"/><linearGradient id="linear-gradient-38" x1="1445.74" y1="140.93" x2="1452.02" y2="135.3" xlink:href="#linear-gradient-23"/><linearGradient id="linear-gradient-39" x1="1536.52" y1="105.18" x2="1540.47" y2="101.64" xlink:href="#linear-gradient-23"/><linearGradient id="linear-gradient-40" x1="1400.14" y1="140.59" x2="1403.92" y2="137.2" xlink:href="#linear-gradient-23"/><linearGradient id="linear-gradient-41" x1="1343.95" y1="121.04" x2="1346.79" y2="118.49" xlink:href="#linear-gradient-23"/><linearGradient id="linear-gradient-42" x1="1391.4" y1="104.56" x2="1395.26" y2="101.1" xlink:href="#linear-gradient-23"/><linearGradient id="linear-gradient-43" x1="1642.31" y1="122.61" x2="1647.72" y2="117.76" xlink:href="#linear-gradient-23"/><linearGradient id="linear-gradient-44" x1="1588.04" y1="142.84" x2="1591.13" y2="140.07" xlink:href="#linear-gradient-23"/><linearGradient id="linear-gradient-45" x1="1587.2" y1="118.96" x2="1590.07" y2="116.39" xlink:href="#linear-gradient-23"/></defs><g class="cls-1"><g id="Layer_2" data-name="Layer 2"><g id="bg"><rect class="cls-2" width="512.37" height="197.72" transform="translate(512.37 197.72) rotate(180)"/></g><g id="_11" data-name="11"><path class="cls-3" d="M170.37,151.19c1.38-.15,6.75,0,10.89.23a20.11,20.11,0,0,0,7.51-.61c1.61-.46-2.07-1.07-6.36-.92s-9.82.08-13.11.23C169.3,150.12,169,151.35,170.37,151.19Z"/><path class="cls-4" d="M170.37,151.19c1.38-.15,6.75,0,10.89.23a20.11,20.11,0,0,0,7.51-.61c1.61-.46-2.07-1.07-6.36-.92s-9.82.08-13.11.23C169.3,150.12,169,151.35,170.37,151.19Z"/><path class="cls-5" d="M170.37,151.19c1.38-.15,6.75,0,10.89.23a20.11,20.11,0,0,0,7.51-.61c1.61-.46-2.07-1.07-6.36-.92s-9.82.08-13.11.23C169.3,150.12,169,151.35,170.37,151.19Z"/><path class="cls-3" d="M206.54,151s14.89.6,26.91.94c4.68.13,8.92.23,11.68.23a23.77,23.77,0,0,0,3.19-.11c2.19-.53,15.57.15,18.09.11s10.38.82,10.38-.77c0-.33-1.86-.53-2.19-.47s-1.13-.46-1.6-.8-26.68-1.19-26.68-.66-2.06.76-2.32.88h-1.29l-7.38-.14c-10.9-.24-28.19-.63-28.19-.35S206.54,151,206.54,151Z"/><path class="cls-6" d="M206.54,151s14.89.6,26.91.94c4.68.13,8.92.23,11.68.23a23.77,23.77,0,0,0,3.19-.11c2.19-.53,15.57.15,18.09.11s10.38.82,10.38-.77c0-.33-1.86-.53-2.19-.47s-1.13-.46-1.6-.8-26.68-1.19-26.68-.66-2.06.76-2.32.88h-1.29l-7.38-.14c-10.9-.24-28.19-.63-28.19-.35S206.54,151,206.54,151Z"/><path class="cls-7" d="M206.54,151s14.89.6,26.91.94c4.68.13,8.92.23,11.68.23a23.77,23.77,0,0,0,3.19-.11c2.19-.53,15.57.15,18.09.11s10.38.82,10.38-.77c0-.33-1.86-.53-2.19-.47s-1.13-.46-1.6-.8-26.68-1.19-26.68-.66-2.06.76-2.32.88h-1.29l-7.38-.14c-10.9-.24-28.19-.63-28.19-.35S206.54,151,206.54,151Z"/><path class="cls-3" d="M29.5,161.46s.94.2,2.35.55h0c1.93.45,4.79,1.14,7.54,1.9,4.8,1.33,10.12,2.86,14.51,2.76s4.5-.92,9.2-.2,10.33,2.55,14,2.66,21.27.1,25.36,1.12,5.31,1,11.14,1.84,19.63.1,23.41,0,13.19-.41,15.75-.2,3.68,1.63,7.26,1.33,7.77-.93,11.65,0,22.8,2.35,29.45,1.94,32.81.14,38.54.07,18.3.54,23.72.54,13.39-.78,19-.54,15-.89,15.65-.89,16.66-1.23,26.27-1,14.21-1.23,19.73-.92,9.61.92,13.7.3,6.75-1.73,8.8-1.73,34.55,2,40.07,1.12,16.67-4.09,19.22-4.4,13.3-2.45,17.18-2.45,13.5-1.23,13.5-1.23,25.15-1.68,24.84-3.09c0-.07,0-.15-.05-.24-.32-1.46-1-4.06-9.25-4.54-8.69-.51-11.15-.41-14-1.12s-11.86.71-9.3,2c.48.26,11.86-.61,13.59,0s15.65,1.74,14.32,2.56c-.89.56-5.57,1.62-8.51,1.94l-.32,0c-.28,0-.55,0-.78,0h0c-.79,0-1.29,0-1.29-.28a1.5,1.5,0,0,0-2.25-1.44c-1.43.62-6.85.82-8.08.31s-1.33.58-3.27,1.42-13.39.32-17.69,1.34-13.49,2.25-17.07,1-8.49-3.27-8.28-6.34c3.58-.3,25.76.28,26.07-.93s-1.13-2-4.91-1.93S409.1,154,409.1,154s.31-6.74-2.14-7-3.48,2.56-3,5c-4,.21-5.42,1.33-7.77,1.13s-8.08-.92-8,.1,15.75,1,15.75,1.53.71,1.84-.41,1.74a1.94,1.94,0,0,0-2.35,1.53c-.41,1.33-.82,8.08-3.79,8.08s-18.71.61-19.12,1.43-13.8.92-17,.62-7.77-.2-8,.15-3.07.56-6,.26l-.91-.11c-.3,0-.59-.09-.88-.15-3.38-.67-17.79-3-17.79-3S341.94,164,343,162.48s-.92-1.94-2-3.48,4.91-4.6,10.54-5.52c0,0-8.59-2.25-12.78-.2-2.05-4.3-2.36-3.38-2.36-5.42s-1.22-1.86-1.63-.83-3.58,8.4-5,6.66-4.19-5.83-4.5-4.6-3.17,7.77-4.91,6-4.6-5.42-4.9-4.91-2.25,1.54-2.77.51-1.32-2.45-2.86-.3-3.47,5.11-4.5,5.11a1.63,1.63,0,0,1-.36-.05,19.32,19.32,0,0,1-2-.77c-.28-.09-.47-.09-.47.1,0,.62-4-2-4.4-1.22s-1,2.24-2.24,1.73-3.38-2.35-5.32-.61-2.35,4.6-3.58,3.68-4.7-3-5.11-2.45-.21,1.12-1.94-.41-2.15-2.35-2.46-1.84-1.53,2.66-3.37,2.66-3.78-.21-4.81-1.13-1.63-1.43-3.37-.2-4.6,1.22-6.24,1.33-6.34.3-7.46-.62a63,63,0,0,0-6.94-3.55l-.73-.33s-.73-.66-1.69-1.49c-1.8-1.54-4.42-3.64-4.75-3.11a28.31,28.31,0,0,1-2.63,3c-.63.62-1.29,1.24-1.88,1.73-.8.64-1.48,1.05-1.83.92-1.12-.41-4.29-.31-4.5.2s-2.65-.4-3.78.41-1.84,3.89-3.68,3.17-1.43-2.86-2.86-2.45a4.43,4.43,0,0,1-3.38-.72c-.81-.41-.81.21-1.22,1.13s-5.52.71-6.24-.31-1.53-5-3.07-4.29-1.53,2.35-3-.11-1.23-4.49-2.05-3.62.72,8.94,0,10.47-4,4.5-3.47,5.12,18.5,2.76,23.92,2.86,30.24,1.12,36.08,1.12,24.24,0,28.74.82,12.78.72,12.78.72-3.27,5.62-4.81,5.83-20.24,1.22-27.6,0-21.67-1.64-27.91-3-17.18.31-21,.51-28.63,4.5-39.46-.31a105.76,105.76,0,0,0,19.22-6.23c-.82.3-9.51.41-13.5,1.84s-8.79,1.94-12.68,2.35-7.87,1-7.87,1-5.31-6.75-5.42-6.23-.51,3.68-2.14,2.86-4.71-5-5.22-3.17,1.84,3.58,1.33,4.7-8.28,3.17-14.11,2.66-17.58-1.12-16.05-1.43,15.34-2.56,19.32-2.76-1.84-1-4.6-.82-23,.51-25.66,1.84c-2-4.09-3.27-9.3-4.09-8.08a1.56,1.56,0,0,1-2.14.41l-.72-2.55s34.86,1.84,36.6,2.45,1.43-1.33.1-1.33-13-.31-12.27-1.84,10.43-2.86,17.59-2.66,28.42,1.64,29.75,2.25,2.25-1.43,2.25-1.43-21.16-1.94-17.79-2,7.46-2.25,5.93-1.84-18.2.51-22.18.92-13.5,1.53-16.57,2.76-23.41,1.73-23.92.51-.92-5.22-2.35-4.4-.72,4.19-1.23,4.3-7.67.51-9-.62a4.13,4.13,0,0,0-5.21-.41c-1.84,1.33-4.81,1.84-7.67,1.54a15.29,15.29,0,0,0-5.72.1c-2.87.41-6.44-.31-10.53.41s-5,1.43-6.34,1.53-7.57,1.53-10.23,1.64-4.6-.17-7.87,1.24A16.86,16.86,0,0,1,29.5,161.46Zm19.68-.23a2.59,2.59,0,0,0-1-.06c-.92.22-3-.54-.84-1.08s5.21.38,8.81-.61,1.23-1.15,6-1.15,1.28.07,10.42-.23,20.32-.92,21.17-1.08,2.76-.61,2.76-.61.06.34.14.85c.23,1.55.61,4.67-.14,4.67-1,0-1.92-.46-2.15.69s-1.38,2.53-1.61,3.14.08-.61-1.38-1.07-10.89-.69-11,.31-3,1.94-3.53.93a3.3,3.3,0,0,0-3.22-1.39c-1.38.07-.54-.77-3.14-.77s-4.6.77-5.37-.23-4.22-3.16-5.6-2.62-1.07,1.7-4.52,1.39a41.87,41.87,0,0,1-5.69-1.08Z"/><g class="cls-8"><path class="cls-9" d="M29.5,161.46s.94.2,2.35.55h0c1.93.45,4.79,1.14,7.54,1.9,4.8,1.33,10.12,2.86,14.51,2.76s4.5-.92,9.2-.2,10.33,2.55,14,2.66,21.27.1,25.36,1.12,5.31,1,11.14,1.84,19.63.1,23.41,0,13.19-.41,15.75-.2,3.68,1.63,7.26,1.33,7.77-.93,11.65,0,22.8,2.35,29.45,1.94,32.81.14,38.54.07,18.3.54,23.72.54,13.39-.78,19-.54,15-.89,15.65-.89,16.66-1.23,26.27-1,14.21-1.23,19.73-.92,9.61.92,13.7.3,6.75-1.73,8.8-1.73,34.55,2,40.07,1.12,16.67-4.09,19.22-4.4,13.3-2.45,17.18-2.45,13.5-1.23,13.5-1.23,25.15-1.68,24.84-3.09c0-.07,0-.15-.05-.24-.32-1.46-1-4.06-9.25-4.54-8.69-.51-11.15-.41-14-1.12s-11.86.71-9.3,2c.48.26,11.86-.61,13.59,0s15.65,1.74,14.32,2.56c-.89.56-5.57,1.62-8.51,1.94l-.32,0c-.28,0-.55,0-.78,0h0c-.79,0-1.29,0-1.29-.28a1.5,1.5,0,0,0-2.25-1.44c-1.43.62-6.85.82-8.08.31s-1.33.58-3.27,1.42-13.39.32-17.69,1.34-13.49,2.25-17.07,1-8.49-3.27-8.28-6.34c3.58-.3,25.76.28,26.07-.93s-1.13-2-4.91-1.93S409.1,154,409.1,154s.31-6.74-2.14-7-3.48,2.56-3,5c-4,.21-5.42,1.33-7.77,1.13s-8.08-.92-8,.1,15.75,1,15.75,1.53.71,1.84-.41,1.74a1.94,1.94,0,0,0-2.35,1.53c-.41,1.33-.82,8.08-3.79,8.08s-18.71.61-19.12,1.43-13.8.92-17,.62-7.77-.2-8,.15-3.07.56-6,.26l-.91-.11c-.3,0-.59-.09-.88-.15-3.38-.67-17.79-3-17.79-3S341.94,164,343,162.48s-.92-1.94-2-3.48,4.91-4.6,10.54-5.52c0,0-8.59-2.25-12.78-.2-2.05-4.3-2.36-3.38-2.36-5.42s-1.22-1.86-1.63-.83-3.58,8.4-5,6.66-4.19-5.83-4.5-4.6-3.17,7.77-4.91,6-4.6-5.42-4.9-4.91-2.25,1.54-2.77.51-1.32-2.45-2.86-.3-3.47,5.11-4.5,5.11a1.63,1.63,0,0,1-.36-.05,19.32,19.32,0,0,1-2-.77c-.28-.09-.47-.09-.47.1,0,.62-4-2-4.4-1.22s-1,2.24-2.24,1.73-3.38-2.35-5.32-.61-2.35,4.6-3.58,3.68-4.7-3-5.11-2.45-.21,1.12-1.94-.41-2.15-2.35-2.46-1.84-1.53,2.66-3.37,2.66-3.78-.21-4.81-1.13-1.63-1.43-3.37-.2-4.6,1.22-6.24,1.33-6.34.3-7.46-.62a63,63,0,0,0-6.94-3.55l-.73-.33s-.73-.66-1.69-1.49c-1.8-1.54-4.42-3.64-4.75-3.11a28.31,28.31,0,0,1-2.63,3c-.63.62-1.29,1.24-1.88,1.73-.8.64-1.48,1.05-1.83.92-1.12-.41-4.29-.31-4.5.2s-2.65-.4-3.78.41-1.84,3.89-3.68,3.17-1.43-2.86-2.86-2.45a4.43,4.43,0,0,1-3.38-.72c-.81-.41-.81.21-1.22,1.13s-5.52.71-6.24-.31-1.53-5-3.07-4.29-1.53,2.35-3-.11-1.23-4.49-2.05-3.62.72,8.94,0,10.47-4,4.5-3.47,5.12,18.5,2.76,23.92,2.86,30.24,1.12,36.08,1.12,24.24,0,28.74.82,12.78.72,12.78.72-3.27,5.62-4.81,5.83-20.24,1.22-27.6,0-21.67-1.64-27.91-3-17.18.31-21,.51-28.63,4.5-39.46-.31a105.76,105.76,0,0,0,19.22-6.23c-.82.3-9.51.41-13.5,1.84s-8.79,1.94-12.68,2.35-7.87,1-7.87,1-5.31-6.75-5.42-6.23-.51,3.68-2.14,2.86-4.71-5-5.22-3.17,1.84,3.58,1.33,4.7-8.28,3.17-14.11,2.66-17.58-1.12-16.05-1.43,15.34-2.56,19.32-2.76-1.84-1-4.6-.82-23,.51-25.66,1.84c-2-4.09-3.27-9.3-4.09-8.08a1.56,1.56,0,0,1-2.14.41l-.72-2.55s34.86,1.84,36.6,2.45,1.43-1.33.1-1.33-13-.31-12.27-1.84,10.43-2.86,17.59-2.66,28.42,1.64,29.75,2.25,2.25-1.43,2.25-1.43-21.16-1.94-17.79-2,7.46-2.25,5.93-1.84-18.2.51-22.18.92-13.5,1.53-16.57,2.76-23.41,1.73-23.92.51-.92-5.22-2.35-4.4-.72,4.19-1.23,4.3-7.67.51-9-.62a4.13,4.13,0,0,0-5.21-.41c-1.84,1.33-4.81,1.84-7.67,1.54a15.29,15.29,0,0,0-5.72.1c-2.87.41-6.44-.31-10.53.41s-5,1.43-6.34,1.53-7.57,1.53-10.23,1.64-4.6-.17-7.87,1.24A16.86,16.86,0,0,1,29.5,161.46Zm19.68-.23a2.59,2.59,0,0,0-1-.06c-.92.22-3-.54-.84-1.08s5.21.38,8.81-.61,1.23-1.15,6-1.15,1.28.07,10.42-.23,20.32-.92,21.17-1.08,2.76-.61,2.76-.61.06.34.14.85c.23,1.55.61,4.67-.14,4.67-1,0-1.92-.46-2.15.69s-1.38,2.53-1.61,3.14.08-.61-1.38-1.07-10.89-.69-11,.31-3,1.94-3.53.93a3.3,3.3,0,0,0-3.22-1.39c-1.38.07-.54-.77-3.14-.77s-4.6.77-5.37-.23-4.22-3.16-5.6-2.62-1.07,1.7-4.52,1.39a41.87,41.87,0,0,1-5.69-1.08Z"/></g><g class="cls-10"><path class="cls-11" d="M29.5,161.46s.94.2,2.35.55h0c1.93.45,4.79,1.14,7.54,1.9,4.8,1.33,10.12,2.86,14.51,2.76s4.5-.92,9.2-.2,10.33,2.55,14,2.66,21.27.1,25.36,1.12,5.31,1,11.14,1.84,19.63.1,23.41,0,13.19-.41,15.75-.2,3.68,1.63,7.26,1.33,7.77-.93,11.65,0,22.8,2.35,29.45,1.94,32.81.14,38.54.07,18.3.54,23.72.54,13.39-.78,19-.54,15-.89,15.65-.89,16.66-1.23,26.27-1,14.21-1.23,19.73-.92,9.61.92,13.7.3,6.75-1.73,8.8-1.73,34.55,2,40.07,1.12,16.67-4.09,19.22-4.4,13.3-2.45,17.18-2.45,13.5-1.23,13.5-1.23,25.15-1.68,24.84-3.09c0-.07,0-.15-.05-.24-.32-1.46-1-4.06-9.25-4.54-8.69-.51-11.15-.41-14-1.12s-11.86.71-9.3,2c.48.26,11.86-.61,13.59,0s15.65,1.74,14.32,2.56c-.89.56-5.57,1.62-8.51,1.94l-.32,0c-.28,0-.55,0-.78,0h0c-.79,0-1.29,0-1.29-.28a1.5,1.5,0,0,0-2.25-1.44c-1.43.62-6.85.82-8.08.31s-1.33.58-3.27,1.42-13.39.32-17.69,1.34-13.49,2.25-17.07,1-8.49-3.27-8.28-6.34c3.58-.3,25.76.28,26.07-.93s-1.13-2-4.91-1.93S409.1,154,409.1,154s.31-6.74-2.14-7-3.48,2.56-3,5c-4,.21-5.42,1.33-7.77,1.13s-8.08-.92-8,.1,15.75,1,15.75,1.53.71,1.84-.41,1.74a1.94,1.94,0,0,0-2.35,1.53c-.41,1.33-.82,8.08-3.79,8.08s-18.71.61-19.12,1.43-13.8.92-17,.62-7.77-.2-8,.15-3.07.56-6,.26l-.91-.11c-.3,0-.59-.09-.88-.15-3.38-.67-17.79-3-17.79-3S341.94,164,343,162.48s-.92-1.94-2-3.48,4.91-4.6,10.54-5.52c0,0-8.59-2.25-12.78-.2-2.05-4.3-2.36-3.38-2.36-5.42s-1.22-1.86-1.63-.83-3.58,8.4-5,6.66-4.19-5.83-4.5-4.6-3.17,7.77-4.91,6-4.6-5.42-4.9-4.91-2.25,1.54-2.77.51-1.32-2.45-2.86-.3-3.47,5.11-4.5,5.11a1.63,1.63,0,0,1-.36-.05,19.32,19.32,0,0,1-2-.77c-.28-.09-.47-.09-.47.1,0,.62-4-2-4.4-1.22s-1,2.24-2.24,1.73-3.38-2.35-5.32-.61-2.35,4.6-3.58,3.68-4.7-3-5.11-2.45-.21,1.12-1.94-.41-2.15-2.35-2.46-1.84-1.53,2.66-3.37,2.66-3.78-.21-4.81-1.13-1.63-1.43-3.37-.2-4.6,1.22-6.24,1.33-6.34.3-7.46-.62a63,63,0,0,0-6.94-3.55l-.73-.33s-.73-.66-1.69-1.49c-1.8-1.54-4.42-3.64-4.75-3.11a28.31,28.31,0,0,1-2.63,3c-.63.62-1.29,1.24-1.88,1.73-.8.64-1.48,1.05-1.83.92-1.12-.41-4.29-.31-4.5.2s-2.65-.4-3.78.41-1.84,3.89-3.68,3.17-1.43-2.86-2.86-2.45a4.43,4.43,0,0,1-3.38-.72c-.81-.41-.81.21-1.22,1.13s-5.52.71-6.24-.31-1.53-5-3.07-4.29-1.53,2.35-3-.11-1.23-4.49-2.05-3.62.72,8.94,0,10.47-4,4.5-3.47,5.12,18.5,2.76,23.92,2.86,30.24,1.12,36.08,1.12,24.24,0,28.74.82,12.78.72,12.78.72-3.27,5.62-4.81,5.83-20.24,1.22-27.6,0-21.67-1.64-27.91-3-17.18.31-21,.51-28.63,4.5-39.46-.31a105.76,105.76,0,0,0,19.22-6.23c-.82.3-9.51.41-13.5,1.84s-8.79,1.94-12.68,2.35-7.87,1-7.87,1-5.31-6.75-5.42-6.23-.51,3.68-2.14,2.86-4.71-5-5.22-3.17,1.84,3.58,1.33,4.7-8.28,3.17-14.11,2.66-17.58-1.12-16.05-1.43,15.34-2.56,19.32-2.76-1.84-1-4.6-.82-23,.51-25.66,1.84c-2-4.09-3.27-9.3-4.09-8.08a1.56,1.56,0,0,1-2.14.41l-.72-2.55s34.86,1.84,36.6,2.45,1.43-1.33.1-1.33-13-.31-12.27-1.84,10.43-2.86,17.59-2.66,28.42,1.64,29.75,2.25,2.25-1.43,2.25-1.43-21.16-1.94-17.79-2,7.46-2.25,5.93-1.84-18.2.51-22.18.92-13.5,1.53-16.57,2.76-23.41,1.73-23.92.51-.92-5.22-2.35-4.4-.72,4.19-1.23,4.3-7.67.51-9-.62a4.13,4.13,0,0,0-5.21-.41c-1.84,1.33-4.81,1.84-7.67,1.54a15.29,15.29,0,0,0-5.72.1c-2.87.41-6.44-.31-10.53.41s-5,1.43-6.34,1.53-7.57,1.53-10.23,1.64-4.6-.17-7.87,1.24A16.86,16.86,0,0,1,29.5,161.46Zm19.68-.23a2.59,2.59,0,0,0-1-.06c-.92.22-3-.54-.84-1.08s5.21.38,8.81-.61,1.23-1.15,6-1.15,1.28.07,10.42-.23,20.32-.92,21.17-1.08,2.76-.61,2.76-.61.06.34.14.85c.23,1.55.61,4.67-.14,4.67-1,0-1.92-.46-2.15.69s-1.38,2.53-1.61,3.14.08-.61-1.38-1.07-10.89-.69-11,.31-3,1.94-3.53.93a3.3,3.3,0,0,0-3.22-1.39c-1.38.07-.54-.77-3.14-.77s-4.6.77-5.37-.23-4.22-3.16-5.6-2.62-1.07,1.7-4.52,1.39a41.87,41.87,0,0,1-5.69-1.08Z"/></g><path class="cls-3" d="M105.88,140.84c.8,1.42,1.92,2.15,1.3,3.68s-1.15,2.69-2.53,2.07-2.3-1.45-2.3-2.37-.84-.39,0-1.84.62-1.77,1.23-2S105.06,139.4,105.88,140.84Z"/><path class="cls-12" d="M105.88,140.84c.8,1.42,1.92,2.15,1.3,3.68s-1.15,2.69-2.53,2.07-2.3-1.45-2.3-2.37-.84-.39,0-1.84.62-1.77,1.23-2S105.06,139.4,105.88,140.84Z"/><path class="cls-3" d="M109.1,116.84c-.59,1.39-1.87,4.3-1.74,5.91s1,1.45,0,2.76-1.48.69-3.86-.23-3-.69-3.22-3.61-1-3-.15-4.83.4-2.53,1.85-2.68,1.33-.85,2.69-.62S109.64,115.59,109.1,116.84Z"/><path class="cls-13" d="M109.1,116.84c-.59,1.39-1.87,4.3-1.74,5.91s1,1.45,0,2.76-1.48.69-3.86-.23-3-.69-3.22-3.61-1-3-.15-4.83.4-2.53,1.85-2.68,1.33-.85,2.69-.62S109.64,115.59,109.1,116.84Z"/><path class="cls-3" d="M159.86,136.78c.27.94,2.08,2.84,1.23,4.52s-1.61,4-2,4.78-1.54-.48-1.92-2.25-.77-2.45-.46-4.37S159.48,135.4,159.86,136.78Z"/><path class="cls-14" d="M159.86,136.78c.27.94,2.08,2.84,1.23,4.52s-1.61,4-2,4.78-1.54-.48-1.92-2.25-.77-2.45-.46-4.37S159.48,135.4,159.86,136.78Z"/><path class="cls-3" d="M162.32,112.55c1.53,1.47,2.38,1.3.84,3.37s-2.6,1.7-3,4-.31,3.71-.54,3.86-2.6.08-2.45-2.6-.08-3.92,1.07-5.07a7.71,7.71,0,0,0,1.54-3.52C159.94,111.63,161.11,111.39,162.32,112.55Z"/><path class="cls-15" d="M162.32,112.55c1.53,1.47,2.38,1.3.84,3.37s-2.6,1.7-3,4-.31,3.71-.54,3.86-2.6.08-2.45-2.6-.08-3.92,1.07-5.07a7.71,7.71,0,0,0,1.54-3.52C159.94,111.63,161.11,111.39,162.32,112.55Z"/><path class="cls-3" d="M180.49,100.74c.16,1,1.23,2.07-.76,3.22s-2.07,3.14-2.77.54-1.53-1.23-.84-3-1.61-1.69.69-1.77A6,6,0,0,1,180.49,100.74Z"/><path class="cls-16" d="M180.49,100.74c.16,1,1.23,2.07-.76,3.22s-2.07,3.14-2.77.54-1.53-1.23-.84-3-1.61-1.69.69-1.77A6,6,0,0,1,180.49,100.74Z"/><path class="cls-3" d="M213.24,138.93c.38.15,1.76.84,1.45,1.84s-1.15,3.22-2,3.22-3.07-1.08-3.07-2.23-.31-2.37.38-2.83S213.24,138.93,213.24,138.93Z"/><path class="cls-17" d="M213.24,138.93c.38.15,1.76.84,1.45,1.84s-1.15,3.22-2,3.22-3.07-1.08-3.07-2.23-.31-2.37.38-2.83S213.24,138.93,213.24,138.93Z"/><path class="cls-3" d="M211.16,128c.39,1,1.08,1.15,0,1.84s-1.22,1.3-2.3.69-1.91-.69-1.22-1.77.61-1.45,1.3-1.38A15.52,15.52,0,0,1,211.16,128Z"/><path class="cls-18" d="M211.16,128c.39,1,1.08,1.15,0,1.84s-1.22,1.3-2.3.69-1.91-.69-1.22-1.77.61-1.45,1.3-1.38A15.52,15.52,0,0,1,211.16,128Z"/><path class="cls-3" d="M257.9,143.36c.56,1.38,1.73,1.33.07,2.19s-2.33,1.8-2.86,0-.87-1.39-.2-2.19S257.58,142.57,257.9,143.36Z"/><path class="cls-19" d="M257.9,143.36c.56,1.38,1.73,1.33.07,2.19s-2.33,1.8-2.86,0-.87-1.39-.2-2.19S257.58,142.57,257.9,143.36Z"/><path class="cls-3" d="M268.08,139.57c-.82.48,0,1.67-.2,3.19s-.07,3.46-2.33,2.73a4.34,4.34,0,0,1-2.93-4.14c0-1.25-.33-2.12-1.66-3.65s-3.06-3.65-1.2-5.58a5.6,5.6,0,0,0,2-4.71,4.61,4.61,0,0,1,2.13-4.27c1.66-1.14,2.19-2.67,2.86-1.34s1.33,1.87,1.33,3.53.66,2.72.6,3.79,1.46,1.93,1.66,3.46S270.87,137.9,268.08,139.57Z"/><path class="cls-20" d="M268.08,139.57c-.82.48,0,1.67-.2,3.19s-.07,3.46-2.33,2.73a4.34,4.34,0,0,1-2.93-4.14c0-1.25-.33-2.12-1.66-3.65s-3.06-3.65-1.2-5.58a5.6,5.6,0,0,0,2-4.71,4.61,4.61,0,0,1,2.13-4.27c1.66-1.14,2.19-2.67,2.86-1.34s1.33,1.87,1.33,3.53.66,2.72.6,3.79,1.46,1.93,1.66,3.46S270.87,137.9,268.08,139.57Z"/><path class="cls-3" d="M301.87,133.47c-.15.51.61,2.09,1,3.48s2.06,1.39.39,3.39-1.89,1.28-2.45,2.83a12.13,12.13,0,0,0-.72,3.89,5.91,5.91,0,0,1-.55,2.25s-.17-2.74-.89-3.66-.78-2.74-1.56-2.89-2-4.2-1.11-7.37,1.89-5.88,2.95-5.72S302.76,130.43,301.87,133.47Z"/><path class="cls-21" d="M301.87,133.47c-.15.51.61,2.09,1,3.48s2.06,1.39.39,3.39-1.89,1.28-2.45,2.83a12.13,12.13,0,0,0-.72,3.89,5.91,5.91,0,0,1-.55,2.25s-.17-2.74-.89-3.66-.78-2.74-1.56-2.89-2-4.2-1.11-7.37,1.89-5.88,2.95-5.72S302.76,130.43,301.87,133.47Z"/><path class="cls-3" d="M349.3,132.68c0,1.57-.68,3.42.3,5.67s2.44,2.67.78,4.41-4.4,1.39-4.5,0-1.07-6.17-.39-7.54S349.3,132.68,349.3,132.68Z"/><path class="cls-22" d="M349.3,132.68c0,1.57-.68,3.42.3,5.67s2.44,2.67.78,4.41-4.4,1.39-4.5,0-1.07-6.17-.39-7.54S349.3,132.68,349.3,132.68Z"/><path class="cls-3" d="M349.89,115.68c.58.23,2.29,1.76,1.24,2.83s-2,1.84-2.22,2.78-.78-.43-1.37-1.8S348.42,115.09,349.89,115.68Z"/><path class="cls-23" d="M349.89,115.68c.58.23,2.29,1.76,1.24,2.83s-2,1.84-2.22,2.78-.78-.43-1.37-1.8S348.42,115.09,349.89,115.68Z"/><path class="cls-3" d="M406.38,130.63c.3,1.61.1,3.42-.39,3.42s-.68-.88-1.47-1.37-2.15-1.56-1.07-2.05S406.17,129.52,406.38,130.63Z"/><path class="cls-24" d="M406.38,130.63c.3,1.61.1,3.42-.39,3.42s-.68-.88-1.47-1.37-2.15-1.56-1.07-2.05S406.17,129.52,406.38,130.63Z"/><path class="cls-3" d="M407.55,117.24s1.27,2.54,0,3.13-.88,2.73-1.85,3.32-4.11,1.47-4.3,0-.88-6.16,0-7.43S407,115.41,407.55,117.24Z"/><path class="cls-25" d="M407.55,117.24s1.27,2.54,0,3.13-.88,2.73-1.85,3.32-4.11,1.47-4.3,0-.88-6.16,0-7.43S407,115.41,407.55,117.24Z"/><path class="cls-3" d="M357.81,97.3c.14.26,3,3.42,1.76,5.28s-3,3.62-3.43,5.08-3.32,1.18-3.61-1.17,1.27-4.59,1.46-6.55S355.82,93.74,357.81,97.3Z"/><path class="cls-26" d="M357.81,97.3c.14.26,3,3.42,1.76,5.28s-3,3.62-3.43,5.08-3.32,1.18-3.61-1.17,1.27-4.59,1.46-6.55S355.82,93.74,357.81,97.3Z"/><path class="cls-3" d="M264.71,109.32c.35,1.27.72,1.73,0,2.87s-.73,1.4-2.1,0-2.44-2.28-.68-2.87A3.61,3.61,0,0,1,264.71,109.32Z"/><path class="cls-27" d="M264.71,109.32c.35,1.27.72,1.73,0,2.87s-.73,1.4-2.1,0-2.44-2.28-.68-2.87A3.61,3.61,0,0,1,264.71,109.32Z"/><path class="cls-3" d="M263.07,85.87c-.07,1.17,1.43,1.76,0,2.15s-2.41,1.46-2.61.29a9.14,9.14,0,0,1,0-2.44Z"/><path class="cls-28" d="M263.07,85.87c-.07,1.17,1.43,1.76,0,2.15s-2.41,1.46-2.61.29a9.14,9.14,0,0,1,0-2.44Z"/><path class="cls-3" d="M211.74,99.74a7,7,0,0,1,.41,5.58c-1,2.34-1.1,5.57-2.59,3s-2.27-4-2.17-5.59,1.17-4.19,1.56-4.38S211.74,99.74,211.74,99.74Z"/><path class="cls-29" d="M211.74,99.74a7,7,0,0,1,.41,5.58c-1,2.34-1.1,5.57-2.59,3s-2.27-4-2.17-5.59,1.17-4.19,1.56-4.38S211.74,99.74,211.74,99.74Z"/><path class="cls-3" d="M207.38,79.42a16.17,16.17,0,0,1,0,3.81c-.19,1.27-.29,2.83-1.86,2a4.88,4.88,0,0,1-2.44-3.86c0-1.22.1-3.27.68-3.27S207.3,78.33,207.38,79.42Z"/><path class="cls-30" d="M207.38,79.42a16.17,16.17,0,0,1,0,3.81c-.19,1.27-.29,2.83-1.86,2a4.88,4.88,0,0,1-2.44-3.86c0-1.22.1-3.27.68-3.27S207.3,78.33,207.38,79.42Z"/><path class="cls-31" d="M304.87,155.48c.53,1.7,3.41,10.7,3.8,12.72s2.3,1.63,3.55,2.4,5.86-.1,8.45,0,10.38-1.16,11.91-2.4c1.29-1,10.9,0,13.92.31-.3,0-.59-.09-.88-.15-3.38-.67-17.79-3-17.79-3S341.94,164,343,162.48s-.92-1.94-2-3.48,4.91-4.6,10.54-5.52c0,0-8.59-2.25-12.78-.2-2.05-4.3-2.36-3.38-2.36-5.42s-1.22-1.86-1.63-.83-3.58,8.4-5,6.66-4.19-5.83-4.5-4.6-3.17,7.77-4.91,6-4.6-5.42-4.9-4.91-2.25,1.54-2.77.51-1.32-2.45-2.86-.3-3.47,5.11-4.5,5.11A1.63,1.63,0,0,1,304.87,155.48Z"/><path class="cls-31" d="M194.41,161.87c.51.61,18.5,2.76,23.92,2.86s30.24,1.12,36.08,1.12,24.24,0,28.74.82,12.78.72,12.78.72,1.79-2,2-2.36,1.82.76,2.69,2.11,1.44-2.5,2.11-4.8c.46-1.59.29-5.41.13-7.63-.28-.09-.47-.09-.47.1,0,.62-4-2-4.4-1.22s-1,2.24-2.24,1.73-3.38-2.35-5.32-.61-2.35,4.6-3.58,3.68-4.7-3-5.11-2.45-.21,1.12-1.94-.41-2.15-2.35-2.46-1.84-1.53,2.66-3.37,2.66-3.78-.21-4.81-1.13-1.63-1.43-3.37-.2-4.6,1.22-6.24,1.33-6.34.3-7.46-.62a63,63,0,0,0-6.94-3.55,23.77,23.77,0,0,0,3.19-.11c2.19-.53,15.57.15,18.09.11s10.38.82,10.38-.77c0-.33-1.86-.53-2.19-.47s-1.13-.46-1.6-.8-26.68-1.19-26.68-.66-2.06.76-2.32.88h-1.29c-1.8-1.54-4.42-3.64-4.75-3.11a28.31,28.31,0,0,1-2.63,3c-10.9-.24-28.19-.63-28.19-.35s-.6,1.14-.6,1.14,14.89.6,26.91.94c-.8.64-1.48,1.05-1.83.92-1.12-.41-4.29-.31-4.5.2s-2.65-.4-3.78.41-1.84,3.89-3.68,3.17-1.43-2.86-2.86-2.45a4.43,4.43,0,0,1-3.38-.72c-.81-.41-.81.21-1.22,1.13s-5.52.71-6.24-.31-1.53-5-3.07-4.29-1.53,2.35-3-.11-1.23-4.49-2.05-3.62.72,8.94,0,10.47S193.9,161.25,194.41,161.87Z"/><path class="cls-31" d="M409.1,154s0,3.22,0,3.68c3.58-.3,25.76.28,26.07-.93s-1.13-2-4.91-1.93S409.1,154,409.1,154Z"/><path class="cls-31" d="M388.25,153.28c.1,1,15.75,1,15.75,1.53v-2.76c-4,.21-5.42,1.33-7.77,1.13S388.15,152.26,388.25,153.28Z"/><path class="cls-31" d="M448.78,157.06c.48.26,11.86-.61,13.59,0s15.65,1.74,14.32,2.56c-.89.56-5.57,1.62-8.51,1.94l13.16-.88c-.32-1.46-1-4.06-9.25-4.54-8.69-.51-11.15-.41-14-1.12S446.22,155.73,448.78,157.06Z"/><path class="cls-31" d="M181.26,151.42a20.11,20.11,0,0,0,7.51-.61c1.61-.46-2.07-1.07-6.36-.92s-9.82.08-13.11.23c0,0-.31,1.23,1.07,1.07S177.12,151.19,181.26,151.42Z"/><path class="cls-31" d="M100.35,154.61l.51,2.25s34.86,1.84,36.6,2.45,1.43-1.33.1-1.33-13-.31-12.27-1.84,10.43-2.86,17.59-2.66,28.42,1.64,29.75,2.25,2.25-1.43,2.25-1.43-21.16-1.94-17.79-2,7.46-2.25,5.93-1.84-18.2.51-22.18.92-13.5,1.53-16.57,2.76S100.86,155.83,100.35,154.61Z"/><path class="cls-31" d="M29.5,161.46s.94.2,2.35.55h0c5.67-.41,17.3-.78,17.3-.78a2.59,2.59,0,0,0-1-.06c-.92.22-3-.54-.84-1.08s5.21.38,8.81-.61,1.23-1.15,6-1.15,1.28.07,10.42-.23,20.32-.92,21.17-1.08,2.76-.61,2.76-.61.06.34.14.85l.18-2.75c-.51.1-7.67.51-9-.62a4.13,4.13,0,0,0-5.21-.41c-1.84,1.33-4.81,1.84-7.67,1.54a15.29,15.29,0,0,0-5.72.1c-2.87.41-6.44-.31-10.53.41s-5,1.43-6.34,1.53-7.57,1.53-10.23,1.64-4.6-.17-7.87,1.24A16.86,16.86,0,0,1,29.5,161.46Z"/><path class="cls-32" d="M258.1,158s-8.43.47-9.42-1.21-8.61-8.25-9.14-7.44-5.48,7.14-7.19,6.18-3.55-3.11-5.37-1.18-4.19.86-4.62,1.71-4.4,4.3-3.86,4.19,6.76-4.14,8.8-3.46,5.48,3.78,8,.67,5.55-5.58,6.32-4.4S249.73,164.72,258.1,158Z"/><path class="cls-33" d="M208.84,156.75s-5.58-1.58-5.36-3-2.79,1-3.55-.86-1.28-3.67-1.28-3.67.64,8.19,0,9.36.32-3.65,2.14-2.47S208.84,156.75,208.84,156.75Z"/><path class="cls-34" d="M304,157.82s-2.25,12.45-2.55,11.43-2.94-3.23-3.24-2.63-6,7.19-6,7.19,6-5.87,7-5.06,4.09,5,4.78,1.31S304,157.82,304,157.82Z"/><path class="cls-35" d="M341.16,154s-2.65,1.86-3.34,0-2.66-4.48-3.58-3.18-4.21,6.92-4.39,4.89-3.46-5-4-4-2.42,5.5-4.85,5.06-5.54-4.37-5.54-4.37,3.35,8.09,6,6.41,4.73-5.75,5.54-4.06,2.88,6.43,4.38,4.29,2.19-5.18,3.7-4.29S339.32,158,341.16,154Z"/><path class="cls-36" d="M346.17,169.28s-8.95-1.93-11.64-1S320,170.93,320,170.93s10.95,0,13.64-.89S346.17,169.28,346.17,169.28Z"/><path class="cls-37" d="M406.87,147.46a3.22,3.22,0,0,0-2.33,3c-.1,2.49,1.32,7.58.25,7.18s-2.62-1-3.35,2.44-.81,6.56-4.54,6.89-16.61,1-16.61,1,17.5,1.42,19.29,0,2-9.78,4-9.41,3.24.25,3.32-2.77S406.87,147.46,406.87,147.46Z"/><path class="cls-38" d="M413.86,163.82s4.92,2.22,9,1.31,19.48-1.31,19.48-1.31-13.6,1.7-15.43,2.09S415.17,169.31,413.86,163.82Z"/><path class="cls-39" d="M404,164.45s3.89,2.8,6,2.64-2.57.53-4.45,1S402.88,165.54,404,164.45Z"/><path class="cls-40" d="M315.42,163.58c-.29-.63-2.19-5.65-3.08-5s-3.29.47-4.31,0-3.16-3.12-3.16-3.12,1,4.28,2.53,4.73,3.55.2,4.56,1.35A10.54,10.54,0,0,0,315.42,163.58Z"/><path class="cls-41" d="M291,158.6s-1.29,4.05-3.88,3.27-4.4-2.91-7.38-1.58-7.5.33-8.15.63-6.6,1.47,1.16,2,7.77,1,9.19.68.52-1.32,2.2-.81S290.88,163,291,158.6Z"/><path class="cls-42" d="M248.2,173.16s-14.08-2.77-15.64-2.77-38.2,3.42-38.2,3.42,30.49-1,33.86-1S248.2,173.16,248.2,173.16Z"/><path class="cls-43" d="M159.4,170.39s-3-4.69-3.61-4-4.82.18-5.66-.66-.24,4.81-1.44,4.69,3.61-2.29,5.35-1.32A18.53,18.53,0,0,0,159.4,170.39Z"/><path class="cls-44" d="M106.33,167.42s-1.2-7.66-2.88-6.5-4.46.87-4.94-3.55-.6,3.6-.84,4.64-.72-.16-1.56,1.16-2.77,4.25-2.77,4.25,4.81-3.53,5.89-3S106.33,167.42,106.33,167.42Z"/><path class="cls-45" d="M65.06,164.61s-5.29-3.59-5.65-2.88-5.42,1.71-8.19,1.4-12-.56-12-.56,10.59,2.65,15.4,2A53.78,53.78,0,0,1,65.06,164.61Z"/><path class="cls-46" d="M264.71,123.76a20.78,20.78,0,0,0,0,3.65c.16,2.21-.24,2.52-.54,4.14a11.21,11.21,0,0,0,.46,4.65c.35,1.52,1.16,6,1.16,6s-1.37-3.54-2.1-5.06-2.07-1.52-1.66-4.15,1.69-6.67,1.66-7A13,13,0,0,1,264.71,123.76Z"/><path class="cls-47" d="M300.29,131.55s-1.52,3.44-1.22,5.06.88,3,.75,4.25a32.63,32.63,0,0,0,0,3.81,41.8,41.8,0,0,1-1.56-5.18C297.86,137.42,298.7,131.62,300.29,131.55Z"/><path class="cls-48" d="M210.54,99.74a12.91,12.91,0,0,1,0,3,31.48,31.48,0,0,0,0,4.5s-1.68-2.16-1.7-3.76S209.83,98.89,210.54,99.74Z"/><path class="cls-49" d="M347.41,134.59v7.06s-1.37,3.08-1.24.4S345.64,135.06,347.41,134.59Z"/><path class="cls-50" d="M405.55,116.6a39.66,39.66,0,0,0-1.55,5c-.31,1.73-2.74,3-2.34,0S403.33,115.45,405.55,116.6Z"/><path class="cls-51" d="M356.6,97.63s-1.46,3.89-1.22,5.35.43,3.73,0,4c0,0-2.41,1.45-2-1.38S356.6,97.63,356.6,97.63Z"/><path class="cls-52" d="M104.45,115.39s-2.72,3.15-1.76,5a25.92,25.92,0,0,0,2.54,3.76s-3.67.79-3.85-1.66-.38-4.73.6-5.86A3.86,3.86,0,0,1,104.45,115.39Z"/><path class="cls-53" d="M159.46,138.05s.49,7.7-.5,6.56S157.8,140.67,159.46,138.05Z"/><path class="cls-54" d="M161.31,113.5a2.36,2.36,0,0,1-.36,2.94c-1.4,1.23-1.18,6.39-2,5.08s-1.46-3.94,0-5.16A11.08,11.08,0,0,0,161.31,113.5Z"/></g></g></g></svg>