<svg xmlns="http://www.w3.org/2000/svg" xmlns:xlink="http://www.w3.org/1999/xlink" viewBox="0 0 512.37 197.72"><defs><style>.cls-1{isolation:isolate;}.cls-2{fill:none;}.cls-3{fill:#d9f7ff;}.cls-4{mix-blend-mode:color-burn;}.cls-5{fill:url(#radial-gradient);}.cls-6{fill:url(#radial-gradient-3);}.cls-7{fill:url(#radial-gradient-5);}.cls-8{fill:url(#radial-gradient-7);}.cls-9{fill:url(#radial-gradient-9);}.cls-10{fill:url(#radial-gradient-11);}.cls-11{fill:url(#radial-gradient-13);}.cls-12{fill:url(#radial-gradient-15);}.cls-13{fill:url(#radial-gradient-17);}.cls-14{fill:url(#radial-gradient-19);}.cls-15{fill:url(#radial-gradient-21);}.cls-16{fill:url(#radial-gradient-23);}.cls-17{fill:url(#radial-gradient-25);}.cls-18{fill:url(#radial-gradient-27);}.cls-19{fill:url(#radial-gradient-29);}.cls-20{fill:url(#radial-gradient-31);}.cls-21{fill:url(#radial-gradient-33);}.cls-22{fill:url(#radial-gradient-35);}.cls-23{fill:url(#radial-gradient-37);}.cls-24{fill:url(#radial-gradient-39);}.cls-25{fill:url(#radial-gradient-41);}.cls-26{fill:url(#radial-gradient-43);}.cls-27{fill:url(#radial-gradient-45);}.cls-28{opacity:0.1;mix-blend-mode:multiply;}.cls-29{fill:url(#linear-gradient);}.cls-30{fill:url(#linear-gradient-3);}.cls-31{fill:url(#linear-gradient-5);}.cls-32{fill:url(#linear-gradient-7);}.cls-33{fill:url(#linear-gradient-9);}.cls-34{fill:url(#linear-gradient-11);}.cls-35{fill:url(#linear-gradient-13);}.cls-36{fill:url(#linear-gradient-15);}.cls-37{fill:url(#linear-gradient-17);}.cls-38{fill:url(#linear-gradient-19);}.cls-39{fill:url(#linear-gradient-21);}.cls-40{fill:url(#linear-gradient-23);}.cls-41{fill:url(#linear-gradient-25);}.cls-42{fill:url(#linear-gradient-27);}.cls-43{fill:url(#linear-gradient-29);}.cls-44{fill:url(#linear-gradient-31);}.cls-45{fill:url(#linear-gradient-33);}.cls-46{fill:url(#linear-gradient-35);}.cls-47{fill:url(#linear-gradient-37);}.cls-48{fill:url(#linear-gradient-39);}.cls-49{fill:url(#linear-gradient-41);}.cls-50{fill:url(#linear-gradient-43);}.cls-51{fill:url(#linear-gradient-45);}</style><radialGradient id="radial-gradient" cx="1491.57" cy="120.78" r="248.54" gradientTransform="matrix(-1, 0, 0, 1, 1748.94, 0)" gradientUnits="userSpaceOnUse"><stop offset="0" stop-color="#1b1464"/><stop offset="0.07" stop-color="#453f81"/><stop offset="0.15" stop-color="#706c9e"/><stop offset="0.23" stop-color="#9793b8"/><stop offset="0.32" stop-color="#b7b5ce"/><stop offset="0.42" stop-color="#d1d0e0"/><stop offset="0.53" stop-color="#e6e5ee"/><stop offset="0.64" stop-color="#f4f4f8"/><stop offset="0.78" stop-color="#fcfcfd"/><stop offset="1" stop-color="#fff"/></radialGradient><radialGradient id="radial-gradient-3" cx="1491.57" cy="120.78" r="248.54" xlink:href="#radial-gradient"/><radialGradient id="radial-gradient-5" cx="1491.57" cy="120.78" r="248.54" xlink:href="#radial-gradient"/><radialGradient id="radial-gradient-7" cx="1491.57" cy="120.78" r="248.54" xlink:href="#radial-gradient"/><radialGradient id="radial-gradient-9" cx="1491.57" cy="120.78" r="248.54" xlink:href="#radial-gradient"/><radialGradient id="radial-gradient-11" cx="1491.57" cy="120.78" r="248.54" xlink:href="#radial-gradient"/><radialGradient id="radial-gradient-13" cx="1491.57" cy="120.79" r="248.54" xlink:href="#radial-gradient"/><radialGradient id="radial-gradient-15" cx="1491.57" cy="120.78" r="248.54" xlink:href="#radial-gradient"/><radialGradient id="radial-gradient-17" cx="1491.57" cy="120.78" r="248.54" xlink:href="#radial-gradient"/><radialGradient id="radial-gradient-19" cx="1491.57" cy="120.78" r="248.54" xlink:href="#radial-gradient"/><radialGradient id="radial-gradient-21" cx="1491.57" cy="120.78" r="248.54" xlink:href="#radial-gradient"/><radialGradient id="radial-gradient-23" cx="1491.57" cy="120.78" r="248.54" xlink:href="#radial-gradient"/><radialGradient id="radial-gradient-25" cx="1491.57" cy="120.78" r="248.54" xlink:href="#radial-gradient"/><radialGradient id="radial-gradient-27" cx="1491.57" cy="120.78" r="248.54" xlink:href="#radial-gradient"/><radialGradient id="radial-gradient-29" cx="1491.57" cy="120.78" r="248.53" xlink:href="#radial-gradient"/><radialGradient id="radial-gradient-31" cx="1491.57" cy="120.78" r="248.54" xlink:href="#radial-gradient"/><radialGradient id="radial-gradient-33" cx="1491.57" cy="120.78" r="248.54" xlink:href="#radial-gradient"/><radialGradient id="radial-gradient-35" cx="1491.57" cy="120.78" r="248.54" xlink:href="#radial-gradient"/><radialGradient id="radial-gradient-37" cx="1491.57" cy="120.78" r="248.54" xlink:href="#radial-gradient"/><radialGradient id="radial-gradient-39" cx="1491.57" cy="120.78" r="248.54" xlink:href="#radial-gradient"/><radialGradient id="radial-gradient-41" cx="1491.57" cy="120.78" r="248.54" xlink:href="#radial-gradient"/><radialGradient id="radial-gradient-43" cx="1491.57" cy="120.78" r="248.54" xlink:href="#radial-gradient"/><radialGradient id="radial-gradient-45" cx="1491.57" cy="120.78" r="248.54" xlink:href="#radial-gradient"/><linearGradient id="linear-gradient" x1="1495.57" y1="176.66" x2="1495.57" y2="103.88" gradientTransform="matrix(-1, 0, 0, 1, 1748.94, 0)" xlink:href="#radial-gradient"/><linearGradient id="linear-gradient-3" x1="1322.8" y1="176.66" x2="1322.8" y2="103.88" gradientTransform="matrix(-1, 0, 0, 1, 1748.94, 0)" xlink:href="#radial-gradient"/><linearGradient id="linear-gradient-5" x1="1369.46" y1="176.66" x2="1369.46" y2="103.88" gradientTransform="matrix(-1, 0, 0, 1, 1748.94, 0)" xlink:href="#radial-gradient"/><linearGradient id="linear-gradient-7" x1="1497.04" y1="176.66" x2="1497.04" y2="103.88" gradientTransform="matrix(-1, 0, 0, 1, 1748.94, 0)" xlink:href="#radial-gradient"/><linearGradient id="linear-gradient-9" x1="1406.52" y1="176.66" x2="1406.52" y2="103.88" gradientTransform="matrix(-1, 0, 0, 1, 1748.94, 0)" xlink:href="#radial-gradient"/><linearGradient id="linear-gradient-11" x1="1394.91" y1="176.66" x2="1394.91" y2="103.88" gradientTransform="matrix(-1, 0, 0, 1, 1748.94, 0)" xlink:href="#radial-gradient"/><linearGradient id="linear-gradient-13" x1="1432.23" y1="176.66" x2="1432.23" y2="103.88" gradientTransform="matrix(-1, 0, 0, 1, 1748.94, 0)" xlink:href="#radial-gradient"/><linearGradient id="linear-gradient-15" x1="1438.11" y1="176.66" x2="1438.11" y2="103.88" gradientTransform="matrix(-1, 0, 0, 1, 1748.94, 0)" xlink:href="#radial-gradient"/><linearGradient id="linear-gradient-17" x1="1449.98" y1="176.66" x2="1449.98" y2="103.88" gradientTransform="matrix(-1, 0, 0, 1, 1748.94, 0)" xlink:href="#radial-gradient"/><linearGradient id="linear-gradient-19" x1="1395.38" y1="176.66" x2="1395.38" y2="103.88" gradientTransform="matrix(-1, 0, 0, 1, 1748.94, 0)" xlink:href="#radial-gradient"/><linearGradient id="linear-gradient-21" x1="1345.08" y1="176.66" x2="1345.08" y2="103.88" gradientTransform="matrix(-1, 0, 0, 1, 1748.94, 0)" xlink:href="#radial-gradient"/><linearGradient id="linear-gradient-23" x1="1482.62" y1="176.66" x2="1482.62" y2="103.88" gradientTransform="matrix(-1, 0, 0, 1, 1748.94, 0)" xlink:href="#radial-gradient"/><linearGradient id="linear-gradient-25" x1="1491.24" y1="176.66" x2="1491.24" y2="103.88" gradientTransform="matrix(-1, 0, 0, 1, 1748.94, 0)" xlink:href="#radial-gradient"/><linearGradient id="linear-gradient-27" x1="1493.15" y1="176.66" x2="1493.15" y2="103.88" gradientTransform="matrix(-1, 0, 0, 1, 1748.94, 0)" xlink:href="#radial-gradient"/><linearGradient id="linear-gradient-29" x1="1503.05" y1="176.66" x2="1503.05" y2="103.88" gradientTransform="matrix(-1, 0, 0, 1, 1748.94, 0)" xlink:href="#radial-gradient"/><linearGradient id="linear-gradient-31" x1="1538.67" y1="176.66" x2="1538.67" y2="103.88" gradientTransform="matrix(-1, 0, 0, 1, 1748.94, 0)" xlink:href="#radial-gradient"/><linearGradient id="linear-gradient-33" x1="1538.04" y1="176.66" x2="1538.04" y2="103.88" gradientTransform="matrix(-1, 0, 0, 1, 1748.94, 0)" xlink:href="#radial-gradient"/><linearGradient id="linear-gradient-35" x1="1571.46" y1="176.66" x2="1571.46" y2="103.88" gradientTransform="matrix(-1, 0, 0, 1, 1748.94, 0)" xlink:href="#radial-gradient"/><linearGradient id="linear-gradient-37" x1="1589.65" y1="176.66" x2="1589.65" y2="103.88" gradientTransform="matrix(-1, 0, 0, 1, 1748.94, 0)" xlink:href="#radial-gradient"/><linearGradient id="linear-gradient-39" x1="1588.29" y1="176.66" x2="1588.29" y2="103.88" gradientTransform="matrix(-1, 0, 0, 1, 1748.94, 0)" xlink:href="#radial-gradient"/><linearGradient id="linear-gradient-41" x1="1644.83" y1="176.66" x2="1644.83" y2="103.88" gradientTransform="matrix(-1, 0, 0, 1, 1748.94, 0)" xlink:href="#radial-gradient"/><linearGradient id="linear-gradient-43" x1="1646.55" y1="176.66" x2="1646.55" y2="103.88" gradientTransform="matrix(-1, 0, 0, 1, 1748.94, 0)" xlink:href="#radial-gradient"/><linearGradient id="linear-gradient-45" x1="1537.76" y1="176.66" x2="1537.76" y2="103.88" gradientTransform="matrix(-1, 0, 0, 1, 1748.94, 0)" xlink:href="#radial-gradient"/></defs><g class="cls-1"><g id="Layer_2" data-name="Layer 2"><g id="bg"><rect class="cls-2" width="512.37" height="197.72" transform="translate(512.37 197.72) rotate(180)"/></g><g id="_12" data-name="12"><path class="cls-3" d="M465.86,154.55c-.17-.26-5.91,1.14-3.94,1.14s7.67,1.86,9.43,2,15,1.55,18.14,1.66,8.3,1.24,7.05,1.45-9.84,2.07-12.13,2.18-16.89,1.86-19.59,1.86-16.58,2-18,2.07-4.14.11-4.87-1.76-1.66-3.42-2-2.17-1.14,2.9-2,1.86-1.35-1.66-1.66-.41-2.9,2.66-4.45,2.52-4.25,1.1-5.19,1.62a20.75,20.75,0,0,1-5.18,1c-.62,0-13.89.62-13.89.93s-.52.94-3.32.94-.72.31-3.73.51-10.37.31-12.44.31-1.66-.51-2.07,0-27.68,1.25-27.68,1.25H308s-2-2.9-2.7-2S304,173.73,303,173.1s-2.49-3-3.73-1.86,2.38,1.35-3.73,2.28-39.81,1.76-42.61.93a30.07,30.07,0,0,0-8.6-1H226.18c-.93,0-36.69.72-36.69.72s-36.81-1.45-40.23-1.24-5.08.83-5.91-.31-4.56-1-8.81-.83-14,.93-15.34.2-3-2.59-4.15-1.86a3.89,3.89,0,0,1-3.83,0c-1.45-.62-2.49-.93-3.42.41s-5.5,2.39-7.36,1.35-1.66-1.14-6.53-1.14-13,.83-13.89-.41S70,170.31,67.37,169s-3.11-5.26-3.94-4.29-.62,6.57-3.63,1.07-4.35-8.5-4.77-5.8.93,6.53-.83,5.91-3.83-1.94-4.56-1.18-3.42.87-8.29.45-31.31-2-30.07-3.32,19.08-4.66,25.09-5.39S68.82,153.3,76,153.3s44,.63,48.62.63,6.95-1.66,18.56-2.18,26.64-2,29.23-2.18S175,148,174,148s-6.74.31-9.43.62-12.75.62-16.38.83-7.57-.31-10.27.41-5.39.83-7.87,1.45-9.23.94-10.58,1-13.68-.93-16.48-1.14-7.88-.93-10.78-.62-6.64.72-10.27.93-7.56.73-9.43.83-8.19.31-10.88.52-7.16.73-9.23.83-12.65.62-16.59.93-7.25,1.76-11.4,2.39-8.91,1.34-11.51,1.86-4.87,1.28-4.45,2.51-2.49,2.36,5.9,3.09,11.72.83,20.32,2,8.3,1.55,14,2.8,9.64,2,14.1,2,7.67,0,11.4.21,5.29,1,8.81,1.14,2.9.1,6.64.1,5.7-.31,6.84,0a25.47,25.47,0,0,0,6.63.93h8.19c1,0,8.71,1.56,11.2.73s12-.73,14-.73,4.67,1.41,7.26,1.17,1.66-.55,5.7-.44,10.26.16,11.51.44,1.66,1.22,7.25.8,8.82-.31,12.13-.31,5.29,0,8.82.21a76.45,76.45,0,0,0,8.5.21c3.73-.11,6.42-.21,9.84-.42a81.58,81.58,0,0,1,9.75-.46c4,.15,3.63.57,9.95.36s10.26.1,13.17.1a59.36,59.36,0,0,1,6.63.46c3.21.27,4.83,1.1,7.39.89s14.17-.85,16.35-.89,1.35.16,7.77.16,13.9.11,15.87-.1a50.87,50.87,0,0,1,7.15-.41,80.8,80.8,0,0,0,9.95-.11c5.39-.41,10.78-.52,12.75-.52s9.64.31,14.72.42,6.43.21,13.58.1,12.13.62,15.14.11S379,174,379,174s12-.21,16.58-.21a39,39,0,0,0,11.3-1.14c5.91-1.24,4.67-1.76,9.33-1.76s10.89-.62,13.17-.73,3.52-.52,7.77-.93,5.19-.42,10-.62,12.85-2,17.62-2.39,10.78-1.35,12.33-1.45,19.29-1.45,20.63-3.21,1-2.59-2.59-2.91S467.1,156.41,465.86,154.55Z"/><path class="cls-3" d="M465.86,154.55c-.17-.26-5.91,1.14-3.94,1.14s7.67,1.86,9.43,2,15,1.55,18.14,1.66,8.3,1.24,7.05,1.45-9.84,2.07-12.13,2.18-16.89,1.86-19.59,1.86-16.58,2-18,2.07-4.14.11-4.87-1.76-1.66-3.42-2-2.17-1.14,2.9-2,1.86-1.35-1.66-1.66-.41-2.9,2.66-4.45,2.52-4.25,1.1-5.19,1.62a20.75,20.75,0,0,1-5.18,1c-.62,0-13.89.62-13.89.93s-.52.94-3.32.94-.72.31-3.73.51-10.37.31-12.44.31-1.66-.51-2.07,0-27.68,1.25-27.68,1.25H308s-2-2.9-2.7-2S304,173.73,303,173.1s-2.49-3-3.73-1.86,2.38,1.35-3.73,2.28-39.81,1.76-42.61.93a30.07,30.07,0,0,0-8.6-1H226.18c-.93,0-36.69.72-36.69.72s-36.81-1.45-40.23-1.24-5.08.83-5.91-.31-4.56-1-8.81-.83-14,.93-15.34.2-3-2.59-4.15-1.86a3.89,3.89,0,0,1-3.83,0c-1.45-.62-2.49-.93-3.42.41s-5.5,2.39-7.36,1.35-1.66-1.14-6.53-1.14-13,.83-13.89-.41S70,170.31,67.37,169s-3.11-5.26-3.94-4.29-.62,6.57-3.63,1.07-4.35-8.5-4.77-5.8.93,6.53-.83,5.91-3.83-1.94-4.56-1.18-3.42.87-8.29.45-31.31-2-30.07-3.32,19.08-4.66,25.09-5.39S68.82,153.3,76,153.3s44,.63,48.62.63,6.95-1.66,18.56-2.18,26.64-2,29.23-2.18S175,148,174,148s-6.74.31-9.43.62-12.75.62-16.38.83-7.57-.31-10.27.41-5.39.83-7.87,1.45-9.23.94-10.58,1-13.68-.93-16.48-1.14-7.88-.93-10.78-.62-6.64.72-10.27.93-7.56.73-9.43.83-8.19.31-10.88.52-7.16.73-9.23.83-12.65.62-16.59.93-7.25,1.76-11.4,2.39-8.91,1.34-11.51,1.86-4.87,1.28-4.45,2.51-2.49,2.36,5.9,3.09,11.72.83,20.32,2,8.3,1.55,14,2.8,9.64,2,14.1,2,7.67,0,11.4.21,5.29,1,8.81,1.14,2.9.1,6.64.1,5.7-.31,6.84,0a25.47,25.47,0,0,0,6.63.93h8.19c1,0,8.71,1.56,11.2.73s12-.73,14-.73,4.67,1.41,7.26,1.17,1.66-.55,5.7-.44,10.26.16,11.51.44,1.66,1.22,7.25.8,8.82-.31,12.13-.31,5.29,0,8.82.21a76.45,76.45,0,0,0,8.5.21c3.73-.11,6.42-.21,9.84-.42a81.58,81.58,0,0,1,9.75-.46c4,.15,3.63.57,9.95.36s10.26.1,13.17.1a59.36,59.36,0,0,1,6.63.46c3.21.27,4.83,1.1,7.39.89s14.17-.85,16.35-.89,1.35.16,7.77.16,13.9.11,15.87-.1a50.87,50.87,0,0,1,7.15-.41,80.8,80.8,0,0,0,9.95-.11c5.39-.41,10.78-.52,12.75-.52s9.64.31,14.72.42,6.43.21,13.58.1,12.13.62,15.14.11S379,174,379,174s12-.21,16.58-.21a39,39,0,0,0,11.3-1.14c5.91-1.24,4.67-1.76,9.33-1.76s10.89-.62,13.17-.73,3.52-.52,7.77-.93,5.19-.42,10-.62,12.85-2,17.62-2.39,10.78-1.35,12.33-1.45,19.29-1.45,20.63-3.21,1-2.59-2.59-2.91S467.1,156.41,465.86,154.55Z"/><path class="cls-3" d="M443.16,154.24c0-.94-8.61.83-11.3,0s-9.23-1.56-12.75-2-4.46-.73-6.22-.62-3.94-1.08-3.11,0-3.94,1,4,1.49a78.13,78.13,0,0,1,12.65,1.49c3.83.66,6.94,1.08,9.22,1.29S443.16,155.58,443.16,154.24Z"/><path class="cls-3" d="M443.16,154.24c0-.94-8.61.83-11.3,0s-9.23-1.56-12.75-2-4.46-.73-6.22-.62-3.94-1.08-3.11,0-3.94,1,4,1.49a78.13,78.13,0,0,1,12.65,1.49c3.83.66,6.94,1.08,9.22,1.29S443.16,155.58,443.16,154.24Z"/><path class="cls-3" d="M395.26,150.19c-.72,0-4.87,1.15-6.63,1s-6.33-1-6.33-1,.32.87-2.17,1-14.2,0-15.35,0-1.76,1.4,0,1.61,14.62-.21,17.52-.21,6.95-.42,10.06-.31S395.26,150.19,395.26,150.19Z"/><path class="cls-3" d="M395.26,150.19c-.72,0-4.87,1.15-6.63,1s-6.33-1-6.33-1,.32.87-2.17,1-14.2,0-15.35,0-1.76,1.4,0,1.61,14.62-.21,17.52-.21,6.95-.42,10.06-.31S395.26,150.19,395.26,150.19Z"/><path class="cls-3" d="M350.27,159.32c-.41,0,1.35-1,3.94,0a55.7,55.7,0,0,0,6.53,1.76c.93.31,2.49,1.87,1.14,2s-11,2.38-13.06,2.59-22.5,1.24-24.88,2.07-12.23.52-13.68.52-21.36.31-21.77-.41-2.49-.94-5.5-.94-21.35-.51-22.29.11-5.44,2-7.33,1.31-8-2.56-10.08-1.83-1.66.83-6.84.83-27.58.41-29.76-.21-4-2-6.11-1-.83,1.14-10,.93-14.31-.62-19.08-.83-9-.1-13-.21a38.7,38.7,0,0,1-8.08-.72,54.53,54.53,0,0,1-5.91-1.56c-2.18-.72-3.63-.28-3.11-1.33s10.26-3,13.27-3.48,26.12-2.65,28.4-2,1.45.83-3.94.93-16.38,2.59-18.55,2.9-8.19-.93-7.36.32,1.14,1.28,6.84,1.62a132.06,132.06,0,0,0,14.51,0c4.56-.17,6.84,0,9.54,0s7.57,0,7.57,0,5.08-3.08,8.7-3.8,4.15-.73,9.54-1,6.64-.63,7.15-1,2.39-2.79,4.77-1.86,1.25,2.38,7.36,2.18,18.87.62,16.07.83-8.6.1-10,.62-7.77.62-11.4.62-5.6,0-6.95.93-7.15,2-10.05,2.3-11,.92-11,.92.41,2,3.11,1.45,5-.11,7.88-.83a16.8,16.8,0,0,1,6.42-.73c3,.11,3,.52,6.74-.31s3.11-1,5.6-1.76,1.76-1.87,5.6-.93,5.49,2.1,9,2.19a76.44,76.44,0,0,0,9.84,0c4.57-.33,6.12-1.12,8.3-.77s3-.91,5-.49,3.53,2,5.5,2,4.14-.69,6.42-.71,5.29-.09,5.91,0-.72-1,3.32-.77,3.94.79,7,.77,6.32.53,8.08,0,2.08-1.53,4.46-.77a15.25,15.25,0,0,0,4.56.77c1.87.19,4.77-.92,4.56,0s-5,3.3-1.86,3.2,2.9,1.14,5.08-.31,4.56-2.89,4.56-2.89a33.75,33.75,0,0,0-10.78-1.78c-6.95-.21-13.48-.93-15.76-1.24s-8.81-.73-5.39-1.45,10.68-.63,15.86,0,11.09,1.14,14.62,1.86,9.74,1.38,7.88,2.61-7.05,1.33-5,1.75,3,.2,9.64-.21,9.43-.42,12.65-.42,7.05.63,8.19-.51S354.83,159.42,350.27,159.32Z"/><path class="cls-3" d="M350.27,159.32c-.41,0,1.35-1,3.94,0a55.7,55.7,0,0,0,6.53,1.76c.93.31,2.49,1.87,1.14,2s-11,2.38-13.06,2.59-22.5,1.24-24.88,2.07-12.23.52-13.68.52-21.36.31-21.77-.41-2.49-.94-5.5-.94-21.35-.51-22.29.11-5.44,2-7.33,1.31-8-2.56-10.08-1.83-1.66.83-6.84.83-27.58.41-29.76-.21-4-2-6.11-1-.83,1.14-10,.93-14.31-.62-19.08-.83-9-.1-13-.21a38.7,38.7,0,0,1-8.08-.72,54.53,54.53,0,0,1-5.91-1.56c-2.18-.72-3.63-.28-3.11-1.33s10.26-3,13.27-3.48,26.12-2.65,28.4-2,1.45.83-3.94.93-16.38,2.59-18.55,2.9-8.19-.93-7.36.32,1.14,1.28,6.84,1.62a132.06,132.06,0,0,0,14.51,0c4.56-.17,6.84,0,9.54,0s7.57,0,7.57,0,5.08-3.08,8.7-3.8,4.15-.73,9.54-1,6.64-.63,7.15-1,2.39-2.79,4.77-1.86,1.25,2.38,7.36,2.18,18.87.62,16.07.83-8.6.1-10,.62-7.77.62-11.4.62-5.6,0-6.95.93-7.15,2-10.05,2.3-11,.92-11,.92.41,2,3.11,1.45,5-.11,7.88-.83a16.8,16.8,0,0,1,6.42-.73c3,.11,3,.52,6.74-.31s3.11-1,5.6-1.76,1.76-1.87,5.6-.93,5.49,2.1,9,2.19a76.44,76.44,0,0,0,9.84,0c4.57-.33,6.12-1.12,8.3-.77s3-.91,5-.49,3.53,2,5.5,2,4.14-.69,6.42-.71,5.29-.09,5.91,0-.72-1,3.32-.77,3.94.79,7,.77,6.32.53,8.08,0,2.08-1.53,4.46-.77a15.25,15.25,0,0,0,4.56.77c1.87.19,4.77-.92,4.56,0s-5,3.3-1.86,3.2,2.9,1.14,5.08-.31,4.56-2.89,4.56-2.89a33.75,33.75,0,0,0-10.78-1.78c-6.95-.21-13.48-.93-15.76-1.24s-8.81-.73-5.39-1.45,10.68-.63,15.86,0,11.09,1.14,14.62,1.86,9.74,1.38,7.88,2.61-7.05,1.33-5,1.75,3,.2,9.64-.21,9.43-.42,12.65-.42,7.05.63,8.19-.51S354.83,159.42,350.27,159.32Z"/><path class="cls-3" d="M340.7,152.15c.26-.08,4.45,0,4.45,0s3.78,1.65.67,1.41-2.85-.77-4.78-.71-2,.18-2.6,0-.76.23-.59-.19S340.7,152.15,340.7,152.15Z"/><path class="cls-3" d="M340.7,152.15c.26-.08,4.45,0,4.45,0s3.78,1.65.67,1.41-2.85-.77-4.78-.71-2,.18-2.6,0-.76.23-.59-.19S340.7,152.15,340.7,152.15Z"/><path class="cls-3" d="M355.64,140.65c.17.4,1.34,2.27.34,2.69a5.4,5.4,0,0,1-2.35.5c-.76,0-1.93-1-1.93-1.59a1.8,1.8,0,0,1,.42-1.6c.58-.75.08-1.17.92-1.17S355.29,139.86,355.64,140.65Z"/><path class="cls-3" d="M355.64,140.65c.17.4,1.34,2.27.34,2.69a5.4,5.4,0,0,1-2.35.5c-.76,0-1.93-1-1.93-1.59a1.8,1.8,0,0,1,.42-1.6c.58-.75.08-1.17.92-1.17S355.29,139.86,355.64,140.65Z"/><path class="cls-3" d="M319.22,151.18a21,21,0,0,0-3.69-.37c-.67.08-2-.09-.92.71s1.76.47,2.85.59A2,2,0,0,0,319.22,151.18Z"/><path class="cls-3" d="M319.22,151.18a21,21,0,0,0-3.69-.37c-.67.08-2-.09-.92.71s1.76.47,2.85.59A2,2,0,0,0,319.22,151.18Z"/><path class="cls-3" d="M312.51,150.19c-.08.11.59.61-.59,1s-2.6,1.9-2.68.93-.51-1.77.17-1.92a14,14,0,0,1,1.84,0A9.93,9.93,0,0,1,312.51,150.19Z"/><path class="cls-3" d="M312.51,150.19c-.08.11.59.61-.59,1s-2.6,1.9-2.68.93-.51-1.77.17-1.92a14,14,0,0,1,1.84,0A9.93,9.93,0,0,1,312.51,150.19Z"/><path class="cls-3" d="M300.41,145.8l.17,3.83a1,1,0,0,1-1.05,1.3,2.29,2.29,0,0,1-1.42-.21,1.72,1.72,0,0,1-.64-.92,2.34,2.34,0,0,1,0-1.63c.19-.44.55-.78.78-1.2s.27-.68.45-1a1.11,1.11,0,0,1,.85-.62,1.06,1.06,0,0,1,.81.45Z"/><path class="cls-3" d="M300.41,145.8l.17,3.83a1,1,0,0,1-1.05,1.3,2.29,2.29,0,0,1-1.42-.21,1.72,1.72,0,0,1-.64-.92,2.34,2.34,0,0,1,0-1.63c.19-.44.55-.78.78-1.2s.27-.68.45-1a1.11,1.11,0,0,1,.85-.62,1.06,1.06,0,0,1,.81.45Z"/><path class="cls-3" d="M352.56,110.94c.57-.12,1.09-.4,1.66-.51a1.49,1.49,0,0,1,1.57.48A1.8,1.8,0,0,1,356,112a3,3,0,0,1-.59,1.81,3,3,0,0,1-1.43.77,2.17,2.17,0,0,1-1.23.1,2.21,2.21,0,0,1-.7-.43,2,2,0,0,1-.89-1.1,2.09,2.09,0,0,1,.08-.89,1.39,1.39,0,0,1,.5-.93c.28-.17.69-.17.8-.47Z"/><path class="cls-3" d="M352.56,110.94c.57-.12,1.09-.4,1.66-.51a1.49,1.49,0,0,1,1.57.48A1.8,1.8,0,0,1,356,112a3,3,0,0,1-.59,1.81,3,3,0,0,1-1.43.77,2.17,2.17,0,0,1-1.23.1,2.21,2.21,0,0,1-.7-.43,2,2,0,0,1-.89-1.1,2.09,2.09,0,0,1,.08-.89,1.39,1.39,0,0,1,.5-.93c.28-.17.69-.17.8-.47Z"/><path class="cls-3" d="M404.88,128.2c-.07.57.07,1.16,0,1.73s-.47,1.19-1.05,1.18a1,1,0,0,1-.82-.54,1.87,1.87,0,0,1-.18-1,2,2,0,0,1,.56-1.4,1.17,1.17,0,0,1,1.42-.19Z"/><path class="cls-3" d="M404.88,128.2c-.07.57.07,1.16,0,1.73s-.47,1.19-1.05,1.18a1,1,0,0,1-.82-.54,1.87,1.87,0,0,1-.18-1,2,2,0,0,1,.56-1.4,1.17,1.17,0,0,1,1.42-.19Z"/><path class="cls-3" d="M268.33,138.88c.09,1.47.13,2.94.14,4.42a2,2,0,0,1-.2,1.06,1.34,1.34,0,0,1-1,.58,4.06,4.06,0,0,1-1.2-.09,2.36,2.36,0,0,1-1.7-.85,2.33,2.33,0,0,1-.14-1.46c.08-.62.15-1.24.23-1.86a1.23,1.23,0,0,1,.14-.53,1.34,1.34,0,0,1,.37-.34,4.9,4.9,0,0,1,3.09-1.21Z"/><path class="cls-3" d="M268.33,138.88c.09,1.47.13,2.94.14,4.42a2,2,0,0,1-.2,1.06,1.34,1.34,0,0,1-1,.58,4.06,4.06,0,0,1-1.2-.09,2.36,2.36,0,0,1-1.7-.85,2.33,2.33,0,0,1-.14-1.46c.08-.62.15-1.24.23-1.86a1.23,1.23,0,0,1,.14-.53,1.34,1.34,0,0,1,.37-.34,4.9,4.9,0,0,1,3.09-1.21Z"/><path class="cls-3" d="M256.9,143.22a3.07,3.07,0,0,1,1.05-.3,1.19,1.19,0,0,1,1,.41,1.25,1.25,0,0,1,.21.87,2,2,0,0,1-.51,1.24,1.48,1.48,0,0,1-1.25.45,1.41,1.41,0,0,1-1.12-1.21,1.83,1.83,0,0,1,.6-1.58Z"/><path class="cls-3" d="M256.9,143.22a3.07,3.07,0,0,1,1.05-.3,1.19,1.19,0,0,1,1,.41,1.25,1.25,0,0,1,.21.87,2,2,0,0,1-.51,1.24,1.48,1.48,0,0,1-1.25.45,1.41,1.41,0,0,1-1.12-1.21,1.83,1.83,0,0,1,.6-1.58Z"/><path class="cls-3" d="M254.6,157l1.6.15a3.07,3.07,0,0,1,1.9.64.89.89,0,0,1,.29.8c-.14.5-.8.6-1.32.6l-3.57,0a.29.29,0,0,1-.16,0,.28.28,0,0,1-.11-.17,1.48,1.48,0,0,1,1.16-1.83Z"/><path class="cls-3" d="M254.6,157l1.6.15a3.07,3.07,0,0,1,1.9.64.89.89,0,0,1,.29.8c-.14.5-.8.6-1.32.6l-3.57,0a.29.29,0,0,1-.16,0,.28.28,0,0,1-.11-.17,1.48,1.48,0,0,1,1.16-1.83Z"/><path class="cls-3" d="M244.37,148.29h2.23a1.51,1.51,0,0,1,.56.07,1.46,1.46,0,0,1,.61.62.35.35,0,0,1,.09.23c0,.19-.25.27-.44.29l-2.17.28a1.94,1.94,0,0,1-.76,0,.71.71,0,0,1-.55-.48,1,1,0,0,1,.25-.81Z"/><path class="cls-3" d="M244.37,148.29h2.23a1.51,1.51,0,0,1,.56.07,1.46,1.46,0,0,1,.61.62.35.35,0,0,1,.09.23c0,.19-.25.27-.44.29l-2.17.28a1.94,1.94,0,0,1-.76,0,.71.71,0,0,1-.55-.48,1,1,0,0,1,.25-.81Z"/><path class="cls-3" d="M210.42,133.25a2.73,2.73,0,0,1,.92,1.19.94.94,0,0,1-.61,1.2,1.23,1.23,0,0,1-1-.46c-.41-.39-.78-1-.46-1.48s.82-.38,1.28-.33Z"/><path class="cls-3" d="M210.42,133.25a2.73,2.73,0,0,1,.92,1.19.94.94,0,0,1-.61,1.2,1.23,1.23,0,0,1-1-.46c-.41-.39-.78-1-.46-1.48s.82-.38,1.28-.33Z"/><path class="cls-3" d="M210.19,104.05c.61.57,1.66,0,2.41.39a1.69,1.69,0,0,1,.69.71,3.27,3.27,0,0,1,.39,1.19,1.3,1.3,0,0,1-.05.68,1.56,1.56,0,0,1-.46.56,3.59,3.59,0,0,1-1.74,1.07,3.44,3.44,0,0,1-1.58-.23,3.18,3.18,0,0,1-1-.45,2.13,2.13,0,0,1-.67-2.34,3,3,0,0,1,1.81-1.75Z"/><path class="cls-3" d="M210.19,104.05c.61.57,1.66,0,2.41.39a1.69,1.69,0,0,1,.69.71,3.27,3.27,0,0,1,.39,1.19,1.3,1.3,0,0,1-.05.68,1.56,1.56,0,0,1-.46.56,3.59,3.59,0,0,1-1.74,1.07,3.44,3.44,0,0,1-1.58-.23,3.18,3.18,0,0,1-1-.45,2.13,2.13,0,0,1-.67-2.34,3,3,0,0,1,1.81-1.75Z"/><path class="cls-3" d="M179.75,110.05c.06.56.13,1.13.2,1.7a1.22,1.22,0,0,1,0,.57,1.11,1.11,0,0,1-.44.47,3.9,3.9,0,0,1-4.19,0,.59.59,0,0,1-.31-.38c0-.25.21-.44.39-.63a6.08,6.08,0,0,0,.62-1,2.7,2.7,0,0,1,3.69-.79Z"/><path class="cls-3" d="M179.75,110.05c.06.56.13,1.13.2,1.7a1.22,1.22,0,0,1,0,.57,1.11,1.11,0,0,1-.44.47,3.9,3.9,0,0,1-4.19,0,.59.59,0,0,1-.31-.38c0-.25.21-.44.39-.63a6.08,6.08,0,0,0,.62-1,2.7,2.7,0,0,1,3.69-.79Z"/><path class="cls-3" d="M160.34,128.29c-.07.54,0,1.09,0,1.63a1.35,1.35,0,0,1-.91,1.23.42.42,0,0,1-.51-.2,1.65,1.65,0,0,1,0-.32c0-.2-.22-.33-.35-.49a1.2,1.2,0,0,1,1.58-1.77Z"/><path class="cls-3" d="M160.34,128.29c-.07.54,0,1.09,0,1.63a1.35,1.35,0,0,1-.91,1.23.42.42,0,0,1-.51-.2,1.65,1.65,0,0,1,0-.32c0-.2-.22-.33-.35-.49a1.2,1.2,0,0,1,1.58-1.77Z"/><path class="cls-3" d="M162.27,140.91a6.23,6.23,0,0,1-.34,2.57,1.91,1.91,0,0,1-.45.78,1.37,1.37,0,0,1-1.66.11,1.88,1.88,0,0,1-.81-1.53,3.18,3.18,0,0,1,.5-1.71.62.62,0,0,1,.23-.25.71.71,0,0,1,.41,0L162,141Z"/><path class="cls-3" d="M162.27,140.91a6.23,6.23,0,0,1-.34,2.57,1.91,1.91,0,0,1-.45.78,1.37,1.37,0,0,1-1.66.11,1.88,1.88,0,0,1-.81-1.53,3.18,3.18,0,0,1,.5-1.71.62.62,0,0,1,.23-.25.71.71,0,0,1,.41,0L162,141Z"/><path class="cls-3" d="M106.43,124.05l-1.12,1.7a3.92,3.92,0,0,0-.68,1.39c-.1.58,0,1.26-.38,1.68a1.28,1.28,0,0,1-.84.31,1,1,0,0,1-.52-.08c-.53-.26-.48-1-.67-1.57a5.12,5.12,0,0,0-.31-.62,3.59,3.59,0,0,1-.13-2.82,4,4,0,0,1,1.9-2.12,1,1,0,0,1,.65-.16,1.16,1.16,0,0,1,.55.33l1.78,1.56Z"/><path class="cls-3" d="M106.43,124.05l-1.12,1.7a3.92,3.92,0,0,0-.68,1.39c-.1.58,0,1.26-.38,1.68a1.28,1.28,0,0,1-.84.31,1,1,0,0,1-.52-.08c-.53-.26-.48-1-.67-1.57a5.12,5.12,0,0,0-.31-.62,3.59,3.59,0,0,1-.13-2.82,4,4,0,0,1,1.9-2.12,1,1,0,0,1,.65-.16,1.16,1.16,0,0,1,.55.33l1.78,1.56Z"/><path class="cls-3" d="M104,143.08a11.64,11.64,0,0,0,0,1.77,1.37,1.37,0,0,1-.91,1.36c-.56.1-1-.35-1.44-.76a3.23,3.23,0,0,1-.78-1.13,1.58,1.58,0,0,1,.45-1.62,3,3,0,0,1,2.11-.52.48.48,0,0,1,.24.06c.22.15,0,.63.3.72Z"/><path class="cls-3" d="M104,143.08a11.64,11.64,0,0,0,0,1.77,1.37,1.37,0,0,1-.91,1.36c-.56.1-1-.35-1.44-.76a3.23,3.23,0,0,1-.78-1.13,1.58,1.58,0,0,1,.45-1.62,3,3,0,0,1,2.11-.52.48.48,0,0,1,.24.06c.22.15,0,.63.3.72Z"/><path class="cls-3" d="M242.7,146.79c-.09-.12-23.83.1-27.13,0s-25.09-.24-25.91.24-4.71.44-4.71.44-6.6.92-5.29,1.26,26.3,1.6,26.2.63-2-1.38-.14-1.34,19-.49,18.29.26-1.45,1.13,2.72,1.13,13-.23,12.18-1.13S244,148.44,242.7,146.79Z"/><path class="cls-3" d="M242.7,146.79c-.09-.12-23.83.1-27.13,0s-25.09-.24-25.91.24-4.71.44-4.71.44-6.6.92-5.29,1.26,26.3,1.6,26.2.63-2-1.38-.14-1.34,19-.49,18.29.26-1.45,1.13,2.72,1.13,13-.23,12.18-1.13S244,148.44,242.7,146.79Z"/><g class="cls-4"><path class="cls-5" d="M465.86,154.55c-.17-.26-5.91,1.14-3.94,1.14s7.67,1.86,9.43,2,15,1.55,18.14,1.66,8.3,1.24,7.05,1.45-9.84,2.07-12.13,2.18-16.89,1.86-19.59,1.86-16.58,2-18,2.07-4.14.11-4.87-1.76-1.66-3.42-2-2.17-1.14,2.9-2,1.86-1.35-1.66-1.66-.41-2.9,2.66-4.45,2.52-4.25,1.1-5.19,1.62a20.75,20.75,0,0,1-5.18,1c-.62,0-13.89.62-13.89.93s-.52.94-3.32.94-.72.31-3.73.51-10.37.31-12.44.31-1.66-.51-2.07,0-27.68,1.25-27.68,1.25H308s-2-2.9-2.7-2S304,173.73,303,173.1s-2.49-3-3.73-1.86,2.38,1.35-3.73,2.28-39.81,1.76-42.61.93a30.07,30.07,0,0,0-8.6-1H226.18c-.93,0-36.69.72-36.69.72s-36.81-1.45-40.23-1.24-5.08.83-5.91-.31-4.56-1-8.81-.83-14,.93-15.34.2-3-2.59-4.15-1.86a3.89,3.89,0,0,1-3.83,0c-1.45-.62-2.49-.93-3.42.41s-5.5,2.39-7.36,1.35-1.66-1.14-6.53-1.14-13,.83-13.89-.41S70,170.31,67.37,169s-3.11-5.26-3.94-4.29-.62,6.57-3.63,1.07-4.35-8.5-4.77-5.8.93,6.53-.83,5.91-3.83-1.94-4.56-1.18-3.42.87-8.29.45-31.31-2-30.07-3.32,19.08-4.66,25.09-5.39S68.82,153.3,76,153.3s44,.63,48.62.63,6.95-1.66,18.56-2.18,26.64-2,29.23-2.18S175,148,174,148s-6.74.31-9.43.62-12.75.62-16.38.83-7.57-.31-10.27.41-5.39.83-7.87,1.45-9.23.94-10.58,1-13.68-.93-16.48-1.14-7.88-.93-10.78-.62-6.64.72-10.27.93-7.56.73-9.43.83-8.19.31-10.88.52-7.16.73-9.23.83-12.65.62-16.59.93-7.25,1.76-11.4,2.39-8.91,1.34-11.51,1.86-4.87,1.28-4.45,2.51-2.49,2.36,5.9,3.09,11.72.83,20.32,2,8.3,1.55,14,2.8,9.64,2,14.1,2,7.67,0,11.4.21,5.29,1,8.81,1.14,2.9.1,6.64.1,5.7-.31,6.84,0a25.47,25.47,0,0,0,6.63.93h8.19c1,0,8.71,1.56,11.2.73s12-.73,14-.73,4.67,1.41,7.26,1.17,1.66-.55,5.7-.44,10.26.16,11.51.44,1.66,1.22,7.25.8,8.82-.31,12.13-.31,5.29,0,8.82.21a76.45,76.45,0,0,0,8.5.21c3.73-.11,6.42-.21,9.84-.42a81.58,81.58,0,0,1,9.75-.46c4,.15,3.63.57,9.95.36s10.26.1,13.17.1a59.36,59.36,0,0,1,6.63.46c3.21.27,4.83,1.1,7.39.89s14.17-.85,16.35-.89,1.35.16,7.77.16,13.9.11,15.87-.1a50.87,50.87,0,0,1,7.15-.41,80.8,80.8,0,0,0,9.95-.11c5.39-.41,10.78-.52,12.75-.52s9.64.31,14.72.42,6.43.21,13.58.1,12.13.62,15.14.11S379,174,379,174s12-.21,16.58-.21a39,39,0,0,0,11.3-1.14c5.91-1.24,4.67-1.76,9.33-1.76s10.89-.62,13.17-.73,3.52-.52,7.77-.93,5.19-.42,10-.62,12.85-2,17.62-2.39,10.78-1.35,12.33-1.45,19.29-1.45,20.63-3.21,1-2.59-2.59-2.91S467.1,156.41,465.86,154.55Z"/><path class="cls-5" d="M465.86,154.55c-.17-.26-5.91,1.14-3.94,1.14s7.67,1.86,9.43,2,15,1.55,18.14,1.66,8.3,1.24,7.05,1.45-9.84,2.07-12.13,2.18-16.89,1.86-19.59,1.86-16.58,2-18,2.07-4.14.11-4.87-1.76-1.66-3.42-2-2.17-1.14,2.9-2,1.86-1.35-1.66-1.66-.41-2.9,2.66-4.45,2.52-4.25,1.1-5.19,1.62a20.75,20.75,0,0,1-5.18,1c-.62,0-13.89.62-13.89.93s-.52.94-3.32.94-.72.31-3.73.51-10.37.31-12.44.31-1.66-.51-2.07,0-27.68,1.25-27.68,1.25H308s-2-2.9-2.7-2S304,173.73,303,173.1s-2.49-3-3.73-1.86,2.38,1.35-3.73,2.28-39.81,1.76-42.61.93a30.07,30.07,0,0,0-8.6-1H226.18c-.93,0-36.69.72-36.69.72s-36.81-1.45-40.23-1.24-5.08.83-5.91-.31-4.56-1-8.81-.83-14,.93-15.34.2-3-2.59-4.15-1.86a3.89,3.89,0,0,1-3.83,0c-1.45-.62-2.49-.93-3.42.41s-5.5,2.39-7.36,1.35-1.66-1.14-6.53-1.14-13,.83-13.89-.41S70,170.31,67.37,169s-3.11-5.26-3.94-4.29-.62,6.57-3.63,1.07-4.35-8.5-4.77-5.8.93,6.53-.83,5.91-3.83-1.94-4.56-1.18-3.42.87-8.29.45-31.31-2-30.07-3.32,19.08-4.66,25.09-5.39S68.82,153.3,76,153.3s44,.63,48.62.63,6.95-1.66,18.56-2.18,26.64-2,29.23-2.18S175,148,174,148s-6.74.31-9.43.62-12.75.62-16.38.83-7.57-.31-10.27.41-5.39.83-7.87,1.45-9.23.94-10.58,1-13.68-.93-16.48-1.14-7.88-.93-10.78-.62-6.64.72-10.27.93-7.56.73-9.43.83-8.19.31-10.88.52-7.16.73-9.23.83-12.65.62-16.59.93-7.25,1.76-11.4,2.39-8.91,1.34-11.51,1.86-4.87,1.28-4.45,2.51-2.49,2.36,5.9,3.09,11.72.83,20.32,2,8.3,1.55,14,2.8,9.64,2,14.1,2,7.67,0,11.4.21,5.29,1,8.81,1.14,2.9.1,6.64.1,5.7-.31,6.84,0a25.47,25.47,0,0,0,6.63.93h8.19c1,0,8.71,1.56,11.2.73s12-.73,14-.73,4.67,1.41,7.26,1.17,1.66-.55,5.7-.44,10.26.16,11.51.44,1.66,1.22,7.25.8,8.82-.31,12.13-.31,5.29,0,8.82.21a76.45,76.45,0,0,0,8.5.21c3.73-.11,6.42-.21,9.84-.42a81.58,81.58,0,0,1,9.75-.46c4,.15,3.63.57,9.95.36s10.26.1,13.17.1a59.36,59.36,0,0,1,6.63.46c3.21.27,4.83,1.1,7.39.89s14.17-.85,16.35-.89,1.35.16,7.77.16,13.9.11,15.87-.1a50.87,50.87,0,0,1,7.15-.41,80.8,80.8,0,0,0,9.95-.11c5.39-.41,10.78-.52,12.75-.52s9.64.31,14.72.42,6.43.21,13.58.1,12.13.62,15.14.11S379,174,379,174s12-.21,16.58-.21a39,39,0,0,0,11.3-1.14c5.91-1.24,4.67-1.76,9.33-1.76s10.89-.62,13.17-.73,3.52-.52,7.77-.93,5.19-.42,10-.62,12.85-2,17.62-2.39,10.78-1.35,12.33-1.45,19.29-1.45,20.63-3.21,1-2.59-2.59-2.91S467.1,156.41,465.86,154.55Z"/><path class="cls-6" d="M443.16,154.24c0-.94-8.61.83-11.3,0s-9.23-1.56-12.75-2-4.46-.73-6.22-.62-3.94-1.08-3.11,0-3.94,1,4,1.49a78.13,78.13,0,0,1,12.65,1.49c3.83.66,6.94,1.08,9.22,1.29S443.16,155.58,443.16,154.24Z"/><path class="cls-6" d="M443.16,154.24c0-.94-8.61.83-11.3,0s-9.23-1.56-12.75-2-4.46-.73-6.22-.62-3.94-1.08-3.11,0-3.94,1,4,1.49a78.13,78.13,0,0,1,12.65,1.49c3.83.66,6.94,1.08,9.22,1.29S443.16,155.58,443.16,154.24Z"/><path class="cls-7" d="M395.26,150.19c-.72,0-4.87,1.15-6.63,1s-6.33-1-6.33-1,.32.87-2.17,1-14.2,0-15.35,0-1.76,1.4,0,1.61,14.62-.21,17.52-.21,6.95-.42,10.06-.31S395.26,150.19,395.26,150.19Z"/><path class="cls-7" d="M395.26,150.19c-.72,0-4.87,1.15-6.63,1s-6.33-1-6.33-1,.32.87-2.17,1-14.2,0-15.35,0-1.76,1.4,0,1.61,14.62-.21,17.52-.21,6.95-.42,10.06-.31S395.26,150.19,395.26,150.19Z"/><path class="cls-8" d="M350.27,159.32c-.41,0,1.35-1,3.94,0a55.7,55.7,0,0,0,6.53,1.76c.93.31,2.49,1.87,1.14,2s-11,2.38-13.06,2.59-22.5,1.24-24.88,2.07-12.23.52-13.68.52-21.36.31-21.77-.41-2.49-.94-5.5-.94-21.35-.51-22.29.11-5.44,2-7.33,1.31-8-2.56-10.08-1.83-1.66.83-6.84.83-27.58.41-29.76-.21-4-2-6.11-1-.83,1.14-10,.93-14.31-.62-19.08-.83-9-.1-13-.21a38.7,38.7,0,0,1-8.08-.72,54.53,54.53,0,0,1-5.91-1.56c-2.18-.72-3.63-.28-3.11-1.33s10.26-3,13.27-3.48,26.12-2.65,28.4-2,1.45.83-3.94.93-16.38,2.59-18.55,2.9-8.19-.93-7.36.32,1.14,1.28,6.84,1.62a132.06,132.06,0,0,0,14.51,0c4.56-.17,6.84,0,9.54,0s7.57,0,7.57,0,5.08-3.08,8.7-3.8,4.15-.73,9.54-1,6.64-.63,7.15-1,2.39-2.79,4.77-1.86,1.25,2.38,7.36,2.18,18.87.62,16.07.83-8.6.1-10,.62-7.77.62-11.4.62-5.6,0-6.95.93-7.15,2-10.05,2.3-11,.92-11,.92.41,2,3.11,1.45,5-.11,7.88-.83a16.8,16.8,0,0,1,6.42-.73c3,.11,3,.52,6.74-.31s3.11-1,5.6-1.76,1.76-1.87,5.6-.93,5.49,2.1,9,2.19a76.44,76.44,0,0,0,9.84,0c4.57-.33,6.12-1.12,8.3-.77s3-.91,5-.49,3.53,2,5.5,2,4.14-.69,6.42-.71,5.29-.09,5.91,0-.72-1,3.32-.77,3.94.79,7,.77,6.32.53,8.08,0,2.08-1.53,4.46-.77a15.25,15.25,0,0,0,4.56.77c1.87.19,4.77-.92,4.56,0s-5,3.3-1.86,3.2,2.9,1.14,5.08-.31,4.56-2.89,4.56-2.89a33.75,33.75,0,0,0-10.78-1.78c-6.95-.21-13.48-.93-15.76-1.24s-8.81-.73-5.39-1.45,10.68-.63,15.86,0,11.09,1.14,14.62,1.86,9.74,1.38,7.88,2.61-7.05,1.33-5,1.75,3,.2,9.64-.21,9.43-.42,12.65-.42,7.05.63,8.19-.51S354.83,159.42,350.27,159.32Z"/><path class="cls-8" d="M350.27,159.32c-.41,0,1.35-1,3.94,0a55.7,55.7,0,0,0,6.53,1.76c.93.31,2.49,1.87,1.14,2s-11,2.38-13.06,2.59-22.5,1.24-24.88,2.07-12.23.52-13.68.52-21.36.31-21.77-.41-2.49-.94-5.5-.94-21.35-.51-22.29.11-5.44,2-7.33,1.31-8-2.56-10.08-1.83-1.66.83-6.84.83-27.58.41-29.76-.21-4-2-6.11-1-.83,1.14-10,.93-14.31-.62-19.08-.83-9-.1-13-.21a38.7,38.7,0,0,1-8.08-.72,54.53,54.53,0,0,1-5.91-1.56c-2.18-.72-3.63-.28-3.11-1.33s10.26-3,13.27-3.48,26.12-2.65,28.4-2,1.45.83-3.94.93-16.38,2.59-18.55,2.9-8.19-.93-7.36.32,1.14,1.28,6.84,1.62a132.06,132.06,0,0,0,14.51,0c4.56-.17,6.84,0,9.54,0s7.57,0,7.57,0,5.08-3.08,8.7-3.8,4.15-.73,9.54-1,6.64-.63,7.15-1,2.39-2.79,4.77-1.86,1.25,2.38,7.36,2.18,18.87.62,16.07.83-8.6.1-10,.62-7.77.62-11.4.62-5.6,0-6.95.93-7.15,2-10.05,2.3-11,.92-11,.92.41,2,3.11,1.45,5-.11,7.88-.83a16.8,16.8,0,0,1,6.42-.73c3,.11,3,.52,6.74-.31s3.11-1,5.6-1.76,1.76-1.87,5.6-.93,5.49,2.1,9,2.19a76.44,76.44,0,0,0,9.84,0c4.57-.33,6.12-1.12,8.3-.77s3-.91,5-.49,3.53,2,5.5,2,4.14-.69,6.42-.71,5.29-.09,5.91,0-.72-1,3.32-.77,3.94.79,7,.77,6.32.53,8.08,0,2.08-1.53,4.46-.77a15.25,15.25,0,0,0,4.56.77c1.87.19,4.77-.92,4.56,0s-5,3.3-1.86,3.2,2.9,1.14,5.08-.31,4.56-2.89,4.56-2.89a33.75,33.75,0,0,0-10.78-1.78c-6.95-.21-13.48-.93-15.76-1.24s-8.81-.73-5.39-1.45,10.68-.63,15.86,0,11.09,1.14,14.62,1.86,9.74,1.38,7.88,2.61-7.05,1.33-5,1.75,3,.2,9.64-.21,9.43-.42,12.65-.42,7.05.63,8.19-.51S354.83,159.42,350.27,159.32Z"/><path class="cls-9" d="M340.7,152.15c.26-.08,4.45,0,4.45,0s3.78,1.65.67,1.41-2.85-.77-4.78-.71-2,.18-2.6,0-.76.23-.59-.19S340.7,152.15,340.7,152.15Z"/><path class="cls-9" d="M340.7,152.15c.26-.08,4.45,0,4.45,0s3.78,1.65.67,1.41-2.85-.77-4.78-.71-2,.18-2.6,0-.76.23-.59-.19S340.7,152.15,340.7,152.15Z"/><path class="cls-10" d="M355.64,140.65c.17.4,1.34,2.27.34,2.69a5.4,5.4,0,0,1-2.35.5c-.76,0-1.93-1-1.93-1.59a1.8,1.8,0,0,1,.42-1.6c.58-.75.08-1.17.92-1.17S355.29,139.86,355.64,140.65Z"/><path class="cls-10" d="M355.64,140.65c.17.4,1.34,2.27.34,2.69a5.4,5.4,0,0,1-2.35.5c-.76,0-1.93-1-1.93-1.59a1.8,1.8,0,0,1,.42-1.6c.58-.75.08-1.17.92-1.17S355.29,139.86,355.64,140.65Z"/><path class="cls-11" d="M319.22,151.18a21,21,0,0,0-3.69-.37c-.67.08-2-.09-.92.71s1.76.47,2.85.59A2,2,0,0,0,319.22,151.18Z"/><path class="cls-11" d="M319.22,151.18a21,21,0,0,0-3.69-.37c-.67.08-2-.09-.92.71s1.76.47,2.85.59A2,2,0,0,0,319.22,151.18Z"/><path class="cls-12" d="M312.51,150.19c-.08.11.59.61-.59,1s-2.6,1.9-2.68.93-.51-1.77.17-1.92a14,14,0,0,1,1.84,0A9.93,9.93,0,0,1,312.51,150.19Z"/><path class="cls-12" d="M312.51,150.19c-.08.11.59.61-.59,1s-2.6,1.9-2.68.93-.51-1.77.17-1.92a14,14,0,0,1,1.84,0A9.93,9.93,0,0,1,312.51,150.19Z"/><path class="cls-13" d="M300.41,145.8l.17,3.83a1,1,0,0,1-1.05,1.3,2.29,2.29,0,0,1-1.42-.21,1.72,1.72,0,0,1-.64-.92,2.34,2.34,0,0,1,0-1.63c.19-.44.55-.78.78-1.2s.27-.68.45-1a1.11,1.11,0,0,1,.85-.62,1.06,1.06,0,0,1,.81.45Z"/><path class="cls-13" d="M300.41,145.8l.17,3.83a1,1,0,0,1-1.05,1.3,2.29,2.29,0,0,1-1.42-.21,1.72,1.72,0,0,1-.64-.92,2.34,2.34,0,0,1,0-1.63c.19-.44.55-.78.78-1.2s.27-.68.45-1a1.11,1.11,0,0,1,.85-.62,1.06,1.06,0,0,1,.81.45Z"/><path class="cls-14" d="M352.56,110.94c.57-.12,1.09-.4,1.66-.51a1.49,1.49,0,0,1,1.57.48A1.8,1.8,0,0,1,356,112a3,3,0,0,1-.59,1.81,3,3,0,0,1-1.43.77,2.17,2.17,0,0,1-1.23.1,2.21,2.21,0,0,1-.7-.43,2,2,0,0,1-.89-1.1,2.09,2.09,0,0,1,.08-.89,1.39,1.39,0,0,1,.5-.93c.28-.17.69-.17.8-.47Z"/><path class="cls-14" d="M352.56,110.94c.57-.12,1.09-.4,1.66-.51a1.49,1.49,0,0,1,1.57.48A1.8,1.8,0,0,1,356,112a3,3,0,0,1-.59,1.81,3,3,0,0,1-1.43.77,2.17,2.17,0,0,1-1.23.1,2.21,2.21,0,0,1-.7-.43,2,2,0,0,1-.89-1.1,2.09,2.09,0,0,1,.08-.89,1.39,1.39,0,0,1,.5-.93c.28-.17.69-.17.8-.47Z"/><path class="cls-15" d="M404.88,128.2c-.07.57.07,1.16,0,1.73s-.47,1.19-1.05,1.18a1,1,0,0,1-.82-.54,1.87,1.87,0,0,1-.18-1,2,2,0,0,1,.56-1.4,1.17,1.17,0,0,1,1.42-.19Z"/><path class="cls-15" d="M404.88,128.2c-.07.57.07,1.16,0,1.73s-.47,1.19-1.05,1.18a1,1,0,0,1-.82-.54,1.87,1.87,0,0,1-.18-1,2,2,0,0,1,.56-1.4,1.17,1.17,0,0,1,1.42-.19Z"/><path class="cls-16" d="M268.33,138.88c.09,1.47.13,2.94.14,4.42a2,2,0,0,1-.2,1.06,1.34,1.34,0,0,1-1,.58,4.06,4.06,0,0,1-1.2-.09,2.36,2.36,0,0,1-1.7-.85,2.33,2.33,0,0,1-.14-1.46c.08-.62.15-1.24.23-1.86a1.23,1.23,0,0,1,.14-.53,1.34,1.34,0,0,1,.37-.34,4.9,4.9,0,0,1,3.09-1.21Z"/><path class="cls-16" d="M268.33,138.88c.09,1.47.13,2.94.14,4.42a2,2,0,0,1-.2,1.06,1.34,1.34,0,0,1-1,.58,4.06,4.06,0,0,1-1.2-.09,2.36,2.36,0,0,1-1.7-.85,2.33,2.33,0,0,1-.14-1.46c.08-.62.15-1.24.23-1.86a1.23,1.23,0,0,1,.14-.53,1.34,1.34,0,0,1,.37-.34,4.9,4.9,0,0,1,3.09-1.21Z"/><path class="cls-17" d="M256.9,143.22a3.07,3.07,0,0,1,1.05-.3,1.19,1.19,0,0,1,1,.41,1.25,1.25,0,0,1,.21.87,2,2,0,0,1-.51,1.24,1.48,1.48,0,0,1-1.25.45,1.41,1.41,0,0,1-1.12-1.21,1.83,1.83,0,0,1,.6-1.58Z"/><path class="cls-17" d="M256.9,143.22a3.07,3.07,0,0,1,1.05-.3,1.19,1.19,0,0,1,1,.41,1.25,1.25,0,0,1,.21.87,2,2,0,0,1-.51,1.24,1.48,1.48,0,0,1-1.25.45,1.41,1.41,0,0,1-1.12-1.21,1.83,1.83,0,0,1,.6-1.58Z"/><path class="cls-18" d="M254.6,157l1.6.15a3.07,3.07,0,0,1,1.9.64.89.89,0,0,1,.29.8c-.14.5-.8.6-1.32.6l-3.57,0a.29.29,0,0,1-.16,0,.28.28,0,0,1-.11-.17,1.48,1.48,0,0,1,1.16-1.83Z"/><path class="cls-18" d="M254.6,157l1.6.15a3.07,3.07,0,0,1,1.9.64.89.89,0,0,1,.29.8c-.14.5-.8.6-1.32.6l-3.57,0a.29.29,0,0,1-.16,0,.28.28,0,0,1-.11-.17,1.48,1.48,0,0,1,1.16-1.83Z"/><path class="cls-19" d="M244.37,148.29h2.23a1.51,1.51,0,0,1,.56.07,1.46,1.46,0,0,1,.61.62.35.35,0,0,1,.09.23c0,.19-.25.27-.44.29l-2.17.28a1.94,1.94,0,0,1-.76,0,.71.71,0,0,1-.55-.48,1,1,0,0,1,.25-.81Z"/><path class="cls-19" d="M244.37,148.29h2.23a1.51,1.51,0,0,1,.56.07,1.46,1.46,0,0,1,.61.62.35.35,0,0,1,.09.23c0,.19-.25.27-.44.29l-2.17.28a1.94,1.94,0,0,1-.76,0,.71.71,0,0,1-.55-.48,1,1,0,0,1,.25-.81Z"/><path class="cls-20" d="M210.42,133.25a2.73,2.73,0,0,1,.92,1.19.94.94,0,0,1-.61,1.2,1.23,1.23,0,0,1-1-.46c-.41-.39-.78-1-.46-1.48s.82-.38,1.28-.33Z"/><path class="cls-20" d="M210.42,133.25a2.73,2.73,0,0,1,.92,1.19.94.94,0,0,1-.61,1.2,1.23,1.23,0,0,1-1-.46c-.41-.39-.78-1-.46-1.48s.82-.38,1.28-.33Z"/><path class="cls-21" d="M210.19,104.05c.61.57,1.66,0,2.41.39a1.69,1.69,0,0,1,.69.71,3.27,3.27,0,0,1,.39,1.19,1.3,1.3,0,0,1-.05.68,1.56,1.56,0,0,1-.46.56,3.59,3.59,0,0,1-1.74,1.07,3.44,3.44,0,0,1-1.58-.23,3.18,3.18,0,0,1-1-.45,2.13,2.13,0,0,1-.67-2.34,3,3,0,0,1,1.81-1.75Z"/><path class="cls-21" d="M210.19,104.05c.61.57,1.66,0,2.41.39a1.69,1.69,0,0,1,.69.71,3.27,3.27,0,0,1,.39,1.19,1.3,1.3,0,0,1-.05.68,1.56,1.56,0,0,1-.46.56,3.59,3.59,0,0,1-1.74,1.07,3.44,3.44,0,0,1-1.58-.23,3.18,3.18,0,0,1-1-.45,2.13,2.13,0,0,1-.67-2.34,3,3,0,0,1,1.81-1.75Z"/><path class="cls-22" d="M179.75,110.05c.06.56.13,1.13.2,1.7a1.22,1.22,0,0,1,0,.57,1.11,1.11,0,0,1-.44.47,3.9,3.9,0,0,1-4.19,0,.59.59,0,0,1-.31-.38c0-.25.21-.44.39-.63a6.08,6.08,0,0,0,.62-1,2.7,2.7,0,0,1,3.69-.79Z"/><path class="cls-22" d="M179.75,110.05c.06.56.13,1.13.2,1.7a1.22,1.22,0,0,1,0,.57,1.11,1.11,0,0,1-.44.47,3.9,3.9,0,0,1-4.19,0,.59.59,0,0,1-.31-.38c0-.25.21-.44.39-.63a6.08,6.08,0,0,0,.62-1,2.7,2.7,0,0,1,3.69-.79Z"/><path class="cls-23" d="M160.34,128.29c-.07.54,0,1.09,0,1.63a1.35,1.35,0,0,1-.91,1.23.42.42,0,0,1-.51-.2,1.65,1.65,0,0,1,0-.32c0-.2-.22-.33-.35-.49a1.2,1.2,0,0,1,1.58-1.77Z"/><path class="cls-23" d="M160.34,128.29c-.07.54,0,1.09,0,1.63a1.35,1.35,0,0,1-.91,1.23.42.42,0,0,1-.51-.2,1.65,1.65,0,0,1,0-.32c0-.2-.22-.33-.35-.49a1.2,1.2,0,0,1,1.58-1.77Z"/><path class="cls-24" d="M162.27,140.91a6.23,6.23,0,0,1-.34,2.57,1.91,1.91,0,0,1-.45.78,1.37,1.37,0,0,1-1.66.11,1.88,1.88,0,0,1-.81-1.53,3.18,3.18,0,0,1,.5-1.71.62.62,0,0,1,.23-.25.71.71,0,0,1,.41,0L162,141Z"/><path class="cls-24" d="M162.27,140.91a6.23,6.23,0,0,1-.34,2.57,1.91,1.91,0,0,1-.45.78,1.37,1.37,0,0,1-1.66.11,1.88,1.88,0,0,1-.81-1.53,3.18,3.18,0,0,1,.5-1.71.62.62,0,0,1,.23-.25.71.71,0,0,1,.41,0L162,141Z"/><path class="cls-25" d="M106.43,124.05l-1.12,1.7a3.92,3.92,0,0,0-.68,1.39c-.1.58,0,1.26-.38,1.68a1.28,1.28,0,0,1-.84.31,1,1,0,0,1-.52-.08c-.53-.26-.48-1-.67-1.57a5.12,5.12,0,0,0-.31-.62,3.59,3.59,0,0,1-.13-2.82,4,4,0,0,1,1.9-2.12,1,1,0,0,1,.65-.16,1.16,1.16,0,0,1,.55.33l1.78,1.56Z"/><path class="cls-25" d="M106.43,124.05l-1.12,1.7a3.92,3.92,0,0,0-.68,1.39c-.1.58,0,1.26-.38,1.68a1.28,1.28,0,0,1-.84.31,1,1,0,0,1-.52-.08c-.53-.26-.48-1-.67-1.57a5.12,5.12,0,0,0-.31-.62,3.59,3.59,0,0,1-.13-2.82,4,4,0,0,1,1.9-2.12,1,1,0,0,1,.65-.16,1.16,1.16,0,0,1,.55.33l1.78,1.56Z"/><path class="cls-26" d="M104,143.08a11.64,11.64,0,0,0,0,1.77,1.37,1.37,0,0,1-.91,1.36c-.56.1-1-.35-1.44-.76a3.23,3.23,0,0,1-.78-1.13,1.58,1.58,0,0,1,.45-1.62,3,3,0,0,1,2.11-.52.48.48,0,0,1,.24.06c.22.15,0,.63.3.72Z"/><path class="cls-26" d="M104,143.08a11.64,11.64,0,0,0,0,1.77,1.37,1.37,0,0,1-.91,1.36c-.56.1-1-.35-1.44-.76a3.23,3.23,0,0,1-.78-1.13,1.58,1.58,0,0,1,.45-1.62,3,3,0,0,1,2.11-.52.48.48,0,0,1,.24.06c.22.15,0,.63.3.72Z"/><path class="cls-27" d="M242.7,146.79c-.09-.12-23.83.1-27.13,0s-25.09-.24-25.91.24-4.71.44-4.71.44-6.6.92-5.29,1.26,26.3,1.6,26.2.63-2-1.38-.14-1.34,19-.49,18.29.26-1.45,1.13,2.72,1.13,13-.23,12.18-1.13S244,148.44,242.7,146.79Z"/><path class="cls-27" d="M242.7,146.79c-.09-.12-23.83.1-27.13,0s-25.09-.24-25.91.24-4.71.44-4.71.44-6.6.92-5.29,1.26,26.3,1.6,26.2.63-2-1.38-.14-1.34,19-.49,18.29.26-1.45,1.13,2.72,1.13,13-.23,12.18-1.13S244,148.44,242.7,146.79Z"/></g><g class="cls-28"><path class="cls-29" d="M465.86,154.55c-.17-.26-5.91,1.14-3.94,1.14s7.67,1.86,9.43,2,15,1.55,18.14,1.66,8.3,1.24,7.05,1.45-9.84,2.07-12.13,2.18-16.89,1.86-19.59,1.86-16.58,2-18,2.07-4.14.11-4.87-1.76-1.66-3.42-2-2.17-1.14,2.9-2,1.86-1.35-1.66-1.66-.41-2.9,2.66-4.45,2.52-4.25,1.1-5.19,1.62a20.75,20.75,0,0,1-5.18,1c-.62,0-13.89.62-13.89.93s-.52.94-3.32.94-.72.31-3.73.51-10.37.31-12.44.31-1.66-.51-2.07,0-27.68,1.25-27.68,1.25H308s-2-2.9-2.7-2S304,173.73,303,173.1s-2.49-3-3.73-1.86,2.38,1.35-3.73,2.28-39.81,1.76-42.61.93a30.07,30.07,0,0,0-8.6-1H226.18c-.93,0-36.69.72-36.69.72s-36.81-1.45-40.23-1.24-5.08.83-5.91-.31-4.56-1-8.81-.83-14,.93-15.34.2-3-2.59-4.15-1.86a3.89,3.89,0,0,1-3.83,0c-1.45-.62-2.49-.93-3.42.41s-5.5,2.39-7.36,1.35-1.66-1.14-6.53-1.14-13,.83-13.89-.41S70,170.31,67.37,169s-3.11-5.26-3.94-4.29-.62,6.57-3.63,1.07-4.35-8.5-4.77-5.8.93,6.53-.83,5.91-3.83-1.94-4.56-1.18-3.42.87-8.29.45-31.31-2-30.07-3.32,19.08-4.66,25.09-5.39S68.82,153.3,76,153.3s44,.63,48.62.63,6.95-1.66,18.56-2.18,26.64-2,29.23-2.18S175,148,174,148s-6.74.31-9.43.62-12.75.62-16.38.83-7.57-.31-10.27.41-5.39.83-7.87,1.45-9.23.94-10.58,1-13.68-.93-16.48-1.14-7.88-.93-10.78-.62-6.64.72-10.27.93-7.56.73-9.43.83-8.19.31-10.88.52-7.16.73-9.23.83-12.65.62-16.59.93-7.25,1.76-11.4,2.39-8.91,1.34-11.51,1.86-4.87,1.28-4.45,2.51-2.49,2.36,5.9,3.09,11.72.83,20.32,2,8.3,1.55,14,2.8,9.64,2,14.1,2,7.67,0,11.4.21,5.29,1,8.81,1.14,2.9.1,6.64.1,5.7-.31,6.84,0a25.47,25.47,0,0,0,6.63.93h8.19c1,0,8.71,1.56,11.2.73s12-.73,14-.73,4.67,1.41,7.26,1.17,1.66-.55,5.7-.44,10.26.16,11.51.44,1.66,1.22,7.25.8,8.82-.31,12.13-.31,5.29,0,8.82.21a76.45,76.45,0,0,0,8.5.21c3.73-.11,6.42-.21,9.84-.42a81.58,81.58,0,0,1,9.75-.46c4,.15,3.63.57,9.95.36s10.26.1,13.17.1a59.36,59.36,0,0,1,6.63.46c3.21.27,4.83,1.1,7.39.89s14.17-.85,16.35-.89,1.35.16,7.77.16,13.9.11,15.87-.1a50.87,50.87,0,0,1,7.15-.41,80.8,80.8,0,0,0,9.95-.11c5.39-.41,10.78-.52,12.75-.52s9.64.31,14.72.42,6.43.21,13.58.1,12.13.62,15.14.11S379,174,379,174s12-.21,16.58-.21a39,39,0,0,0,11.3-1.14c5.91-1.24,4.67-1.76,9.33-1.76s10.89-.62,13.17-.73,3.52-.52,7.77-.93,5.19-.42,10-.62,12.85-2,17.62-2.39,10.78-1.35,12.33-1.45,19.29-1.45,20.63-3.21,1-2.59-2.59-2.91S467.1,156.41,465.86,154.55Z"/><path class="cls-29" d="M465.86,154.55c-.17-.26-5.91,1.14-3.94,1.14s7.67,1.86,9.43,2,15,1.55,18.14,1.66,8.3,1.24,7.05,1.45-9.84,2.07-12.13,2.18-16.89,1.86-19.59,1.86-16.58,2-18,2.07-4.14.11-4.87-1.76-1.66-3.42-2-2.17-1.14,2.9-2,1.86-1.35-1.66-1.66-.41-2.9,2.66-4.45,2.52-4.25,1.1-5.19,1.62a20.75,20.75,0,0,1-5.18,1c-.62,0-13.89.62-13.89.93s-.52.94-3.32.94-.72.31-3.73.51-10.37.31-12.44.31-1.66-.51-2.07,0-27.68,1.25-27.68,1.25H308s-2-2.9-2.7-2S304,173.73,303,173.1s-2.49-3-3.73-1.86,2.38,1.35-3.73,2.28-39.81,1.76-42.61.93a30.07,30.07,0,0,0-8.6-1H226.18c-.93,0-36.69.72-36.69.72s-36.81-1.45-40.23-1.24-5.08.83-5.91-.31-4.56-1-8.81-.83-14,.93-15.34.2-3-2.59-4.15-1.86a3.89,3.89,0,0,1-3.83,0c-1.45-.62-2.49-.93-3.42.41s-5.5,2.39-7.36,1.35-1.66-1.14-6.53-1.14-13,.83-13.89-.41S70,170.31,67.37,169s-3.11-5.26-3.94-4.29-.62,6.57-3.63,1.07-4.35-8.5-4.77-5.8.93,6.53-.83,5.91-3.83-1.94-4.56-1.18-3.42.87-8.29.45-31.31-2-30.07-3.32,19.08-4.66,25.09-5.39S68.82,153.3,76,153.3s44,.63,48.62.63,6.95-1.66,18.56-2.18,26.64-2,29.23-2.18S175,148,174,148s-6.74.31-9.43.62-12.75.62-16.38.83-7.57-.31-10.27.41-5.39.83-7.87,1.45-9.23.94-10.58,1-13.68-.93-16.48-1.14-7.88-.93-10.78-.62-6.64.72-10.27.93-7.56.73-9.43.83-8.19.31-10.88.52-7.16.73-9.23.83-12.65.62-16.59.93-7.25,1.76-11.4,2.39-8.91,1.34-11.51,1.86-4.87,1.28-4.45,2.51-2.49,2.36,5.9,3.09,11.72.83,20.32,2,8.3,1.55,14,2.8,9.64,2,14.1,2,7.67,0,11.4.21,5.29,1,8.81,1.14,2.9.1,6.64.1,5.7-.31,6.84,0a25.47,25.47,0,0,0,6.63.93h8.19c1,0,8.71,1.56,11.2.73s12-.73,14-.73,4.67,1.41,7.26,1.17,1.66-.55,5.7-.44,10.26.16,11.51.44,1.66,1.22,7.25.8,8.82-.31,12.13-.31,5.29,0,8.82.21a76.45,76.45,0,0,0,8.5.21c3.73-.11,6.42-.21,9.84-.42a81.58,81.58,0,0,1,9.75-.46c4,.15,3.63.57,9.95.36s10.26.1,13.17.1a59.36,59.36,0,0,1,6.63.46c3.21.27,4.83,1.1,7.39.89s14.17-.85,16.35-.89,1.35.16,7.77.16,13.9.11,15.87-.1a50.87,50.87,0,0,1,7.15-.41,80.8,80.8,0,0,0,9.95-.11c5.39-.41,10.78-.52,12.75-.52s9.64.31,14.72.42,6.43.21,13.58.1,12.13.62,15.14.11S379,174,379,174s12-.21,16.58-.21a39,39,0,0,0,11.3-1.14c5.91-1.24,4.67-1.76,9.33-1.76s10.89-.62,13.17-.73,3.52-.52,7.77-.93,5.19-.42,10-.62,12.85-2,17.62-2.39,10.78-1.35,12.33-1.45,19.29-1.45,20.63-3.21,1-2.59-2.59-2.91S467.1,156.41,465.86,154.55Z"/><path class="cls-30" d="M443.16,154.24c0-.94-8.61.83-11.3,0s-9.23-1.56-12.75-2-4.46-.73-6.22-.62-3.94-1.08-3.11,0-3.94,1,4,1.49a78.13,78.13,0,0,1,12.65,1.49c3.83.66,6.94,1.08,9.22,1.29S443.16,155.58,443.16,154.24Z"/><path class="cls-30" d="M443.16,154.24c0-.94-8.61.83-11.3,0s-9.23-1.56-12.75-2-4.46-.73-6.22-.62-3.94-1.08-3.11,0-3.94,1,4,1.49a78.13,78.13,0,0,1,12.65,1.49c3.83.66,6.94,1.08,9.22,1.29S443.16,155.58,443.16,154.24Z"/><path class="cls-31" d="M395.26,150.19c-.72,0-4.87,1.15-6.63,1s-6.33-1-6.33-1,.32.87-2.17,1-14.2,0-15.35,0-1.76,1.4,0,1.61,14.62-.21,17.52-.21,6.95-.42,10.06-.31S395.26,150.19,395.26,150.19Z"/><path class="cls-31" d="M395.26,150.19c-.72,0-4.87,1.15-6.63,1s-6.33-1-6.33-1,.32.87-2.17,1-14.2,0-15.35,0-1.76,1.4,0,1.61,14.62-.21,17.52-.21,6.95-.42,10.06-.31S395.26,150.19,395.26,150.19Z"/><path class="cls-32" d="M350.27,159.32c-.41,0,1.35-1,3.94,0a55.7,55.7,0,0,0,6.53,1.76c.93.31,2.49,1.87,1.14,2s-11,2.38-13.06,2.59-22.5,1.24-24.88,2.07-12.23.52-13.68.52-21.36.31-21.77-.41-2.49-.94-5.5-.94-21.35-.51-22.29.11-5.44,2-7.33,1.31-8-2.56-10.08-1.83-1.66.83-6.84.83-27.58.41-29.76-.21-4-2-6.11-1-.83,1.14-10,.93-14.31-.62-19.08-.83-9-.1-13-.21a38.7,38.7,0,0,1-8.08-.72,54.53,54.53,0,0,1-5.91-1.56c-2.18-.72-3.63-.28-3.11-1.33s10.26-3,13.27-3.48,26.12-2.65,28.4-2,1.45.83-3.94.93-16.38,2.59-18.55,2.9-8.19-.93-7.36.32,1.14,1.28,6.84,1.62a132.06,132.06,0,0,0,14.51,0c4.56-.17,6.84,0,9.54,0s7.57,0,7.57,0,5.08-3.08,8.7-3.8,4.15-.73,9.54-1,6.64-.63,7.15-1,2.39-2.79,4.77-1.86,1.25,2.38,7.36,2.18,18.87.62,16.07.83-8.6.1-10,.62-7.77.62-11.4.62-5.6,0-6.95.93-7.15,2-10.05,2.3-11,.92-11,.92.41,2,3.11,1.45,5-.11,7.88-.83a16.8,16.8,0,0,1,6.42-.73c3,.11,3,.52,6.74-.31s3.11-1,5.6-1.76,1.76-1.87,5.6-.93,5.49,2.1,9,2.19a76.44,76.44,0,0,0,9.84,0c4.57-.33,6.12-1.12,8.3-.77s3-.91,5-.49,3.53,2,5.5,2,4.14-.69,6.42-.71,5.29-.09,5.91,0-.72-1,3.32-.77,3.94.79,7,.77,6.32.53,8.08,0,2.08-1.53,4.46-.77a15.25,15.25,0,0,0,4.56.77c1.87.19,4.77-.92,4.56,0s-5,3.3-1.86,3.2,2.9,1.14,5.08-.31,4.56-2.89,4.56-2.89a33.75,33.75,0,0,0-10.78-1.78c-6.95-.21-13.48-.93-15.76-1.24s-8.81-.73-5.39-1.45,10.68-.63,15.86,0,11.09,1.14,14.62,1.86,9.74,1.38,7.88,2.61-7.05,1.33-5,1.75,3,.2,9.64-.21,9.43-.42,12.65-.42,7.05.63,8.19-.51S354.83,159.42,350.27,159.32Z"/><path class="cls-32" d="M350.27,159.32c-.41,0,1.35-1,3.94,0a55.7,55.7,0,0,0,6.53,1.76c.93.31,2.49,1.87,1.14,2s-11,2.38-13.06,2.59-22.5,1.24-24.88,2.07-12.23.52-13.68.52-21.36.31-21.77-.41-2.49-.94-5.5-.94-21.35-.51-22.29.11-5.44,2-7.33,1.31-8-2.56-10.08-1.83-1.66.83-6.84.83-27.58.41-29.76-.21-4-2-6.11-1-.83,1.14-10,.93-14.31-.62-19.08-.83-9-.1-13-.21a38.7,38.7,0,0,1-8.08-.72,54.53,54.53,0,0,1-5.91-1.56c-2.18-.72-3.63-.28-3.11-1.33s10.26-3,13.27-3.48,26.12-2.65,28.4-2,1.45.83-3.94.93-16.38,2.59-18.55,2.9-8.19-.93-7.36.32,1.14,1.28,6.84,1.62a132.06,132.06,0,0,0,14.51,0c4.56-.17,6.84,0,9.54,0s7.57,0,7.57,0,5.08-3.08,8.7-3.8,4.15-.73,9.54-1,6.64-.63,7.15-1,2.39-2.79,4.77-1.86,1.25,2.38,7.36,2.18,18.87.62,16.07.83-8.6.1-10,.62-7.77.62-11.4.62-5.6,0-6.95.93-7.15,2-10.05,2.3-11,.92-11,.92.41,2,3.11,1.45,5-.11,7.88-.83a16.8,16.8,0,0,1,6.42-.73c3,.11,3,.52,6.74-.31s3.11-1,5.6-1.76,1.76-1.87,5.6-.93,5.49,2.1,9,2.19a76.44,76.44,0,0,0,9.84,0c4.57-.33,6.12-1.12,8.3-.77s3-.91,5-.49,3.53,2,5.5,2,4.14-.69,6.42-.71,5.29-.09,5.91,0-.72-1,3.32-.77,3.94.79,7,.77,6.32.53,8.08,0,2.08-1.53,4.46-.77a15.25,15.25,0,0,0,4.56.77c1.87.19,4.77-.92,4.56,0s-5,3.3-1.86,3.2,2.9,1.14,5.08-.31,4.56-2.89,4.56-2.89a33.75,33.75,0,0,0-10.78-1.78c-6.95-.21-13.48-.93-15.76-1.24s-8.81-.73-5.39-1.45,10.68-.63,15.86,0,11.09,1.14,14.62,1.86,9.74,1.38,7.88,2.61-7.05,1.33-5,1.75,3,.2,9.64-.21,9.43-.42,12.65-.42,7.05.63,8.19-.51S354.83,159.42,350.27,159.32Z"/><path class="cls-33" d="M340.7,152.15c.26-.08,4.45,0,4.45,0s3.78,1.65.67,1.41-2.85-.77-4.78-.71-2,.18-2.6,0-.76.23-.59-.19S340.7,152.15,340.7,152.15Z"/><path class="cls-33" d="M340.7,152.15c.26-.08,4.45,0,4.45,0s3.78,1.65.67,1.41-2.85-.77-4.78-.71-2,.18-2.6,0-.76.23-.59-.19S340.7,152.15,340.7,152.15Z"/><path class="cls-34" d="M355.64,140.65c.17.4,1.34,2.27.34,2.69a5.4,5.4,0,0,1-2.35.5c-.76,0-1.93-1-1.93-1.59a1.8,1.8,0,0,1,.42-1.6c.58-.75.08-1.17.92-1.17S355.29,139.86,355.64,140.65Z"/><path class="cls-34" d="M355.64,140.65c.17.4,1.34,2.27.34,2.69a5.4,5.4,0,0,1-2.35.5c-.76,0-1.93-1-1.93-1.59a1.8,1.8,0,0,1,.42-1.6c.58-.75.08-1.17.92-1.17S355.29,139.86,355.64,140.65Z"/><path class="cls-35" d="M319.22,151.18a21,21,0,0,0-3.69-.37c-.67.08-2-.09-.92.71s1.76.47,2.85.59A2,2,0,0,0,319.22,151.18Z"/><path class="cls-35" d="M319.22,151.18a21,21,0,0,0-3.69-.37c-.67.08-2-.09-.92.71s1.76.47,2.85.59A2,2,0,0,0,319.22,151.18Z"/><path class="cls-36" d="M312.51,150.19c-.08.11.59.61-.59,1s-2.6,1.9-2.68.93-.51-1.77.17-1.92a14,14,0,0,1,1.84,0A9.93,9.93,0,0,1,312.51,150.19Z"/><path class="cls-36" d="M312.51,150.19c-.08.11.59.61-.59,1s-2.6,1.9-2.68.93-.51-1.77.17-1.92a14,14,0,0,1,1.84,0A9.93,9.93,0,0,1,312.51,150.19Z"/><path class="cls-37" d="M300.41,145.8l.17,3.83a1,1,0,0,1-1.05,1.3,2.29,2.29,0,0,1-1.42-.21,1.72,1.72,0,0,1-.64-.92,2.34,2.34,0,0,1,0-1.63c.19-.44.55-.78.78-1.2s.27-.68.45-1a1.11,1.11,0,0,1,.85-.62,1.06,1.06,0,0,1,.81.45Z"/><path class="cls-37" d="M300.41,145.8l.17,3.83a1,1,0,0,1-1.05,1.3,2.29,2.29,0,0,1-1.42-.21,1.72,1.72,0,0,1-.64-.92,2.34,2.34,0,0,1,0-1.63c.19-.44.55-.78.78-1.2s.27-.68.45-1a1.11,1.11,0,0,1,.85-.62,1.06,1.06,0,0,1,.81.45Z"/><path class="cls-38" d="M352.56,110.94c.57-.12,1.09-.4,1.66-.51a1.49,1.49,0,0,1,1.57.48A1.8,1.8,0,0,1,356,112a3,3,0,0,1-.59,1.81,3,3,0,0,1-1.43.77,2.17,2.17,0,0,1-1.23.1,2.21,2.21,0,0,1-.7-.43,2,2,0,0,1-.89-1.1,2.09,2.09,0,0,1,.08-.89,1.39,1.39,0,0,1,.5-.93c.28-.17.69-.17.8-.47Z"/><path class="cls-38" d="M352.56,110.94c.57-.12,1.09-.4,1.66-.51a1.49,1.49,0,0,1,1.57.48A1.8,1.8,0,0,1,356,112a3,3,0,0,1-.59,1.81,3,3,0,0,1-1.43.77,2.17,2.17,0,0,1-1.23.1,2.21,2.21,0,0,1-.7-.43,2,2,0,0,1-.89-1.1,2.09,2.09,0,0,1,.08-.89,1.39,1.39,0,0,1,.5-.93c.28-.17.69-.17.8-.47Z"/><path class="cls-39" d="M404.88,128.2c-.07.57.07,1.16,0,1.73s-.47,1.19-1.05,1.18a1,1,0,0,1-.82-.54,1.87,1.87,0,0,1-.18-1,2,2,0,0,1,.56-1.4,1.17,1.17,0,0,1,1.42-.19Z"/><path class="cls-39" d="M404.88,128.2c-.07.57.07,1.16,0,1.73s-.47,1.19-1.05,1.18a1,1,0,0,1-.82-.54,1.87,1.87,0,0,1-.18-1,2,2,0,0,1,.56-1.4,1.17,1.17,0,0,1,1.42-.19Z"/><path class="cls-40" d="M268.33,138.88c.09,1.47.13,2.94.14,4.42a2,2,0,0,1-.2,1.06,1.34,1.34,0,0,1-1,.58,4.06,4.06,0,0,1-1.2-.09,2.36,2.36,0,0,1-1.7-.85,2.33,2.33,0,0,1-.14-1.46c.08-.62.15-1.24.23-1.86a1.23,1.23,0,0,1,.14-.53,1.34,1.34,0,0,1,.37-.34,4.9,4.9,0,0,1,3.09-1.21Z"/><path class="cls-40" d="M268.33,138.88c.09,1.47.13,2.94.14,4.42a2,2,0,0,1-.2,1.06,1.34,1.34,0,0,1-1,.58,4.06,4.06,0,0,1-1.2-.09,2.36,2.36,0,0,1-1.7-.85,2.33,2.33,0,0,1-.14-1.46c.08-.62.15-1.24.23-1.86a1.23,1.23,0,0,1,.14-.53,1.34,1.34,0,0,1,.37-.34,4.9,4.9,0,0,1,3.09-1.21Z"/><path class="cls-41" d="M256.9,143.22a3.07,3.07,0,0,1,1.05-.3,1.19,1.19,0,0,1,1,.41,1.25,1.25,0,0,1,.21.87,2,2,0,0,1-.51,1.24,1.48,1.48,0,0,1-1.25.45,1.41,1.41,0,0,1-1.12-1.21,1.83,1.83,0,0,1,.6-1.58Z"/><path class="cls-41" d="M256.9,143.22a3.07,3.07,0,0,1,1.05-.3,1.19,1.19,0,0,1,1,.41,1.25,1.25,0,0,1,.21.87,2,2,0,0,1-.51,1.24,1.48,1.48,0,0,1-1.25.45,1.41,1.41,0,0,1-1.12-1.21,1.83,1.83,0,0,1,.6-1.58Z"/><path class="cls-42" d="M254.6,157l1.6.15a3.07,3.07,0,0,1,1.9.64.89.89,0,0,1,.29.8c-.14.5-.8.6-1.32.6l-3.57,0a.29.29,0,0,1-.16,0,.28.28,0,0,1-.11-.17,1.48,1.48,0,0,1,1.16-1.83Z"/><path class="cls-42" d="M254.6,157l1.6.15a3.07,3.07,0,0,1,1.9.64.89.89,0,0,1,.29.8c-.14.5-.8.6-1.32.6l-3.57,0a.29.29,0,0,1-.16,0,.28.28,0,0,1-.11-.17,1.48,1.48,0,0,1,1.16-1.83Z"/><path class="cls-43" d="M244.37,148.29h2.23a1.51,1.51,0,0,1,.56.07,1.46,1.46,0,0,1,.61.62.35.35,0,0,1,.09.23c0,.19-.25.27-.44.29l-2.17.28a1.94,1.94,0,0,1-.76,0,.71.71,0,0,1-.55-.48,1,1,0,0,1,.25-.81Z"/><path class="cls-43" d="M244.37,148.29h2.23a1.51,1.51,0,0,1,.56.07,1.46,1.46,0,0,1,.61.62.35.35,0,0,1,.09.23c0,.19-.25.27-.44.29l-2.17.28a1.94,1.94,0,0,1-.76,0,.71.71,0,0,1-.55-.48,1,1,0,0,1,.25-.81Z"/><path class="cls-44" d="M210.42,133.25a2.73,2.73,0,0,1,.92,1.19.94.94,0,0,1-.61,1.2,1.23,1.23,0,0,1-1-.46c-.41-.39-.78-1-.46-1.48s.82-.38,1.28-.33Z"/><path class="cls-44" d="M210.42,133.25a2.73,2.73,0,0,1,.92,1.19.94.94,0,0,1-.61,1.2,1.23,1.23,0,0,1-1-.46c-.41-.39-.78-1-.46-1.48s.82-.38,1.28-.33Z"/><path class="cls-45" d="M210.19,104.05c.61.57,1.66,0,2.41.39a1.69,1.69,0,0,1,.69.71,3.27,3.27,0,0,1,.39,1.19,1.3,1.3,0,0,1-.05.68,1.56,1.56,0,0,1-.46.56,3.59,3.59,0,0,1-1.74,1.07,3.44,3.44,0,0,1-1.58-.23,3.18,3.18,0,0,1-1-.45,2.13,2.13,0,0,1-.67-2.34,3,3,0,0,1,1.81-1.75Z"/><path class="cls-45" d="M210.19,104.05c.61.57,1.66,0,2.41.39a1.69,1.69,0,0,1,.69.71,3.27,3.27,0,0,1,.39,1.19,1.3,1.3,0,0,1-.05.68,1.56,1.56,0,0,1-.46.56,3.59,3.59,0,0,1-1.74,1.07,3.44,3.44,0,0,1-1.58-.23,3.18,3.18,0,0,1-1-.45,2.13,2.13,0,0,1-.67-2.34,3,3,0,0,1,1.81-1.75Z"/><path class="cls-46" d="M179.75,110.05c.06.56.13,1.13.2,1.7a1.22,1.22,0,0,1,0,.57,1.11,1.11,0,0,1-.44.47,3.9,3.9,0,0,1-4.19,0,.59.59,0,0,1-.31-.38c0-.25.21-.44.39-.63a6.08,6.08,0,0,0,.62-1,2.7,2.7,0,0,1,3.69-.79Z"/><path class="cls-46" d="M179.75,110.05c.06.56.13,1.13.2,1.7a1.22,1.22,0,0,1,0,.57,1.11,1.11,0,0,1-.44.47,3.9,3.9,0,0,1-4.19,0,.59.59,0,0,1-.31-.38c0-.25.21-.44.39-.63a6.08,6.08,0,0,0,.62-1,2.7,2.7,0,0,1,3.69-.79Z"/><path class="cls-47" d="M160.34,128.29c-.07.54,0,1.09,0,1.63a1.35,1.35,0,0,1-.91,1.23.42.42,0,0,1-.51-.2,1.65,1.65,0,0,1,0-.32c0-.2-.22-.33-.35-.49a1.2,1.2,0,0,1,1.58-1.77Z"/><path class="cls-47" d="M160.34,128.29c-.07.54,0,1.09,0,1.63a1.35,1.35,0,0,1-.91,1.23.42.42,0,0,1-.51-.2,1.65,1.65,0,0,1,0-.32c0-.2-.22-.33-.35-.49a1.2,1.2,0,0,1,1.58-1.77Z"/><path class="cls-48" d="M162.27,140.91a6.23,6.23,0,0,1-.34,2.57,1.91,1.91,0,0,1-.45.78,1.37,1.37,0,0,1-1.66.11,1.88,1.88,0,0,1-.81-1.53,3.18,3.18,0,0,1,.5-1.71.62.62,0,0,1,.23-.25.71.71,0,0,1,.41,0L162,141Z"/><path class="cls-48" d="M162.27,140.91a6.23,6.23,0,0,1-.34,2.57,1.91,1.91,0,0,1-.45.78,1.37,1.37,0,0,1-1.66.11,1.88,1.88,0,0,1-.81-1.53,3.18,3.18,0,0,1,.5-1.71.62.62,0,0,1,.23-.25.71.71,0,0,1,.41,0L162,141Z"/><path class="cls-49" d="M106.43,124.05l-1.12,1.7a3.92,3.92,0,0,0-.68,1.39c-.1.58,0,1.26-.38,1.68a1.28,1.28,0,0,1-.84.31,1,1,0,0,1-.52-.08c-.53-.26-.48-1-.67-1.57a5.12,5.12,0,0,0-.31-.62,3.59,3.59,0,0,1-.13-2.82,4,4,0,0,1,1.9-2.12,1,1,0,0,1,.65-.16,1.16,1.16,0,0,1,.55.33l1.78,1.56Z"/><path class="cls-49" d="M106.43,124.05l-1.12,1.7a3.92,3.92,0,0,0-.68,1.39c-.1.58,0,1.26-.38,1.68a1.28,1.28,0,0,1-.84.31,1,1,0,0,1-.52-.08c-.53-.26-.48-1-.67-1.57a5.12,5.12,0,0,0-.31-.62,3.59,3.59,0,0,1-.13-2.82,4,4,0,0,1,1.9-2.12,1,1,0,0,1,.65-.16,1.16,1.16,0,0,1,.55.33l1.78,1.56Z"/><path class="cls-50" d="M104,143.08a11.64,11.64,0,0,0,0,1.77,1.37,1.37,0,0,1-.91,1.36c-.56.1-1-.35-1.44-.76a3.23,3.23,0,0,1-.78-1.13,1.58,1.58,0,0,1,.45-1.62,3,3,0,0,1,2.11-.52.48.48,0,0,1,.24.06c.22.15,0,.63.3.72Z"/><path class="cls-50" d="M104,143.08a11.64,11.64,0,0,0,0,1.77,1.37,1.37,0,0,1-.91,1.36c-.56.1-1-.35-1.44-.76a3.23,3.23,0,0,1-.78-1.13,1.58,1.58,0,0,1,.45-1.62,3,3,0,0,1,2.11-.52.48.48,0,0,1,.24.06c.22.15,0,.63.3.72Z"/><path class="cls-51" d="M242.7,146.79c-.09-.12-23.83.1-27.13,0s-25.09-.24-25.91.24-4.71.44-4.71.44-6.6.92-5.29,1.26,26.3,1.6,26.2.63-2-1.38-.14-1.34,19-.49,18.29.26-1.45,1.13,2.72,1.13,13-.23,12.18-1.13S244,148.44,242.7,146.79Z"/><path class="cls-51" d="M242.7,146.79c-.09-.12-23.83.1-27.13,0s-25.09-.24-25.91.24-4.71.44-4.71.44-6.6.92-5.29,1.26,26.3,1.6,26.2.63-2-1.38-.14-1.34,19-.49,18.29.26-1.45,1.13,2.72,1.13,13-.23,12.18-1.13S244,148.44,242.7,146.79Z"/></g></g></g></g></svg>