<svg xmlns="http://www.w3.org/2000/svg" xmlns:xlink="http://www.w3.org/1999/xlink" viewBox="0 0 512.37 197.72"><defs><style>.cls-1{isolation:isolate;}.cls-2{fill:none;}.cls-3{fill:#81d0d3;}.cls-12,.cls-4,.cls-6{mix-blend-mode:color-burn;}.cls-4{fill:url(#radial-gradient);}.cls-13,.cls-24,.cls-25,.cls-26,.cls-27,.cls-28,.cls-5{opacity:0.1;mix-blend-mode:multiply;}.cls-5{fill:url(#linear-gradient);}.cls-6{fill:#0071bc;opacity:0.2;}.cls-10,.cls-14,.cls-15,.cls-16,.cls-17,.cls-18,.cls-19,.cls-20,.cls-21,.cls-22,.cls-23,.cls-29,.cls-7,.cls-8,.cls-9{opacity:0.8;}.cls-10,.cls-7,.cls-8,.cls-9{mix-blend-mode:screen;}.cls-7{fill:url(#linear-gradient-2);}.cls-8{fill:url(#linear-gradient-3);}.cls-9{fill:url(#linear-gradient-4);}.cls-10{fill:url(#linear-gradient-5);}.cls-11{fill:#e4ffff;}.cls-12{fill:url(#radial-gradient-2);}.cls-13{fill:url(#linear-gradient-6);}.cls-14,.cls-15,.cls-16,.cls-17,.cls-18,.cls-19,.cls-20,.cls-21,.cls-22,.cls-23,.cls-29{mix-blend-mode:color-dodge;}.cls-14{fill:url(#linear-gradient-7);}.cls-15{fill:url(#linear-gradient-8);}.cls-16{fill:url(#linear-gradient-9);}.cls-17{fill:url(#linear-gradient-10);}.cls-18{fill:url(#linear-gradient-11);}.cls-19{fill:url(#linear-gradient-12);}.cls-20{fill:url(#linear-gradient-13);}.cls-21{fill:url(#linear-gradient-14);}.cls-22{fill:url(#linear-gradient-15);}.cls-23{fill:url(#linear-gradient-16);}.cls-24{fill:url(#linear-gradient-17);}.cls-25{fill:url(#linear-gradient-18);}.cls-26{fill:url(#linear-gradient-19);}.cls-27{fill:url(#linear-gradient-20);}.cls-28{fill:url(#linear-gradient-21);}.cls-29{fill:url(#linear-gradient-22);}</style><radialGradient id="radial-gradient" cx="1482.87" cy="143.68" r="62.87" gradientTransform="matrix(-1, 0, 0, 1, 1748.94, 0)" gradientUnits="userSpaceOnUse"><stop offset="0" stop-color="#fff"/><stop offset="0.22" stop-color="#fcfcfd"/><stop offset="0.36" stop-color="#f4f4f8"/><stop offset="0.47" stop-color="#e6e5ee"/><stop offset="0.58" stop-color="#d1d0e0"/><stop offset="0.68" stop-color="#b7b5ce"/><stop offset="0.77" stop-color="#9793b8"/><stop offset="0.85" stop-color="#706c9e"/><stop offset="0.93" stop-color="#453f81"/><stop offset="1" stop-color="#1b1464"/></radialGradient><linearGradient id="linear-gradient" x1="1482.56" y1="166.44" x2="1482.56" y2="133.45" gradientTransform="matrix(-1, 0, 0, 1, 1748.94, 0)" xlink:href="#radial-gradient"/><linearGradient id="linear-gradient-2" x1="1439.73" y1="150.65" x2="1450.45" y2="141.05" gradientTransform="matrix(-1, 0, 0, 1, 1748.94, 0)" gradientUnits="userSpaceOnUse"><stop offset="0"/><stop offset="1" stop-color="#fff"/></linearGradient><linearGradient id="linear-gradient-3" x1="1454.42" y1="154.71" x2="1466.83" y2="143.59" xlink:href="#linear-gradient-2"/><linearGradient id="linear-gradient-4" x1="1481.26" y1="160.32" x2="1513.53" y2="131.39" xlink:href="#linear-gradient-2"/><linearGradient id="linear-gradient-5" x1="1503.55" y1="164.76" x2="1536.78" y2="134.98" xlink:href="#linear-gradient-2"/><radialGradient id="radial-gradient-2" cx="1490.77" cy="117.99" r="84.24" xlink:href="#radial-gradient"/><linearGradient id="linear-gradient-6" x1="1490.56" y1="146.02" x2="1490.56" y2="106.96" gradientTransform="matrix(-1, 0, 0, 1, 1748.94, 0)" xlink:href="#radial-gradient"/><linearGradient id="linear-gradient-7" x1="1414.69" y1="127.21" x2="1429.75" y2="138.3" xlink:href="#linear-gradient-2"/><linearGradient id="linear-gradient-8" x1="1448.33" y1="128.66" x2="1465.85" y2="141.58" xlink:href="#linear-gradient-2"/><linearGradient id="linear-gradient-9" x1="1421.68" y1="111.45" x2="1441.37" y2="125.95" xlink:href="#linear-gradient-2"/><linearGradient id="linear-gradient-10" x1="1536.45" y1="124.69" x2="1552.83" y2="136.76" xlink:href="#linear-gradient-2"/><linearGradient id="linear-gradient-11" x1="1521.53" y1="120.84" x2="1542.26" y2="136.12" xlink:href="#linear-gradient-2"/><linearGradient id="linear-gradient-12" x1="1533.44" y1="101.45" x2="1543.65" y2="108.98" xlink:href="#linear-gradient-2"/><linearGradient id="linear-gradient-13" x1="1549.88" y1="102.67" x2="1566.11" y2="114.63" xlink:href="#linear-gradient-2"/><linearGradient id="linear-gradient-14" x1="1476.61" y1="130.45" x2="1498.14" y2="146.31" xlink:href="#linear-gradient-2"/><linearGradient id="linear-gradient-15" x1="1503.48" y1="116.55" x2="1518.84" y2="127.88" xlink:href="#linear-gradient-2"/><linearGradient id="linear-gradient-16" x1="1494.35" y1="132.61" x2="1505.25" y2="140.64" xlink:href="#linear-gradient-2"/><linearGradient id="linear-gradient-17" x1="1493.79" y1="138.6" x2="1493.79" y2="133.77" gradientTransform="matrix(-1, 0, 0, 1, 1748.94, 0)" xlink:href="#radial-gradient"/><linearGradient id="linear-gradient-18" x1="1507.14" y1="135.27" x2="1507.14" y2="125.87" gradientTransform="matrix(-1, 0, 0, 1, 1748.94, 0)" xlink:href="#radial-gradient"/><linearGradient id="linear-gradient-19" x1="1525.84" y1="133.09" x2="1525.84" y2="119.34" gradientTransform="matrix(-1, 0, 0, 1, 1748.94, 0)" xlink:href="#radial-gradient"/><linearGradient id="linear-gradient-20" x1="1537.79" y1="123.74" x2="1537.79" y2="120.92" gradientTransform="matrix(-1, 0, 0, 1, 1748.94, 0)" xlink:href="#radial-gradient"/><linearGradient id="linear-gradient-21" x1="1453.78" y1="131.16" x2="1453.78" y2="123.16" gradientTransform="matrix(-1, 0, 0, 1, 1748.94, 0)" xlink:href="#radial-gradient"/><linearGradient id="linear-gradient-22" x1="1461.95" y1="126.34" x2="1480.69" y2="140.15" xlink:href="#linear-gradient-2"/></defs><g class="cls-1"><g id="Layer_2" data-name="Layer 2"><g id="bg"><rect class="cls-2" width="512.37" height="197.72" transform="translate(512.37 197.72) rotate(180)"/></g><g id="_2" data-name="2"><path class="cls-3" d="M211.12,139.8s3.93,4.63,7.29,9.64c2.5,3.72,4.68,7.65,4.69,10a1.69,1.69,0,0,0,0,.23c.18,5.37,5.61,5.41,7.71,5.57l4.62.32,5.37.34,3.23.19,2.77.14h0c2.71.14,4.92.21,5.73.14.46,0,1.22-.08,2.2-.14,1.29-.07,3-.14,4.81-.2l2.92-.08c1.67,0,3.4-.06,5.08-.07,2.6,0,5.07.05,7,.2a59.1,59.1,0,0,0,8.12-.05l1.72-.1a29.44,29.44,0,0,1,6.28,0,11.47,11.47,0,0,0,3,.06c.63-.05,1.28-.14,1.92-.25,2.64-.43,5.22-1.18,6.38-1.37,1.76-.29,6,2.06,6.8-5.7,0,0,0-.12,0-.33s0-.4,0-.62,0-.35,0-.55c0-.36,0-.74,0-1.14s0-1,.05-1.51c.38-6.46,3.16-12.42,5.16-16h0a37.43,37.43,0,0,1,2.11-3.34l5.42-8.33-8.05-.79-2-.19-.57-.06-19.84,5.26-16.76,4.47-9.34.88-6.7-2.2L229.85,129s-10.09,2.82-15.46,4.74h0c-.76.27-1.43.53-2,.75-.84.35-1.33.63-1.3.8A41.59,41.59,0,0,1,211.12,139.8Z"/><path class="cls-4" d="M211.12,139.8s3.93,4.63,7.29,9.64c2.5,3.72,4.68,7.65,4.69,10a1.69,1.69,0,0,0,0,.23c.18,5.37,5.61,5.41,7.71,5.57l4.62.32,5.37.34,3.23.19,2.77.14h0c2.71.14,4.92.21,5.73.14.46,0,1.22-.08,2.2-.14,1.29-.07,3-.14,4.81-.2l2.92-.08c1.67,0,3.4-.06,5.08-.07,2.6,0,5.07.05,7,.2a59.1,59.1,0,0,0,8.12-.05l1.72-.1a29.44,29.44,0,0,1,6.28,0,11.47,11.47,0,0,0,3,.06c.63-.05,1.28-.14,1.92-.25,2.64-.43,5.22-1.18,6.38-1.37,1.76-.29,6,2.06,6.8-5.7,0,0,0-.12,0-.33s0-.4,0-.62,0-.35,0-.55c0-.36,0-.74,0-1.14s0-1,.05-1.51c.38-6.46,3.16-12.42,5.16-16h0a37.43,37.43,0,0,1,2.11-3.34l5.42-8.33-8.05-.79-2-.19-.57-.06-19.84,5.26-16.76,4.47-9.34.88-6.7-2.2L229.85,129s-10.09,2.82-15.46,4.74h0c-.76.27-1.43.53-2,.75-.84.35-1.33.63-1.3.8A41.59,41.59,0,0,1,211.12,139.8Z"/><path class="cls-5" d="M211.12,139.8s3.93,4.63,7.29,9.64c2.5,3.72,4.68,7.65,4.69,10a1.69,1.69,0,0,0,0,.23c.18,5.37,5.61,5.41,7.71,5.57l4.62.32,5.37.34,3.23.19,2.77.14h0c2.71.14,4.92.21,5.73.14.46,0,1.22-.08,2.2-.14,1.29-.07,3-.14,4.81-.2l2.92-.08c1.67,0,3.4-.06,5.08-.07,2.6,0,5.07.05,7,.2a59.1,59.1,0,0,0,8.12-.05l1.72-.1a29.44,29.44,0,0,1,6.28,0,11.47,11.47,0,0,0,3,.06c.63-.05,1.28-.14,1.92-.25,2.64-.43,5.22-1.18,6.38-1.37,1.76-.29,6,2.06,6.8-5.7,0,0,0-.12,0-.33s0-.4,0-.62,0-.35,0-.55c0-.36,0-.74,0-1.14s0-1,.05-1.51c.38-6.46,3.16-12.42,5.16-16h0a37.43,37.43,0,0,1,2.11-3.34l5.42-8.33-8.05-.79-2-.19-.57-.06-19.84,5.26-16.76,4.47-9.34.88-6.7-2.2L229.85,129s-10.09,2.82-15.46,4.74h0c-.76.27-1.43.53-2,.75-.84.35-1.33.63-1.3.8A41.59,41.59,0,0,1,211.12,139.8Z"/><path class="cls-6" d="M211.12,139.8s3.93,4.63,7.29,9.64c0,0,4.29-2.19,4.69-4.55s5.72,2,8.22,1.86,1.62-5.87,3.77-4.12,2.85,2,5,.94,9.18,8.43,11,9.93,5.46-12.62,10.61-7.61,9.09-.13,10.47-1.46,4.12.2,4.74,1.74,3.63-2.91,6.38-4.66,3,12.12,3.12,14.58,9.87-12.83,10.82-13.58,3,7.24,2.55,10.12,13.91-13.54,14.32-14h0a37.43,37.43,0,0,1,2.11-3.34l5.42-8.33-10.62-1-19.84,5.26-16.76,4.47-9.34.88-6.7-2.2L229.85,129s-18.89,5.28-18.73,6.29A41.59,41.59,0,0,1,211.12,139.8Z"/><path class="cls-6" d="M267.56,165.92c2.6,0,5.07.05,7,.2,6.5.5,12.62-.75,16.12-.13s9.37-1.25,11.31-1.56c1.76-.29,6,2.06,6.8-5.7,0,0,0-.12,0-.33s0-.37,0-.62,0-.35,0-.55c0-.76.08-1.71.07-2.65,0-1.93-.21-3.79-.89-3.8-1.4,0-9,9.22-9.52,7s-1.12-2-3.37,1-8.25,6.26-8.88,3.89-2.63-12.37-4.13-9-4.61,9.86-5.24,8.37-1.87-3.75-3.12-2.25A30.66,30.66,0,0,1,267.56,165.92Z"/><path class="cls-6" d="M246.82,166.27c2.71.14,4.92.21,5.73.14.46,0,1.22-.08,2.2-.14-1.48-.91-2.42-2-3.66-2.9C249.54,162.25,248.47,164.52,246.82,166.27Z"/><path class="cls-6" d="M223.11,159.71c.18,5.37,5.61,5.41,7.71,5.57l4.62.32a39.34,39.34,0,0,1-3.87-2.23c-1.88-1.25-3.77-3.67-4.82-4A13.51,13.51,0,0,0,223.11,159.71Z"/><path class="cls-7" d="M293.67,166.05c.63-.05,1.28-.14,1.92-.25l.21-.28c.4-10.84,16.25-34.13,16.25-34.13a25,25,0,0,0,1.54-5.24c.11-1.21-.31-1.74-2-.19a43.68,43.68,0,0,0-4.63,5.43C296,145.75,293.67,166.05,293.67,166.05Z"/><path class="cls-8" d="M282.66,166v.1l1.72-.1s1.15-21,8.27-29.46-5.37.63-5.37.63A106.2,106.2,0,0,0,282.66,166Z"/><path class="cls-9" d="M231.19,134.31V136s8.38,4.5,8.94,7.56-.69,5.73,3.43,7.83,13.82,11.31,15.66,14.2a3.56,3.56,0,0,0,.34.47l2.92-.08s-10.37-12.42-7.34-24.26-3.36.22-3.36.22,0,11.68.77,12.55c-2.66-2.24-6.3-5.36-6.52-8.49s-2.32-5.8-6.22-8A53.11,53.11,0,0,0,231.19,134.31Z"/><path class="cls-10" d="M212.42,134.47a27.94,27.94,0,0,0,3.2,3.65s15.56,10.28,25.19,27.82l3.23.19s-15.45-24.73-26.58-30.86c-1.28-.7-2.28-1.21-3.07-1.55h0C211.7,132.55,211.65,133.29,212.42,134.47Z"/><path class="cls-11" d="M184.57,119c1.23,1.16,2.26,2.14,3.11,3h0c2.38,2.3,3.32,3.38,3.13,3.89s.21,1.39,2.57,2.68l.42.23a2.13,2.13,0,0,0-.26.4c-.82,1.59-.89,5.55,2,6.06,3.12.57,3.77,1.14,4.16,3.07s2.61,4.13,7.17,2.9c1.18-.32,2.67-.84,4.28-1.44l4.5-1.68c1.42-.52,2.81-1,4.07-1.42a15.49,15.49,0,0,1,4.08-.86c1.56,0,4.26-.25,7.42-.25,1.23,0,2.53,0,3.86.15h0a26.93,26.93,0,0,1,8,1.71c2.53,1,5.58,2.81,8.74,4.5,1,.53,2,1.06,3,1.54a37,37,0,0,0,3.64,1.54h0a16.52,16.52,0,0,0,3.27.86,7.23,7.23,0,0,0,5.43-1c6-4.23,10.25-9.57,15-8.92a45.23,45.23,0,0,1,5.13,1.17c1.32.36,2.72.76,4.09,1.12,3.63,1,7.09,1.76,8.71,1.22a9.86,9.86,0,0,0,2.49-1.25c1.22-.87,2.09-2,1.91-3.25h0a3.86,3.86,0,0,0-1.8-2.39,9.55,9.55,0,0,1,4.31-1.23,24.47,24.47,0,0,1,5.07,0c1.72.21,3,.65,3.26,1.33a18.12,18.12,0,0,0,.9,2.56c1.55,3.59,5.17,9.11,11.6,3.71,4.29,2.26,9.89-1.58,5.08-8.87a9,9,0,0,0-2.21-4.19v0s4-2.56.78-6.21-6.43-1.56-6.43-1.56.83-5.6-4.77-6.77c-3-.62-8.24.28-13,1.57-4.24,1.14-8,2.58-9.4,3.5,1.56-4.24-6.65-4.16-8.21,1.31-1.55-3.61-8.92,2.77-11.24,10.45l-.07.25a23.57,23.57,0,0,0-3.49,1.47h0c-.49.26-1,.55-1.5.88h0a9.66,9.66,0,0,0-3.46,3.5c-2.48-1.34-6.57-1.27-7.39,0a8.81,8.81,0,0,0-10.83-6.17l-.56.14c-2.71-7-9.09-15.75-13.52-15.23s-10.68,3.38-10,9.37a25.84,25.84,0,0,1-3.11-1.74l-.59-.4a16.79,16.79,0,0,1-2-1.63,6.42,6.42,0,0,1-.45-.47l0-.05-.24-.26a7.28,7.28,0,0,1-.63-.86l-.13-.21-.05-.11s4.69-7.16-2.34-13.67c-.25-.23-.5-.45-.76-.66a0,0,0,0,1,0,0c-5.73-4.79-13.17-5.58-15-2.17h0a4.23,4.23,0,0,0-.35,2.83,14.92,14.92,0,0,0-7.48-1.33h0c-4.87.22-9.57,2.13-8.66,5.37,1.43,5.08-.78,3.12-1.82,3.64S179.88,114.61,184.57,119Z"/><path class="cls-12" d="M184.57,119c1.23,1.16,2.26,2.14,3.11,3h0c2.38,2.3,3.32,3.38,3.13,3.89s.21,1.39,2.57,2.68l.42.23a2.13,2.13,0,0,0-.26.4c-.82,1.59-.89,5.55,2,6.06,3.12.57,3.77,1.14,4.16,3.07s2.61,4.13,7.17,2.9c1.18-.32,2.67-.84,4.28-1.44l4.5-1.68c1.42-.52,2.81-1,4.07-1.42a15.49,15.49,0,0,1,4.08-.86c1.56,0,4.26-.25,7.42-.25,1.23,0,2.53,0,3.86.15h0a26.93,26.93,0,0,1,8,1.71c2.53,1,5.58,2.81,8.74,4.5,1,.53,2,1.06,3,1.54a37,37,0,0,0,3.64,1.54h0a16.52,16.52,0,0,0,3.27.86,7.23,7.23,0,0,0,5.43-1c6-4.23,10.25-9.57,15-8.92a45.23,45.23,0,0,1,5.13,1.17c1.32.36,2.72.76,4.09,1.12,3.63,1,7.09,1.76,8.71,1.22a9.86,9.86,0,0,0,2.49-1.25c1.22-.87,2.09-2,1.91-3.25h0a3.86,3.86,0,0,0-1.8-2.39,9.55,9.55,0,0,1,4.31-1.23,24.47,24.47,0,0,1,5.07,0c1.72.21,3,.65,3.26,1.33a18.12,18.12,0,0,0,.9,2.56c1.55,3.59,5.17,9.11,11.6,3.71,4.29,2.26,9.89-1.58,5.08-8.87a9,9,0,0,0-2.21-4.19v0s4-2.56.78-6.21-6.43-1.56-6.43-1.56.83-5.6-4.77-6.77c-3-.62-8.24.28-13,1.57-4.24,1.14-8,2.58-9.4,3.5,1.56-4.24-6.65-4.16-8.21,1.31-1.55-3.61-8.92,2.77-11.24,10.45l-.07.25a23.57,23.57,0,0,0-3.49,1.47h0c-.49.26-1,.55-1.5.88h0a9.66,9.66,0,0,0-3.46,3.5c-2.48-1.34-6.57-1.27-7.39,0a8.81,8.81,0,0,0-10.83-6.17l-.56.14c-2.71-7-9.09-15.75-13.52-15.23s-10.68,3.38-10,9.37a25.84,25.84,0,0,1-3.11-1.74l-.59-.4a16.79,16.79,0,0,1-2-1.63,6.42,6.42,0,0,1-.45-.47l0-.05-.24-.26a7.28,7.28,0,0,1-.63-.86l-.13-.21-.05-.11s4.69-7.16-2.34-13.67c-.25-.23-.5-.45-.76-.66a0,0,0,0,1,0,0c-5.73-4.79-13.17-5.58-15-2.17h0a4.23,4.23,0,0,0-.35,2.83,14.92,14.92,0,0,0-7.48-1.33h0c-4.87.22-9.57,2.13-8.66,5.37,1.43,5.08-.78,3.12-1.82,3.64S179.88,114.61,184.57,119Z"/><path class="cls-13" d="M184.57,119c1.23,1.16,2.26,2.14,3.11,3h0c2.38,2.3,3.32,3.38,3.13,3.89s.21,1.39,2.57,2.68l.42.23a2.13,2.13,0,0,0-.26.4c-.82,1.59-.89,5.55,2,6.06,3.12.57,3.77,1.14,4.16,3.07s2.61,4.13,7.17,2.9c1.18-.32,2.67-.84,4.28-1.44l4.5-1.68c1.42-.52,2.81-1,4.07-1.42a15.49,15.49,0,0,1,4.08-.86c1.56,0,4.26-.25,7.42-.25,1.23,0,2.53,0,3.86.15h0a26.93,26.93,0,0,1,8,1.71c2.53,1,5.58,2.81,8.74,4.5,1,.53,2,1.06,3,1.54a37,37,0,0,0,3.64,1.54h0a16.52,16.52,0,0,0,3.27.86,7.23,7.23,0,0,0,5.43-1c6-4.23,10.25-9.57,15-8.92a45.23,45.23,0,0,1,5.13,1.17c1.32.36,2.72.76,4.09,1.12,3.63,1,7.09,1.76,8.71,1.22a9.86,9.86,0,0,0,2.49-1.25c1.22-.87,2.09-2,1.91-3.25h0a3.86,3.86,0,0,0-1.8-2.39,9.55,9.55,0,0,1,4.31-1.23,24.47,24.47,0,0,1,5.07,0c1.72.21,3,.65,3.26,1.33a18.12,18.12,0,0,0,.9,2.56c1.55,3.59,5.17,9.11,11.6,3.71,4.29,2.26,9.89-1.58,5.08-8.87a9,9,0,0,0-2.21-4.19v0s4-2.56.78-6.21-6.43-1.56-6.43-1.56.83-5.6-4.77-6.77c-3-.62-8.24.28-13,1.57-4.24,1.14-8,2.58-9.4,3.5,1.56-4.24-6.65-4.16-8.21,1.31-1.55-3.61-8.92,2.77-11.24,10.45l-.07.25a23.57,23.57,0,0,0-3.49,1.47h0c-.49.26-1,.55-1.5.88h0a9.66,9.66,0,0,0-3.46,3.5c-2.48-1.34-6.57-1.27-7.39,0a8.81,8.81,0,0,0-10.83-6.17l-.56.14c-2.71-7-9.09-15.75-13.52-15.23s-10.68,3.38-10,9.37a25.84,25.84,0,0,1-3.11-1.74l-.59-.4a16.79,16.79,0,0,1-2-1.63,6.42,6.42,0,0,1-.45-.47l0-.05-.24-.26a7.28,7.28,0,0,1-.63-.86l-.13-.21-.05-.11s4.69-7.16-2.34-13.67c-.25-.23-.5-.45-.76-.66a0,0,0,0,1,0,0c-5.73-4.79-13.17-5.58-15-2.17h0a4.23,4.23,0,0,0-.35,2.83,14.92,14.92,0,0,0-7.48-1.33h0c-4.87.22-9.57,2.13-8.66,5.37,1.43,5.08-.78,3.12-1.82,3.64S179.88,114.61,184.57,119Z"/><path class="cls-14" d="M330.68,125.9s1.49,4.51,0,5.26c0,0,3.8,4.71-1.62,5.37s-3.3,3.17-5.68,2.77-6.13-5.6-5.77-6.17,6.32,2.4,7.17,1.18,3.62.29,3.89-1.65-.93-3.53-.14-4.06A12.71,12.71,0,0,0,330.68,125.9Z"/><path class="cls-15" d="M300.16,132.15s4.12,5.5,0,5.62S284.69,135,281.37,135s-.23-1.77,4.47-1.2S300.85,136.51,300.16,132.15Z"/><path class="cls-16" d="M331,122.05s-.43-4.29-6-3.92c-1.17-3.12-2-8.85-22.39-1.94,7.07,0,17.43-1.37,18.56,0s2.14,4.83,3.58,4.08S331,122.05,331,122.05Z"/><path class="cls-17" d="M217.46,135.27s-14.44,5.79-15,3.34-4.39-3.48-6.1-4.3-1.91-8.06-1.91-8.06L192.73,125s3.43.3,3.81,1.25,2.29,4.48,4.19,4.91,3.82,3,5.72,3.15S217.46,135.27,217.46,135.27Z"/><path class="cls-18" d="M232.72,132.89s-27.08-8.82-29.36-9.15-2.85,1.29-2.42,1.26,9,2.48,9.12,3.29,11.37,2.21,12.31,2.87S232.72,132.89,232.72,132.89Z"/><path class="cls-19" d="M211.12,114s-9.47-9.11-8.09-12.3,12.22-.37,10.6,0S202.33,102.58,211.12,114Z"/><path class="cls-6" d="M195.57,122.05c4.13-1.1,21.63,4.89,23.26,5.44l.07,0,0,0,7.24,2.49h0l8.25,2.83a.67.67,0,0,0,.18.07l.24.09.17,0a27.56,27.56,0,0,1,6.75,2.2,0,0,0,0,1,0,0h0c.21-.19,3.54-3.16,4.73-3.16h0a1.85,1.85,0,0,1,.64.12,4.12,4.12,0,0,1,1,.54h0a8.2,8.2,0,0,1,1,.86l1.15.47c2,.82,6.21,2.57,10.32,4.33h0a16.54,16.54,0,0,0,6.34-2.11,13.77,13.77,0,0,0,2.74-2c-2.48-1.34-6.57-1.27-7.39,0a8.81,8.81,0,0,0-10.83-6.17l-.56.14c-2.71-7-9.09-15.75-13.52-15.23s-10.68,3.38-10,9.37a25.84,25.84,0,0,1-3.11-1.74l-.59-.4a16.79,16.79,0,0,1-2-1.63,6.42,6.42,0,0,1-.45-.47l0-.05-.24-.26a7.28,7.28,0,0,1-.63-.86l-.13-.21-.05-.11s4.69-7.16-2.34-13.67c-.25-.23-.5-.45-.76-.66,5,7.09,1.48,14.47,0,17-.11.19-.22.36-.3.49-.18.28-.29.42-.29.42l3.39,5.2-1.42-.36h0c-1.33-.33-3.48-.86-6-1.4a.15.15,0,0,1-.11,0l-.51-.11C205.61,122.19,197.36,120.75,195.57,122.05Z"/><path class="cls-20" d="M196,102.35s-9.05,1.63-8.55,6-3.14,3.42-3.27,4.54,2.52,5,2.77,3.26,2.26-2,3.14-4,.32-6.16,2.62-6.42S196,102.35,196,102.35Z"/><path class="cls-21" d="M274,137.77a31.85,31.85,0,0,1-26,1.44C256.38,144.22,262.66,149.11,274,137.77Z"/><path class="cls-22" d="M248,123.69s-6.32-9.35-10-9-10,4.91-10,7.93a26.12,26.12,0,0,1,3.5,2.35s-3.4-1.81-.68-3.66,6.5-4.43,8.54-3.45S248,123.69,248,123.69Z"/><path class="cls-23" d="M256.62,137.91a20.08,20.08,0,0,1-4.59-2.28c-1.92-1.39-2.85-2.33-4.08-2.34s-6.7,2.34-6.7,2.34a43,43,0,0,1,5.59-.67C248.24,135,256.62,137.91,256.62,137.91Z"/><path class="cls-3" d="M249.29,133.62c.06.06.28.23.63.49,2,1.44,8,5.36,10.85,4.32h0a.92.92,0,0,0,.23-.09s-1.56-5.37-3.65-5.63S248.9,133.23,249.29,133.62Z"/><path class="cls-24" d="M249.29,133.62c.06.06.28.23.63.49,2,1.44,8,5.36,10.85,4.32h0a.92.92,0,0,0,.23-.09s-1.56-5.37-3.65-5.63S248.9,133.23,249.29,133.62Z"/><path class="cls-3" d="M235.42,127.5a1.66,1.66,0,0,0,.22.45c1,1.66,5,5.35,6.16,7.32,1.44-.68,4.23-1.72,5.72-2.26l1-.35s-9.38-9.18-11.07-8.93-3,1.22-2,2.17S235.1,126.2,235.42,127.5Z"/><path class="cls-25" d="M235.42,127.5a1.66,1.66,0,0,0,.22.45c1,1.66,5,5.35,6.16,7.32,1.44-.68,4.23-1.72,5.72-2.26l1-.35s-9.38-9.18-11.07-8.93-3,1.22-2,2.17S235.1,126.2,235.42,127.5Z"/><path class="cls-3" d="M213.22,118.78c2.73,2,7.16,7.68,5.6,8.72l.13,0,16.13,5.55,0,0c-1.12-.89-19-15.1-21.82-16.37S210.48,116.82,213.22,118.78Z"/><path class="cls-26" d="M213.22,118.78c2.73,2,7.16,7.68,5.6,8.72l.13,0,16.13,5.55,0,0c-1.12-.89-19-15.1-21.82-16.37S210.48,116.82,213.22,118.78Z"/><path class="cls-3" d="M208.66,121.33l.38.37h0c.77.69,2.55,2.13,4,2,.38,0,.53-.16.54-.35h0c0-.79-2.51-2.64-2.51-2.64A1.51,1.51,0,0,0,208.66,121.33Z"/><path class="cls-27" d="M208.66,121.33l.38.37h0c.77.69,2.55,2.13,4,2,.38,0,.53-.16.54-.35h0c0-.79-2.51-2.64-2.51-2.64A1.51,1.51,0,0,0,208.66,121.33Z"/><path class="cls-6" d="M249.29,133.62c.06.06.28.23.63.49,1.58,0,4.65-.11,6.26-.21,2.23-.14,4.59,4.53,4.59,4.53h0a.92.92,0,0,0,.23-.09s-1.56-5.37-3.65-5.63S248.9,133.23,249.29,133.62Z"/><path class="cls-6" d="M235.42,127.5a1.66,1.66,0,0,0,.22.45c.49-.17,1.12-.45,1.14-.8,0-.58.18-.75,1.25-1.5s9.35,7.24,9.35,7.24l.14.12,1-.35s-9.38-9.18-11.07-8.93-3,1.22-2,2.17S235.1,126.2,235.42,127.5Z"/><path class="cls-6" d="M213.22,118.78c2.73,2,7.16,7.68,5.6,8.72l.13,0a3.71,3.71,0,0,0,1.09-2.07c0-1.33-3.84-5.61-4.2-6.27s18.07,13,19.2,13.86c-1.12-.89-19-15.1-21.82-16.37S210.48,116.82,213.22,118.78Z"/><path class="cls-6" d="M208.66,121.33l.38.37h0c1.27-1.08,3.9,1.08,4.58,1.67,0-.79-2.51-2.64-2.51-2.64A1.51,1.51,0,0,0,208.66,121.33Z"/><path class="cls-6" d="M204.69,108.61a8.6,8.6,0,0,0-.7-1A10.53,10.53,0,0,0,204.69,108.61Z"/><path class="cls-6" d="M194.41,101.69a15.47,15.47,0,0,1,9.56,5.85,12.34,12.34,0,0,1-1.73-7.35,4.23,4.23,0,0,0-.35,2.83A14.92,14.92,0,0,0,194.41,101.69Z"/><path class="cls-6" d="M193.81,128.81a2.13,2.13,0,0,0-.26.4C193.87,129,194,128.86,193.81,128.81Z"/><path class="cls-6" d="M190.82,125.9c-.25.65.21,1.39,2.57,2.68a6.43,6.43,0,0,1-1.67-3c-.29-1.18,3.88-2,2.33-1.87s-6.09-1.62-6.36-1.72C190.07,124.31,191,125.39,190.82,125.9Z"/><path class="cls-6" d="M278.35,128.44a23.57,23.57,0,0,0-3.49,1.47c1.54-.5,4.44-.75,9.58.9h0a76.28,76.28,0,0,1,9-6.16,4.72,4.72,0,0,1,.2-.74c.67-2,3.38-7.4,13.58-11-4.24,1.14-8,2.58-9.4,3.5,1.56-4.24-6.65-4.16-8.21,1.31-1.55-3.61-8.92,2.77-11.24,10.45Z"/><path class="cls-6" d="M273.33,130.8h0Z"/><path class="cls-6" d="M305.94,121.33s10.06-.26,13.89,2.4-3.37-.22-5,0-13.13,1.15-15.45,1.27S305.94,121.33,305.94,121.33Z"/><path class="cls-6" d="M295.16,126.2s6.94,2.78,3.84,2.89-8-1.73-10.25-.8C293.49,124.64,295.16,126.2,295.16,126.2Z"/><path class="cls-3" d="M290.44,127.63c1.53-1,8.22-2.11,10.11-2.31l.44,0c.78,0,4.95-4,4.95-4s-12.68.66-18.89,6.45h0c-.17.16-.34.32-.5.49C280.54,134.54,288.75,128.81,290.44,127.63Z"/><path class="cls-28" d="M290.44,127.63c1.53-1,8.22-2.11,10.11-2.31l.44,0c.78,0,4.95-4,4.95-4s-12.68.66-18.89,6.45h0c-.17.16-.34.32-.5.49C280.54,134.54,288.75,128.81,290.44,127.63Z"/><path class="cls-6" d="M300.55,125.32l.44,0c.78,0,4.95-4,4.95-4s-12.68.66-18.89,6.45c3.63-3.31,12.76-4.61,14.08-4.61C302.16,123.17,301.1,124.65,300.55,125.32Z"/><path class="cls-29" d="M287.05,130.81s-1.51,1.16-4.39.35-7.25-1-8-.35-5.16,5.36-6.54,5.87,4.4-.66,5.87-2.69,2.93-1.79,4.82-1.88S285.77,132.55,287.05,130.81Z"/></g></g></g></svg>