<svg xmlns="http://www.w3.org/2000/svg" xmlns:xlink="http://www.w3.org/1999/xlink" viewBox="0 0 512.37 197.72"><defs><style>.cls-1{isolation:isolate;}.cls-2{fill:none;}.cls-3{fill:#81d0d3;}.cls-12,.cls-4,.cls-6{mix-blend-mode:color-burn;}.cls-4{fill:url(#radial-gradient);}.cls-13,.cls-14,.cls-15,.cls-16,.cls-5{opacity:0.1;mix-blend-mode:multiply;}.cls-5{fill:url(#linear-gradient);}.cls-6{fill:#0071bc;opacity:0.2;}.cls-10,.cls-17,.cls-18,.cls-19,.cls-20,.cls-21,.cls-22,.cls-23,.cls-24,.cls-25,.cls-26,.cls-27,.cls-28,.cls-29,.cls-7,.cls-8,.cls-9{opacity:0.8;}.cls-10,.cls-7,.cls-8,.cls-9{mix-blend-mode:screen;}.cls-7{fill:url(#linear-gradient-2);}.cls-8{fill:url(#linear-gradient-3);}.cls-9{fill:url(#linear-gradient-4);}.cls-10{fill:url(#linear-gradient-5);}.cls-11{fill:#d9f7ff;}.cls-12{fill:url(#radial-gradient-2);}.cls-13{fill:url(#linear-gradient-6);}.cls-14{fill:url(#linear-gradient-7);}.cls-15{fill:url(#linear-gradient-8);}.cls-16{fill:url(#linear-gradient-9);}.cls-17,.cls-18,.cls-19,.cls-20,.cls-21,.cls-22,.cls-23,.cls-24,.cls-25,.cls-26,.cls-27,.cls-28,.cls-29{mix-blend-mode:color-dodge;}.cls-17{fill:url(#linear-gradient-10);}.cls-18{fill:url(#linear-gradient-11);}.cls-19{fill:url(#linear-gradient-12);}.cls-20{fill:url(#linear-gradient-13);}.cls-21{fill:url(#linear-gradient-14);}.cls-22{fill:url(#linear-gradient-15);}.cls-23{fill:url(#linear-gradient-16);}.cls-24{fill:url(#linear-gradient-17);}.cls-25{fill:url(#linear-gradient-18);}.cls-26{fill:url(#linear-gradient-19);}.cls-27{fill:url(#linear-gradient-20);}.cls-28{fill:url(#linear-gradient-21);}.cls-29{fill:url(#linear-gradient-22);}</style><radialGradient id="radial-gradient" cx="1482.9" cy="121.13" r="97.74" gradientTransform="matrix(-1, 0, 0, 1, 1748.94, 0)" gradientUnits="userSpaceOnUse"><stop offset="0" stop-color="#fff"/><stop offset="0.22" stop-color="#fcfcfd"/><stop offset="0.36" stop-color="#f4f4f8"/><stop offset="0.47" stop-color="#e6e5ee"/><stop offset="0.58" stop-color="#d1d0e0"/><stop offset="0.68" stop-color="#b7b5ce"/><stop offset="0.77" stop-color="#9793b8"/><stop offset="0.85" stop-color="#706c9e"/><stop offset="0.93" stop-color="#453f81"/><stop offset="1" stop-color="#1b1464"/></radialGradient><linearGradient id="linear-gradient" x1="1482.44" y1="168.4" x2="1482.44" y2="99.89" gradientTransform="matrix(-1, 0, 0, 1, 1748.94, 0)" gradientUnits="userSpaceOnUse"><stop offset="0" stop-color="#fff"/><stop offset="0.13" stop-color="#fbfbfc"/><stop offset="0.26" stop-color="#f0eff5"/><stop offset="0.39" stop-color="#dcdbe7"/><stop offset="0.52" stop-color="#c1bfd5"/><stop offset="0.65" stop-color="#9e9bbd"/><stop offset="0.78" stop-color="#736fa0"/><stop offset="0.91" stop-color="#413b7e"/><stop offset="1" stop-color="#1b1464"/></linearGradient><linearGradient id="linear-gradient-2" x1="1423.95" y1="136.6" x2="1443.81" y2="118.8" gradientTransform="matrix(-1, 0, 0, 1, 1748.94, 0)" gradientUnits="userSpaceOnUse"><stop offset="0"/><stop offset="1" stop-color="#fff"/></linearGradient><linearGradient id="linear-gradient-3" x1="1441.51" y1="144.93" x2="1463.99" y2="124.78" xlink:href="#linear-gradient-2"/><linearGradient id="linear-gradient-4" x1="1489.3" y1="152.24" x2="1519.89" y2="124.81" xlink:href="#linear-gradient-2"/><linearGradient id="linear-gradient-5" x1="1509.77" y1="155.75" x2="1554.97" y2="115.23" xlink:href="#linear-gradient-2"/><radialGradient id="radial-gradient-2" cx="1484.99" cy="76.71" r="123.73" gradientTransform="matrix(-1, 0, 0, 1, 1748.94, 0)" gradientUnits="userSpaceOnUse"><stop offset="0" stop-color="#1b1464"/><stop offset="0.07" stop-color="#453f81"/><stop offset="0.15" stop-color="#706c9e"/><stop offset="0.23" stop-color="#9793b8"/><stop offset="0.32" stop-color="#b7b5ce"/><stop offset="0.42" stop-color="#d1d0e0"/><stop offset="0.53" stop-color="#e6e5ee"/><stop offset="0.64" stop-color="#f4f4f8"/><stop offset="0.78" stop-color="#fcfcfd"/><stop offset="1" stop-color="#fff"/></radialGradient><linearGradient id="linear-gradient-6" x1="1486.99" y1="127.29" x2="1486.99" y2="57.74" gradientTransform="matrix(-1, 0, 0, 1, 1748.94, 0)" xlink:href="#radial-gradient"/><linearGradient id="linear-gradient-7" x1="1503.37" y1="120.59" x2="1503.37" y2="98.14" gradientTransform="matrix(-1, 0, 0, 1, 1748.94, 0)" xlink:href="#radial-gradient"/><linearGradient id="linear-gradient-8" x1="1541.78" y1="119.3" x2="1541.78" y2="86.89" gradientTransform="matrix(-1, 0, 0, 1, 1748.94, 0)" xlink:href="#radial-gradient"/><linearGradient id="linear-gradient-9" x1="1410.32" y1="83.35" x2="1410.32" y2="77.3" gradientTransform="matrix(-1, 0, 0, 1, 1748.94, 0)" xlink:href="#radial-gradient"/><linearGradient id="linear-gradient-10" x1="1481.72" y1="122.1" x2="1489.8" y2="114.85" xlink:href="#linear-gradient-2"/><linearGradient id="linear-gradient-11" x1="1454.08" y1="108.31" x2="1466.2" y2="97.45" xlink:href="#linear-gradient-2"/><linearGradient id="linear-gradient-12" x1="1412.14" y1="90.03" x2="1423.81" y2="79.57" xlink:href="#linear-gradient-2"/><linearGradient id="linear-gradient-13" x1="1392.42" y1="106.12" x2="1403.93" y2="95.8" xlink:href="#linear-gradient-2"/><linearGradient id="linear-gradient-14" x1="1380.48" y1="99.68" x2="1387.8" y2="93.12" xlink:href="#linear-gradient-2"/><linearGradient id="linear-gradient-15" x1="1379.34" y1="82.14" x2="1400.91" y2="62.8" xlink:href="#linear-gradient-2"/><linearGradient id="linear-gradient-16" x1="1418.88" y1="67.03" x2="1423.42" y2="62.95" xlink:href="#linear-gradient-2"/><linearGradient id="linear-gradient-17" x1="1431.04" y1="102.79" x2="1435.04" y2="99.2" xlink:href="#linear-gradient-2"/><linearGradient id="linear-gradient-18" x1="1498.54" y1="92.32" x2="1518.21" y2="74.68" xlink:href="#linear-gradient-2"/><linearGradient id="linear-gradient-19" x1="1439.81" y1="79.36" x2="1442.27" y2="77.15" xlink:href="#linear-gradient-2"/><linearGradient id="linear-gradient-20" x1="1559.4" y1="68.3" x2="1566.22" y2="62.18" xlink:href="#linear-gradient-2"/><linearGradient id="linear-gradient-21" x1="1568.53" y1="106.33" x2="1593.12" y2="84.29" xlink:href="#linear-gradient-2"/><linearGradient id="linear-gradient-22" x1="1514.65" y1="130.59" x2="1548.58" y2="100.19" xlink:href="#linear-gradient-2"/></defs><g class="cls-1"><g id="Layer_2" data-name="Layer 2"><g id="bg"><rect class="cls-2" width="512.37" height="197.72" transform="translate(512.37 197.72) rotate(180)"/></g><g id="_3" data-name="3"><path class="cls-3" d="M186.58,106a87.17,87.17,0,0,1,19,21.15h0c1.12,1.8,2.19,3.69,3.18,5.66a215,215,0,0,1,11.36,27.76h0q.33,1,.57,1.77a3.51,3.51,0,0,0,3.13,2.45l5.15.31,1.58.09h0c3.92.21,7.93.39,9.41.34.8,0,2.45-.05,4.72,0l2.89.05,3.94.14c2.58.1,5.43.26,8.44.48h0c5.07.38,10.56.94,15.83,1.78a38.61,38.61,0,0,0,8.84.28c.65,0,1.31-.1,2-.17a70.71,70.71,0,0,0,7.66-1.26c1.57-.34,3.1-.71,4.56-1.11,3.11-.84,5.91-1.75,8.16-2.55h0c.95-.34,1.8-.65,2.53-.93a5.46,5.46,0,0,0,3.4-4c.79-3.77,3.14-12,10.18-28.17a86.44,86.44,0,0,1,10.37-18.36c6-7.78,10.27-8.75,10.27-8.75l2.69-13.62-15-5.16L311.23,93l-22.3,11.06-18.05,10.57-12.17.27-40-4.91-13.19-1.64-4.32-.54Z"/><path class="cls-4" d="M186.58,106a87.17,87.17,0,0,1,19,21.15h0c1.12,1.8,2.19,3.69,3.18,5.66a215,215,0,0,1,11.36,27.76h0q.33,1,.57,1.77a3.51,3.51,0,0,0,3.13,2.45l5.15.31,1.58.09h0c3.92.21,7.93.39,9.41.34.8,0,2.45-.05,4.72,0l2.89.05,3.94.14c2.58.1,5.43.26,8.44.48h0c5.07.38,10.56.94,15.83,1.78a38.61,38.61,0,0,0,8.84.28c.65,0,1.31-.1,2-.17a70.71,70.71,0,0,0,7.66-1.26c1.57-.34,3.1-.71,4.56-1.11,3.11-.84,5.91-1.75,8.16-2.55h0c.95-.34,1.8-.65,2.53-.93a5.46,5.46,0,0,0,3.4-4c.79-3.77,3.14-12,10.18-28.17a86.44,86.44,0,0,1,10.37-18.36c6-7.78,10.27-8.75,10.27-8.75l2.69-13.62-15-5.16L311.23,93l-22.3,11.06-18.05,10.57-12.17.27-40-4.91-13.19-1.64-4.32-.54Z"/><path class="cls-5" d="M186.58,106a87.17,87.17,0,0,1,19,21.15h0c1.12,1.8,2.19,3.69,3.18,5.66a215,215,0,0,1,11.36,27.76h0q.33,1,.57,1.77a3.51,3.51,0,0,0,3.13,2.45l5.15.31,1.58.09h0c3.92.21,7.93.39,9.41.34.8,0,2.45-.05,4.72,0l2.89.05,3.94.14c2.58.1,5.43.26,8.44.48h0c5.07.38,10.56.94,15.83,1.78a38.61,38.61,0,0,0,8.84.28c.65,0,1.31-.1,2-.17a70.71,70.71,0,0,0,7.66-1.26c1.57-.34,3.1-.71,4.56-1.11,3.11-.84,5.91-1.75,8.16-2.55h0c.95-.34,1.8-.65,2.53-.93a5.46,5.46,0,0,0,3.4-4c.79-3.77,3.14-12,10.18-28.17a86.44,86.44,0,0,1,10.37-18.36c6-7.78,10.27-8.75,10.27-8.75l2.69-13.62-15-5.16L311.23,93l-22.3,11.06-18.05,10.57-12.17.27-40-4.91-13.19-1.64-4.32-.54Z"/><path class="cls-6" d="M186.58,106a87.17,87.17,0,0,1,19,21.15h0s.61-1.69,4.09.13a5,5,0,0,0,7.21-2.85c.78-2.32,4.77,1.54,7.61,4.51s5.67,4.51,8.25,4.9,7.6,6.7,13.4,6.7,7.09-7,17-7,26-14.18,30.55-17.18,5.28,9.06,5.28,9.06,7.22-14,8.38-12.12,4.38.39,6.06.13-5,18.67-5.15,19.2c.33-.47,11-15.65,14-19.46s3.48-4.76,4.77-2.57,6.37,1.1,6.37,1.1c6-7.78,10.27-8.75,10.27-8.75l2.69-13.62-15-5.16L311.23,93l-22.3,11.06-18.05,10.57-12.17.27-40-4.91Z"/><path class="cls-6" d="M260,166.21c5.07.38,10.56.94,15.83,1.78,10.49,1.68,23.81-2.2,31.18-4.81-.24-.06-3.94-1-2.72-4.14s9.57-19.92,8.79-19.53-5,3.77-5.6,6.38-5,8.41-6.19,9.47-5.51,10.44-7.06,10.83-9.09,1.16-8.89-1.35,6.47-26.78,5-24.94-3.19,5.89-5,12.37S278,166.67,276.39,165s-2.12-5.41-3.48-3.67S260.38,166.09,260,166.21Z"/><path class="cls-6" d="M220.11,160.58c.29.89.54,1.66.73,2.27a2.74,2.74,0,0,0,2.44,1.91c4.2.27,14.14.88,16.67.79,1.46-.06,5.81-.06,11.55.18h0l-4.68-3.54c-.82-.64-1.27.36-3.73,1s-10.53,1.61-11.53.67-6.72-13-6.9-11.57,2.18,10.44-.46,10.44A5.26,5.26,0,0,1,220.11,160.58Z"/><path class="cls-7" d="M294.18,166.19l.06.65c1.57-.34,3.1-.71,4.56-1.11-.91-4.12,4.84-22.89,11.14-38s17.33-26,21.4-30.25,7.28-2.13,7.28-2.13.05-11.45-8.64-4.8-19.41,28.38-24.44,39S294.18,166.19,294.18,166.19Z"/><path class="cls-8" d="M284.62,168.27c.65,0,1.31-.1,2-.17.61-3.08,5.77-29,8.78-37.21,3.2-8.77,6.65-24,14.66-27.29-1.63-2.85-8.18,1.1-8.18,1.1a171.34,171.34,0,0,0-10,27.41C288.62,144.37,285.51,162.81,284.62,168.27Z"/><path class="cls-9" d="M229.51,122.61s5.31,8.31,6.3,11,3.06,9.1,6,11.54,1.69,3.13,1.83,6c.1,2.13.73,10.37,1,14.42l2.89.05s-1.49-20.58-1.08-21.8,3.12-4.3,3.12-7.58.74-11.16,3.81-14.69-5.3,3.39-5.3,3.39-1.77,8.15-1.7,10.46-2.64,5.7-2.78,6.92-2.17-4.75-4.48-8.28-5-8.55-5-11S229.51,122.61,229.51,122.61Z"/><path class="cls-10" d="M200.05,106l1.12,1.86c3.19,5.38,12.33,20.8,14.29,24.71,2,4.06,11.16,24.8,13.5,32.59l1.58.09c-.95-4.21-3.95-16.27-8.91-25.7-4.88-9.27-13-25.15-16.14-31.15-.78-1.51-1.23-2.4-1.23-2.4Z"/><path class="cls-11" d="M149.69,86.56c1.09,4,9.05,8.69,12.43,7.84-.48,3.74-2.65,11,10.86,11.23a114.53,114.53,0,0,1,14.51,1.09,57.93,57.93,0,0,1,13.61,3.49c.64.26,1.29.53,2,.78a0,0,0,0,0,0,0c1.59.64,3.2,1.27,4.8,2a58.22,58.22,0,0,1,8.65,4.33l.05,0q1.09.69,2.16,1.47c1,.73,2.25,1.6,3.72,2.51l0,0a44.19,44.19,0,0,0,8.87,4.23,35.49,35.49,0,0,0,3.75,1,27.86,27.86,0,0,0,12.68-.07,26.34,26.34,0,0,0,3.54-1.13l.23-.09c14.24-5.8,16.53-1.81,17.62-3.62s6.75-10.5,12.67-12.19c4.35-1.24,12.28-4.25,20-4.79a28.5,28.5,0,0,1,6,.15,21.05,21.05,0,0,1,2.1.41c9.66,2.42,9.42-3.62,9.17-4.46s8-2.41-.12-8.21a40.36,40.36,0,0,1,9-.32,23.63,23.63,0,0,1,10.59,3.08,13.28,13.28,0,0,1,4.15,4c-.46.92-.14,2.3,1,3.64,1.47,1.81,4.35,3.55,8.58,4,7.36.73,9.41-3.86,9.41-3.86s5.55,2.29,7.72-1.08-1.68-9.54-4.46-11a4.27,4.27,0,0,0-.52-4l0,0a13.18,13.18,0,0,0-2.33-2.87c.47.2,8.17,3.38,11.45-4,3.38-7.6-4.23-12.55-6.76-11.22a7,7,0,0,0-3.38-6.14l0,0a4.11,4.11,0,0,0-.51-.27,8.75,8.75,0,0,0-1.16-.45c-.21-.07-.43-.13-.65-.18l-.69-.14c-3.67-.62-9.22.23-17.45,3.82a5.07,5.07,0,0,0-1.7-5.88h0c-2.55-2.09-7.16-2.77-11.93-.63a37.68,37.68,0,0,0-3.83,2h0c-5.22,3-7.26,6-7.26,6s-2.41-3-3.74-.72S297.27,94,292.08,96.58c-3.62-1.69-11.46.72-14,4.46s-8,9.9-8,9.9-10.38-1.21-13.39-6.28S247.68,80.41,239.83,77q-.36-.16-.72-.3l-1-.39-.56-.2h0l-.78-.24-.06,0-.6-.17-.08,0-.58-.14-.6-.13-.54-.09h-.08a9.36,9.36,0,0,0-1-.12h-.09l-.48,0a10.35,10.35,0,0,0-2.07.11,5.82,5.82,0,0,0-2,.7A3,3,0,0,0,227,78c-.48,2.66-2.65,13.76-7.6,9.54S205,76.18,205.56,72.8s-2.29-8.56-7.6-12.3a15.12,15.12,0,0,0-7-2.28c-3.54-.31-7.35.38-9.79,2.8h0c-1.91,1.88-3,4.81-2.48,9.12-2.77-1.09-3.37,2.77-3.37,2.77s-2.9-1.56-5.43-1.08a15.62,15.62,0,0,0-5.84-.16h0c-2.85.45-5.68,1.73-6.57,4.47h0a7.1,7.1,0,0,0-.11,3.65,6.35,6.35,0,0,0-6.25,1.64h0A5.32,5.32,0,0,0,149.69,86.56Z"/><path class="cls-12" d="M149.69,86.56c1.09,4,9.05,8.69,12.43,7.84-.48,3.74-2.65,11,10.86,11.23a114.53,114.53,0,0,1,14.51,1.09,57.93,57.93,0,0,1,13.61,3.49c.64.26,1.29.53,2,.78a0,0,0,0,0,0,0c1.59.64,3.2,1.27,4.8,2a58.22,58.22,0,0,1,8.65,4.33l.05,0q1.09.69,2.16,1.47c1,.73,2.25,1.6,3.72,2.51l0,0a44.19,44.19,0,0,0,8.87,4.23,35.49,35.49,0,0,0,3.75,1,27.86,27.86,0,0,0,12.68-.07,26.34,26.34,0,0,0,3.54-1.13l.23-.09c14.24-5.8,16.53-1.81,17.62-3.62s6.75-10.5,12.67-12.19c4.35-1.24,12.28-4.25,20-4.79a28.5,28.5,0,0,1,6,.15,21.05,21.05,0,0,1,2.1.41c9.66,2.42,9.42-3.62,9.17-4.46s8-2.41-.12-8.21a40.36,40.36,0,0,1,9-.32,23.63,23.63,0,0,1,10.59,3.08,13.28,13.28,0,0,1,4.15,4c-.46.92-.14,2.3,1,3.64,1.47,1.81,4.35,3.55,8.58,4,7.36.73,9.41-3.86,9.41-3.86s5.55,2.29,7.72-1.08-1.68-9.54-4.46-11a4.27,4.27,0,0,0-.52-4l0,0a13.18,13.18,0,0,0-2.33-2.87c.47.2,8.17,3.38,11.45-4,3.38-7.6-4.23-12.55-6.76-11.22a7,7,0,0,0-3.38-6.14l0,0a4.11,4.11,0,0,0-.51-.27,8.75,8.75,0,0,0-1.16-.45c-.21-.07-.43-.13-.65-.18l-.69-.14c-3.67-.62-9.22.23-17.45,3.82a5.07,5.07,0,0,0-1.7-5.88h0c-2.55-2.09-7.16-2.77-11.93-.63a37.68,37.68,0,0,0-3.83,2h0c-5.22,3-7.26,6-7.26,6s-2.41-3-3.74-.72S297.27,94,292.08,96.58c-3.62-1.69-11.46.72-14,4.46s-8,9.9-8,9.9-10.38-1.21-13.39-6.28S247.68,80.41,239.83,77q-.36-.16-.72-.3l-1-.39-.56-.2h0l-.78-.24-.06,0-.6-.17-.08,0-.58-.14-.6-.13-.54-.09h-.08a9.36,9.36,0,0,0-1-.12h-.09l-.48,0a10.35,10.35,0,0,0-2.07.11,5.82,5.82,0,0,0-2,.7A3,3,0,0,0,227,78c-.48,2.66-2.65,13.76-7.6,9.54S205,76.18,205.56,72.8s-2.29-8.56-7.6-12.3a15.12,15.12,0,0,0-7-2.28c-3.54-.31-7.35.38-9.79,2.8h0c-1.91,1.88-3,4.81-2.48,9.12-2.77-1.09-3.37,2.77-3.37,2.77s-2.9-1.56-5.43-1.08a15.62,15.62,0,0,0-5.84-.16h0c-2.85.45-5.68,1.73-6.57,4.47h0a7.1,7.1,0,0,0-.11,3.65,6.35,6.35,0,0,0-6.25,1.64h0A5.32,5.32,0,0,0,149.69,86.56Z"/><path class="cls-13" d="M149.69,86.56c1.09,4,9.05,8.69,12.43,7.84-.48,3.74-2.65,11,10.86,11.23a114.53,114.53,0,0,1,14.51,1.09,57.93,57.93,0,0,1,13.61,3.49c.64.26,1.29.53,2,.78a0,0,0,0,0,0,0c1.59.64,3.2,1.27,4.8,2a58.22,58.22,0,0,1,8.65,4.33l.05,0q1.09.69,2.16,1.47c1,.73,2.25,1.6,3.72,2.51l0,0a44.19,44.19,0,0,0,8.87,4.23,35.49,35.49,0,0,0,3.75,1,27.86,27.86,0,0,0,12.68-.07,26.34,26.34,0,0,0,3.54-1.13l.23-.09c14.24-5.8,16.53-1.81,17.62-3.62s6.75-10.5,12.67-12.19c4.35-1.24,12.28-4.25,20-4.79a28.5,28.5,0,0,1,6,.15,21.05,21.05,0,0,1,2.1.41c9.66,2.42,9.42-3.62,9.17-4.46s8-2.41-.12-8.21a40.36,40.36,0,0,1,9-.32,23.63,23.63,0,0,1,10.59,3.08,13.28,13.28,0,0,1,4.15,4c-.46.92-.14,2.3,1,3.64,1.47,1.81,4.35,3.55,8.58,4,7.36.73,9.41-3.86,9.41-3.86s5.55,2.29,7.72-1.08-1.68-9.54-4.46-11a4.27,4.27,0,0,0-.52-4l0,0a13.18,13.18,0,0,0-2.33-2.87c.47.2,8.17,3.38,11.45-4,3.38-7.6-4.23-12.55-6.76-11.22a7,7,0,0,0-3.38-6.14l0,0a4.11,4.11,0,0,0-.51-.27,8.75,8.75,0,0,0-1.16-.45c-.21-.07-.43-.13-.65-.18l-.69-.14c-3.67-.62-9.22.23-17.45,3.82a5.07,5.07,0,0,0-1.7-5.88h0c-2.55-2.09-7.16-2.77-11.93-.63a37.68,37.68,0,0,0-3.83,2h0c-5.22,3-7.26,6-7.26,6s-2.41-3-3.74-.72S297.27,94,292.08,96.58c-3.62-1.69-11.46.72-14,4.46s-8,9.9-8,9.9-10.38-1.21-13.39-6.28S247.68,80.41,239.83,77q-.36-.16-.72-.3l-1-.39-.56-.2h0l-.78-.24-.06,0-.6-.17-.08,0-.58-.14-.6-.13-.54-.09h-.08a9.36,9.36,0,0,0-1-.12h-.09l-.48,0a10.35,10.35,0,0,0-2.07.11,5.82,5.82,0,0,0-2,.7A3,3,0,0,0,227,78c-.48,2.66-2.65,13.76-7.6,9.54S205,76.18,205.56,72.8s-2.29-8.56-7.6-12.3a15.12,15.12,0,0,0-7-2.28c-3.54-.31-7.35.38-9.79,2.8h0c-1.91,1.88-3,4.81-2.48,9.12-2.77-1.09-3.37,2.77-3.37,2.77s-2.9-1.56-5.43-1.08a15.62,15.62,0,0,0-5.84-.16h0c-2.85.45-5.68,1.73-6.57,4.47h0a7.1,7.1,0,0,0-.11,3.65,6.35,6.35,0,0,0-6.25,1.64h0A5.32,5.32,0,0,0,149.69,86.56Z"/><path class="cls-6" d="M292.08,96.58s9.52,2.65,14.7,0,12.92-15.77,19.72-15.5,10.19-.55,15.49,2.26,13.24,11.13,13.24,11.13S351.93,75.69,340.87,77c-19.33,2.35-30.34-5.4-15.46-16-5.22,3-7.26,6-7.26,6s-2.41-3-3.74-.72S297.27,94,292.08,96.58Z"/><path class="cls-6" d="M200.05,72.81s1.86,1.78,13,13.37,17.49,33.12,17.49,33.12l7.48,1.29L233.61,103l16.95,11.79h14l5.55-3.86s-10.38-1.21-13.39-6.28S247.68,80.41,239.83,77s-12.3-1.69-12.79,1-2.65,13.76-7.6,9.54S205,76.18,205.56,72.8s-2.29-8.56-7.6-12.3a15.12,15.12,0,0,0-7-2.28C202.84,65,200.05,72.81,200.05,72.81Z"/><path class="cls-3" d="M230.66,106.83c.19.36.68,1.43,1.33,2.81,1.92,4.08,5.22,11,6,11,1.09,0,12.26-.12,16.39-1.81,2.19-.9,4.68-1.69,6.66-2.38h0a11.35,11.35,0,0,0,3.49-1.6,38.24,38.24,0,0,1-9.17-6.16c-3.5-3.5-7-9.29-15.57-11.82s-11.82-5.19-11.58-3-.12,4.22-1.45,3.62S229.94,105.38,230.66,106.83Z"/><path class="cls-14" d="M230.66,106.83c.19.36.68,1.43,1.33,2.81,1.92,4.08,5.22,11,6,11,1.09,0,12.26-.12,16.39-1.81,2.19-.9,4.68-1.69,6.66-2.38h0a11.35,11.35,0,0,0,3.49-1.6,38.24,38.24,0,0,1-9.17-6.16c-3.5-3.5-7-9.29-15.57-11.82s-11.82-5.19-11.58-3-.12,4.22-1.45,3.62S229.94,105.38,230.66,106.83Z"/><path class="cls-3" d="M183.6,93c1.26.78,9.4,6.1,18.67,11.74h0c13,7.93,28.24,16.51,29.71,14.15,0,0-4.37-6.73-9.51-13.6h0c-3.57-4.77-7.52-9.6-10.63-12.29-7.6-6.56-23.17-14.4-23.17-13.44,0,.55,5.81,7.78,10.5,13.8,3.65,4.68,6.62,8.64,5.67,8.16-1.28-.64-7-7-12-11.77-3.44-3.35-6.51-6-7.45-5.48-2.29,1.2,1.81,5.55,0,5.55S180.58,91.11,183.6,93Z"/><path class="cls-15" d="M183.6,93c1.26.78,9.4,6.1,18.67,11.74h0c13,7.93,28.24,16.51,29.71,14.15,0,0-4.37-6.73-9.51-13.6h0c-3.57-4.77-7.52-9.6-10.63-12.29-7.6-6.56-23.17-14.4-23.17-13.44,0,.55,5.81,7.78,10.5,13.8,3.65,4.68,6.62,8.64,5.67,8.16-1.28-.64-7-7-12-11.77-3.44-3.35-6.51-6-7.45-5.48-2.29,1.2,1.81,5.55,0,5.55S180.58,91.11,183.6,93Z"/><path class="cls-3" d="M326.5,81.08c5.15-.61,13.45,1.46,14.53,2.21,0,0,.37,0,1,0,2.45.07,8.75-.19,8.75-4.53,0-3.27-6.39-3.47-12.95-2.07A33.78,33.78,0,0,0,326.5,81.08Z"/><path class="cls-16" d="M326.5,81.08c5.15-.61,13.45,1.46,14.53,2.21,0,0,.37,0,1,0,2.45.07,8.75-.19,8.75-4.53,0-3.27-6.39-3.47-12.95-2.07A33.78,33.78,0,0,0,326.5,81.08Z"/><path class="cls-6" d="M230.66,106.83c.19.36.68,1.43,1.33,2.81a82.72,82.72,0,0,1,.86-8.57c.45-1.45,4.59,2,6,1.57s3.25-.67,3.92.67,5.92,3.13,7.82,5.48,10.44,7.61,10.44,7.61h0a11.35,11.35,0,0,0,3.49-1.6,38.24,38.24,0,0,1-9.17-6.16c-3.5-3.5-7-9.29-15.57-11.82s-11.82-5.19-11.58-3-.12,4.22-1.45,3.62S229.94,105.38,230.66,106.83Z"/><path class="cls-6" d="M222.47,105.29c-3.57-4.77-7.52-9.6-10.63-12.29-7.6-6.56-23.17-14.4-23.17-13.44,0,.55,5.81,7.78,10.5,13.8-.14-1.9.36-2.13,2.49-3.47S221.92,104.8,222.47,105.29Z"/><path class="cls-6" d="M183.6,93c1.26.78,9.4,6.1,18.67,11.74-3.85-3.82-12.91-12.39-11.68-14.92.35-.73,1.22-.59,2.27-.07-3.44-3.35-6.51-6-7.45-5.48-2.29,1.2,1.81,5.55,0,5.55S180.58,91.11,183.6,93Z"/><path class="cls-6" d="M337.79,76.74a6.62,6.62,0,0,1,4.2,6.6c2.45.07,8.75-.19,8.75-4.53C350.74,75.54,344.35,75.34,337.79,76.74Z"/><path class="cls-6" d="M177.12,76.15c-.5-1.88,1.18-5,4-4-2.78-4.35,0-11.18,0-11.18h0c-1.91,1.88-3,4.81-2.48,9.12-2.77-1.09-3.37,2.77-3.37,2.77s-2.9-1.56-5.43-1.08a15.62,15.62,0,0,0-5.84-.16C169.13,72.06,174.06,73.78,177.12,76.15Z"/><path class="cls-6" d="M151.05,81.44c.36-.07,4.65-1,7.23,0a12,12,0,0,1-.86-5.3h0a7.1,7.1,0,0,0-.11,3.65A6.35,6.35,0,0,0,151.05,81.44Z"/><path class="cls-6" d="M178,88.28c.35-1.48,2.39-1.3,4.29-.77,2.18-1.32,2.72-5.42,1.77-7.58-1.11-2.51,5.09-.45,5.09-.45l12.55,11.6,6.44,14.21-14.54-9.56s-1.46-.7-3.39-1.67l5.81,6.83S177.33,91.17,178,88.28Z"/><path class="cls-6" d="M365,91s-1.37-6.67-9.74-6c5.73-2.24,5.42-1.35,6.86-.87S365.85,88.87,365,91Z"/><path class="cls-6" d="M340,68.66c9-4.49,17.29-8.22,23.33-5.88l0,0c-3.32-1.94-9.54-2-20.51,2.76a5.07,5.07,0,0,0-1.7-5.88h0A7.61,7.61,0,0,1,340,68.66Z"/><path class="cls-17" d="M273,114.27s-3.34,6.07-4.9,6.32-9,.73-14,1.81,1.24-3.33,4.95-3.1,7-.54,9.55-2.9S273.9,112.73,273,114.27Z"/><path class="cls-18" d="M303.88,98.19s-9.82-.27-12.8-.85-10.81.86-16,8.19,7.94-5.46,12-5.46S302.78,99.66,303.88,98.19Z"/><path class="cls-19" d="M341.37,84.21s-14.3-6-21.49.57c4.49-.57,8.74-1.8,12.74-.57S342.72,85.57,341.37,84.21Z"/><path class="cls-20" d="M359.43,102.51c.1-.25-11.89,0-12.37-5.86s-3.56,1.48-3.63.57.46,8,7.31,7.23S358.61,104.61,359.43,102.51Z"/><path class="cls-21" d="M366.63,101.69s.21-8.74-3.23-9.89,1.62,1.26.7,4S366.63,101.69,366.63,101.69Z"/><path class="cls-22" d="M370.85,80.66s1.09-9.42-4.21-9.87-1.12-6.89-6-6.62-21.32,4-18.37,4.49,15.2-1.5,17.92,1.22S369.6,72.27,370.85,80.66Z"/><path class="cls-23" d="M335.43,61s-11.3,3.73-11.77,9.17S316.1,61.34,335.43,61Z"/><path class="cls-24" d="M321.77,97.22s-3.42,1.29-3.53,2.86-.17,5.82-6.68,4.62,3.09-.36,3.7-1.87S317.56,96.22,321.77,97.22Z"/><path class="cls-25" d="M250.16,92.51s-8-15.66-13.5-16.63-10,.17-8.45,1.71,4.16-.06,7.1,1.6S248.56,89.83,250.16,92.51Z"/><path class="cls-26" d="M315.54,67.11s3.06.38-2.28,7.12S300,89.41,300,89.41Z"/><path class="cls-27" d="M194.61,62.62s-9.18.81-10.69,7.78-4.77-6.62-.93-8.71S192.4,61.11,194.61,62.62Z"/><path class="cls-28" d="M170.31,92s-11.67-2-12.79-6.48-6.85,1.49-2.86,3,10.05,3.45,10.05,6,1.12,6.86,18.38,8.78C183.09,103.25,167.43,100.7,170.31,92Z"/><path class="cls-29" d="M239,125.13s-14.83-3.13-16.55-5.39-20.91-13.95-27.86-15c2.82,2.46,14,8.37,16,8.87s8.5,5.8,11.87,7.7S238.61,126.64,239,125.13Z"/></g></g></g></svg>