<svg xmlns="http://www.w3.org/2000/svg" xmlns:xlink="http://www.w3.org/1999/xlink" viewBox="0 0 512.37 197.72"><defs><style>.cls-1{isolation:isolate;}.cls-2{fill:none;}.cls-3{fill:#81d0d3;}.cls-12,.cls-4,.cls-6{mix-blend-mode:color-burn;}.cls-4{fill:url(#radial-gradient);}.cls-13,.cls-14,.cls-15,.cls-16,.cls-5{opacity:0.1;mix-blend-mode:multiply;}.cls-5{fill:url(#linear-gradient);}.cls-6{fill:#0071bc;opacity:0.2;}.cls-10,.cls-17,.cls-18,.cls-19,.cls-20,.cls-21,.cls-22,.cls-23,.cls-24,.cls-25,.cls-26,.cls-27,.cls-28,.cls-29,.cls-30,.cls-31,.cls-32,.cls-7,.cls-8,.cls-9{opacity:0.8;}.cls-10,.cls-7,.cls-8,.cls-9{mix-blend-mode:screen;}.cls-7{fill:url(#linear-gradient-2);}.cls-8{fill:url(#linear-gradient-3);}.cls-9{fill:url(#linear-gradient-4);}.cls-10{fill:url(#linear-gradient-5);}.cls-11{fill:#d9f7ff;}.cls-12{fill:url(#radial-gradient-2);}.cls-13{fill:url(#linear-gradient-6);}.cls-14{fill:url(#linear-gradient-7);}.cls-15{fill:url(#linear-gradient-8);}.cls-16{fill:url(#linear-gradient-9);}.cls-17,.cls-18,.cls-19,.cls-20,.cls-21,.cls-22,.cls-23,.cls-24,.cls-25,.cls-26,.cls-27,.cls-28,.cls-29,.cls-30,.cls-31,.cls-32{mix-blend-mode:color-dodge;}.cls-17{fill:url(#linear-gradient-10);}.cls-18{fill:url(#linear-gradient-11);}.cls-19{fill:url(#linear-gradient-12);}.cls-20{fill:url(#linear-gradient-13);}.cls-21{fill:url(#linear-gradient-14);}.cls-22{fill:url(#linear-gradient-15);}.cls-23{fill:url(#linear-gradient-16);}.cls-24{fill:url(#linear-gradient-17);}.cls-25{fill:url(#linear-gradient-18);}.cls-26{fill:url(#linear-gradient-19);}.cls-27{fill:url(#linear-gradient-20);}.cls-28{fill:url(#linear-gradient-21);}.cls-29{fill:url(#linear-gradient-22);}.cls-30{fill:url(#linear-gradient-23);}.cls-31{fill:url(#linear-gradient-24);}.cls-32{fill:url(#linear-gradient-25);}</style><radialGradient id="radial-gradient" cx="1473.75" cy="121.28" r="97.56" gradientTransform="matrix(-1, 0, 0, 1, 1748.94, 0)" gradientUnits="userSpaceOnUse"><stop offset="0" stop-color="#fff"/><stop offset="0.22" stop-color="#fcfcfd"/><stop offset="0.36" stop-color="#f4f4f8"/><stop offset="0.47" stop-color="#e6e5ee"/><stop offset="0.58" stop-color="#d1d0e0"/><stop offset="0.68" stop-color="#b7b5ce"/><stop offset="0.77" stop-color="#9793b8"/><stop offset="0.85" stop-color="#706c9e"/><stop offset="0.93" stop-color="#453f81"/><stop offset="1" stop-color="#1b1464"/></radialGradient><linearGradient id="linear-gradient" x1="1473.29" y1="167.78" x2="1473.29" y2="100.38" gradientTransform="matrix(-1, 0, 0, 1, 1748.94, 0)" xlink:href="#radial-gradient"/><linearGradient id="linear-gradient-2" x1="1431.82" y1="165.63" x2="1431.82" y2="88.82" gradientTransform="matrix(-1, 0, 0, 1, 1748.94, 0)" gradientUnits="userSpaceOnUse"><stop offset="0"/><stop offset="1" stop-color="#fff"/></linearGradient><linearGradient id="linear-gradient-3" x1="1446.34" y1="166.94" x2="1446.34" y2="87.14" xlink:href="#linear-gradient-2"/><linearGradient id="linear-gradient-4" x1="1511.16" y1="167.54" x2="1511.16" y2="111.94" xlink:href="#linear-gradient-2"/><linearGradient id="linear-gradient-5" x1="1535.07" y1="165.74" x2="1535.07" y2="114.09" xlink:href="#linear-gradient-2"/><radialGradient id="radial-gradient-2" cx="1473.4" cy="65.14" r="130.98" gradientTransform="matrix(-1, 0, 0, 1, 1748.94, 0)" gradientUnits="userSpaceOnUse"><stop offset="0" stop-color="#1b1464"/><stop offset="0.07" stop-color="#453f81"/><stop offset="0.15" stop-color="#706c9e"/><stop offset="0.23" stop-color="#9793b8"/><stop offset="0.32" stop-color="#b7b5ce"/><stop offset="0.42" stop-color="#d1d0e0"/><stop offset="0.53" stop-color="#e6e5ee"/><stop offset="0.64" stop-color="#f4f4f8"/><stop offset="0.78" stop-color="#fcfcfd"/><stop offset="1" stop-color="#fff"/></radialGradient><linearGradient id="linear-gradient-6" x1="1482.66" y1="120.8" x2="1482.66" y2="55.56" gradientTransform="matrix(-1, 0, 0, 1, 1748.94, 0)" xlink:href="#radial-gradient"/><linearGradient id="linear-gradient-7" x1="1385.7" y1="78.01" x2="1419.99" y2="78.01" gradientTransform="matrix(-1, 0, 0, 1, 1748.94, 0)" xlink:href="#radial-gradient"/><linearGradient id="linear-gradient-8" x1="1545.94" y1="110.35" x2="1545.94" y2="83.08" gradientTransform="matrix(-1, 0, 0, 1, 1748.94, 0)" xlink:href="#radial-gradient"/><linearGradient id="linear-gradient-9" x1="1511.71" y1="108.96" x2="1511.71" y2="84.12" gradientTransform="matrix(-1, 0, 0, 1, 1748.94, 0)" xlink:href="#radial-gradient"/><linearGradient id="linear-gradient-10" x1="1460.33" y1="92.94" x2="1466.87" y2="87.07" xlink:href="#linear-gradient-2"/><linearGradient id="linear-gradient-11" x1="1425.57" y1="98.78" x2="1442.19" y2="83.88" xlink:href="#linear-gradient-2"/><linearGradient id="linear-gradient-12" x1="1397.67" y1="92.36" x2="1417.23" y2="74.84" xlink:href="#linear-gradient-2"/><linearGradient id="linear-gradient-13" x1="1475.99" y1="106.63" x2="1483.83" y2="99.61" xlink:href="#linear-gradient-2"/><linearGradient id="linear-gradient-14" x1="1505.57" y1="123.65" x2="1519.02" y2="111.59" xlink:href="#linear-gradient-2"/><linearGradient id="linear-gradient-15" x1="1539.06" y1="120.34" x2="1559.18" y2="102.31" xlink:href="#linear-gradient-2"/><linearGradient id="linear-gradient-16" x1="1584.89" y1="104.69" x2="1592.98" y2="97.44" xlink:href="#linear-gradient-2"/><linearGradient id="linear-gradient-17" x1="1564.9" y1="101.73" x2="1587.04" y2="81.88" xlink:href="#linear-gradient-2"/><linearGradient id="linear-gradient-18" x1="1592.95" y1="80.1" x2="1596.34" y2="77.06" xlink:href="#linear-gradient-2"/><linearGradient id="linear-gradient-19" x1="1559.23" y1="64.14" x2="1562.95" y2="60.8" xlink:href="#linear-gradient-2"/><linearGradient id="linear-gradient-20" x1="1575.46" y1="84.02" x2="1583.28" y2="77.01" xlink:href="#linear-gradient-2"/><linearGradient id="linear-gradient-21" x1="1498.04" y1="86.35" x2="1512.27" y2="73.58" xlink:href="#linear-gradient-2"/><linearGradient id="linear-gradient-22" x1="1383.76" y1="67.85" x2="1393.98" y2="58.69" xlink:href="#linear-gradient-2"/><linearGradient id="linear-gradient-23" x1="1370.09" y1="77.5" x2="1381.1" y2="67.63" xlink:href="#linear-gradient-2"/><linearGradient id="linear-gradient-24" x1="1368.34" y1="91.89" x2="1372.85" y2="87.85" xlink:href="#linear-gradient-2"/><linearGradient id="linear-gradient-25" x1="1381.74" y1="107.67" x2="1394.42" y2="96.3" xlink:href="#linear-gradient-2"/></defs><g class="cls-1"><g id="Layer_2" data-name="Layer 2"><g id="bg"><rect class="cls-2" width="512.37" height="197.72" transform="translate(512.37 197.72) rotate(180)"/></g><g id="_4" data-name="4"><path class="cls-3" d="M195.48,113s1.5,2.06,3.78,5.48h0c5.86,8.78,16.91,26.56,21.1,41.57a7.7,7.7,0,0,0,2.57,3.94,7.58,7.58,0,0,0,3.78,1.65l1.18.16h0c4.25.53,10.26,1.07,17.14,1.45l1,.05h0l3,.14c6.42.28,13.42.41,20.35.31h.06c6.24-.09,12.41-.39,18.06-1l2.32-.25c2.44-.29,4.77-.64,6.94-1,.64-.12,1.26-.24,1.86-.38a46.14,46.14,0,0,0,6-1.66,7.73,7.73,0,0,0,2.65-1.62,7.6,7.6,0,0,0,2.28-4.13c1.74-8.95,8-32.17,27.95-48.76h0A72.53,72.53,0,0,1,350,100.6c11.06-8,3.05-12,3.05-12L337.51,87l-2.62-.27L317.73,85h0l-4.86.5-19.17,2-21.93,13.35-17.35,7.82-5.34,1.81-4.41,1.5-11,3.74-1.57-.34-5.56-1.2h0l-8.88-1.92-13.57.49-3,.11Z"/><path class="cls-4" d="M195.48,113s1.5,2.06,3.78,5.48h0c5.86,8.78,16.91,26.56,21.1,41.57a7.7,7.7,0,0,0,2.57,3.94,7.58,7.58,0,0,0,3.78,1.65l1.18.16h0c4.25.53,10.26,1.07,17.14,1.45l1,.05h0l3,.14c6.42.28,13.42.41,20.35.31h.06c6.24-.09,12.41-.39,18.06-1l2.32-.25c2.44-.29,4.77-.64,6.94-1,.64-.12,1.26-.24,1.86-.38a46.14,46.14,0,0,0,6-1.66,7.73,7.73,0,0,0,2.65-1.62,7.6,7.6,0,0,0,2.28-4.13c1.74-8.95,8-32.17,27.95-48.76h0A72.53,72.53,0,0,1,350,100.6c11.06-8,3.05-12,3.05-12L337.51,87l-2.62-.27L317.73,85h0l-4.86.5-19.17,2-21.93,13.35-17.35,7.82-5.34,1.81-4.41,1.5-11,3.74-1.57-.34-5.56-1.2h0l-8.88-1.92-13.57.49-3,.11Z"/><path class="cls-5" d="M195.48,113s1.5,2.06,3.78,5.48h0c5.86,8.78,16.91,26.56,21.1,41.57a7.7,7.7,0,0,0,2.57,3.94,7.58,7.58,0,0,0,3.78,1.65l1.18.16h0c4.25.53,10.26,1.07,17.14,1.45l1,.05h0l3,.14c6.42.28,13.42.41,20.35.31h.06c6.24-.09,12.41-.39,18.06-1l2.32-.25c2.44-.29,4.77-.64,6.94-1,.64-.12,1.26-.24,1.86-.38a46.14,46.14,0,0,0,6-1.66,7.73,7.73,0,0,0,2.65-1.62,7.6,7.6,0,0,0,2.28-4.13c1.74-8.95,8-32.17,27.95-48.76h0A72.53,72.53,0,0,1,350,100.6c11.06-8,3.05-12,3.05-12L337.51,87l-2.62-.27L317.73,85h0l-4.86.5-19.17,2-21.93,13.35-17.35,7.82-5.34,1.81-4.41,1.5-11,3.74-1.57-.34-5.56-1.2h0l-8.88-1.92-13.57.49-3,.11Z"/><path class="cls-6" d="M195.48,113s1.5,2.06,3.78,5.48h0s6.32,4.43,8,6.53a3.78,3.78,0,0,0,2.07,1.15,15.31,15.31,0,0,0,3.54.32c1.73,0,3.59-.12,5.26-.11,4,0,6.87,8.75,11.83,10.08s5.91-2.67,8.58,1.72a8.92,8.92,0,0,0,3.7,3.47A4.06,4.06,0,0,0,245,142a2.56,2.56,0,0,0,1.82-2.53c.38-4.19,7.25-7.05,9.4-5.91s14.44-15.07,16.15-14.3,12.4-11.06,15.83-10.64,2.86,0,4.2-2,7.05-4.58,8.58-1.33a11.34,11.34,0,0,1,.5,1.26c.64,1.91.68,3.33,1.54,2.69a8.09,8.09,0,0,0,1.39-1.67c2.67-3.81,7.25-5.34,7.25-1.9s4.39.19,6.68-.38c.77-.19.59,1.25.16,3-.86,3.4-2.7,7.88-.16,2.94a9.89,9.89,0,0,1,2.4-3c5.35-4.59,15.06-4.66,13.61-1.6-1.65,3.5,2.89,2.32,3.19,2.24h0A72.53,72.53,0,0,1,350,100.6c11.06-8,3.05-12,3.05-12L337.51,87l-2.62-.27L317.73,85h0l-4.86.5-19.17,2-21.93,13.35-17.35,7.82-5.34,1.81-4.41,1.5-11,3.74-1.57-.34-5.56-1.2h0l-8.88-1.92-13.57.49-3,.11Z"/><path class="cls-6" d="M279.58,166c-2,1.24-8.12,1.64-10.18,1.74,13.66-.21,27-1.38,35.22-4.3a7.73,7.73,0,0,0,2.65-1.62,5.43,5.43,0,0,1-5-6.12c.38-5.72-3.25,3-4.39,5.15s-5.53,5.15-6.1,4.2-5.15-5-4.58-8S282,164.51,279.58,166Z"/><path class="cls-6" d="M227.91,165.8c4.45.56,10.83,1.12,18.12,1.5-3-.77-5.34-2-6.31-4-3.81-7.63-4-.76-5.91-.38A33.73,33.73,0,0,0,227.91,165.8Z"/><path class="cls-7" d="M296.72,165.49c.64-.12,1.26-.24,1.86-.38,1.74-20.72,13.91-44.47,22.12-56.81a52.55,52.55,0,0,1,5.6-7.32c6.3-6.29,8.78-10.49,8.78-10.49l2.43-3.5-2.62-.27A112.8,112.8,0,0,0,326.69,97q-4.56,5.79-8.23,11.37C297.35,140.2,296.72,165.49,296.72,165.49Z"/><path class="cls-8" d="M287.46,166.79l2.32-.25c.65-7.24,2.44-24.93,5.25-37.53,1.46-6.53,4.65-13.59,8-19.69a151.17,151.17,0,0,1,10-16L317.73,85h0l-4.86.5c-2.78,4.91-7.35,13.15-11.42,21.17-3.36,6.62-6.37,13.09-7.75,17.43C290.43,134.32,288.17,158.31,287.46,166.79Z"/><path class="cls-9" d="M226.49,114.12c5.36,5.39,15,16.1,15.52,24,.07,1,.16,2.21.27,3.47.65,7.43,1.89,18.25,2.77,25.61l1,.05h0l3,.14A157,157,0,0,1,245,142c-.78-10.85-.24-23,4.11-31.61l-4.41,1.5s-1.89,16.2-3,14.45c-.77-1.18-6.17-7.25-9.58-11.05Z"/><path class="cls-10" d="M201,112.79s3.86,5.37,8.36,13.37c5.74,10.22,12.5,24.72,13.57,37.83a7.58,7.58,0,0,0,3.78,1.65s-.51-15.87-13.81-39.16a153.65,153.65,0,0,0-8.88-13.8Z"/><path class="cls-11" d="M146.88,89.31a3.61,3.61,0,0,0-.44,1.82h0c.1,3.37,5.23,5.67,6.42,4.91-.9,1.29-.83,3.63.24,5.7a7.38,7.38,0,0,0,5.86,4.09c5.85.64,11.32.38,7.88-4.07l.62,0h0l.48,0a6.17,6.17,0,0,1,1.63.4h0a4.35,4.35,0,0,1,1.82,1.3c.64.76,13.86-.51,13.86-.51s-2.46,3.16-1.37,5.92c.63,1.61,2.47,3.09,6.71,3.72,11.51,1.72,35.87,2.31,35.87,2.31s-1.29,4.55,4.73,5.36,21.45.93,23.19-3-.23-3.56,2.39-6.09,5.62-3.94,8.72-3.47,12.65-2.72,13-7.5,16.87-8.62,18.56-8.62,12.93-2.81,17.52,2.62c1.78,2.11,4.7,2.78,7.69,2.7h0c4.72-.12,9.61-2.12,10.47-3.27,1.39-1.88,3.95-4.77,5.64-3.27s5.43,3.66,7.87,2.91,6.44.53,5.65,2.18c0,0-5.46,4.45-1.39,9.28S362,106.09,362,106.09s2.69,4.9,7.15,4.26a6.71,6.71,0,0,0,2.13-.7c5.57-2.84,5.36-9.66,2.88-11.9l-.21-.17c4.83.63,8.26.12,9-6.49a4.7,4.7,0,0,0,4-2.27h0c1.81-2.88,1-7.57-4-8.52,3.17-5.6.12-13.74-15.13-13.1-.26-2.92-5.47-2.54-5.47-2.54s3.05-4.58-2.67-7.12S347.63,55,344.45,57s-21.23,7.63-21.23,7.63-1.52-3.43-3.56-1.27S293,83.85,293,83.85s-4.57-3-7.62-.87S273.51,95.8,273.51,95.8s-12.08-4-14.49-6.11-4.27-5.08-2.84-5.72,2.46-4-2.37-6.94-9.54-6.53-11.45-7.17-8,.76-9.4,4.7-9.41,3.69-14.63-.12S206.77,62.23,206,60.58c-.66-1.44-4.7-4.32-7.25-3.7a2.33,2.33,0,0,0-1,.52c-1.4-1.85-7-.76-7.88,2.67-3.44-1.14-10.94,2.29-6,10.55-2.29,0-6.61,1.53-14.24-3.43-4.08-2.66-9.61-1.12-13.53,1.87,0,0,0,0-.05,0s0,0,0,0l-.14.1a.33.33,0,0,0-.13.11,1.07,1.07,0,0,0-.23.2l-.33.27,0,0c-2.86,2.53-4.57,5.83-3.6,8.57C145.74,79.65,142.05,84.48,146.88,89.31Z"/><path class="cls-12" d="M146.88,89.31a3.61,3.61,0,0,0-.44,1.82h0c.1,3.37,5.23,5.67,6.42,4.91-.9,1.29-.83,3.63.24,5.7a7.38,7.38,0,0,0,5.86,4.09c5.85.64,11.32.38,7.88-4.07l.62,0h0l.48,0a6.17,6.17,0,0,1,1.63.4h0a4.35,4.35,0,0,1,1.82,1.3c.64.76,13.86-.51,13.86-.51s-2.46,3.16-1.37,5.92c.63,1.61,2.47,3.09,6.71,3.72,11.51,1.72,35.87,2.31,35.87,2.31s-1.29,4.55,4.73,5.36,21.45.93,23.19-3-.23-3.56,2.39-6.09,5.62-3.94,8.72-3.47,12.65-2.72,13-7.5,16.87-8.62,18.56-8.62,12.93-2.81,17.52,2.62c1.78,2.11,4.7,2.78,7.69,2.7h0c4.72-.12,9.61-2.12,10.47-3.27,1.39-1.88,3.95-4.77,5.64-3.27s5.43,3.66,7.87,2.91,6.44.53,5.65,2.18c0,0-5.46,4.45-1.39,9.28S362,106.09,362,106.09s2.69,4.9,7.15,4.26a6.71,6.71,0,0,0,2.13-.7c5.57-2.84,5.36-9.66,2.88-11.9l-.21-.17c4.83.63,8.26.12,9-6.49a4.7,4.7,0,0,0,4-2.27h0c1.81-2.88,1-7.57-4-8.52,3.17-5.6.12-13.74-15.13-13.1-.26-2.92-5.47-2.54-5.47-2.54s3.05-4.58-2.67-7.12S347.63,55,344.45,57s-21.23,7.63-21.23,7.63-1.52-3.43-3.56-1.27S293,83.85,293,83.85s-4.57-3-7.62-.87S273.51,95.8,273.51,95.8s-12.08-4-14.49-6.11-4.27-5.08-2.84-5.72,2.46-4-2.37-6.94-9.54-6.53-11.45-7.17-8,.76-9.4,4.7-9.41,3.69-14.63-.12S206.77,62.23,206,60.58c-.66-1.44-4.7-4.32-7.25-3.7a2.33,2.33,0,0,0-1,.52c-1.4-1.85-7-.76-7.88,2.67-3.44-1.14-10.94,2.29-6,10.55-2.29,0-6.61,1.53-14.24-3.43-4.08-2.66-9.61-1.12-13.53,1.87,0,0,0,0-.05,0s0,0,0,0l-.14.1a.33.33,0,0,0-.13.11,1.07,1.07,0,0,0-.23.2l-.33.27,0,0c-2.86,2.53-4.57,5.83-3.6,8.57C145.74,79.65,142.05,84.48,146.88,89.31Z"/><path class="cls-13" d="M146.88,89.31a3.61,3.61,0,0,0-.44,1.82h0c.1,3.37,5.23,5.67,6.42,4.91-.9,1.29-.83,3.63.24,5.7a7.38,7.38,0,0,0,5.86,4.09c5.85.64,11.32.38,7.88-4.07l.62,0h0l.48,0a6.17,6.17,0,0,1,1.63.4h0a4.35,4.35,0,0,1,1.82,1.3c.64.76,13.86-.51,13.86-.51s-2.46,3.16-1.37,5.92c.63,1.61,2.47,3.09,6.71,3.72,11.51,1.72,35.87,2.31,35.87,2.31s-1.29,4.55,4.73,5.36,21.45.93,23.19-3-.23-3.56,2.39-6.09,5.62-3.94,8.72-3.47,12.65-2.72,13-7.5,16.87-8.62,18.56-8.62,12.93-2.81,17.52,2.62c1.78,2.11,4.7,2.78,7.69,2.7h0c4.72-.12,9.61-2.12,10.47-3.27,1.39-1.88,3.95-4.77,5.64-3.27s5.43,3.66,7.87,2.91,6.44.53,5.65,2.18c0,0-5.46,4.45-1.39,9.28S362,106.09,362,106.09s2.69,4.9,7.15,4.26a6.71,6.71,0,0,0,2.13-.7c5.57-2.84,5.36-9.66,2.88-11.9l-.21-.17c4.83.63,8.26.12,9-6.49a4.7,4.7,0,0,0,4-2.27h0c1.81-2.88,1-7.57-4-8.52,3.17-5.6.12-13.74-15.13-13.1-.26-2.92-5.47-2.54-5.47-2.54s3.05-4.58-2.67-7.12S347.63,55,344.45,57s-21.23,7.63-21.23,7.63-1.52-3.43-3.56-1.27S293,83.85,293,83.85s-4.57-3-7.62-.87S273.51,95.8,273.51,95.8s-12.08-4-14.49-6.11-4.27-5.08-2.84-5.72,2.46-4-2.37-6.94-9.54-6.53-11.45-7.17-8,.76-9.4,4.7-9.41,3.69-14.63-.12S206.77,62.23,206,60.58c-.66-1.44-4.7-4.32-7.25-3.7a2.33,2.33,0,0,0-1,.52c-1.4-1.85-7-.76-7.88,2.67-3.44-1.14-10.94,2.29-6,10.55-2.29,0-6.61,1.53-14.24-3.43-4.08-2.66-9.61-1.12-13.53,1.87,0,0,0,0-.05,0s0,0,0,0l-.14.1a.33.33,0,0,0-.13.11,1.07,1.07,0,0,0-.23.2l-.33.27,0,0c-2.86,2.53-4.57,5.83-3.6,8.57C145.74,79.65,142.05,84.48,146.88,89.31Z"/><path class="cls-6" d="M369.15,110.35a6.71,6.71,0,0,0,2.13-.7c5.57-2.84,5.36-9.66,2.88-11.9l-.21-.17s1.34-6-4.19-8c2.17,3.11,1.28,9.27,1.28,9.27A8.76,8.76,0,0,1,369.15,110.35Z"/><path class="cls-6" d="M319.66,63.38c2-2.16,3.56,1.27,3.56,1.27s18.06-5.6,21.23-7.63,9.54-2,15.26.51c-16.2,2.43-22.16,7.65-24.35,11.34,7.54.75,25.41,3.39,27.88,11.64,3.15,10.5-7.44,0-7.44,0l-23.6-7.19c-2.25.43-6.25,1.18-10.51,1.88-6.49,1.08-12.25,5.06-19.09,8.65s-9.64,0-9.64,0S317.63,65.54,319.66,63.38Z"/><path class="cls-6" d="M358,83.25c-.28,1.34,1.12,2.19-1.31,8a15.24,15.24,0,0,0-5.16-7.56l1.59-3.21S358.31,81.91,358,83.25Z"/><path class="cls-6" d="M378,77A18.5,18.5,0,0,1,381,82.94s6.23.16,6,5.87c1.81-2.88,1-7.57-4-8.52C383,80.29,382.32,75.78,378,77Z"/><path class="cls-6" d="M322.32,97c4.72-.12,9.61-2.12,10.47-3.27,1.39-1.88,3.95-4.77,5.64-3.27a14.87,14.87,0,0,1-.92-3.46C337.39,85.52,330,95.84,322.32,97Z"/><path class="cls-6" d="M189.79,76.84c3.06,2,4.87,1.77,7.88,3.81.53.36,1.1.7,1.65,1.06s1.23.56,1.83.81C210,86.08,222.6,92,222.8,103.17a7.2,7.2,0,0,1-1,3.63c5.71,1.63,12.26,3.39,14.78,3.62,4.85.44,12.46-1.46,12.46-1.46s9.15-5.85,11.18-6.92,13.26-6.24,13.26-6.24-12.08-4-14.49-6.11-4.27-5.08-2.84-5.72,2.46-4-2.37-6.94-9.54-6.53-11.45-7.17-8,.76-9.4,4.7-9.41,3.69-14.63-.12S206.77,62.23,206,60.58c-.66-1.44-4.7-4.32-7.25-3.7,4.85,4.06,7.67,9.71,9.3,12.06C212.74,75.71,197.85,76.58,189.79,76.84Z"/><path class="cls-6" d="M156.11,69.06c3-2,10.81-.67,14.87,2.23,4.35,3.11,15.08,2,15.08,2l-2.18-2.69c-2.29,0-6.61,1.53-14.24-3.43C165.56,64.53,160,66.07,156.11,69.06Z"/><path class="cls-6" d="M155.21,69.79a1.22,1.22,0,0,0,.33-.27Z"/><path class="cls-6" d="M152.86,96.05c-.9,1.29-.83,3.63.24,5.7,0,0-1-5.5,1.48-6.94-3.94,0-7.63-2.48-8.13-3.66a0,0,0,0,0,0,0C146.54,94.51,151.67,96.81,152.86,96.05Z"/><path class="cls-6" d="M169.6,102.25a4.35,4.35,0,0,1,1.82,1.3c.64.76,13.86-.51,13.86-.51s-2.46,3.16-1.37,5.92c0,0,1-6.13,5.88-7.54C183.53,102.26,173.94,102.88,169.6,102.25Z"/><path class="cls-6" d="M167.46,101.79h0l.48,0C167.59,101.68,167.45,101.68,167.46,101.79Z"/><path class="cls-6" d="M213,93.7s-33.12-16.51-34.09-14.58-.16,4.53-2.25,4.56-18.18-.93-21.08,1.28c11,.6,25.23,5.78,28.71,7.29s35.18,13.27,35.18,13.27l3.7-6Z"/><path class="cls-3" d="M327.14,75.05c3.12-.42,13.63,3.32,15.19,4.16s3,1.87,5.3,2.08l.28,0c2.19.45,4.33,3.76,5.23,2.87s5.82.1,9.36-1.87-6.34-6.45-13.21-9.15c-4.41-1.74-13-1.63-18.57-1.33-3.08.16-5.24.39-5.24.39C316.23,76,324,75.46,327.14,75.05Z"/><path class="cls-14" d="M327.14,75.05c3.12-.42,13.63,3.32,15.19,4.16s3,1.87,5.3,2.08l.28,0c2.19.45,4.33,3.76,5.23,2.87s5.82.1,9.36-1.87-6.34-6.45-13.21-9.15c-4.41-1.74-13-1.63-18.57-1.33-3.08.16-5.24.39-5.24.39C316.23,76,324,75.46,327.14,75.05Z"/><path class="cls-6" d="M330.72,71.85a45.37,45.37,0,0,1,17.19,9.48c2.19.45,4.33,3.76,5.23,2.87s5.82.1,9.36-1.87-6.34-6.45-13.21-9.15C344.88,71.44,336.29,71.55,330.72,71.85Z"/><path class="cls-3" d="M166.67,84.33c2.79.48,8.69,1.62,8.45,2.57-.32,1.25,5.51,3.33,8.42,4.89s6.65,8.11,9.46,8.73c2.24.5,9.43,5,17.73,7.23a36.68,36.68,0,0,0,6.5,1.21c8.52.73,17.88,1.21,21.47,1.39a.71.71,0,0,0,.6-1.15c-.88-1.17-2.35-3.08-4.16-5.33-3.73-4.63-8.9-10.67-13.33-14.47-8-6.87-11.23-7.91-14.67-7.28s-12.33-6.19-17.88-5.18a.16.16,0,0,0,0,.3c5,2.78,16.8,6.6,27.25,20.79h0c.67.91,1.33,1.86,2,2.86a.42.42,0,0,1-.61.56c-1-.89-2.19-1.86-3.43-2.88h0c-7.83-6.43-19.4-14.69-34.63-17.35a.17.17,0,0,0-.19.17c0,2.1-.41,2.3-3.64,2.3-2.41,0-6.94.22-9.26.34A.16.16,0,0,0,166.67,84.33Z"/><path class="cls-15" d="M166.67,84.33c2.79.48,8.69,1.62,8.45,2.57-.32,1.25,5.51,3.33,8.42,4.89s6.65,8.11,9.46,8.73c2.24.5,9.43,5,17.73,7.23a36.68,36.68,0,0,0,6.5,1.21c8.52.73,17.88,1.21,21.47,1.39a.71.71,0,0,0,.6-1.15c-.88-1.17-2.35-3.08-4.16-5.33-3.73-4.63-8.9-10.67-13.33-14.47-8-6.87-11.23-7.91-14.67-7.28s-12.33-6.19-17.88-5.18a.16.16,0,0,0,0,.3c5,2.78,16.8,6.6,27.25,20.79h0c.67.91,1.33,1.86,2,2.86a.42.42,0,0,1-.61.56c-1-.89-2.19-1.86-3.43-2.88h0c-7.83-6.43-19.4-14.69-34.63-17.35a.17.17,0,0,0-.19.17c0,2.1-.41,2.3-3.64,2.3-2.41,0-6.94.22-9.26.34A.16.16,0,0,0,166.67,84.33Z"/><path class="cls-6" d="M210.73,107.75a36.68,36.68,0,0,0,6.5,1.21c8.52.73,17.88,1.21,21.47,1.39a.71.71,0,0,0,.6-1.15c-.88-1.17-2.35-3.08-4.16-5.33.17,2-.34,3.39-1.93,3.21-3.1-.36-16.74-9-16.74-9,.67.91,1.33,1.86,2,2.86a.42.42,0,0,1-.61.56c-1-.89-2.19-1.86-3.43-2.88.26.34,5.47,7,2.87,6.78a23.88,23.88,0,0,1-6.4-1.93C211,103.64,212.79,106.56,210.73,107.75Z"/><path class="cls-3" d="M219.1,83.05c2.47,1.7,10.72,9.33,17.51,15.77,5.24,5,9.6,9.23,9.74,9.5.31.63,1,1.56,5.72-1.56,2.14-1.42,4.36-2.7,6.15-3.65.77-.43,1.46-.79,2-1.07a.83.83,0,0,0,0-1.49,38.28,38.28,0,0,1-9-5.43c-3.64-3.33-13.41-11.86-17.26-12.27s-11-3-11.54-1.77-5.82-1.77-7.9-2.5S214.74,80,219.1,83.05Z"/><path class="cls-16" d="M219.1,83.05c2.47,1.7,10.72,9.33,17.51,15.77,5.24,5,9.6,9.23,9.74,9.5.31.63,1,1.56,5.72-1.56,2.14-1.42,4.36-2.7,6.15-3.65.77-.43,1.46-.79,2-1.07a.83.83,0,0,0,0-1.49,38.28,38.28,0,0,1-9-5.43c-3.64-3.33-13.41-11.86-17.26-12.27s-11-3-11.54-1.77-5.82-1.77-7.9-2.5S214.74,80,219.1,83.05Z"/><path class="cls-6" d="M236.61,98.82c5.24,5,9.6,9.23,9.74,9.5.31.63,1,1.56,5.72-1.56,2.14-1.42,4.36-2.7,6.15-3.65C253.85,103.13,244.49,102.55,236.61,98.82Z"/><path class="cls-17" d="M294.62,85.45S288,81.52,286,83.33s-11.51,11.35-10.38,10.76S286.78,85,288,85.45,296.27,87,294.62,85.45Z"/><path class="cls-18" d="M328.39,93.1s-7.21,5.37-11.27,2-9.35-5.78-13.63-5.45-1.18-2.51,2.43-2.35,11.83,7.07,14.51,6.39A41.79,41.79,0,0,1,328.39,93.1Z"/><path class="cls-19" d="M354.38,88.81s-5.24-7.61-17.7-10.19-8.82.52-6,.86S347.51,82.32,354.38,88.81Z"/><path class="cls-20" d="M278,99.3a8.7,8.7,0,0,1-5.23,6.22c-4.68,2.12-9.85,1.36-11.33,1.63s-4.53-2.18,1-2.27S277.39,101.13,278,99.3Z"/><path class="cls-21" d="M247.42,119.08S230.57,119,230,115.43s-1.67-3.84-1.86-1.89-.7,6.11,3.2,6.43S247.42,119.08,247.42,119.08Z"/><path class="cls-22" d="M192.46,101.84s-4.52.14-6,3.35-1.28,6.66,9.74,7.49,18.78,1.9,18.78,1.9-24.49-3.39-23.5-5.62S195.13,102.26,192.46,101.84Z"/><path class="cls-23" d="M157.22,95.59s2.76,5.39,5.65,6.12,3.37,2.9-1.2,2.48S156.38,98.48,157.22,95.59Z"/><path class="cls-24" d="M187,98A10,10,0,0,0,181,92.24c-4.58-1.45-23.55-6.56-23.55-6.56s23.44,7,25.25,9.91S187.44,99,187,98Z"/><path class="cls-25" d="M160.39,70.32s-5.87,5-5,10.45c-2.94,0-7.47,3.63-7.47,4.91s-2.11-.66-1.47-1.59,6.63-4,6.91-5.12S156,70.32,160.39,70.32Z"/><path class="cls-26" d="M194.08,57.69s-3.31,2.57-3.77,4.07-5-1.73-6.1,1-.23,8.21.53,6.78.75-6.25,3.54-5.95S193.86,59.43,194.08,57.69Z"/><path class="cls-27" d="M177.37,77.57s.89,3.82-4.09,4.36-12.89.53-12.89.53a23.89,23.89,0,0,1,6.15-1C170.79,81.22,177,75.25,177.37,77.57Z"/><path class="cls-28" d="M254.41,82.38s.78-1.37-5.34-5.54-9.66-6.71-11.36-5.17S235,76.43,233.24,77s-.66,2.25,1.88,1,2-4.24,5.08-2.58S254.06,80.39,254.41,82.38Z"/><path class="cls-29" d="M366.44,66.06s-5.39,1.5-5.39,0,2.65-6.47,0-7.05-8.95-.59-6.18.49,2.86,5.65,4,8S365.86,68.39,366.44,66.06Z"/><path class="cls-30" d="M381.86,74.1s-5.45-5.55-11.95-4.51-7.05,1.31-2.07,1.59S381.86,74.1,381.86,74.1Z"/><path class="cls-31" d="M381.28,90.27s-5.71,8.37-5.46,6-.85-5.2-1.87-6,6.87-1.72,7.33-3.55,2.69-2,2.6,0S381.28,90.27,381.28,90.27Z"/><path class="cls-32" d="M354.38,95.75s2.32,6.18,5.93,4.2,3.34,1.09,5.66,2.48,4,4.92,1.11,3.62-4.91-4-7.23-3.34S351.68,101.14,354.38,95.75Z"/></g></g></g></svg>