<svg xmlns="http://www.w3.org/2000/svg" xmlns:xlink="http://www.w3.org/1999/xlink" viewBox="0 0 512.37 197.72"><defs><style>.cls-1{isolation:isolate;}.cls-2{fill:none;}.cls-3{fill:#81d0d3;}.cls-11,.cls-4,.cls-6{mix-blend-mode:color-burn;}.cls-4{fill:url(#radial-gradient);}.cls-12,.cls-14,.cls-15,.cls-16,.cls-17,.cls-5{opacity:0.1;mix-blend-mode:multiply;}.cls-5{fill:url(#linear-gradient);}.cls-6{fill:#0071bc;opacity:0.2;}.cls-13,.cls-18,.cls-19,.cls-20,.cls-21,.cls-22,.cls-23,.cls-24,.cls-25,.cls-26,.cls-27,.cls-28,.cls-29,.cls-30,.cls-31,.cls-32,.cls-33,.cls-7,.cls-8,.cls-9{opacity:0.8;}.cls-13,.cls-7,.cls-8,.cls-9{mix-blend-mode:screen;}.cls-7{fill:url(#linear-gradient-2);}.cls-8{fill:url(#linear-gradient-3);}.cls-9{fill:url(#linear-gradient-4);}.cls-10{fill:#d9f7ff;}.cls-11{fill:url(#radial-gradient-2);}.cls-12{fill:url(#linear-gradient-5);}.cls-13{fill:url(#linear-gradient-6);}.cls-14{fill:url(#linear-gradient-7);}.cls-15{fill:url(#linear-gradient-8);}.cls-16{fill:url(#linear-gradient-9);}.cls-17{fill:url(#linear-gradient-10);}.cls-18,.cls-19,.cls-20,.cls-21,.cls-22,.cls-23,.cls-24,.cls-25,.cls-26,.cls-27,.cls-28,.cls-29,.cls-30,.cls-31,.cls-32,.cls-33{mix-blend-mode:color-dodge;}.cls-18{fill:url(#linear-gradient-11);}.cls-19{fill:url(#linear-gradient-12);}.cls-20{fill:url(#linear-gradient-13);}.cls-21{fill:url(#linear-gradient-14);}.cls-22{fill:url(#linear-gradient-15);}.cls-23{fill:url(#linear-gradient-16);}.cls-24{fill:url(#linear-gradient-17);}.cls-25{fill:url(#linear-gradient-18);}.cls-26{fill:url(#linear-gradient-19);}.cls-27{fill:url(#linear-gradient-20);}.cls-28{fill:url(#linear-gradient-21);}.cls-29{fill:url(#linear-gradient-22);}.cls-30{fill:url(#linear-gradient-23);}.cls-31{fill:url(#linear-gradient-24);}.cls-32{fill:url(#linear-gradient-25);}.cls-33{fill:url(#linear-gradient-26);}</style><radialGradient id="radial-gradient" cx="1470.59" cy="118.91" r="98.28" gradientTransform="matrix(-1, 0, 0, 1, 1748.94, 0)" gradientUnits="userSpaceOnUse"><stop offset="0" stop-color="#fff"/><stop offset="0.22" stop-color="#fcfcfd"/><stop offset="0.36" stop-color="#f4f4f8"/><stop offset="0.47" stop-color="#e6e5ee"/><stop offset="0.58" stop-color="#d1d0e0"/><stop offset="0.68" stop-color="#b7b5ce"/><stop offset="0.77" stop-color="#9793b8"/><stop offset="0.85" stop-color="#706c9e"/><stop offset="0.93" stop-color="#453f81"/><stop offset="1" stop-color="#1b1464"/></radialGradient><linearGradient id="linear-gradient" x1="1471.59" y1="168.11" x2="1471.59" y2="87.54" gradientTransform="matrix(-1, 0, 0, 1, 1748.94, 0)" gradientUnits="userSpaceOnUse"><stop offset="0" stop-color="#fff"/><stop offset="0.12" stop-color="#fbfbfc"/><stop offset="0.25" stop-color="#eeedf3"/><stop offset="0.38" stop-color="#d8d7e5"/><stop offset="0.52" stop-color="#bab8d0"/><stop offset="0.66" stop-color="#9491b6"/><stop offset="0.81" stop-color="#656096"/><stop offset="0.95" stop-color="#2e2871"/><stop offset="1" stop-color="#1b1464"/></linearGradient><linearGradient id="linear-gradient-2" x1="1434" y1="167.46" x2="1434" y2="83.27" gradientTransform="matrix(-1, 0, 0, 1, 1748.94, 0)" gradientUnits="userSpaceOnUse"><stop offset="0"/><stop offset="1" stop-color="#fff"/></linearGradient><linearGradient id="linear-gradient-3" x1="1514.11" y1="167.74" x2="1514.11" y2="108.32" xlink:href="#linear-gradient-2"/><linearGradient id="linear-gradient-4" x1="1540.15" y1="165.1" x2="1540.15" y2="108.41" xlink:href="#linear-gradient-2"/><radialGradient id="radial-gradient-2" cx="1480.34" cy="63.97" r="136.03" gradientTransform="matrix(-1, 0, 0, 1, 1748.94, 0)" gradientUnits="userSpaceOnUse"><stop offset="0" stop-color="#1b1464"/><stop offset="0.07" stop-color="#453f81"/><stop offset="0.15" stop-color="#706c9e"/><stop offset="0.23" stop-color="#9793b8"/><stop offset="0.32" stop-color="#b7b5ce"/><stop offset="0.42" stop-color="#d1d0e0"/><stop offset="0.53" stop-color="#e6e5ee"/><stop offset="0.64" stop-color="#f4f4f8"/><stop offset="0.78" stop-color="#fcfcfd"/><stop offset="1" stop-color="#fff"/></radialGradient><linearGradient id="linear-gradient-5" x1="1480.34" y1="119.71" x2="1480.34" y2="56.6" gradientTransform="matrix(-1, 0, 0, 1, 1748.94, 0)" xlink:href="#radial-gradient-2"/><linearGradient id="linear-gradient-6" x1="1422.8" y1="163.3" x2="1422.8" y2="105.99" xlink:href="#linear-gradient-2"/><linearGradient id="linear-gradient-7" x1="1511.58" y1="101.61" x2="1511.58" y2="80.05" gradientTransform="matrix(-1, 0, 0, 1, 1748.94, 0)" xlink:href="#radial-gradient"/><linearGradient id="linear-gradient-8" x1="1533.14" y1="103.28" x2="1533.14" y2="79.95" gradientTransform="matrix(-1, 0, 0, 1, 1748.94, 0)" xlink:href="#radial-gradient"/><linearGradient id="linear-gradient-9" x1="1557.28" y1="104.06" x2="1557.28" y2="83.1" gradientTransform="matrix(-1, 0, 0, 1, 1748.94, 0)" xlink:href="#radial-gradient"/><linearGradient id="linear-gradient-10" x1="1395.96" y1="85.26" x2="1395.96" y2="72.81" gradientTransform="matrix(-1, 0, 0, 1, 1748.94, 0)" xlink:href="#radial-gradient"/><linearGradient id="linear-gradient-11" x1="1401.78" y1="89.23" x2="1426.34" y2="67.21" xlink:href="#linear-gradient-2"/><linearGradient id="linear-gradient-12" x1="1413.54" y1="92.27" x2="1430.75" y2="76.84" xlink:href="#linear-gradient-2"/><linearGradient id="linear-gradient-13" x1="1460.86" y1="86.23" x2="1470" y2="78.04" xlink:href="#linear-gradient-2"/><linearGradient id="linear-gradient-14" x1="1471.51" y1="95.9" x2="1474.81" y2="92.95" xlink:href="#linear-gradient-2"/><linearGradient id="linear-gradient-15" x1="1500.84" y1="119.86" x2="1517.06" y2="105.33" xlink:href="#linear-gradient-2"/><linearGradient id="linear-gradient-16" x1="1373.72" y1="111.14" x2="1388.36" y2="98.01" xlink:href="#linear-gradient-2"/><linearGradient id="linear-gradient-17" x1="1358.31" y1="99.21" x2="1361.09" y2="96.72" xlink:href="#linear-gradient-2"/><linearGradient id="linear-gradient-18" x1="1356.05" y1="84.25" x2="1372.37" y2="69.62" xlink:href="#linear-gradient-2"/><linearGradient id="linear-gradient-19" x1="1377.59" y1="74.85" x2="1388.67" y2="64.92" xlink:href="#linear-gradient-2"/><linearGradient id="linear-gradient-20" x1="1546.66" y1="114.01" x2="1562.66" y2="99.67" xlink:href="#linear-gradient-2"/><linearGradient id="linear-gradient-21" x1="1562.57" y1="100.86" x2="1576.67" y2="88.22" xlink:href="#linear-gradient-2"/><linearGradient id="linear-gradient-22" x1="1589.35" y1="102.01" x2="1605.85" y2="87.22" xlink:href="#linear-gradient-2"/><linearGradient id="linear-gradient-23" x1="1584.18" y1="77.82" x2="1593.13" y2="69.79" xlink:href="#linear-gradient-2"/><linearGradient id="linear-gradient-24" x1="1551.56" y1="68.44" x2="1557.95" y2="62.71" xlink:href="#linear-gradient-2"/><linearGradient id="linear-gradient-25" x1="1495.58" y1="84.83" x2="1512.34" y2="69.81" xlink:href="#linear-gradient-2"/><linearGradient id="linear-gradient-26" x1="1496.6" y1="105.34" x2="1499.15" y2="103.06" xlink:href="#linear-gradient-2"/></defs><g class="cls-1"><g id="Layer_2" data-name="Layer 2"><g id="bg"><rect class="cls-2" width="512.37" height="197.72" transform="translate(512.37 197.72) rotate(180)"/></g><g id="_5" data-name="5"><path class="cls-3" d="M190.65,106.94l5.85,6.62a79.24,79.24,0,0,1,10,13.63,94.79,94.79,0,0,1,12.26,33.3,5.54,5.54,0,0,0,2.19,3.59,5.39,5.39,0,0,0,2,.91l.18,0a192.83,192.83,0,0,0,22.34,2.48c.67.05,1.35.08,2,.12a289.19,289.19,0,0,0,38.32-.33c2.39-.2,4.7-.44,6.9-.71,1.4-.18,2.75-.37,4.06-.58,1-.17,2-.34,3-.53a54.82,54.82,0,0,0,8.6-2.29,5.44,5.44,0,0,0,3.31-3.59c2.3-7.88,9.71-32.23,15.07-38.25a155,155,0,0,1,13.59-14.14c1.12-1,2.27-1.91,3.44-2.79l.23-.16a35,35,0,0,1,5.9-3.63l.06,0a16.84,16.84,0,0,1,8-1.84c11.49.58,3.12-10.13,3.12-10.13L344,84.89l-3.09-.67-11-2.41-5.55-.48L320.11,81l-21.93-1.89-21.62,6.63L254.41,103l-13.82,3.65-4.35,1.15-1.76.46-8.43-.55-3.94-.26-11.39-.75-12,.12-4.11,0Z"/><path class="cls-4" d="M190.65,106.94l5.85,6.62a79.24,79.24,0,0,1,10,13.63,94.79,94.79,0,0,1,12.26,33.3,5.54,5.54,0,0,0,2.19,3.59,5.39,5.39,0,0,0,2,.91l.18,0a192.83,192.83,0,0,0,22.34,2.48c.67.05,1.35.08,2,.12a289.19,289.19,0,0,0,38.32-.33c2.39-.2,4.7-.44,6.9-.71,1.4-.18,2.75-.37,4.06-.58,1-.17,2-.34,3-.53a54.82,54.82,0,0,0,8.6-2.29,5.44,5.44,0,0,0,3.31-3.59c2.3-7.88,9.71-32.23,15.07-38.25a155,155,0,0,1,13.59-14.14c1.12-1,2.27-1.91,3.44-2.79l.23-.16a35,35,0,0,1,5.9-3.63l.06,0a16.84,16.84,0,0,1,8-1.84c11.49.58,3.12-10.13,3.12-10.13L344,84.89l-3.09-.67-11-2.41-5.55-.48L320.11,81l-21.93-1.89-21.62,6.63L254.41,103l-13.82,3.65-4.35,1.15-1.76.46-8.43-.55-3.94-.26-11.39-.75-12,.12-4.11,0Z"/><path class="cls-5" d="M190.65,106.94l5.85,6.62a79.24,79.24,0,0,1,10,13.63,94.79,94.79,0,0,1,12.26,33.3,5.54,5.54,0,0,0,2.19,3.59,5.39,5.39,0,0,0,2,.91l.18,0a192.83,192.83,0,0,0,22.34,2.48c.67.05,1.35.08,2,.12a289.19,289.19,0,0,0,38.32-.33c2.39-.2,4.7-.44,6.9-.71,1.4-.18,2.75-.37,4.06-.58,1-.17,2-.34,3-.53a54.82,54.82,0,0,0,8.6-2.29,5.44,5.44,0,0,0,3.31-3.59c2.3-7.88,9.71-32.23,15.07-38.25a155,155,0,0,1,13.59-14.14c1.12-1,2.27-1.91,3.44-2.79l.23-.16a35,35,0,0,1,5.9-3.63l.06,0a16.84,16.84,0,0,1,8-1.84c11.49.58,3.12-10.13,3.12-10.13L344,84.89l-3.09-.67-11-2.41-5.55-.48L320.11,81l-21.93-1.89-21.62,6.63L254.41,103l-13.82,3.65-4.35,1.15-1.76.46-8.43-.55-3.94-.26-11.39-.75-12,.12-4.11,0Z"/><path class="cls-6" d="M190.65,106.94l5.85,6.62a79.24,79.24,0,0,1,10,13.63,12,12,0,0,0,3.32.89,5.91,5.91,0,0,0,2.52-.24,5.1,5.1,0,0,0,2.9-2.7c1.27-2.54,8.61,6.77,12.13,9.88s4.94,1.13,7.48-1c1.63-1.36,4.61,3.58,7.09,8.78,1.38,2.89,2.6,5.86,3.36,7.87s1.25,1.57,1.6-.11c.6-2.95.77-9.59,1.22-12.73.71-4.94,4.37-6.77,8.05-7.9s11.71-9.32,15.38-16,29.07-17.36,31.61-18.49c1.49-.66,1.47,2.3,1.55,5.24,0,2,.14,4,.79,4.85l.06.07c1.69,1.84,7.48-7.9,7.48-6.06s2.26,3,4.51,1.55,2.26,2,1.7,5.64c-.08.53,0,.82.29.93.6.26,2-.5,3.62-1.63a0,0,0,0,1,0,0,58.86,58.86,0,0,0,6.38-5.36c2.12-2.11,2.68,4.8,3.81,4s5.22-2.12,3.95.7c-.9,2,1,2.08,2.24,2,.41,0,.73-.1.84-.12,1.12-1,2.27-1.91,3.44-2.79l.23-.16c3.18-2.07,5.5-3.4,5.9-3.63l.06,0a16.84,16.84,0,0,1,8-1.84c11.49.58,3.12-10.13,3.12-10.13L344,84.89l-3.09-.67-11-2.41-5.55-.48L320.11,81l-21.93-1.89-21.62,6.63L254.41,103l-13.82,3.65-4.35,1.15-1.76.46-8.43-.55-3.94-.26-11.39-.75-12,.12-4.11,0Z"/><path class="cls-7" d="M285.87,167.3c2.39-.2,4.7-.44,6.9-.71.29-1.61.85-3.56,1.79-4.19,1.69-1.13,2.27,3.61,2.27,3.61,1-.17,2-.34,3-.53,1.6-22.75,15.05-47.68,23.34-59.39a0,0,0,0,1,0,0,74.61,74.61,0,0,1,18.52-18.2l2.31-3-3.09-.67c-8.35,6.16-15.59,15-21.37,23.5a190.42,190.42,0,0,0-11.3,19.11c-5.79,11.15-9.88,30.34-9.88,32s-1.55-.85-1.55-2.82-4.09-.15-5.65,3.38c-.56-27.38,6.92-38.38,11.58-48.65a53.23,53.23,0,0,1,2.76-5.19c5.63-9.41,14.59-19.83,14.59-19.83l4.28-4.43L320.11,81c-2.89,3.11-6.17,6.84-9.46,11a75.79,75.79,0,0,0-5.93,8.77c-6,10.25-9.8,21.22-12.42,27.64-3.39,8.33-3.24,26.25-3.67,31.48A16.11,16.11,0,0,1,285.87,167.3Z"/><path class="cls-8" d="M222.11,107.49c3,3.68,10,12.45,13,16.94,3.95,5.79,5.07,6.23,5.92,12.28.17,1.23.49,3.41.88,6.1,1.06,7.37,2.68,18.59,3.57,24.7.67.05,1.35.08,2,.12,0-2.81-.16-9.2-.64-17.06a233.15,233.15,0,0,0-3.72-31.22c-1.13-5.54-2-9.63-2.6-12.66l-4.35,1.15c1.73,6,4.39,15.9,1.87,12.78s-8.43-9.19-12.06-12.87Z"/><path class="cls-9" d="M194.57,106.9a83,83,0,0,1,15.26,21.18,66.4,66.4,0,0,1,2.74,6.28A183.28,183.28,0,0,1,221,164.08a5.39,5.39,0,0,0,2,.91c-.15-4.62-1.3-17.21-8.74-33.22-.63-1.36-1.27-2.67-1.91-3.93a106.9,106.9,0,0,0-13.67-21Z"/><path class="cls-10" d="M151.36,109.11c.69.13,1.35.22,2,.29,8.88.93,9.84-4.59,8.61-9.53,4.1,1.71,14.14-.67,14.14-.67s1.85,2.12,4.23,1.47c-2.12,3.06-2.12,7.52,1.71,8.31.8,6.48,11.24,5.42,14.49,4.58,3.25,1.27,5.73.58,7.05-1.37s17-1.23,19.45-1.36,3.15,5.82,7.74,7.62,6.9-1.14,6.9-1.14,3.17,2.64,9.91,2.38,4.49-9,3.44-9.78,12-8.19,14.66-9.78c1.32,6.74,10.57-.93,14.27-3.57s.8-7.26.8-7.26,6.73-4,11.09-6.48,14-.26,18.63,0,11.24,7.53,21.52,9.35S340,88.11,340,88.11l1,.22h0c2.32.52,8,1.75,10.1,1.75,1.19.92,9.12,6.6,9.12,6.6-3.31-.4-5.16,1.19-5.16,3.57a2.12,2.12,0,0,0,.06.49c.52,2.34,4.61,5.41,8.88,6.6.09,6.43,9.7,7.05,15.77,4.84,5.9-2.15,3.59-9.25,3.45-9.66,0,0,0,0,0,0,6.47,3.3,8.32-2.12,8.59-4.63,2.39-.52,3.58-1.63,4-2.95.83-2.7-1.59-6.29-3.72-7.62.49-.61,3.12-4.7,1.64-9.16h0a8.61,8.61,0,0,0-.45-1.11,3.65,3.65,0,0,0-.44-.69h0c-3.41-4.39-17.25-6.59-17.25-6.59A5.93,5.93,0,0,0,375,62h0a10.74,10.74,0,0,0-1.32-1.26,1.43,1.43,0,0,1-.35-.27,5,5,0,0,0-.47-.33l0,0c-.32-.23-.67-.46-1.05-.68-8.19-4.88-19.42-1.32-23.12,1.72s-8.46,1.59-12.55,1.19c2.11-4.1-3.57-5.28-5.15-3.83s-14,12.55-14,12.55a82.85,82.85,0,0,1-8.49-.26c-5.45-.4-11.07,6.34-12.12,7.13s-2.65-4.09-9.78-3.83-16.12,11.63-16.12,11.63l-2.64-.13c-2.12-6.74-8.46-4.63-8.46-4.63s.13-4.89-7-9.91-14.4.4-20.61,2-17.18-4.75-19.56-8.72a16.36,16.36,0,0,0-16.38-7.53c-7.93,1.15-10.9,7.49-8.23,10.89l.3.34c-5.29,2.25-16-3.43-23.52-3.83A15.38,15.38,0,0,0,152.63,69h0a14.46,14.46,0,0,0-4,10c-9.12,2.87-6,9.55-6,9.55s-3,3.7-.26,7.14C141.58,96.17,140.66,107.13,151.36,109.11Z"/><path class="cls-11" d="M151.36,109.11c.69.13,1.35.22,2,.29,8.88.93,9.84-4.59,8.61-9.53,4.1,1.71,14.14-.67,14.14-.67s1.85,2.12,4.23,1.47c-2.12,3.06-2.12,7.52,1.71,8.31.8,6.48,11.24,5.42,14.49,4.58,3.25,1.27,5.73.58,7.05-1.37s17-1.23,19.45-1.36,3.15,5.82,7.74,7.62,6.9-1.14,6.9-1.14,3.17,2.64,9.91,2.38,4.49-9,3.44-9.78,12-8.19,14.66-9.78c1.32,6.74,10.57-.93,14.27-3.57s.8-7.26.8-7.26,6.73-4,11.09-6.48,14-.26,18.63,0,11.24,7.53,21.52,9.35S340,88.11,340,88.11l1,.22h0c2.32.52,8,1.75,10.1,1.75,1.19.92,9.12,6.6,9.12,6.6-3.31-.4-5.16,1.19-5.16,3.57a2.12,2.12,0,0,0,.06.49c.52,2.34,4.61,5.41,8.88,6.6.09,6.43,9.7,7.05,15.77,4.84,5.9-2.15,3.59-9.25,3.45-9.66,0,0,0,0,0,0,6.47,3.3,8.32-2.12,8.59-4.63,2.39-.52,3.58-1.63,4-2.95.83-2.7-1.59-6.29-3.72-7.62.49-.61,3.12-4.7,1.64-9.16h0a8.61,8.61,0,0,0-.45-1.11,3.65,3.65,0,0,0-.44-.69h0c-3.41-4.39-17.25-6.59-17.25-6.59A5.93,5.93,0,0,0,375,62h0a10.74,10.74,0,0,0-1.32-1.26,1.43,1.43,0,0,1-.35-.27,5,5,0,0,0-.47-.33l0,0c-.32-.23-.67-.46-1.05-.68-8.19-4.88-19.42-1.32-23.12,1.72s-8.46,1.59-12.55,1.19c2.11-4.1-3.57-5.28-5.15-3.83s-14,12.55-14,12.55a82.85,82.85,0,0,1-8.49-.26c-5.45-.4-11.07,6.34-12.12,7.13s-2.65-4.09-9.78-3.83-16.12,11.63-16.12,11.63l-2.64-.13c-2.12-6.74-8.46-4.63-8.46-4.63s.13-4.89-7-9.91-14.4.4-20.61,2-17.18-4.75-19.56-8.72a16.36,16.36,0,0,0-16.38-7.53c-7.93,1.15-10.9,7.49-8.23,10.89l.3.34c-5.29,2.25-16-3.43-23.52-3.83A15.38,15.38,0,0,0,152.63,69h0a14.46,14.46,0,0,0-4,10c-9.12,2.87-6,9.55-6,9.55s-3,3.7-.26,7.14C141.58,96.17,140.66,107.13,151.36,109.11Z"/><path class="cls-12" d="M151.36,109.11c.69.13,1.35.22,2,.29,8.88.93,9.84-4.59,8.61-9.53,4.1,1.71,14.14-.67,14.14-.67s1.85,2.12,4.23,1.47c-2.12,3.06-2.12,7.52,1.71,8.31.8,6.48,11.24,5.42,14.49,4.58,3.25,1.27,5.73.58,7.05-1.37s17-1.23,19.45-1.36,3.15,5.82,7.74,7.62,6.9-1.14,6.9-1.14,3.17,2.64,9.91,2.38,4.49-9,3.44-9.78,12-8.19,14.66-9.78c1.32,6.74,10.57-.93,14.27-3.57s.8-7.26.8-7.26,6.73-4,11.09-6.48,14-.26,18.63,0,11.24,7.53,21.52,9.35S340,88.11,340,88.11l1,.22h0c2.32.52,8,1.75,10.1,1.75,1.19.92,9.12,6.6,9.12,6.6-3.31-.4-5.16,1.19-5.16,3.57a2.12,2.12,0,0,0,.06.49c.52,2.34,4.61,5.41,8.88,6.6.09,6.43,9.7,7.05,15.77,4.84,5.9-2.15,3.59-9.25,3.45-9.66,0,0,0,0,0,0,6.47,3.3,8.32-2.12,8.59-4.63,2.39-.52,3.58-1.63,4-2.95.83-2.7-1.59-6.29-3.72-7.62.49-.61,3.12-4.7,1.64-9.16h0a8.61,8.61,0,0,0-.45-1.11,3.65,3.65,0,0,0-.44-.69h0c-3.41-4.39-17.25-6.59-17.25-6.59A5.93,5.93,0,0,0,375,62h0a10.74,10.74,0,0,0-1.32-1.26,1.43,1.43,0,0,1-.35-.27,5,5,0,0,0-.47-.33l0,0c-.32-.23-.67-.46-1.05-.68-8.19-4.88-19.42-1.32-23.12,1.72s-8.46,1.59-12.55,1.19c2.11-4.1-3.57-5.28-5.15-3.83s-14,12.55-14,12.55a82.85,82.85,0,0,1-8.49-.26c-5.45-.4-11.07,6.34-12.12,7.13s-2.65-4.09-9.78-3.83-16.12,11.63-16.12,11.63l-2.64-.13c-2.12-6.74-8.46-4.63-8.46-4.63s.13-4.89-7-9.91-14.4.4-20.61,2-17.18-4.75-19.56-8.72a16.36,16.36,0,0,0-16.38-7.53c-7.93,1.15-10.9,7.49-8.23,10.89l.3.34c-5.29,2.25-16-3.43-23.52-3.83A15.38,15.38,0,0,0,152.63,69h0a14.46,14.46,0,0,0-4,10c-9.12,2.87-6,9.55-6,9.55s-3,3.7-.26,7.14C141.58,96.17,140.66,107.13,151.36,109.11Z"/><path class="cls-6" d="M192.49,75.12c6.74,6.62,7.54,17.63,7.54,17.63l9.56,5.33L220.2,104l2.7-.3,3.84-.42s9.15-.62,12.76-1.67a18.53,18.53,0,0,1,8,0h0l0,0c.54-.34,9.34-5.79,11.34-7.74s11.49-8.12,11.49-8.12l-2.64-.13c-2.12-6.74-8.46-4.63-8.46-4.63s.13-4.89-7-9.91-14.4.4-20.61,2-17.18-4.75-19.56-8.72a16.36,16.36,0,0,0-16.38-7.53c17.4,5,13,23.48,13,23.48S202.42,78.31,192.49,75.12Z"/><path class="cls-6" d="M152.63,69c7.19-4.24,12-2.14,21.43,1.23s15.32,0,15.32,0L187.83,68c-5.29,2.25-16-3.43-23.52-3.83A15.38,15.38,0,0,0,152.63,69Z"/><path class="cls-6" d="M161.32,84.76s-5.13.81-6.59,3.39c0-5.46,10.25-9.94,18.85-8.25s1.65-5.39,3.48-4.78,16.29,7.93,16.29,7.93l1.22,8-22.45-6.9Z"/><path class="cls-6" d="M153.32,109.4c8.88.93,9.84-4.59,8.61-9.53,4.1,1.71,14.14-.67,14.14-.67s1.85,2.12,4.23,1.47c0,0-4.05-2.63-4.47-4.2-2.62,1.93-12.16,3.77-16.45-.14C160.31,103.06,161.62,108.41,153.32,109.4Z"/><path class="cls-6" d="M316.92,71.06s9.26-1.38,15.81-.93h0c6.47.46,32,7.26,32.84,7.47-.26-.15-2.73-1.52-5.47-3.41-4.76-3.29-10.36-8.16-6.6-10.9,5.67-4.14,16.25-4.83,19.29-3.18-.32-.23-.67-.46-1.05-.68-8.19-4.88-19.42-1.32-23.12,1.72s-8.46,1.59-12.55,1.19c2.11-4.1-3.57-5.28-5.15-3.83S316.92,71.06,316.92,71.06Z"/><path class="cls-6" d="M371.64,84.06s-.38,5.79,7.05,6.29c-3.53,1.89-11.46-3.78-12.09-6.29s-4.53-.63-4.53-.63a10.63,10.63,0,0,0,2,4.72c-3.48-1.41-12.28-8-12.53-9.07s9.18-.94,9.18-.94Z"/><path class="cls-6" d="M379.81,112.19c5.9-2.15,3.59-9.25,3.45-9.66,0,0,0,0,0,0a9.52,9.52,0,0,0-4.56-4.76C385,106.21,379.81,112.19,379.81,112.19Z"/><path class="cls-6" d="M341,88.33h0c2.32.52,8,1.75,10.1,1.75,1.19.92,9.12,6.6,9.12,6.6-3.31-.4-5.16,1.19-5.16,3.57a2.12,2.12,0,0,0,.06.49h0s.49-2.72,8.87-3c-3.07-2.6-11.49-7.45-12.54-9.6A81.64,81.64,0,0,1,341,88.33Z"/><path class="cls-6" d="M390.19,88.15a9.94,9.94,0,0,1,5.63,6.78c.83-2.7-1.59-6.29-3.72-7.62.49-.61,3.12-4.7,1.64-9.16C393.73,78.48,393.58,85.33,390.19,88.15Z"/><path class="cls-6" d="M370.74,70c9.21,0,16.28,4.32,22.1,6.37-3.41-4.39-17.25-6.59-17.25-6.59A5.93,5.93,0,0,0,375,62h0S376.45,66.84,370.74,70Z"/><path class="cls-13" d="M308.43,163.19a5.44,5.44,0,0,0,3.31-3.59c2.3-7.88,9.71-32.23,15.07-38.25a155,155,0,0,1,13.59-14.14c1.12-1,2.27-1.91,3.44-2.79-1.31.85-2.76,1.83-4.28,2.91-6.17,4.39-13.39,10.38-16.63,16.26C316.72,134.88,308.43,163.19,308.43,163.19Z"/><path class="cls-3" d="M215.79,75.12c1.58,2.16,10.85,9.81,19,16.34,6.8,5.47,12.79,10.15,12.79,10.15s10.26-5.54,11.37-7.76c0,0-.42-.33-1.22-.89C253,89.59,235.25,77.73,215.79,75.12Z"/><path class="cls-14" d="M215.79,75.12c1.58,2.16,10.85,9.81,19,16.34,6.8,5.47,12.79,10.15,12.79,10.15s10.26-5.54,11.37-7.76c0,0-.42-.33-1.22-.89C253,89.59,235.25,77.73,215.79,75.12Z"/><path class="cls-3" d="M192.49,75.12c1.32.8,10.17,7.1,19.4,14.69a175.84,175.84,0,0,1,14.85,13.47s12.07-.28,12.76-1.67c0,0-1.61-2.09-4.46-5.1-6.19-6.5-18.24-17.29-32.57-20.42,0,1.39-.41,2.85-2.91.94S190.4,73.87,192.49,75.12Z"/><path class="cls-15" d="M192.49,75.12c1.32.8,10.17,7.1,19.4,14.69a175.84,175.84,0,0,1,14.85,13.47s12.07-.28,12.76-1.67c0,0-1.61-2.09-4.46-5.1-6.19-6.5-18.24-17.29-32.57-20.42,0,1.39-.41,2.85-2.91.94S190.4,73.87,192.49,75.12Z"/><path class="cls-3" d="M160.31,84.83c4.57-.55,12.2,2.08,13.73,3.54s3.47.62,10.68,4.92c4,2.39,8.93,5.91,16.12,8.26A55.58,55.58,0,0,0,223,103.83a85.56,85.56,0,0,0-10.83-11.08c-7.4-6.34-18-13.28-29.81-14.44.69,2.08-1.66.57-3.05.77S164.88,78.31,160.31,84.83Z"/><path class="cls-16" d="M160.31,84.83c4.57-.55,12.2,2.08,13.73,3.54s3.47.62,10.68,4.92c4,2.39,8.93,5.91,16.12,8.26A55.58,55.58,0,0,0,223,103.83a85.56,85.56,0,0,0-10.83-11.08c-7.4-6.34-18-13.28-29.81-14.44.69,2.08-1.66.57-3.05.77S164.88,78.31,160.31,84.83Z"/><path class="cls-3" d="M331.74,70s18.17-.55,25.94,3.05,20.66,10.4,15.25,11.51S359.9,85.66,357,83,339.23,70.68,331.74,70Z"/><path class="cls-17" d="M331.74,70s18.17-.55,25.94,3.05,20.66,10.4,15.25,11.51S359.9,85.66,357,83,339.23,70.68,331.74,70Z"/><path class="cls-6" d="M331.74,70s18.17-.55,25.94,3.05,20.66,10.4,15.25,11.51S359.9,85.66,357,83,339.23,70.68,331.74,70Z"/><path class="cls-6" d="M234.76,91.46c6.8,5.47,12.79,10.15,12.79,10.15s10.26-5.54,11.37-7.76c0,0-.42-.33-1.22-.89-2.09,1.19-5.49,2.9-6.8,2.28-2-.92-4.16-2.41-5.19-1.61s-10.33-3.38-10.88-2.44A.74.74,0,0,0,234.76,91.46Z"/><path class="cls-6" d="M211.89,89.81a175.84,175.84,0,0,1,14.85,13.47s12.07-.28,12.76-1.67c0,0-1.61-2.09-4.46-5.1-.1,1.53-.64,2.61-2.38,2-4-1.5-9.68-5.65-10.55-4.61S211.89,88.65,211.89,89.81Z"/><path class="cls-6" d="M200.84,101.55A55.58,55.58,0,0,0,223,103.83a85.56,85.56,0,0,0-10.83-11.08,13.11,13.11,0,0,0,1.33,3.76c1.5,2.77-.92,3.15-2.31,2.15s-2.62-.65-2.4.51S204.28,101,200.84,101.55Z"/><path class="cls-18" d="M352.54,82.59c-.32-.5-14.64-11.18-20.8-11.79s-18.49,2.29-14.82,2.29,13.38-.41,20.17,3.24S353.89,84.78,352.54,82.59Z"/><path class="cls-19" d="M338,86.54c-.1-.45-16.44-3.23-20-5.57s-4.83-.36-3,1S340.4,97.49,338,86.54Z"/><path class="cls-20" d="M294.18,79.08c.21-1.07-6.06-6.64-12.34-2.75a33.19,33.19,0,0,0-9.56,8.94s9.69-8.88,14.35-7.67S293.76,81.19,294.18,79.08Z"/><path class="cls-21" d="M279.93,86.88a13.94,13.94,0,0,0-1.26,5.93c.13,3.11-6.42,8-7.3,8.77s3-4.88,4.28-7.35S278.17,86.9,279.93,86.88Z"/><path class="cls-22" d="M250.45,109.5s3.35,7.52-2,8.68-7.87-3.17-10.18-2.62-3.95,2.75-6.86,1.4-5.75-5.63-5.75-5.63,5.65,4.65,8.22,3.3,5.64-2.57,8-1.47S250,112.94,250.45,109.5Z"/><path class="cls-23" d="M377.27,108.65s-7.45-.17-7.6-4.23-4.21-2.69-6.6-3.66S359,98,359,99.2s.55,2.93,5.05,5.77S373.26,114.67,377.27,108.65Z"/><path class="cls-24" d="M393.09,93.57s-2.52.78-2.52,2.62-.67,6.16-5,6.38c0,0,3.19-3.19,3.26-5.81A3.24,3.24,0,0,1,393.09,93.57Z"/><path class="cls-25" d="M390.19,87.2s4.63-8.92-1.53-11.75a64.67,64.67,0,0,0-14.44-4.11l10.19,4S391.48,78.06,390.19,87.2Z"/><path class="cls-26" d="M362.46,62s-1.41,8.29,5.67,10.27,1.9,3.61-.86,3S356.72,66.73,362.46,62Z"/><path class="cls-27" d="M208.79,106.69s-5.7,6.1-7.95,6.1-1.86-1.25-6.27-.42-10.21.62-11.18-2.87a11.65,11.65,0,0,0-2.35-4.87s1.52-1.76,3.32,1,5.39,5.23,9.12,4.4a18.66,18.66,0,0,1,7.36-.51C202.88,109.75,208.79,106.69,208.79,106.69Z"/><path class="cls-28" d="M187.81,99.2s-5.11-10.13-14.51-9.53,2.07,2.38,4.7,3.9S187.81,99.2,187.81,99.2Z"/><path class="cls-29" d="M147.87,92.64s-3.46,9.47,7.46,14c-5.39.17-11.33-5.24-10.64-9.52s-2.21-3.39-1.38-6.12.18-2,.81-5,5.92-6.17,5.48-5S146.07,87.64,147.87,92.64Z"/><path class="cls-30" d="M171,70.81S154,65.49,150,77c0,0,.75,2.32,4.7-.68S166.94,69.26,171,70.81Z"/><path class="cls-31" d="M196,59.15s-5.1,4.62-2.47,10.44-4.14,1.5-4.13-2.9S194.19,59.15,196,59.15Z"/><path class="cls-32" d="M256.92,80.79S252.67,70.4,245.67,71,228,75.51,232.08,75.08,250,71.48,256.92,80.79Z"/><path class="cls-33" d="M253.13,101.65c-.53.89.24,3.7-1.64,4.23s-5.21-.14-3.28-.95A27.47,27.47,0,0,0,253.13,101.65Z"/></g></g></g></svg>