<svg xmlns="http://www.w3.org/2000/svg" xmlns:xlink="http://www.w3.org/1999/xlink" viewBox="0 0 512.37 197.72"><defs><style>.cls-1{isolation:isolate;}.cls-2{fill:none;}.cls-3{fill:#81d0d3;}.cls-12,.cls-4,.cls-6{mix-blend-mode:color-burn;}.cls-4{fill:url(#radial-gradient);}.cls-13,.cls-14,.cls-15,.cls-16,.cls-17,.cls-5{opacity:0.1;mix-blend-mode:multiply;}.cls-5{fill:url(#linear-gradient);}.cls-6{fill:#0071bc;opacity:0.2;}.cls-10,.cls-18,.cls-19,.cls-20,.cls-21,.cls-22,.cls-23,.cls-24,.cls-25,.cls-26,.cls-27,.cls-28,.cls-29,.cls-30,.cls-31,.cls-32,.cls-7,.cls-8,.cls-9{opacity:0.8;}.cls-10,.cls-7,.cls-8,.cls-9{mix-blend-mode:screen;}.cls-7{fill:url(#linear-gradient-2);}.cls-8{fill:url(#linear-gradient-3);}.cls-9{fill:url(#linear-gradient-4);}.cls-10{fill:url(#linear-gradient-5);}.cls-11{fill:#d9f7ff;}.cls-12{fill:url(#radial-gradient-2);}.cls-13{fill:url(#linear-gradient-6);}.cls-14{fill:url(#linear-gradient-7);}.cls-15{fill:url(#linear-gradient-8);}.cls-16{fill:url(#linear-gradient-9);}.cls-17{fill:url(#linear-gradient-10);}.cls-18,.cls-19,.cls-20,.cls-21,.cls-22,.cls-23,.cls-24,.cls-25,.cls-26,.cls-27,.cls-28,.cls-29,.cls-30,.cls-31,.cls-32{mix-blend-mode:color-dodge;}.cls-18{fill:url(#linear-gradient-11);}.cls-19{fill:url(#linear-gradient-12);}.cls-20{fill:url(#linear-gradient-13);}.cls-21{fill:url(#linear-gradient-14);}.cls-22{fill:url(#linear-gradient-15);}.cls-23{fill:url(#linear-gradient-16);}.cls-24{fill:url(#linear-gradient-17);}.cls-25{fill:url(#linear-gradient-18);}.cls-26{fill:url(#linear-gradient-19);}.cls-27{fill:url(#linear-gradient-20);}.cls-28{fill:url(#linear-gradient-21);}.cls-29{fill:url(#linear-gradient-22);}.cls-30{fill:url(#linear-gradient-23);}.cls-31{fill:url(#linear-gradient-24);}.cls-32{fill:url(#linear-gradient-25);}</style><radialGradient id="radial-gradient" cx="1463.89" cy="111.86" r="108.6" gradientTransform="matrix(-1, 0, 0, 1, 1748.94, 0)" gradientUnits="userSpaceOnUse"><stop offset="0" stop-color="#fff"/><stop offset="0.22" stop-color="#fcfcfd"/><stop offset="0.36" stop-color="#f4f4f8"/><stop offset="0.47" stop-color="#e6e5ee"/><stop offset="0.58" stop-color="#d1d0e0"/><stop offset="0.68" stop-color="#b7b5ce"/><stop offset="0.77" stop-color="#9793b8"/><stop offset="0.85" stop-color="#706c9e"/><stop offset="0.93" stop-color="#453f81"/><stop offset="1" stop-color="#1b1464"/></radialGradient><linearGradient id="linear-gradient" x1="1463.4" y1="168.89" x2="1463.4" y2="86.23" gradientTransform="matrix(-1, 0, 0, 1, 1748.94, 0)" xlink:href="#radial-gradient"/><linearGradient id="linear-gradient-2" x1="1424.98" y1="168.96" x2="1424.98" y2="97.3" gradientTransform="matrix(-1, 0, 0, 1, 1748.94, 0)" gradientUnits="userSpaceOnUse"><stop offset="0"/><stop offset="1" stop-color="#fff"/></linearGradient><linearGradient id="linear-gradient-3" x1="1428.49" y1="168.39" x2="1428.49" y2="79.22" xlink:href="#linear-gradient-2"/><linearGradient id="linear-gradient-4" x1="1511.84" y1="167.98" x2="1511.84" y2="104.45" xlink:href="#linear-gradient-2"/><linearGradient id="linear-gradient-5" x1="1536.39" y1="165.26" x2="1536.39" y2="111.52" xlink:href="#linear-gradient-2"/><radialGradient id="radial-gradient-2" cx="1480.54" cy="55.81" r="142.2" gradientTransform="matrix(-1, 0, 0, 1, 1748.94, 0)" gradientUnits="userSpaceOnUse"><stop offset="0" stop-color="#1b1464"/><stop offset="0.07" stop-color="#453f81"/><stop offset="0.15" stop-color="#706c9e"/><stop offset="0.23" stop-color="#9793b8"/><stop offset="0.32" stop-color="#b7b5ce"/><stop offset="0.42" stop-color="#d1d0e0"/><stop offset="0.53" stop-color="#e6e5ee"/><stop offset="0.64" stop-color="#f4f4f8"/><stop offset="0.78" stop-color="#fcfcfd"/><stop offset="1" stop-color="#fff"/></radialGradient><linearGradient id="linear-gradient-6" x1="1482.96" y1="117.14" x2="1482.96" y2="54.55" gradientTransform="matrix(-1, 0, 0, 1, 1748.94, 0)" xlink:href="#radial-gradient"/><linearGradient id="linear-gradient-7" x1="1394.14" y1="88.11" x2="1394.14" y2="69.45" gradientTransform="matrix(-1, 0, 0, 1, 1748.94, 0)" xlink:href="#radial-gradient"/><linearGradient id="linear-gradient-8" x1="1514.72" y1="90.62" x2="1514.72" y2="75.36" gradientTransform="matrix(-1, 0, 0, 1, 1748.94, 0)" xlink:href="#radial-gradient"/><linearGradient id="linear-gradient-9" x1="1532.07" y1="97.71" x2="1532.07" y2="77.36" gradientTransform="matrix(-1, 0, 0, 1, 1748.94, 0)" xlink:href="#radial-gradient"/><linearGradient id="linear-gradient-10" x1="1562.69" y1="100.36" x2="1562.69" y2="79.31" gradientTransform="matrix(-1, 0, 0, 1, 1748.94, 0)" xlink:href="#radial-gradient"/><linearGradient id="linear-gradient-11" x1="1476.33" y1="85.53" x2="1488.68" y2="74.46" xlink:href="#linear-gradient-2"/><linearGradient id="linear-gradient-12" x1="1470.61" y1="91.61" x2="1480.15" y2="83.06" xlink:href="#linear-gradient-2"/><linearGradient id="linear-gradient-13" x1="1407.04" y1="89.11" x2="1431.91" y2="66.82" xlink:href="#linear-gradient-2"/><linearGradient id="linear-gradient-14" x1="1384.95" y1="90.51" x2="1406.11" y2="71.54" xlink:href="#linear-gradient-2"/><linearGradient id="linear-gradient-15" x1="1367.34" y1="114.16" x2="1385.74" y2="97.67" xlink:href="#linear-gradient-2"/><linearGradient id="linear-gradient-16" x1="1352.95" y1="93.97" x2="1357.76" y2="89.66" xlink:href="#linear-gradient-2"/><linearGradient id="linear-gradient-17" x1="1374.34" y1="68.71" x2="1385.94" y2="58.31" xlink:href="#linear-gradient-2"/><linearGradient id="linear-gradient-18" x1="1514.11" y1="118.35" x2="1537.88" y2="97.04" xlink:href="#linear-gradient-2"/><linearGradient id="linear-gradient-19" x1="1508.3" y1="100.71" x2="1511.57" y2="97.79" xlink:href="#linear-gradient-2"/><linearGradient id="linear-gradient-20" x1="1559.57" y1="109.06" x2="1569.54" y2="100.13" xlink:href="#linear-gradient-2"/><linearGradient id="linear-gradient-21" x1="1580.24" y1="98.56" x2="1596.81" y2="83.71" xlink:href="#linear-gradient-2"/><linearGradient id="linear-gradient-22" x1="1591.94" y1="75.43" x2="1599.17" y2="68.94" xlink:href="#linear-gradient-2"/><linearGradient id="linear-gradient-23" x1="1607.36" y1="101.43" x2="1614.66" y2="94.89" xlink:href="#linear-gradient-2"/><linearGradient id="linear-gradient-24" x1="1535.86" y1="74.21" x2="1555.99" y2="56.17" xlink:href="#linear-gradient-2"/><linearGradient id="linear-gradient-25" x1="1503.13" y1="76.8" x2="1517.26" y2="64.14" xlink:href="#linear-gradient-2"/></defs><g class="cls-1"><g id="Layer_2" data-name="Layer 2"><g id="bg"><rect class="cls-2" width="512.37" height="197.72" transform="translate(512.37 197.72) rotate(180)"/></g><g id="_6" data-name="6"><path class="cls-3" d="M207.4,128.55c4.55,9.39,9.41,22.12,9.35,33.68a1.36,1.36,0,0,0,1,1.33c2.1.55,4.72,1.09,7.73,1.6l.25.05,3.15.51.43.06c4.85.73,10.43,1.38,16.38,1.9.68.07,1.37.12,2.06.18a290.27,290.27,0,0,0,29.51,1h0c4-.09,7.82-.28,11.44-.61l2.13-.2c3.23-.34,6.25-.79,9-1.36.63-.14,1.24-.27,1.83-.42a35.55,35.55,0,0,0,7-2.4,2.24,2.24,0,0,0,1.24-1.65c1-6.12,6.64-36.3,24-48.43a135.45,135.45,0,0,1,11.74-7.41c11.95-6.65,18.77-7.39,21.16-7,1.77.3,3-2,3.79-4a22.08,22.08,0,0,0,.84-2.83l-19.3-7.33L348,83.6l-2.26-.86S337.1,80,330.34,77.81l-3.13-1A37.19,37.19,0,0,1,322.46,75c-.34-.51-16.28-7.71-16.28-7.71l-25.36,5.31-17,11.48-30.5,18.6-1.54.94H217.59l-16.28,1-.93,5.38-.78,4.56A130.8,130.8,0,0,1,207.4,128.55Z"/><path class="cls-4" d="M207.4,128.55c4.55,9.39,9.41,22.12,9.35,33.68a1.36,1.36,0,0,0,1,1.33c2.1.55,4.72,1.09,7.73,1.6l.25.05,3.15.51.43.06c4.85.73,10.43,1.38,16.38,1.9.68.07,1.37.12,2.06.18a290.27,290.27,0,0,0,29.51,1h0c4-.09,7.82-.28,11.44-.61l2.13-.2c3.23-.34,6.25-.79,9-1.36.63-.14,1.24-.27,1.83-.42a35.55,35.55,0,0,0,7-2.4,2.24,2.24,0,0,0,1.24-1.65c1-6.12,6.64-36.3,24-48.43a135.45,135.45,0,0,1,11.74-7.41c11.95-6.65,18.77-7.39,21.16-7,1.77.3,3-2,3.79-4a22.08,22.08,0,0,0,.84-2.83l-19.3-7.33L348,83.6l-2.26-.86S337.1,80,330.34,77.81l-3.13-1A37.19,37.19,0,0,1,322.46,75c-.34-.51-16.28-7.71-16.28-7.71l-25.36,5.31-17,11.48-30.5,18.6-1.54.94H217.59l-16.28,1-.93,5.38-.78,4.56A130.8,130.8,0,0,1,207.4,128.55Z"/><path class="cls-5" d="M207.4,128.55c4.55,9.39,9.41,22.12,9.35,33.68a1.36,1.36,0,0,0,1,1.33c2.1.55,4.72,1.09,7.73,1.6l.25.05,3.15.51.43.06c4.85.73,10.43,1.38,16.38,1.9.68.07,1.37.12,2.06.18a290.27,290.27,0,0,0,29.51,1h0c4-.09,7.82-.28,11.44-.61l2.13-.2c3.23-.34,6.25-.79,9-1.36.63-.14,1.24-.27,1.83-.42a35.55,35.55,0,0,0,7-2.4,2.24,2.24,0,0,0,1.24-1.65c1-6.12,6.64-36.3,24-48.43a135.45,135.45,0,0,1,11.74-7.41c11.95-6.65,18.77-7.39,21.16-7,1.77.3,3-2,3.79-4a22.08,22.08,0,0,0,.84-2.83l-19.3-7.33L348,83.6l-2.26-.86S337.1,80,330.34,77.81l-3.13-1A37.19,37.19,0,0,1,322.46,75c-.34-.51-16.28-7.71-16.28-7.71l-25.36,5.31-17,11.48-30.5,18.6-1.54.94H217.59l-16.28,1-.93,5.38-.78,4.56A130.8,130.8,0,0,1,207.4,128.55Z"/><path class="cls-6" d="M199.6,114.61a130.8,130.8,0,0,1,7.8,13.94,13,13,0,0,1,3.06.91,4.73,4.73,0,0,1,.45.23c2.57,1.54,2.74-.17,4.28-3.08S225.64,136,226,135.35s1.89-1.72,3.77.51,3.26,0,3.95-3.6,7.19,5,8.91,8.4a1,1,0,0,0,.63.62c.59.16,1.35-.44,2.18-1.48,2.13-2.68,4.71-8.24,5.93-10.79,5.48,1.88,19.7-22.62,20.9-25.19s2.91-1.2,2.91,1.37,5-1.37,8.23-7.54,11.82-7.2,12.68-5.48,3.43.68,4.8-1.2,4.62,1,5.14,3.25c.26,1.12,1.3,1,2.73.49,1.26-.49,2.82-1.33,4.41-2l.54-.22c3.57-1.37.54,2.57,0,6s6.17-.52,8-1.2c1.52-.57,1,1.89.42,5.26-.13.73-.27,1.49-.39,2.28s.17,1.18.75,1.09c2.34-.31,9.12-6.73,9.53-5.28.52,1.81,3.95,2.47,6.34.76s2.75-.34,1.89,2.23a.88.88,0,0,0,.08.76c.58,1,3.09,1.61,5.32,1.94,11.95-6.65,18.77-7.39,21.16-7,1.77.3,3-2,3.79-4a22.08,22.08,0,0,0,.84-2.83l-19.3-7.33L348,83.6l-2.26-.86S337.1,80,330.34,77.81l-3.13-1A37.19,37.19,0,0,1,322.46,75c-.34-.51-16.28-7.71-16.28-7.71l-25.36,5.31-17,11.48-30.5,18.6-1.54.94H217.59l-16.28,1-.93,5.38Z"/><path class="cls-7" d="M277.28,168.83c4-.09,7.82-.28,11.44-.61l2.13-.2c3.23-.34,6.25-.79,9-1.36.63-.14,1.24-.27,1.83-.42a35.55,35.55,0,0,0,7-2.4,2.24,2.24,0,0,0,1.24-1.65c1-6.12,6.64-36.3,24-48.43a135.45,135.45,0,0,1,11.74-7.41c11.95-6.65,18.77-7.39,21.16-7,1.77.3,3-2,3.79-4-6.76-.06-17.51,1.46-30.27,9.07-1.16.69-2.34,1.43-3.53,2.23-23.7,15.85-27.5,45.38-29.15,55.78-1,.86-3.16,1.66-5.93,2.39-.55.15-1.12.3-1.71.43-2.79.66-6,1.25-9.07,1.75l-2.23.35C282.72,168.26,277.57,168.8,277.28,168.83Z"/><path class="cls-8" d="M288.72,168.22l2.13-.2c0-.33.08-.67.12-1,.56-5.17,1.37-12.79,1.37-13.7,0-1.4,2.67-.76,3.05.38s.88,2.66,2.15.38,1.9-2.28,3.3-2.28c1.06,0-.16,9.13-.8,13.47-.08.57-.15,1-.21,1.42.63-.14,1.24-.27,1.83-.42l.09-1.43c1.82-26.76,13.11-47.36,20.77-58.87,1.1-1.65,2.12-3.11,3-4.37,5.58-7.76,19.78-13.82,26.62-16.39L348,83.6c-11.43,3.89-19.8,11.36-25.86,19-7.5,9.41-11.48,19.05-13.34,22.45-3.67,6.72-7.48,21.42-8.49,23.45s-1.27,1.52-1.9-.76-1.78-.89-4.82,2.16c-1.39-22.06,6.72-36.38,14.45-50a46,46,0,0,1,5.09-7.13,88.12,88.12,0,0,1,17.19-14.92l-3.13-1c-2.29,1.9-6.45,5.5-12.94,11.61a47.93,47.93,0,0,0-5.53,6.32c-8.17,10.91-14.27,26.34-16.78,35-2.33,8.08-3,28.55-3.22,37.63C288.73,167.65,288.73,167.94,288.72,168.22Z"/><path class="cls-9" d="M226.43,103.65c1.9,5.3,6.26,17.4,6.85,18.59.76,1.52,1.14,6.46,2.28,4.43s1.39-3,2.16-1.39c.46,1,3.35,5.69,5.52,16a130,130,0,0,1,2.46,26.4c.68.07,1.37.12,2.06.18-.22-4.89-.87-16.52-2.34-28.06-1.28-10-3.17-19.86-5.93-25.3-3-5.84-4.9-9.5-6.14-11.79l-1.54.94Z"/><path class="cls-10" d="M207.4,128.55c4.55,9.39,9.4,22.12,9.35,33.68a1.37,1.37,0,0,0,1,1.33c2.1.55,4.71,1.09,7.72,1.6-3.05-.6-6.79-1.67-6.79-3.25,0-2-.41-14.16-8.24-32.45a150.19,150.19,0,0,0-10.08-19.41l-.78,4.56A130.8,130.8,0,0,1,207.4,128.55Z"/><path class="cls-11" d="M147.67,109.71h0a19.11,19.11,0,0,0,3.73-.62c9.87-2.73,5.77-10.45,5.77-10.45a38.57,38.57,0,0,1,16.9,1.17A7.71,7.71,0,0,0,172.5,108l0,.15a10.13,10.13,0,0,0,2.64,4c2.33,2.19,8.53,4,14,4.37h.31c3.63.23,6.91-.15,8.53-1.42,4.11-3.22,14.76-7.62,18.28-7.72a13.14,13.14,0,0,1,5,1.06l.16.07A15,15,0,0,1,228,113.4c1.8,2.56,8.17,3.94,13.26,3.72h0a12.94,12.94,0,0,0,5.2-1.09c4.3-2.24,1.86-8.6.78-11.72-.84-2.44,6.12-5.91,10.06-7.82h0c1.08-.52,1.93-.92,2.33-1.14,1.85-1,5.66-3.35,6-1.71s.88,3.83,6.55,2.37,12.51-10.17,13-13.2-4.6-2.15-6.16-3.32,15.44-7.33,22.67-7.72,20.33,4,25.71,13.1c3,5,8.06,6.72,12.25,7.18h0a21.53,21.53,0,0,0,6.79-.24c.75-.23.75-.77,1.6-1.29a8.87,8.87,0,0,1,3.58-1c4.79-.59,11.34,5.28,11.34,5.28-9.58,5.47,2.93,18.17,14.56,20.32a15.67,15.67,0,0,0,5.57.2,4.66,4.66,0,0,0,3.95-5.86c0-.09,0-.15,0-.18.25.25,3.44,3.43,9.08-.7,5.86-4.3-.69-13.69-.69-13.69s6.65-2.73,4.4-10.85c-1.24-4.49-4.67-7.12-8.39-8.7h0a35.25,35.25,0,0,0-8.61-2.23,5.93,5.93,0,0,0,1.51-6.55c-1.45-4.49-6.61-9.06-10.21-11-5.48-3-10.17,1.76-12.12,3.62-.67.64-2.59,1-4.84,1.13a67.73,67.73,0,0,1-10.31-.15c-.78-.2-1.37-1.27-1-3s-4-3-9.68-2-14.85,8.31-14.85,8.31-10.75-.19-16-.88-21,6.45-21.8,6.84-1.76-2-6.54-2.09S264,74.5,263.45,75l0,0s-4.4-4.88-8.31-6.74-19.06,1-20.82,1.27-10.26.39-11.43-1.17S203,52.6,193.45,55.53s-4.4,11.79-4.4,11.79-8.55.46-11.47-.51a.45.45,0,0,1-.18-.07h0a1.7,1.7,0,0,1-.36-.16c-2.15-1.27-7-6.75-19.65-4.11a13.22,13.22,0,0,0-6,2.91c-6.42,5.45-6.1,15.86-6.1,15.86S135.68,79,134.61,90C126.17,104.16,138,110.31,147.67,109.71Z"/><path class="cls-12" d="M147.67,109.71h0a19.11,19.11,0,0,0,3.73-.62c9.87-2.73,5.77-10.45,5.77-10.45a38.57,38.57,0,0,1,16.9,1.17A7.71,7.71,0,0,0,172.5,108l0,.15a10.13,10.13,0,0,0,2.64,4c2.33,2.19,8.53,4,14,4.37h.31c3.63.23,6.91-.15,8.53-1.42,4.11-3.22,14.76-7.62,18.28-7.72a13.14,13.14,0,0,1,5,1.06l.16.07A15,15,0,0,1,228,113.4c1.8,2.56,8.17,3.94,13.26,3.72h0a12.94,12.94,0,0,0,5.2-1.09c4.3-2.24,1.86-8.6.78-11.72-.84-2.44,6.12-5.91,10.06-7.82h0c1.08-.52,1.93-.92,2.33-1.14,1.85-1,5.66-3.35,6-1.71s.88,3.83,6.55,2.37,12.51-10.17,13-13.2-4.6-2.15-6.16-3.32,15.44-7.33,22.67-7.72,20.33,4,25.71,13.1c3,5,8.06,6.72,12.25,7.18h0a21.53,21.53,0,0,0,6.79-.24c.75-.23.75-.77,1.6-1.29a8.87,8.87,0,0,1,3.58-1c4.79-.59,11.34,5.28,11.34,5.28-9.58,5.47,2.93,18.17,14.56,20.32a15.67,15.67,0,0,0,5.57.2,4.66,4.66,0,0,0,3.95-5.86c0-.09,0-.15,0-.18.25.25,3.44,3.43,9.08-.7,5.86-4.3-.69-13.69-.69-13.69s6.65-2.73,4.4-10.85c-1.24-4.49-4.67-7.12-8.39-8.7h0a35.25,35.25,0,0,0-8.61-2.23,5.93,5.93,0,0,0,1.51-6.55c-1.45-4.49-6.61-9.06-10.21-11-5.48-3-10.17,1.76-12.12,3.62-.67.64-2.59,1-4.84,1.13a67.73,67.73,0,0,1-10.31-.15c-.78-.2-1.37-1.27-1-3s-4-3-9.68-2-14.85,8.31-14.85,8.31-10.75-.19-16-.88-21,6.45-21.8,6.84-1.76-2-6.54-2.09S264,74.5,263.45,75l0,0s-4.4-4.88-8.31-6.74-19.06,1-20.82,1.27-10.26.39-11.43-1.17S203,52.6,193.45,55.53s-4.4,11.79-4.4,11.79-8.55.46-11.47-.51a.45.45,0,0,1-.18-.07h0a1.7,1.7,0,0,1-.36-.16c-2.15-1.27-7-6.75-19.65-4.11a13.22,13.22,0,0,0-6,2.91c-6.42,5.45-6.1,15.86-6.1,15.86S135.68,79,134.61,90C126.17,104.16,138,110.31,147.67,109.71Z"/><path class="cls-13" d="M147.67,109.71h0a19.11,19.11,0,0,0,3.73-.62c9.87-2.73,5.77-10.45,5.77-10.45a38.57,38.57,0,0,1,16.9,1.17A7.71,7.71,0,0,0,172.5,108l0,.15a10.13,10.13,0,0,0,2.64,4c2.33,2.19,8.53,4,14,4.37h.31c3.63.23,6.91-.15,8.53-1.42,4.11-3.22,14.76-7.62,18.28-7.72a13.14,13.14,0,0,1,5,1.06l.16.07A15,15,0,0,1,228,113.4c1.8,2.56,8.17,3.94,13.26,3.72h0a12.94,12.94,0,0,0,5.2-1.09c4.3-2.24,1.86-8.6.78-11.72-.84-2.44,6.12-5.91,10.06-7.82h0c1.08-.52,1.93-.92,2.33-1.14,1.85-1,5.66-3.35,6-1.71s.88,3.83,6.55,2.37,12.51-10.17,13-13.2-4.6-2.15-6.16-3.32,15.44-7.33,22.67-7.72,20.33,4,25.71,13.1c3,5,8.06,6.72,12.25,7.18h0a21.53,21.53,0,0,0,6.79-.24c.75-.23.75-.77,1.6-1.29a8.87,8.87,0,0,1,3.58-1c4.79-.59,11.34,5.28,11.34,5.28-9.58,5.47,2.93,18.17,14.56,20.32a15.67,15.67,0,0,0,5.57.2,4.66,4.66,0,0,0,3.95-5.86c0-.09,0-.15,0-.18.25.25,3.44,3.43,9.08-.7,5.86-4.3-.69-13.69-.69-13.69s6.65-2.73,4.4-10.85c-1.24-4.49-4.67-7.12-8.39-8.7h0a35.25,35.25,0,0,0-8.61-2.23,5.93,5.93,0,0,0,1.51-6.55c-1.45-4.49-6.61-9.06-10.21-11-5.48-3-10.17,1.76-12.12,3.62-.67.64-2.59,1-4.84,1.13a67.73,67.73,0,0,1-10.31-.15c-.78-.2-1.37-1.27-1-3s-4-3-9.68-2-14.85,8.31-14.85,8.31-10.75-.19-16-.88-21,6.45-21.8,6.84-1.76-2-6.54-2.09S264,74.5,263.45,75l0,0s-4.4-4.88-8.31-6.74-19.06,1-20.82,1.27-10.26.39-11.43-1.17S203,52.6,193.45,55.53s-4.4,11.79-4.4,11.79-8.55.46-11.47-.51a.45.45,0,0,1-.18-.07h0a1.7,1.7,0,0,1-.36-.16c-2.15-1.27-7-6.75-19.65-4.11a13.22,13.22,0,0,0-6,2.91c-6.42,5.45-6.1,15.86-6.1,15.86S135.68,79,134.61,90C126.17,104.16,138,110.31,147.67,109.71Z"/><path class="cls-6" d="M172.67,59.43a22.19,22.19,0,0,0,4.72,7.31h0c.16.19.34.38.52.58,19.19,3.26,33.83,20.31,36,23l.1.12.13.16,0,.06v0c.22.51,3.68,8.53,4.85,8.53h0l.29,0,.9-.15c2.37-.4,7-1.27,7-1.27l.13-.06.09-.05c1-.5,5.14-2.58,8-3.84,3.25-1.44,7-3.14,7-3.14h0c.34-.22,5.19-3.27,8.53-5.33a0,0,0,0,0,0,0l1-.6.37-.22c3.28-2,11.05-9.47,11.05-9.47s-4.4-4.88-8.31-6.74-19.06,1-20.82,1.27-10.26.39-11.43-1.17S203,52.6,193.45,55.53s-4.4,11.79-4.4,11.79-8.55.46-11.47-.51Z"/><path class="cls-6" d="M151.36,65.38l.84-.11c13.65-2,20.7.64,28.76,5.89a12.32,12.32,0,0,0-3-3.84l-.34-.51-4.91-7.38a22.19,22.19,0,0,0,4.72,7.31,1.7,1.7,0,0,1-.36-.16c-2.15-1.27-7-6.75-19.65-4.11A13.22,13.22,0,0,0,151.36,65.38Z"/><path class="cls-6" d="M165.77,77s-13.54,3.3-17.15,6.28c9.67,0,9.32,1.46,7.69,1.71s-5.11,3.15-1.5,2.4,20.73,1.72,24.48,3.09S165.77,77,165.77,77Z"/><path class="cls-6" d="M147.69,109.71a19.11,19.11,0,0,0,3.73-.62c9.87-2.73,5.77-10.45,5.77-10.45a38.57,38.57,0,0,1,16.9,1.17A7.71,7.71,0,0,0,172.5,108c-.13-1-.51-6.43,6.25-10.33H154.88s3.6,8-7.17,12Z"/><path class="cls-6" d="M210.5,100.06s-16.92,4-15.45,2.65,1.31-4.33-3.08-6.48,17.7-1.57,17.7-1.57Z"/><path class="cls-6" d="M189.51,116.57c3.63.23,6.91-.15,8.53-1.42,4.11-3.22,14.76-7.62,18.28-7.72a13.14,13.14,0,0,1,5,1.06c-1-.48-7.18-3.08-12.27-.53C203.55,110.7,191.91,116.57,189.51,116.57Z"/><path class="cls-6" d="M241.22,117.12a12.94,12.94,0,0,0,5.2-1.09c4.3-2.24,1.86-8.6.78-11.72-.84-2.44,6.12-5.91,10.06-7.82-.72.22-12.56,4-11.73,7.82S248.41,114.81,241.22,117.12Z"/><path class="cls-6" d="M339.62,92a21.53,21.53,0,0,0,6.79-.24c.75-.23.75-.77,1.6-1.29,1.31-2.71,1.16-9.26-3.49-11.92C349.77,90.71,340.28,92,339.62,92Z"/><path class="cls-6" d="M353.7,75.69s14.89,14,15.71,20.13c0-7.25-5.33-14.36-1.91-13.68S382.13,94.73,383,101.43c.82-7.11-7-18.74-7-18.74l-7.63-4.1Z"/><path class="cls-6" d="M383,115.35h.05a4.66,4.66,0,0,0,3.95-5.86,38.89,38.89,0,0,0-4.88-6C387.06,109.91,383,115.35,383,115.35Z"/><path class="cls-6" d="M321.29,63.45l7.78,1.84,19.65,2s.35-.35,1-.94a81.66,81.66,0,0,1,7.4-6.1,67.73,67.73,0,0,1-10.31-.15c-.78-.2-1.37-1.27-1-3s-4-3-9.68-2S321.29,63.45,321.29,63.45Z"/><path class="cls-6" d="M373.07,73.64c3.24-.41,18.31,1.73,18.31,1.73h0a35.25,35.25,0,0,0-8.61-2.23,5.93,5.93,0,0,0,1.51-6.55C383.6,70,380,72,373.07,73.64Z"/><path class="cls-3" d="M373.82,76.78s-19-9.65-21.65-10.09-18.45-1.94-23.1-1.4c5.08.65,29,11.13,32.75,16.21s3.67,1.41,4.65,1.41S377.6,89.07,377.92,88s3.46-.54,2.38-3.13-.86-3.46-3.46-5.19S373.82,76.78,373.82,76.78Z"/><path class="cls-14" d="M373.82,76.78s-19-9.65-21.65-10.09-18.45-1.94-23.1-1.4c5.08.65,29,11.13,32.75,16.21s3.67,1.41,4.65,1.41S377.6,89.07,377.92,88s3.46-.54,2.38-3.13-.86-3.46-3.46-5.19S373.82,76.78,373.82,76.78Z"/><path class="cls-6" d="M373.82,76.78s-19-9.65-21.65-10.09-18.45-1.94-23.1-1.4c5.08.65,29,11.13,32.75,16.21s3.67,1.41,4.65,1.41S377.6,89.07,377.92,88s3.46-.54,2.38-3.13-.86-3.46-3.46-5.19S373.82,76.78,373.82,76.78Z"/><path class="cls-3" d="M216.05,71.9c5.88,1.78,17,10.62,22.82,15.57,1.79,1.52,3.09,2.68,3.59,3.15.16-.21,2.91-1.92,5.48-3.48,2.29-1.41,4.44-2.69,4.44-2.69C232.34,70.69,221.82,71.9,216.05,71.9Z"/><path class="cls-15" d="M216.05,71.9c5.88,1.78,17,10.62,22.82,15.57,1.79,1.52,3.09,2.68,3.59,3.15.16-.21,2.91-1.92,5.48-3.48,2.29-1.41,4.44-2.69,4.44-2.69C232.34,70.69,221.82,71.9,216.05,71.9Z"/><path class="cls-3" d="M198.65,74.43c1.76,1.06,10.54,4.49,16.4,8.88a23.89,23.89,0,0,1,2.42,2,76.82,76.82,0,0,1,9.81,12.35s7-3.65,8.2-3.95a28.1,28.1,0,0,0-3.66-6.89,25.84,25.84,0,0,0-8.59-7.78c-9.1-5-13.45-7.29-13.45-6.07s-2.63,2.43-4.66,2S196.62,73.22,198.65,74.43Z"/><path class="cls-16" d="M198.65,74.43c1.76,1.06,10.54,4.49,16.4,8.88a23.89,23.89,0,0,1,2.42,2,76.82,76.82,0,0,1,9.81,12.35s7-3.65,8.2-3.95a28.1,28.1,0,0,0-3.66-6.89,25.84,25.84,0,0,0-8.59-7.78c-9.1-5-13.45-7.29-13.45-6.07s-2.63,2.43-4.66,2S196.62,73.22,198.65,74.43Z"/><path class="cls-3" d="M152.2,82.83a28.76,28.76,0,0,0,9.72,3.93,163.29,163.29,0,0,1,16,3.36,36.3,36.3,0,0,1,4.33,1.41c4.36,1.83,16.19,8.6,21.35,8.81S220.3,99,220.3,99s-7.67-12.86-17.93-19a23.71,23.71,0,0,0-5.65-2.53c-12.95-3.74-22.56-3.24-28.43-2.33S152.2,82.83,152.2,82.83Z"/><path class="cls-17" d="M152.2,82.83a28.76,28.76,0,0,0,9.72,3.93,163.29,163.29,0,0,1,16,3.36,36.3,36.3,0,0,1,4.33,1.41c4.36,1.83,16.19,8.6,21.35,8.81S220.3,99,220.3,99s-7.67-12.86-17.93-19a23.71,23.71,0,0,0-5.65-2.53c-12.95-3.74-22.56-3.24-28.43-2.33S152.2,82.83,152.2,82.83Z"/><path class="cls-6" d="M238.87,87.47c1.79,1.52,3.09,2.68,3.59,3.15.16-.21,2.91-1.92,5.48-3.48-1.9-1.06-5-2.67-5.44-1.94S240.33,86.88,238.87,87.47Z"/><path class="cls-6" d="M217.47,85.36a76.82,76.82,0,0,1,9.81,12.35s7-3.65,8.2-3.95a28.1,28.1,0,0,0-3.66-6.89c-.2.65-.52,1.79-1.57,1.12-1.34-.87-6.61-5.37-6.7-3.93s-.77,2.48-3.64,1.14c-.95-.44-2.77-1.14-4.86-1.89A23.89,23.89,0,0,1,217.47,85.36Z"/><path class="cls-6" d="M177.92,90.12a36.3,36.3,0,0,1,4.33,1.41c4.36,1.83,16.19,8.6,21.35,8.81S220.3,99,220.3,99s-7.67-12.86-17.93-19c-1,0-1.56.4-.74,1.66,1.24,1.92,5,6.36,4.3,6.53s-1.91,0-2,1.61,1,3.26-2.69,2.2-7.74-3.63-7.84-2.58S194.8,91.59,177.92,90.12Z"/><path class="cls-18" d="M284.78,71.28s-5.28-4-7.84-3.42-6.56,1.5-11.77,6.56-13.85,11.92-17.75,13.69c6.7-2.26,23.46-16.64,28.16-16.24S285.15,73.59,284.78,71.28Z"/><path class="cls-19" d="M283.57,83.31s-14.18,9.9-15.89,6.2-3.65-3-3.29-.9,1.91,8,5.84,6.31C275.3,92.71,283.57,88.92,283.57,83.31Z"/><path class="cls-20" d="M342.62,83.31s-11.29,0-11.8-7.94-13.54-10.2-13.54-10.2,9.44,5,9.85,10.2,1.95,10.49,6.15,12.13S345.59,91.43,342.62,83.31Z"/><path class="cls-21" d="M363.77,90.66A42.08,42.08,0,0,0,342.29,71c8.54,5.66,14.49,17.08,16.43,18.12A19.68,19.68,0,0,0,363.77,90.66Z"/><path class="cls-22" d="M364.87,94.79s1.84,12.92,15.66,14.63c8.16,1,.67,4.76-4.52,3.48C369.49,111.28,359.89,100.5,364.87,94.79Z"/><path class="cls-23" d="M398.48,84.56s2.94,9.19-7.53,11.55S388,93,390.19,92.53,397.53,89.47,398.48,84.56Z"/><path class="cls-24" d="M380.53,62.05S373,51.62,361,61s4.42-1.32,9.65,0A35.37,35.37,0,0,0,380.53,62.05Z"/><path class="cls-25" d="M240,110.05s-12.81-1.11-14.55-6.4-21.53,0-21.53,0,16.22.95,20.41,3.82S240.26,119.47,240,110.05Z"/><path class="cls-26" d="M245.44,95.34s-5.08,2.14-5.4,5-8.16,5.5-6.69,2.35S240.56,94.13,245.44,95.34Z"/><path class="cls-27" d="M192.21,100.36s-5.48-5.11-10.43-2.65-7.73,11.61,0,15.23-.92-2.76-.37-6.84C182,101.75,184.52,97.29,192.21,100.36Z"/><path class="cls-28" d="M175.78,90.6s-18.49-5.49-31.22.64c4.06.82,1.65-.5,10.19-.62S175.78,90.6,175.78,90.6Z"/><path class="cls-29" d="M164.22,65.3s-12.62-1.54-15.6,4.94a31.23,31.23,0,0,0-3,11.87c-1.48-2.65,9.06-16.85,14.52-14.31C163.92,69.55,166.07,65.43,164.22,65.3Z"/><path class="cls-30" d="M139.86,91.51s-5.61,8-2.06,11.47-4.67,2.5-4.39-2.62S135.46,90.77,139.86,91.51Z"/><path class="cls-31" d="M219.67,66.78s-20.09-14.26-28.28-9.28.16,11.79.82,9.82.65-8.92,4.77-7.89S214.69,63.53,219.67,66.78Z"/><path class="cls-32" d="M252.38,69.41s-8.59-.51-15.28,1.75a19.62,19.62,0,0,1-12.42,0s9,4.66,14.19,3.33S247.82,69.54,252.38,69.41Z"/></g></g></g></svg>