<svg xmlns="http://www.w3.org/2000/svg" xmlns:xlink="http://www.w3.org/1999/xlink" viewBox="0 0 512.37 197.72"><defs><style>.cls-1{isolation:isolate;}.cls-2{fill:none;}.cls-3{fill:#81d0d3;}.cls-12,.cls-4,.cls-6{mix-blend-mode:color-burn;}.cls-4{fill:url(#radial-gradient);}.cls-13,.cls-14,.cls-15,.cls-16,.cls-17,.cls-18,.cls-19,.cls-20,.cls-21,.cls-5{opacity:0.1;mix-blend-mode:multiply;}.cls-5{fill:url(#linear-gradient);}.cls-6{fill:#0071bc;opacity:0.2;}.cls-10,.cls-22,.cls-23,.cls-24,.cls-25,.cls-26,.cls-27,.cls-28,.cls-29,.cls-30,.cls-31,.cls-32,.cls-33,.cls-34,.cls-35,.cls-36,.cls-37,.cls-38,.cls-39,.cls-40,.cls-41,.cls-7,.cls-8,.cls-9{opacity:0.8;}.cls-10,.cls-7,.cls-8,.cls-9{mix-blend-mode:screen;}.cls-7{fill:url(#linear-gradient-2);}.cls-8{fill:url(#linear-gradient-3);}.cls-9{fill:url(#linear-gradient-4);}.cls-10{fill:url(#linear-gradient-5);}.cls-11{fill:#d9f7ff;}.cls-12{fill:url(#radial-gradient-2);}.cls-13{fill:url(#linear-gradient-6);}.cls-14{fill:url(#linear-gradient-7);}.cls-15{fill:url(#linear-gradient-8);}.cls-16{fill:url(#linear-gradient-9);}.cls-17{fill:url(#linear-gradient-10);}.cls-18{fill:url(#linear-gradient-11);}.cls-19{fill:url(#linear-gradient-12);}.cls-20{fill:url(#linear-gradient-13);}.cls-21{fill:url(#linear-gradient-14);}.cls-22,.cls-23,.cls-24,.cls-25,.cls-26,.cls-27,.cls-28,.cls-29,.cls-30,.cls-31,.cls-32,.cls-33,.cls-34,.cls-35,.cls-36,.cls-37,.cls-38,.cls-39,.cls-40,.cls-41{mix-blend-mode:color-dodge;}.cls-22{fill:url(#linear-gradient-15);}.cls-23{fill:url(#linear-gradient-16);}.cls-24{fill:url(#linear-gradient-17);}.cls-25{fill:url(#linear-gradient-18);}.cls-26{fill:url(#linear-gradient-19);}.cls-27{fill:url(#linear-gradient-20);}.cls-28{fill:url(#linear-gradient-21);}.cls-29{fill:url(#linear-gradient-22);}.cls-30{fill:url(#linear-gradient-23);}.cls-31{fill:url(#linear-gradient-24);}.cls-32{fill:url(#linear-gradient-25);}.cls-33{fill:url(#linear-gradient-26);}.cls-34{fill:url(#linear-gradient-27);}.cls-35{fill:url(#linear-gradient-28);}.cls-36{fill:url(#linear-gradient-29);}.cls-37{fill:url(#linear-gradient-30);}.cls-38{fill:url(#linear-gradient-31);}.cls-39{fill:url(#linear-gradient-32);}.cls-40{fill:url(#linear-gradient-33);}.cls-41{fill:url(#linear-gradient-34);}</style><radialGradient id="radial-gradient" cx="1469.27" cy="121.29" r="96.75" gradientTransform="matrix(-1, 0, 0, 1, 1748.94, 0)" gradientUnits="userSpaceOnUse"><stop offset="0" stop-color="#fff"/><stop offset="0.22" stop-color="#fcfcfd"/><stop offset="0.36" stop-color="#f4f4f8"/><stop offset="0.47" stop-color="#e6e5ee"/><stop offset="0.58" stop-color="#d1d0e0"/><stop offset="0.68" stop-color="#b7b5ce"/><stop offset="0.77" stop-color="#9793b8"/><stop offset="0.85" stop-color="#706c9e"/><stop offset="0.93" stop-color="#453f81"/><stop offset="1" stop-color="#1b1464"/></radialGradient><linearGradient id="linear-gradient" x1="1468.83" y1="169.43" x2="1468.83" y2="99.66" gradientTransform="matrix(-1, 0, 0, 1, 1748.94, 0)" xlink:href="#radial-gradient"/><linearGradient id="linear-gradient-2" x1="1414.79" y1="164.54" x2="1414.79" y2="107.61" gradientTransform="matrix(-1, 0, 0, 1, 1748.94, 0)" gradientUnits="userSpaceOnUse"><stop offset="0"/><stop offset="1" stop-color="#fff"/></linearGradient><linearGradient id="linear-gradient-3" x1="1435.66" y1="168.28" x2="1435.66" y2="92.41" xlink:href="#linear-gradient-2"/><linearGradient id="linear-gradient-4" x1="1512.69" y1="169.13" x2="1512.69" y2="118.82" xlink:href="#linear-gradient-2"/><linearGradient id="linear-gradient-5" x1="1531.5" y1="168.21" x2="1531.5" y2="123.07" xlink:href="#linear-gradient-2"/><radialGradient id="radial-gradient-2" cx="1480.88" cy="66.11" r="153.11" gradientTransform="matrix(-1, 0, 0, 1, 1748.94, 0)" gradientUnits="userSpaceOnUse"><stop offset="0" stop-color="#1b1464"/><stop offset="0.07" stop-color="#453f81"/><stop offset="0.15" stop-color="#706c9e"/><stop offset="0.23" stop-color="#9793b8"/><stop offset="0.32" stop-color="#b7b5ce"/><stop offset="0.42" stop-color="#d1d0e0"/><stop offset="0.53" stop-color="#e6e5ee"/><stop offset="0.64" stop-color="#f4f4f8"/><stop offset="0.78" stop-color="#fcfcfd"/><stop offset="1" stop-color="#fff"/></radialGradient><linearGradient id="linear-gradient-6" x1="1483.01" y1="134.45" x2="1483.01" y2="52.31" gradientTransform="matrix(-1, 0, 0, 1, 1748.94, 0)" xlink:href="#radial-gradient"/><linearGradient id="linear-gradient-7" x1="1387.56" y1="107.66" x2="1387.56" y2="73.99" gradientTransform="matrix(-1, 0, 0, 1, 1748.94, 0)" xlink:href="#radial-gradient"/><linearGradient id="linear-gradient-8" x1="1393.14" y1="106.97" x2="1393.14" y2="95.91" gradientTransform="matrix(-1, 0, 0, 1, 1748.94, 0)" xlink:href="#radial-gradient"/><linearGradient id="linear-gradient-9" x1="1483.07" y1="106.72" x2="1483.07" y2="95.5" gradientTransform="matrix(-1, 0, 0, 1, 1748.94, 0)" xlink:href="#radial-gradient"/><linearGradient id="linear-gradient-10" x1="1499.11" y1="113.08" x2="1499.11" y2="103.33" gradientTransform="matrix(-1, 0, 0, 1, 1748.94, 0)" xlink:href="#radial-gradient"/><linearGradient id="linear-gradient-11" x1="1517.87" y1="114.46" x2="1517.87" y2="108.16" gradientTransform="matrix(-1, 0, 0, 1, 1748.94, 0)" xlink:href="#radial-gradient"/><linearGradient id="linear-gradient-12" x1="1542.95" y1="104.29" x2="1542.95" y2="72.64" gradientTransform="matrix(-1, 0, 0, 1, 1748.94, 0)" xlink:href="#radial-gradient"/><linearGradient id="linear-gradient-13" x1="1537.55" y1="112.05" x2="1537.55" y2="97.3" gradientTransform="matrix(-1, 0, 0, 1, 1748.94, 0)" xlink:href="#radial-gradient"/><linearGradient id="linear-gradient-14" x1="1587.18" y1="109.63" x2="1587.18" y2="98.3" gradientTransform="matrix(-1, 0, 0, 1, 1748.94, 0)" xlink:href="#radial-gradient"/><linearGradient id="linear-gradient-15" x1="1409.22" y1="113.42" x2="1421.59" y2="102.33" xlink:href="#linear-gradient-2"/><linearGradient id="linear-gradient-16" x1="1409.09" y1="100.93" x2="1425.18" y2="86.51" xlink:href="#linear-gradient-2"/><linearGradient id="linear-gradient-17" x1="1455.65" y1="79.52" x2="1463.07" y2="72.87" xlink:href="#linear-gradient-2"/><linearGradient id="linear-gradient-18" x1="1475.75" y1="119.25" x2="1482.47" y2="113.22" xlink:href="#linear-gradient-2"/><linearGradient id="linear-gradient-19" x1="1475.1" y1="98.58" x2="1478.16" y2="95.83" xlink:href="#linear-gradient-2"/><linearGradient id="linear-gradient-20" x1="1372.87" y1="114.61" x2="1384.97" y2="103.76" xlink:href="#linear-gradient-2"/><linearGradient id="linear-gradient-21" x1="1375.48" y1="132.96" x2="1386.22" y2="123.33" xlink:href="#linear-gradient-2"/><linearGradient id="linear-gradient-22" x1="1352.86" y1="122.28" x2="1359.43" y2="116.39" xlink:href="#linear-gradient-2"/><linearGradient id="linear-gradient-23" x1="1354.93" y1="99.43" x2="1363.32" y2="91.91" xlink:href="#linear-gradient-2"/><linearGradient id="linear-gradient-24" x1="1377.92" y1="67.67" x2="1391.01" y2="55.94" xlink:href="#linear-gradient-2"/><linearGradient id="linear-gradient-25" x1="1347.43" y1="89.7" x2="1358.91" y2="79.42" xlink:href="#linear-gradient-2"/><linearGradient id="linear-gradient-26" x1="1419.31" y1="70.28" x2="1422.56" y2="67.36" xlink:href="#linear-gradient-2"/><linearGradient id="linear-gradient-27" x1="1526.41" y1="73.09" x2="1549.35" y2="52.53" xlink:href="#linear-gradient-2"/><linearGradient id="linear-gradient-28" x1="1508.03" y1="93.81" x2="1525.21" y2="78.41" xlink:href="#linear-gradient-2"/><linearGradient id="linear-gradient-29" x1="1579.64" y1="71.72" x2="1585.31" y2="66.64" xlink:href="#linear-gradient-2"/><linearGradient id="linear-gradient-30" x1="1608.09" y1="97.23" x2="1616.67" y2="89.53" xlink:href="#linear-gradient-2"/><linearGradient id="linear-gradient-31" x1="1551.31" y1="114.79" x2="1571.74" y2="96.48" xlink:href="#linear-gradient-2"/><linearGradient id="linear-gradient-32" x1="1607.54" y1="120.07" x2="1616.57" y2="111.98" xlink:href="#linear-gradient-2"/><linearGradient id="linear-gradient-33" x1="1544.83" y1="126.71" x2="1562.02" y2="111.3" xlink:href="#linear-gradient-2"/><linearGradient id="linear-gradient-34" x1="1505.71" y1="125.56" x2="1511.53" y2="120.34" xlink:href="#linear-gradient-2"/></defs><g class="cls-1"><g id="Layer_2" data-name="Layer 2"><g id="bg"><rect class="cls-2" width="512.37" height="197.72" transform="translate(512.37 197.72) rotate(180)"/></g><g id="_7" data-name="7"><path class="cls-3" d="M201.83,126.94a75.19,75.19,0,0,1,6.52,9.93c3.65,6.57,7.71,15.84,8.9,26.2a3.34,3.34,0,0,0,2.48,2.85A97.82,97.82,0,0,0,233,168.13h0c3,.32,6.16.58,9.47.78l2.26.12a323.21,323.21,0,0,0,44.72-.9l2.31-.24c3.54-.39,6.8-.84,9.67-1.36.92-.16,1.8-.34,2.64-.52a41.88,41.88,0,0,0,5.76-1.59l.46-.18a3.39,3.39,0,0,0,2.1-2.57c.72-4.11,3.4-15.26,12.68-28.13q1.91-2.66,4.21-5.38c15.69-18.57,29-18,29-18l-11-4.07L337,102.25l-1.71-.63L332.86,100,322.5,92.87l-3.71-2.53-2.25-1.54-13.73-4-16.48-1L276.22,96l-31.86,21.31-12.33.13h-.49l-3.93.39-23.94,2.36-.45,1.65Z"/><path class="cls-4" d="M201.83,126.94a75.19,75.19,0,0,1,6.52,9.93c3.65,6.57,7.71,15.84,8.9,26.2a3.34,3.34,0,0,0,2.48,2.85A97.82,97.82,0,0,0,233,168.13h0c3,.32,6.16.58,9.47.78l2.26.12a323.21,323.21,0,0,0,44.72-.9l2.31-.24c3.54-.39,6.8-.84,9.67-1.36.92-.16,1.8-.34,2.64-.52a41.88,41.88,0,0,0,5.76-1.59l.46-.18a3.39,3.39,0,0,0,2.1-2.57c.72-4.11,3.4-15.26,12.68-28.13q1.91-2.66,4.21-5.38c15.69-18.57,29-18,29-18l-11-4.07L337,102.25l-1.71-.63L332.86,100,322.5,92.87l-3.71-2.53-2.25-1.54-13.73-4-16.48-1L276.22,96l-31.86,21.31-12.33.13h-.49l-3.93.39-23.94,2.36-.45,1.65Z"/><path class="cls-5" d="M201.83,126.94a75.19,75.19,0,0,1,6.52,9.93c3.65,6.57,7.71,15.84,8.9,26.2a3.34,3.34,0,0,0,2.48,2.85A97.82,97.82,0,0,0,233,168.13h0c3,.32,6.16.58,9.47.78l2.26.12a323.21,323.21,0,0,0,44.72-.9l2.31-.24c3.54-.39,6.8-.84,9.67-1.36.92-.16,1.8-.34,2.64-.52a41.88,41.88,0,0,0,5.76-1.59l.46-.18a3.39,3.39,0,0,0,2.1-2.57c.72-4.11,3.4-15.26,12.68-28.13q1.91-2.66,4.21-5.38c15.69-18.57,29-18,29-18l-11-4.07L337,102.25l-1.71-.63L332.86,100,322.5,92.87l-3.71-2.53-2.25-1.54-13.73-4-16.48-1L276.22,96l-31.86,21.31-12.33.13h-.49l-3.93.39-23.94,2.36-.45,1.65Z"/><path class="cls-6" d="M201.83,126.94a75.19,75.19,0,0,1,6.52,9.93c1.47-2,3.56-4.48,5-4.78,2.49-.52,4.84,5.36,7,4.18s1.35-3.26,4.36,1.19,5.89,4.57,7.32,2c1-1.75,4.55,4.23,7.31,8.65a22.07,22.07,0,0,0,3,4.26c.46.33.91-.32,1.33-1.42h0c1.27-3.35,2.3-10.94,2.59-9.2.39,2.32,4.58,2,6.15-2.28s6.53-8.14,11-8.14,4.71-7.72,8-11.12,7.19-3.4,8.68-.79,5.83-5.62,9-10.34,5.23-5,5.29-1.29,2.43,3.13,5.17,1.29,6.54-3.65,5.47,0c-.72,2.47.8,2.86,2.23,2.67a6.13,6.13,0,0,0,1.72-.54c.67-.36-2.7,6.75-5.7,13.64,0,0,0,0,0,0-1.55,3.57-3,7.07-3.73,9.44a8,8,0,0,0-.5,2.5c.14,2,3.65-1.36,7.26-5.17,3.14-3.31,6.36-7,7.52-7.9.89-.7,1.33-.4,1.54.41.36,1.4.06,4.34.27,6.42a1.5,1.5,0,0,0,0,.22c.39,3.27,7.19-4.57,7.84-4.88s-.52,3.57-2.43,7c-.35.61-.31,1,0,1.17.62.43,2.42,0,4.14-.49q1.91-2.66,4.21-5.38c15.69-18.57,29-18,29-18l-11-4.07L337,102.25l-1.71-.63L332.86,100,322.5,92.87l-3.71-2.53-2.25-1.54-13.73-4-16.48-1L276.22,96l-31.86,21.31-12.33.13h-.49l-3.93.39-23.94,2.36Z"/><path class="cls-7" d="M309.91,164.43l.46-.18a3.37,3.37,0,0,0,2.1-2.57c.72-4.11,3.4-15.26,12.68-28.13q1.91-2.66,4.21-5.38c15.69-18.57,29-18,29-18l-11-4.07a319.22,319.22,0,0,0-24.57,25.78c-.62.74-1.21,1.47-1.77,2.21C309.21,149.5,309.91,164.43,309.91,164.43Z"/><path class="cls-8" d="M289.53,168.14l2.31-.24c.15-5.73,1.12-17.82,6.4-24.06,7.06-8.35,9.54-8.35,8.5-3.12-.75,3.74-3.65,18-5.23,25.82.92-.16,1.8-.34,2.64-.52.25-1.59,3.35-20.56,8.86-30.75.76-1.41,1.63-3,2.6-4.71,5.1-9.06,12.87-21.52,21.41-28.31l-1.71-.63L332.86,100l-7.07,10.43a164.9,164.9,0,0,0-10.45,13.76,45.71,45.71,0,0,0-5.44,10.17c0-2.11-1.63-2.78-3.62-2.68-2.57.12-5.73,1.5-6.76,2.67h0a57,57,0,0,1,3.74-9.45s0,0,0,0c3-6.2,6.75-11.7,8.31-12.64,2.14-1.29,9.4-9.49,10.93-19.32l-3.71-2.53c-.55,3.78-1.71,10.28-3.42,12.72-1.59,2.25-5,5-8.13,8.67a30.51,30.51,0,0,0-4.69,7C299.24,125.88,292.08,131.78,289.53,168.14Z"/><path class="cls-9" d="M231.54,117.44l-3.93.39a123.29,123.29,0,0,1,11.76,30.27,100.46,100.46,0,0,1,3.18,20.82l2.26.12a94.89,94.89,0,0,0-1.08-18.1h0a86.64,86.64,0,0,0-6.65-23c-1.83-4-3.52-7.48-5.05-10.53Z"/><path class="cls-10" d="M201.83,126.94a75.19,75.19,0,0,1,6.52,9.93c3.65,6.57,7.71,15.84,8.9,26.2a3.34,3.34,0,0,0,2.48,2.85A97.82,97.82,0,0,0,233,168.13c-.77-.2-13.16-3.35-13.2-4.76s-3.56-27.32-16.62-41.53Z"/><path class="cls-11" d="M130.14,106.72a20.92,20.92,0,0,0-1.66,9.83,1.77,1.77,0,0,1,0,.23,10.58,10.58,0,0,0,.8,3l.06.14.1.22c1.52,3,4.85,5.12,11.35,4.43a5.69,5.69,0,0,0,4.23,2.65h0a11.13,11.13,0,0,0,11.18-5.92C160.44,114,168,109,179.5,112.78c-1.95,4,1,6.25,2.93,7.23s4,5.78,6.65,6.55c.35.1.76.21,1.25.31h.07c3.15.67,9.2,1.16,19.4-.31a64.39,64.39,0,0,1,21.31.49s.39,8.77,10.65,7.22,16-7.81,19.25-12.4,10.17-1.91,17.41-7.41,9.38-13.35,2.15-13.38c2.34-5.41,6.52-14.6,15.23-14.3s21.67,3.91,28.73,14.85c-1.75-.29-4.77,6.16,2.66,10.07.14.08.29.15.44.22,7.27,3.55,14.12,0,18.62.27s13.39,2.31,15.93,7.46c0,0-6.9,8.94,2.23,13.61s19.3-8.41,19.3-8.41,4.67,4.8,11.57-1.12a9.9,9.9,0,0,0,3.28-5.09,0,0,0,0,0,0,0c1.27-4.84-1.46-9.55-1.46-9.55s5.28,2.47,8.12-1.8a8,8,0,0,0,.78-6.4c-.78-2.89-2.88-5.24-5.45-4.77a37.93,37.93,0,0,0,.72-9.7c-.42-4.14-2.35-7.56-7.82-8.37-9.55-1.42-15.85-5.08-15.64-9.54a12.07,12.07,0,0,0-.26-3v0a10.53,10.53,0,0,0-7.87-8.34c-5.88-1.42-7.43-3.45-10-3a55.46,55.46,0,0,0-6.42,1.55h0c-4.51,1.38-9.81,3.6-11.17,6.57,0-5.89-7.31-3.45-13,.41s-12.79,12.18-9.75,12.18,6.33,1.07,5.2,2.26-5.4,7.69-7.84,7.69h-8.64s-5.29-14-10.82-14.21-6.5,2.78-6.89,4.15c0,0-9.38-2.49-11.73,2.37a137.43,137.43,0,0,0-5.08,13.31S251,95.58,247.32,83.7c-6.24,0-19.92-5-21.78-6.67s-.77-3.64,1.52-3.35c1-3.72-2.69-13.1-11.3-17.5S198,51.24,195.43,54s-6.74,10.39-11.82,10.39c0-3-4-6.52-8.88-6.71a10.88,10.88,0,0,0-5.29,1.14c-6.73,3.32-9.41,5.16-10.82,14l0,.09c0,.26-.07.5-.11.77a34.14,34.14,0,0,1-2.6,9.25v0h0c-2.51,5.49-6.61,9.38-12.43,8.61-1.67-2.84-10.56-4.3-14.57.19a13.79,13.79,0,0,0-2.65,4.35h0C124.74,100,125.41,104.35,130.14,106.72Z"/><path class="cls-12" d="M130.14,106.72a20.92,20.92,0,0,0-1.66,9.83,1.77,1.77,0,0,1,0,.23,10.58,10.58,0,0,0,.8,3l.06.14.1.22c1.52,3,4.85,5.12,11.35,4.43a5.69,5.69,0,0,0,4.23,2.65h0a11.13,11.13,0,0,0,11.18-5.92C160.44,114,168,109,179.5,112.78c-1.95,4,1,6.25,2.93,7.23s4,5.78,6.65,6.55c.35.1.76.21,1.25.31h.07c3.15.67,9.2,1.16,19.4-.31a64.39,64.39,0,0,1,21.31.49s.39,8.77,10.65,7.22,16-7.81,19.25-12.4,10.17-1.91,17.41-7.41,9.38-13.35,2.15-13.38c2.34-5.41,6.52-14.6,15.23-14.3s21.67,3.91,28.73,14.85c-1.75-.29-4.77,6.16,2.66,10.07.14.08.29.15.44.22,7.27,3.55,14.12,0,18.62.27s13.39,2.31,15.93,7.46c0,0-6.9,8.94,2.23,13.61s19.3-8.41,19.3-8.41,4.67,4.8,11.57-1.12a9.9,9.9,0,0,0,3.28-5.09,0,0,0,0,0,0,0c1.27-4.84-1.46-9.55-1.46-9.55s5.28,2.47,8.12-1.8a8,8,0,0,0,.78-6.4c-.78-2.89-2.88-5.24-5.45-4.77a37.93,37.93,0,0,0,.72-9.7c-.42-4.14-2.35-7.56-7.82-8.37-9.55-1.42-15.85-5.08-15.64-9.54a12.07,12.07,0,0,0-.26-3v0a10.53,10.53,0,0,0-7.87-8.34c-5.88-1.42-7.43-3.45-10-3a55.46,55.46,0,0,0-6.42,1.55h0c-4.51,1.38-9.81,3.6-11.17,6.57,0-5.89-7.31-3.45-13,.41s-12.79,12.18-9.75,12.18,6.33,1.07,5.2,2.26-5.4,7.69-7.84,7.69h-8.64s-5.29-14-10.82-14.21-6.5,2.78-6.89,4.15c0,0-9.38-2.49-11.73,2.37a137.43,137.43,0,0,0-5.08,13.31S251,95.58,247.32,83.7c-6.24,0-19.92-5-21.78-6.67s-.77-3.64,1.52-3.35c1-3.72-2.69-13.1-11.3-17.5S198,51.24,195.43,54s-6.74,10.39-11.82,10.39c0-3-4-6.52-8.88-6.71a10.88,10.88,0,0,0-5.29,1.14c-6.73,3.32-9.41,5.16-10.82,14l0,.09c0,.26-.07.5-.11.77a34.14,34.14,0,0,1-2.6,9.25v0h0c-2.51,5.49-6.61,9.38-12.43,8.61-1.67-2.84-10.56-4.3-14.57.19a13.79,13.79,0,0,0-2.65,4.35h0C124.74,100,125.41,104.35,130.14,106.72Z"/><path class="cls-13" d="M130.14,106.72a20.92,20.92,0,0,0-1.66,9.83,1.77,1.77,0,0,1,0,.23,10.58,10.58,0,0,0,.8,3l.06.14.1.22c1.52,3,4.85,5.12,11.35,4.43a5.69,5.69,0,0,0,4.23,2.65h0a11.13,11.13,0,0,0,11.18-5.92C160.44,114,168,109,179.5,112.78c-1.95,4,1,6.25,2.93,7.23s4,5.78,6.65,6.55c.35.1.76.21,1.25.31h.07c3.15.67,9.2,1.16,19.4-.31a64.39,64.39,0,0,1,21.31.49s.39,8.77,10.65,7.22,16-7.81,19.25-12.4,10.17-1.91,17.41-7.41,9.38-13.35,2.15-13.38c2.34-5.41,6.52-14.6,15.23-14.3s21.67,3.91,28.73,14.85c-1.75-.29-4.77,6.16,2.66,10.07.14.08.29.15.44.22,7.27,3.55,14.12,0,18.62.27s13.39,2.31,15.93,7.46c0,0-6.9,8.94,2.23,13.61s19.3-8.41,19.3-8.41,4.67,4.8,11.57-1.12a9.9,9.9,0,0,0,3.28-5.09,0,0,0,0,0,0,0c1.27-4.84-1.46-9.55-1.46-9.55s5.28,2.47,8.12-1.8a8,8,0,0,0,.78-6.4c-.78-2.89-2.88-5.24-5.45-4.77a37.93,37.93,0,0,0,.72-9.7c-.42-4.14-2.35-7.56-7.82-8.37-9.55-1.42-15.85-5.08-15.64-9.54a12.07,12.07,0,0,0-.26-3v0a10.53,10.53,0,0,0-7.87-8.34c-5.88-1.42-7.43-3.45-10-3a55.46,55.46,0,0,0-6.42,1.55h0c-4.51,1.38-9.81,3.6-11.17,6.57,0-5.89-7.31-3.45-13,.41s-12.79,12.18-9.75,12.18,6.33,1.07,5.2,2.26-5.4,7.69-7.84,7.69h-8.64s-5.29-14-10.82-14.21-6.5,2.78-6.89,4.15c0,0-9.38-2.49-11.73,2.37a137.43,137.43,0,0,0-5.08,13.31S251,95.58,247.32,83.7c-6.24,0-19.92-5-21.78-6.67s-.77-3.64,1.52-3.35c1-3.72-2.69-13.1-11.3-17.5S198,51.24,195.43,54s-6.74,10.39-11.82,10.39c0-3-4-6.52-8.88-6.71a10.88,10.88,0,0,0-5.29,1.14c-6.73,3.32-9.41,5.16-10.82,14l0,.09c0,.26-.07.5-.11.77a34.14,34.14,0,0,1-2.6,9.25v0h0c-2.51,5.49-6.61,9.38-12.43,8.61-1.67-2.84-10.56-4.3-14.57.19a13.79,13.79,0,0,0-2.65,4.35h0C124.74,100,125.41,104.35,130.14,106.72Z"/><path class="cls-6" d="M308.05,84.72s8,3.88,14.73,3.88,18.47,4.72,19.67,6.27l.05.06c1.2,1.46,3.13.43,3.13.43l-4.31-2a6.07,6.07,0,0,0-1.27-2.24c-.79-.72,5.58-20.28,5.58-20.28a17.5,17.5,0,0,1,.31-1.94c.62-3.08,2.41-9.19,7.31-13.31-4.51,1.38-9.81,3.6-11.17,6.57,0-5.89-7.31-3.45-13,.41s-12.79,12.18-9.75,12.18,6.33,1.07,5.2,2.26-5.4,7.69-7.84,7.69Z"/><path class="cls-6" d="M148.1,109.63,161,104.29l13-8.54.06,0,.33.08h0a4.64,4.64,0,0,1,.89.22l.09,0c4.12-2.44,11.11-.71,11.11-.71l5.28.39,4.65,3.17s11.25,12.14,14.08,13.17,9.3,2.41,9.3,2.41,4.12-.53,4.92-1.15,10.47,1.15,10.47,1.15,3.81-.88,8-1.77h0l4.44-.93h0c5.34-1.07,12.51-5,12.51-5l3.12-5.61,8.23-8.17,2-2.6S251,95.58,247.32,83.7c-6.24,0-19.92-5-21.78-6.67s-.77-3.64,1.52-3.35c1-3.72-2.69-13.1-11.3-17.5S198,51.24,195.43,54s-6.74,10.39-11.82,10.39c0-3-4-6.52-8.88-6.71,8.36,9.15,1.81,14.16-1.73,16h0a13.1,13.1,0,0,1-1.87.82h0s-5.76,12.13-7.1,16.92a19.16,19.16,0,0,0-4.26-.24c-.63.12-1-1.29-1.19-3.37v0a129.39,129.39,0,0,1,.08-15l0,.09-2.71,10v0h0c-2.51,5.49-6.61,9.38-12.43,8.61,0,0,1.69,6.14-3.44,7.1C136.56,105.77,148.1,109.63,148.1,109.63Z"/><path class="cls-3" d="M378.12,107.3s2.86,1.37,4.37-1.25,1-7.17-1.51-7.67-1.18-4.89.34-5.48,3.53-3.62,3.11-5.81-2.69,2.78-3.79.42,1-5.72-1.18-8.25-3.7.09-4.88-1.18.17-5.55-3.62-7.15-16.34-6.4-21.39-4-7.16,4.21-7.5,6.4-3.79,7-3.79,9.26-.25,7.66,1.77,8.51c2.7-.8,25.77-1.6,33.77,16.16A14.53,14.53,0,0,0,378.12,107.3Z"/><path class="cls-14" d="M378.12,107.3s2.86,1.37,4.37-1.25,1-7.17-1.51-7.67-1.18-4.89.34-5.48,3.53-3.62,3.11-5.81-2.69,2.78-3.79.42,1-5.72-1.18-8.25-3.7.09-4.88-1.18.17-5.55-3.62-7.15-16.34-6.4-21.39-4-7.16,4.21-7.5,6.4-3.79,7-3.79,9.26-.25,7.66,1.77,8.51c2.7-.8,25.77-1.6,33.77,16.16A14.53,14.53,0,0,0,378.12,107.3Z"/><path class="cls-3" d="M370.28,107s-9.53-12.66-29-13.59C344.09,96.78,349.48,107.14,370.28,107Z"/><path class="cls-15" d="M370.28,107s-9.53-12.66-29-13.59C344.09,96.78,349.48,107.14,370.28,107Z"/><path class="cls-6" d="M370.28,107s-9.53-12.66-29-13.59C344.09,96.78,349.48,107.14,370.28,107Z"/><path class="cls-3" d="M271.54,92.94S264,103.1,260.19,106.72C261,102.67,265.66,95.34,271.54,92.94Z"/><path class="cls-16" d="M271.54,92.94S264,103.1,260.19,106.72C261,102.67,265.66,95.34,271.54,92.94Z"/><path class="cls-3" d="M259.68,101.11s-3.86,7.77-8,9.39a46.7,46.7,0,0,1-11.7,2.58C241.72,111.12,256.39,101.58,259.68,101.11Z"/><path class="cls-17" d="M259.68,101.11s-3.86,7.77-8,9.39a46.7,46.7,0,0,1-11.7,2.58C241.72,111.12,256.39,101.58,259.68,101.11Z"/><path class="cls-3" d="M242.28,106.72s-6.32,4.79-7.05,7.74c-6.15-.38-15.39,0-15.39,0S223.59,106.74,242.28,106.72Z"/><path class="cls-18" d="M242.28,106.72s-6.32,4.79-7.05,7.74c-6.15-.38-15.39,0-15.39,0S223.59,106.74,242.28,106.72Z"/><path class="cls-3" d="M253.52,101.11s-4.47,2.12-5.37,3.18c-3.27-.05-7.72,0-7.72,0a54.69,54.69,0,0,0-14.82-7.77c-7.5-2.36-14.83-7-47.6-2.65,0,0-16.35,1.23-18.39-.91s-2-9.9,5.34-14.95a44.46,44.46,0,0,1,14.85-6.5S177.48,77,184,75.68s9.9-5.14,12.33-10c5.92-1.27,8.06,1.94,8.06,3s1.74,4.66,4.27,2.53,2.81-.39,6,1.55,6.27,3.69,6.29,5.53-1.53,10,5.17,11.85S249.1,92.36,253.52,101.11Z"/><path class="cls-19" d="M253.52,101.11s-4.47,2.12-5.37,3.18c-3.27-.05-7.72,0-7.72,0a54.69,54.69,0,0,0-14.82-7.77c-7.5-2.36-14.83-7-47.6-2.65,0,0-16.35,1.23-18.39-.91s-2-9.9,5.34-14.95a44.46,44.46,0,0,1,14.85-6.5S177.48,77,184,75.68s9.9-5.14,12.33-10c5.92-1.27,8.06,1.94,8.06,3s1.74,4.66,4.27,2.53,2.81-.39,6,1.55,6.27,3.69,6.29,5.53-1.53,10,5.17,11.85S249.1,92.36,253.52,101.11Z"/><path class="cls-6" d="M378.12,107.3s2.86,1.37,4.37-1.25,1-7.17-1.51-7.67-1.18-4.89.34-5.48,3.53-3.62,3.11-5.81-2.69,2.78-3.79.42,1-5.72-1.18-8.25-3.7.09-4.88-1.18.17-5.55-3.62-7.15-16.34-6.4-21.39-4-7.16,4.21-7.5,6.4-3.79,7-3.79,9.26-.25,7.66,1.77,8.51c2.7-.8,25.77-1.6,33.77,16.16A14.53,14.53,0,0,0,378.12,107.3Z"/><path class="cls-6" d="M253.52,101.11s-4.47,2.12-5.37,3.18c-3.27-.05-7.72,0-7.72,0a54.69,54.69,0,0,0-14.82-7.77c-7.5-2.36-14.83-7-47.6-2.65,0,0-16.35,1.23-18.39-.91s-2-9.9,5.34-14.95a44.46,44.46,0,0,1,14.85-6.5S177.48,77,184,75.68s9.9-5.14,12.33-10c5.92-1.27,8.06,1.94,8.06,3s1.74,4.66,4.27,2.53,2.81-.39,6,1.55,6.27,3.69,6.29,5.53-1.53,10,5.17,11.85S249.1,92.36,253.52,101.11Z"/><path class="cls-3" d="M236.25,104.78s-29.49-15.49-49.72-9.46c1.3,1.3,2.84.59,4.38,1.06s13.48,14.89,19.63,15.67C216.69,108,232.5,104.43,236.25,104.78Z"/><path class="cls-20" d="M236.25,104.78s-29.49-15.49-49.72-9.46c1.3,1.3,2.84.59,4.38,1.06s13.48,14.89,19.63,15.67C216.69,108,232.5,104.43,236.25,104.78Z"/><path class="cls-3" d="M175.42,96s-11,13.36-27.32,13.6C152.83,102.83,169.5,93.9,175.42,96Z"/><path class="cls-21" d="M175.42,96s-11,13.36-27.32,13.6C152.83,102.83,169.5,93.9,175.42,96Z"/><path class="cls-6" d="M271.54,92.94S264,103.1,260.19,106.72C261,102.67,265.66,95.34,271.54,92.94Z"/><path class="cls-6" d="M259.68,101.11s-3.86,7.77-8,9.39a46.7,46.7,0,0,1-11.7,2.58C241.72,111.12,256.39,101.58,259.68,101.11Z"/><path class="cls-6" d="M242.28,106.72s-6.32,4.79-7.05,7.74c-6.15-.38-15.39,0-15.39,0S223.59,106.74,242.28,106.72Z"/><path class="cls-6" d="M236.25,104.78s-29.49-15.49-49.72-9.46c1.3,1.3,2.84.59,4.38,1.06s13.48,14.89,19.63,15.67C216.69,108,232.5,104.43,236.25,104.78Z"/><path class="cls-6" d="M175.42,96s-11,13.36-27.32,13.6C152.83,102.83,169.5,93.9,175.42,96Z"/><path class="cls-6" d="M130.14,106.72a20.92,20.92,0,0,0-1.66,9.83c-.09-3.4,2.13-6.61,5.45-10.47-9-2.32-7.8-9.49-7.72-10h0C124.74,100,125.41,104.35,130.14,106.72Z"/><path class="cls-6" d="M145.06,127.25a11.13,11.13,0,0,0,11.18-5.92C160.44,114,168,109,179.5,112.78c0,0-4.19-4-9.22-3.15s-10.48,1.16-15.08,8.44S148.44,127,145.06,127.25Z"/><path class="cls-6" d="M190.4,126.87c3.15.67,9.2,1.16,19.4-.31a64.39,64.39,0,0,1,21.31.49,10.06,10.06,0,0,1,1.93-2.2s-10.62-1.31-15.13,0C214.3,125.9,198.11,127,190.4,126.87Z"/><path class="cls-6" d="M276.85,102.26a12.56,12.56,0,0,1,3.72-1.18c2.34-5.41,6.52-14.6,15.23-14.3s21.67,3.91,28.73,14.85c-3.83-10-20.86-17.26-30.16-16.78C286.06,85.27,280.57,96,276.85,102.26Z"/><path class="cls-6" d="M327.63,111.92c7.27,3.55,14.12,0,18.62.27s13.39,2.31,15.93,7.46l2.21-1.58s-6.29-6.85-15.35-7.22C340.27,110.49,332.22,114,327.63,111.92Z"/><path class="cls-6" d="M377,70c.16,1.77,2.93,8.14,10.9,9s12.15,3.69,13.38,7.45c-.42-4.14-2.35-7.56-7.82-8.37-9.55-1.42-15.85-5.08-15.64-9.54a12.07,12.07,0,0,0-.26-3A16.24,16.24,0,0,0,377,70Z"/><path class="cls-6" d="M399.84,98.67a5,5,0,0,1,6.17,2.19c-.78-2.89-2.88-5.24-5.45-4.77Z"/><path class="cls-6" d="M395.46,110c1.64,1.18,3.57,5.16,3.11,8.66,1.27-4.84-1.46-9.55-1.46-9.55s.19-4.16-3.3-4.77C395.24,106.68,396.2,108.43,395.46,110Z"/><path class="cls-22" d="M329.1,102.26s-2,3.75,2.76,4.83,11.85,1.82,11.85,1.82-12.47,4.21-16.08,1.68S322.9,102.9,329.1,102.26Z"/><path class="cls-23" d="M342.44,98s-3.51-5.48-9-6.6-12.86-2.22-12.86-2.22-.6,1.37,4.46,2.4S342.19,97.2,342.44,98Z"/><path class="cls-24" d="M298.88,73.25a13.52,13.52,0,0,0-5.12,4.41c-1.66,2.76-2.78,3.39-4.23,2.21s-7.93-2-9.42-.87a6.13,6.13,0,0,1,6-2.76c4.18.48,5.83.32,7.41-1.65S298.88,73.25,298.88,73.25Z"/><path class="cls-25" d="M284.34,105.25s-3.26,9.33-15.3,12.19S254.41,127,254.41,127s5.2-8.63,12.84-10.85S283.2,100,284.34,105.25Z"/><path class="cls-26" d="M275.3,91.44s4.83.83,2.63,2.49-10.3,9.06-10.3,9.06S273.2,90.83,275.3,91.44Z"/><path class="cls-27" d="M380.81,109.27s-7.49-1.79-13.19-.52-8.75,0-8.75,0a19.52,19.52,0,0,0,8.65,2C372.58,110.86,380.81,109.27,380.81,109.27Z"/><path class="cls-28" d="M366.32,120.5s-3.37,4.27-1.48,7.43S377,129,377,129s-10.87,7.71-14.56.69S366.32,120.5,366.32,120.5Z"/><path class="cls-29" d="M395.37,110.82s4.64,8.05,0,12.17-7.28,3-7.28,3,5.86-2.74,4.67-9.07S395.37,110.82,395.37,110.82Z"/><path class="cls-30" d="M388.09,88.69s-1.52,7.41,3.4,9.28-.93,5.23-3.4,1.39S386.49,90.37,388.09,88.69Z"/><path class="cls-31" d="M374.83,62.84s-4.17-5.68-8.34-5.18-5.43-1.77-6.94-1.26-6.3,4-6.3,4,4.53-3.28,7.43-2S375.4,66.17,374.83,62.84Z"/><path class="cls-32" d="M399.84,91.41s1-6.93-2.41-8.69-8.88-2.28-8.88-2.28,8.93,2.42,8.88,4.39S399.72,92.66,399.84,91.41Z"/><path class="cls-33" d="M332.72,63.78s-9.31,8-7.19,9.37-1.58,2.38-2.75,0S330.11,63.32,332.72,63.78Z"/><path class="cls-34" d="M225.22,69.94c.34.87-5.52-13.4-15.83-15.44s-16.46,2.81-14.8,3.06,6.75-4.21,15.18-.13S224.32,67.65,225.22,69.94Z"/><path class="cls-35" d="M244.52,89.7s-17.46-1.84-20.28-9.06c-1.57-4-3.7-.07-2.18,2.55C225.25,88.68,229.09,90.8,244.52,89.7Z"/><path class="cls-36" d="M173.73,58.82s7.45,2.79,1.06,5.85-13.57,7-15.56,15.77C159,70.9,166.28,60.55,173.73,58.82Z"/><path class="cls-37" d="M139.36,97.84S144,96.06,142.54,92s-11.18-3.29-14,1.37C136.42,92,141.61,91.72,139.36,97.84Z"/><path class="cls-38" d="M202.69,109.06s-9.64-9.09-10.82-10.61-3.66-.48-5.34-1.25-9.28-2.16-13.34,2.63-.76,1.9,3.55,1.28,10.84-2.34,13.66,0S202.69,109.06,202.69,109.06Z"/><path class="cls-39" d="M145.06,114.46s-9.55,7-12.16.79-4.2,3-1.7,4.54S142.47,122.85,145.06,114.46Z"/><path class="cls-40" d="M186.53,110.82s0,6.3,3.87,5.73,4.55,1.65,8.07,3.1,10.39,1.69,10.39,1.69-10.38,2.47-14.54,0-9.76.11-10.24-3.9A8.16,8.16,0,0,1,186.53,110.82Z"/><path class="cls-41" d="M243.67,115.52s-7.55,6-4.69,9.33-1,8.6-2.73,4.39S237.29,116.94,243.67,115.52Z"/></g></g></g></svg>