<svg xmlns="http://www.w3.org/2000/svg" xmlns:xlink="http://www.w3.org/1999/xlink" viewBox="0 0 512.37 197.72"><defs><style>.cls-1{isolation:isolate;}.cls-2{fill:none;}.cls-3{fill:#81d0d3;}.cls-10,.cls-4,.cls-6{mix-blend-mode:color-burn;}.cls-4{fill:url(#radial-gradient);}.cls-11,.cls-12,.cls-13,.cls-14,.cls-15,.cls-16,.cls-17,.cls-18,.cls-19,.cls-5{opacity:0.1;mix-blend-mode:multiply;}.cls-5{fill:url(#linear-gradient);}.cls-6{fill:#0071bc;opacity:0.2;}.cls-20,.cls-21,.cls-22,.cls-23,.cls-24,.cls-25,.cls-26,.cls-27,.cls-28,.cls-29,.cls-30,.cls-31,.cls-32,.cls-33,.cls-34,.cls-35,.cls-36,.cls-37,.cls-38,.cls-39,.cls-7,.cls-8{opacity:0.8;}.cls-7,.cls-8{mix-blend-mode:screen;}.cls-7{fill:url(#linear-gradient-2);}.cls-8{fill:url(#linear-gradient-3);}.cls-9{fill:#d9f7ff;}.cls-10{fill:url(#radial-gradient-2);}.cls-11{fill:url(#linear-gradient-4);}.cls-12{fill:url(#linear-gradient-5);}.cls-13{fill:url(#linear-gradient-6);}.cls-14{fill:url(#linear-gradient-7);}.cls-15{fill:url(#linear-gradient-8);}.cls-16{fill:url(#linear-gradient-9);}.cls-17{fill:url(#linear-gradient-10);}.cls-18{fill:url(#linear-gradient-11);}.cls-19{fill:url(#linear-gradient-12);}.cls-20,.cls-21,.cls-22,.cls-23,.cls-24,.cls-25,.cls-26,.cls-27,.cls-28,.cls-29,.cls-30,.cls-31,.cls-32,.cls-33,.cls-34,.cls-35,.cls-36,.cls-37,.cls-38,.cls-39{mix-blend-mode:color-dodge;}.cls-20{fill:url(#linear-gradient-13);}.cls-21{fill:url(#linear-gradient-14);}.cls-22{fill:url(#linear-gradient-15);}.cls-23{fill:url(#linear-gradient-16);}.cls-24{fill:url(#linear-gradient-17);}.cls-25{fill:url(#linear-gradient-18);}.cls-26{fill:url(#linear-gradient-19);}.cls-27{fill:url(#linear-gradient-20);}.cls-28{fill:url(#linear-gradient-21);}.cls-29{fill:url(#linear-gradient-22);}.cls-30{fill:url(#linear-gradient-23);}.cls-31{fill:url(#linear-gradient-24);}.cls-32{fill:url(#linear-gradient-25);}.cls-33{fill:url(#linear-gradient-26);}.cls-34{fill:url(#linear-gradient-27);}.cls-35{fill:url(#linear-gradient-28);}.cls-36{fill:url(#linear-gradient-29);}.cls-37{fill:url(#linear-gradient-30);}.cls-38{fill:url(#linear-gradient-31);}.cls-39{fill:url(#linear-gradient-32);}</style><radialGradient id="radial-gradient" cx="1477.16" cy="127.29" r="77.1" gradientTransform="matrix(-1, 0, 0, 1, 1748.94, 0)" gradientUnits="userSpaceOnUse"><stop offset="0" stop-color="#fff"/><stop offset="0.22" stop-color="#fcfcfd"/><stop offset="0.36" stop-color="#f4f4f8"/><stop offset="0.47" stop-color="#e6e5ee"/><stop offset="0.58" stop-color="#d1d0e0"/><stop offset="0.68" stop-color="#b7b5ce"/><stop offset="0.77" stop-color="#9793b8"/><stop offset="0.85" stop-color="#706c9e"/><stop offset="0.93" stop-color="#453f81"/><stop offset="1" stop-color="#1b1464"/></radialGradient><linearGradient id="linear-gradient" x1="1476.81" y1="168.12" x2="1476.81" y2="108.94" gradientTransform="matrix(-1, 0, 0, 1, 1748.94, 0)" xlink:href="#radial-gradient"/><linearGradient id="linear-gradient-2" x1="1436.68" y1="166.34" x2="1436.68" y2="111.38" gradientTransform="matrix(-1, 0, 0, 1, 1748.94, 0)" gradientUnits="userSpaceOnUse"><stop offset="0"/><stop offset="1" stop-color="#fff"/></linearGradient><linearGradient id="linear-gradient-3" x1="1511.07" y1="168.01" x2="1511.07" y2="139.44" xlink:href="#linear-gradient-2"/><radialGradient id="radial-gradient-2" cx="270.83" cy="74.63" r="167.66" gradientTransform="matrix(1, 0, 0, 1, 0, 0)" xlink:href="#radial-gradient"/><linearGradient id="linear-gradient-4" x1="268.97" y1="153.79" x2="268.97" y2="44.23" gradientUnits="userSpaceOnUse"><stop offset="0" stop-color="#1b1464"/><stop offset="0.07" stop-color="#453f81"/><stop offset="0.15" stop-color="#706c9e"/><stop offset="0.23" stop-color="#9793b8"/><stop offset="0.32" stop-color="#b7b5ce"/><stop offset="0.42" stop-color="#d1d0e0"/><stop offset="0.53" stop-color="#e6e5ee"/><stop offset="0.64" stop-color="#f4f4f8"/><stop offset="0.78" stop-color="#fcfcfd"/><stop offset="1" stop-color="#fff"/></linearGradient><linearGradient id="linear-gradient-5" x1="1387.44" y1="126.17" x2="1387.44" y2="114.19" gradientTransform="matrix(-1, 0, 0, 1, 1748.94, 0)" xlink:href="#radial-gradient"/><linearGradient id="linear-gradient-6" x1="1408.93" y1="126.17" x2="1408.93" y2="106.86" gradientTransform="matrix(-1, 0, 0, 1, 1748.94, 0)" xlink:href="#radial-gradient"/><linearGradient id="linear-gradient-7" x1="1479.11" y1="128.11" x2="1479.11" y2="111.15" gradientTransform="matrix(-1, 0, 0, 1, 1748.94, 0)" xlink:href="#radial-gradient"/><linearGradient id="linear-gradient-8" x1="1493.24" y1="133.87" x2="1493.24" y2="115.16" gradientTransform="matrix(-1, 0, 0, 1, 1748.94, 0)" xlink:href="#radial-gradient"/><linearGradient id="linear-gradient-9" x1="1511.2" y1="119.52" x2="1511.2" y2="113.38" gradientTransform="matrix(-1, 0, 0, 1, 1748.94, 0)" xlink:href="#radial-gradient"/><linearGradient id="linear-gradient-10" x1="1516.86" y1="134.45" x2="1516.86" y2="122.84" gradientTransform="matrix(-1, 0, 0, 1, 1748.94, 0)" xlink:href="#radial-gradient"/><linearGradient id="linear-gradient-11" x1="1533.35" y1="130.17" x2="1533.35" y2="114.88" gradientTransform="matrix(-1, 0, 0, 1, 1748.94, 0)" xlink:href="#radial-gradient"/><linearGradient id="linear-gradient-12" x1="1597.86" y1="133.2" x2="1597.86" y2="118.99" gradientTransform="matrix(-1, 0, 0, 1, 1748.94, 0)" xlink:href="#radial-gradient"/><linearGradient id="linear-gradient-13" x1="1464.51" y1="98.74" x2="1471.88" y2="92.13" xlink:href="#linear-gradient-2"/><linearGradient id="linear-gradient-14" x1="1431.72" y1="92.75" x2="1450.36" y2="76.05" xlink:href="#linear-gradient-2"/><linearGradient id="linear-gradient-15" x1="1481.45" y1="148.2" x2="1499.87" y2="131.69" xlink:href="#linear-gradient-2"/><linearGradient id="linear-gradient-16" x1="1472.79" y1="127.61" x2="1474.55" y2="126.03" xlink:href="#linear-gradient-2"/><linearGradient id="linear-gradient-17" x1="1569.01" y1="121.32" x2="1584.16" y2="107.74" xlink:href="#linear-gradient-2"/><linearGradient id="linear-gradient-18" x1="1546.77" y1="126.81" x2="1558.95" y2="115.89" xlink:href="#linear-gradient-2"/><linearGradient id="linear-gradient-19" x1="1517.37" y1="140.76" x2="1528.23" y2="131.02" xlink:href="#linear-gradient-2"/><linearGradient id="linear-gradient-20" x1="1596.2" y1="144.2" x2="1602.81" y2="138.27" xlink:href="#linear-gradient-2"/><linearGradient id="linear-gradient-21" x1="1611.03" y1="128.85" x2="1621.56" y2="119.41" xlink:href="#linear-gradient-2"/><linearGradient id="linear-gradient-22" x1="1403.34" y1="126.28" x2="1431.25" y2="101.26" xlink:href="#linear-gradient-2"/><linearGradient id="linear-gradient-23" x1="1376.73" y1="152.24" x2="1388.97" y2="141.26" xlink:href="#linear-gradient-2"/><linearGradient id="linear-gradient-24" x1="1354.27" y1="135.91" x2="1360.62" y2="130.21" xlink:href="#linear-gradient-2"/><linearGradient id="linear-gradient-25" x1="1363.15" y1="120.83" x2="1371.06" y2="113.74" xlink:href="#linear-gradient-2"/><linearGradient id="linear-gradient-26" x1="1347.71" y1="86.32" x2="1357.55" y2="77.5" xlink:href="#linear-gradient-2"/><linearGradient id="linear-gradient-27" x1="1353.04" y1="102.08" x2="1357.09" y2="98.45" xlink:href="#linear-gradient-2"/><linearGradient id="linear-gradient-28" x1="1420.03" y1="87.3" x2="1428.01" y2="80.15" xlink:href="#linear-gradient-2"/><linearGradient id="linear-gradient-29" x1="1511.32" y1="110.19" x2="1525.51" y2="97.47" xlink:href="#linear-gradient-2"/><linearGradient id="linear-gradient-30" x1="1506.19" y1="127.23" x2="1508.42" y2="125.24" xlink:href="#linear-gradient-2"/><linearGradient id="linear-gradient-31" x1="1522.28" y1="67.4" x2="1541.79" y2="49.91" xlink:href="#linear-gradient-2"/><linearGradient id="linear-gradient-32" x1="1606.22" y1="109.24" x2="1618.24" y2="98.46" xlink:href="#linear-gradient-2"/></defs><g class="cls-1"><g id="Layer_2" data-name="Layer 2"><g id="bg"><rect class="cls-2" width="512.37" height="197.72" transform="translate(512.37 197.72) rotate(180)"/></g><g id="_8" data-name="8"><path class="cls-3" d="M211.35,143.39s6.58,17.68,6.58,23c2.64.75,10.6,1.29,20.91,1.57l2.23.05c19.61.44,46.51,0,62-1.72,1-.1,1.94-.22,2.83-.34a37.47,37.47,0,0,0,7.84-1.63s5-16,14.21-25.7a28.15,28.15,0,0,1,5-4.22c-.44-.93-.89-1.86-1.35-2.78-.87-1.76-1.76-3.51-2.65-5.19-3.07-5.86-6-11.06-7.8-14-.73-1.25-1.24-2.11-1.45-2.46l-.11-.18-9.78-11.29-23.9-3L280.78,118l-8.28,17.5-16.32,5.08-18.56-1.83-.49,0-2.47,0-12.18-.13-4.17,0Z"/><path class="cls-4" d="M211.35,143.39s6.58,17.68,6.58,23c2.64.75,10.6,1.29,20.91,1.57l2.23.05c19.61.44,46.51,0,62-1.72,1-.1,1.94-.22,2.83-.34a37.47,37.47,0,0,0,7.84-1.63s5-16,14.21-25.7a28.15,28.15,0,0,1,5-4.22c-.44-.93-.89-1.86-1.35-2.78-.87-1.76-1.76-3.51-2.65-5.19-3.07-5.86-6-11.06-7.8-14-.73-1.25-1.24-2.11-1.45-2.46l-.11-.18-9.78-11.29-23.9-3L280.78,118l-8.28,17.5-16.32,5.08-18.56-1.83-.49,0-2.47,0-12.18-.13-4.17,0Z"/><path class="cls-5" d="M211.35,143.39s6.58,17.68,6.58,23c2.64.75,10.6,1.29,20.91,1.57l2.23.05c19.61.44,46.51,0,62-1.72,1-.1,1.94-.22,2.83-.34a37.47,37.47,0,0,0,7.84-1.63s5-16,14.21-25.7a28.15,28.15,0,0,1,5-4.22c-.44-.93-.89-1.86-1.35-2.78-.87-1.76-1.76-3.51-2.65-5.19-3.07-5.86-6-11.06-7.8-14-.73-1.25-1.24-2.11-1.45-2.46l-.11-.18-9.78-11.29-23.9-3L280.78,118l-8.28,17.5-16.32,5.08-18.56-1.83-.49,0-2.47,0-12.18-.13-4.17,0Z"/><path class="cls-6" d="M223.77,144.51c2.61-.15,9.74,5.59,13.89,10.06a23.65,23.65,0,0,1,2.29,2.74,2.41,2.41,0,0,0,.49.54c2.67,2.1,4.1-11.78,11.74-10.89,8.09.94,29.35-14.11,29.35-14.11s7-7.72,8.66-4.7,8.09-7.16,10.16-10,2.26,8.28,1.13,13.59a3.19,3.19,0,0,0-.08.64h0c0,3.07,6.38-.4,11.84-2.8a31.64,31.64,0,0,1,4.42-1.65,3.57,3.57,0,0,1,1.11-.12c2.84.06,5.27,3.17,6.91,6a34,34,0,0,1,2.24,4.71,28.15,28.15,0,0,1,5-4.22c-.44-.93-.89-1.86-1.35-2.78-.87-1.76-1.76-3.51-2.65-5.19-3.07-5.86-6-11.06-7.8-14-.73-1.25-1.24-2.11-1.45-2.46l-.11-.18-9.78-11.29-23.9-3L280.78,118l-8.28,17.5-16.32,5.08-18.56-1.83-.49,0-2.47,0-12.18-.13C222.18,141.69,222.3,144.6,223.77,144.51Z"/><path class="cls-7" d="M294,159.9c1-1.75,2.71-13.39,6.21-17.85s14-11.15,15.62-8.6,1.27,6.05-2.55,9.56-3.67,10.51-4.94,12.75c-.87,1.52-3.65,7.08-5.34,10.48,1-.1,1.94-.22,2.83-.34,1.59-2,3.74-5,4.42-6.8,1.12-3,1.91-8.12,7-14.5,3.93-4.91,5.87-9,8.38-10.74a4.69,4.69,0,0,1,2.46-.89,6.94,6.94,0,0,0,3.41-1.4c-.87-1.76-1.76-3.51-2.65-5.19-2.85,0-8.06.07-10.12,1.45a0,0,0,0,0,0,0,17.63,17.63,0,0,1-5.53,1.77c-4.07.77-8.48.92-7.57-.3,1.2-1.61,9.57-13.17,15.43-17-.73-1.25-1.24-2.11-1.45-2.46-3.78,2.9-9,7.28-12.23,11.62a68.08,68.08,0,0,0-6,10.9h0c-4,8.69-7.73,18.84-8.16,21.59C292.61,158.15,293.08,161.65,294,159.9Z"/><path class="cls-8" d="M234.66,138.66a101,101,0,0,1,3,15.91c.67,5.5,1,10.53,1.18,13.34l2.23.05a94.71,94.71,0,0,0-.63-10.11c-.75-7-2-14.59-2.82-19.12l-.49,0Z"/><path class="cls-9" d="M410.34,113.78c-1.49,1-2.74,1.09-3.74.53h0c-1.89-1.07-2.87-4.34-2.87-7.26-2.53,1.21-5.29,7.58-4.57,10.59a12.68,12.68,0,0,1,1.71,3.61c1.86,6.32-1.05,13.63-5,16.82-4.28,3.48-11.46,4.84-12.7,1.65a2.82,2.82,0,0,1-.18-1.05c-2.52,2.13-1.92,6.65-3.49,10.14-1,2.3-6.58,4.82-12.28,5h0a14.81,14.81,0,0,1-8.28-2c-6.95-4.36.39-12.78.71-13.14h0l0,0-.06-.07c-.07-.09-.19-.24-.36-.43l-.29-.3c-.17-.18-.34-.36-.52-.52a.94.94,0,0,0-.18-.17l-.16-.15a.13.13,0,0,0-.06-.05,3.17,3.17,0,0,0-.34-.3.19.19,0,0,0-.1-.08,2.54,2.54,0,0,0-.24-.2,13.22,13.22,0,0,0-1.93-1.32l-.4-.23-.61-.32-.42-.18a17.78,17.78,0,0,0-2.1-.77c-.35-.1-.71-.19-1.06-.27a5,5,0,0,0-.53-.11l-.52-.09c-.35-.06-.7-.11-1-.14s-.5-.05-.75-.06a19,19,0,0,0-2,0l-.63,0-.53,0c-.18,0-.35,0-.52.06-.76.1-1.47.23-2.12.38a10.58,10.58,0,0,0-3,1.14c-1.7,1.06-5.08,1.82-8.6,1.59a17.14,17.14,0,0,1-4.13-.79,12.76,12.76,0,0,1-1.67-.69,10.61,10.61,0,0,1-1.59-.95,13.32,13.32,0,0,1-1.15-.93h0a13.2,13.2,0,0,1-3.4-4.78.32.32,0,0,1,0-.09,16.16,16.16,0,0,1-1.14-7,12.91,12.91,0,0,0-.82-4.76h0a24.25,24.25,0,0,0-1.19-2.83c-.18-.36-.37-.73-.57-1.1l-.09-.17-.1-.19a44.28,44.28,0,0,0-3.88-5.73c-4.53-5.73-13.32-7.58-19.42-6.47s-7.77,18.12-7.68,26.72c0,1.69,0,3.14-.06,4.39-.28,5.09-1.24,6.75-2.8,7.32-.69.25-1.89.7-3.22,1.29l0,0c-2.41,1.08-5.26,2.61-6.45,4.27-1.85,2.59-3.79,6.57-10.64,8.05-3.8.82-8.38-.76-13-3.06l-.49-.24c-2.86-1.42-5.73-3.11-8.48-4.65l-2-1.12-.72.21a71.1,71.1,0,0,1-10.1,2.16,35.7,35.7,0,0,1-13.88-.51,19.48,19.48,0,0,1-7.52-3.74h0a19.42,19.42,0,0,1-6.5-11.88c-1.76,0-9.43-1.11-10.26-4.26-10.45-.46-18.68,8.14-20.25,9.25s-3.78-2.08-8.23-.44c1.44,5.17-.24,12.75-9.87,15.4a8.74,8.74,0,0,1-4.46.13h0a9.9,9.9,0,0,1-5.24-3.54h0a21,21,0,0,1-3.52-6.72s-4.09.15-10.59-4.9c-3.15-2.46-3.5-6-2.75-9.27v0c.8-3.43,2.82-6.45,4.07-7.32-3.61-3.73-4.09-19.13,5.05-20.33s11.31,7.7,11.79,12.39c6.14,1,13.36-2.65,18.05-7s4.22-24.07,4.22-25.87-.61-4.93-1.93-6.5,4.81-9.75,7.7-13.23,6.74.6,7.7,4.21c3.61.36,12.16-7.7,13.24-10.35a6.39,6.39,0,0,1,1.87-2.12v0c3.54-2.88,11.17-6.21,17-2.43,7.5,4.81,13.92,19.49,15.12,25S224,74.31,224,74.31a26.13,26.13,0,0,1,.36,9.39c-.72,5.41-5.3,2.41-4.94-2.53-3-4.57-2.76-13.11-2.76-13.47s-6.62-11-13.12-12.88S193,63.24,192.42,66.73s1.44,9.27-5.54,11-5.65-10.22-5.65-10.22a13.89,13.89,0,0,0-6.74,3.48c-3.61,3.13-5.05,13.6-5.42,19.5s4.22,12.27,4.22,12.27,2.76,1.33,4.09,1.21,5.05-4.34,7.94-4.58,10.57,3.26,13.24,8.41l0,0c.07.16.15.3.22.46h.07c3.37,0,17,2.18,20.74,4.69,9.87-8.66,6.5-14.2,6.14-17.54s.72-3.88,3.25-4.36,7.58,10,14.44,14.8,17,3.13,19.37,2.29,9.31-3.49,11.92-2.53c-1.33-4,.84-11.91,2.89-16.24s10.07-2.41,10.56-2.3h0c-2.81-7.95,7.16-15.79,14.18-14.69a7.15,7.15,0,0,1,2.67,1c6.71,4.19,9.6,17.92,11.05,23.86a.64.64,0,0,0,0,.09c3.61.24,7.34-16.61,9.63-23.35s7.58-4.45,8.9-4.45,4.57-2.89,5.05-5,2.89-4.94,9.15-9.63,15.88.36,16.73,1.44,4.57,5.3,6,6.26,4.82,4.45,1.69,8.79c-12.4-16.85-27.8-7-32.61-2.77S332.61,87,333.57,95.4s12,11.64,16.84,13.09,23.35,4.45,26.6,4.45a4.69,4.69,0,0,1,.79-2.32s0,0,0,0a4.72,4.72,0,0,1,3.29-2.47,2,2,0,0,1,.91.19h0c2.05.86,4.83,4.64,6.29,9.42,4.83-4.39,2.84-8.48.91-12.73,0,0,0,0,0,0-.18-.4-.37-.8-.54-1.2-2.05-4.7,3.37-7.47,3.37-7.47a5.58,5.58,0,0,1-2-.58h0c-1.61-.76-3.92-2.52-5.92-6.5-3-6.07,1.21-12.14,6.88-14.18a11.91,11.91,0,0,1,2.62-.63c4.1-.5,7.81,2.73,9.93,6.93a.08.08,0,0,0,0,0,15.72,15.72,0,0,1,1.74,8.93c1.12-1.6,6.87,0,7.44,3.12a3.71,3.71,0,0,1-1,3C419.24,101.75,414.67,110.77,410.34,113.78Z"/><path class="cls-10" d="M410.34,113.78c-1.49,1-2.74,1.09-3.74.53h0c-1.89-1.07-2.87-4.34-2.87-7.26-2.53,1.21-5.29,7.58-4.57,10.59a12.68,12.68,0,0,1,1.71,3.61c1.86,6.32-1.05,13.63-5,16.82-4.28,3.48-11.46,4.84-12.7,1.65a2.82,2.82,0,0,1-.18-1.05c-2.52,2.13-1.92,6.65-3.49,10.14-1,2.3-6.58,4.82-12.28,5h0a14.81,14.81,0,0,1-8.28-2c-6.95-4.36.39-12.78.71-13.14h0l0,0-.06-.07c-.07-.09-.19-.24-.36-.43l-.29-.3c-.17-.18-.34-.36-.52-.52a.94.94,0,0,0-.18-.17l-.16-.15a.13.13,0,0,0-.06-.05,3.17,3.17,0,0,0-.34-.3.19.19,0,0,0-.1-.08,2.54,2.54,0,0,0-.24-.2,13.22,13.22,0,0,0-1.93-1.32l-.4-.23-.61-.32-.42-.18a17.78,17.78,0,0,0-2.1-.77c-.35-.1-.71-.19-1.06-.27a5,5,0,0,0-.53-.11l-.52-.09c-.35-.06-.7-.11-1-.14s-.5-.05-.75-.06a19,19,0,0,0-2,0l-.63,0-.53,0c-.18,0-.35,0-.52.06-.76.1-1.47.23-2.12.38a10.58,10.58,0,0,0-3,1.14c-1.7,1.06-5.08,1.82-8.6,1.59a17.14,17.14,0,0,1-4.13-.79,12.76,12.76,0,0,1-1.67-.69,10.61,10.61,0,0,1-1.59-.95,13.32,13.32,0,0,1-1.15-.93h0a13.2,13.2,0,0,1-3.4-4.78.32.32,0,0,1,0-.09,16.16,16.16,0,0,1-1.14-7,12.91,12.91,0,0,0-.82-4.76h0a24.25,24.25,0,0,0-1.19-2.83c-.18-.36-.37-.73-.57-1.1l-.09-.17-.1-.19a44.28,44.28,0,0,0-3.88-5.73c-4.53-5.73-13.32-7.58-19.42-6.47s-7.77,18.12-7.68,26.72c0,1.69,0,3.14-.06,4.39-.28,5.09-1.24,6.75-2.8,7.32-.69.25-1.89.7-3.22,1.29l0,0c-2.41,1.08-5.26,2.61-6.45,4.27-1.85,2.59-3.79,6.57-10.64,8.05-3.8.82-8.38-.76-13-3.06l-.49-.24c-2.86-1.42-5.73-3.11-8.48-4.65l-2-1.12-.72.21a71.1,71.1,0,0,1-10.1,2.16,35.7,35.7,0,0,1-13.88-.51,19.48,19.48,0,0,1-7.52-3.74h0a19.42,19.42,0,0,1-6.5-11.88c-1.76,0-9.43-1.11-10.26-4.26-10.45-.46-18.68,8.14-20.25,9.25s-3.78-2.08-8.23-.44c1.44,5.17-.24,12.75-9.87,15.4a8.74,8.74,0,0,1-4.46.13h0a9.9,9.9,0,0,1-5.24-3.54h0a21,21,0,0,1-3.52-6.72s-4.09.15-10.59-4.9c-3.15-2.46-3.5-6-2.75-9.27v0c.8-3.43,2.82-6.45,4.07-7.32-3.61-3.73-4.09-19.13,5.05-20.33s11.31,7.7,11.79,12.39c6.14,1,13.36-2.65,18.05-7s4.22-24.07,4.22-25.87-.61-4.93-1.93-6.5,4.81-9.75,7.7-13.23,6.74.6,7.7,4.21c3.61.36,12.16-7.7,13.24-10.35a6.39,6.39,0,0,1,1.87-2.12v0c3.54-2.88,11.17-6.21,17-2.43,7.5,4.81,13.92,19.49,15.12,25S224,74.31,224,74.31a26.13,26.13,0,0,1,.36,9.39c-.72,5.41-5.3,2.41-4.94-2.53-3-4.57-2.76-13.11-2.76-13.47s-6.62-11-13.12-12.88S193,63.24,192.42,66.73s1.44,9.27-5.54,11-5.65-10.22-5.65-10.22a13.89,13.89,0,0,0-6.74,3.48c-3.61,3.13-5.05,13.6-5.42,19.5s4.22,12.27,4.22,12.27,2.76,1.33,4.09,1.21,5.05-4.34,7.94-4.58,10.57,3.26,13.24,8.41l0,0c.07.16.15.3.22.46h.07c3.37,0,17,2.18,20.74,4.69,9.87-8.66,6.5-14.2,6.14-17.54s.72-3.88,3.25-4.36,7.58,10,14.44,14.8,17,3.13,19.37,2.29,9.31-3.49,11.92-2.53c-1.33-4,.84-11.91,2.89-16.24s10.07-2.41,10.56-2.3h0c-2.81-7.95,7.16-15.79,14.18-14.69a7.15,7.15,0,0,1,2.67,1c6.71,4.19,9.6,17.92,11.05,23.86a.64.64,0,0,0,0,.09c3.61.24,7.34-16.61,9.63-23.35s7.58-4.45,8.9-4.45,4.57-2.89,5.05-5,2.89-4.94,9.15-9.63,15.88.36,16.73,1.44,4.57,5.3,6,6.26,4.82,4.45,1.69,8.79c-12.4-16.85-27.8-7-32.61-2.77S332.61,87,333.57,95.4s12,11.64,16.84,13.09,23.35,4.45,26.6,4.45a4.69,4.69,0,0,1,.79-2.32s0,0,0,0a4.72,4.72,0,0,1,3.29-2.47,2,2,0,0,1,.91.19h0c2.05.86,4.83,4.64,6.29,9.42,4.83-4.39,2.84-8.48.91-12.73,0,0,0,0,0,0-.18-.4-.37-.8-.54-1.2-2.05-4.7,3.37-7.47,3.37-7.47a5.58,5.58,0,0,1-2-.58h0c-1.61-.76-3.92-2.52-5.92-6.5-3-6.07,1.21-12.14,6.88-14.18a11.91,11.91,0,0,1,2.62-.63c4.1-.5,7.81,2.73,9.93,6.93a.08.08,0,0,0,0,0,15.72,15.72,0,0,1,1.74,8.93c1.12-1.6,6.87,0,7.44,3.12a3.71,3.71,0,0,1-1,3C419.24,101.75,414.67,110.77,410.34,113.78Z"/><path class="cls-11" d="M410.34,113.78c-1.49,1-2.74,1.09-3.74.53h0c-1.89-1.07-2.87-4.34-2.87-7.26-2.53,1.21-5.29,7.58-4.57,10.59a12.68,12.68,0,0,1,1.71,3.61c1.86,6.32-1.05,13.63-5,16.82-4.28,3.48-11.46,4.84-12.7,1.65a2.82,2.82,0,0,1-.18-1.05c-2.52,2.13-1.92,6.65-3.49,10.14-1,2.3-6.58,4.82-12.28,5h0a14.81,14.81,0,0,1-8.28-2c-6.95-4.36.39-12.78.71-13.14h0l0,0-.06-.07c-.07-.09-.19-.24-.36-.43l-.29-.3c-.17-.18-.34-.36-.52-.52a.94.94,0,0,0-.18-.17l-.16-.15a.13.13,0,0,0-.06-.05,3.17,3.17,0,0,0-.34-.3.19.19,0,0,0-.1-.08,2.54,2.54,0,0,0-.24-.2,13.22,13.22,0,0,0-1.93-1.32l-.4-.23-.61-.32-.42-.18a17.78,17.78,0,0,0-2.1-.77c-.35-.1-.71-.19-1.06-.27a5,5,0,0,0-.53-.11l-.52-.09c-.35-.06-.7-.11-1-.14s-.5-.05-.75-.06a19,19,0,0,0-2,0l-.63,0-.53,0c-.18,0-.35,0-.52.06-.76.1-1.47.23-2.12.38a10.58,10.58,0,0,0-3,1.14c-1.7,1.06-5.08,1.82-8.6,1.59a17.14,17.14,0,0,1-4.13-.79,12.76,12.76,0,0,1-1.67-.69,10.61,10.61,0,0,1-1.59-.95,13.32,13.32,0,0,1-1.15-.93h0a13.2,13.2,0,0,1-3.4-4.78.32.32,0,0,1,0-.09,16.16,16.16,0,0,1-1.14-7,12.91,12.91,0,0,0-.82-4.76h0a24.25,24.25,0,0,0-1.19-2.83c-.18-.36-.37-.73-.57-1.1l-.09-.17-.1-.19a44.28,44.28,0,0,0-3.88-5.73c-4.53-5.73-13.32-7.58-19.42-6.47s-7.77,18.12-7.68,26.72c0,1.69,0,3.14-.06,4.39-.28,5.09-1.24,6.75-2.8,7.32-.69.25-1.89.7-3.22,1.29l0,0c-2.41,1.08-5.26,2.61-6.45,4.27-1.85,2.59-3.79,6.57-10.64,8.05-3.8.82-8.38-.76-13-3.06l-.49-.24c-2.86-1.42-5.73-3.11-8.48-4.65l-2-1.12-.72.21a71.1,71.1,0,0,1-10.1,2.16,35.7,35.7,0,0,1-13.88-.51,19.48,19.48,0,0,1-7.52-3.74h0a19.42,19.42,0,0,1-6.5-11.88c-1.76,0-9.43-1.11-10.26-4.26-10.45-.46-18.68,8.14-20.25,9.25s-3.78-2.08-8.23-.44c1.44,5.17-.24,12.75-9.87,15.4a8.74,8.74,0,0,1-4.46.13h0a9.9,9.9,0,0,1-5.24-3.54h0a21,21,0,0,1-3.52-6.72s-4.09.15-10.59-4.9c-3.15-2.46-3.5-6-2.75-9.27v0c.8-3.43,2.82-6.45,4.07-7.32-3.61-3.73-4.09-19.13,5.05-20.33s11.31,7.7,11.79,12.39c6.14,1,13.36-2.65,18.05-7s4.22-24.07,4.22-25.87-.61-4.93-1.93-6.5,4.81-9.75,7.7-13.23,6.74.6,7.7,4.21c3.61.36,12.16-7.7,13.24-10.35a6.39,6.39,0,0,1,1.87-2.12v0c3.54-2.88,11.17-6.21,17-2.43,7.5,4.81,13.92,19.49,15.12,25S224,74.31,224,74.31a26.13,26.13,0,0,1,.36,9.39c-.72,5.41-5.3,2.41-4.94-2.53-3-4.57-2.76-13.11-2.76-13.47s-6.62-11-13.12-12.88S193,63.24,192.42,66.73s1.44,9.27-5.54,11-5.65-10.22-5.65-10.22a13.89,13.89,0,0,0-6.74,3.48c-3.61,3.13-5.05,13.6-5.42,19.5s4.22,12.27,4.22,12.27,2.76,1.33,4.09,1.21,5.05-4.34,7.94-4.58,10.57,3.26,13.24,8.41l0,0c.07.16.15.3.22.46h.07c3.37,0,17,2.18,20.74,4.69,9.87-8.66,6.5-14.2,6.14-17.54s.72-3.88,3.25-4.36,7.58,10,14.44,14.8,17,3.13,19.37,2.29,9.31-3.49,11.92-2.53c-1.33-4,.84-11.91,2.89-16.24s10.07-2.41,10.56-2.3h0c-2.81-7.95,7.16-15.79,14.18-14.69a7.15,7.15,0,0,1,2.67,1c6.71,4.19,9.6,17.92,11.05,23.86a.64.64,0,0,0,0,.09c3.61.24,7.34-16.61,9.63-23.35s7.58-4.45,8.9-4.45,4.57-2.89,5.05-5,2.89-4.94,9.15-9.63,15.88.36,16.73,1.44,4.57,5.3,6,6.26,4.82,4.45,1.69,8.79c-12.4-16.85-27.8-7-32.61-2.77S332.61,87,333.57,95.4s12,11.64,16.84,13.09,23.35,4.45,26.6,4.45a4.69,4.69,0,0,1,.79-2.32s0,0,0,0a4.72,4.72,0,0,1,3.29-2.47,2,2,0,0,1,.91.19h0c2.05.86,4.83,4.64,6.29,9.42,4.83-4.39,2.84-8.48.91-12.73,0,0,0,0,0,0-.18-.4-.37-.8-.54-1.2-2.05-4.7,3.37-7.47,3.37-7.47a5.58,5.58,0,0,1-2-.58h0c-1.61-.76-3.92-2.52-5.92-6.5-3-6.07,1.21-12.14,6.88-14.18a11.91,11.91,0,0,1,2.62-.63c4.1-.5,7.81,2.73,9.93,6.93a.08.08,0,0,0,0,0,15.72,15.72,0,0,1,1.74,8.93c1.12-1.6,6.87,0,7.44,3.12a3.71,3.71,0,0,1-1,3C419.24,101.75,414.67,110.77,410.34,113.78Z"/><path class="cls-6" d="M126.6,117.15s2-6,10.56-2.84S144,126.17,144,126.17s11.55-1.11,14.28-10.42,15-13,15-13c-9.3-5.62-3.37-37.19-1.62-39.59s2.4,2.18,2.4,2.18c4.58-1.52,5.11-4.46,5.11-4.46-1-3.61-4.81-7.7-7.7-4.21s-9,11.67-7.7,13.23,1.93,4.69,1.93,6.5.48,21.54-4.22,25.87-11.91,7.94-18.05,7c-.48-4.69-2.64-13.6-11.79-12.39S123,113.42,126.6,117.15Z"/><path class="cls-6" d="M186.88,77.68c7-1.68,4.94-7.46,5.54-11S197,52.9,203.49,54.82s13.12,12.51,13.12,12.88-.24,8.9,2.76,13.47c-.36,4.94,4.22,7.94,4.94,2.53a26.13,26.13,0,0,0-.36-9.39s-4.48,4.3-4.5-1.7S216.9,53.29,207,49.88s-22.25,23.78-25.79,17.58C181.23,67.46,179.9,79.37,186.88,77.68Z"/><path class="cls-6" d="M179.18,60.84s2.3,2.95,5.47,2.4,9.38-14.3,9.64-14.87a6.39,6.39,0,0,0-1.87,2.12C191.34,53.14,182.79,61.2,179.18,60.84Z"/><path class="cls-6" d="M198.87,108.25l1.95,3.13,3.87,4.36s8.68,13.45,9.81,14.43,4.95,1.59,4.95,1.59,9.1,1.76,12.5,2.69,8.75-.27,12.75-.67,14.15-2,16.45-2.93a29.11,29.11,0,0,0,5.08-3.12s7.95-9.72,8.14-12,.36-10.15.36-10.15c-2.61-1-9.51,1.68-11.92,2.53s-12.51,2.52-19.37-2.29S231.53,90.56,229,91s-3.61,1-3.25,4.36,3.73,8.88-6.14,17.54C215.91,110.43,202.24,108.28,198.87,108.25Z"/><path class="cls-6" d="M384.11,89.24c2,4,4.31,5.74,5.92,6.5h0l2,.58s8.4-1.25,5.44-9.63c0,0-5.42,6.57-8.55,1.8S386.63,78.39,391,75.06C385.32,77.1,381.07,83.17,384.11,89.24Z"/><path class="cls-6" d="M402.05,95.4c6.8-3.78,9.06-3.46,10.68-2-.57-3.16-6.32-4.72-7.44-3.12a15.72,15.72,0,0,0-1.74-8.93C403.65,81.91,405.05,89.15,402.05,95.4Z"/><path class="cls-6" d="M399.15,117.63c-.72-3,2-9.38,4.57-10.59,0,2.92,1,6.19,2.87,7.26-.13-.38-3.09-8.81-.69-11.86-4.78,2.67-10.13,10.19-10.56,15.4a12.36,12.36,0,0,1,5.52,3.4A12.68,12.68,0,0,0,399.15,117.63Z"/><path class="cls-6" d="M387.72,122.2c.36-7.4-5.35-13.51-5.69-13.87,2.05.86,4.83,4.64,6.29,9.42,4.83-4.39,2.84-8.48.91-12.73C395.46,113.28,390.75,117.36,387.72,122.2Z"/><path class="cls-6" d="M316.12,97.3a38.19,38.19,0,0,0,2.4,5.14L330.84,106l5.62,2.12,7.52,4.86,7.41,9.43,10.11,3.8h2.27s6-2.2,9.71-3.52c-.56,1.84-.94,3.13-.94,3.13s8,1.45,7.13,0-2.68-9.88-1.87-15.16a4.69,4.69,0,0,0-.79,2.32c-3.25,0-21.78-3-26.6-4.45s-15.88-4.64-16.84-13.09,2.28-22.65,7.1-26.86,20.21-14.08,32.61,2.77c3.13-4.34-.24-7.83-1.69-8.79s-5.17-5.17-6-6.26-10.47-6.13-16.73-1.44-8.66,7.46-9.15,9.63-3.73,5-5.05,5S328,67.21,325.75,74,319.73,97.54,316.12,97.3Z"/><path class="cls-6" d="M383.2,139.71c-.11-.66-.18-1.05-.18-1.05A2.82,2.82,0,0,0,383.2,139.71Z"/><path class="cls-6" d="M367.25,153.78c5.7-.16,11.25-2.68,12.28-5,1.57-3.49,1-8,3.49-10.14a13.73,13.73,0,0,1,2.23-4.7c-5.31,1.7-6.91,7.11-7.54,9.77S378.44,152.14,367.25,153.78Z"/><path class="cls-6" d="M288.2,87.07a6.66,6.66,0,0,0,9.27-1.86s-5.35.59-4.52-3.93a11,11,0,0,1,9.43-8.9C295.36,71.28,285.39,79.12,288.2,87.07Z"/><path class="cls-6" d="M322,132.72a13.32,13.32,0,0,0,1.15.93c5,3.61,13,2.69,16,.84s13.87-3.85,20.47,4.14c-.48-.61-8.32-10.24-17.36-7.67C333,133.6,324.69,134.14,322,132.72Z"/><path class="cls-6" d="M277.62,139.35c1.33-.59,2.53-1,3.22-1.29,1.94-.71,3-3.11,2.86-11.71s1.58-25.61,7.68-26.72,14.89.74,19.42,6.47a43.55,43.55,0,0,1,4,5.92c-.86-1.7-8.07-15.24-18.64-15.24-11.28,0-12.69,7-12.86,11.8S282.55,136.6,277.62,139.35Z"/><path class="cls-6" d="M204.23,140.74c5.26,4.33,14.8,7,32.22,1.88,3.34,1.81,6.94,4,10.51,5.77,0,0-8.92-8.39-11.45-7.79S214.09,145.2,204.23,140.74Z"/><path class="cls-6" d="M144.64,148.93a8.74,8.74,0,0,0,4.46-.13c9.63-2.65,11.31-10.23,9.87-15.4,4.45-1.64,6.65,1.55,8.23.44s9.8-9.71,20.25-9.25c.83,3.15,8.5,4.26,10.26,4.26,0,0-8.83-2.67-9.05-6.15s-9.21-.9-12.29,1.12-8.14,8.24-10.84,7.94-8.47-.24-8.19,1.44S160.24,146.54,144.64,148.93Z"/><path class="cls-6" d="M125.27,133.76c6.5,5.05,10.59,4.9,10.59,4.9a21,21,0,0,0,3.52,6.72c-.49-1.85-1.27-5.51-.31-7.53-18.58.5-16.54-13.38-16.54-13.38v0C121.77,127.72,122.12,131.3,125.27,133.76Z"/><path class="cls-3" d="M375.28,122s-13.7-10.73-27.56-10.57c4.93,3.6,14.72,11.59,16,14.72a60.27,60.27,0,0,0,8.77-.39A36.28,36.28,0,0,1,375.28,122Z"/><path class="cls-12" d="M375.28,122s-13.7-10.73-27.56-10.57c4.93,3.6,14.72,11.59,16,14.72a60.27,60.27,0,0,0,8.77-.39A36.28,36.28,0,0,1,375.28,122Z"/><path class="cls-3" d="M361.5,126.17s-16.83-21.38-43-23.73c0,0,3,6.5,4.54,5.88s8.22-2.9,12.6.15,13.78,14.49,14,15.43A108.9,108.9,0,0,0,361.5,126.17Z"/><path class="cls-13" d="M361.5,126.17s-16.83-21.38-43-23.73c0,0,3,6.5,4.54,5.88s8.22-2.9,12.6.15,13.78,14.49,14,15.43A108.9,108.9,0,0,0,361.5,126.17Z"/><path class="cls-3" d="M273.91,107.27s1.59,11.66-1,14.18-7.72,8-7.64,6.38S267.36,109.7,273.91,107.27Z"/><path class="cls-14" d="M273.91,107.27s1.59,11.66-1,14.18-7.72,8-7.64,6.38S267.36,109.7,273.91,107.27Z"/><path class="cls-3" d="M266.69,110.87s-6,13.93-5.54,20c-5,2.68-15.77,3.27-16.44,2.93C244.71,133.78,254.36,115.66,266.69,110.87Z"/><path class="cls-15" d="M266.69,110.87s-6,13.93-5.54,20c-5,2.68-15.77,3.27-16.44,2.93C244.71,133.78,254.36,115.66,266.69,110.87Z"/><path class="cls-3" d="M252.59,116.66s-14.93-8.74-29.7-2.35c3.19.84,10.82,5.21,10.82,5.21s12.17-1.68,14.27-1.09C250.24,117.69,252.59,116.66,252.59,116.66Z"/><path class="cls-16" d="M252.59,116.66s-14.93-8.74-29.7-2.35c3.19.84,10.82,5.21,10.82,5.21s12.17-1.68,14.27-1.09C250.24,117.69,252.59,116.66,252.59,116.66Z"/><path class="cls-3" d="M244.71,120.69S232,128.83,232,134.45c-2.85-1.09-12.5-2.69-12.5-2.69S229.68,117.34,244.71,120.69Z"/><path class="cls-17" d="M244.71,120.69S232,128.83,232,134.45c-2.85-1.09-12.5-2.69-12.5-2.69S229.68,117.34,244.71,120.69Z"/><path class="cls-3" d="M230.36,120.19s-14.35,2.94-15.86,10c-4.62-3.44-13.68-18.79-13.68-18.79S225.15,115.48,230.36,120.19Z"/><path class="cls-18" d="M230.36,120.19s-14.35,2.94-15.86,10c-4.62-3.44-13.68-18.79-13.68-18.79S225.15,115.48,230.36,120.19Z"/><path class="cls-3" d="M158.32,115.75s-1.53,7.68-2.73,9.31-8.85,10.71-10.48,7.43-1.75-6.65,0-8S152.75,115.49,158.32,115.75Z"/><path class="cls-19" d="M158.32,115.75s-1.53,7.68-2.73,9.31-8.85,10.71-10.48,7.43-1.75-6.65,0-8S152.75,115.49,158.32,115.75Z"/><path class="cls-6" d="M375.28,122s-13.7-10.73-27.56-10.57c4.93,3.6,14.72,11.59,16,14.72a60.27,60.27,0,0,0,8.77-.39A36.28,36.28,0,0,1,375.28,122Z"/><path class="cls-6" d="M361.5,126.17s-16.83-21.38-43-23.73c0,0,3,6.5,4.54,5.88s8.22-2.9,12.6.15,13.78,14.49,14,15.43A108.9,108.9,0,0,0,361.5,126.17Z"/><path class="cls-6" d="M273.91,107.27s1.59,11.66-1,14.18-7.72,8-7.64,6.38S267.36,109.7,273.91,107.27Z"/><path class="cls-6" d="M266.69,110.87s-6,13.93-5.54,20c-5,2.68-15.77,3.27-16.44,2.93C244.71,133.78,254.36,115.66,266.69,110.87Z"/><path class="cls-6" d="M252.59,116.66s-14.93-8.74-29.7-2.35c3.19.84,10.82,5.21,10.82,5.21s12.17-1.68,14.27-1.09C250.24,117.69,252.59,116.66,252.59,116.66Z"/><path class="cls-6" d="M244.71,120.69S232,128.83,232,134.45c-2.85-1.09-12.5-2.69-12.5-2.69S229.68,117.34,244.71,120.69Z"/><path class="cls-6" d="M230.36,120.19s-14.35,2.94-15.86,10c-4.62-3.44-13.68-18.79-13.68-18.79S225.15,115.48,230.36,120.19Z"/><path class="cls-6" d="M158.32,115.75s-1.53,7.68-2.73,9.31-8.85,10.71-10.48,7.43-1.75-6.65,0-8S152.75,115.49,158.32,115.75Z"/><path class="cls-20" d="M289.19,88.22s-8-2.67-10.11,1.42-4.93,14-3.45,15.93,3.95.12,4.32-5.67S282.17,87.64,289.19,88.22Z"/><path class="cls-21" d="M314.78,95.4s-7.25-23.9-13.26-21.64-6.94,7.43-5.32,6.49S304.49,75.12,314.78,95.4Z"/><path class="cls-22" d="M276,138.66a12.89,12.89,0,0,0-6.14,4.8c-2.18,3.47-8.68,10.33-19,5.75-8.62-5.75-10.6-8.64-10.6-8.64s15.36,8.14,18.53,5.47S270.42,138.22,276,138.66Z"/><path class="cls-23" d="M277.62,122.37s-.17,6-4.64,7.8S277.62,122.37,277.62,122.37Z"/><path class="cls-24" d="M194.76,104.71s-6.86-6.43-10.34-4.22-5.8,5.28-7.38,4.86-13-1.29-16.46,7.17-3.35,13.6-6.43,15.59c0,0,6.22-4.72,8.75-11.16s6.86-9.6,12.24-9,8.12-3.48,10.55-4.22S194.76,104.71,194.76,104.71Z"/><path class="cls-25" d="M204.23,124.47s-10.15-2.1-11.52-7.69-5,.31-2.42,3.41S200.17,128.08,204.23,124.47Z"/><path class="cls-26" d="M234.66,137.26s-18.76-6-17-2.81S233.26,137.66,234.66,137.26Z"/><path class="cls-27" d="M156.67,135.48s-3.09,13.44-11.31,12.18-3.73-5.83-1.52-5.48S154.74,138.9,156.67,135.48Z"/><path class="cls-28" d="M143,122.37a7.94,7.94,0,0,0-7.2-6.63c-6.4-.64-14.28,5.64-10.17,15.47,2.75-8.84,7.32-11.19,9.37-10.22S142.73,126.44,143,122.37Z"/><path class="cls-29" d="M347.93,123.57s-9.45-14.85-15-14.37-9.37,2.45-10.86.68-5.92-8.41-5.92-8.41,3.66,10.81,5.92,11.44,12.76.4,15.3,3.41S347.93,123.57,347.93,123.57Z"/><path class="cls-30" d="M364,136.51s-8.39,7.23-6.2,10.84,12.39,6.06,16.9,2.06-11.25-.36-12.32-4A11.1,11.1,0,0,1,364,136.51Z"/><path class="cls-31" d="M398.92,130.39s-10.28,6.78-9.75,1.37-4.94,2.47-3.34,5.41S395.58,137,398.92,130.39Z"/><path class="cls-32" d="M382,109.88s-2.35,11.26,0,15.13C379.16,121.24,377,110.23,382,109.88Z"/><path class="cls-33" d="M403.83,83.37s-6.9-10.29-11.6-7-2.88,7-1.62,6S401.29,80.28,403.83,83.37Z"/><path class="cls-34" d="M397.52,96.33s-5.43,4.4-4.61,8-5-.81-2.88-4S397.52,96.33,397.52,96.33Z"/><path class="cls-35" d="M332,72.81c-.43-2.11-3.25-3.91-4.07,0s-6.45,22.53-8.09,24.53c3.18-3.81,5.27-9.94,6.54-14s2.28-2,2.28,0S332.91,77.17,332,72.81Z"/><path class="cls-36" d="M240.2,107.27c-3.12-2.76-9-13-10.45-13.77s-3.9-2-3.1,1.9.53,10.14-1.05,12.78,4.79-2.29,4.76-5.28S240.2,107.27,240.2,107.27Z"/><path class="cls-37" d="M247.37,120.19s-14.29,11.28-12,11.57,5.66-1.77,8.82-6.67,3.15-4.31,3.15-4.31Z"/><path class="cls-38" d="M224.56,68.08s-.54,3.77-1.67,2.42-5.45-21-14.58-23C211.35,46.8,217.86,49.47,224.56,68.08Z"/><path class="cls-39" d="M143,108.93s-3.56-12.64-9.25-11-6.52,2.94-4.87,4.5S137.24,99.15,143,108.93Z"/></g></g></g></svg>