<svg xmlns="http://www.w3.org/2000/svg" xmlns:xlink="http://www.w3.org/1999/xlink" viewBox="0 0 512.37 197.72"><defs><style>.cls-1{isolation:isolate;}.cls-2{fill:none;}.cls-3{fill:#d9f7ff;}.cls-15,.cls-19,.cls-21,.cls-23,.cls-24,.cls-4,.cls-9{mix-blend-mode:color-burn;}.cls-5{fill:url(#radial-gradient);}.cls-10,.cls-11,.cls-12,.cls-13,.cls-14,.cls-16,.cls-17,.cls-18,.cls-20,.cls-22,.cls-6,.cls-8{opacity:0.1;mix-blend-mode:multiply;}.cls-7{fill:url(#linear-gradient);}.cls-8{fill:url(#linear-gradient-2);}.cls-9{fill:url(#radial-gradient-2);}.cls-10{fill:url(#linear-gradient-3);}.cls-11{fill:url(#linear-gradient-4);}.cls-12{fill:url(#linear-gradient-5);}.cls-13{fill:url(#linear-gradient-6);}.cls-14{fill:url(#linear-gradient-7);}.cls-15{fill:url(#radial-gradient-3);}.cls-16{fill:url(#linear-gradient-8);}.cls-17{fill:url(#linear-gradient-9);}.cls-18{fill:url(#linear-gradient-10);}.cls-19{fill:url(#radial-gradient-4);}.cls-20{fill:url(#linear-gradient-11);}.cls-21{fill:url(#radial-gradient-5);}.cls-22{fill:url(#linear-gradient-12);}.cls-23{fill:#0071bc;}.cls-23,.cls-24{opacity:0.2;}.cls-25{fill:#476b82;}.cls-26,.cls-27,.cls-28,.cls-29,.cls-30,.cls-31,.cls-32,.cls-33,.cls-34,.cls-35,.cls-36,.cls-37,.cls-38,.cls-39,.cls-40,.cls-41,.cls-42,.cls-43,.cls-44,.cls-45,.cls-46,.cls-47,.cls-48,.cls-49,.cls-50,.cls-51,.cls-52{opacity:0.8;mix-blend-mode:color-dodge;}.cls-26{fill:url(#linear-gradient-13);}.cls-27{fill:url(#linear-gradient-14);}.cls-28{fill:url(#linear-gradient-15);}.cls-29{fill:url(#linear-gradient-16);}.cls-30{fill:url(#linear-gradient-17);}.cls-31{fill:url(#linear-gradient-18);}.cls-32{fill:url(#linear-gradient-19);}.cls-33{fill:url(#linear-gradient-20);}.cls-34{fill:url(#linear-gradient-21);}.cls-35{fill:url(#linear-gradient-22);}.cls-36{fill:url(#linear-gradient-23);}.cls-37{fill:url(#linear-gradient-24);}.cls-38{fill:url(#linear-gradient-25);}.cls-39{fill:url(#linear-gradient-26);}.cls-40{fill:url(#linear-gradient-27);}.cls-41{fill:url(#linear-gradient-28);}.cls-42{fill:url(#linear-gradient-29);}.cls-43{fill:url(#linear-gradient-30);}.cls-44{fill:url(#linear-gradient-31);}.cls-45{fill:url(#linear-gradient-32);}.cls-46{fill:url(#linear-gradient-33);}.cls-47{fill:url(#linear-gradient-34);}.cls-48{fill:url(#linear-gradient-35);}.cls-49{fill:url(#linear-gradient-36);}.cls-50{fill:url(#linear-gradient-37);}.cls-51{fill:url(#linear-gradient-38);}.cls-52{fill:url(#linear-gradient-39);}</style><radialGradient id="radial-gradient" cx="1489.04" cy="102.09" r="170.05" gradientTransform="matrix(-1, 0, 0, 1, 1748.94, 0)" gradientUnits="userSpaceOnUse"><stop offset="0" stop-color="#1b1464"/><stop offset="0.07" stop-color="#453f81"/><stop offset="0.15" stop-color="#706c9e"/><stop offset="0.23" stop-color="#9793b8"/><stop offset="0.32" stop-color="#b7b5ce"/><stop offset="0.42" stop-color="#d1d0e0"/><stop offset="0.53" stop-color="#e6e5ee"/><stop offset="0.64" stop-color="#f4f4f8"/><stop offset="0.78" stop-color="#fcfcfd"/><stop offset="1" stop-color="#fff"/></radialGradient><linearGradient id="linear-gradient" x1="1493.76" y1="172.18" x2="1493.76" y2="115.56" gradientTransform="matrix(-1, 0, 0, 1, 1748.94, 0)" xlink:href="#radial-gradient"/><linearGradient id="linear-gradient-2" x1="1394" y1="99.77" x2="1394" y2="75.43" gradientTransform="matrix(-1, 0, 0, 1, 1748.94, 0)" xlink:href="#radial-gradient"/><radialGradient id="radial-gradient-2" cx="1413.28" cy="79.88" r="3.65" gradientTransform="matrix(-1, 0, 0, 1, 1748.94, 0)" gradientUnits="userSpaceOnUse"><stop offset="0" stop-color="#fff"/><stop offset="0.22" stop-color="#fcfcfd"/><stop offset="0.36" stop-color="#f4f4f8"/><stop offset="0.47" stop-color="#e6e5ee"/><stop offset="0.58" stop-color="#d1d0e0"/><stop offset="0.68" stop-color="#b7b5ce"/><stop offset="0.77" stop-color="#9793b8"/><stop offset="0.85" stop-color="#706c9e"/><stop offset="0.93" stop-color="#453f81"/><stop offset="1" stop-color="#1b1464"/></radialGradient><linearGradient id="linear-gradient-3" x1="1413.27" y1="83.36" x2="1413.27" y2="78.54" gradientTransform="matrix(-1, 0, 0, 1, 1748.94, 0)" xlink:href="#radial-gradient"/><linearGradient id="linear-gradient-4" x1="1404.38" y1="128.41" x2="1404.38" y2="105.06" gradientTransform="matrix(-1, 0, 0, 1, 1748.94, 0)" xlink:href="#radial-gradient"/><linearGradient id="linear-gradient-5" x1="1484.86" y1="103.94" x2="1484.86" y2="93.3" gradientTransform="matrix(-1, 0, 0, 1, 1748.94, 0)" xlink:href="#radial-gradient"/><linearGradient id="linear-gradient-6" x1="1484.06" y1="113.95" x2="1484.06" y2="108.92" gradientTransform="matrix(-1, 0, 0, 1, 1748.94, 0)" xlink:href="#radial-gradient"/><linearGradient id="linear-gradient-7" x1="1541.57" y1="131.04" x2="1541.57" y2="66.51" gradientTransform="matrix(-1, 0, 0, 1, 1748.94, 0)" xlink:href="#radial-gradient"/><radialGradient id="radial-gradient-3" cx="1557.38" cy="127.8" r="4.68" xlink:href="#radial-gradient-2"/><linearGradient id="linear-gradient-8" x1="1557.35" y1="132.01" x2="1557.35" y2="126.19" gradientTransform="matrix(-1, 0, 0, 1, 1748.94, 0)" xlink:href="#radial-gradient"/><linearGradient id="linear-gradient-9" x1="1566.64" y1="100.87" x2="1566.64" y2="85.29" gradientTransform="matrix(-1, 0, 0, 1, 1748.94, 0)" xlink:href="#radial-gradient"/><linearGradient id="linear-gradient-10" x1="1584.02" y1="116.94" x2="1584.02" y2="83.23" gradientTransform="matrix(-1, 0, 0, 1, 1748.94, 0)" xlink:href="#radial-gradient"/><radialGradient id="radial-gradient-4" cx="1603.9" cy="138.4" r="3.78" xlink:href="#radial-gradient-2"/><linearGradient id="linear-gradient-11" x1="1603.88" y1="141.79" x2="1603.88" y2="137.09" gradientTransform="matrix(-1, 0, 0, 1, 1748.94, 0)" xlink:href="#radial-gradient"/><radialGradient id="radial-gradient-5" cx="1610.2" cy="133.06" r="2.95" xlink:href="#radial-gradient-2"/><linearGradient id="linear-gradient-12" x1="1610.17" y1="134.57" x2="1610.17" y2="132.48" gradientTransform="matrix(-1, 0, 0, 1, 1748.94, 0)" xlink:href="#radial-gradient"/><linearGradient id="linear-gradient-13" x1="1487.92" y1="141.15" x2="1494.81" y2="134.97" gradientTransform="matrix(-1, 0, 0, 1, 1748.94, 0)" gradientUnits="userSpaceOnUse"><stop offset="0"/><stop offset="1" stop-color="#fff"/></linearGradient><linearGradient id="linear-gradient-14" x1="1466.89" y1="147.27" x2="1479.06" y2="136.36" xlink:href="#linear-gradient-13"/><linearGradient id="linear-gradient-15" x1="1459.96" y1="152.66" x2="1463.75" y2="149.26" xlink:href="#linear-gradient-13"/><linearGradient id="linear-gradient-16" x1="1457.82" y1="129.92" x2="1462.05" y2="126.13" xlink:href="#linear-gradient-13"/><linearGradient id="linear-gradient-17" x1="1420.65" y1="167.07" x2="1433.78" y2="155.3" xlink:href="#linear-gradient-13"/><linearGradient id="linear-gradient-18" x1="1510.04" y1="171.07" x2="1523.37" y2="159.13" xlink:href="#linear-gradient-13"/><linearGradient id="linear-gradient-19" x1="1516.68" y1="162.02" x2="1528.12" y2="151.77" xlink:href="#linear-gradient-13"/><linearGradient id="linear-gradient-20" x1="1345.47" y1="128.22" x2="1353.35" y2="121.16" xlink:href="#linear-gradient-13"/><linearGradient id="linear-gradient-21" x1="1357.73" y1="156.08" x2="1366.27" y2="148.43" xlink:href="#linear-gradient-13"/><linearGradient id="linear-gradient-22" x1="1337.18" y1="163.94" x2="1346.65" y2="155.44" xlink:href="#linear-gradient-13"/><linearGradient id="linear-gradient-23" x1="1389.07" y1="139.84" x2="1397.8" y2="132.01" xlink:href="#linear-gradient-13"/><linearGradient id="linear-gradient-24" x1="1395.49" y1="85.8" x2="1400.14" y2="81.63" xlink:href="#linear-gradient-13"/><linearGradient id="linear-gradient-25" x1="1388.88" y1="90.35" x2="1392.08" y2="87.48" xlink:href="#linear-gradient-13"/><linearGradient id="linear-gradient-26" x1="1403.88" y1="111.69" x2="1407.24" y2="108.68" xlink:href="#linear-gradient-13"/><linearGradient id="linear-gradient-27" x1="1572.42" y1="131.35" x2="1581.86" y2="122.9" xlink:href="#linear-gradient-13"/><linearGradient id="linear-gradient-28" x1="1588.93" y1="146.05" x2="1594.62" y2="140.95" xlink:href="#linear-gradient-13"/><linearGradient id="linear-gradient-29" x1="1570.63" y1="163.06" x2="1578.44" y2="156.07" xlink:href="#linear-gradient-13"/><linearGradient id="linear-gradient-30" x1="1626.31" y1="159.95" x2="1634.23" y2="152.85" xlink:href="#linear-gradient-13"/><linearGradient id="linear-gradient-31" x1="1649.46" y1="155.11" x2="1653.36" y2="151.62" xlink:href="#linear-gradient-13"/><linearGradient id="linear-gradient-32" x1="1636.11" y1="167.58" x2="1646.29" y2="158.45" xlink:href="#linear-gradient-13"/><linearGradient id="linear-gradient-33" x1="1618" y1="166.8" x2="1624.69" y2="160.81" xlink:href="#linear-gradient-13"/><linearGradient id="linear-gradient-34" x1="1630.49" y1="128.52" x2="1640.93" y2="119.17" xlink:href="#linear-gradient-13"/><linearGradient id="linear-gradient-35" x1="1613.61" y1="154.74" x2="1617.39" y2="151.35" xlink:href="#linear-gradient-13"/><linearGradient id="linear-gradient-36" x1="1545.15" y1="80.53" x2="1552.98" y2="73.5" xlink:href="#linear-gradient-13"/><linearGradient id="linear-gradient-37" x1="1531.08" y1="84.49" x2="1544.14" y2="72.78" xlink:href="#linear-gradient-13"/><linearGradient id="linear-gradient-38" x1="1561.49" y1="97.12" x2="1570.59" y2="88.97" xlink:href="#linear-gradient-13"/><linearGradient id="linear-gradient-39" x1="1584.52" y1="90.45" x2="1586.86" y2="88.35" xlink:href="#linear-gradient-13"/></defs><g class="cls-1"><g id="Layer_2" data-name="Layer 2"><g id="bg"><rect class="cls-2" width="512.37" height="197.72" transform="translate(512.37 197.72) rotate(180)"/></g><g id="_9" data-name="9"><path class="cls-3" d="M96.79,167.73c1.78,0,74.15.89,74.15.89s26.21-.89,26.84,1.65,6.62,1.65,10.56,1.87,45.16-.47,51.64-.09,26.59-.63,30-1.14,22.9-1.66,37.4-1.53,28.11-.76,35.49-2.42,25.05-2,40.83-2.41c9.24-.22,12.89-2.06,14.45-4.08a9,9,0,0,0,1.45-4.06c.46-1.93-2.48-7.34-4.57-10.41a9.71,9.71,0,0,0-1.79-2.19,2.68,2.68,0,0,1-1.08-3.56,6.7,6.7,0,0,0-.25-4.4,4.31,4.31,0,0,0-1.73-2.4,9.39,9.39,0,0,0,1.78-4.14h0c1.13-6.13-2.55-14.13-11.06-13.72-4.06.19-6.13,2.62-7.15,5.55l-.06.17a21.86,21.86,0,0,0-.77,7.87c0,.14,0,.28,0,.42.11,1.33.26,2.26.3,2.47a.09.09,0,0,1,0,.05c-9.67,1.53-2.42,9.16-2.42,9.16l-.68,0a6.25,6.25,0,0,0-5.07,1.73h0c-2.71,2.88-1.5,8.35-1.5,8.35a7.2,7.2,0,0,1-2.54,0c-2.93-5-8.53-3.82-11.45-2.16s-12.09-1.4-12.09-1.4,1.53-3.44,3.18-8.27-.38-15.39-8.14-10.81-1.9,11.95,1.4,14.12c-.76,3.43-6.1,5.21-8.27,5.34.77-1.91-1.65-4.45-3.94-4.27s-1.78,3-3.69,1.72-4.07,2-5.21,1.66-2,.63-3.56.76a2.8,2.8,0,0,0-2.17,1.53H317s-2.55-3.69-4.58-4.33c.25-1.4-1.27-8.52-2.29-10.05l0,0c-.35-.45-.87-.08-1.4.61h0a22.6,22.6,0,0,0-2.11,3.89l-2.42-.51c.64-1.4.38-6.87-2.8-7.25l.06-.44a.82.82,0,0,1,0-.1q0-.09,0-.27a14.26,14.26,0,0,0-2.32-9.1v0a11.92,11.92,0,0,0-4.51-4.32c-2.67-1.14-3.05,2.93-3.05,2.93a4,4,0,0,0-2.42,1.14c-3.18-.76-5.21,3.56-4.45,9s6.74,5.47,9.28,1.78a20.56,20.56,0,0,0,2.42,8,11.77,11.77,0,0,1-3.31.25c-.63-.25-.76,2.16-2,3.94a3.47,3.47,0,0,0-1.19-.83,5.76,5.76,0,0,0-5.43,1v0c-.68.62-6-11.09-6.47-10.83s-4.2.76-5.09-.76-2.8-8.65-4.2-8.27-1.27-1.15-4.2-2.8-5.08,7.63-6.36,9.54-1.27.51-2.89-.25-2.57,3.05-2.57,4.32-1.79,1-3.18.25-6.11,5.35-7.76,5.86-7.13-7-7.76-8.15-5.85,5.86-6.87,6.87-3.18-4.32-4.07-5.59-1.66,5.85-3.05,6.87-1.15,5.47-1.15,5.47-8.9-.9-11.19-1.4-7-6.62-12.47-6.62-3.69,6.49-6.74,5.73-4.07,1.39-6,3.68-15.14-2.92-15.14-2.92a34,34,0,0,1,2-5.29h0c.37-.79.79-1.66,1.28-2.59,3.05,1,5.73-.76,6.87-6.74a13.34,13.34,0,0,0,.15-4.25v0c-.56-4-3.24-7.06-7.91-7.16-6.23-.12-7.25,8.65-6.61,16.54-2.67-1.3-4.63-1.42-6.07-.9-3.91,1.4-4,7.51-4,7.51s-.5,4.94,1.81,6.66a.39.39,0,0,0,.1.08c-1.4,1.53-8.53,1.91-15.39,1.79-1-3.95-6.49-3.95-7.89-2.29s-1.65,4.16-6.4,5.44l-.09,0c-1.78-4-4.57-5.31-7-5.32a6.22,6.22,0,0,0-4.68,1.88c-1.65-3.18-1.91-11.07-.76-14,5.65.28,6.51-1,7-4,.18-1.13.32-2.5.63-4.13,1.14-6-3.18-10.69-5.85-9.92-1.66-3.69-7.89-3.44-10.18,4.32s3.44,15.27,3.44,15.27-1.21,4.84-2,8.79l-.07.36c-2-2.18-5.4-2-8.36-.38h0A11.83,11.83,0,0,0,93,151.57c-2.93,4.71,2.54,11.2,2.54,11.2a8.83,8.83,0,0,0-4.45,2.29C89.15,167,95,167.73,96.79,167.73Zm238.88-9.17s27.5-7,35.86-6.07c0,0,8.75.12,11.2,2.22,1,.86,1.52,1.49,1.52,2a.37.37,0,0,1,0,.11s0,.06,0,.08c-.17.68-1.24,1.23-3.25,2-3.73,1.4-17.73,3.61-22.28,3.61s-11.95-.81-13.38-.93-6.57-.12-6.57-.12Zm-18.14-5.23c1.11-1.83,10.72-1.65,14.64-1.31.17-.42,4.08-.93,9.19-1s11.31.26,11.57,1.4-20.17,3.28-20.17,3.28a3.37,3.37,0,0,0-1.69-1.35h0c-3.53-1.36-10,1.26-10,2-.09.94,0,1.79-2.13,3.15C317.62,157.89,316.42,155.17,317.53,153.33Zm-103.21-1.48c-1.62.6-4.51,4.43-4.51,4.43-.43-.94-15.41-4.09-23.23-5.53,4.08-1.79,23.74-.94,25.95-.94S215.93,151.26,214.32,151.85Zm-20.82,9.36h17.41a1.23,1.23,0,0,1-.85,1.62c-1.27.42-.34,1.53.43,1.53s7.23.85,7.14,1.53-9,1.36-10.27.51a7.27,7.27,0,0,0-4.11-1.19c-1.44,0-4.33.17-4.59-.34a7,7,0,0,0-3.15-1.62C194.92,163.25,193.5,161.21,193.5,161.21Zm-20.79,0c.25.09,3.23,0,3.23,0s0,2.3-.76,2.13S172.71,161.21,172.71,161.21Zm-5.79-7.15s13.28-.42,17.27-.34,20.43,2.22,22.72,3.07,1.19,2.63,1.19,2.63-13.7-.59-17.18-1c0-.85-1.88-2.8-3.66-2.12-2-2.47-4.77-.94-5.87.93-3.75-.59-4.94,1.45-4.94,1.45a36.06,36.06,0,0,0-6.55-.09,24.89,24.89,0,0,1-3-4.5Zm-17,8.22c-.31-1,7-.73,7-.73v0c.19,1.48-2.58,1.74-4.34,1.75a4,4,0,0,1-2.2-.32A1.34,1.34,0,0,1,149.94,162.28Zm-4.38-4.13c-.51-1-7.91-1-7.48-1.58s6.55-.89,9.87-.29,5.44.08,5.61-.6,3.44-.59,4.1-.51.58-1.64,1.86-1.46a8.14,8.14,0,0,0,2.3,0s0,.16,0,.41h0c-.07,1.48-.4,6.36-1.74,6.24h0c-1.62-.25-1.79-1.87-2.81-2S146.07,159.17,145.56,158.15Zm-15,3.36h0a2.23,2.23,0,0,1,.45-.71c.94-1.11,15.59.42,15.59.42.71,1-.37,1.61-1.06,2.2a1.39,1.39,0,0,0-.49.6c-.26.83-3.49.69-5.44.86s-1.36-1-1.55-1.19-1.52.25-2.54-.33a6.34,6.34,0,0,0-3.32-.91C130.94,162.34,130.39,162.09,130.56,161.51Z"/><g class="cls-4"><path class="cls-5" d="M96.79,167.73c1.78,0,74.15.89,74.15.89s26.21-.89,26.84,1.65,6.62,1.65,10.56,1.87,45.16-.47,51.64-.09,26.59-.63,30-1.14,22.9-1.66,37.4-1.53,28.11-.76,35.49-2.42,25.05-2,40.83-2.41c9.24-.22,12.89-2.06,14.45-4.08a9,9,0,0,0,1.45-4.06c.46-1.93-2.48-7.34-4.57-10.41a9.71,9.71,0,0,0-1.79-2.19,2.68,2.68,0,0,1-1.08-3.56,6.7,6.7,0,0,0-.25-4.4,4.31,4.31,0,0,0-1.73-2.4,9.39,9.39,0,0,0,1.78-4.14h0c1.13-6.13-2.55-14.13-11.06-13.72-4.06.19-6.13,2.62-7.15,5.55l-.06.17a21.86,21.86,0,0,0-.77,7.87c0,.14,0,.28,0,.42.11,1.33.26,2.26.3,2.47a.09.09,0,0,1,0,.05c-9.67,1.53-2.42,9.16-2.42,9.16l-.68,0a6.25,6.25,0,0,0-5.07,1.73h0c-2.71,2.88-1.5,8.35-1.5,8.35a7.2,7.2,0,0,1-2.54,0c-2.93-5-8.53-3.82-11.45-2.16s-12.09-1.4-12.09-1.4,1.53-3.44,3.18-8.27-.38-15.39-8.14-10.81-1.9,11.95,1.4,14.12c-.76,3.43-6.1,5.21-8.27,5.34.77-1.91-1.65-4.45-3.94-4.27s-1.78,3-3.69,1.72-4.07,2-5.21,1.66-2,.63-3.56.76a2.8,2.8,0,0,0-2.17,1.53H317s-2.55-3.69-4.58-4.33c.25-1.4-1.27-8.52-2.29-10.05l0,0c-.35-.45-.87-.08-1.4.61h0a22.6,22.6,0,0,0-2.11,3.89l-2.42-.51c.64-1.4.38-6.87-2.8-7.25l.06-.44a.82.82,0,0,1,0-.1q0-.09,0-.27a14.26,14.26,0,0,0-2.32-9.1v0a11.92,11.92,0,0,0-4.51-4.32c-2.67-1.14-3.05,2.93-3.05,2.93a4,4,0,0,0-2.42,1.14c-3.18-.76-5.21,3.56-4.45,9s6.74,5.47,9.28,1.78a20.56,20.56,0,0,0,2.42,8,11.77,11.77,0,0,1-3.31.25c-.63-.25-.76,2.16-2,3.94a3.47,3.47,0,0,0-1.19-.83,5.76,5.76,0,0,0-5.43,1v0c-.68.62-6-11.09-6.47-10.83s-4.2.76-5.09-.76-2.8-8.65-4.2-8.27-1.27-1.15-4.2-2.8-5.08,7.63-6.36,9.54-1.27.51-2.89-.25-2.57,3.05-2.57,4.32-1.79,1-3.18.25-6.11,5.35-7.76,5.86-7.13-7-7.76-8.15-5.85,5.86-6.87,6.87-3.18-4.32-4.07-5.59-1.66,5.85-3.05,6.87-1.15,5.47-1.15,5.47-8.9-.9-11.19-1.4-7-6.62-12.47-6.62-3.69,6.49-6.74,5.73-4.07,1.39-6,3.68-15.14-2.92-15.14-2.92a34,34,0,0,1,2-5.29h0c.37-.79.79-1.66,1.28-2.59,3.05,1,5.73-.76,6.87-6.74a13.34,13.34,0,0,0,.15-4.25v0c-.56-4-3.24-7.06-7.91-7.16-6.23-.12-7.25,8.65-6.61,16.54-2.67-1.3-4.63-1.42-6.07-.9-3.91,1.4-4,7.51-4,7.51s-.5,4.94,1.81,6.66a.39.39,0,0,0,.1.08c-1.4,1.53-8.53,1.91-15.39,1.79-1-3.95-6.49-3.95-7.89-2.29s-1.65,4.16-6.4,5.44l-.09,0c-1.78-4-4.57-5.31-7-5.32a6.22,6.22,0,0,0-4.68,1.88c-1.65-3.18-1.91-11.07-.76-14,5.65.28,6.51-1,7-4,.18-1.13.32-2.5.63-4.13,1.14-6-3.18-10.69-5.85-9.92-1.66-3.69-7.89-3.44-10.18,4.32s3.44,15.27,3.44,15.27-1.21,4.84-2,8.79l-.07.36c-2-2.18-5.4-2-8.36-.38h0A11.83,11.83,0,0,0,93,151.57c-2.93,4.71,2.54,11.2,2.54,11.2a8.83,8.83,0,0,0-4.45,2.29C89.15,167,95,167.73,96.79,167.73Zm238.88-9.17s27.5-7,35.86-6.07c0,0,8.75.12,11.2,2.22,1,.86,1.52,1.49,1.52,2a.37.37,0,0,1,0,.11s0,.06,0,.08c-.17.68-1.24,1.23-3.25,2-3.73,1.4-17.73,3.61-22.28,3.61s-11.95-.81-13.38-.93-6.57-.12-6.57-.12Zm-18.14-5.23c1.11-1.83,10.72-1.65,14.64-1.31.17-.42,4.08-.93,9.19-1s11.31.26,11.57,1.4-20.17,3.28-20.17,3.28a3.37,3.37,0,0,0-1.69-1.35h0c-3.53-1.36-10,1.26-10,2-.09.94,0,1.79-2.13,3.15C317.62,157.89,316.42,155.17,317.53,153.33Zm-103.21-1.48c-1.62.6-4.51,4.43-4.51,4.43-.43-.94-15.41-4.09-23.23-5.53,4.08-1.79,23.74-.94,25.95-.94S215.93,151.26,214.32,151.85Zm-20.82,9.36h17.41a1.23,1.23,0,0,1-.85,1.62c-1.27.42-.34,1.53.43,1.53s7.23.85,7.14,1.53-9,1.36-10.27.51a7.27,7.27,0,0,0-4.11-1.19c-1.44,0-4.33.17-4.59-.34a7,7,0,0,0-3.15-1.62C194.92,163.25,193.5,161.21,193.5,161.21Zm-20.79,0c.25.09,3.23,0,3.23,0s0,2.3-.76,2.13S172.71,161.21,172.71,161.21Zm-5.79-7.15s13.28-.42,17.27-.34,20.43,2.22,22.72,3.07,1.19,2.63,1.19,2.63-13.7-.59-17.18-1c0-.85-1.88-2.8-3.66-2.12-2-2.47-4.77-.94-5.87.93-3.75-.59-4.94,1.45-4.94,1.45a36.06,36.06,0,0,0-6.55-.09,24.89,24.89,0,0,1-3-4.5Zm-17,8.22c-.31-1,7-.73,7-.73v0c.19,1.48-2.58,1.74-4.34,1.75a4,4,0,0,1-2.2-.32A1.34,1.34,0,0,1,149.94,162.28Zm-4.38-4.13c-.51-1-7.91-1-7.48-1.58s6.55-.89,9.87-.29,5.44.08,5.61-.6,3.44-.59,4.1-.51.58-1.64,1.86-1.46a8.14,8.14,0,0,0,2.3,0s0,.16,0,.41h0c-.07,1.48-.4,6.36-1.74,6.24h0c-1.62-.25-1.79-1.87-2.81-2S146.07,159.17,145.56,158.15Zm-15,3.36h0a2.23,2.23,0,0,1,.45-.71c.94-1.11,15.59.42,15.59.42.71,1-.37,1.61-1.06,2.2a1.39,1.39,0,0,0-.49.6c-.26.83-3.49.69-5.44.86s-1.36-1-1.55-1.19-1.52.25-2.54-.33a6.34,6.34,0,0,0-3.32-.91C130.94,162.34,130.39,162.09,130.56,161.51Z"/></g><g class="cls-6"><path class="cls-7" d="M96.79,167.73c1.78,0,74.15.89,74.15.89s26.21-.89,26.84,1.65,6.62,1.65,10.56,1.87,45.16-.47,51.64-.09,26.59-.63,30-1.14,22.9-1.66,37.4-1.53,28.11-.76,35.49-2.42,25.05-2,40.83-2.41c9.24-.22,12.89-2.06,14.45-4.08a9,9,0,0,0,1.45-4.06c.46-1.93-2.48-7.34-4.57-10.41a9.71,9.71,0,0,0-1.79-2.19,2.68,2.68,0,0,1-1.08-3.56,6.7,6.7,0,0,0-.25-4.4,4.31,4.31,0,0,0-1.73-2.4,9.39,9.39,0,0,0,1.78-4.14h0c1.13-6.13-2.55-14.13-11.06-13.72-4.06.19-6.13,2.62-7.15,5.55l-.06.17a21.86,21.86,0,0,0-.77,7.87c0,.14,0,.28,0,.42.11,1.33.26,2.26.3,2.47a.09.09,0,0,1,0,.05c-9.67,1.53-2.42,9.16-2.42,9.16l-.68,0a6.25,6.25,0,0,0-5.07,1.73h0c-2.71,2.88-1.5,8.35-1.5,8.35a7.2,7.2,0,0,1-2.54,0c-2.93-5-8.53-3.82-11.45-2.16s-12.09-1.4-12.09-1.4,1.53-3.44,3.18-8.27-.38-15.39-8.14-10.81-1.9,11.95,1.4,14.12c-.76,3.43-6.1,5.21-8.27,5.34.77-1.91-1.65-4.45-3.94-4.27s-1.78,3-3.69,1.72-4.07,2-5.21,1.66-2,.63-3.56.76a2.8,2.8,0,0,0-2.17,1.53H317s-2.55-3.69-4.58-4.33c.25-1.4-1.27-8.52-2.29-10.05l0,0c-.35-.45-.87-.08-1.4.61h0a22.6,22.6,0,0,0-2.11,3.89l-2.42-.51c.64-1.4.38-6.87-2.8-7.25l.06-.44a.82.82,0,0,1,0-.1q0-.09,0-.27a14.26,14.26,0,0,0-2.32-9.1v0a11.92,11.92,0,0,0-4.51-4.32c-2.67-1.14-3.05,2.93-3.05,2.93a4,4,0,0,0-2.42,1.14c-3.18-.76-5.21,3.56-4.45,9s6.74,5.47,9.28,1.78a20.56,20.56,0,0,0,2.42,8,11.77,11.77,0,0,1-3.31.25c-.63-.25-.76,2.16-2,3.94a3.47,3.47,0,0,0-1.19-.83,5.76,5.76,0,0,0-5.43,1v0c-.68.62-6-11.09-6.47-10.83s-4.2.76-5.09-.76-2.8-8.65-4.2-8.27-1.27-1.15-4.2-2.8-5.08,7.63-6.36,9.54-1.27.51-2.89-.25-2.57,3.05-2.57,4.32-1.79,1-3.18.25-6.11,5.35-7.76,5.86-7.13-7-7.76-8.15-5.85,5.86-6.87,6.87-3.18-4.32-4.07-5.59-1.66,5.85-3.05,6.87-1.15,5.47-1.15,5.47-8.9-.9-11.19-1.4-7-6.62-12.47-6.62-3.69,6.49-6.74,5.73-4.07,1.39-6,3.68-15.14-2.92-15.14-2.92a34,34,0,0,1,2-5.29h0c.37-.79.79-1.66,1.28-2.59,3.05,1,5.73-.76,6.87-6.74a13.34,13.34,0,0,0,.15-4.25v0c-.56-4-3.24-7.06-7.91-7.16-6.23-.12-7.25,8.65-6.61,16.54-2.67-1.3-4.63-1.42-6.07-.9-3.91,1.4-4,7.51-4,7.51s-.5,4.94,1.81,6.66a.39.39,0,0,0,.1.08c-1.4,1.53-8.53,1.91-15.39,1.79-1-3.95-6.49-3.95-7.89-2.29s-1.65,4.16-6.4,5.44l-.09,0c-1.78-4-4.57-5.31-7-5.32a6.22,6.22,0,0,0-4.68,1.88c-1.65-3.18-1.91-11.07-.76-14,5.65.28,6.51-1,7-4,.18-1.13.32-2.5.63-4.13,1.14-6-3.18-10.69-5.85-9.92-1.66-3.69-7.89-3.44-10.18,4.32s3.44,15.27,3.44,15.27-1.21,4.84-2,8.79l-.07.36c-2-2.18-5.4-2-8.36-.38h0A11.83,11.83,0,0,0,93,151.57c-2.93,4.71,2.54,11.2,2.54,11.2a8.83,8.83,0,0,0-4.45,2.29C89.15,167,95,167.73,96.79,167.73Zm238.88-9.17s27.5-7,35.86-6.07c0,0,8.75.12,11.2,2.22,1,.86,1.52,1.49,1.52,2a.37.37,0,0,1,0,.11s0,.06,0,.08c-.17.68-1.24,1.23-3.25,2-3.73,1.4-17.73,3.61-22.28,3.61s-11.95-.81-13.38-.93-6.57-.12-6.57-.12Zm-18.14-5.23c1.11-1.83,10.72-1.65,14.64-1.31.17-.42,4.08-.93,9.19-1s11.31.26,11.57,1.4-20.17,3.28-20.17,3.28a3.37,3.37,0,0,0-1.69-1.35h0c-3.53-1.36-10,1.26-10,2-.09.94,0,1.79-2.13,3.15C317.62,157.89,316.42,155.17,317.53,153.33Zm-103.21-1.48c-1.62.6-4.51,4.43-4.51,4.43-.43-.94-15.41-4.09-23.23-5.53,4.08-1.79,23.74-.94,25.95-.94S215.93,151.26,214.32,151.85Zm-20.82,9.36h17.41a1.23,1.23,0,0,1-.85,1.62c-1.27.42-.34,1.53.43,1.53s7.23.85,7.14,1.53-9,1.36-10.27.51a7.27,7.27,0,0,0-4.11-1.19c-1.44,0-4.33.17-4.59-.34a7,7,0,0,0-3.15-1.62C194.92,163.25,193.5,161.21,193.5,161.21Zm-20.79,0c.25.09,3.23,0,3.23,0s0,2.3-.76,2.13S172.71,161.21,172.71,161.21Zm-5.79-7.15s13.28-.42,17.27-.34,20.43,2.22,22.72,3.07,1.19,2.63,1.19,2.63-13.7-.59-17.18-1c0-.85-1.88-2.8-3.66-2.12-2-2.47-4.77-.94-5.87.93-3.75-.59-4.94,1.45-4.94,1.45a36.06,36.06,0,0,0-6.55-.09,24.89,24.89,0,0,1-3-4.5Zm-17,8.22c-.31-1,7-.73,7-.73v0c.19,1.48-2.58,1.74-4.34,1.75a4,4,0,0,1-2.2-.32A1.34,1.34,0,0,1,149.94,162.28Zm-4.38-4.13c-.51-1-7.91-1-7.48-1.58s6.55-.89,9.87-.29,5.44.08,5.61-.6,3.44-.59,4.1-.51.58-1.64,1.86-1.46a8.14,8.14,0,0,0,2.3,0s0,.16,0,.41h0c-.07,1.48-.4,6.36-1.74,6.24h0c-1.62-.25-1.79-1.87-2.81-2S146.07,159.17,145.56,158.15Zm-15,3.36h0a2.23,2.23,0,0,1,.45-.71c.94-1.11,15.59.42,15.59.42.71,1-.37,1.61-1.06,2.2a1.39,1.39,0,0,0-.49.6c-.26.83-3.49.69-5.44.86s-1.36-1-1.55-1.19-1.52.25-2.54-.33a6.34,6.34,0,0,0-3.32-.91C130.94,162.34,130.39,162.09,130.56,161.51Z"/></g><path class="cls-3" d="M356.64,86.59s-3.66,2.84-.92,5.86,7-.83,6.59-3.94c2.11-1.1,3.3-4.66,1-6.59-.09-3.84-3.85-4-4.76-3.75-1.65-3.38-5.67-3.47-6.86-1.14-2.48,1-9.34,6.72-4.95,22.74.64-5.86,2.84-11.53,4.95-12.63C351.79,84.76,356.09,83.2,356.64,86.59Z"/><path class="cls-8" d="M356.64,86.59s-3.66,2.84-.92,5.86,7-.83,6.59-3.94c2.11-1.1,3.3-4.66,1-6.59-.09-3.84-3.85-4-4.76-3.75-1.65-3.38-5.67-3.47-6.86-1.14-2.48,1-9.34,6.72-4.95,22.74.64-5.86,2.84-11.53,4.95-12.63C351.79,84.76,356.09,83.2,356.64,86.59Z"/><path class="cls-3" d="M335,78.54s2.84,3.47,1,4.66S335,78.54,335,78.54Z"/><path class="cls-9" d="M335,78.54s2.84,3.47,1,4.66S335,78.54,335,78.54Z"/><path class="cls-10" d="M335,78.54s2.84,3.47,1,4.66S335,78.54,335,78.54Z"/><path class="cls-3" d="M347,128.41s3.66-5.49,1.92-9.61.74-13.72-.73-13.54-8.24-2.11-8.51,5.12,4.85,7.4,5.3,6.35S347.39,124.84,347,128.41Z"/><path class="cls-11" d="M347,128.41s3.66-5.49,1.92-9.61.74-13.72-.73-13.54-8.24-2.11-8.51,5.12,4.85,7.4,5.3,6.35S347.39,124.84,347,128.41Z"/><path class="cls-3" d="M267,94.64s1.1,8.51,0,8-1.37-.19-2.37.73-4.4,1.1-4-1.74S263.11,90,267,94.64Z"/><path class="cls-12" d="M267,94.64s1.1,8.51,0,8-1.37-.19-2.37.73-4.4,1.1-4-1.74S263.11,90,267,94.64Z"/><path class="cls-3" d="M264.94,109.19c.76.37,2.84,1,1.19,3s-2.93,2.4-3,.57S262.47,108,264.94,109.19Z"/><path class="cls-13" d="M264.94,109.19c.76.37,2.84,1,1.19,3s-2.93,2.4-3,.57S262.47,108,264.94,109.19Z"/><path class="cls-3" d="M220.28,115.56s.64,6.54-2.74,9.74c0,0,1.73.18,0,2.38s-5.95,4.67-7.69,2.56A20.65,20.65,0,0,1,206,114c1.37-8.32,7.59-21.41,6.22-23.7S207.38,76,202.25,76c2.2,2,3.66,6,0,8.32s-7.59-.36-6.77-3.66C193,79.45,195,71,199,68.93c-.18-2.75,6.38-3.66,8.4,0S216,81.1,215.71,86.87,212,101.23,211,104.71s-3.19,17.56,1,21l1.28-1.92s-2.74-3.76-.45-7.23S220.28,115.56,220.28,115.56Z"/><path class="cls-14" d="M220.28,115.56s.64,6.54-2.74,9.74c0,0,1.73.18,0,2.38s-5.95,4.67-7.69,2.56A20.65,20.65,0,0,1,206,114c1.37-8.32,7.59-21.41,6.22-23.7S207.38,76,202.25,76c2.2,2,3.66,6,0,8.32s-7.59-.36-6.77-3.66C193,79.45,195,71,199,68.93c-.18-2.75,6.38-3.66,8.4,0S216,81.1,215.71,86.87,212,101.23,211,104.71s-3.19,17.56,1,21l1.28-1.92s-2.74-3.76-.45-7.23S220.28,115.56,220.28,115.56Z"/><path class="cls-3" d="M191.66,126.71s2.71,2.63,1.56,4.33a1.76,1.76,0,0,1-3.33-.79C189.79,128.48,188.85,124.84,191.66,126.71Z"/><path class="cls-15" d="M191.66,126.71s2.71,2.63,1.56,4.33a1.76,1.76,0,0,1-3.33-.79C189.79,128.48,188.85,124.84,191.66,126.71Z"/><path class="cls-16" d="M191.66,126.71s2.71,2.63,1.56,4.33a1.76,1.76,0,0,1-3.33-.79C189.79,128.48,188.85,124.84,191.66,126.71Z"/><path class="cls-3" d="M187,89.26s2,8.74,0,10.19-4.37,2.29-5.83,0-7-11.44-3-13.31S186.34,85.6,187,89.26Z"/><path class="cls-17" d="M187,89.26s2,8.74,0,10.19-4.37,2.29-5.83,0-7-11.44-3-13.31S186.34,85.6,187,89.26Z"/><path class="cls-3" d="M171,86.88s2.61,5,0,6.61-3.56,0-3.56,0-2.26,3.56-5-1.13c-1.65,1.56-1.21,9.38-1,10.34s5.3,6.77,2.78,14.24c-1.92-5.38-4.61-10-5.65-10.68s-1.39-4.88,0-7.48c-.17-4.42-.7-11.11,4.17-11.9C161.88,83.84,169.35,80.46,171,86.88Z"/><path class="cls-18" d="M171,86.88s2.61,5,0,6.61-3.56,0-3.56,0-2.26,3.56-5-1.13c-1.65,1.56-1.21,9.38-1,10.34s5.3,6.77,2.78,14.24c-1.92-5.38-4.61-10-5.65-10.68s-1.39-4.88,0-7.48c-.17-4.42-.7-11.11,4.17-11.9C161.88,83.84,169.35,80.46,171,86.88Z"/><path class="cls-3" d="M146.5,137.45s.52,4.43-.87,4.34-2.52-2.43-2-3.91S146.5,137.45,146.5,137.45Z"/><path class="cls-19" d="M146.5,137.45s.52,4.43-.87,4.34-2.52-2.43-2-3.91S146.5,137.45,146.5,137.45Z"/><path class="cls-20" d="M146.5,137.45s.52,4.43-.87,4.34-2.52-2.43-2-3.91S146.5,137.45,146.5,137.45Z"/><path class="cls-3" d="M138.34,132.5c.52-.09,3.91.34,2.69,1.21s-4.78,1.39-4.78,0S138.34,132.5,138.34,132.5Z"/><path class="cls-21" d="M138.34,132.5c.52-.09,3.91.34,2.69,1.21s-4.78,1.39-4.78,0S138.34,132.5,138.34,132.5Z"/><path class="cls-22" d="M138.34,132.5c.52-.09,3.91.34,2.69,1.21s-4.78,1.39-4.78,0S138.34,132.5,138.34,132.5Z"/><path class="cls-23" d="M331.07,154.33c.58.5,1.23,1,1.69,1.35A3.37,3.37,0,0,0,331.07,154.33Z"/><path class="cls-23" d="M307.16,160.18c3.42,1.79,11.73-.67,11.73-.67-1.27-1.62-2.47-4.34-1.36-6.18s10.72-1.65,14.64-1.31c.17-.42,4.08-.93,9.19-1s11.31.26,11.57,1.4-20.17,3.28-20.17,3.28a23.42,23.42,0,0,1,2.91,2.88s27.5-7,35.86-6.07c0,0,8.75.12,11.2,2.22,1,.86,1.52,1.49,1.52,2a41.57,41.57,0,0,0-.63-5.41,7.2,7.2,0,0,1-2.54,0c-2.93-5-8.53-3.82-11.45-2.16s-12.09-1.4-12.09-1.4,1.53-3.44,3.18-8.27-.38-15.39-8.14-10.81-1.9,11.95,1.4,14.12c-.76,3.43-6.1,5.21-8.27,5.34.77-1.91-1.65-4.45-3.94-4.27s-1.78,3-3.69,1.72-4.07,2-5.21,1.66-2,.63-3.56.76a2.8,2.8,0,0,0-2.17,1.53H317s-2.55-3.69-4.58-4.33c.25-1.4-1.27-8.52-2.29-10.05l0,0c-.48.19-.95.39-1.4.61h0a22.6,22.6,0,0,0-2.11,3.89l-2.42-.51C296.52,145,303.75,158.39,307.16,160.18Z"/><g class="cls-24"><path class="cls-25" d="M166.92,154.06s13.28-.42,17.27-.34,20.43,2.22,22.72,3.07,1.19,2.63,1.19,2.63-13.7-.59-17.18-1c2.07.24,2.58,2.81,2.58,2.81h17.41a1.23,1.23,0,0,1-.85,1.62c-1.27.42-.34,1.53.43,1.53s7.23.85,7.14,1.53c3.19.31,12.81-2,15.89-2.39s4.59-2.92,5.5-4,2.09-.43,2.67,1,3.33,1.66,5,2.83-2.42,2.33-2.92,3.48,32.42-.15,34.59,0a4.78,4.78,0,0,0,4.66-2.05c.84-1.42,4.67-.67,8.17-.75s3-4.5,3-6-.67-3.86-.83-3.19-7,6.83-9,0c-1.88-6.55-.16-9.73,0-10-.68.62-6-11.09-6.47-10.83s-4.2.76-5.09-.76-2.8-8.65-4.2-8.27-1.27-1.15-4.2-2.8-5.08,7.63-6.36,9.54-1.27.51-2.89-.25-2.57,3.05-2.57,4.32-1.79,1-3.18.25-6.11,5.35-7.76,5.86-7.13-7-7.76-8.15-5.85,5.86-6.87,6.87-3.18-4.32-4.07-5.59-1.66,5.85-3.05,6.87-1.15,5.47-1.15,5.47-8.9-.9-11.19-1.4-7-6.62-12.47-6.62-3.69,6.49-6.74,5.73-4.07,1.39-6,3.68-15.14-2.92-15.14-2.92C164.77,148.6,166.92,154.06,166.92,154.06Zm19.66-3.31c4.08-1.79,23.74-.94,25.95-.94s3.4,1.45,1.79,2-4.51,4.43-4.51,4.43C209.38,155.34,194.4,152.19,186.58,150.75Zm-16.68,7.82,2.81,2.64c.25.09,3.23,0,3.23,0a17.59,17.59,0,0,1,.51-2.55A36.06,36.06,0,0,0,169.9,158.57Z"/></g><path class="cls-23" d="M163.76,146c1.24-4.59-.7-9.71-.7-9.71-2.67-1.3-4.63-1.42-6.07-.9C164.23,137.22,163.76,146,163.76,146Z"/><path class="cls-23" d="M169.28,140.55c.37-.79.79-1.66,1.28-2.59,3.05,1,5.73-.76,6.87-6.74a13.34,13.34,0,0,0,.15-4.25c0,2.28-2.25,8.23-4.87,9.6s-2.79-3-3.93-6.7C167.3,133.5,169.17,140.19,169.28,140.55Z"/><path class="cls-23" d="M111.84,155.24c1.5-4.36,6.29-5.93,6.29-5.93a6.22,6.22,0,0,0-4.68,1.88c-1.65-3.18-1.91-11.07-.76-14C110.74,138.28,111.47,150.44,111.84,155.24Z"/><path class="cls-23" d="M112.69,137.2c5.65.28,6.51-1,7-4,0,0-1.93,2.93-6.35,1.74-2.68-.72-3.55-4.42-3.55-4.42S107.68,135.36,112.69,137.2Z"/><path class="cls-23" d="M97.33,147.5c5-1.73,7.79,3.52,7.79,3.52l.57-3.14C103.67,145.7,100.29,145.88,97.33,147.5Z"/><path class="cls-23" d="M122.08,162.28a16.21,16.21,0,0,1,8.48-.78,2.23,2.23,0,0,1,.45-.71c.94-1.11,15.59.42,15.59.42.71,1-.37,1.61-1.06,2.2l.17-.06c1.11-.47,4.13-.35,4.72-.32a1.34,1.34,0,0,1-.49-.75c-.31-1,7-.73,7-.73v0l.1,0c.41-.93,2.53-1.15,3-1.18h0c-1.62-.25-1.79-1.87-2.81-2s-11.15.85-11.66-.17-7.91-1-7.48-1.58,6.55-.89,9.87-.29,5.44.08,5.61-.6,3.44-.59,4.1-.51.58-1.64,1.86-1.46a8.14,8.14,0,0,0,2.3,0s0,.16,0,.41l.11-.41.69-3.11s-.43-.35-1-.84l.29-.15s-.06-6.16-1.81-5.74-1.59,5.74-1.59,5.74l0,0c-1.52,1.35-3.55,0-3.55,0l-.2-.08a.39.39,0,0,0,.1.08c-1.4,1.53-8.53,1.91-15.39,1.79-1-3.95-6.49-3.95-7.89-2.29s-1.65,4.16-6.4,5.44c0,0,0,0,0,0C126.35,158.22,124.29,160.36,122.08,162.28Z"/><path class="cls-23" d="M289.83,143.87s3.14,6.2,4.79,5.8,3.05-3.13,1.41-3.36-3.06-4-3-5.55c-.63-.25-.76,2.16-2,3.94A3.47,3.47,0,0,0,289.83,143.87Z"/><path class="cls-23" d="M299.24,138.24c0,1,.94-2.27.94-4a4.16,4.16,0,0,1,1.2-2.83.82.82,0,0,1,0-.1q0-.09,0-.27a14.26,14.26,0,0,0-2.32-9.1C300.35,125.7,299.24,137.23,299.24,138.24Z"/><path class="cls-23" d="M385.12,143h0s8.9-3.3,13.47,6.05c.4-3.31-2.38-7.41-7.72-7.75l-.68,0A6.25,6.25,0,0,0,385.12,143Z"/><path class="cls-23" d="M392.94,129.17c0,.14,0,.28,0,.42.11.85.22,1.71.3,2.47a.09.09,0,0,1,0,.05c.33,2.82,3.57,7.08,3.77,7.35-3.7-6.23-3.29-18.33-3.29-18.33l-.06.17A21.86,21.86,0,0,0,392.94,129.17Z"/><path class="cls-23" d="M402.37,135.16c.93.73.86,2.78.86,4.31s2.26,4,4.78,5.37,1.26,4.18,1.26,4.18.66-.2,5.1,3a9.89,9.89,0,0,1,3.8,8.4,9,9,0,0,0,1.45-4.06c.46-1.93-2.48-7.34-4.57-10.41-1.05,1.22-3.6,1.41-3.86.36-.33-1.32-2.79-2.58-4.64-4.64s-.33-5-.33-5a11.62,11.62,0,0,1-2.06-3.91c.8,2.16,7.76,3.12,7.76,3.12v0a4.31,4.31,0,0,0-1.73-2.4,9.39,9.39,0,0,0,1.78-4.14c-1,2.49-7.29,2.2-8.35,1.61s.66-3,2.65-4.78C401.31,125.81,401.44,134.43,402.37,135.16Z"/><path class="cls-26" d="M268.64,131c.11,2.54-3.2-3.22-3.77-1.94s-3.39,14.41-4.26,11.64-1.08-5.19-2.38-1.27-4.77,8.93-4.56,6.75-5.85-2.07-7.37,0,1.08-5.78,2.82-5.52,6.76,2,7.07-1.27,4-5.26,4.42-4.9,1.51-4,2.38-6S268.42,126.07,268.64,131Z"/><path class="cls-27" d="M280.78,148.64s-2.72-12.84-5.22-11.4-3.63,1.78-4.31-.32-1.13-2.48-1.59.32,2.95,8.42,4.31,6.06S280.78,148.64,280.78,148.64Z"/><path class="cls-28" d="M288.81,146.75s-3.18,4-2.44,7.58-3.45-.65-1.32-4.64S288.81,146.75,288.81,146.75Z"/><path class="cls-29" d="M291.16,123.25a9.33,9.33,0,0,0-3,7.79c.58,4.79-1.88,1.46-2-.85S286.68,124,291.16,123.25Z"/><path class="cls-30" d="M331.92,155.68s-8-1.43-9.29,1.17-4.34,6.57-12,5.67,2.16,5.18,6.5,2.79,8.83-11.38,17.92-5.8A26.77,26.77,0,0,1,331.92,155.68Z"/><path class="cls-31" d="M242.59,165.87s3.93-2.2,2.51-2.61-4.43-1.08-4.35-2-.46-.87-2.26,0-6.94,5.14-20,5.06c0,0,11.12.58,15.64-1.43s5.6-2.23,6-1.41,3.17.41,2.67,1.08A1.53,1.53,0,0,0,242.59,165.87Z"/><path class="cls-32" d="M233.92,152.94c-3.12-3.37-2.16-8.81-3.78-6.92s-4.75,7-5,5-3.24.92-7.55,4-4.1,8.67-1,5.57,6.44-8.78,7.48-6.25,5.34.51,6-.77,5,6.05,5.24,4.88S233.92,152.94,233.92,152.94Z"/><path class="cls-33" d="M409.52,120.46s-6.63-4.86-10.89-2.79-2.24,14-2.36,17,2.12-14.7,5.59-13.51S409.87,123.48,409.52,120.46Z"/><path class="cls-34" d="M397.06,149.51s-7.53-9.13-11-5.32,2.57,14.22-.92,16.28,2.2,3.47,3.37-4.79S397.06,149.51,397.06,149.51Z"/><path class="cls-35" d="M410.77,151.16c3.13,1-2.27,10.49-14.88,10.89,9.18,1.54,19.7.51,20.15-3.65S410.77,151.16,410.77,151.16Z"/><path class="cls-36" d="M358,130.3s-6.79,1.41-5.07,4.18,4.15,7.21,3,9.71a10.14,10.14,0,0,0-3.29-5.24C350.82,137.53,347.34,127.89,358,130.3Z"/><path class="cls-37" d="M358.57,79.77s-4.26-4-5.35-2.74-5.71,3.24-7.15,12.79c2.89-5.21,5.06-9.84,7-9.84S358.59,81.36,358.57,79.77Z"/><path class="cls-38" d="M360.82,87.6s-2.39,3.08-2.82.84-2.32-.87-1.74,1.38S360.17,92.76,360.82,87.6Z"/><path class="cls-39" d="M346.07,106.26c.17.06-5.12,4.69-4.17,8.93C340,113.46,341.61,104.8,346.07,106.26Z"/><path class="cls-40" d="M175.47,132.48c.32-.34,2.22-10.48-2.52-11.17a7.67,7.67,0,0,0-8.78,5.59c-.7,3.12,2.66-2.69,5.26-2.46s4.75,3.59,3.52,6S174.5,133.52,175.47,132.48Z"/><path class="cls-41" d="M157,137.66s-.78,8.28.67,11C154.3,148.64,152.12,142.78,157,137.66Z"/><path class="cls-42" d="M182.3,158.44s-5-1.3-5.57,1.95-.82,5.45-2.4,3.61-6.12-5.82-6.12-5.82,2.36,7.52,5,8.17,3.44-3.8,5.64-4.83A9.17,9.17,0,0,0,182.3,158.44Z"/><path class="cls-43" d="M121.4,161.21c-.11.26,5.27-5,.68-9.25s-10,3.24-10.68,4.62,2.66,2.66,4.85-.65S123.22,156.92,121.4,161.21Z"/><path class="cls-44" d="M101.08,148.64a6.74,6.74,0,0,0-3.24,6.6c.48,4.63-6.2,3.86-4.48,0S98.11,147.73,101.08,148.64Z"/><path class="cls-45" d="M103.41,157s3.81,7.84,11.35,8.36C112.79,166.41,98.07,165.49,103.41,157Z"/><path class="cls-46" d="M133.42,164a17.53,17.53,0,0,1-3.81-1.36c-.91-.65-8,.79-8,.79s6.23-1,7.43,0S133.42,164,133.42,164Z"/><path class="cls-47" d="M120,126.79s-1.85-6.28-4.47-6.55-2.57-1.7-3.11-2.13-5.57-.33-7.27,4.64c3.44-1.91,4.26-3.55,5.68-2.24s4.64,2.67,5.3,2.35S120,126.79,120,126.79Z"/><path class="cls-48" d="M138.06,151.67c-.12.3-3.42-1.67-5.09,0a23.42,23.42,0,0,1-4.85,3.29s4.54-4.37,5-5.35S139,149.38,138.06,151.67Z"/><path class="cls-49" d="M199.41,69.52s-3.77,6.28-2.16,7.51,2.69,1.1,2.89,1.77,1.35,2.42,2.09,2.29-1.68,4.68-3.16,2.14-1.34-3.35-2.22-4.16S195.16,72.47,199.41,69.52Z"/><path class="cls-50" d="M215.2,87.4s-1.41-7-4.64-11.76-3.49-6.12-3.49-6.12.67,4.17,1.75,5.72S215.2,87.4,215.2,87.4Z"/><path class="cls-51" d="M182.67,86.26s-3.56,3.7-2.29,6.52,4.91,5.58,5.72,4.91-1.21,3.58-2.69,2.39S172.85,87.2,182.67,86.26Z"/><path class="cls-52" d="M169,84.92s-4.19,1.34-4.11,3.49-.59.67-1.53,1.15a8.6,8.6,0,0,0-3.77,6.25c0-4.44,1.15-6.93,3.16-7.87s1.21-2.75,2.56-3A15.62,15.62,0,0,1,169,84.92Z"/></g></g></g></svg>