<svg xmlns="http://www.w3.org/2000/svg" viewBox="0 0 202.87 612.61"><defs><style>.cls-1{fill:#ad4dc4;}.cls-2{fill:#f3bbff;}.cls-3{fill:none;}</style></defs><g id="Layer_2" data-name="Layer 2"><g id="Layer_1-2" data-name="Layer 1"><g id="Layer0_0_MEMBER_0_FILL" data-name="Layer0 0 MEMBER 0 FILL"><path class="cls-1" d="M92.84,523.16A33.53,33.53,0,0,0,86.08,537a30.73,30.73,0,0,0,.46,13.22,127.44,127.44,0,0,0,4.15,12.91q5.84,15.36,10,24.13A137.38,137.38,0,0,0,113.44,610c.66.92,1.33,1.79,2,2.62.86-1.6,2.29-4.11,4.31-7.53a84,84,0,0,1-7.84-18.91,45.63,45.63,0,0,1-2-16,32.89,32.89,0,0,1,3.54-13.53,8.51,8.51,0,0,1-2.92,2.31,8,8,0,0,1-5.54.77q-5.07-1.69-8.45-7.38-4.45-7.85-4.46-19.06A78.49,78.49,0,0,1,92.84,523.16Z"/><path class="cls-2" d="M118.2,509.63c-1.65-1.32-3.13-2.6-4.46-3.84a57.66,57.66,0,0,0-14.6,10.45,64.24,64.24,0,0,0-6.3,6.92,78.49,78.49,0,0,0-.77,10.14q0,11.22,4.46,19.06,3.38,5.68,8.45,7.38a8,8,0,0,0,5.54-.77,8.51,8.51,0,0,0,2.92-2.31,32.89,32.89,0,0,0-3.54,13.53,45.63,45.63,0,0,0,2,16,84,84,0,0,0,7.84,18.91l1.38-2.31q10.45-17.82,14.6-46.88,2.92-20.89-3.84-32.27Q128.65,518.23,118.2,509.63Z"/></g><path id="Layer0_0_MEMBER_1_1_STROKES" data-name="Layer0 0 MEMBER 1 1 STROKES" class="cls-3" d="M202.87,0V612.61H0V0Z"/></g></g></svg>