<svg xmlns="http://www.w3.org/2000/svg" viewBox="0 0 202.87 612.61"><defs><style>.cls-1{fill:#ad4dc4;}.cls-2{fill:#e2e2e2;}.cls-3{fill:#f3bbff;}.cls-4{fill:none;}</style></defs><g id="Layer_2" data-name="Layer 2"><g id="Layer_1-2" data-name="Layer 1"><g id="Layer0_9_MEMBER_0_FILL" data-name="Layer0 9 MEMBER 0 FILL"><path class="cls-1" d="M131.57,101c1.44,1.85,2.92,2.82,4.46,2.92a4.33,4.33,0,0,0,3.54-1.38,6.33,6.33,0,0,0,1.69-3.84q.15-3.22-2.77-7.69-3.08-4.14-6-5.07a5.85,5.85,0,0,0-6,1.23c-1.84,1.85-2.2,3.79-1.07,5.84a14,14,0,0,0,3.07,3.38,21.91,21.91,0,0,1,3.07,4.61m16.3,17.68a7.46,7.46,0,0,0-.93-2.92,2.75,2.75,0,0,0-4.76-.31,8.6,8.6,0,0,0-.92,2.61q-.31,1.55-.93,6.46a31.56,31.56,0,0,1-1.23,6.45,12.37,12.37,0,0,0-.61,3.69,2.81,2.81,0,0,0,2,2.31,4.39,4.39,0,0,0,3.23,0q2.91-1.23,4-5.07,1.38-4.46.16-13.22m-13.22,129a5.16,5.16,0,0,0,4-4.46,4.16,4.16,0,0,0-.92-3.07,3.69,3.69,0,0,0-2.46-1.69,4.66,4.66,0,0,0-4.45,2.15l-1.08,2a4.4,4.4,0,0,0,.31,4,3.65,3.65,0,0,0,3.07,1.38l1.54-.3M150,198.25c2.35-2.56,3.79-4.92,4.3-7.07a18.1,18.1,0,0,0,.31-6.76,21.91,21.91,0,0,0-1.69-7.38q-2-4-7.69-7.68a28,28,0,0,0-5.38-2.92q-4.76-1.55-13.52-.31a7.69,7.69,0,0,1-4,.15,14.11,14.11,0,0,1-2.3-.76l-.31-.16a20.48,20.48,0,0,1,1.69-3.38,13.66,13.66,0,0,1,2.77-2.92,21.29,21.29,0,0,0,2.76-2.92q1.55-2.46.46-3.84-1.53-2-4.76.15a22.4,22.4,0,0,0-7.68,7.84q-1.55,3.22-3.23,3.84a5,5,0,0,1-2.77.16c-1.13-.11-2.71-.31-4.76-.62a25.74,25.74,0,0,0-4.77-.15l-5.53.77a6.71,6.71,0,0,1-5.38-.93q-.62-7.37-8.3-14.29A65,65,0,0,0,73.32,144c-3.79-2.46-6.14-4.05-7.07-4.77Q63.64,137.39,62,138a2.69,2.69,0,0,0-1.54,2.31q-.91,3.84,3.69,8.45a20.84,20.84,0,0,0,6,5.07,38,38,0,0,0,4.76,1.85,10.27,10.27,0,0,1,5.53,6.45l.77,3.08,1.69,4.61a9.11,9.11,0,0,0,3.38,4.3,10.93,10.93,0,0,0,5.69,1.23c3.18.21,5.48-.2,6.92-1.23l2.76-1.84a11.27,11.27,0,0,1,3.08.15,14.42,14.42,0,0,0,6.15-.15,6.63,6.63,0,0,0,.15,3.07,12.39,12.39,0,0,0,2.77,4.61,12.16,12.16,0,0,0,5.53,3.54,2.81,2.81,0,0,1,0,.92,3.77,3.77,0,0,0-1.54,2.3,20.42,20.42,0,0,0-1.07,4.31,23.83,23.83,0,0,0-1.23,6.45,1.6,1.6,0,0,0,0,.31c-.3.41-.65.87-1.08,1.38a47.46,47.46,0,0,1-10.3,7.53q-5.22,2.93-9.22,1.54a42,42,0,0,1-4.3-2.15,19.36,19.36,0,0,0-5.38-.77q-2.46-.62-5.69-4.15c-2-2.46-3.28-4.4-3.69-5.84a20.23,20.23,0,0,0-.77-2.61A2.32,2.32,0,0,0,73.48,191c-.92-.41-2,0-3.23,1.23a10.53,10.53,0,0,0-3.69,6.45,10.08,10.08,0,0,0,1.54,6.77A20.26,20.26,0,0,0,70.56,209a20,20,0,0,0,.31,2q1.68,7.38,10.14,12.6a5.31,5.31,0,0,1,2.77,2.61c.2.41.15,1.69-.16,3.85a9.92,9.92,0,0,0,.77,6.14,13.14,13.14,0,0,0,4,4.92,17.91,17.91,0,0,0,12,3.08,3.3,3.3,0,0,1,2.77.46,3.78,3.78,0,0,1,1.08,2.3,79.5,79.5,0,0,0,2.92,11.68,33.61,33.61,0,0,0,1.38,3.54,18.48,18.48,0,0,1-5.84,0,12.92,12.92,0,0,0-5.69,0,16.48,16.48,0,0,0-3.38,2A12.33,12.33,0,0,0,91,267.41a11.73,11.73,0,0,0-.77,4.92q-.3,5.07,1.23,7.69a16.41,16.41,0,0,0,3.07,3.38,39.35,39.35,0,0,1,6.61,7.37l1.54,2.46a10,10,0,0,0,2.31,2.46,2.66,2.66,0,0,0,1.69,1.23,2.08,2.08,0,0,0,2.45-1.53,5,5,0,0,0,.31-3.08,50.09,50.09,0,0,0-2-8.3,35,35,0,0,1-2-8.45,13.68,13.68,0,0,0,11.22-5.07,10.54,10.54,0,0,0,2.3.61,11.82,11.82,0,0,0,7.53-1.53,11.47,11.47,0,0,0,4.92-6,11,11,0,0,0,0-7.68,7.68,7.68,0,0,0-3.84-4.46,6.52,6.52,0,0,0-5.53,0,7,7,0,0,0-4.15,3.84,57.88,57.88,0,0,0-3.23-17.21l-.16-.46a17.5,17.5,0,0,0,1.39-7.69c-.21-3.69-.92-6.35-2.15-8a13.32,13.32,0,0,1-1.39-2,4,4,0,0,1,.77-2.46c.38-.67.79-1.34,1.23-2a25.17,25.17,0,0,0,4.3-3.39,27.73,27.73,0,0,0,2.62-3.22,12.8,12.8,0,0,0,6.14.61q12.77-.61,22.6-11.22m-17.68.62a5.06,5.06,0,0,1-1.23-.62,20.82,20.82,0,0,1-5.38,1.85,8.81,8.81,0,0,1-4.76,7.68,35.71,35.71,0,0,1-5.53,2.61,23.89,23.89,0,0,0-3.54,2.92,12.8,12.8,0,0,1-3.69,2.62c-1.84.71-2.92,1.48-3.22,2.3a16.07,16.07,0,0,1,5.22,4.77,8.13,8.13,0,0,1,1.38,6.91c-.1.31-.35,1.08-.76,2.31a7.54,7.54,0,0,0-.47,2.3,12.49,12.49,0,0,0,.62,4,4.77,4.77,0,0,1-.15,3.23,16.46,16.46,0,0,1,.15,2.46,3.2,3.2,0,0,1,0,1.38,1.78,1.78,0,0,1-.62,1.23,2.29,2.29,0,0,1-2.3,0,2.42,2.42,0,0,1-1.38-.77,3.56,3.56,0,0,1-.62-2.46V243a13.87,13.87,0,0,1-2.77-1.85q-4.61-4-16-17.06a21.19,21.19,0,0,1-2.92-4,5.69,5.69,0,0,1-.46-4.92c.82-1.85,2.46-3,4.92-3.38a13.92,13.92,0,0,1,6,1.07q5.53,1.69,7.53.92,1.84-.77,3.69-4.3,3.07-4.75,5.07-5.84c1.33-.51,2.31-.92,2.92-1.23a5.09,5.09,0,0,0,2.62-1.69,6.88,6.88,0,0,0,.92-2.46c.31-1.43.51-2.3.61-2.61q1.38-3.06,7.07-4.61v-.16a5.49,5.49,0,0,1-2.3-3.07,6.15,6.15,0,0,1,0-3.84c.51-2.05.66-3.28.46-3.69A3.5,3.5,0,0,0,121,179a31.89,31.89,0,0,1-4-1.84,8.88,8.88,0,0,1-2.76-2.77,3.67,3.67,0,0,1,0-3.84c1-1.64,2.92-2.05,5.68-1.23a23.23,23.23,0,0,0,5.69,2.61,22.4,22.4,0,0,0,4.46.31,9.22,9.22,0,0,1,8.76,3.53,12.5,12.5,0,0,1,4.45,1.85,10.84,10.84,0,0,1,4.77,6.76q.76,5.07-3.23,10.14a11.74,11.74,0,0,1-4.76,4,9.94,9.94,0,0,1-7.69.31m-24.59,52.71a2.1,2.1,0,0,1,1.08-2,2,2,0,0,1,2.3-.16l1.08,1.23,1.23,2,.46,1.07a4,4,0,0,1-.92,1.85,1.76,1.76,0,0,1-1.85.61l-1.07-.76a11.58,11.58,0,0,1-1.54-2.16l-.77-1.69m-3.23,359a4,4,0,0,0,3.23,2,4,4,0,0,0,2.31-.92,4.36,4.36,0,0,0,1.38-2.62h-.31a3.12,3.12,0,0,0-.61-2.3,4.17,4.17,0,0,0-2.15-1.39,3.64,3.64,0,0,0-3.54,1.39,3.34,3.34,0,0,0-.31,3.84m8.15-25.67.31-3.07a2.94,2.94,0,0,0-1.39-2.61,3.78,3.78,0,0,0-2-.46,3.53,3.53,0,0,0-2.62.92,3.45,3.45,0,0,0-.92,2.76,30.36,30.36,0,0,0,.31,8.76c.2,1.85.92,2.92,2.15,3.23a2.62,2.62,0,0,0,2.77-.77,5.94,5.94,0,0,0,1.07-2.92,40.61,40.61,0,0,1,.31-5.84m-.77-58.4c1-1,1.54-2.92,1.54-5.69q.3-8.76,0-13.06a13.64,13.64,0,0,0-.77-3.23,3.09,3.09,0,0,0-2.61-1.69c-1.34,0-2.31.82-2.92,2.46,0,.1-.16,1.43-.46,4a59.94,59.94,0,0,1-1.39,7.22,15.2,15.2,0,0,0-.15,7.07,6.1,6.1,0,0,0,2.46,3.53,3.68,3.68,0,0,0,4.3-.61m3.38,33a14.87,14.87,0,0,1-.92-4.91c.62-1.85,1-3.23,1.23-4.15.51-1.95.36-5-.46-9.23a8.49,8.49,0,0,0-1.23-3.38,2.69,2.69,0,0,0-3.07-1.38c-1,.2-1.75,1.08-2.16,2.61-.2.72-.46,1.85-.76,3.38-.52,1.64-2,3.64-4.31,6q-2.14,3.08-1.54,8a56.75,56.75,0,0,0,2.46,8q1.7,4.15,3.85,5.07a3.91,3.91,0,0,0,3.53-.15,5.43,5.43,0,0,0,2.77-2.46c1.12-2,1.33-4.4.61-7.38m-9.68,2.77c-.31-2.25-.51-3.64-.61-4.15l-.77-2.3a5.56,5.56,0,0,1,.15-3.39,4.34,4.34,0,0,1,1.69-2.92,2.19,2.19,0,0,1,3.07-.46,4.6,4.6,0,0,1,1.54,2.46l2,6a9.4,9.4,0,0,1,0,5.84,5.42,5.42,0,0,1-2.15,2.15,3,3,0,0,1-2.77.15c-1-.51-1.74-1.64-2.15-3.38m3.07-63.48c.31-.51.46-2,.46-4.45a28.18,28.18,0,0,0-.15-6.92,18.53,18.53,0,0,0-1.84-3.84,8.35,8.35,0,0,0-2.77-3.07,2.7,2.7,0,0,0-3.69.76,3.35,3.35,0,0,0,.16,2.62,10.45,10.45,0,0,0,1.38,2.46q1.53,3.22,1.07,10.75a4.2,4.2,0,0,0,1.08,2.62c.72.51,1.13.82,1.23.92l.31.46c.1.21.3.15.61-.15a6.68,6.68,0,0,0,2.15-2.16m3.69-18.28q3.69-.16,4.92-4.92a30,30,0,0,0,.62-7.53q.3-5.38.3-6.61a11.12,11.12,0,0,0-2-6.15,6.3,6.3,0,0,0-5.37-2.77h-.47a40.6,40.6,0,0,0,2.31-14.29A121.34,121.34,0,0,0,111,421.11a6.44,6.44,0,0,0,4.46-1.85,7.24,7.24,0,0,0,2.15-4.3,6.78,6.78,0,0,0-1.08-4.61,8.32,8.32,0,0,0-8.45-3.84,7.78,7.78,0,0,0-4.46,2,9,9,0,0,1-2.46,1.69,3.94,3.94,0,0,1-3.53-1.38q-4-3.84-2.77-12.91c.62-4.1,1.64-7,3.08-8.61q2.3-2.76,8-4.91a79.49,79.49,0,0,0,9.22-4.15q5.07-3.39,6.45-7.53a17.76,17.76,0,0,0,.77-5.85V359a7.56,7.56,0,0,0,5.38-3.84,4.86,4.86,0,0,0,.62-3.23,3.52,3.52,0,0,0,.61-.61,9.82,9.82,0,0,0,2.61-4.46,6.86,6.86,0,0,0-.61-4.45q-1.23-3.07-3.23-3.69t-5.38,2.61l-3.07,2.15a11.44,11.44,0,0,1-4.92,1.85,4.84,4.84,0,0,1-4.61-1.85q-1.84-2-.92-7.22l.92-5.69a3.75,3.75,0,0,1,.77-2.46l1.38-1.38q8.46-6.15,10.91-9.84a7.75,7.75,0,0,0,1.23-3.69c0-1.64-.71-2.56-2.15-2.76q-1.85-.46-3.69,2c-.51.61-1.28,1.58-2.3,2.92a7.94,7.94,0,0,1-2.77,2.3l-2.77,1.08a38.7,38.7,0,0,0-5.53,3.07q-5.37,3.54-7.22,6.46a19.35,19.35,0,0,0-2.15,6.14,39.81,39.81,0,0,0-.62,9.07,15.54,15.54,0,0,0,2.92,8.45,24,24,0,0,0,4.61,4.31l4.15,2.3a7.54,7.54,0,0,0,.77.16,52.66,52.66,0,0,0-.46,6.3,13.78,13.78,0,0,1-3.23,6.15A12.15,12.15,0,0,1,98.07,375c-2.67.82-4.2,1.33-4.61,1.54a11.75,11.75,0,0,0-4.77,4.61,31.81,31.81,0,0,0-4.76,12.45A29.37,29.37,0,0,0,84.85,407,20.69,20.69,0,0,0,89,414.65q2.93,2.78,10,5.23,2.78,6.45,3.69,16.75.46,5.83,1.54,17.52a4.23,4.23,0,0,0,.92,2.61,20.23,20.23,0,0,0-.46,4.92l.31,7.84a21.64,21.64,0,0,0,1.38,7.38,7.88,7.88,0,0,0,2.46,2.76,5.56,5.56,0,0,0,3.53.93m6.15-126.34c.51.72.67,2,.46,3.84a8.65,8.65,0,0,0,2.15,3.23q1.08,2.46-3.07,6-2.55,2.07-4.46,2a3.12,3.12,0,0,1-.31,1.69,7.55,7.55,0,0,1-2.3,2.46c-.1.92-1.08,2.1-2.92,3.54a48.51,48.51,0,0,0-3.69,3.84,9,9,0,0,1-4.15,2.61c-.92.21-1.54.05-1.84-.46-.11-.51.2-1.13.92-1.84l3.23-2.77a1.83,1.83,0,0,0,.92-1.08l.61-1.38a3.32,3.32,0,0,1,2.15-1.84,12,12,0,0,0,1.23-.31,2.22,2.22,0,0,0,1.08-.77l.46-1.38a4.26,4.26,0,0,1,2.15-2.92l.31-.16a5.49,5.49,0,0,1-1.69-2.76,5.17,5.17,0,0,1,.61-4.61,3.45,3.45,0,0,1,1.85-1.54,3.14,3.14,0,0,1,2.3-.31,4.57,4.57,0,0,0,.16-3.07,12.44,12.44,0,0,0-3.54-1.69,25.73,25.73,0,0,1-3.53-1.39,30.76,30.76,0,0,1-6.15-4.3c-1.84-1.64-2.87-3-3.07-4.15-.21-1.74.87-3.79,3.22-6.15q1.55.31,1.23,2.46a29,29,0,0,0-.77,3.08,6.26,6.26,0,0,0,1.23,2.15q4,4.61,13.22,6.91a3.46,3.46,0,0,1,2,1.08M91.15,390.83c.41-1.13.92-1.49,1.54-1.08a1.21,1.21,0,0,1,.46,1.08,29.9,29.9,0,0,1-.92,5.53,18.27,18.27,0,0,0-.31,5.53c.21,1.54,1.23,3.64,3.08,6.31a40,40,0,0,0,5.84,7.22c1,1.13,1.63,1.79,1.84,2,.51,1.12.36,1.94-.46,2.46q-1.08-1.54-6-4c-3-1.33-4.5-3.07-4.61-5.22v-2a5.07,5.07,0,0,0-1.07-1.08,4.87,4.87,0,0,1-1.08-1.07c-.31-.41-.31-1.44,0-3.08a45.08,45.08,0,0,0,.46-6.45,15.66,15.66,0,0,1,1.23-6.15m12.14,36.73a6,6,0,0,1-.92-2.46,5.66,5.66,0,0,1-.31-4,4.26,4.26,0,0,1,1.08-1.85,2.8,2.8,0,0,1,2-.46,3.11,3.11,0,0,1,1.84,1.38l1.69,1.54c.72.92,1,1.59.93,2s.05.61.15.61a3.42,3.42,0,0,1-1.84,4.31A3.34,3.34,0,0,1,103.29,427.56Z"/><path class="cls-2" d="M108.83,249.59a2.1,2.1,0,0,0-1.08,2l.77,1.69a11.58,11.58,0,0,0,1.54,2.16l1.07.76a1.76,1.76,0,0,0,1.85-.61,4,4,0,0,0,.92-1.85l-.46-1.07-1.23-2-1.08-1.23a2,2,0,0,0-2.3.16M105,558.2c.1.51.3,1.9.61,4.15.41,1.74,1.13,2.87,2.15,3.38a3,3,0,0,0,2.77-.15,5.42,5.42,0,0,0,2.15-2.15,9.4,9.4,0,0,0,0-5.84l-2-6a4.6,4.6,0,0,0-1.54-2.46,2.19,2.19,0,0,0-3.07.46,4.34,4.34,0,0,0-1.69,2.92,5.56,5.56,0,0,0-.15,3.39l.77,2.3M92.69,389.75c-.62-.41-1.13-.05-1.54,1.08A15.66,15.66,0,0,0,89.92,397a45.08,45.08,0,0,1-.46,6.45c-.31,1.64-.31,2.67,0,3.08a4.87,4.87,0,0,0,1.08,1.07,5.07,5.07,0,0,1,1.07,1.08v2c.11,2.15,1.64,3.89,4.61,5.22q4.92,2.46,6,4c.82-.52,1-1.34.46-2.46-.21-.21-.82-.87-1.84-2A40,40,0,0,1,95,408.2c-1.85-2.67-2.87-4.77-3.08-6.31a18.27,18.27,0,0,1,.31-5.53,29.9,29.9,0,0,0,.92-5.53A1.21,1.21,0,0,0,92.69,389.75Z"/><path class="cls-3" d="M131.11,198.25a5.06,5.06,0,0,0,1.23.62,9.94,9.94,0,0,0,7.69-.31,11.74,11.74,0,0,0,4.76-4q4-5.07,3.23-10.14a10.84,10.84,0,0,0-4.77-6.76,12.5,12.5,0,0,0-4.45-1.85,9.22,9.22,0,0,0-8.76-3.53,22.4,22.4,0,0,1-4.46-.31,23.23,23.23,0,0,1-5.69-2.61c-2.76-.82-4.66-.41-5.68,1.23a3.67,3.67,0,0,0,0,3.84A8.88,8.88,0,0,0,117,177.2a31.89,31.89,0,0,0,4,1.84,3.5,3.5,0,0,1,2.46,1.23c.2.41,0,1.64-.46,3.69a6.15,6.15,0,0,0,0,3.84,5.49,5.49,0,0,0,2.3,3.07V191q-5.68,1.54-7.07,4.61c-.1.31-.3,1.18-.61,2.61a6.88,6.88,0,0,1-.92,2.46,5.09,5.09,0,0,1-2.62,1.69c-.61.31-1.59.72-2.92,1.23q-2,1.08-5.07,5.84-1.84,3.54-3.69,4.3-2,.78-7.53-.92a13.92,13.92,0,0,0-6-1.07c-2.46.41-4.1,1.53-4.92,3.38a5.69,5.69,0,0,0,.46,4.92,21.19,21.19,0,0,0,2.92,4q11.37,13.06,16,17.06a13.87,13.87,0,0,0,2.77,1.85v.61a3.56,3.56,0,0,0,.62,2.46,2.42,2.42,0,0,0,1.38.77,2.29,2.29,0,0,0,2.3,0,1.78,1.78,0,0,0,.62-1.23,3.2,3.2,0,0,0,0-1.38,16.46,16.46,0,0,0-.15-2.46,4.77,4.77,0,0,0,.15-3.23,12.49,12.49,0,0,1-.62-4,7.54,7.54,0,0,1,.47-2.3c.41-1.23.66-2,.76-2.31a8.13,8.13,0,0,0-1.38-6.91,16.07,16.07,0,0,0-5.22-4.77c.3-.82,1.38-1.59,3.22-2.3a12.8,12.8,0,0,0,3.69-2.62,23.89,23.89,0,0,1,3.54-2.92,35.71,35.71,0,0,0,5.53-2.61,8.81,8.81,0,0,0,4.76-7.68,20.82,20.82,0,0,0,5.38-1.85M102.37,425.1a6,6,0,0,0,.92,2.46,3.34,3.34,0,0,0,4.62,1.08,3.42,3.42,0,0,0,1.84-4.31c-.1,0-.15-.2-.15-.61s-.21-1.08-.93-2L107,420.18a3.11,3.11,0,0,0-1.84-1.38,2.8,2.8,0,0,0-2,.46,4.26,4.26,0,0,0-1.08,1.85,5.66,5.66,0,0,0,.31,4m16.6-67c.21-1.84,0-3.12-.46-3.84a3.46,3.46,0,0,0-2-1.08q-9.23-2.3-13.22-6.91a6.26,6.26,0,0,1-1.23-2.15,29,29,0,0,1,.77-3.08q.32-2.14-1.23-2.46c-2.35,2.36-3.43,4.41-3.22,6.15.2,1.13,1.23,2.51,3.07,4.15a30.76,30.76,0,0,0,6.15,4.3,25.73,25.73,0,0,0,3.53,1.39,12.44,12.44,0,0,1,3.54,1.69,4.57,4.57,0,0,1-.16,3.07,3.14,3.14,0,0,0-2.3.31,3.45,3.45,0,0,0-1.85,1.54,5.17,5.17,0,0,0-.61,4.61,5.49,5.49,0,0,0,1.69,2.76l-.31.16a4.26,4.26,0,0,0-2.15,2.92l-.46,1.38a2.22,2.22,0,0,1-1.08.77,12,12,0,0,1-1.23.31,3.32,3.32,0,0,0-2.15,1.84l-.61,1.38a1.83,1.83,0,0,1-.92,1.08l-3.23,2.77c-.72.71-1,1.33-.92,1.84.3.51.92.67,1.84.46a9,9,0,0,0,4.15-2.61,48.51,48.51,0,0,1,3.69-3.84c1.84-1.44,2.82-2.62,2.92-3.54a7.55,7.55,0,0,0,2.3-2.46,3.12,3.12,0,0,0,.31-1.69q1.91.07,4.46-2,4.15-3.53,3.07-6A8.65,8.65,0,0,1,119,358.09Z"/></g><path id="Layer0_9_MEMBER_1_1_STROKES" data-name="Layer0 9 MEMBER 1 1 STROKES" class="cls-4" d="M202.87,0V612.61H0V0Z"/></g></g></svg>