<svg xmlns="http://www.w3.org/2000/svg" viewBox="0 0 202.87 612.61"><defs><style>.cls-1{fill:#ad4dc4;}.cls-2{fill:#f3bbff;}.cls-3{fill:#e2e2e2;}.cls-4{fill:none;}</style></defs><g id="Layer_2" data-name="Layer 2"><g id="Layer_1-2" data-name="Layer 1"><g id="Layer0_10_MEMBER_0_FILL" data-name="Layer0 10 MEMBER 0 FILL"><path class="cls-1" d="M118.51,169.08A50.12,50.12,0,0,0,124,163.4a10.87,10.87,0,0,0,2.15-7.53,5.63,5.63,0,0,0-1.22-2.62,3.27,3.27,0,0,0-2.31-1.38,2.67,2.67,0,0,0-2.77,1.07,13.51,13.51,0,0,0-1.23,2.77q-1.38,3.22-6.76,6.92l-1.84,1.07a4.31,4.31,0,0,1-2.31,0l-4.46-.15a9,9,0,0,0-4.91.61A21.19,21.19,0,0,0,95.61,166q-2,.77-4.76-.77l-4-3.07a29.94,29.94,0,0,1-4.92-2.92,23,23,0,0,0-1.84-2.31,4.31,4.31,0,0,0,.15-2.3,6.94,6.94,0,0,0-1.69-4.31,5.4,5.4,0,0,0-4.3-2,4.26,4.26,0,0,0-2.62,1.23,3.89,3.89,0,0,0-1.38,2.62c-.31,1.94.62,3.89,2.77,5.84a1.74,1.74,0,0,0,.61.3,5.6,5.6,0,0,0,.46,1.23A39.3,39.3,0,0,0,77.47,164q1.4,1.85,4,5.53A24.48,24.48,0,0,0,87,173.39l3.54,2a18.46,18.46,0,0,0,4.76,2,10,10,0,0,0,4.92,0,6.16,6.16,0,0,0,3.54-2.46,5.39,5.39,0,0,1,1.23-1.69,3.39,3.39,0,0,1,2-.46c3.59.21,6.46-.31,8.61-1.54l2.92-2.15m30.43-45.34a13.19,13.19,0,0,0-2.15-6,4.48,4.48,0,0,0-2.61-1.85,4,4,0,0,0-3.08.31,5.06,5.06,0,0,0-2.15,3.84,17.24,17.24,0,0,0,.46,4.62l.77,3.38a6.65,6.65,0,0,0,2,4,3.38,3.38,0,0,0,4.3,0,6.3,6.3,0,0,0,2.46-3.84,15.48,15.48,0,0,0,0-4.46m-10.45-22.13a2.8,2.8,0,0,0,1.54.16,2.74,2.74,0,0,0,1.07-1.08,6.11,6.11,0,0,0,.16-4.15l-3.54-6.76a7.3,7.3,0,0,0-1.54-2,3.51,3.51,0,0,0-4.3-.15,4,4,0,0,0-1.84,4,10.42,10.42,0,0,0,1.07,2.92q3.22,5.53,7.38,7.07m-29.2,167.22a8.25,8.25,0,0,0-5.38.31,10.38,10.38,0,0,0-3.23-4.31,8.15,8.15,0,0,0-4.92-2.15,8.54,8.54,0,0,0-5.22,1.08,7.89,7.89,0,0,0-3.69,3.84,8.11,8.11,0,0,0,.61,8.3,11.78,11.78,0,0,0,6.61,5.38l.93.31a7.87,7.87,0,0,0,.46,2.61c.51,1.64,2,3.58,4.45,5.84a13.31,13.31,0,0,0,2.46,1.84c1.23.52,3.08.46,5.54-.15a8.47,8.47,0,0,0,2.15-1.23,2.57,2.57,0,0,0-.46-2.46l-1.39-2.3a31.83,31.83,0,0,1-2-3.85.53.53,0,0,0,.31-.15,6.91,6.91,0,0,0,1.69-2.31,25.61,25.61,0,0,1,1.23-2.45,15.9,15.9,0,0,0,2.46-3.85c.31-1.94-.56-3.38-2.61-4.3m4.92-28.89q-1.54-2.92-2.31-4.46-1.23-3.07-1.84-4.46a23.81,23.81,0,0,1-2-4.3,11.79,11.79,0,0,0-.77-3.38,14.57,14.57,0,0,1-.77-1.85l.16-.31a8.19,8.19,0,0,0,4.3-1.53,24.59,24.59,0,0,0,3.69-2.92,34.45,34.45,0,0,1,4-3.38,27.11,27.11,0,0,1,6.46-3.08,21,21,0,0,0,6.3-3.07,30.93,30.93,0,0,1,3.07-2.15,8.86,8.86,0,0,1,3.69-.16,12.18,12.18,0,0,0,5.38-.46q4.31-1.68,7.38-8.3,3.84-8.61,2.61-16.29a19.92,19.92,0,0,0-3.38-7.53,15,15,0,0,0-6.61-4.76,24.39,24.39,0,0,0-7.22-.77,20.55,20.55,0,0,0-8,.77,13.54,13.54,0,0,0-7.07,6.14,18.37,18.37,0,0,0-2.16,15.68c.93,2.87,1.23,4.87.93,6-.21,1.54-1.28,2.92-3.23,4.15-1,.72-2.56,1.75-4.61,3.08a26.56,26.56,0,0,0-4.15,4.76c-.21.21-1.13,1.23-2.77,3.08a22,22,0,0,0-2.3,3.22l-.16.31a10.48,10.48,0,0,0-3.38.77l-2,.77a13.4,13.4,0,0,1-3.38-.16,8.72,8.72,0,0,0-5.22,1.39,8.5,8.5,0,0,0-1.08.92,84.77,84.77,0,0,1-10.45-5.38c-2.36-1.23-3.84-2.46-4.46-3.69a10.73,10.73,0,0,1-.92-4.76,12.57,12.57,0,0,0-1.07-4.61c-1.23-1.75-2.62-2.31-4.15-1.69-1.34.51-2,2.25-2,5.22q0,7.06,2.3,10l3.38,3.38a26.45,26.45,0,0,1,4,6.15,13.33,13.33,0,0,0,10,5.69,5.31,5.31,0,0,1-.92-1.08,6.15,6.15,0,0,1-1.23-3.69c0-1.64.66-2.61,2-2.92s2.66.16,4,1.69a3.6,3.6,0,0,0,1.54,1.39,3.76,3.76,0,0,0,2.15,0,15.16,15.16,0,0,1,4.77.15,7.94,7.94,0,0,1,3.53,1.08,13,13,0,0,1,2.61,3.07,46.34,46.34,0,0,1,4,8.91,3.37,3.37,0,0,1-.15,2.31c-.72.92-1.64,1-2.77.31a6.82,6.82,0,0,1-1.85-2.62L98.22,229a3.06,3.06,0,0,0-.77-1.07,2.15,2.15,0,0,0-1.84.3c-.92.52-2.31,1.34-4.15,2.46A5.83,5.83,0,0,1,87,230.1a6.72,6.72,0,0,1-2.15-1.69,10.85,10.85,0,0,0,1.23,3.23A7.18,7.18,0,0,0,89,235.17a16.78,16.78,0,0,0,2.77,1.23,11.89,11.89,0,0,0,5.07,1.08,4.74,4.74,0,0,1,2.15.3,8.58,8.58,0,0,0-1.38,5.69,7.67,7.67,0,0,0,2.46,5.07,8.32,8.32,0,0,0,5.07,2.61,8.11,8.11,0,0,0,5.53-1.07,8.6,8.6,0,0,0,3.54-4.46,7.83,7.83,0,0,0,0-5.68M137,196.75a8.68,8.68,0,0,1-1.69,3.38,14.92,14.92,0,0,1-2.92,2A10.9,10.9,0,0,0,130,206q-2,3.08-8.92,3.38c-1.84,0-3-.31-3.53-.92-.72-.92-.51-2.36.61-4.31a61.78,61.78,0,0,1,5.84-8.91c1.57-2,2.69-3.41,3.38-4.3a12.63,12.63,0,0,1-1.53-7.53,9.79,9.79,0,0,1,2.76-5.84q2.92-2.78,10.76-2.46,4.77,0,6.15,2.3c.41.62.61,2.26.61,4.92v4a20.61,20.61,0,0,1-.3,3.84,9.74,9.74,0,0,1-2.77,4.3,8.72,8.72,0,0,1-4.76,2.15,10.23,10.23,0,0,1-1.39.16m-1.23,46.11a7.63,7.63,0,0,0-1.38,3.68,5.5,5.5,0,0,0,1.08,4.31,5.24,5.24,0,0,0,3.84,2.3,4.92,4.92,0,0,0,4.3-1.38,6.65,6.65,0,0,0,1.85-4,5.76,5.76,0,0,0-2.46-5.68,4.84,4.84,0,0,0-3.69-.93,6.07,6.07,0,0,0-3.54,1.7m-17.36,6.91a7,7,0,0,0-5.23-.15,7.62,7.62,0,0,0-4.46,2.92,10.12,10.12,0,0,0-1.84,6q0,6.62,5.07,9.68a10,10,0,0,0,7.38,1.23,15.78,15.78,0,0,0,7.22-3.22,11.13,11.13,0,0,0,3.38-4.61,6.35,6.35,0,0,0-.46-4.92,8.17,8.17,0,0,0-3.69-3.54l-2.92-1.07a37.84,37.84,0,0,1-4.45-2.31m-4.92,6.92a4.69,4.69,0,0,1,3.69-2.46,4.53,4.53,0,0,1,3.53.92,5.46,5.46,0,0,1,1.69,2.77,5,5,0,0,1-.46,3.22,3,3,0,0,0-.61,1.54v.77a1.47,1.47,0,0,1-.62,1.23c-.72.72-1.89.77-3.53.15l-1.39-.61-.92-1.23a7.31,7.31,0,0,1-1.23-1.85,4.55,4.55,0,0,1-.15-4.45m-6.92,352.42a2.18,2.18,0,0,0,.46,2.61,1.75,1.75,0,0,0,2.46.61,12.67,12.67,0,0,0,.92-1.07c.31-.82.41-1.33.31-1.54h-.31a2.1,2.1,0,0,0-.3-1.38,2.31,2.31,0,0,0-1.23-.77l-1.23.15a2.23,2.23,0,0,0-1.08,1.39m-1.23-26a8.28,8.28,0,0,0-.77,2.61q-.76,6.62-.46,8.3.61,3.69,3.23,3.85c1.43.3,2.61-.31,3.54-1.85a10.48,10.48,0,0,0,.76-4.3,42.83,42.83,0,0,0-.61-5.84,5.54,5.54,0,0,0-1.08-3.08,2.34,2.34,0,0,0-2.3-.92,2.72,2.72,0,0,0-2.31,1.23m9.84-232.38a9.89,9.89,0,0,0-2.77,0q-.12-5-3.53-11.84-1.69-3.37-1.39-4.91a8.28,8.28,0,0,1,1.69-3.69,7.15,7.15,0,0,1,1.39-1.54,12.79,12.79,0,0,1,2.46-1.23,25.55,25.55,0,0,0,4.61-2.46c2-1.43,3.17-2.82,3.38-4.15q.61-2.61-2.15-6.76c-1-1.23-1.85-1.9-2.46-2a1.66,1.66,0,0,0-2.15,1.23,6.42,6.42,0,0,0-.31,2.31,39.89,39.89,0,0,1-2.15,3.68l-1.39,2.31a5.61,5.61,0,0,1-2.15.77l-4.45.92q-5.54.93-7.69,3.07c-1.54,1.44-2.61,3.8-3.23,7.07a43.57,43.57,0,0,0-.61,6.15,18,18,0,0,0,.77,4.61,13.19,13.19,0,0,0,2.92,3.54,31.64,31.64,0,0,1,3.53,3.23,43.76,43.76,0,0,1,3.38,4.61,10.63,10.63,0,0,0,2.92,2.3,11.53,11.53,0,0,0,.16,4.61c.51,2.05.77,3.18.77,3.38l-.31,1.85q-.93,6.15,3.07,8.76a7.94,7.94,0,0,0,5.23,1.07,10.82,10.82,0,0,0,5.07-2.3A10.05,10.05,0,0,0,123,371a23.05,23.05,0,0,0,.92-7.54,13.85,13.85,0,0,0,3.84-1.38,4.13,4.13,0,0,0,1.54-1.38,4,4,0,0,0,.77-2.62,35.22,35.22,0,0,0-2-14L127,342a3.09,3.09,0,0,0-2.3-.92,2.64,2.64,0,0,0-2.31,1.07,4.75,4.75,0,0,0-1.07,2,9.6,9.6,0,0,0-.46,3.07,23.17,23.17,0,0,0,.76,4.46,12.46,12.46,0,0,1,.62,4.3,8.22,8.22,0,0,0-7.07-5.22M113.75,362c.92-.72,2.1-.72,3.53,0a3.72,3.72,0,0,1,1.69,1.38,4.39,4.39,0,0,1,.46,2l.16,2.3c0,.52.1.67.3.46-.41,1.75-1.12,2.82-2.15,3.23a14.74,14.74,0,0,1-1.69.46l-2.61-.76a3.31,3.31,0,0,1-1.54-2,7.26,7.26,0,0,1,.31-2.62l.31-2.45a3,3,0,0,1,1.23-2m-8-22.29a27,27,0,0,0,1.23,3.69l.62,4A19.67,19.67,0,0,0,111,352.9l.31,1.23a1.92,1.92,0,0,1-1.39,1.23l-1.69-.31a18.35,18.35,0,0,1-4.92-2,6.47,6.47,0,0,1-2.92-4.15,10.47,10.47,0,0,0-.15-3.38c-.72-1-1.23-1.79-1.54-2.3q-1.38-2-.3-6.61a13.56,13.56,0,0,1,1.38-4,3.35,3.35,0,0,1,3.53-1.54c1.44.41,2.26,1.7,2.46,3.85v4.76M97.92,552.85a29,29,0,0,0-.31,6.92,11.37,11.37,0,0,0,3.84,6.61,6.84,6.84,0,0,0,2.92,1.69c1.43.1,2.82-.62,4.15-2.15a17.53,17.53,0,0,0,1.69-20.44c-.92-1.44-1.49-2.36-1.69-2.77-.51-1.43-1.08-2.25-1.69-2.46a2.49,2.49,0,0,0-2,.77c-.1.1-.56.72-1.38,1.84L101,545c-1.13,1.12-2.15,3.74-3.07,7.83m3.68,6.46a6.23,6.23,0,0,1-.15-2.46q.15-2,.15-2.61l-.3-2.62c0-2.35,1.07-3.79,3.22-4.3a8.54,8.54,0,0,1,4.92,4,8.1,8.1,0,0,1,.77,6.3,9.12,9.12,0,0,1-2,3.23,3.88,3.88,0,0,1-3.38,1.07,3.62,3.62,0,0,1-3.23-2.61M105,524.42a20.17,20.17,0,0,1-1.08,5.23,10.68,10.68,0,0,0,2,7.53,3.81,3.81,0,0,0,1.69,1.23,2.79,2.79,0,0,0,2.46-1.85,24.68,24.68,0,0,0,1.84-5.07,20.08,20.08,0,0,0-.77-10.14c-.61-1.85-1.53-2.92-2.76-3.23a2.81,2.81,0,0,0-2.31.46,3,3,0,0,0-1.23,1.84,19.83,19.83,0,0,0,.16,4m-3.23-33.66c.3,3.59.51,5.59.61,6a5.66,5.66,0,0,0,1.85,2.46,3.56,3.56,0,0,0,2.61.76c1.84-.41,3-2,3.38-4.76a24.56,24.56,0,0,0-.46-8.92,26.19,26.19,0,0,0-1.23-3.38,3.5,3.5,0,0,0-2.92-1.84,3.15,3.15,0,0,0-2.61,1.08,5,5,0,0,0-1.39,2.61,9.82,9.82,0,0,0-.15,3.07,20.75,20.75,0,0,0,.31,2.92m6.45-48.56.31-3.69a64.1,64.1,0,0,1,1.08-7.07l.92-3.69a7.27,7.27,0,0,0-.46-3.08,4.39,4.39,0,0,1-.46-2.3,3.2,3.2,0,0,1,.92-1.85q2.15-3.37,2.15-5.22v-1.85a13.68,13.68,0,0,1,1.08-3.84c-.31.21-.47-.05-.47-.77a2.13,2.13,0,0,0-1.07-1.69,2,2,0,0,0-1.85-.3,4.5,4.5,0,0,0-2.92,2.61l-1.53,3.69c-.72,1.12-1.33,1.69-1.85,1.69a6.46,6.46,0,0,0-4.61-.46c-.26,0-.52.1-.77.15a6,6,0,0,0-.3-1.38l-.93-1.54-2-2.61a18.86,18.86,0,0,1-1.08-2c.2-.19.41-.39.62-.62a5.38,5.38,0,0,0,1.69-4.61,16.51,16.51,0,0,1-1.08-5.68c.51-1.44.87-2.51,1.08-3.23a6.5,6.5,0,0,0-1.54-6.3,36.54,36.54,0,0,0,4.92-3.08c1-.61,1.48-1.28,1.38-2-.31-.93-1.08-1.28-2.31-1.08a13,13,0,0,0-2.45.92,6.57,6.57,0,0,1-3.85-.3,10.52,10.52,0,0,0-3.84-.62,5.38,5.38,0,0,0-3.53,3.23l-3.08,8.3a13.47,13.47,0,0,0,1.69,12.29q2.46,4,6.3,4.15H91a11.13,11.13,0,0,0,2.77,6.46,4.53,4.53,0,0,0,1.84,1.53,3,3,0,0,0-.31.31,8.47,8.47,0,0,0-2,4.31,9.62,9.62,0,0,0,.31,4.91,18.42,18.42,0,0,0,2.61,3.38l2.46,2.46,1.39,1.85.46,3.23a19.37,19.37,0,0,0,3.07,9.52,11.41,11.41,0,0,0,1.69,2c.92.72,1.69.87,2.31.46.51-.2.87-.76,1.07-1.69-.2-2.15-.35-3.79-.46-4.91M87.93,388.25a2,2,0,0,1,2.15.46,2.94,2.94,0,0,1,.61,2.15l-.15,1.08.15,1.07a15,15,0,0,1,.31,4.15,4.7,4.7,0,0,1-.46,2.15c-.62.82-1.18,1.23-1.69,1.23-1.33.21-2.21-.46-2.62-2L85.77,395a11.65,11.65,0,0,1-.46-3.53,3.85,3.85,0,0,1,.92-1.69c.52-.93,1.08-1.44,1.7-1.54m18.44,35.5a7.33,7.33,0,0,1,.92,3.08l.31.3a4.61,4.61,0,0,1-2.15,4.15,3.71,3.71,0,0,1-4.61.16A5.85,5.85,0,0,1,99,429.13a6.66,6.66,0,0,1-.92-2.15,4.58,4.58,0,0,1,1.23-4.3,4.38,4.38,0,0,1,4.15-1.23,6.21,6.21,0,0,1,2.92,2.3m7.53,53.49c1.13-.52,2-2,2.77-4.46l.76-4.76a12.13,12.13,0,0,0-.3-5.54,7.24,7.24,0,0,0-3.69-3.53c-1.74-.82-3-.57-3.84.77a4.92,4.92,0,0,0-.47,2.46,20.32,20.32,0,0,1-.92,3.53,16.92,16.92,0,0,0-.61,4.92,9.61,9.61,0,0,0,1.53,5.07C110.57,477.54,112.16,478.06,113.9,477.24Z"/><path class="cls-2" d="M102.06,236.55a6.82,6.82,0,0,0,1.85,2.62c1.13.71,2,.61,2.77-.31a3.37,3.37,0,0,0,.15-2.31,46.34,46.34,0,0,0-4-8.91,13,13,0,0,0-2.61-3.07,7.94,7.94,0,0,0-3.53-1.08,15.16,15.16,0,0,0-4.77-.15,3.76,3.76,0,0,1-2.15,0A3.6,3.6,0,0,1,88.23,222c-1.33-1.53-2.66-2.1-4-1.69s-2,1.28-2,2.92a6.15,6.15,0,0,0,1.23,3.69,5.31,5.31,0,0,0,.92,1.08.9.9,0,0,0,.46.46A6.72,6.72,0,0,0,87,230.1a5.83,5.83,0,0,0,4.46.61c1.84-1.12,3.23-1.94,4.15-2.46a2.15,2.15,0,0,1,1.84-.3,3.06,3.06,0,0,1,.77,1.07l3.84,7.53m33.2-36.42a8.68,8.68,0,0,0,1.69-3.38,10.23,10.23,0,0,0,1.39-.16,8.72,8.72,0,0,0,4.76-2.15,9.74,9.74,0,0,0,2.77-4.3,20.61,20.61,0,0,0,.3-3.84v-4c0-2.66-.2-4.3-.61-4.92q-1.38-2.3-6.15-2.3-7.83-.32-10.76,2.46a9.79,9.79,0,0,0-2.76,5.84,12.63,12.63,0,0,0,1.53,7.53c-.69.89-1.81,2.33-3.38,4.3a61.78,61.78,0,0,0-5.84,8.91c-1.12,1.95-1.33,3.39-.61,4.31.51.61,1.69.92,3.53.92q6.91-.3,8.92-3.38a10.9,10.9,0,0,1,2.3-3.84,14.92,14.92,0,0,0,2.92-2m-18.13,54.1a4.69,4.69,0,0,0-3.69,2.46,4.55,4.55,0,0,0,.15,4.45,7.31,7.31,0,0,0,1.23,1.85l.92,1.23,1.39.61c1.64.62,2.81.57,3.53-.15a1.47,1.47,0,0,0,.62-1.23v-.77a3,3,0,0,1,.61-1.54,5,5,0,0,0,.46-3.22,5.46,5.46,0,0,0-1.69-2.77,4.53,4.53,0,0,0-3.53-.92M107,343.37a27,27,0,0,1-1.23-3.69v-4.76c-.2-2.15-1-3.44-2.46-3.85a3.35,3.35,0,0,0-3.53,1.54,13.56,13.56,0,0,0-1.38,4q-1.08,4.61.3,6.61c.31.51.82,1.28,1.54,2.3a10.47,10.47,0,0,1,.15,3.38,6.47,6.47,0,0,0,2.92,4.15,18.35,18.35,0,0,0,4.92,2l1.69.31a1.92,1.92,0,0,0,1.39-1.23L111,352.9a19.67,19.67,0,0,1-3.38-5.53l-.62-4m10.3,18.6c-1.43-.72-2.61-.72-3.53,0a3,3,0,0,0-1.23,2l-.31,2.45a7.26,7.26,0,0,0-.31,2.62,3.31,3.31,0,0,0,1.54,2l2.61.76a14.74,14.74,0,0,0,1.69-.46c1-.41,1.74-1.48,2.15-3.23-.2.21-.3.06-.3-.46l-.16-2.3a4.39,4.39,0,0,0-.46-2,3.72,3.72,0,0,0-1.69-1.38m-10,64.86a7.33,7.33,0,0,0-.92-3.08,6.21,6.21,0,0,0-2.92-2.3,4.38,4.38,0,0,0-4.15,1.23,4.58,4.58,0,0,0-1.23,4.3,6.66,6.66,0,0,0,.92,2.15,5.85,5.85,0,0,0,1.85,2.31,3.71,3.71,0,0,0,4.61-.16,4.61,4.61,0,0,0,2.15-4.15l-.31-.3M90.08,388.71a2,2,0,0,0-2.15-.46c-.62.1-1.18.61-1.7,1.54a3.85,3.85,0,0,0-.92,1.69,11.65,11.65,0,0,0,.46,3.53l.46,3.54c.41,1.53,1.29,2.2,2.62,2,.51,0,1.07-.41,1.69-1.23a4.7,4.7,0,0,0,.46-2.15,15,15,0,0,0-.31-4.15l-.15-1.07.15-1.08A2.94,2.94,0,0,0,90.08,388.71Z"/><path class="cls-3" d="M101.45,556.85a6.23,6.23,0,0,0,.15,2.46,3.62,3.62,0,0,0,3.23,2.61,3.88,3.88,0,0,0,3.38-1.07,9.12,9.12,0,0,0,2-3.23,8.1,8.1,0,0,0-.77-6.3,8.54,8.54,0,0,0-4.92-4c-2.15.51-3.22,1.95-3.22,4.3l.3,2.62Q101.6,554.86,101.45,556.85Z"/></g><path id="Layer0_10_MEMBER_1_1_STROKES" data-name="Layer0 10 MEMBER 1 1 STROKES" class="cls-4" d="M202.87,0V612.61H0V0Z"/></g></g></svg>