<svg xmlns="http://www.w3.org/2000/svg" viewBox="0 0 202.87 612.61"><defs><style>.cls-1{fill:#ad4dc4;}.cls-2{fill:#e2e2e2;}.cls-3{fill:#f3bbff;}.cls-4{fill:none;}</style></defs><g id="Layer_2" data-name="Layer 2"><g id="Layer_1-2" data-name="Layer 1"><g id="Layer0_11_MEMBER_0_FILL" data-name="Layer0 11 MEMBER 0 FILL"><path class="cls-1" d="M95.76,191.47a5.6,5.6,0,0,0,5.54.15,5.12,5.12,0,0,0,3.07-4.91c-.1,0-.15-.16-.15-.47a3,3,0,0,0-.62-2.15,5.43,5.43,0,0,0-3.84-2.15,7.91,7.91,0,0,0-4.3,1.38,5.4,5.4,0,0,0-2,2.62,3.6,3.6,0,0,0,.15,3.07,5.09,5.09,0,0,0,2.15,2.46M75,170l-.92,2.31.31.92a2.84,2.84,0,0,0,3.23,1.54,3,3,0,0,0,2.3-2.62h-.3a1.75,1.75,0,0,0-.47-1.84l-.61-.77-1.08-.15A2.56,2.56,0,0,0,75,170m72.24-14.75a11.62,11.62,0,0,0,2.46-4.46c.41-2.05,0-3.58-1.23-4.61a3.31,3.31,0,0,0-3.07-.92,3.84,3.84,0,0,0-2.62,1.69l-.92,2.3a19.45,19.45,0,0,1-2.15,3.23,3.25,3.25,0,0,0-.31,3.54,2.9,2.9,0,0,0,2,1.38,4.94,4.94,0,0,0,2.46,0,5.29,5.29,0,0,0,2-.77,4.21,4.21,0,0,0,1.38-1.38m-23.36,32a9.7,9.7,0,0,0,2.46-3.08,9.3,9.3,0,0,0,.31-4.76,6.09,6.09,0,0,0-2.77-4.15q-2.76-1.69-4.92,0a14.49,14.49,0,0,0-2.61,3.53,12.44,12.44,0,0,1-2,1.39,4.79,4.79,0,0,0-1.84,1.53,4,4,0,0,0-.93,3.38,6,6,0,0,0,1.85,3.08c2,1.54,4.3,1.84,7.07.92a9.29,9.29,0,0,0,3.38-1.84M107.6,303.82a5.35,5.35,0,0,0-.92-3.54,6.16,6.16,0,0,0-5.08-2.3,7.21,7.21,0,0,0-4.45,1.38,3.93,3.93,0,0,0-2.15,4c0,2.35,1.22,4,3.68,4.92a6.13,6.13,0,0,0,7.23-1.08,5.4,5.4,0,0,0,1.69-3.38M92.23,296.6a3.85,3.85,0,0,0-1.54.61,2.62,2.62,0,0,0-.77,2.15,2.91,2.91,0,0,0,.77,2.15,1.78,1.78,0,0,0,1.23.62,2.67,2.67,0,0,0,2.46-.31,2.41,2.41,0,0,0,1.23-2.15l-.15-.15a2.31,2.31,0,0,0-2-2.77l-1.23-.15m30.58-17.68a11,11,0,0,0-10.6,1.54,11.83,11.83,0,0,0-5.23,9.37q0,4,2,6a6.18,6.18,0,0,0,8.92-.77c.84-1.12,1.3-3,1.38-5.53a11,11,0,0,1-2.92,2.76,4.7,4.7,0,0,1-2.61,1.23,3.06,3.06,0,0,1-3.08-1.23,3.68,3.68,0,0,1-.61-3.23,6.4,6.4,0,0,1,1.84-2.76l2.61-2.15a8.34,8.34,0,0,1,2.31-1.08,3.14,3.14,0,0,1,3.23,2.46,4.51,4.51,0,0,1-.31,3.38,5.6,5.6,0,0,0,7.38-3.84,5.21,5.21,0,0,0-.31-3.08,6.44,6.44,0,0,0-4-3.07m11.38-55.33c1.64-.31,3.89-1.48,6.76-3.53.67-.51,1.34-1,2-1.54a6.75,6.75,0,0,1-3.08.61,6.55,6.55,0,0,1-4-1.53,9.92,9.92,0,0,1-3.38-5.84,9.52,9.52,0,0,1,.92-6.77c-1.33-1.12-1.79-3.38-1.38-6.76a15.5,15.5,0,0,1,1.22-4.15,4.06,4.06,0,0,1,3.69-2.15,4,4,0,0,1,3.38,2.15,10.35,10.35,0,0,1,1.23,4.15,6.81,6.81,0,0,1,5.08,2.92,17.36,17.36,0,0,1,2.15,5.54,9.88,9.88,0,0,1,.15,5.68c0,.09,0,.14,0,.16a19.32,19.32,0,0,0,3.54-6.46q.92-4-.77-5.84a4.44,4.44,0,0,0-2.92-1.69l-2-1.54c-1.43-2.35-2.77-3.84-4-4.45l-2.3-.93-2.61-3.07c-1.85-1.74-4.15-2.05-6.92-.92a9,9,0,0,0-4.77,5.38,7.89,7.89,0,0,0-.46,4.61,13.83,13.83,0,0,0,1.08,3.38l1.08,4.46A10.19,10.19,0,0,0,130,209a11.19,11.19,0,0,0-2.92,5.07c-.06.24-.12.45-.16.62l-.15.15-2.92,1.23a11.49,11.49,0,0,0-2.61,1.54,5.31,5.31,0,0,0-1.69,6.15,4.27,4.27,0,0,0,2.15,2.3,4.07,4.07,0,0,0,3.23.46,7.54,7.54,0,0,0,2-1.07,10.45,10.45,0,0,1,2-1.39l1.08-.61a6.8,6.8,0,0,0,4.15.15m-21.52,39v-4a5.46,5.46,0,0,0-2.92-3.84,5.26,5.26,0,0,0-4.76-.46,22.9,22.9,0,0,1-3.69-3.23l-.77-.77a4.23,4.23,0,0,0,2-2.92q.45-3.07-2.62-5.07A10.38,10.38,0,0,0,94.23,241c-3.9-.31-5.89-.46-6-.46-2.66-.82-4.1-1.23-4.3-1.23a4.34,4.34,0,0,0-2.92.15,4.48,4.48,0,0,0-.46-1.69l-1.39-1.54A6.76,6.76,0,0,0,77.63,235a3,3,0,0,0-2.62-.3,3.22,3.22,0,0,0-1.69,2.15,3.56,3.56,0,0,0,.77,2l2.77,2.3.77.31a6.14,6.14,0,0,0,1.38.15,4.18,4.18,0,0,0-.15,2A10,10,0,0,0,80.24,247a10.66,10.66,0,0,0,3.23,3.54,12.33,12.33,0,0,0,6.91,1.69,7.92,7.92,0,0,0,0,1.54,9.65,9.65,0,0,0,2.31,4.76,31.13,31.13,0,0,0,8,6.92,10.62,10.62,0,0,1,2.77,2l1.69,2.31a4.36,4.36,0,0,0,4.76,1.38,4.27,4.27,0,0,0,3.23-3.84,8.84,8.84,0,0,0,0-2.31l-.46-2.3m-4.76-2.46c-.62,1.74-1.64,2.61-3.08,2.61L101.6,262a6.76,6.76,0,0,1-2-1.53l-.77-.77a2.86,2.86,0,0,1-.31-2.61,3.3,3.3,0,0,1,1.54-2.16l2.3-.46,1.69.16,1.85.92,1.38,1.23a3.85,3.85,0,0,1,.62,3.38m-12.76-4.46a4.68,4.68,0,0,1-1.38-1.07,2.59,2.59,0,0,1-.77-2.15,4,4,0,0,1,1.07-2.92,2.71,2.71,0,0,1,2.92-.93,3.53,3.53,0,0,1,1.69,1.08l.93,1.08a3.69,3.69,0,0,1,.15,3.68,2.7,2.7,0,0,1-3.23,1.69l-1.38-.46m-2.77-8.6v1.07l-.15.16-1.08.61-1.07-.61-.46-.93.46-.92.61-.46.62.31,1.07.77m14.14,354.72a4.71,4.71,0,0,0-2.92,2.61,8.65,8.65,0,0,0-.46,2.77,7.89,7.89,0,0,0,.46,3.23,3.77,3.77,0,0,0,2.61,2,4.4,4.4,0,0,0,3.23-.3c2.15-1,3.13-2.87,2.92-5.54a5.94,5.94,0,0,0-1.84-3.84,4.59,4.59,0,0,0-4-.92m-11.22-184a12.65,12.65,0,0,0,.46-9.68,5.77,5.77,0,0,0,4.77-2.62,3.94,3.94,0,0,0,.61-2.61,3.59,3.59,0,0,0-1.07-2.61q-1.54-1.54-5.07-1.23a16.83,16.83,0,0,0-7.84,1.54q-4.45,2-4.46,6.14a6.9,6.9,0,0,0,.77,3.54c.31.82.82,1.95,1.54,3.38,1.12,3.07,1.74,4.71,1.84,4.92a4.33,4.33,0,0,0,4,2.76c1.74,0,3.22-1.17,4.45-3.53M94.23,408h.15a3.3,3.3,0,0,1-1.84,3.69,3.49,3.49,0,0,1-4.15-.61,3.46,3.46,0,0,1-1.08-4,4.28,4.28,0,0,1,3.23-2.77l1.23.16.77.31a4.43,4.43,0,0,1,1.38,1.38,2,2,0,0,1,.31,1.84m2.15-30.27a7.62,7.62,0,0,0,4.92,2,5.73,5.73,0,0,0,4.76-1.84,7.66,7.66,0,0,0,1.54-7.84,17,17,0,0,0-4.46-6.92c-2.46-2.86-4.87-4.3-7.22-4.3a6.78,6.78,0,0,0-4.15,1.85,5.41,5.41,0,0,0-2,4.91,9.45,9.45,0,0,0,1.38,4.61l2.62,4a20.72,20.72,0,0,0,2.61,3.54m7.84-8.92a8.77,8.77,0,0,1-.46,3.23,4.2,4.2,0,0,1-2.77,2.15,4,4,0,0,1-3.38-.77q-1.85-1.53-2.15-5.07a8.7,8.7,0,0,1,.15-3.69,4.73,4.73,0,0,1,2.46-2.61,3.73,3.73,0,0,1,2.15,0,5.54,5.54,0,0,1,3.69,3.69,10.91,10.91,0,0,1,.31,3.07m12.14-30.89a12.59,12.59,0,0,0-2.46,4.15,6.84,6.84,0,0,0-.77,3.07,3.63,3.63,0,0,0,2.61,3.23,3.83,3.83,0,0,0,4-.46,7.22,7.22,0,0,0,2.61-3.07,13.78,13.78,0,0,0,2.15-4.46c-.2.2-.3,0-.3-.62q.15-2.14-2.46-3.38a3.76,3.76,0,0,0-2.92-.31,4.88,4.88,0,0,0-2.46,1.85m8.14,50.87a9.37,9.37,0,0,0,2.46-5.38,11.47,11.47,0,0,0-1.38-5.07c-1.54-2.77-3.48-4.2-5.84-4.3a6.29,6.29,0,0,0-4.15,1.38c-.92.61-2.2,1.54-3.84,2.77q-1.23.92-3.69,2.46a7,7,0,0,0-2.46,4.76,7.07,7.07,0,0,0,1.08,5.23,8.35,8.35,0,0,0,4,3.22,9.9,9.9,0,0,0,5.23.46q4.75-.61,8.6-5.53m-.46-5.53a4.07,4.07,0,0,1-1.23,3.38,8.59,8.59,0,0,1-3.69,2.15,12.66,12.66,0,0,1-3.07.77,5.39,5.39,0,0,1-4.15-1.23q-3.23-2-2.46-5.23a4.34,4.34,0,0,1,1.39-2.3,9.78,9.78,0,0,1,9.68-2.31,5.91,5.91,0,0,1,2.15,1.39,4.29,4.29,0,0,1,1.38,3.38m-18,193.65-.61.31.3,3.23v.15l.62.15a10.23,10.23,0,0,0,.61-3.53l-.92-.31m5.84-1.84a3.27,3.27,0,0,0,1.85-.92,6.48,6.48,0,0,0,1.23-3.69A15.53,15.53,0,0,0,112.05,560a7.89,7.89,0,0,0-1.38-1.23,1.82,1.82,0,0,0-1.84.46,1.91,1.91,0,0,0-.92,1.69l.46,2.15a16.57,16.57,0,0,1,1.23,8c-.21,1.74,0,2.92.61,3.54a1.88,1.88,0,0,0,1.69.46m.31-21.83a6.28,6.28,0,0,0,.92-3.53,38,38,0,0,0,0-4.77,6.22,6.22,0,0,0-1.38-3.69,3.42,3.42,0,0,0-3.38-.92,3.79,3.79,0,0,0-2.62,2.15,9.38,9.38,0,0,0-.46,3.39v2.45a14.16,14.16,0,0,0,.62,4.46,3.54,3.54,0,0,0,3.38,2.46,3.26,3.26,0,0,0,2.92-2m-2.46-39.5a12.47,12.47,0,0,0-.92-6.3,8.89,8.89,0,0,0-2.15-3.84,4,4,0,0,0-3.08-.92,4.48,4.48,0,0,0-2.92,1.23,5.63,5.63,0,0,0-1.38,4.15,11.35,11.35,0,0,0,1.07,4.45,13,13,0,0,0,1.69,3.39,4.41,4.41,0,0,0,3.39,1.84,3.32,3.32,0,0,0,2.76-1.08,5.44,5.44,0,0,0,1.54-2.92m-6-48.1a4.53,4.53,0,0,0,4.3-2.77,9.42,9.42,0,0,0,.77-5.22l-.77-5.38v-3.54a4.79,4.79,0,0,0,3.23-.46c1.61-.85,3.3-2.6,5.07-5.23a11.16,11.16,0,0,1-3.54.31,3.13,3.13,0,0,1-2.3-.92,3,3,0,0,1-.62-1.54,2.91,2.91,0,0,1,.77-2.3,3.43,3.43,0,0,1,2-1.39l1.84-.15a6.16,6.16,0,0,1,2.77.92,3.12,3.12,0,0,1,1.08.93c.07-.47.12-.93.15-1.39a6.9,6.9,0,0,0-1.38-5.53,6.64,6.64,0,0,0-3.85-2.61,4,4,0,0,0-4.3,1.23q-.77.76-2.15,5.07l-2.61,5.38a8.08,8.08,0,0,0-.62,2.46,5,5,0,0,0-.77,0,4.2,4.2,0,0,0-3.38,1.69,7.54,7.54,0,0,0-1.07,4.15l-.16,4.76v.62a7.29,7.29,0,0,1,.46-.93A3.54,3.54,0,0,1,101.3,452a2.87,2.87,0,0,1,2.3.77,3.28,3.28,0,0,1,1.54,2,20.06,20.06,0,0,1,.15,2.92,3.2,3.2,0,0,1,0,1.38,2.71,2.71,0,0,1-2.61,2.46A4.86,4.86,0,0,1,99.14,460a1.38,1.38,0,0,1-.46-.61,12.4,12.4,0,0,0,1.39,4q1.68,2.31,3.69,2.31m14.75,24.13a13.51,13.51,0,0,0,.31-5.07,12.18,12.18,0,0,0-.62-4.15,4.52,4.52,0,0,0-3.07-2.92,3.66,3.66,0,0,0-2.46.61,3.17,3.17,0,0,0-1.38,2.15l.15,2a25.86,25.86,0,0,1,0,6.92l-.15,2a2.74,2.74,0,0,0,1.53,1.85,4,4,0,0,0,2.46.15A4.74,4.74,0,0,0,118.51,489.79Z"/><path class="cls-2" d="M119.28,289.53a3.43,3.43,0,0,1,.46-.62,4.51,4.51,0,0,0,.31-3.38,3.14,3.14,0,0,0-3.23-2.46,8.34,8.34,0,0,0-2.31,1.08l-2.61,2.15a6.4,6.4,0,0,0-1.84,2.76,3.68,3.68,0,0,0,.61,3.23,3.06,3.06,0,0,0,3.08,1.23,4.7,4.7,0,0,0,2.61-1.23,11,11,0,0,0,2.92-2.76m-26.9-41.35v-1.07l-1.07-.77-.62-.31-.61.46-.46.92.46.93,1.07.61,1.08-.61Z"/><path class="cls-3" d="M148.94,212.53s0-.07,0-.16a9.88,9.88,0,0,0-.15-5.68,17.36,17.36,0,0,0-2.15-5.54,6.81,6.81,0,0,0-5.08-2.92,10.35,10.35,0,0,0-1.23-4.15,4,4,0,0,0-3.38-2.15,4.06,4.06,0,0,0-3.69,2.15,15.5,15.5,0,0,0-1.22,4.15c-.41,3.38.05,5.64,1.38,6.76a9.52,9.52,0,0,0-.92,6.77,9.92,9.92,0,0,0,3.38,5.84,6.55,6.55,0,0,0,4,1.53,6.75,6.75,0,0,0,3.08-.61,13.28,13.28,0,0,0,2.15-1.23,10.83,10.83,0,0,0,3.84-4.76M93.77,254.64a4.68,4.68,0,0,0,1.38,1.07l1.38.46a2.7,2.7,0,0,0,3.23-1.69,3.69,3.69,0,0,0-.15-3.68l-.93-1.08A3.53,3.53,0,0,0,97,248.64a2.71,2.71,0,0,0-2.92.93A4,4,0,0,0,93,252.49a2.59,2.59,0,0,0,.77,2.15m11.06,8.14c1.44,0,2.46-.87,3.08-2.61a3.85,3.85,0,0,0-.62-3.38l-1.38-1.23-1.85-.92-1.69-.16-2.3.46a3.3,3.3,0,0,0-1.54,2.16,2.86,2.86,0,0,0,.31,2.61l.77.77a6.76,6.76,0,0,0,2,1.53l3.23.77M94.38,408h-.15a2,2,0,0,0-.31-1.84,4.43,4.43,0,0,0-1.38-1.38l-.77-.31-1.23-.16a4.28,4.28,0,0,0-3.23,2.77,3.46,3.46,0,0,0,1.08,4,3.49,3.49,0,0,0,4.15.61A3.3,3.3,0,0,0,94.38,408m9.38-36a8.77,8.77,0,0,0,.46-3.23,10.91,10.91,0,0,0-.31-3.07,5.54,5.54,0,0,0-3.69-3.69,3.73,3.73,0,0,0-2.15,0,4.73,4.73,0,0,0-2.46,2.61,8.7,8.7,0,0,0-.15,3.69q.3,3.54,2.15,5.07a4,4,0,0,0,3.38.77,4.2,4.2,0,0,0,2.77-2.15m19,14.6a4.07,4.07,0,0,0,1.23-3.38,4.29,4.29,0,0,0-1.38-3.38,5.91,5.91,0,0,0-2.15-1.39,9.78,9.78,0,0,0-9.68,2.31,4.34,4.34,0,0,0-1.39,2.3q-.76,3.24,2.46,5.23a5.39,5.39,0,0,0,4.15,1.23,12.66,12.66,0,0,0,3.07-.77,8.59,8.59,0,0,0,3.69-2.15m-8.3,50.41-1.84.15a3.43,3.43,0,0,0-2,1.39,2.91,2.91,0,0,0-.77,2.3,3,3,0,0,0,.62,1.54,3.13,3.13,0,0,0,2.3.92,11.16,11.16,0,0,0,3.54-.31h0l1.23-.76a2.73,2.73,0,0,0,.77-2,3.21,3.21,0,0,0,0-1.38,3.12,3.12,0,0,0-1.08-.93,6.16,6.16,0,0,0-2.77-.92m-9.22,20.6a20.06,20.06,0,0,0-.15-2.92,3.28,3.28,0,0,0-1.54-2,2.87,2.87,0,0,0-2.3-.77,3.54,3.54,0,0,0-2.62,1.84,7.29,7.29,0,0,0-.46.93,5.14,5.14,0,0,0-.3,2.3,3.35,3.35,0,0,0,.3,1.69,1.62,1.62,0,0,0,.46.62,1.38,1.38,0,0,0,.46.61,4.86,4.86,0,0,0,3.54,1.54,2.71,2.71,0,0,0,2.61-2.46A3.2,3.2,0,0,0,105.29,457.67Z"/></g><path id="Layer0_11_MEMBER_1_1_STROKES" data-name="Layer0 11 MEMBER 1 1 STROKES" class="cls-4" d="M202.87,0V612.61H0V0Z"/></g></g></svg>