<svg xmlns="http://www.w3.org/2000/svg" viewBox="0 0 202.87 612.61"><defs><style>.cls-1{fill:#ad4dc4;}.cls-2{fill:#f3bbff;}.cls-3{fill:none;}</style></defs><g id="Layer_2" data-name="Layer 2"><g id="Layer_1-2" data-name="Layer 1"><g id="Layer0_1_MEMBER_0_FILL" data-name="Layer0 1 MEMBER 0 FILL"><path class="cls-1" d="M107.29,588.63a188.47,188.47,0,0,0,8.3,24,119,119,0,0,1,4.76-26.9q-2.79-8.07-4.3-12.91Q107.44,547.9,115,531a22.83,22.83,0,0,1-8.45-6.92A20.53,20.53,0,0,1,103.75,503a21.71,21.71,0,0,1,6.61-8.91q-13.22-6.3-16.9-22.29a37.49,37.49,0,0,1-1.08-12q-7,21.62,1.38,41.19-6.92,8.3-4.15,20.28,2.92,11.84,13.07,16.14-3.39,6.62-3.08,16.14a122.09,122.09,0,0,0,2.62,16.91Q105,581.41,107.29,588.63Z"/><path class="cls-2" d="M125.27,440.62a30.62,30.62,0,0,0-16.91-7.06A60.93,60.93,0,0,0,93.3,457.22c-.32.87-.62,1.75-.92,2.62a37.49,37.49,0,0,0,1.08,12q3.69,16,16.9,22.29a21.71,21.71,0,0,0-6.61,8.91,20.53,20.53,0,0,0,2.77,21.06A22.83,22.83,0,0,0,115,531q-7.53,16.9,1.08,41.8,1.5,4.85,4.3,12.91c.69-2.37,1.46-4.72,2.31-7.07q4.31-11.22,5.84-17.06,2.91-9.84,1.38-17.21a49.39,49.39,0,0,0-1.07-5.69,27.08,27.08,0,0,1-.77-5.38q.3-5.37,6.14-13.52,4.77-7.08,7.07-11.22a44.12,44.12,0,0,0,4.46-12.14,25.91,25.91,0,0,0-1.54-13.22,16,16,0,0,0-8.45-9.07,30.94,30.94,0,0,0-.31-18.29A30,30,0,0,0,125.27,440.62Z"/></g><path id="Layer0_1_MEMBER_1_1_STROKES" data-name="Layer0 1 MEMBER 1 1 STROKES" class="cls-3" d="M202.87,0V612.61H0V0Z"/></g></g></svg>