<svg xmlns="http://www.w3.org/2000/svg" viewBox="0 0 202.87 612.61"><defs><style>.cls-1{fill:#f3bbff;}.cls-2{fill:#ad4dc4;}.cls-3{fill:none;}</style></defs><g id="Layer_2" data-name="Layer 2"><g id="Layer_1-2" data-name="Layer 1"><g id="Layer0_2_MEMBER_0_FILL" data-name="Layer0 2 MEMBER 0 FILL"><path class="cls-1" d="M115.74,315.06a51.33,51.33,0,0,0-6.61-1.69,66.49,66.49,0,0,0-6.91,4A56,56,0,0,0,85,335.5a35.91,35.91,0,0,0,3.85,14,62.06,62.06,0,0,0,12.29,15.83,172.87,172.87,0,0,0,16.14,13.37q-16.45,12.6-17.52,35.65t14,37.35q-4.14,8.3-3.84,19.67a119.53,119.53,0,0,0,2.77,20.6q7.45,37.83,13.22,66.7a458,458,0,0,1,14-57.48q3.84-12,5.07-16.75a73.31,73.31,0,0,0,2.31-17.06,37.93,37.93,0,0,0-3.84-16.91,26.46,26.46,0,0,0-11.53-12.29q22.44-14.61,25.36-33.05,2-10.75-4.46-20.59-6.76-10.15-17.06-10.15a40,40,0,0,0-.46-45.64A36.48,36.48,0,0,0,115.74,315.06Z"/><path class="cls-2" d="M113.74,597.85q2,6,5.69,14.76a445.28,445.28,0,0,1,6.46-54q-5.76-28.86-13.22-66.7a119.53,119.53,0,0,1-2.77-20.6q-.3-11.37,3.84-19.67-15.06-14.44-14-37.35t17.52-35.65a172.87,172.87,0,0,1-16.14-13.37,62.06,62.06,0,0,1-12.29-15.83,35.91,35.91,0,0,1-3.85-14c-.45.66-.86,1.33-1.23,2a69.68,69.68,0,0,0-6.14,17.36,47.72,47.72,0,0,0,1.23,23.37,47.14,47.14,0,0,0,8.29,14.29q-2.62,3.76-2.92,4.15a50.79,50.79,0,0,0-5.37,10.45q-5.39,12.75-1.23,23.36a20.94,20.94,0,0,0,3.22,5.84q.16.31,4.15,5.38a10.2,10.2,0,0,0,1.23,1.23l-.3.62q-.62,1.53-2.16,4.61a19.44,19.44,0,0,0-.3,8.45q0,10.14,3.84,13.83,2.11,2.26,7.53,3.84a38.11,38.11,0,0,0-3.69,13.53,33.41,33.41,0,0,0,3.07,16.91,71.65,71.65,0,0,0,6.61,10.75,63.58,63.58,0,0,1,6.46,11.07q2.14,6.45,1.54,16-.31,5.54-1.23,16.29Q106.52,576.65,113.74,597.85Z"/></g><path id="Layer0_2_MEMBER_1_1_STROKES" data-name="Layer0 2 MEMBER 1 1 STROKES" class="cls-3" d="M202.87,0V612.61H0V0Z"/></g></g></svg>