<svg xmlns="http://www.w3.org/2000/svg" viewBox="0 0 202.87 612.61"><defs><style>.cls-1{fill:#ad4dc4;}.cls-2{fill:#f3bbff;}.cls-3{fill:none;}</style></defs><g id="Layer_2" data-name="Layer 2"><g id="Layer_1-2" data-name="Layer 1"><g id="Layer0_3_MEMBER_0_FILL" data-name="Layer0 3 MEMBER 0 FILL"><path class="cls-1" d="M117.74,597.08c-.25-1-.45-2-.62-3.07q-2.15-14.14-2.61-44.11V483.35q-5.83-3.69-6.15-11.37t5.08-12a23.16,23.16,0,0,1-11.84-10.3,22.9,22.9,0,0,1-3.23-15.52,24.49,24.49,0,0,1,7.69-13.52,22.51,22.51,0,0,1,12.6-6.31q-9.48.68-15.37-9.68-6.15-10.76-2.15-21.21,3.54-9.22,13.22-16.9,6.15-4.92,18.6-11.84-6.93-6.91-18-2.77-10.9,4-11.52,13.84a70.13,70.13,0,0,1-18.14-32.59,72.5,72.5,0,0,1-1.23-32A46.52,46.52,0,0,0,77.32,312a49,49,0,0,0-3.54,29,50.06,50.06,0,0,0,12.76,26.28Q75,385.61,75,401.89a37.1,37.1,0,0,0,4.46,17.83,27.62,27.62,0,0,0,3.84,5.38,30.18,30.18,0,0,0-.61,12.14q1.38,11.53,10,15.37-11.53,12.92-8.15,23.06c.82,1.94,3.13,4.92,6.92,8.91q3.17,3,7.68,7.38c-2.63,3.51-4.43,6.08-5.38,7.68a38.48,38.48,0,0,0-5.38,13.68,23.93,23.93,0,0,0,2,14.76q3.69,7.53,10.76,9.53-8.15,16.9-2,24.89c.41.52,1.9,2,4.46,4.46a10.66,10.66,0,0,1,3.23,4.77q1.07,2.44,0,8.45-1.55,10.29,3.07,22.44a89.83,89.83,0,0,0,4.61,10A83.35,83.35,0,0,1,117.74,597.08Z"/><path class="cls-2" d="M117.74,597.08c.52-1.86,1.13-3.76,1.84-5.68q1.23-3.54,5.38-13.68A85.35,85.35,0,0,0,129.88,564a42.71,42.71,0,0,0,1.08-14.6,25.61,25.61,0,0,0-5.23-13.37q11.83-10.46,13.22-27.36,1.28-15.75-7.07-27.36a57.73,57.73,0,0,1,4.15-6.6q10.91-15.08,12.76-19.83a30.53,30.53,0,0,0-.47-23.06q-4.6-12-15.36-16.9a174.41,174.41,0,0,0,12.75-15.52,50.81,50.81,0,0,0,8.45-17.53,31.93,31.93,0,0,0-1.38-19.82q-4.16-10.14-13.22-13.22a49.84,49.84,0,0,0,5.38-22.9,47.52,47.52,0,0,0-5.84-22.75,48.52,48.52,0,0,0-16.44-17.06,52.85,52.85,0,0,0-6-3.22,53.78,53.78,0,0,0-32.58,18.29,72.5,72.5,0,0,0,1.23,32,70.13,70.13,0,0,0,18.14,32.59q.61-9.84,11.52-13.84,11.07-4.14,18,2.77-12.45,6.92-18.6,11.84-9.69,7.68-13.22,16.9-4,10.46,2.15,21.21,5.89,10.35,15.37,9.68a22.51,22.51,0,0,0-12.6,6.31,24.49,24.49,0,0,0-7.69,13.52,22.9,22.9,0,0,0,3.23,15.52A23.16,23.16,0,0,0,113.44,460q-5.53,4.31-5.08,12t6.15,11.37V549.9q.46,30,2.61,44.11C117.29,595.08,117.49,596.1,117.74,597.08Z"/></g><path id="Layer0_3_MEMBER_1_1_STROKES" data-name="Layer0 3 MEMBER 1 1 STROKES" class="cls-3" d="M202.87,0V612.61H0V0Z"/></g></g></svg>