<svg xmlns="http://www.w3.org/2000/svg" viewBox="0 0 202.87 612.61"><defs><style>.cls-1{fill:#f3bbff;}.cls-2{fill:#ad4dc4;}.cls-3{fill:none;}</style></defs><g id="Layer_2" data-name="Layer 2"><g id="Layer_1-2" data-name="Layer 1"><g id="Layer0_4_MEMBER_0_FILL" data-name="Layer0 4 MEMBER 0 FILL"><path class="cls-1" d="M120.66,537.76q3.69-4.31,5.38-6.46a31.23,31.23,0,0,0,7.84-17.67q.83-8.31-2.92-14.14a38.83,38.83,0,0,0,6.3-8.61,33,33,0,0,0,4.15-21.05q-.47-4.15-7.53-24.9-5.07-14.76-1.23-24a34.23,34.23,0,0,1,5.53-8.91q4.6-5.39,6.76-8.3,9.23-12.6,6.77-29.51a41.27,41.27,0,0,0-8.46-20.6,47.21,47.21,0,0,0,6.61-6.91,43,43,0,0,0,8.92-20.6,45.93,45.93,0,0,0-2.92-22.44,42.87,42.87,0,0,0-13.22-18q8-9.37,8.3-23.05a41.16,41.16,0,0,0-6.77-24.13,52.14,52.14,0,0,0-18-17.37,66.34,66.34,0,0,0-16-6.91,51,51,0,0,0-9.07,5.22,66.79,66.79,0,0,0-12,10.91,67.39,67.39,0,0,0-2.76,16.29,65.57,65.57,0,0,0,5.53,30.28q5.53,10.31,11.83,10.3a12,12,0,0,0,7.23-2c2.87-2.05,5.07-3.53,6.61-4.46q7.83-4,16.9,0,8.91,3.86,11.53,12.3a54.9,54.9,0,0,0-21.36,1.08,40.39,40.39,0,0,0-18.6,10,33,33,0,0,0-10.61,18.29A28.92,28.92,0,0,0,98.07,343q5.22,9.38,16.9,11.83a19.58,19.58,0,0,0,3.54.47c-1,.74-2.06,1.51-3.08,2.3a33.06,33.06,0,0,0-11.68,16.91,32.32,32.32,0,0,0,.62,20.13,33.31,33.31,0,0,0,11.68,16.75q-12.15,10-10.76,28t15.06,26.12a28.5,28.5,0,0,0-7.68,18,26.84,26.84,0,0,0,5.38,18.9q-12.92,5.54-11.22,31.2l4.92,69.93q1.6-2.79,4.45-7.38a56.36,56.36,0,0,0,5.69-11.52,36,36,0,0,0,0-22.29c-1.74-3.59-3-6.35-3.69-8.3a13.92,13.92,0,0,1,2.46-16.29Z"/><path class="cls-2" d="M109.59,607.38c.35-.74,1.07-2,2.16-3.84l-4.92-69.93q-1.69-25.67,11.22-31.2a26.84,26.84,0,0,1-5.38-18.9,28.5,28.5,0,0,1,7.68-18q-13.51-8-15.06-26.12-1.38-18,10.76-28a33.31,33.31,0,0,1-11.68-16.75,32.32,32.32,0,0,1-.62-20.13,33.06,33.06,0,0,1,11.68-16.91c1-.79,2-1.56,3.08-2.3a19.58,19.58,0,0,1-3.54-.47Q103.3,352.4,98.07,343a28.92,28.92,0,0,1-2.62-20.59,33,33,0,0,1,10.61-18.29,40.39,40.39,0,0,1,18.6-10A54.9,54.9,0,0,1,146,293.08q-2.61-8.46-11.53-12.3t-16.9,0c-1.54.93-3.74,2.41-6.61,4.46a12,12,0,0,1-7.23,2q-6.3,0-11.83-10.3a65.57,65.57,0,0,1-5.53-30.28,67.39,67.39,0,0,1,2.76-16.29,74.42,74.42,0,0,0-9.22,13.84Q74.1,255.58,73.48,266q-.78,12.45,6.14,20.44a32.93,32.93,0,0,0,4.46,4.92,10.23,10.23,0,0,1,2.77,5.84c.3,2.25-.46,4.66-2.31,7.22a70.55,70.55,0,0,1-5.38,6.3q-7.22,8-8.6,20.14A49.6,49.6,0,0,0,73,353.33q4.84,13.79,18.14,28.43a48.39,48.39,0,0,0-6,10,41.7,41.7,0,0,0-3.69,18.44,42.24,42.24,0,0,0,4.3,18.6A44.21,44.21,0,0,0,97.61,443.7a27.6,27.6,0,0,0-8,17.21,27.91,27.91,0,0,0,3.85,18.45q.77,1.38,2.61,4.15a15.7,15.7,0,0,1,2,4.3,14.62,14.62,0,0,1-.77,6.76q-.61,1.69-2.77,6.3a55,55,0,0,0,4.46,50,52.89,52.89,0,0,0-5.07,18.6,51.39,51.39,0,0,0,4.15,26.43q1.94,4.78,9.53,16.76A30,30,0,0,1,109.59,607.38Z"/></g><path id="Layer0_4_MEMBER_1_1_STROKES" data-name="Layer0 4 MEMBER 1 1 STROKES" class="cls-3" d="M202.87,0V612.61H0V0Z"/></g></g></svg>