<svg xmlns="http://www.w3.org/2000/svg" viewBox="0 0 202.87 612.61"><defs><style>.cls-1{fill:#f3bbff;}.cls-2{fill:#ad4dc4;}.cls-3{fill:none;}</style></defs><g id="Layer_2" data-name="Layer 2"><g id="Layer_1-2" data-name="Layer 1"><g id="Layer0_5_MEMBER_0_FILL" data-name="Layer0 5 MEMBER 0 FILL"><path class="cls-1" d="M113,280.63a23.14,23.14,0,0,0,10.76-1.54q4.78-1.29,8.92-2.45a44.57,44.57,0,0,0,11.06-11.07,43.93,43.93,0,0,0,7.69-20.29,43.27,43.27,0,0,0-3.69-21.36,54,54,0,0,0-4.92-8.76,67.28,67.28,0,0,0-19.36,2.15q-9.69,2-14.6,5.69-8.58,6.13-10.76,19.05a61.56,61.56,0,0,0-.77,13.22,47.3,47.3,0,0,0,3.38,15.83,18.15,18.15,0,0,0,4.92,6.15,16,16,0,0,0,7.37,3.38m6-146.78a79.38,79.38,0,0,0-8.92-3.38,35.77,35.77,0,0,0-8.14,8.76,46.25,46.25,0,0,0-4.3,8.76,41.59,41.59,0,0,0,2,21.21q1.7,5.38,1.54,7.38a39.14,39.14,0,0,1-3.07,5.69,54.94,54.94,0,0,0-7.38,15.37A25.18,25.18,0,0,0,90.54,209q1.53,6,6.3,7.53c2.76.82,5.74.36,8.91-1.38a46.21,46.21,0,0,0,8-6q10-8.59,18.45-9.53a19.08,19.08,0,0,1,9.06.62q5.69-7.58,6.92-18.75,1.85-16.14-6.76-28.74-7.84-12.3-22.44-18.91m13.52,318.3a129.14,129.14,0,0,0-.61-13.52,28,28,0,0,0-2-7.53A19.92,19.92,0,0,0,133,428a26.07,26.07,0,0,0,6.14-15.21q.47-12.45-8.45-31.82a124.48,124.48,0,0,1-5.53-15.67,40.13,40.13,0,0,1-1.39-16.3q.93-7.68,6.92-18.59,7.68-14.15,9.22-18.29a29.25,29.25,0,0,0,.62-20.44q-2.64-7.79-8.15-10.45l-18.9,5.22q-6.76,2-8.46,5.38-1.53,3.69,2.77,9.07,5.84,6.76,6.45,8.91,2.16,5.85-5.07,14.76-8.3,10.14-8.76,15.21-.62,6.61,8.92,17.68,9.06,10.61,7.53,17.36a40.51,40.51,0,0,1-2.31,6.15,13.45,13.45,0,0,0-1.54,6.15q.32,2.76,3.23,7.07,3.08,4.31,3.38,6.76.61,3.84-2.61,8.46-2,2.61-6.61,7.68a35.47,35.47,0,0,0-8.91,16.75,38.08,38.08,0,0,0,.46,18.91,34.75,34.75,0,0,0,9.53,16.13A36.26,36.26,0,0,0,121,476c.94-1.22,2.12-2.66,3.53-4.3a41.74,41.74,0,0,0,5.07-6.91,27.21,27.21,0,0,0,2.92-12.61M113.28,573.57q3.07,6,4,8c.11.26.21.52.31.77.62-1.52,1.14-2.8,1.53-3.84a43.08,43.08,0,0,0,3.08-10,21.86,21.86,0,0,0,0-10.3,16.59,16.59,0,0,0-2.46-5.84,24.68,24.68,0,0,0,6-7.68,23.15,23.15,0,0,0,2.31-16.6q-1.23-4.77-5.69-12.15-5.07-8.29-6.3-11.68a4.54,4.54,0,0,1-.15-.61l-3.23,1.84a24.3,24.3,0,0,0-6.92,6.15,17.83,17.83,0,0,0-3.69,8.61,11.21,11.21,0,0,0,2.15,8.6,42.83,42.83,0,0,0,5.38,5.38q3.07,3.07,3.08,5.84t-3.08,7.69q-3.69,7.07,0,17.67A68.85,68.85,0,0,0,113.28,573.57Z"/><path class="cls-2" d="M117.28,581.56q-.93-2-4-8a68.85,68.85,0,0,1-3.69-8.15q-3.69-10.6,0-17.67,3.07-5.07,3.08-7.69t-3.08-5.84a42.83,42.83,0,0,1-5.38-5.38,11.21,11.21,0,0,1-2.15-8.6,17.83,17.83,0,0,1,3.69-8.61,24.3,24.3,0,0,1,6.92-6.15l3.23-1.84a31.45,31.45,0,0,1-1.08-12.6,30.42,30.42,0,0,1,4.3-12.45c.46-.74,1.08-1.61,1.85-2.62a36.26,36.26,0,0,1-9.53-7.07,34.75,34.75,0,0,1-9.53-16.13,38.08,38.08,0,0,1-.46-18.91,35.47,35.47,0,0,1,8.91-16.75Q115,412,117,409.43q3.23-4.62,2.61-8.46-.3-2.46-3.38-6.76-2.91-4.31-3.23-7.07a13.45,13.45,0,0,1,1.54-6.15,40.51,40.51,0,0,0,2.31-6.15q1.53-6.75-7.53-17.36-9.54-11.07-8.92-17.68.47-5.07,8.76-15.21,7.23-8.93,5.07-14.76-.61-2.15-6.45-8.91-4.31-5.39-2.77-9.07,1.69-3.37,8.46-5.38l18.9-5.22a14.88,14.88,0,0,0-5.07-1.39,40.28,40.28,0,0,0,5.38-3.22q-4.14,1.16-8.92,2.45A23.14,23.14,0,0,1,113,280.63a16,16,0,0,1-7.37-3.38,18.15,18.15,0,0,1-4.92-6.15,47.3,47.3,0,0,1-3.38-15.83,61.56,61.56,0,0,1,.77-13.22q2.19-12.92,10.76-19.05,4.9-3.69,14.6-5.69a67.28,67.28,0,0,1,19.36-2.15,48.29,48.29,0,0,0-8.3-8.3,34.17,34.17,0,0,0,6.76-6.61,19.08,19.08,0,0,0-9.06-.62q-8.46.93-18.45,9.53a46.21,46.21,0,0,1-8,6c-3.17,1.74-6.15,2.2-8.91,1.38Q92.07,215,90.54,209a25.18,25.18,0,0,1,.15-11.37,54.94,54.94,0,0,1,7.38-15.37,39.14,39.14,0,0,0,3.07-5.69q.15-2-1.54-7.38a41.59,41.59,0,0,1-2-21.21,61.61,61.61,0,0,0-3.39,24,12.68,12.68,0,0,0-8.29-1.54,17.18,17.18,0,0,0-7.84,3.38,20.71,20.71,0,0,0-7.38,11.84,27.14,27.14,0,0,0,.46,14.29Q73.78,210.7,85.31,225c.56.79,1.18,1.66,1.84,2.62a34.51,34.51,0,0,0-11.37,13.68,42.55,42.55,0,0,0-4.3,24Q74.24,288.78,96.84,306a39.67,39.67,0,0,0-9.38,14.91,40.71,40.71,0,0,0,2.77,34.43,37.45,37.45,0,0,0,5.69,8q-6.7,9.62-6.46,22.59.3,16.29,11.22,26.59Q92.54,426.18,89.46,436q-4.45,13.68-1.08,24.9A50.93,50.93,0,0,0,93,471.82c2.87,5.44,4.67,9.07,5.38,10.92A45.28,45.28,0,0,1,100.83,501a17.54,17.54,0,0,0-7.37,6.91,21.8,21.8,0,0,0-3.54,14.76A37.61,37.61,0,0,0,95,537.14q2.31,4,8.76,12.91-6.91,7.23-7.07,19.37a55.25,55.25,0,0,0,4.77,21.67q2.91,6.76,9.37,20c.24.54.5,1,.77,1.54A79,79,0,0,1,115.28,588q1.35-3.25,2.31-5.69C117.49,582.08,117.39,581.82,117.28,581.56Z"/></g><path id="Layer0_5_MEMBER_1_1_STROKES" data-name="Layer0 5 MEMBER 1 1 STROKES" class="cls-3" d="M202.87,0V612.61H0V0Z"/></g></g></svg>