<svg xmlns="http://www.w3.org/2000/svg" viewBox="0 0 202.87 612.61"><defs><style>.cls-1{fill:#f3bbff;}.cls-2{fill:#ad4dc4;}.cls-3{fill:none;}</style></defs><g id="Layer_2" data-name="Layer 2"><g id="Layer_1-2" data-name="Layer 1"><g id="Layer0_6_MEMBER_0_FILL" data-name="Layer0 6 MEMBER 0 FILL"><path class="cls-1" d="M133.42,235.75l3.84-2.46q11.15-11.61,14.14-24.43a39.16,39.16,0,0,0-1.23-22.75c-.34-.92-.7-1.84-1.08-2.77a62.88,62.88,0,0,0-13.83-2.15q-12.28-1.53-19.52,3.38A16.69,16.69,0,0,0,109,192.1a12.7,12.7,0,0,0-.61,9.84c.41,1,1.17,2.61,2.3,4.76a7.33,7.33,0,0,1,.46,4.77A13.64,13.64,0,0,1,107.6,215q-6.76,4.16-8.76,6.15-4.77,4.46-3.54,9.53a10.71,10.71,0,0,0,6.15,6.15q6.45,4.3,16.14,4.3a36.45,36.45,0,0,0,12-3.07c.64-.33,1.92-1.09,3.84-2.31m-17.37,42.58a7,7,0,0,1-2.92,4q-1.53.93-4.76,2.92a14.8,14.8,0,0,0-4.92,6,15.19,15.19,0,0,0-1.54,7.83,15.7,15.7,0,0,0,8.76,13.07q4.81,2.25,12.14,1.23a16.76,16.76,0,0,1,.62-3.84q1.84-6,8.14-13.84,8.15-10.29,9.84-13.06,7.23-12.6,3.07-28.13a41.86,41.86,0,0,0-3.53-9.06c-1.11,0-2.24.05-3.38.15a39.57,39.57,0,0,0-16.45,5.07,22.83,22.83,0,0,0-7.68,7.69q-3.07,5.07-1.23,9.68,0,.15,2.61,4.92a8,8,0,0,1,1.23,5.38m-6-189.51q-3.56,4-6.61,12.76a61,61,0,0,0-3.38,10.76,20.6,20.6,0,0,0,.61,10.76,52.56,52.56,0,0,0,3.38,6.45,12.34,12.34,0,0,1,1.69,6.3q-.3,4.16-5.22,8.61-6.61,6-7.84,7.84-2.93,4.92-.62,10.91a12.42,12.42,0,0,0,7.84,7.53q4.62,1.23,10.76-.92,7.08-3.07,10.76-4.46,9.22-2.76,15.83-.77c1,.31,2.07.67,3.07,1.08q7.6-7.57,9.07-20.14a44.41,44.41,0,0,0-5.68-28.12q-9.06-16.25-32-28.9c-.62.13-1.18.23-1.69.31m1.38,294.48q-6.91,12-4.61,24.59a15.67,15.67,0,0,0,3.69,8.61q3.38,4,7.53,2.92a42.7,42.7,0,0,0-6.3,5.22,11.11,11.11,0,0,0-2.92,7.07q-.31,4.31,3.84,7.69a16,16,0,0,0,3.69,2.15,61.87,61.87,0,0,1,3.23-7.07q5.68-9.84,8-15.06a31.5,31.5,0,0,0,2.76-17.06q-.81-7.28-5.07-11.22c.37-.61.78-1.23,1.23-1.85q7.69-10.6,9.22-15.21,3.54-10.92-5.84-32.28-5.41-12.35-6.76-21.06a12.21,12.21,0,0,0-11.68,6.46,14.27,14.27,0,0,0-1.84,6.92q.45,5.07,6.3,13.21,6.15,8.15,6.76,12.91.47,5.53-3.54,12-2.45,3.84-7.68,11.07m.77,175.36c.2.1.56-.1,1.07-.61l.47-.93a1.69,1.69,0,0,0-.16-1.22,23.35,23.35,0,0,1-.46-4.62,8.5,8.5,0,0,0-.31-2.61l-.77-1.84-.61-1.08a.9.9,0,0,0-.92-.15,1.38,1.38,0,0,0-.77.77,4.17,4.17,0,0,0,0,2.3l.31,2.77a29.72,29.72,0,0,0,.15,4.15l.92,2.15c.41.61.77.92,1.08.92m6.61-65.78q-.15-3.37-3.23-8.91c-2.25-3.9-3.54-6.82-3.84-8.76-.21-1.34-.57-2.1-1.08-2.31-.82-.31-1.54.05-2.15,1.08q-1.23,2.14-.46,6a31.22,31.22,0,0,1,.77,6.46,14.82,14.82,0,0,1-1.69,5.07,24.87,24.87,0,0,0-2,5.07,8.86,8.86,0,0,0,1.23,6.76,5.45,5.45,0,0,0,3.38,2.77,5.16,5.16,0,0,0,4.3-1.54,12.29,12.29,0,0,0,2.46-3.84A18.26,18.26,0,0,0,118.82,492.88Z"/><path class="cls-2" d="M114.21,513.17q6-5.23,6.14-5.38,4.31-5.39,4.31-13.68a39.73,39.73,0,0,0-2.77-14.75q-3.84-9.54-5.38-14.3a41.68,41.68,0,0,1-2.3-14.6,34.74,34.74,0,0,1,2.15-8.91,16,16,0,0,1-3.69-2.15q-4.15-3.39-3.84-7.69a11.11,11.11,0,0,1,2.92-7.07,42.7,42.7,0,0,1,6.3-5.22q-4.15,1.06-7.53-2.92a15.67,15.67,0,0,1-3.69-8.61q-2.31-12.6,4.61-24.59,5.22-7.23,7.68-11.07,4-6.45,3.54-12-.61-4.75-6.76-12.91-5.85-8.15-6.3-13.21a14.27,14.27,0,0,1,1.84-6.92,12.21,12.21,0,0,1,11.68-6.46,29.41,29.41,0,0,1-.31-7.37q-7.32,1-12.14-1.23a15.7,15.7,0,0,1-8.76-13.07,15.19,15.19,0,0,1,1.54-7.83,14.8,14.8,0,0,1,4.92-6q3.22-2,4.76-2.92a7,7,0,0,0,2.92-4,8,8,0,0,0-1.23-5.38q-2.61-4.77-2.61-4.92-1.84-4.62,1.23-9.68a22.83,22.83,0,0,1,7.68-7.69,39.57,39.57,0,0,1,16.45-5.07c1.14-.1,2.27-.15,3.38-.15a35.6,35.6,0,0,0-6.76-9.07l-.77-.62c-1.92,1.22-3.2,2-3.84,2.31a36.45,36.45,0,0,1-12,3.07q-9.69,0-16.14-4.3a10.71,10.71,0,0,1-6.15-6.15q-1.23-5.07,3.54-9.53,2-2,8.76-6.15a13.64,13.64,0,0,0,3.53-3.53,7.33,7.33,0,0,0-.46-4.77c-1.13-2.15-1.89-3.74-2.3-4.76a12.7,12.7,0,0,1,.61-9.84,16.69,16.69,0,0,1,6.76-7.53q7.23-4.92,19.52-3.38a62.88,62.88,0,0,1,13.83,2.15A30.21,30.21,0,0,0,136,169.2a33.92,33.92,0,0,0,4.3-3.53c-1-.41-2-.77-3.07-1.08q-6.62-2-15.83.77-3.69,1.38-10.76,4.46-6.15,2.15-10.76.92a12.42,12.42,0,0,1-7.84-7.53q-2.29-6,.62-10.91,1.23-1.85,7.84-7.84,4.92-4.46,5.22-8.61a12.34,12.34,0,0,0-1.69-6.3,52.56,52.56,0,0,1-3.38-6.45,20.6,20.6,0,0,1-.61-10.76,61,61,0,0,1,3.38-10.76q3-8.77,6.61-12.76a27.76,27.76,0,0,0-7.84,2.77,25.77,25.77,0,0,0-10.61,11.06,26.07,26.07,0,0,0-2.76,15.07,82.94,82.94,0,0,0,1.23,9.06q.77,5.39-.93,8.61-1.53,3.23-6,6.15l-7.38,5.07A21.55,21.55,0,0,0,69,156a22.78,22.78,0,0,0-1.38,11.37,21.18,21.18,0,0,0,4.76,10.45,22.07,22.07,0,0,0,9.53,6.76,25.78,25.78,0,0,0,5.23,16.29c.29.42.6.83.92,1.23A39.67,39.67,0,0,0,77,212.55a36.56,36.56,0,0,0-7.37,22,37.61,37.61,0,0,0,7.68,22.13,35.6,35.6,0,0,0,18.75,13.68,36.18,36.18,0,0,0-11.22,20.91q-2.14,13,3.54,23.66c1.23,2.16,3.28,5.38,6.14,9.69q3.39,5.84,3.08,10.6a18,18,0,0,1-2.31,7.07q-2.61,5.53-3.07,6.76-4.31,10.61.31,24.13a56.92,56.92,0,0,0,3.07,7.23,78.27,78.27,0,0,0-9.68,24.13q-3.84,17.67,2.46,32.12,2.14,4.61,7.22,13.83,4,8.15,3.53,14.3-.15,4.46-3.22,10.91-4.15,8.61-4.77,10.6-3.84,11.37,1.08,25.51a95,95,0,0,0,6.15,13.38,22.23,22.23,0,0,0-2,5.07,20.77,20.77,0,0,0,.15,10.91,36.88,36.88,0,0,0,1.54,5.38,12.62,12.62,0,0,1,.31,5.38,9.06,9.06,0,0,1-1.54,3.69,19.34,19.34,0,0,0-2.31,3.69q-2.91,6.13,0,16.13a147.4,147.4,0,0,0,11.53,30.74q1.83,3.54,3.38,6.46,1.49-7.87,4.61-19.06,5.39-19.83,6.3-28.89,1.55-15.84-4.61-26.9a91.91,91.91,0,0,1-4.91-8.92q-2.46-5.37-1.23-9.52.91-3.08,4.61-6.15m1.38-29.2q3.07,5.53,3.23,8.91a18.26,18.26,0,0,1-2.31,7.84,12.29,12.29,0,0,1-2.46,3.84,5.16,5.16,0,0,1-4.3,1.54,5.45,5.45,0,0,1-3.38-2.77,8.86,8.86,0,0,1-1.23-6.76,24.87,24.87,0,0,1,2-5.07,14.82,14.82,0,0,0,1.69-5.07,31.22,31.22,0,0,0-.77-6.46q-.77-3.84.46-6c.61-1,1.33-1.39,2.15-1.08.51.21.87,1,1.08,2.31.3,1.94,1.59,4.86,3.84,8.76m-2.31,74.08c-.51.51-.87.71-1.07.61s-.67-.31-1.08-.92l-.92-2.15a29.72,29.72,0,0,1-.15-4.15l-.31-2.77a4.17,4.17,0,0,1,0-2.3,1.38,1.38,0,0,1,.77-.77.9.9,0,0,1,.92.15l.61,1.08.77,1.84a8.5,8.5,0,0,1,.31,2.61,23.35,23.35,0,0,0,.46,4.62,1.69,1.69,0,0,1,.16,1.22Z"/></g><path id="Layer0_6_MEMBER_1_1_STROKES" data-name="Layer0 6 MEMBER 1 1 STROKES" class="cls-3" d="M202.87,0V612.61H0V0Z"/></g></g></svg>