<svg xmlns="http://www.w3.org/2000/svg" viewBox="0 0 202.87 612.61"><defs><style>.cls-1{fill:#f3bbff;}.cls-2{fill:#ad4dc4;}.cls-3{fill:none;}</style></defs><g id="Layer_2" data-name="Layer 2"><g id="Layer_1-2" data-name="Layer 1"><g id="Layer0_7_MEMBER_0_FILL" data-name="Layer0 7 MEMBER 0 FILL"><path class="cls-1" d="M114.21,223.46q7.44,1,16-4.15c.53-.79,1.1-1.56,1.69-2.31a84.23,84.23,0,0,1,7.69-7.22,51.13,51.13,0,0,0,7.22-7.38,28,28,0,0,0,5.53-12.6,27.54,27.54,0,0,0-1.23-13.53,26.24,26.24,0,0,0-7.53-11.06,30.45,30.45,0,0,0-3.84-2.92,34.33,34.33,0,0,0-6,.15,22.93,22.93,0,0,0-8.3,3.38,16.14,16.14,0,0,0-5.84,6.92,31.69,31.69,0,0,0-1.39,3.84,20.56,20.56,0,0,1-1.69,3.84q-2,2.93-8.14,5.07-7.23,2.46-9.23,4.15-3.52,3.08-4.91,9.69-1.23,8.76,4.91,16.13a20.9,20.9,0,0,0,15.07,8m20,16.9a5,5,0,0,0-1.23,2,5.73,5.73,0,0,0-2.92.46,8.67,8.67,0,0,0-3.54,2.62c-.41.51-1,1.33-1.69,2.45a10.7,10.7,0,0,1-2.15,2.16q-1.84.76-5.69-.31-4.14-1.23-5.84-.92-4.75,1.06-5.38,8.91a47.06,47.06,0,0,1-.15,5.23,10.53,10.53,0,0,1-1.38,5.07,41,41,0,0,1-6.15,5.68q-4,3.24-4.3,6.31-.93,5.84,9.22,9.22,9.67,2.29,11.52,7.22a13.29,13.29,0,0,1,4.92-7.84,19.41,19.41,0,0,1,3.38-2.3,19.26,19.26,0,0,1,3.38-3.38q1.55-1.23,7.54-4.92,11.37-8.14,14.9-22.75a39.82,39.82,0,0,0,.77-16.9,26.35,26.35,0,0,0-4.92-.77,23,23,0,0,0-8.76,1.07,8.58,8.58,0,0,0-1.53,1.69M127.42,80.22a68.59,68.59,0,0,0-17.67-7.69,35.08,35.08,0,0,0-9.38,18.9,32,32,0,0,0,6.15,5.23c.62.51,3,2.15,7.23,4.92a50.59,50.59,0,0,1,6.91,5.53,31,31,0,0,1,7.38,10.3,21.7,21.7,0,0,1,1.54,12.29,17.21,17.21,0,0,1-6.15,10.92q-5.39,4.6-11.53,3.69l-4-.47a5.5,5.5,0,0,0-3.39.93,18.55,18.55,0,0,0-2.61,3.84q-2,2.31-5.69,1.69a12.89,12.89,0,0,1-6.3-3.23q-2.91-3.23-4.61-4.76a13.22,13.22,0,0,0-5.38-3.69q4.16,12.3,9.69,18.44a23.76,23.76,0,0,0,8,6.61,17.28,17.28,0,0,0,10,1.84,14.76,14.76,0,0,0,9.22-4.61,11.67,11.67,0,0,0,3.84-9.22,75.79,75.79,0,0,0,9.07,3.54,25.91,25.91,0,0,0,6.45.92q10.27-7.3,14.45-21.36,4.92-16.61-1.84-31.51-6.76-14-21.37-23m-10.6,297.24q6-5.68,7.68-8.3A24.44,24.44,0,0,0,128,350.71q-.46-1.53-2.46-6.76a30.85,30.85,0,0,1-1.84-6.76v-1.54a24,24,0,0,0-1.85-2.61q-6.45-7.85-14.29-7.38-4,5.54.77,16.6,5.07,10.75,4.3,16.14a17.78,17.78,0,0,1-3.84,8.61q-2,2.61-6.61,7.53a39.86,39.86,0,0,0-8.45,17.06q-2.16,10.29,2.76,17.83,1.84,3.52,7.69,9.68,4.61,6,3.07,11.83-2,4-2,5.07a2.67,2.67,0,0,0,1.08,2.62c.92.92,1.74,1.18,2.46.77q.3-3.86,5.53-12.76,4.45-7.68,3.23-12.6a15.83,15.83,0,0,0-2.77-4.77L112.36,406l-1.23-1.53a19.1,19.1,0,0,1-1.69-17.83l.16-.31Q111.45,382.53,116.82,377.46Z"/><path class="cls-2" d="M121.89,473.67q-.47-4-5.38-13.83Q112.37,451.23,113,446a22.05,22.05,0,0,1,3.53-8.6q4.45-7.23,4.92-8.3,5.83-11.07,2-23.82a31.38,31.38,0,0,0-9.68-15.53l-.31.46a16.57,16.57,0,0,0-2.92,8.3,10.61,10.61,0,0,0,1.84,7.53l2.46,3.23a15.83,15.83,0,0,1,2.77,4.77q1.23,4.9-3.23,12.6-5.22,8.91-5.53,12.76c-.72.41-1.54.15-2.46-.77a2.67,2.67,0,0,1-1.08-2.62q0-1.06,2-5.07,1.54-5.83-3.07-11.83-5.85-6.15-7.69-9.68-4.92-7.55-2.76-17.83a39.86,39.86,0,0,1,8.45-17.06q4.61-4.92,6.61-7.53a17.78,17.78,0,0,0,3.84-8.61q.77-5.38-4.3-16.14-4.77-11.07-.77-16.6,7.83-.45,14.29,7.38a24,24,0,0,1,1.85,2.61v1.54a30.85,30.85,0,0,0,1.84,6.76q2,5.24,2.46,6.76a24.44,24.44,0,0,1-3.54,18.45q-1.68,2.61-7.68,8.3-5.38,5.07-7.22,8.91l-.16.31a36.23,36.23,0,0,1,4.31,3.07,43.52,43.52,0,0,1,5.68-6.15q4.45-3.84,6.61-6a42.18,42.18,0,0,0,9.07-16.44,53.07,53.07,0,0,0,2.15-18.91q-1.69-17.52-12-36.12a66.27,66.27,0,0,1-3.84-8.14q-1.7-4.92-.31-8.46a13.31,13.31,0,0,1,1.69-3.22,19.41,19.41,0,0,0-3.38,2.3,13.29,13.29,0,0,0-4.92,7.84q-1.85-4.92-11.52-7.22-10.15-3.39-9.22-9.22.3-3.07,4.3-6.31a41,41,0,0,0,6.15-5.68A10.53,10.53,0,0,0,105.6,263a47.06,47.06,0,0,0,.15-5.23q.61-7.85,5.38-8.91,1.7-.31,5.84.92,3.84,1.08,5.69.31a10.7,10.7,0,0,0,2.15-2.16c.72-1.12,1.28-1.94,1.69-2.45a8.67,8.67,0,0,1,3.54-2.62,5.73,5.73,0,0,1,2.92-.46,5,5,0,0,1,1.23-2,8.58,8.58,0,0,1,1.53-1.69,18.51,18.51,0,0,0-8.91,6.3,29.29,29.29,0,0,1-.92-14.6,30.56,30.56,0,0,1,4.3-11.06q-8.53,5.12-16,4.15a20.9,20.9,0,0,1-15.07-8Q93,208.1,94.23,199.33q1.38-6.62,4.91-9.69,2-1.68,9.23-4.15,6.13-2.15,8.14-5.07a20.56,20.56,0,0,0,1.69-3.84,31.69,31.69,0,0,1,1.39-3.84,16.14,16.14,0,0,1,5.84-6.92,22.93,22.93,0,0,1,8.3-3.38,34.33,34.33,0,0,1,6-.15,27.55,27.55,0,0,0-8.3-3.38,43.81,43.81,0,0,0,4.76-2.77,25.91,25.91,0,0,1-6.45-.92,75.79,75.79,0,0,1-9.07-3.54,11.67,11.67,0,0,1-3.84,9.22,14.76,14.76,0,0,1-9.22,4.61,17.28,17.28,0,0,1-10-1.84,23.76,23.76,0,0,1-8-6.61q-5.53-6.15-9.69-18.44a13.22,13.22,0,0,1,5.38,3.69q1.69,1.53,4.61,4.76a12.89,12.89,0,0,0,6.3,3.23q3.69.62,5.69-1.69a18.55,18.55,0,0,1,2.61-3.84,5.5,5.5,0,0,1,3.39-.93l4,.47q6.15.91,11.53-3.69a17.21,17.21,0,0,0,6.15-10.92A21.7,21.7,0,0,0,128,117.41a31,31,0,0,0-7.38-10.3,50.59,50.59,0,0,0-6.91-5.53c-4.21-2.77-6.61-4.41-7.23-4.92a32,32,0,0,1-6.15-5.23,34.2,34.2,0,0,0,0,10.3,60.25,60.25,0,0,0,2.77,10.15,68.75,68.75,0,0,1,2.92,10.6q1.55,10.3-4.92,14.6a12,12,0,0,1-7.68,1.08,17,17,0,0,1-11.53-6A14.35,14.35,0,0,1,78.7,126a29.82,29.82,0,0,0-6,3.84,31.68,31.68,0,0,0-8.45,11.37,29.53,29.53,0,0,0-1.85,14,26.66,26.66,0,0,0,5.23,12.91Q72.86,176,80.39,177c3.8.41,5.84,1.54,6.15,3.38q.31,2.31-3.84,5.07Q72.86,191,69.33,203.32a39.07,39.07,0,0,0,.61,23.21q5.86,17.06,24.9,30.74a31.45,31.45,0,0,0-5.22,7.07A27.94,27.94,0,0,0,86.08,280a27.29,27.29,0,0,0,5.84,14.9A26.07,26.07,0,0,0,105,304.15a44.81,44.81,0,0,1-6.15,10q-2.46,2.91-7.38,8.91-8.91,11.83-4.92,21.52.61,1.68,6.46,9.83,4.31,5.85,3.07,10.15a10.93,10.93,0,0,1-2.3,4.45q-1.08,1.39-3.39,4-12.6,11.83-13.06,24.59-.3,10,9.07,23.82T98.84,441.7q.45,3.6.61,6.46.76,12.29-3.38,21.21c-1,2.25-2.77,5.58-5.22,10q-2.77,5.83-2,10.45c.3,2.76,1.89,6.2,4.76,10.29q5.07,6.91,6,10,1.85,6.15-1.39,15.68-4.45,13.53-4.76,15.83A44.45,44.45,0,0,0,94.84,557q1.23,5.22,4,15.37a270.86,270.86,0,0,1,3.07,27.51,65,65,0,0,0,2.77,12.76,55,55,0,0,0,3.23-6.77,45.72,45.72,0,0,0,2.76-22.74q-.92-5.24-1.23-7.84a17.59,17.59,0,0,1,.92-7.53,22.81,22.81,0,0,1,4.31-6.15,63.47,63.47,0,0,0,4.92-5.69q4.75-8-.77-22.74-6.61-18.14-6.15-24.59.15-5.24,5.23-17.22Q122.65,480.29,121.89,473.67Z"/></g><path id="Layer0_7_MEMBER_1_1_STROKES" data-name="Layer0 7 MEMBER 1 1 STROKES" class="cls-3" d="M202.87,0V612.61H0V0Z"/></g></g></svg>