<svg xmlns="http://www.w3.org/2000/svg" viewBox="0 0 202.87 612.61"><defs><style>.cls-1{fill:#f3bbff;}.cls-2{fill:#ad4dc4;}.cls-3{fill:none;}</style></defs><g id="Layer_2" data-name="Layer 2"><g id="Layer_1-2" data-name="Layer 1"><g id="Layer0_8_MEMBER_0_FILL" data-name="Layer0 8 MEMBER 0 FILL"><path class="cls-1" d="M112.21,228.68c1.84-3.07,3.28-5,4.3-5.84q3.54-2.61,9.22-.31a55.11,55.11,0,0,0,8.46,4.15,18.83,18.83,0,0,0,10,1.39.63.63,0,0,0,.3-.16,24.66,24.66,0,0,0,6.15-7.83,25.11,25.11,0,0,0,2.31-16.45,26.35,26.35,0,0,0-8.46-14.45c-.41-.37-.82-.73-1.23-1.07a26,26,0,0,0-2.61-.92,26.34,26.34,0,0,0-12.29-.77q-4.77.62-6.92,3.84a10.79,10.79,0,0,0-1.23,5.22,28.09,28.09,0,0,1-.61,5.85q-1.7,7.53-15.37,10.75a25.62,25.62,0,0,0-8.92,2.77q-4.6,2.76-4.61,7.22,0,4.77,6.92,8.92,5.53,4.6,9.68,2.61,2.46-.76,4.92-4.92M131.88,282a12,12,0,0,0,4.92-3.38,5.71,5.71,0,0,0,1.08-2.92,4.32,4.32,0,0,0-.62-2.92,9.76,9.76,0,0,0-4.61-1.84,15.77,15.77,0,0,0-3.84.31,6.49,6.49,0,0,0-2.46,3.07c-.73,1.62-1.24,2.69-1.54,3.23a48.4,48.4,0,0,0-6.61-.31,29.09,29.09,0,0,0-10.91,2.15,15,15,0,0,0-5.69,4.15,9.44,9.44,0,0,0-2.46,6.15,5.07,5.07,0,0,0,1.54,3.69,3.32,3.32,0,0,0,3.54.92,5.57,5.57,0,0,0,2.46-2.61,15.64,15.64,0,0,1,2.15-3.54q1.85-1.85,6.45-1.84a28.81,28.81,0,0,0,6.92.3,9.76,9.76,0,0,0,3.84-1.84,38.42,38.42,0,0,0,5.84-2.77M117.59,390.37c1.13-2.67,2-4.61,2.61-5.84a6.35,6.35,0,0,1,4-3.69,5.46,5.46,0,0,0,2.3-1.23,2.24,2.24,0,0,0,.46-.77,33.62,33.62,0,0,1,.31-3.53q.32-4,.31-6.46-.61-6.15-4.61-7.68c-1.13-.52-3.69-.77-7.69-.77-3.48-.52-5.38-1.8-5.68-3.84A49.68,49.68,0,0,0,108.37,367c0,1.74.25,2.87.76,3.38a7.52,7.52,0,0,0,3.08,2,6.62,6.62,0,0,1,3.53,7.22q-.45,2.92-4.61,7.38a60.29,60.29,0,0,0-5.38,5.38h0a12,12,0,0,0-4.3,5.37,14.24,14.24,0,0,0,9.38-1.07,16.17,16.17,0,0,0,6.76-6.3m8.76-24.13c.1-.31.25-.46.46-.46v1.53A1,1,0,0,1,126.35,366.24Z"/><path class="cls-2" d="M122.2,483.35a20.35,20.35,0,0,0-4.15-9.07q-4.45-5.22-6.61-8.14a21.23,21.23,0,0,1-3.84-9.68q-.76-5.85,2.76-8.77a22.84,22.84,0,0,1,5.08-2.92,11.63,11.63,0,0,0,4.45-3.22q3.54-4.92-4-12.76-9.08-9.53-9.38-14.14-.47-5.38,5.23-10.3,7.38-5.37,10.91-8.14,12.92-9.52,11.53-28-1.23-16.15-12.61-24h0a13.59,13.59,0,0,0,1.39-10,29.69,29.69,0,0,0-3.54-9.53c-3.17-5.63-4.81-8.61-4.92-8.91a25.47,25.47,0,0,1-2-10.3q.15-5.68,3.53-8.92a14.11,14.11,0,0,1,5.07-2.61c2.36-.61,4.15-1.13,5.38-1.53q13.53-4,18.75-13.53a20.43,20.43,0,0,0,2.46-11.53A14.59,14.59,0,0,0,143,257.12q-10,10-25.67,13.83,1.69-3.69-1.23-10.91-3.37-8-3.07-11.38.76-6.6,9.68-10.6a144.4,144.4,0,0,0,16.14-6.3,24.19,24.19,0,0,0,5.68-3.85.63.63,0,0,1-.3.16,18.83,18.83,0,0,1-10-1.39,55.11,55.11,0,0,1-8.46-4.15q-5.69-2.29-9.22.31c-1,.82-2.46,2.77-4.3,5.84q-2.46,4.15-4.92,4.92-4.16,2-9.68-2.61-6.92-4.16-6.92-8.92,0-4.45,4.61-7.22a25.62,25.62,0,0,1,8.92-2.77q13.68-3.22,15.37-10.75a28.09,28.09,0,0,0,.61-5.85,10.79,10.79,0,0,1,1.23-5.22q2.14-3.22,6.92-3.84a26.34,26.34,0,0,1,12.29.77,26,26,0,0,1,2.61.92,24.22,24.22,0,0,0-13.67-5.54q12.28-6.3,18.9-20a41.63,41.63,0,0,0-9.84-51.33A42.64,42.64,0,0,0,120.2,101q-1.85,5.17.46,12a56.68,56.68,0,0,0,6,12.45,83.4,83.4,0,0,1,6.3,12.14,31,31,0,0,1,1.38,15.83,25.8,25.8,0,0,1-7.07,14.14,20.63,20.63,0,0,1-14.6,5.84q-8.91.32-14.29-5.38a30.53,30.53,0,0,0-3.08-3.38,6.17,6.17,0,0,0-3.84-2,11.4,11.4,0,0,0-2.92.62,14.9,14.9,0,0,1-3.23.46,5,5,0,0,1-2.61-1.38q-1.53-1.69-2.31-2.46l-8.91-10.76a27.61,27.61,0,0,0-7.22,12q-3.39,11.22,1.84,20.75a26.07,26.07,0,0,0,16.29,12.75,26.06,26.06,0,0,0,20.6-2,10.37,10.37,0,0,1,2.3,5.69,11.53,11.53,0,0,1-1.07,6.15,10.81,10.81,0,0,1-4.61,4.15,10.18,10.18,0,0,1-5.84,1.23,35.46,35.46,0,0,1-5.54-2,15.46,15.46,0,0,0-5.53-1.38,10.89,10.89,0,0,0-8,2.46,21.78,21.78,0,0,0-5.54,7.07,33.25,33.25,0,0,0-2.92,18.9A41.83,41.83,0,0,0,73,253.27a47.31,47.31,0,0,0,14.44,13.22,51.41,51.41,0,0,0,10,4.61q-6.8,6.9-9.37,12.14A26.71,26.71,0,0,0,84.85,294a20.8,20.8,0,0,0,2,11.07,26.61,26.61,0,0,0,5.22,6.61q2,2,6.31,5.68,9.83,9.84,7.68,19.21-.77,4.92-6.45,11.84-6.31,7.68-7.69,11.68-3.37,9.53,2.61,19.52a62.13,62.13,0,0,0,4.61,6q-9.4,3.56-15.06,13.37-6.6,11.07-3.69,22.6,1.85,7.53,11.84,21.36,9.67,13.36,11.22,21.67,1.53,7.84-1.69,20.6Q97.92,501,97.61,506.1a83.38,83.38,0,0,0,1.84,16.75q2.46,12.92,2.77,16.6.91,7.68-.31,21.06-1.38,15.36-1.23,20.9a98.42,98.42,0,0,0,4.92,25.82c.53,1.55,1.19,3.34,2,5.38q1.37-5.45,3.38-11.38,10.9-32.58,8.61-48-.32-1.69-5.38-20.44Q111,520.54,113,512.55q.61-2.76,6.14-14.44,4.3-8.61,3.08-14.76m-2-98.82c-.61,1.23-1.48,3.17-2.61,5.84a16.17,16.17,0,0,1-6.76,6.3,14.24,14.24,0,0,1-9.38,1.07,12,12,0,0,1,4.3-5.37h0a60.29,60.29,0,0,1,5.38-5.38q4.16-4.46,4.61-7.38a6.62,6.62,0,0,0-3.53-7.22,7.52,7.52,0,0,1-3.08-2c-.51-.51-.76-1.64-.76-3.38a49.68,49.68,0,0,1,1.23-10.45c.3,2,2.2,3.32,5.68,3.84,4,0,6.56.25,7.69.77q4,1.53,4.61,7.68,0,2.5-.31,6.46a8.42,8.42,0,0,0,0,1.23,6.55,6.55,0,0,1-.31,2.3,2.24,2.24,0,0,1-.46.77,5.46,5.46,0,0,1-2.3,1.23,6.35,6.35,0,0,0-4,3.69m16.6-105.9a12,12,0,0,1-4.92,3.38,38.42,38.42,0,0,1-5.84,2.77,9.76,9.76,0,0,1-3.84,1.84,28.81,28.81,0,0,1-6.92-.3q-4.61,0-6.45,1.84a15.64,15.64,0,0,0-2.15,3.54,5.57,5.57,0,0,1-2.46,2.61,3.32,3.32,0,0,1-3.54-.92,5.07,5.07,0,0,1-1.54-3.69,9.44,9.44,0,0,1,2.46-6.15,15,15,0,0,1,5.69-4.15,29.09,29.09,0,0,1,10.91-2.15,48.4,48.4,0,0,1,6.61.31c.3-.54.81-1.61,1.54-3.23a6.49,6.49,0,0,1,2.46-3.07,15.77,15.77,0,0,1,3.84-.31,9.76,9.76,0,0,1,4.61,1.84,4.32,4.32,0,0,1,.62,2.92A5.71,5.71,0,0,1,136.8,278.63Z"/></g><path id="Layer0_8_MEMBER_1_1_STROKES" data-name="Layer0 8 MEMBER 1 1 STROKES" class="cls-3" d="M202.87,0V612.61H0V0Z"/></g></g></svg>