<?xml version="1.0" encoding="utf-8"?>
<!-- Generator: Adobe Illustrator 25.2.0, SVG Export Plug-In . SVG Version: 6.00 Build 0)  -->
<svg version="1.1" id="Layer_1" xmlns="http://www.w3.org/2000/svg" xmlns:xlink="http://www.w3.org/1999/xlink" x="0px" y="0px"
	 viewBox="0 0 1000 1000" style="enable-background:new 0 0 1000 1000;" xml:space="preserve">
<style type="text/css">
	.st0{fill:#F6E7EA;}
	.st1{fill:#E2CCD2;}
	.st2{fill:#FDFDFD;}
</style>
<g>
	<path class="st0" d="M939.89,494.62c0.93,9.7,1.86,19.4,2.8,29.1c-2.38,1.97-5.41,3.51-7.06,5.97
		c-38.34,57.09-47.36,59.19-108.47,31.3c-30.33-13.85-61.57-13.55-93.27-0.88c5.31,11.91,14.3,9.65,21.04,12.25
		c53.26,20.54,70.03,67.43,41.59,116.95c-42.99,74.88-165.28,79.65-208.83,19.32c-22.71-31.46-24.24-40.82,1.9-72.03
		c22.9-27.35,44.26-55.27,28.6-96.14c-86.08,110.02-253.02,87.86-282.93-45.95c-18.35,6.48-20.08,22.03-20.64,37.81
		c-0.5,14.01-0.94,28.1,0,42.07c1.96,29.29-10.42,41.12-40.33,43.63c-74.2,6.23-146.22-31.54-165.67-123.52
		c4.26-40.78,33.68-64.12,60.14-90.59c25.23-25.23,48.09-23.5,73.87-3.09c11.08,8.77,20.51,25.35,38.57,13.15
		c2.28-13.92-8.82-20.5-12.89-30.25c-15.62-37.36-30.65-75.36-22.14-116.7c19.97-96.98,99.41-121.45,174.29-122.78
		c54.84-0.97,103.42,66.29,93.25,120.28c-92.29,32.16-121.95,69.54-107.25,147.66c31.28-55.45,73.86-82.13,132.06-75.66
		c55.71,6.2,98.97,32.46,125.77,87.69c22.49-68.51-23.78-104.01-57.47-142.94c43.13-62.83,120.41-77.99,185.34-38.39
		c67.07,40.89,72.2,90.46,16.43,200.52c55.35-18.55,88.02,16.46,124.34,42.6l-0.66-0.48C934.82,488.56,937.36,491.59,939.89,494.62z
		 M530.72,392.58c-40.5-0.28-63.19,19.82-66.39,60.29c-1.11,14.07-1.7,27.54-10.42,39.66c-10.06,13.97-10.84,28.73,0.07,42.94
		c11.85,15.43,29.49,21.53,45.48,13.87c25.33-12.14,52.3-18.22,78.21-27.87c12.04-4.48,19.84-14,25.47-25.74
		C627.39,445.2,590.86,393,530.72,392.58z M396.02,260.65c25.63,2.98,56.9-19.24,57.71-42.74c0.83-24.12-13.48-36.79-36.44-40.4
		c-30.09-4.74-69.32,15.9-72.53,38.01C342.02,234.34,368.23,257.42,396.02,260.65z M702.58,682.82c23.49,0.66,44.4-4.62,49.54-31.15
		c3.6-18.56-34.88-52.73-56.78-52.67c-19.17,0.06-33.28,21.86-33.59,52.16C661.45,679.58,680.66,682.98,702.58,682.82z
		 M799.11,324.78c1.56-23.97-26.05-51.95-50.62-53.06c-15.54-0.7-27.63,4.74-29.47,21.92c-1.69,15.66,31.01,57.97,45.81,58.94
		C785.36,353.93,794.51,340.5,799.11,324.78z M176.85,500.53c18.75,16.79,37.24,30.84,62.39,16.45
		c14.65-8.38,21.94-22.58,16.8-39.71c-4.83-16.1-16.2-28.06-33.6-27.31C191.83,451.3,182.17,473.39,176.85,500.53z"/>
	<path class="st1" d="M108.63,494.5c19.46,91.98,91.47,129.75,165.67,123.52c29.91-2.51,42.29-14.34,40.33-43.63
		c-0.94-13.96-0.5-28.06,0-42.07c0.57-15.79,2.29-31.33,20.64-37.81c29.91,133.81,196.85,155.96,282.93,45.95
		c15.66,40.86-5.7,68.78-28.6,96.14c-26.14,31.21-24.61,40.57-1.9,72.03c43.55,60.33,165.84,55.56,208.83-19.32
		c28.43-49.52,11.66-96.41-41.59-116.95c-6.74-2.6-15.73-0.34-21.04-12.25c31.7-12.67,62.93-12.97,93.27,0.88
		c61.11,27.89,70.13,25.8,108.47-31.3c1.65-2.46,4.68-4,7.06-5.97c19.25,55.57-6,98.37-45.3,131.29
		c-27.38,22.93-40.66,44.75-41.8,81.5c-1.85,59.8-62.45,113.65-134.51,122.42c-37.95,4.62-78.32,9.94-112.41-17.31
		c-15.41-12.32-27.83-6.34-41.47,4.64c-116.08,93.42-306.92,23.24-332.1-126.54c-4.49-26.69-14.45-42.29-44.61-50.45
		c-44.9-12.14-80.55-40.62-91.56-90.53C101.47,550.58,90.83,520.9,108.63,494.5z M518,697.14c-46.43-11.11-92.75,3.49-134.2-20.26
		c-11.13-6.38-24.15,10.69-29.32,24.41c-10.17,27.02,1.36,52.97,28.18,65.08C433.48,789.31,492.22,761.29,518,697.14z"/>
	<path class="st2" d="M108.63,494.5c-17.79,26.4-7.16,56.08-9.7,84.24c-35.86-84.19-9.33-148.54,91.33-221.56
		c-31.42-150.13,51.82-233.66,131.28-261.24c101.3-35.16,185.9,0.25,251.2,107.67c85.02-45.75,171.48-66.59,251.62,9.88
		c54.31,51.82,75.63,113.32,42.75,187.79c29.64,23.04,72.66,49.26,72.78,93.34c-36.28-26.39-75.95-69.75-131.3-51.21
		c55.77-110.06,50.64-159.63-16.43-200.52c-64.94-39.59-142.21-24.43-185.34,38.39c33.69,38.92,79.96,74.43,57.47,142.94
		c-26.8-55.22-70.06-81.48-125.77-87.69c-58.2-6.48-100.79,20.2-132.06,75.66c-14.7-78.12,14.96-115.5,107.25-147.66
		c10.17-53.99-38.41-121.26-93.25-120.28c-74.88,1.33-154.32,25.8-174.29,122.78c-8.51,41.34,6.52,79.34,22.14,116.7
		c4.08,9.75,15.17,16.33,12.89,30.25c-18.06,12.2-27.49-4.38-38.57-13.15c-25.78-20.41-48.64-22.14-73.87,3.09
		C142.31,430.38,112.89,453.72,108.63,494.5z"/>
	<path class="st2" d="M939.89,494.62c-2.54-3.03-5.08-6.06-7.61-9.09C934.82,488.56,937.36,491.59,939.89,494.62z"/>
	<path class="st2" d="M530.72,392.58c60.14,0.42,96.67,52.62,72.42,103.15c-5.63,11.74-13.44,21.25-25.47,25.74
		c-25.91,9.65-52.88,15.73-78.21,27.87c-15.98,7.66-33.63,1.55-45.48-13.87c-10.91-14.21-10.13-28.97-0.07-42.94
		c8.72-12.11,9.31-25.58,10.42-39.66C467.53,412.39,490.22,392.3,530.72,392.58z"/>
	<path class="st2" d="M396.02,260.65c-27.79-3.23-54-26.3-51.27-45.13c3.21-22.1,42.44-42.75,72.53-38.01
		c22.96,3.61,37.27,16.28,36.44,40.4C452.92,241.41,421.65,263.62,396.02,260.65z"/>
	<path class="st2" d="M702.58,682.81c-21.91,0.17-41.12-3.23-40.83-31.66c0.31-30.29,14.42-52.1,33.59-52.16
		c21.9-0.06,60.37,34.11,56.78,52.67C746.98,678.2,726.07,683.48,702.58,682.81z"/>
	<path class="st2" d="M799.11,324.78c-4.6,15.72-13.76,29.15-34.29,27.8c-14.8-0.97-47.5-43.28-45.81-58.94
		c1.85-17.18,13.94-22.62,29.47-21.92C773.06,272.83,800.68,300.81,799.11,324.78z"/>
	<path class="st2" d="M176.85,500.53c5.32-27.15,14.98-49.24,45.59-50.57c17.4-0.76,28.77,11.2,33.6,27.31
		c5.14,17.13-2.15,31.33-16.8,39.71C214.08,531.37,195.6,517.33,176.85,500.53z"/>
	<path class="st0" d="M518,697.14c-25.78,64.15-84.52,92.18-135.33,69.23c-26.82-12.11-38.35-38.07-28.18-65.08
		c5.16-13.72,18.18-30.79,29.32-24.41C425.26,700.62,471.57,686.02,518,697.14z"/>
</g>
</svg>
