<?xml version="1.0" encoding="utf-8"?>
<!-- Generator: Adobe Illustrator 25.2.0, SVG Export Plug-In . SVG Version: 6.00 Build 0)  -->
<svg version="1.1" id="Layer_1" xmlns="http://www.w3.org/2000/svg" xmlns:xlink="http://www.w3.org/1999/xlink" x="0px" y="0px"
	 viewBox="0 0 1000 1000" style="enable-background:new 0 0 1000 1000;" xml:space="preserve">
<style type="text/css">
	.st0{fill:#FFFFFF;}
	.st1{fill:#F5E7EA;}
</style>
<rect x="632.25" y="24.1" class="st0" width="112.3" height="88.64"/>
<rect x="252.34" y="189.44" class="st0" width="168.69" height="103.65"/>
<path class="st1" d="M704.37,988.02c-39.6-8.15-62.54-47.62-93.48-71.69c-30.22-23.51-26.14-77.06,3.18-101.11
	c5.87-4.81,14.16-7.37,18.63-13.08c35.76-45.66,35.56-45.82,80.82-47.98c9.67-8.39-6.22-20.67,4.41-29.26
	c9.47-1.17,20.72,2.53,23.62,9.57c17.36,42.11,89.43,58.29,56.6,124.8c18.42,12.16,43.01,16.28,46.05,45.03
	c5.35,50.59-0.97,62.33-50.56,74.49c-6.4,1.57-9.24,6.13-14.94,9.24C756.94,999.88,728.64,993.02,704.37,988.02z M670.41,789.35
	c-1.77,15.8-9.1,30.85-26.14,41.67c-14.05,8.92-20.48,23.76-5.21,38.67c8.61,8.41,68.95,10.06,80.8,3.01
	c25.45-15.13,1.63-33.68-0.82-51.37c39.08,8.42,39.08,8.42,56.33-10.89C747.9,774.26,712.42,773.34,670.41,789.35z M742.55,902.22
	c10.83,28.65,31.09,31.3,54.05,30.21c13.22-0.63,19.94-7.79,22.63-19c3.25-13.55-8.07-21.29-17.07-23.76
	C781.92,884.09,759.8,878.4,742.55,902.22z"/>
<path class="st1" d="M732.24,12.61c17.05,6.56,29.11,22.92,40.27,37.07c25.87,32.8,20.98,62.63-15.62,82.63
	c-19.73,10.78-17.98,34.01-35.52,45.52c-13.97,9.17-24.5,26.22-43.69,19.11c-19.22-7.11-34.71-20.52-37.9-42.51
	c-1.75-12.08-1.52-23.48-9.27-34.75c-38.1-55.44-47.4-84.26,18.13-107.07C674.96,3.45,706.23,2.6,732.24,12.61z M731.82,66.51
	c-0.45-18.15-24.15-37.32-47.1-34.47c-21.37,2.66-44.47,8.39-44.76,36.68c-0.26,26.12,21.65,32.21,41.07,35.33
	C700.58,107.2,732.2,81.48,731.82,66.51z"/>
<path class="st1" d="M44.8,504.96c5.86-9.68,7.83-15.28,10.01-23.95c6.27-24.98,24.03-34.75,48.32-31.26
	c22.83,3.28,34.49,17.89,34.5,41.21c0.01,18.19,2.01,35.95-13.34,51.26c-23.17,23.11-36.79,24.8-60.34,0.87
	c-5.87-5.96-13.73-4.43-19.15-10.25C38.48,526.03,39.99,512.91,44.8,504.96z"/>
<path class="st1" d="M423.73,697.82c49.33-1.33,82.82-30.75,110.89-69.58c20.91,39.65,16.87,86.8-11.32,117.7
	c-12.78,14.01-21.28,27.58-25.34,47.18c-7.21,34.77-45.39,63.69-80.69,64.4c-23.51,0.48-45.45,2.53-66.74,14.2
	c-18.29,10.03-39.73,6.3-59.17,3.71c-26.8-3.57-45.94-16.92-42.36-49.17c2.71-24.38-5.22-36.71-33.09-44.61
	c-48.16-13.65-62.82-66.14-44.36-128.6c13.71-46.39,43.83-64.31,93.65-64.47c20.07-0.06,40.14-0.05,60.22,0.02
	c55.52,0.21,84.94,26.41,90.93,81.1C417.34,678.74,414.92,688.41,423.73,697.82z M243,693.36c1.48,2.78,2.22,6.38,4.41,7.92
	c29.76,20.87,97.04,8.26,118.61-21.99c21.47-30.11,6.51-66.85-31.3-71.28c-27.44-3.21-55.63-2.12-83.33-0.46
	c-24.07,1.44-39.76,13.21-36.67,39.13c15.38,13.95,36-0.83,48.5,13.39C267.9,678.81,242.39,677.99,243,693.36z M438.95,809.45
	c5.19-17.6,10.01-31.91,13.51-46.54c2.6-10.86,0.93-21.52-8.6-29.07c-16.25-12.86-90.34,7.07-98.61,26.16
	c-5.03,11.62,0,19.98,6.78,29.09C374.55,819.39,405.59,811.82,438.95,809.45z"/>
<path class="st1" d="M556.76,336.36c-28.07-4.63-48.72-14.07-72.46-1.98c-4.68,22.59-0.06,50.68-25.53,68.3
	c-12.85,8.88-25.57,9.43-39.35,9.33c-43.93-0.31-50.11-9.8-63.46-97.28c-31.27-15.14-49.53,10.11-58.81,28.74
	c-24.28,48.76-12.62,97.79,16.42,144.14c-19.71,14.85-34.94,1.94-45.72-7.59c-24.99-22.08-54.34-42.47-56.18-81.09
	c-0.48-10.08-7.78-16.19-13.17-23.69c-21.45-29.87-20.91-60.39,2.94-86.9c11.81-13.13,19.68-25.54,20.41-44.42
	c1.86-48.32,31.33-75.45,79.97-72.93c33.56,1.74,66.4,11.8,100.62,9.61c13.59-0.87,24.38,9.97,29.25,20.21
	c11.95,25.14,34.07,35.26,56.12,48.23C519.2,267.51,546,291.87,556.76,336.36z M407.61,218.23
	c-35.69-13.73-70.12-20.79-106.69-20.05c-21.24,0.43-35.74,9.99-40.96,29.69c-3.9,14.72-4.33,31.01,11.23,41.35
	c16,10.63,32.25,17.21,50.74,4.24c16.14-11.32,32.35-21.3,54.16-20.75C390.44,253.07,399.98,241.06,407.61,218.23z M439.37,331.2
	c-12.57-1.65-25.41-7.04-38.43,3.94c-4.22,16.56-7.65,33.25,9.92,45.08c6.82,4.59,14.92,4.57,21.55-0.63
	C448.72,366.83,445.86,350.63,439.37,331.2z"/>
<path class="st1" d="M927.19,660.23c-0.88,32.71-17.09,49.5-47.33,49.04c-27.87-0.43-63.6-33.75-63.96-59.66
	c-0.37-26.59,16.32-43,43.07-42.34C892.17,608.06,927.85,635.77,927.19,660.23z"/>
<path class="st1" d="M923.13,312.04c-37.81-52.44-112.98-53.13-153.78-2.19c-3.1,3.09-6.2,6.17-9.3,9.26
	c-17.17,13.17-43.06,4.89-58.02,25.04c-13.63,18.36-30.97,32.33-51.01,45c-40.04,25.32-47.8,89.71-18.43,121.56
	c34.24-51.43,34.24-51.43,75.93-59.13c1.91,5.33,3.15,11.37,6.05,16.47c28.65,50.36,81.18,82.06,116.16,59.71
	c42.47-27.14,95.54-41.15,124.46-87.81c0-24.77,0-49.55,0-74.32C944.59,347.7,935.26,328.86,923.13,312.04z M809.78,472.94
	c-14.88-4.55-33.28-10.28-28.37-36.62c20.57-7.5,40.93-12.68,62.07,10.05C835.4,463.14,828.41,478.64,809.78,472.94z M917.69,359.62
	c-3.45,23.8-27.87,41.32-57.44,43.28c-29.03,1.92-58.13-4.19-87.28,6.17c-18.94,6.73-38.19-3.57-46.59-21.35
	c-9.46-20.05-1.31-35.77,21.91-41.69c11.59-2.95,10-11.86,11.69-20.34c1.43-7.2,10.21-15.33,14.02-15.24
	c13.81,0.32,34.53-3.38,49.16-11.22c20.99-11.24,39.74-5.1,57.49,2.87C904.22,312.7,921.98,330.02,917.69,359.62z"/>
<path class="st0" d="M843.47,446.38c-21.13-22.74-41.49-17.55-62.07-10.05c-4.9,26.34,13.5,32.07,28.37,36.62
	C828.41,478.64,835.4,463.14,843.47,446.38z"/>
<path class="st0" d="M917.69,359.62c4.29-29.61-13.47-46.92-37.05-57.52c-17.74-7.97-36.5-14.11-57.49-2.87
	c-14.63,7.84-35.35,11.53-49.16,11.22c-3.81-0.09-12.58,8.04-14.02,15.24c-1.69,8.48-0.1,17.39-11.69,20.34
	c-23.22,5.92-31.37,21.64-21.91,41.69c8.39,17.78,27.65,28.08,46.59,21.35c29.15-10.36,58.25-4.25,87.28-6.17
	C889.82,400.95,914.24,383.43,917.69,359.62z"/>
<path class="st0" d="M243,693.36c1.48,2.78,2.22,6.38,4.41,7.92c29.76,20.87,97.04,8.26,118.61-21.99
	c21.47-30.11,6.51-66.85-31.3-71.28c-27.44-3.21-55.63-2.12-83.33-0.46c-24.07,1.44-39.76,13.21-36.67,39.13
	c15.38,13.95,36-0.83,48.5,13.39C267.9,678.81,242.39,677.99,243,693.36z"/>
<path class="st0" d="M443.85,733.84c-16.25-12.86-90.34,7.07-98.61,26.16c-5.03,11.62,0,19.98,6.78,29.09
	c22.53,30.29,53.56,22.73,86.92,20.35c5.19-17.6,10.01-31.91,13.51-46.54C455.05,752.05,453.38,741.39,443.85,733.84z"/>
<path class="st0" d="M670.41,789.35c-1.77,15.8-9.1,30.85-26.14,41.67c-14.05,8.92-20.48,23.76-5.21,38.67
	c8.61,8.41,68.95,10.06,80.8,3.01c25.45-15.13,1.63-33.68-0.82-51.37c39.08,8.42,39.08,8.42,56.33-10.89
	C747.9,774.26,712.42,773.34,670.41,789.35z"/>
<path class="st0" d="M802.17,889.66c-20.25-5.57-42.37-11.26-59.62,12.55c10.83,28.65,31.09,31.3,54.05,30.21
	c13.22-0.63,19.94-7.79,22.63-19C822.49,899.88,811.17,892.14,802.17,889.66z"/>
</svg>
