<?xml version="1.0" encoding="utf-8"?>
<!-- Generator: Adobe Illustrator 25.2.0, SVG Export Plug-In . SVG Version: 6.00 Build 0)  -->
<svg version="1.1" id="Layer_1" xmlns="http://www.w3.org/2000/svg" xmlns:xlink="http://www.w3.org/1999/xlink" x="0px" y="0px"
	 viewBox="0 0 1000 1000" style="enable-background:new 0 0 1000 1000;" xml:space="preserve">
<style type="text/css">
	.st0{fill:#F4E6E9;}
	.st1{fill:#FEFDFD;}
</style>
<g>
	<path class="st0" d="M183.82,394.6c-1.11,39.73-36.71,64.49-74.71,49.71c-16.13-6.27-31.75-11.21-48.87-14.27
		c-32.16-5.75-57.19-21.57-59.93-58.65c-2.48-33.56,10.37-55.74,44.79-64.59c12.51-3.21,23.39-12.33,35.5-17.63
		c39.81-17.4,59.17-8.42,70.34,33.37c2.81,10.53,6.12,18.9,14.38,26.95C184.15,367.85,184.46,371.35,183.82,394.6z M88.57,361.08
		c12.05-1.73,28.88-1.18,28.53-21.7c-0.22-12.93-9.29-23.34-22.57-22.43c-16.21,1.11-32.43,9.1-34.08,26.87
		C59,359.38,74.45,359.73,88.57,361.08z"/>
	<path class="st0" d="M999.78,392.07c2.84,25.98-22.43,37.32-30.81,58.24c-8.94,22.31-30.12,38.66-44.68,58.82
		c-13.97,19.34-38.65,15.11-58.9,6.45c-23.58-10.1-30.27-32.83-22.59-53.51c11.42-30.76,22.32-58.87,18.53-93.94
		c-2.82-26.05,44.43-49.22,78.79-44.77C974.41,327.79,1000.76,358.13,999.78,392.07z M889.39,383.87
		c18.44,12.29,37.15,27,55.79,7.58c12.3-12.82-4.22-25.05-14.62-30.42C909.41,350.1,897.08,361.62,889.39,383.87z"/>
	<path class="st0" d="M55.47,910.93c10.27-64.51,20.19-102.22,81.65-100.82c19.89,0.45,36.24,8.32,46.52,25.97
		c21.89,37.6,6.39,78.94,8.59,118.14c1.41,25.06-38.64,39.16-59.51,23.34c-17.17-13.02-33.66-23.25-54.95-28.44
		C60.59,944.92,54.63,928.58,55.47,910.93z M112.83,910.62c19.29-17.31,52.41-20.13,43.27-54c-5.08-18.84-27.73-20.69-39.62-11.78
		C94.13,861.59,101.54,885.07,112.83,910.62z"/>
	<path class="st0" d="M810.34,841.28c26.89-2.58,45.91,7.44,52.83,35.86c1.86,7.62,3.97,15.51,7.75,22.29
		c23.42,41.97,16.69,61.49-27.08,83.55c-28.05,14.14-47.82,10.6-60.66-20.19c-4.47-10.73-12.52-20.05-19.42-29.67
		c-12.66-17.64-26.03-35.72-12.79-58.11C763.81,853.27,782.38,838.95,810.34,841.28z M820,911.68c13.47-2.02,19.54-9.94,19.13-22.08
		c-0.65-19.15-13.37-24.5-29.92-23.36c-11.2,0.78-23.29,4.69-19.74,18.56C793.23,899.55,805.05,908.85,820,911.68z"/>
	<path class="st0" d="M465.04,9.07c21.73-0.26,88.4,42.7,97.16,62.05c6.66,14.7,3.57,28.38-10.08,34.2
		c-22.97,9.79-47.09,18.34-71.56,22.74c-22.02,3.96-69.81-44.81-70.51-67.97C409.18,31.17,432.57,9.47,465.04,9.07z M464,27.6
		c-11.03,3.2-15.94,11.53-14.75,23.33c1.2,11.85,7.62,20.43,20.34,19.15c12.8-1.29,23.6-8.98,22.16-22.74
		C490.31,33.64,477.2,30.41,464,27.6z"/>
	<path class="st1" d="M88.57,361.08c-14.12-1.35-29.56-1.7-28.12-17.26c1.65-17.77,17.87-25.77,34.08-26.87
		c13.28-0.91,22.35,9.5,22.57,22.43C117.44,359.9,100.61,359.34,88.57,361.08z"/>
	<path class="st1" d="M889.39,383.87c7.69-22.25,20.02-33.76,41.17-22.84c10.4,5.37,26.93,17.6,14.62,30.42
		C926.55,410.87,907.83,396.16,889.39,383.87z"/>
	<path class="st1" d="M112.83,910.62c-11.29-25.56-18.7-49.03,3.65-65.78c11.89-8.91,34.55-7.06,39.62,11.78
		C165.24,890.5,132.12,893.31,112.83,910.62z"/>
	<path class="st1" d="M820,911.68c-14.95-2.83-26.77-12.13-30.54-26.88c-3.55-13.87,8.54-17.79,19.74-18.56
		c16.55-1.14,29.27,4.21,29.92,23.36C839.54,901.74,833.47,909.66,820,911.68z"/>
	<path class="st1" d="M464,27.6c13.2,2.81,26.31,6.04,27.75,19.73c1.44,13.76-9.36,21.45-22.16,22.74
		c-12.72,1.29-19.14-7.3-20.34-19.15C448.06,39.14,452.97,30.8,464,27.6z"/>
</g>
</svg>
