<svg xmlns="http://www.w3.org/2000/svg" viewBox="0 0 612.61 202.87"><defs><style>.cls-1{fill:#ad4dc4;}.cls-2{fill:#e2e2e2;}.cls-3{fill:#f3bbff;}.cls-4{fill:none;}</style></defs><g id="Layer_2" data-name="Layer 2"><g id="Layer_1-2" data-name="Layer 1"><g id="Layer0_9_MEMBER_0_FILL" data-name="Layer0 9 MEMBER 0 FILL"><path class="cls-1" d="M511.64,71.3a21.64,21.64,0,0,1,4.61,3.07,14,14,0,0,0,3.39,3.07q3.06,1.69,5.84-1.07a5.87,5.87,0,0,0,1.23-6q-.93-2.91-5.08-6-4.46-2.92-7.68-2.77a6.28,6.28,0,0,0-3.84,1.69,4.37,4.37,0,0,0-1.39,3.54c.11,1.54,1.08,3,2.92,4.46M494,55q-8.76-1.22-13.22.16-3.84,1.08-5.07,4a4.39,4.39,0,0,0,0,3.23,2.81,2.81,0,0,0,2.3,2,12.37,12.37,0,0,0,3.69-.61,31.82,31.82,0,0,1,6.46-1.23q4.92-.61,6.45-.93a8.57,8.57,0,0,0,2.62-.92,2.55,2.55,0,0,0,1.23-2.3,2.58,2.58,0,0,0-1.54-2.46A7.51,7.51,0,0,0,494,55M365,68.22l-.31,1.54a3.63,3.63,0,0,0,1.39,3.07,4.39,4.39,0,0,0,4,.31l2-1.08a4.65,4.65,0,0,0,2.15-4.45,3.73,3.73,0,0,0-1.69-2.46,4.18,4.18,0,0,0-3.07-.92,5.15,5.15,0,0,0-4.46,4m49.34-15.37q-10.61,9.84-11.22,22.6a12.8,12.8,0,0,0,.61,6.14,28,28,0,0,0-3.23,2.62,25.65,25.65,0,0,0-3.38,4.3c-.65.44-1.32.85-2,1.23a4,4,0,0,1-2.45.77,12.75,12.75,0,0,1-2-1.39c-1.64-1.22-4.31-1.94-8-2.15A17.44,17.44,0,0,0,375,88.36l-.46-.16A57.56,57.56,0,0,0,357.34,85a7,7,0,0,0,3.84-4.15,6.54,6.54,0,0,0,0-5.54,7.68,7.68,0,0,0-4.46-3.84,11,11,0,0,0-7.68,0,11.43,11.43,0,0,0-6,4.92,11.82,11.82,0,0,0-1.53,7.53,10,10,0,0,0,.61,2.3,12.12,12.12,0,0,0-3.53,4.31,12,12,0,0,0-1.54,6.91,34.85,34.85,0,0,1-8.45-2,50.09,50.09,0,0,0-8.3-2,5,5,0,0,0-3.08.31,2.08,2.08,0,0,0-1.53,2.45,2.72,2.72,0,0,0,1.22,1.7,10.16,10.16,0,0,0,2.46,2.3l2.46,1.54a39.71,39.71,0,0,1,7.38,6.61,16.08,16.08,0,0,0,3.38,3.07q2.61,1.53,7.69,1.23a11.65,11.65,0,0,0,4.91-.77,12.2,12.2,0,0,0,3.23-2.61,16.48,16.48,0,0,0,2-3.38,12.92,12.92,0,0,0,0-5.69,18.48,18.48,0,0,1,0-5.84A34.27,34.27,0,0,0,354,95.73a79.59,79.59,0,0,0,11.69,2.92,3.78,3.78,0,0,1,2.3,1.08,3.34,3.34,0,0,1,.46,2.77,17.84,17.84,0,0,0,3.08,12,13.19,13.19,0,0,0,4.91,4,10,10,0,0,0,6.15.77c2.15-.31,3.43-.36,3.84-.16a5.28,5.28,0,0,1,2.62,2.77q5.22,8.46,12.6,10.15c.54.11,1.2.21,2,.3a19.73,19.73,0,0,0,3.53,2.46,10.05,10.05,0,0,0,6.76,1.54,10.55,10.55,0,0,0,6.46-3.69c1.23-1.23,1.64-2.31,1.23-3.23a2.35,2.35,0,0,0-1.69-1.53,20.23,20.23,0,0,0-2.61-.77q-2.16-.61-5.84-3.69-3.54-3.23-4.15-5.69a19.75,19.75,0,0,0-.77-5.38,40,40,0,0,1-2.15-4.3c-.93-2.66-.41-5.74,1.53-9.22a48.13,48.13,0,0,1,7.53-10.3c.51-.43,1-.78,1.39-1.08h.3a23.83,23.83,0,0,0,6.46-1.23,20.34,20.34,0,0,0,4.3-1.07,3.77,3.77,0,0,0,2.31-1.54,2.81,2.81,0,0,1,.92,0,12.16,12.16,0,0,0,3.54,5.53,12.32,12.32,0,0,0,4.61,2.77,6.49,6.49,0,0,0,3.07.15,14.26,14.26,0,0,0-.15,6.15,11.27,11.27,0,0,1,.15,3.08L438.49,104c-1,1.44-1.44,3.74-1.23,6.92a10.93,10.93,0,0,0,1.23,5.69,9.11,9.11,0,0,0,4.3,3.38l4.61,1.69,3.07.77a10.29,10.29,0,0,1,6.46,5.53,40,40,0,0,0,1.84,4.76,21.16,21.16,0,0,0,5.07,6q4.62,4.6,8.46,3.69a2.66,2.66,0,0,0,2.3-1.54q.61-1.69-1.23-4.3c-.71-.93-2.3-3.28-4.76-7.07a65,65,0,0,0-5.07-6.92q-6.92-7.68-14.3-8.3a6.75,6.75,0,0,1-.92-5.38l.77-5.53a26.65,26.65,0,0,0-.15-4.77c-.31-2.05-.52-3.63-.62-4.76a5,5,0,0,1,.16-2.77c.41-1.12,1.69-2.2,3.84-3.22a22.6,22.6,0,0,0,7.84-7.69q2.14-3.22.15-4.76-1.38-1.08-3.84.46a21.29,21.29,0,0,0-2.92,2.76,13.66,13.66,0,0,1-2.92,2.77,20.9,20.9,0,0,1-3.38,1.69,1.79,1.79,0,0,1-.16-.31,15.51,15.51,0,0,1-.77-2.3,7.82,7.82,0,0,1,.16-4q1.23-8.76-.31-13.52a28.89,28.89,0,0,0-2.92-5.38q-3.69-5.68-7.68-7.69a21.91,21.91,0,0,0-7.38-1.69,18.31,18.31,0,0,0-6.76.31c-2.16.51-4.51,2-7.07,4.3m-.62,17.68a9.94,9.94,0,0,1,.31-7.69,11.79,11.79,0,0,1,4-4.76q5.08-4,10.15-3.23A10.86,10.86,0,0,1,435,59.62a12.68,12.68,0,0,1,1.85,4.45,11.48,11.48,0,0,1,3.07,4.15,11.59,11.59,0,0,1,.46,4.61,22.4,22.4,0,0,0,.31,4.46A22.85,22.85,0,0,0,443.25,83c.82,2.76.41,4.66-1.23,5.68a3.67,3.67,0,0,1-3.84,0,8.78,8.78,0,0,1-2.77-2.76,31.89,31.89,0,0,1-1.84-4,3.54,3.54,0,0,0-1.23-2.46c-.41-.2-1.64,0-3.69.46a6.15,6.15,0,0,1-3.84,0,5.55,5.55,0,0,1-3.08-2.3h-.15Q420,83.29,417,84.67c-.31.1-1.18.31-2.61.61a6.88,6.88,0,0,0-2.46.92,5.09,5.09,0,0,0-1.69,2.62c-.31.61-.72,1.59-1.23,2.92q-1.08,2-5.84,5.07c-2.36,1.23-3.79,2.46-4.31,3.69s-.2,3.84.93,7.53a14.23,14.23,0,0,1,1.07,6q-.61,3.69-3.38,4.92a5.69,5.69,0,0,1-4.92-.46,20.87,20.87,0,0,1-4-2.92q-13.07-11.37-17.06-16a13.45,13.45,0,0,1-1.85-2.77H369a3.56,3.56,0,0,1-2.46-.62,2.37,2.37,0,0,1-.77-1.38,2.29,2.29,0,0,1,0-2.3,1.78,1.78,0,0,1,1.23-.62,3.2,3.2,0,0,1,1.38,0,16.46,16.46,0,0,1,2.46.15,4.77,4.77,0,0,1,3.23-.15,12.48,12.48,0,0,0,4,.62,7.54,7.54,0,0,0,2.31-.47l2.31-.76a8.13,8.13,0,0,1,6.91,1.38,16,16,0,0,1,4.77,5.23c.82-.31,1.58-1.39,2.3-3.23A12.93,12.93,0,0,1,399.29,91a23.24,23.24,0,0,0,2.92-3.54,36.5,36.5,0,0,1,2.62-5.53,8.81,8.81,0,0,1,7.68-4.76,21,21,0,0,1,1.85-5.38,5.06,5.06,0,0,1-.62-1.23M361,95.12l-1.69-.77a11.78,11.78,0,0,1-2.15-1.54l-.77-1.07a1.76,1.76,0,0,1,.62-1.85,3.92,3.92,0,0,1,1.84-.92l1.08.46,2,1.23,1.23,1.08A2.05,2.05,0,0,1,363,94a2.12,2.12,0,0,1-2,1.08M2,98.35A3.34,3.34,0,0,0,5.84,98,3.62,3.62,0,0,0,7.22,94.5a4.09,4.09,0,0,0-1.38-2.15,3.21,3.21,0,0,0-2.31-.61v-.31A4.42,4.42,0,0,0,.92,92.81,4,4,0,0,0,0,95.12a4,4,0,0,0,2,3.23M27.66,90.2a40.42,40.42,0,0,1-5.84.31,6,6,0,0,0-2.92,1.07,2.62,2.62,0,0,0-.76,2.77c.3,1.23,1.38,2,3.22,2.15a30.36,30.36,0,0,0,8.76.31,3.46,3.46,0,0,0,2.77-.92,3.57,3.57,0,0,0,.92-2.62,3.78,3.78,0,0,0-.46-2,2.94,2.94,0,0,0-2.61-1.39l-3.08.31M86.07,91a3.7,3.7,0,0,0-.62,4.3A6.16,6.16,0,0,0,89,97.73a15.2,15.2,0,0,0,7.07-.15,59.56,59.56,0,0,1,7.22-1.39c2.56-.3,3.9-.46,4-.46,1.64-.61,2.46-1.58,2.46-2.92a3.11,3.11,0,0,0-1.69-2.61,13.76,13.76,0,0,0-3.23-.77q-4.3-.3-13.07,0c-2.76,0-4.66.51-5.68,1.54M53,87.59c-3-.72-5.43-.51-7.37.61A5.43,5.43,0,0,0,43.19,91,3.91,3.91,0,0,0,43,94.5q.93,2.16,5.08,3.85a56.75,56.75,0,0,0,8,2.46c3.28.41,5.94-.11,8-1.54,2.36-2.36,4.35-3.79,6-4.3,1.54-.31,2.67-.57,3.39-.77q2.3-.61,2.61-2.16A2.7,2.7,0,0,0,74.69,89a8.37,8.37,0,0,0-3.38-1.23q-6.3-1.23-9.22-.46c-.92.21-2.3.62-4.15,1.23A14.69,14.69,0,0,1,53,87.59m-2.76,9.68c-1.74-.41-2.87-1.13-3.38-2.15A3,3,0,0,1,47,92.35a5.42,5.42,0,0,1,2.15-2.15c1.44-.61,3.38-.61,5.84,0l6,2a4.6,4.6,0,0,1,2.46,1.54c.71,1,.56,2-.47,3.07a4.29,4.29,0,0,1-2.92,1.69,5.52,5.52,0,0,1-3.38.15l-2.3-.76c-.52-.11-1.9-.31-4.15-.62m63.47-3.07a6.68,6.68,0,0,0-2.15,2.15c-.31.31-.36.51-.15.61l.46.31c.1.1.41.51.92,1.23a4.19,4.19,0,0,0,2.61,1.08q7.53-.47,10.76,1.07a10.45,10.45,0,0,0,2.46,1.38,3.33,3.33,0,0,0,2.61.16A2.71,2.71,0,0,0,132,98.5,8.35,8.35,0,0,0,129,95.73a18.53,18.53,0,0,0-3.84-1.84,28.2,28.2,0,0,0-6.92-.15c-2.46,0-3.94.15-4.46.46M132,90.51a5.62,5.62,0,0,0,.92,3.53,7.91,7.91,0,0,0,2.77,2.46,21.85,21.85,0,0,0,7.38,1.39l7.84.3a20.2,20.2,0,0,0,4.91-.46,4.26,4.26,0,0,0,2.62.92q11.67,1.08,17.52,1.54,10.29.93,16.75,3.69,2.46,7.07,5.23,10a20.69,20.69,0,0,0,7.68,4.15,29.36,29.36,0,0,0,13.37.92,31.81,31.81,0,0,0,12.45-4.76,11.82,11.82,0,0,0,4.61-4.77c.21-.41.72-1.94,1.54-4.61a12.15,12.15,0,0,1,3.84-5.53A13.72,13.72,0,0,1,247.6,96a52.66,52.66,0,0,0,6.3-.46,7.45,7.45,0,0,0,.15.77l2.31,4.15a24.26,24.26,0,0,0,4.3,4.61,15.6,15.6,0,0,0,8.46,2.92,39.73,39.73,0,0,0,9.06-.62,19.33,19.33,0,0,0,6.15-2.15q2.93-1.85,6.46-7.22a39.71,39.71,0,0,0,3.07-5.53l1.08-2.77a7.92,7.92,0,0,1,2.3-2.77c1.33-1,2.31-1.79,2.92-2.3q2.46-1.85,2-3.69c-.2-1.44-1.13-2.15-2.77-2.15a7.82,7.82,0,0,0-3.69,1.23Q292,82.52,285.87,91l-1.38,1.38a3.75,3.75,0,0,1-2.46.77l-5.69.92q-5.22.93-7.22-.92a4.84,4.84,0,0,1-1.85-4.61,11.31,11.31,0,0,1,1.85-4.92l2.15-3.07q3.08-3.39,2.61-5.38t-3.69-3.23a6.88,6.88,0,0,0-4.46-.61,9.85,9.85,0,0,0-4.45,2.61,3.59,3.59,0,0,0-.62.61,4.84,4.84,0,0,0-3.22.62,7.6,7.6,0,0,0-3.85,5.38h-5.84a17.69,17.69,0,0,0-5.84.77q-4.14,1.38-7.53,6.45A79.49,79.49,0,0,0,230.23,97q-2.14,5.69-4.92,8c-1.64,1.43-4.5,2.45-8.6,3.07q-9.08,1.23-12.91-2.77a4,4,0,0,1-1.39-3.53,9.52,9.52,0,0,1,1.69-2.46,7.73,7.73,0,0,0,2-4.46,8.32,8.32,0,0,0-3.84-8.45,6.78,6.78,0,0,0-4.61-1.08,7.24,7.24,0,0,0-4.3,2.15,6.44,6.44,0,0,0-1.85,4.46,121.48,121.48,0,0,0-17.21-1.69A40.69,40.69,0,0,0,160,92.51V92a6.29,6.29,0,0,0-2.76-5.37,11.18,11.18,0,0,0-6.15-2q-1.23,0-6.61.31a30.19,30.19,0,0,0-7.53.61q-4.77,1.23-4.92,4.92m126.34-6.15a3.4,3.4,0,0,1,1.07,2q2.31,9.23,6.92,13.22a6.26,6.26,0,0,0,2.15,1.23,29,29,0,0,0,3.08-.77c1.43-.21,2.25.2,2.45,1.23-2.35,2.35-4.4,3.43-6.14,3.22-1.13-.2-2.51-1.23-4.15-3.07a31.34,31.34,0,0,1-4.31-6.15,27.3,27.3,0,0,1-1.38-3.53,12.71,12.71,0,0,0-1.69-3.54,4.63,4.63,0,0,0-3.07.16,3.14,3.14,0,0,1-.31,2.3,3.45,3.45,0,0,1-1.54,1.85,5.17,5.17,0,0,1-4.61.61,5.53,5.53,0,0,1-2.77-1.69,3,3,0,0,1-.15.31A4.26,4.26,0,0,1,241,93.89l-1.38.46a2.2,2.2,0,0,0-.77,1.08,9.83,9.83,0,0,0-.31,1.23,3.32,3.32,0,0,1-1.84,2.15l-1.39.61a1.82,1.82,0,0,0-1.07.92l-2.77,3.23c-.72.72-1.33,1-1.84.92-.52-.3-.67-.92-.46-1.84a8.86,8.86,0,0,1,2.61-4.15,48.51,48.51,0,0,0,3.84-3.69c1.44-1.84,2.61-2.82,3.54-2.92a7.55,7.55,0,0,1,2.46-2.3,3.22,3.22,0,0,1,1.69-.31c-.05-1.27.62-2.76,2-4.46q3.54-4.16,6-3.07a8.65,8.65,0,0,0,3.23,2.15c1.84-.21,3.12-.05,3.84.46m-36.58,27.36a15.7,15.7,0,0,1-6.15,1.23,45.08,45.08,0,0,0-6.45.46c-1.64.31-2.67.31-3.08,0a4.87,4.87,0,0,1-1.07-1.08,5.07,5.07,0,0,0-1.08-1.07h-2c-2.15-.11-3.89-1.64-5.22-4.61q-2.46-4.92-4-6c.51-.82,1.33-1,2.46-.46.2.21.87.82,2,1.84a40.39,40.39,0,0,0,7.22,5.85q4,2.76,6.3,3.07a18.33,18.33,0,0,0,5.54-.31,29.78,29.78,0,0,1,5.53-.92,1.18,1.18,0,0,1,1.07.46c.41.62.06,1.13-1.07,1.54M184,95a3.41,3.41,0,0,1,4.3-1.85c0,.1.21.15.62.15s1.07.21,2,.93l1.53,1.69a3.18,3.18,0,0,1,1.39,1.84,2.8,2.8,0,0,1-.46,2,4.32,4.32,0,0,1-1.85,1.08,5.6,5.6,0,0,1-4-.31,6,6,0,0,1-2.46-.92A3.33,3.33,0,0,1,184,95Z"/><path class="cls-2" d="M363,94a2.05,2.05,0,0,0,.16-2.3L362,90.66l-2-1.23L358.87,89a3.92,3.92,0,0,0-1.84.92,1.76,1.76,0,0,0-.62,1.85l.77,1.07a11.78,11.78,0,0,0,2.15,1.54l1.69.77A2.12,2.12,0,0,0,363,94M54.41,97.89l2.3.76a5.52,5.52,0,0,0,3.38-.15A4.29,4.29,0,0,0,63,96.81c1-1,1.18-2,.47-3.07A4.6,4.6,0,0,0,61,92.2l-6-2c-2.46-.61-4.4-.61-5.84,0A5.42,5.42,0,0,0,47,92.35a3,3,0,0,0-.15,2.77c.51,1,1.64,1.74,3.38,2.15,2.25.31,3.63.51,4.15.62m167.37,11.83a29.78,29.78,0,0,0-5.53.92,18.33,18.33,0,0,1-5.54.31q-2.29-.32-6.3-3.07a40.39,40.39,0,0,1-7.22-5.85c-1.13-1-1.8-1.63-2-1.84-1.13-.51-1.95-.36-2.46.46q1.54,1.08,4,6c1.33,3,3.07,4.5,5.22,4.61h2a5.07,5.07,0,0,1,1.08,1.07,4.87,4.87,0,0,0,1.07,1.08c.41.31,1.44.31,3.08,0a45.08,45.08,0,0,1,6.45-.46,15.7,15.7,0,0,0,6.15-1.23c1.13-.41,1.48-.92,1.07-1.54A1.18,1.18,0,0,0,221.78,109.72Z"/><path class="cls-3" d="M414.36,71.76a21,21,0,0,0-1.85,5.38,8.81,8.81,0,0,0-7.68,4.76,36.5,36.5,0,0,0-2.62,5.53A23.24,23.24,0,0,1,399.29,91a12.93,12.93,0,0,0-2.61,3.69c-.72,1.84-1.48,2.92-2.3,3.23a16,16,0,0,0-4.77-5.23,8.13,8.13,0,0,0-6.91-1.38l-2.31.76a7.54,7.54,0,0,1-2.31.47,12.48,12.48,0,0,1-4-.62,4.77,4.77,0,0,0-3.23.15,16.46,16.46,0,0,0-2.46-.15,3.2,3.2,0,0,0-1.38,0,1.78,1.78,0,0,0-1.23.62,2.29,2.29,0,0,0,0,2.3,2.37,2.37,0,0,0,.77,1.38,3.56,3.56,0,0,0,2.46.62h.61a13.45,13.45,0,0,0,1.85,2.77q4,4.61,17.06,16a20.87,20.87,0,0,0,4,2.92,5.69,5.69,0,0,0,4.92.46q2.76-1.23,3.38-4.92a14.23,14.23,0,0,0-1.07-6q-1.69-5.53-.93-7.53c.52-1.23,1.95-2.46,4.31-3.69q4.75-3.07,5.84-5.07c.51-1.33.92-2.31,1.23-2.92a5.09,5.09,0,0,1,1.69-2.62,6.88,6.88,0,0,1,2.46-.92c1.43-.3,2.3-.51,2.61-.61q3.06-1.38,4.61-7.07h.15a5.55,5.55,0,0,0,3.08,2.3,6.15,6.15,0,0,0,3.84,0c2.05-.51,3.28-.66,3.69-.46a3.54,3.54,0,0,1,1.23,2.46,31.89,31.89,0,0,0,1.84,4,8.78,8.78,0,0,0,2.77,2.76,3.67,3.67,0,0,0,3.84,0c1.64-1,2.05-2.92,1.23-5.68a22.85,22.85,0,0,1-2.61-5.69,22.4,22.4,0,0,1-.31-4.46,11.59,11.59,0,0,0-.46-4.61,11.48,11.48,0,0,0-3.07-4.15A12.68,12.68,0,0,0,435,59.62a10.86,10.86,0,0,0-6.76-4.77q-5.07-.76-10.15,3.23a11.79,11.79,0,0,0-4,4.76,9.94,9.94,0,0,0-.31,7.69,5.06,5.06,0,0,0,.62,1.23M187.51,100.5a5.6,5.6,0,0,0,4,.31,4.32,4.32,0,0,0,1.85-1.08,2.8,2.8,0,0,0,.46-2,3.18,3.18,0,0,0-1.39-1.84l-1.53-1.69c-.93-.72-1.59-1-2-.93s-.62,0-.62-.15A3.41,3.41,0,0,0,184,95a3.33,3.33,0,0,0,1.08,4.61,6,6,0,0,0,2.46.92m63.78-18.75q-2.46-1.08-6,3.07c-1.37,1.7-2,3.19-2,4.46a3.22,3.22,0,0,0-1.69.31,7.55,7.55,0,0,0-2.46,2.3c-.93.1-2.1,1.08-3.54,2.92a48.51,48.51,0,0,1-3.84,3.69,8.86,8.86,0,0,0-2.61,4.15c-.21.92-.06,1.54.46,1.84.51.11,1.12-.2,1.84-.92l2.77-3.23a1.82,1.82,0,0,1,1.07-.92l1.39-.61a3.32,3.32,0,0,0,1.84-2.15,9.83,9.83,0,0,1,.31-1.23,2.2,2.2,0,0,1,.77-1.08l1.38-.46a4.26,4.26,0,0,0,2.92-2.15,3,3,0,0,0,.15-.31,5.53,5.53,0,0,0,2.77,1.69,5.17,5.17,0,0,0,4.61-.61A3.45,3.45,0,0,0,253,90.66a3.14,3.14,0,0,0,.31-2.3,4.63,4.63,0,0,1,3.07-.16,12.71,12.71,0,0,1,1.69,3.54,27.3,27.3,0,0,0,1.38,3.53,31.34,31.34,0,0,0,4.31,6.15c1.64,1.84,3,2.87,4.15,3.07,1.74.21,3.79-.87,6.14-3.22-.2-1-1-1.44-2.45-1.23a29,29,0,0,1-3.08.77,6.26,6.26,0,0,1-2.15-1.23q-4.61-4-6.92-13.22a3.4,3.4,0,0,0-1.07-2c-.72-.51-2-.67-3.84-.46A8.65,8.65,0,0,1,251.29,81.75Z"/></g><path id="Layer0_9_MEMBER_1_1_STROKES" data-name="Layer0 9 MEMBER 1 1 STROKES" class="cls-4" d="M612.61,0H0V202.87H612.61Z"/></g></g></svg>