<svg xmlns="http://www.w3.org/2000/svg" viewBox="0 0 612.61 202.87"><defs><style>.cls-1{fill:#ad4dc4;}.cls-2{fill:#f3bbff;}.cls-3{fill:#e2e2e2;}.cls-4{fill:none;}</style></defs><g id="Layer_2" data-name="Layer 2"><g id="Layer_1-2" data-name="Layer 1"><g id="Layer0_10_MEMBER_0_FILL" data-name="Layer0 10 MEMBER 0 FILL"><path class="cls-1" d="M443.52,84.36l-2.15,2.92q-1.85,3.23-1.53,8.61a3.36,3.36,0,0,1-.47,2,5.32,5.32,0,0,1-1.69,1.22,6.19,6.19,0,0,0-2.45,3.54,10,10,0,0,0,0,4.92,18.3,18.3,0,0,0,2,4.76l2,3.54a24.17,24.17,0,0,0,3.84,5.53q3.69,2.61,5.54,4a39.41,39.41,0,0,0,4.45,3.38,6,6,0,0,0,1.23.46,1.76,1.76,0,0,0,.31.61c2,2.16,3.89,3.08,5.84,2.77a3.84,3.84,0,0,0,2.61-1.38,4.16,4.16,0,0,0,1.23-2.62,5.39,5.39,0,0,0-2-4.3,7,7,0,0,0-4.31-1.69,4.3,4.3,0,0,0-2.3.15,23,23,0,0,0-2.31-1.84,29.51,29.51,0,0,1-2.92-4.92l-3.07-4c-1-1.85-1.28-3.44-.77-4.77a19.88,19.88,0,0,0,1.84-2.77,9,9,0,0,0,.62-4.91l-.16-4.46a4.52,4.52,0,0,1,0-2.31L450,91q3.69-5.39,6.92-6.76A13.34,13.34,0,0,0,459.66,83a2.69,2.69,0,0,0,1.08-2.77,3.24,3.24,0,0,0-1.39-2.3,5.47,5.47,0,0,0-2.61-1.23,10.84,10.84,0,0,0-7.53,2.15,49.94,49.94,0,0,0-5.69,5.53m45.34-30.43a15.42,15.42,0,0,0-4.45,0,6.35,6.35,0,0,0-3.85,2.46,3.4,3.4,0,0,0,0,4.3,6.68,6.68,0,0,0,4,2l3.38.77a17.2,17.2,0,0,0,4.61.46,5,5,0,0,0,3.84-2.15,3.93,3.93,0,0,0,.31-3.08,4.43,4.43,0,0,0-1.84-2.61,13.19,13.19,0,0,0-6-2.15M511,64.38q1.53,4.16,7.07,7.38A10.42,10.42,0,0,0,521,72.83,4,4,0,0,0,525,71a3.53,3.53,0,0,0-.15-4.3,7.47,7.47,0,0,0-2-1.54l-6.76-3.54a6.16,6.16,0,0,0-4.15.16,2.61,2.61,0,0,0-1.08,1.07,2.8,2.8,0,0,0,.16,1.54M343.78,93.58q-1.38-3.08-4.31-2.61a16.14,16.14,0,0,0-3.84,2.46,24.86,24.86,0,0,1-2.46,1.23,7,7,0,0,0-2.3,1.69.55.55,0,0,0-.16.31,32.41,32.41,0,0,1-3.84-2l-2.3-1.39a2.58,2.58,0,0,0-2.46-.46A8.39,8.39,0,0,0,320.88,95c-.62,2.45-.67,4.3-.16,5.53a13.78,13.78,0,0,0,1.85,2.46q3.38,3.69,5.84,4.45a8,8,0,0,0,2.61.47c.11.34.21.65.31.92a11.78,11.78,0,0,0,5.38,6.61,8.11,8.11,0,0,0,8.3.61,7.89,7.89,0,0,0,3.84-3.69,8.54,8.54,0,0,0,1.08-5.22,8.19,8.19,0,0,0-2.16-4.92,10.35,10.35,0,0,0-4.3-3.23,8.25,8.25,0,0,0,.31-5.38m28.89-4.92a7.83,7.83,0,0,0-5.68,0,8.56,8.56,0,0,0-4.46,3.54,8.12,8.12,0,0,0-1.08,5.53,8.38,8.38,0,0,0,2.62,5.07,7.67,7.67,0,0,0,5.07,2.46,8.54,8.54,0,0,0,5.68-1.38,4.56,4.56,0,0,1,.31,2.15,11.89,11.89,0,0,0,1.08,5.07,15,15,0,0,0,1.23,2.77,7.14,7.14,0,0,0,3.53,2.92A10.74,10.74,0,0,0,384.2,118a6.59,6.59,0,0,1-1.69-2.15,5.83,5.83,0,0,1-.62-4.46c1.13-1.84,1.95-3.23,2.46-4.15s.52-1.43.31-1.84a3,3,0,0,0-1.08-.77l-7.53-3.84A6.84,6.84,0,0,1,373.44,99a1.86,1.86,0,0,1,.31-2.77,3.35,3.35,0,0,1,2.3-.15,46.73,46.73,0,0,1,8.92,4,13.21,13.21,0,0,1,3.07,2.61,8.11,8.11,0,0,1,1.08,3.53,15.47,15.47,0,0,1,.15,4.77,3.76,3.76,0,0,0,0,2.15,3.49,3.49,0,0,0,1.38,1.54q2.31,2,1.69,4c-.3,1.34-1.28,2-2.92,2a6.1,6.1,0,0,1-3.68-1.23,4.79,4.79,0,0,1-1.08-.92,13.3,13.3,0,0,0,5.69,10,26.11,26.11,0,0,1,6.14,4l3.39,3.38q2.91,2.29,10,2.3c3,0,4.71-.66,5.22-2,.62-1.53.05-2.92-1.69-4.14a12.34,12.34,0,0,0-4.61-1.08A10.7,10.7,0,0,1,404,130c-1.23-.62-2.46-2.1-3.69-4.46A84.77,84.77,0,0,1,395,115.1a8.5,8.5,0,0,0,.92-1.08,8.71,8.71,0,0,0,1.38-5.22,13.79,13.79,0,0,1-.15-3.38l.77-2a10.75,10.75,0,0,0,.77-3.38l.3-.16a21.53,21.53,0,0,0,3.23-2.3c1.85-1.64,2.87-2.56,3.08-2.77A26.56,26.56,0,0,0,410,90.66c1.33-2,2.36-3.58,3.07-4.61,1.23-2,2.62-3,4.15-3.23,1.13-.3,3.13,0,6,.93a18.35,18.35,0,0,0,15.67-2.16,13.52,13.52,0,0,0,6.15-7.07,20.74,20.74,0,0,0,.77-8,24.78,24.78,0,0,0-.77-7.22,15,15,0,0,0-4.76-6.61,20.06,20.06,0,0,0-7.53-3.38q-7.69-1.23-16.3,2.61-6.6,3.07-8.29,7.38a12.16,12.16,0,0,0-.47,5.38,8.7,8.7,0,0,1-.15,3.69,33.28,33.28,0,0,1-2.15,3.07,21,21,0,0,0-3.08,6.3,27,27,0,0,1-3.07,6.46,34.45,34.45,0,0,1-3.38,4A24,24,0,0,0,393,91.89a8.31,8.31,0,0,0-1.54,4.3l-.3.16a13.91,13.91,0,0,1-1.85-.77,11.79,11.79,0,0,0-3.38-.77,23.81,23.81,0,0,1-4.3-2c-.93-.41-2.41-1-4.46-1.84-1-.51-2.51-1.28-4.46-2.31m43.19-22.74a12,12,0,0,1,.15-1.39,8.81,8.81,0,0,1,2.16-4.76,9.77,9.77,0,0,1,4.3-2.77,20.46,20.46,0,0,1,3.84-.3h4c2.66,0,4.3.2,4.92.61q2.29,1.38,2.3,6.15.32,7.83-2.46,10.76A9.82,9.82,0,0,1,429.23,77a12.63,12.63,0,0,1-7.53-1.53c-.9.69-2.33,1.81-4.3,3.38a62,62,0,0,1-8.92,5.84c-1.94,1.12-3.38,1.33-4.3.61-.62-.51-.92-1.69-.92-3.53q.3-6.91,3.38-8.92a10.75,10.75,0,0,0,3.84-2.3,14.92,14.92,0,0,1,2-2.92,8.61,8.61,0,0,1,3.38-1.69m-46.11,1.23a6.06,6.06,0,0,0,1.69-3.54,4.8,4.8,0,0,0-.92-3.69,5.77,5.77,0,0,0-5.69-2.46,6.6,6.6,0,0,0-4,1.85,5,5,0,0,0-1.39,4.3,5.28,5.28,0,0,0,2.31,3.84,5.48,5.48,0,0,0,4.3,1.08,7.53,7.53,0,0,0,3.69-1.38m-6.91,17.36a37.84,37.84,0,0,1-2.31-4.45l-1.08-2.92a8.1,8.1,0,0,0-3.53-3.69A6.35,6.35,0,0,0,351,73a11.07,11.07,0,0,0-4.61,3.38,15.8,15.8,0,0,0-3.23,7.22A10.08,10.08,0,0,0,344.39,91Q347.47,96,354.08,96a10.12,10.12,0,0,0,6-1.84A7.67,7.67,0,0,0,363,89.74a7.13,7.13,0,0,0-.15-5.23m-6.92,4.92a4.57,4.57,0,0,1-4.46-.15,7.47,7.47,0,0,1-1.84-1.23l-1.23-.92-.62-1.39c-.61-1.64-.56-2.81.16-3.53a1.45,1.45,0,0,1,1.23-.62h.77a2.94,2.94,0,0,0,1.53-.61,5,5,0,0,1,3.23-.46,5.53,5.53,0,0,1,2.77,1.69,4.57,4.57,0,0,1,.92,3.53,4.74,4.74,0,0,1-2.46,3.69M3.5,96.35a2.26,2.26,0,0,0,1.39-1.08L5,94a2.37,2.37,0,0,0-.77-1.23,2.12,2.12,0,0,0-1.38-.3V92.2c-.21-.1-.72,0-1.54.31-.51.41-.87.71-1.08.92a1.76,1.76,0,0,0,.62,2.46,2.17,2.17,0,0,0,2.61.46m26,1.23a2.77,2.77,0,0,0,1.23-2.31,2.33,2.33,0,0,0-.93-2.3,5.47,5.47,0,0,0-3.07-1.08,42.83,42.83,0,0,0-5.84-.61,10.45,10.45,0,0,0-4.3.76q-2.31,1.39-1.85,3.54.15,2.61,3.84,3.23,1.7.3,8.3-.46a8.18,8.18,0,0,0,2.62-.77m232.38-9.84a8.21,8.21,0,0,0-5.23-7.07,12.51,12.51,0,0,1,4.31.62,23.11,23.11,0,0,0,4.45.76,9.62,9.62,0,0,0,3.08-.46,4.64,4.64,0,0,0,2-1.07,2.66,2.66,0,0,0,1.07-2.31,3.13,3.13,0,0,0-.92-2.3l-2.15-1.08a35.27,35.27,0,0,0-14-2,4,4,0,0,0-2.61.77,4.13,4.13,0,0,0-1.38,1.54A14.18,14.18,0,0,0,249.1,79a23,23,0,0,0-7.53.92,10,10,0,0,0-4.3,3.23A10.94,10.94,0,0,0,235,88.2,8,8,0,0,0,236,93.43q2.61,4,8.76,3.07l1.84-.31c.21,0,1.34.26,3.39.77a11.53,11.53,0,0,0,4.61.16,10.63,10.63,0,0,0,2.3,2.92,44.87,44.87,0,0,1,4.61,3.38,32.68,32.68,0,0,1,3.23,3.53,13.33,13.33,0,0,0,3.53,2.92,18.15,18.15,0,0,0,4.62.77,43.32,43.32,0,0,0,6.14-.61c3.28-.62,5.64-1.69,7.07-3.23s2.46-4,3.08-7.69l.92-4.45a5.44,5.44,0,0,1,.77-2.15l2.3-1.39A37.89,37.89,0,0,1,296.9,89a6.46,6.46,0,0,0,2.31-.31,1.66,1.66,0,0,0,1.23-2.15,5.34,5.34,0,0,0-2-2.46q-4.15-2.76-6.76-2.15c-1.34.21-2.72,1.33-4.15,3.38a25.55,25.55,0,0,0-2.46,4.61,13.42,13.42,0,0,1-1.23,2.46,7.45,7.45,0,0,1-1.54,1.39,8.28,8.28,0,0,1-3.69,1.69q-1.53.3-4.92-1.39-6.81-3.41-11.83-3.53a10.7,10.7,0,0,0,0-2.77m-11.22,1.38a3,3,0,0,1-2,1.23l-2.46.31a7.2,7.2,0,0,1-2.61.31,3.28,3.28,0,0,1-2-1.54l-.77-2.61c0-.1.16-.67.46-1.69s1.49-1.74,3.23-2.15c-.2.2-.05.3.46.3l2.31.16a4.39,4.39,0,0,1,2,.46,3.78,3.78,0,0,1,1.38,1.69c.72,1.43.72,2.61,0,3.53m22.29,8h4.76q3.22.3,3.84,2.46a3.32,3.32,0,0,1-1.53,3.53,13.67,13.67,0,0,1-4,1.38c-3.07.72-5.28.62-6.61-.3-.51-.31-1.28-.82-2.3-1.54a10.51,10.51,0,0,0-3.39-.15,6.46,6.46,0,0,1-4.15-2.92,18.35,18.35,0,0,1-2-4.92L257.25,93a1.88,1.88,0,0,1,1.23-1.39l1.23.31a19.53,19.53,0,0,0,5.53,3.38l4,.62a26.14,26.14,0,0,0,3.69,1.23M59.75,105c4.1-.93,6.71-1.95,7.84-3.08l2.15-2.46c1.13-.82,1.75-1.28,1.85-1.38a2.53,2.53,0,0,0,.77-2c-.21-.61-1-1.18-2.46-1.69-.41-.2-1.33-.77-2.77-1.69A16.53,16.53,0,0,0,56.68,90.2a16.6,16.6,0,0,0-10,4.15c-1.54,1.33-2.25,2.72-2.15,4.15a6.74,6.74,0,0,0,1.69,2.92,11.37,11.37,0,0,0,6.61,3.84,28.73,28.73,0,0,0,6.91-.3m-6.45-3.69A3.62,3.62,0,0,1,50.69,98a3.88,3.88,0,0,1,1.07-3.38,9.12,9.12,0,0,1,3.23-2,8.1,8.1,0,0,1,6.3.77,8.54,8.54,0,0,1,4,4.92c-.52,2.15-2,3.22-4.31,3.22l-2.61-.3q-.61,0-2.61.15a6.2,6.2,0,0,1-2.46-.15m34.89-3.38a20.22,20.22,0,0,0,4,.15A3,3,0,0,0,94,96.81a2.85,2.85,0,0,0,.46-2.31c-.31-1.23-1.39-2.15-3.23-2.76A20.08,20.08,0,0,0,81.12,91,24.81,24.81,0,0,0,76,92.81a2.79,2.79,0,0,0-1.84,2.46A3.81,3.81,0,0,0,75.43,97,10.68,10.68,0,0,0,83,99a20.05,20.05,0,0,1,5.23-1.07m33.66,3.22a20.75,20.75,0,0,0,2.92.31,9.82,9.82,0,0,0,3.07-.15,5,5,0,0,0,2.61-1.39,3.15,3.15,0,0,0,1.08-2.61,3.51,3.51,0,0,0-1.85-2.92,25.06,25.06,0,0,0-3.38-1.23,24.5,24.5,0,0,0-8.91-.46q-4.15.61-4.77,3.38a3.61,3.61,0,0,0,.77,2.61,5.66,5.66,0,0,0,2.46,1.85c.41.1,2.41.31,6,.61m48.56-6.45-4.92-.46a2.15,2.15,0,0,0-1.69,1.07c-.41.62-.25,1.39.46,2.31a11.78,11.78,0,0,0,2,1.69,19.44,19.44,0,0,0,9.53,3.07l3.23.46,1.84,1.39,2.46,2.46a18.78,18.78,0,0,0,3.38,2.61,9.67,9.67,0,0,0,4.92.31,8.51,8.51,0,0,0,4.31-2,3,3,0,0,0,.3-.31,4.64,4.64,0,0,0,1.54,1.84,11.13,11.13,0,0,0,6.45,2.77c0,.24,0,.44,0,.62q.17,3.84,4.15,6.3a13.49,13.49,0,0,0,12.3,1.69l8.3-3.08a5.41,5.41,0,0,0,3.23-3.53,10.75,10.75,0,0,0-.62-3.84,6.68,6.68,0,0,1-.31-3.85,13.18,13.18,0,0,0,.93-2.45q.3-1.85-1.08-2.31c-.72-.1-1.38.36-2,1.38a36.69,36.69,0,0,0-3.07,4.92,6.52,6.52,0,0,0-6.3-1.54c-.72.21-1.8.57-3.23,1.08a16.59,16.59,0,0,1-5.69-1.08,5.37,5.37,0,0,0-4.61,1.7c-.22.2-.42.41-.61.61a18.86,18.86,0,0,1-2-1.08l-2.61-2-1.54-.93a6,6,0,0,0-1.38-.3c0-.25.1-.5.15-.77a6.46,6.46,0,0,0-.46-4.61c0-.51.56-1.13,1.69-1.85l3.69-1.53a4.55,4.55,0,0,0,2.61-2.92,2,2,0,0,0-.31-1.85,2.1,2.1,0,0,0-1.69-1.07c-.71,0-1-.16-.76-.47a13.65,13.65,0,0,1-3.85,1.08h-1.84q-1.84,0-5.23,2.15a3.15,3.15,0,0,1-1.84.92,4.44,4.44,0,0,1-2.31-.46,7.23,7.23,0,0,0-3.07-.46l-3.69.92a64.1,64.1,0,0,1-7.07,1.08l-3.69.31m54,20.29c-.1.61-.62,1.17-1.54,1.69a3.85,3.85,0,0,1-1.69.92,11.65,11.65,0,0,1-3.53-.46l-3.54-.46c-1.54-.41-2.2-1.28-2-2.62,0-.51.41-1.07,1.23-1.69a4.86,4.86,0,0,1,2.15-.46,15,15,0,0,1,4.15.31l1.08.15,1.08-.15a3,3,0,0,1,2.15.61,2,2,0,0,1,.46,2.16M188.86,96.5a6.32,6.32,0,0,1,2.3,2.92,4.38,4.38,0,0,1-1.23,4.15,4.58,4.58,0,0,1-4.3,1.23,6.66,6.66,0,0,1-2.15-.92,5.78,5.78,0,0,1-2.31-1.85,3.72,3.72,0,0,1,.15-4.61,4.63,4.63,0,0,1,4.15-2.15l.31.31a7.33,7.33,0,0,1,3.08.92m-52-2.76A9.49,9.49,0,0,0,142,95.27a16.92,16.92,0,0,0,4.92-.61,19.88,19.88,0,0,1,3.53-.92,4.92,4.92,0,0,0,2.46-.47q2-1.23.77-3.84a7.29,7.29,0,0,0-3.54-3.69,12.08,12.08,0,0,0-5.53-.3l-4.76.76q-3.69,1.08-4.46,2.77Q134.14,91.58,136.91,93.74Z"/><path class="cls-2" d="M376.05,100.81l7.53,3.84a3,3,0,0,1,1.08.77c.21.41.1,1-.31,1.84s-1.33,2.31-2.46,4.15a5.83,5.83,0,0,0,.62,4.46A6.59,6.59,0,0,0,384.2,118a.86.86,0,0,0,.46.46,4.79,4.79,0,0,0,1.08.92,6.1,6.1,0,0,0,3.68,1.23c1.64,0,2.62-.66,2.92-2s-.15-2.66-1.69-4a3.49,3.49,0,0,1-1.38-1.54,3.76,3.76,0,0,1,0-2.15,15.47,15.47,0,0,0-.15-4.77,8.11,8.11,0,0,0-1.08-3.53A13.21,13.21,0,0,0,385,100a46.73,46.73,0,0,0-8.92-4,3.35,3.35,0,0,0-2.3.15,1.86,1.86,0,0,0-.31,2.77,6.84,6.84,0,0,0,2.61,1.85m36.43-33.2a14.92,14.92,0,0,0-2,2.92,10.75,10.75,0,0,1-3.84,2.3q-3.08,2-3.38,8.92c0,1.84.3,3,.92,3.53.92.72,2.36.51,4.3-.61a62,62,0,0,0,8.92-5.84c2-1.57,3.4-2.69,4.3-3.38A12.63,12.63,0,0,0,429.23,77a9.82,9.82,0,0,0,5.84-2.76q2.78-2.93,2.46-10.76,0-4.77-2.3-6.15c-.62-.41-2.26-.61-4.92-.61h-4a20.46,20.46,0,0,0-3.84.3,9.77,9.77,0,0,0-4.3,2.77A8.81,8.81,0,0,0,416,64.53a12,12,0,0,0-.15,1.39,8.61,8.61,0,0,0-3.38,1.69m-54.1,18.13a4.57,4.57,0,0,0-.92-3.53,5.53,5.53,0,0,0-2.77-1.69,5,5,0,0,0-3.23.46,2.94,2.94,0,0,1-1.53.61h-.77a1.45,1.45,0,0,0-1.23.62c-.72.72-.77,1.89-.16,3.53l.62,1.39,1.23.92a7.47,7.47,0,0,0,1.84,1.23,4.57,4.57,0,0,0,4.46.15,4.74,4.74,0,0,0,2.46-3.69M269.24,95.89l-4-.62a19.53,19.53,0,0,1-5.53-3.38l-1.23-.31A1.88,1.88,0,0,0,257.25,93l.31,1.69a18.35,18.35,0,0,0,2,4.92,6.46,6.46,0,0,0,4.15,2.92,10.51,10.51,0,0,1,3.39.15c1,.72,1.79,1.23,2.3,1.54,1.33.92,3.54,1,6.61.3a13.67,13.67,0,0,0,4-1.38,3.32,3.32,0,0,0,1.53-3.53q-.61-2.16-3.84-2.46h-4.76a26.14,26.14,0,0,1-3.69-1.23m-18.6-10.3a3.78,3.78,0,0,0-1.38-1.69,4.39,4.39,0,0,0-2-.46L245,83.28c-.51,0-.66-.1-.46-.3-1.74.41-2.82,1.12-3.23,2.15s-.46,1.59-.46,1.69l.77,2.61a3.28,3.28,0,0,0,2,1.54,7.2,7.2,0,0,0,2.61-.31l2.46-.31a3,3,0,0,0,2-1.23c.72-.92.72-2.1,0-3.53m-64.86,10-.31-.31a4.63,4.63,0,0,0-4.15,2.15,3.72,3.72,0,0,0-.15,4.61,5.78,5.78,0,0,0,2.31,1.85,6.66,6.66,0,0,0,2.15.92,4.58,4.58,0,0,0,4.3-1.23,4.38,4.38,0,0,0,1.23-4.15,6.32,6.32,0,0,0-2.3-2.92,7.33,7.33,0,0,0-3.08-.92m36,16.6-1.08.15-1.08-.15a15,15,0,0,0-4.15-.31,4.86,4.86,0,0,0-2.15.46c-.82.62-1.23,1.18-1.23,1.69-.2,1.34.46,2.21,2,2.62l3.54.46a11.65,11.65,0,0,0,3.53.46,3.85,3.85,0,0,0,1.69-.92c.92-.52,1.44-1.08,1.54-1.69a2,2,0,0,0-.46-2.16A3,3,0,0,0,221.75,112.18Z"/><path class="cls-3" d="M55.76,101.42a6.2,6.2,0,0,1-2.46-.15A3.62,3.62,0,0,1,50.69,98a3.88,3.88,0,0,1,1.07-3.38,9.12,9.12,0,0,1,3.23-2,8.1,8.1,0,0,1,6.3.77,8.54,8.54,0,0,1,4,4.92c-.52,2.15-2,3.22-4.31,3.22l-2.61-.3Q57.76,101.27,55.76,101.42Z"/></g><path id="Layer0_10_MEMBER_1_1_STROKES" data-name="Layer0 10 MEMBER 1 1 STROKES" class="cls-4" d="M612.61,0H0V202.87H612.61Z"/></g></g></svg>