<svg xmlns="http://www.w3.org/2000/svg" viewBox="0 0 612.61 202.87"><defs><style>.cls-1{fill:#ad4dc4;}.cls-2{fill:#e2e2e2;}.cls-3{fill:#f3bbff;}.cls-4{fill:none;}</style></defs><g id="Layer_2" data-name="Layer 2"><g id="Layer_1-2" data-name="Layer 1"><g id="Layer0_11_MEMBER_0_FILL" data-name="Layer0 11 MEMBER 0 FILL"><path class="cls-1" d="M421.14,107.11a5.09,5.09,0,0,0,2.46,2.15,3.6,3.6,0,0,0,3.07.15,5.34,5.34,0,0,0,2.61-2,7.82,7.82,0,0,0,1.39-4.3,5.46,5.46,0,0,0-2.15-3.84,3,3,0,0,0-2.16-.62c-.3,0-.46-.05-.46-.15a5.15,5.15,0,0,0-4.92,3.07,5.6,5.6,0,0,0,.16,5.54m21.51,20.75a2.56,2.56,0,0,0,.62-2.46l-.15-1.08-.77-.61a1.77,1.77,0,0,0-1.85-.47v-.3a3,3,0,0,0-2.61,2.3,2.84,2.84,0,0,0,1.54,3.23l.92.31,2.3-.92m14.76-72.24A4.21,4.21,0,0,0,456,57a5.29,5.29,0,0,0-.77,2,4.72,4.72,0,0,0,0,2.46,2.87,2.87,0,0,0,1.38,2,3.25,3.25,0,0,0,3.54-.31A20,20,0,0,1,463.4,61l2.31-.92a3.87,3.87,0,0,0,1.69-2.62,3.33,3.33,0,0,0-.92-3.07c-1-1.23-2.56-1.64-4.61-1.23a11.69,11.69,0,0,0-4.46,2.46M425.44,79a9.22,9.22,0,0,0-1.84,3.38q-1.39,4.15.92,7.07a6,6,0,0,0,3.07,1.85,4,4,0,0,0,3.38-.93,4.71,4.71,0,0,0,1.54-1.84,13.32,13.32,0,0,1,1.38-2,14.6,14.6,0,0,0,3.54-2.61c1.13-1.44,1.13-3.07,0-4.92a6.09,6.09,0,0,0-4.15-2.77,9.3,9.3,0,0,0-4.76.31A9.59,9.59,0,0,0,425.44,79M308.79,95.27A5.38,5.38,0,0,0,305.41,97a6.13,6.13,0,0,0-1.08,7.23q1.38,3.69,4.92,3.69a4,4,0,0,0,4-2.16,7.21,7.21,0,0,0,1.38-4.45,6.14,6.14,0,0,0-2.31-5.08,5.31,5.31,0,0,0-3.53-.92M316,110.64l-.15-1.23a2.31,2.31,0,0,0-2.77-2l-.15-.15a2.41,2.41,0,0,0-2.15,1.23,2.64,2.64,0,0,0-.31,2.46,1.76,1.76,0,0,0,.61,1.23,2.94,2.94,0,0,0,2.16.77,2.62,2.62,0,0,0,2.15-.77,3.85,3.85,0,0,0,.61-1.54m17.68-30.58a6.45,6.45,0,0,0-3.08-4,5.17,5.17,0,0,0-3.07-.31,5.53,5.53,0,0,0-2.77,1.69,5.46,5.46,0,0,0-1.07,5.69,4.51,4.51,0,0,1,3.38-.31,3.14,3.14,0,0,1,2.46,3.23,8.65,8.65,0,0,1-1.08,2.31L326.31,91a6.48,6.48,0,0,1-2.77,1.84,3.67,3.67,0,0,1-3.22-.61,3.06,3.06,0,0,1-1.23-3.08,4.7,4.7,0,0,1,1.23-2.61,11,11,0,0,1,2.76-2.92q-3.85.12-5.53,1.39a6.14,6.14,0,0,0-.77,8.91q2,2,6,2a11.85,11.85,0,0,0,9.38-5.23,11,11,0,0,0,1.54-10.6M389,68.68a6.73,6.73,0,0,0,.15,4.15l-.62,1.08a9.73,9.73,0,0,1-1.38,2,7.43,7.43,0,0,0-1.07,2,4.05,4.05,0,0,0,.46,3.22,4.27,4.27,0,0,0,2.3,2.15A5.31,5.31,0,0,0,395,81.59,11.87,11.87,0,0,0,396.55,79l1.23-2.92.15-.15.61-.16a11.17,11.17,0,0,0,5.08-2.92A10.27,10.27,0,0,0,407.15,75l4.46,1.07A13.7,13.7,0,0,0,415,77.14a7.89,7.89,0,0,0,4.61-.46A9,9,0,0,0,425,71.91q1.69-4.16-.92-6.91L421,62.38l-.92-2.3q-.92-1.84-4.46-4l-1.53-2a4.48,4.48,0,0,0-1.69-2.92q-1.85-1.68-5.84-.77a19.13,19.13,0,0,0-6.46,3.54s.07,0,.16,0a9.88,9.88,0,0,1,5.68.15,17.6,17.6,0,0,1,5.54,2.15,6.84,6.84,0,0,1,2.92,5.08,10.25,10.25,0,0,1,4.14,1.23,4,4,0,0,1,2.16,3.38,4,4,0,0,1-2.16,3.69,15.69,15.69,0,0,1-4.14,1.23c-3.39.41-5.64-.06-6.77-1.39a9.49,9.49,0,0,1-6.76.92A9.89,9.89,0,0,1,395,67a6.56,6.56,0,0,1-1.54-4,6.91,6.91,0,0,1,.62-3.08l-1.54,2q-3.07,4.31-3.53,6.76M350,90.2l-2.31-.46a8.76,8.76,0,0,0-2.3,0A4.3,4.3,0,0,0,341.52,93a4.35,4.35,0,0,0,1.39,4.76l2.3,1.69a10.36,10.36,0,0,1,2,2.77,30.78,30.78,0,0,0,6.92,8,9.56,9.56,0,0,0,4.76,2.31,7.92,7.92,0,0,0,1.54,0,12.25,12.25,0,0,0,1.69,6.91,10.73,10.73,0,0,0,3.53,3.23A10.09,10.09,0,0,0,369,124a4.14,4.14,0,0,0,2-.15,6.88,6.88,0,0,0,.16,1.38l.3.77,2.31,2.77a3.53,3.53,0,0,0,2,.77,3.22,3.22,0,0,0,2.15-1.69,3,3,0,0,0-.31-2.62,6.24,6.24,0,0,0-1.23-1.53l-1.53-1.39a4.53,4.53,0,0,0-1.69-.46,4.34,4.34,0,0,0,.15-2.92c0-.2-.41-1.64-1.23-4.3q0-.15-.46-6a10.38,10.38,0,0,0-1.38-5.68q-2-3.08-5.08-2.62a4.27,4.27,0,0,0-2.92,2l-.77-.77a23.19,23.19,0,0,1-3.22-3.68,5.28,5.28,0,0,0-.46-4.77A5.5,5.5,0,0,0,354,90.2h-4M352.44,95a3.82,3.82,0,0,1,3.38.61L357.05,97l.92,1.85.15,1.69-.46,2.3a3.28,3.28,0,0,1-2.15,1.54,2.83,2.83,0,0,1-2.61-.31l-.77-.77a7,7,0,0,1-1.54-2L349.82,98c0-1.44.88-2.46,2.62-3.07m4.45,12.75-.46-1.38a2.72,2.72,0,0,1,1.69-3.23,3.71,3.71,0,0,1,3.69.15l1.08.93a3.5,3.5,0,0,1,1.07,1.69,2.71,2.71,0,0,1-.92,2.92,4,4,0,0,1-2.92,1.07,2.59,2.59,0,0,1-2.15-.77,4.81,4.81,0,0,1-1.08-1.38m8.61,2.77.77,1.07.31.62-.46.61-.93.46-.92-.46-.61-1.07.61-1.08.16-.15h1.07M10.78,96.35a4.59,4.59,0,0,0-.92-4A6,6,0,0,0,6,90.51c-2.66-.21-4.51.77-5.53,2.92a4.45,4.45,0,0,0-.31,3.23,3.78,3.78,0,0,0,2,2.61,7.89,7.89,0,0,0,3.23.46,8.7,8.7,0,0,0,2.77-.46,4.71,4.71,0,0,0,2.61-2.92m184,11.22c-2.36,1.23-3.54,2.71-3.54,4.46a4.33,4.33,0,0,0,2.77,4q.3.15,4.92,1.85c1.43.71,2.56,1.22,3.38,1.53a6.89,6.89,0,0,0,3.53.77c2.77,0,4.82-1.48,6.15-4.46a16.81,16.81,0,0,0,1.54-7.83q.3-3.54-1.23-5.08a3.59,3.59,0,0,0-2.61-1.07,4,4,0,0,0-2.62.61,5.78,5.78,0,0,0-2.61,4.77,12.65,12.65,0,0,0-9.68.46m9.83,1.07a2,2,0,0,1,1.85.31,4.43,4.43,0,0,1,1.38,1.38l.31.77.15,1.23a4.26,4.26,0,0,1-2.76,3.23,3.8,3.8,0,0,1-4.61-5.23,3.29,3.29,0,0,1,3.68-1.84v.15m30.28-2.15a20.72,20.72,0,0,0,3.54,2.61l4,2.62A9.51,9.51,0,0,0,247,113.1a5.42,5.42,0,0,0,4.92-2,6.78,6.78,0,0,0,1.85-4.15q0-3.53-4.31-7.22a17,17,0,0,0-6.91-4.46,7.66,7.66,0,0,0-7.84,1.54,5.76,5.76,0,0,0-1.85,4.76,7.63,7.63,0,0,0,2,4.92m8.92-7.84a10.91,10.91,0,0,1,3.07.31,5.54,5.54,0,0,1,3.69,3.69,3.91,3.91,0,0,1,0,2.15,4.73,4.73,0,0,1-2.61,2.46,8.7,8.7,0,0,1-3.69.15q-3.54-.3-5.07-2.15a4,4,0,0,1-.77-3.38,4.17,4.17,0,0,1,2.15-2.77,8.77,8.77,0,0,1,3.23-.46m30.89-12.14a4.85,4.85,0,0,0,1.84-2.46,3.71,3.71,0,0,0-.3-2.92q-1.23-2.61-3.39-2.46c-.61,0-.82-.1-.61-.3a13.68,13.68,0,0,0-4.46,2.15,7.22,7.22,0,0,0-3.07,2.61,3.81,3.81,0,0,0-.46,4,3.63,3.63,0,0,0,3.22,2.61,6.88,6.88,0,0,0,3.08-.77,12.59,12.59,0,0,0,4.15-2.46M223.8,78.37q-4.92,3.84-5.54,8.6a10.1,10.1,0,0,0,.46,5.23,8.42,8.42,0,0,0,3.23,4,7.07,7.07,0,0,0,5.23,1.08,7,7,0,0,0,4.76-2.46q1.55-2.46,2.46-3.69,1.84-2.46,2.77-3.84a6.34,6.34,0,0,0,1.38-4.15c-.1-2.36-1.54-4.3-4.3-5.84a11.53,11.53,0,0,0-5.07-1.38,9.34,9.34,0,0,0-5.38,2.46m5.53.46a4.3,4.3,0,0,1,3.38,1.38,5.84,5.84,0,0,1,1.38,2.15,9.75,9.75,0,0,1-2.3,9.68,4.33,4.33,0,0,1-2.31,1.39q-3.22.76-5.22-2.46A5.35,5.35,0,0,1,223,86.82a12.18,12.18,0,0,1,.77-3.07A8.59,8.59,0,0,1,226,80.06a4.07,4.07,0,0,1,3.38-1.23m-193.65,18-.31-.92a10.31,10.31,0,0,0-3.54.61l.16.62h.15l3.23.3.31-.61M37.52,91A1.88,1.88,0,0,0,38,92.66c.62.61,1.79.82,3.54.61a16.59,16.59,0,0,1,8,1.23l2.15.47A1.92,1.92,0,0,0,53.35,94a1.84,1.84,0,0,0,.46-1.84,7.89,7.89,0,0,0-1.23-1.38A15.48,15.48,0,0,0,42.13,87.9a6.42,6.42,0,0,0-3.69,1.22A3.2,3.2,0,0,0,37.52,91m21.82-.31a3.25,3.25,0,0,0-2,2.92A3.54,3.54,0,0,0,59.81,97a14.13,14.13,0,0,0,4.45.62h2.46a9.28,9.28,0,0,0,3.38-.46,3.76,3.76,0,0,0,2.15-2.62,3.38,3.38,0,0,0-.92-3.38,6.17,6.17,0,0,0-3.69-1.38,37.79,37.79,0,0,0-4.76,0,6.33,6.33,0,0,0-3.54.92m39.5,2.46a5.47,5.47,0,0,0-2.92,1.54,3.31,3.31,0,0,0-1.07,2.76,4.41,4.41,0,0,0,1.84,3.39,12.89,12.89,0,0,0,3.38,1.69,11.4,11.4,0,0,0,4.46,1.07,5.65,5.65,0,0,0,4.15-1.38,4.48,4.48,0,0,0,1.23-2.92,4,4,0,0,0-.92-3.08A8.89,8.89,0,0,0,105.15,94a12.52,12.52,0,0,0-6.31-.92m48.11,6q0,2,2.31,3.69a12.23,12.23,0,0,0,4,1.39,1.38,1.38,0,0,1-.61-.46,4.86,4.86,0,0,1-1.54-3.54,2.69,2.69,0,0,1,2.46-2.61,3.2,3.2,0,0,1,1.38,0,20.16,20.16,0,0,1,2.92.15,3.28,3.28,0,0,1,2,1.54,2.91,2.91,0,0,1,.77,2.3,3.53,3.53,0,0,1-1.85,2.62,7.18,7.18,0,0,1-.92.46h.62l4.76-.16a7.56,7.56,0,0,0,4.15-1.07,4.2,4.2,0,0,0,1.69-3.38,5,5,0,0,0,0-.77,8.08,8.08,0,0,0,2.46-.62L176.92,96q4.31-1.38,5.07-2.15a4,4,0,0,0,1.23-4.3,6.73,6.73,0,0,0-2.61-3.85,6.9,6.9,0,0,0-5.53-1.38c-.47,0-.93.08-1.39.15a3.1,3.1,0,0,1,.92,1.08,6.15,6.15,0,0,1,.93,2.77l-.16,1.84a3.37,3.37,0,0,1-1.38,2,2.93,2.93,0,0,1-2.31.77,3,3,0,0,1-1.53-.62,3.09,3.09,0,0,1-.92-2.3,11.42,11.42,0,0,1,.3-3.54q-3.94,2.65-5.22,5.07a4.79,4.79,0,0,0-.46,3.23h-3.54L154.94,94a9.42,9.42,0,0,0-5.22.77,4.53,4.53,0,0,0-2.77,4.3M119.29,87.59a4,4,0,0,0,.15,2.46,2.72,2.72,0,0,0,1.84,1.53l2-.15a25.86,25.86,0,0,1,6.92,0l2,.15a3.19,3.19,0,0,0,2.15-1.38,3.72,3.72,0,0,0,.61-2.46A4.54,4.54,0,0,0,132,84.67a12.22,12.22,0,0,0-4.15-.62,13.48,13.48,0,0,0-5.07.31C120.87,85,119.69,86.05,119.29,87.59Z"/><path class="cls-2" d="M323.08,83.59a11,11,0,0,0-2.76,2.92,4.7,4.7,0,0,0-1.23,2.61,3.06,3.06,0,0,0,1.23,3.08,3.67,3.67,0,0,0,3.22.61A6.48,6.48,0,0,0,326.31,91l2.15-2.61a8.65,8.65,0,0,0,1.08-2.31,3.14,3.14,0,0,0-2.46-3.23,4.51,4.51,0,0,0-3.38.31,3.82,3.82,0,0,1-.62.46m41.19,27.05-.61,1.08.61,1.07.92.46.93-.46.46-.61-.31-.62-.77-1.07h-1.07Z"/><path class="cls-3" d="M400.08,53.93a10.84,10.84,0,0,0-4.76,3.84,13.72,13.72,0,0,0-1.23,2.15,6.91,6.91,0,0,0-.62,3.08A6.56,6.56,0,0,0,395,67a9.89,9.89,0,0,0,5.84,3.38,9.49,9.49,0,0,0,6.76-.92c1.13,1.33,3.38,1.8,6.77,1.39a15.69,15.69,0,0,0,4.14-1.23,4,4,0,0,0,2.16-3.69,4,4,0,0,0-2.16-3.38,10.25,10.25,0,0,0-4.14-1.23,6.84,6.84,0,0,0-2.92-5.08,17.6,17.6,0,0,0-5.54-2.15,9.88,9.88,0,0,0-5.68-.15c-.09,0-.14,0-.16,0M358,109.1a2.59,2.59,0,0,0,2.15.77A4,4,0,0,0,363,108.8a2.71,2.71,0,0,0,.92-2.92,3.5,3.5,0,0,0-1.07-1.69l-1.08-.93a3.71,3.71,0,0,0-3.69-.15,2.72,2.72,0,0,0-1.69,3.23l.46,1.38A4.81,4.81,0,0,0,358,109.1M349.82,98l.77,3.23a7,7,0,0,0,1.54,2l.77.77a2.83,2.83,0,0,0,2.61.31,3.28,3.28,0,0,0,2.15-1.54l.46-2.3L358,98.81,357.05,97l-1.23-1.38a3.82,3.82,0,0,0-3.38-.61c-1.74.61-2.62,1.63-2.62,3.07M204.58,108.49a3.29,3.29,0,0,0-3.68,1.84,3.8,3.8,0,0,0,4.61,5.23,4.26,4.26,0,0,0,2.76-3.23l-.15-1.23-.31-.77a4.43,4.43,0,0,0-1.38-1.38,2,2,0,0,0-1.85-.31v-.15m36-9.38a4.17,4.17,0,0,0-2.15,2.77,4,4,0,0,0,.77,3.38q1.53,1.84,5.07,2.15a8.7,8.7,0,0,0,3.69-.15,4.73,4.73,0,0,0,2.61-2.46,3.91,3.91,0,0,0,0-2.15A5.54,5.54,0,0,0,246.85,99a10.91,10.91,0,0,0-3.07-.31,8.77,8.77,0,0,0-3.23.46m-14.6-19a8.59,8.59,0,0,0-2.15,3.69,12.18,12.18,0,0,0-.77,3.07A5.35,5.35,0,0,0,224.26,91q2,3.23,5.22,2.46A4.33,4.33,0,0,0,231.79,92a9.75,9.75,0,0,0,2.3-9.68,5.84,5.84,0,0,0-1.38-2.15,4.3,4.3,0,0,0-3.38-1.38A4.07,4.07,0,0,0,226,80.06m-50.41,8.3a6.15,6.15,0,0,0-.93-2.77,3.1,3.1,0,0,0-.92-1.08,3.21,3.21,0,0,0-1.38,0,2.71,2.71,0,0,0-2,.77l-.77,1.23h0a11.42,11.42,0,0,0-.3,3.54,3.09,3.09,0,0,0,.92,2.3,3,3,0,0,0,1.53.62A2.93,2.93,0,0,0,174,92.2a3.37,3.37,0,0,0,1.38-2l.16-1.84m-22,9.22a2.69,2.69,0,0,0-2.46,2.61,4.86,4.86,0,0,0,1.54,3.54,1.38,1.38,0,0,0,.61.46,1.55,1.55,0,0,0,.62.46,3.3,3.3,0,0,0,1.69.31,5.29,5.29,0,0,0,2.3-.31,7.18,7.18,0,0,0,.92-.46,3.53,3.53,0,0,0,1.85-2.62,2.91,2.91,0,0,0-.77-2.3,3.28,3.28,0,0,0-2-1.54,20.16,20.16,0,0,0-2.92-.15A3.2,3.2,0,0,0,153.56,97.58Z"/></g><path id="Layer0_11_MEMBER_1_1_STROKES" data-name="Layer0 11 MEMBER 1 1 STROKES" class="cls-4" d="M612.61,0H0V202.87H612.61Z"/></g></g></svg>