<svg xmlns="http://www.w3.org/2000/svg" viewBox="0 0 612.61 202.87"><defs><style>.cls-1{fill:#ad4dc4;}.cls-2{fill:#f3bbff;}.cls-3{fill:none;}</style></defs><g id="Layer_2" data-name="Layer 2"><g id="Layer_1-2" data-name="Layer 1"><g id="Layer0_1_MEMBER_0_FILL" data-name="Layer0 1 MEMBER 0 FILL"><path class="cls-1" d="M24,95.58a187.93,187.93,0,0,1-24-8.3,119.05,119.05,0,0,0,26.9-4.76q8.07,2.79,12.91,4.3,24.9,8.61,41.8,1.08a22.74,22.74,0,0,0,6.92,8.45,23.35,23.35,0,0,0,10,4.3,23.13,23.13,0,0,0,11.06-1.53,21.75,21.75,0,0,0,8.92-6.61q6.3,13.21,22.28,16.9a37.57,37.57,0,0,0,12,1.08q-21.61,7-41.19-1.38-8.3,6.92-20.29,4.15-11.83-2.92-16.13-13.07-6.61,3.39-16.14,3.08a121.87,121.87,0,0,1-16.91-2.62Q31.21,97.89,24,95.58Z"/><path class="cls-2" d="M172,77.6a30.63,30.63,0,0,1,7.07,16.91,60.9,60.9,0,0,1-23.67,15.06c-.87.32-1.74.62-2.61.92a37.57,37.57,0,0,1-12-1.08q-16-3.68-22.28-16.9a21.75,21.75,0,0,1-8.92,6.61,23.13,23.13,0,0,1-11.06,1.53,23.35,23.35,0,0,1-10-4.3,22.74,22.74,0,0,1-6.92-8.45q-16.9,7.53-41.8-1.08Q35,85.32,26.9,82.52q3.54-1,7.07-2.31Q45.19,75.91,51,74.37,60.86,71.46,68.24,73a47.85,47.85,0,0,1,5.69,1.08,27.57,27.57,0,0,0,5.38.76q5.37-.3,13.52-6.14,7.07-4.77,11.22-7.07a44,44,0,0,1,12.14-4.46,25.91,25.91,0,0,1,13.22,1.54,16,16,0,0,1,9.07,8.45,30.94,30.94,0,0,1,18.29.31A29.89,29.89,0,0,1,172,77.6Z"/></g><path id="Layer0_1_MEMBER_1_1_STROKES" data-name="Layer0 1 MEMBER 1 1 STROKES" class="cls-3" d="M612.61,0H0V202.87H612.61Z"/></g></g></svg>