<svg xmlns="http://www.w3.org/2000/svg" viewBox="0 0 612.61 202.87"><defs><style>.cls-1{fill:#f3bbff;}.cls-2{fill:#ad4dc4;}.cls-3{fill:none;}</style></defs><g id="Layer_2" data-name="Layer 2"><g id="Layer_1-2" data-name="Layer 1"><g id="Layer0_2_MEMBER_0_FILL" data-name="Layer0 2 MEMBER 0 FILL"><path class="cls-1" d="M297.55,87.13a53,53,0,0,1,1.69,6.61,64.84,64.84,0,0,1-4,6.91,55.93,55.93,0,0,1-18.13,17.22,36.06,36.06,0,0,1-14-3.84,62.17,62.17,0,0,1-15.83-12.3,171.3,171.3,0,0,1-13.37-16.14q-12.6,16.45-35.66,17.52-22.89,1.08-37.34-14-8.31,4.14-19.68,3.84a119.43,119.43,0,0,1-20.59-2.77Q82.81,82.75,54,77a459.8,459.8,0,0,0,57.48-14q12-3.84,16.75-5.07a73.24,73.24,0,0,1,17.06-2.31,38,38,0,0,1,16.91,3.84A26.46,26.46,0,0,1,174.44,71q14.61-22.44,33.05-25.36,10.75-2,20.59,4.46,10.14,6.77,10.14,17.06a40,40,0,0,1,45.65.46A36.48,36.48,0,0,1,297.55,87.13Z"/><path class="cls-2" d="M14.75,89.13q-6-2-14.75-5.69A447.26,447.26,0,0,0,54,77q28.86,5.74,66.7,13.21A119.43,119.43,0,0,0,141.24,93q11.38.3,19.68-3.84,14.45,15.06,37.34,14,23.06-1.06,35.66-17.52a171.3,171.3,0,0,0,13.37,16.14A62.17,62.17,0,0,0,263.12,114a36.06,36.06,0,0,0,14,3.84c-.67.45-1.33.86-2,1.23a69.6,69.6,0,0,1-17.37,6.14A47.8,47.8,0,0,1,234.38,124a47.38,47.38,0,0,1-14.29-8.3c-2.51,1.75-3.9,2.72-4.15,2.92A51.13,51.13,0,0,1,205.49,124q-12.77,5.37-23.36,1.22a20.8,20.8,0,0,1-5.84-3.22q-.31-.17-5.38-4.15a10.2,10.2,0,0,1-1.23-1.23l-.62.31c-1,.41-2.56,1.12-4.61,2.15a19.44,19.44,0,0,1-8.45.3c-6.76,0-11.38-1.28-13.83-3.84q-2.26-2.11-3.85-7.53a38,38,0,0,1-13.52,3.69,33.3,33.3,0,0,1-16.91-3.07A72.13,72.13,0,0,1,97.13,102a63.94,63.94,0,0,0-11.06-6.46q-6.46-2.14-16-1.53c-3.68.2-9.12.61-16.29,1.22Q36,96.35,14.75,89.13Z"/></g><path id="Layer0_2_MEMBER_1_1_STROKES" data-name="Layer0 2 MEMBER 1 1 STROKES" class="cls-3" d="M612.61,0H0V202.87H612.61Z"/></g></g></svg>