<svg xmlns="http://www.w3.org/2000/svg" viewBox="0 0 612.61 202.87"><defs><style>.cls-1{fill:#ad4dc4;}.cls-2{fill:#f3bbff;}.cls-3{fill:none;}</style></defs><g id="Layer_2" data-name="Layer 2"><g id="Layer_1-2" data-name="Layer 1"><g id="Layer0_3_MEMBER_0_FILL" data-name="Layer0 3 MEMBER 0 FILL"><path class="cls-1" d="M15.52,85.13c1,.25,2,.45,3.08.62q14.13,2.15,44.11,2.61h66.55c2.45,3.89,6.25,5.94,11.37,6.15s9.12-1.39,12-5.08a24.69,24.69,0,0,0,25.82,15.07A24.52,24.52,0,0,0,192,96.81a22.43,22.43,0,0,0,6.3-12.6q-.66,9.48,9.69,15.37,10.76,6.15,21.21,2.15,9.21-3.54,16.9-13.22Q251,82.36,257.9,69.92q6.92,6.92,2.76,18-4,10.91-13.83,11.52a70.14,70.14,0,0,0,32.58,18.14,72.54,72.54,0,0,0,32,1.23,46.37,46.37,0,0,1-10.76,6.76,49,49,0,0,1-29,3.54,50.05,50.05,0,0,1-26.29-12.76Q227,127.87,210.71,127.86a37.16,37.16,0,0,1-17.83-4.46,27.85,27.85,0,0,1-5.37-3.84,30.23,30.23,0,0,1-12.15.61q-11.52-1.38-15.37-10-12.9,11.53-23.05,8.15Q134,117.1,128,111.41q-3-3.16-7.38-7.68-5.28,3.94-7.69,5.38a38.36,38.36,0,0,1-13.67,5.38,23.93,23.93,0,0,1-14.76-2Q77,108.8,75,101.73q-16.9,8.14-24.9,2-.76-.62-4.45-4.46A10.66,10.66,0,0,0,40.88,96c-1.64-.71-4.45-.71-8.45,0Q22.13,97.58,10,93A88.19,88.19,0,0,1,0,88.36,82.29,82.29,0,0,0,15.52,85.13Z"/><path class="cls-2" d="M15.52,85.13q2.81-.78,5.69-1.84,3.54-1.23,13.68-5.38A84.67,84.67,0,0,1,48.57,73a42.69,42.69,0,0,1,14.6-1.08,25.64,25.64,0,0,1,13.37,5.23Q87,65.31,103.9,63.92q15.75-1.28,27.35,7.07a57,57,0,0,0,6.61-4.15q15.06-10.9,19.83-12.75a30.45,30.45,0,0,1,23.05.46q12,4.61,16.91,15.37a173.14,173.14,0,0,1,15.52-12.76,50.86,50.86,0,0,1,17.52-8.45,32,32,0,0,1,19.83,1.38q10.14,4.15,13.22,13.22a49.84,49.84,0,0,1,22.9-5.38,47.45,47.45,0,0,1,22.74,5.84,48.44,48.44,0,0,1,17.06,16.44,51.4,51.4,0,0,1,3.23,6,53.78,53.78,0,0,1-18.29,32.58,72.54,72.54,0,0,1-32-1.23,70.14,70.14,0,0,1-32.58-18.14q9.84-.61,13.83-11.52,4.15-11.07-2.76-18Q251,82.35,246.06,88.51q-7.68,9.69-16.9,13.22-10.46,4-21.21-2.15-10.35-5.89-9.69-15.37a22.43,22.43,0,0,1-6.3,12.6,24.52,24.52,0,0,1-13.52,7.69,24.69,24.69,0,0,1-25.82-15.07q-4.31,5.53-12,5.08c-5.12-.21-8.92-2.26-11.37-6.15H62.71q-30-.47-44.11-2.61C17.53,85.58,16.5,85.38,15.52,85.13Z"/></g><path id="Layer0_3_MEMBER_1_1_STROKES" data-name="Layer0 3 MEMBER 1 1 STROKES" class="cls-3" d="M612.61,0H0V202.87H612.61Z"/></g></g></svg>