<svg xmlns="http://www.w3.org/2000/svg" viewBox="0 0 612.61 202.87"><defs><style>.cls-1{fill:#f3bbff;}.cls-2{fill:#ad4dc4;}.cls-3{fill:none;}</style></defs><g id="Layer_2" data-name="Layer 2"><g id="Layer_1-2" data-name="Layer 1"><g id="Layer0_4_MEMBER_0_FILL" data-name="Layer0 4 MEMBER 0 FILL"><path class="cls-1" d="M74.85,82.21q4.31-3.69,6.45-5.38A31.29,31.29,0,0,1,99,69q8.31-.83,14.14,2.92a39,39,0,0,1,8.6-6.3,33,33,0,0,1,21.06-4.15q4.16.47,24.9,7.53,14.76,5.07,24,1.23a34.23,34.23,0,0,0,8.91-5.53q5.38-4.61,8.3-6.76,12.6-9.23,29.51-6.77A41.19,41.19,0,0,1,259,59.62,47.29,47.29,0,0,1,265.89,53a42.84,42.84,0,0,1,20.59-8.91A45.67,45.67,0,0,1,308.92,47a42.7,42.7,0,0,1,18,13.21q9.39-8,23.06-8.3a41.18,41.18,0,0,1,24.13,6.77,52.14,52.14,0,0,1,17.37,18,66.34,66.34,0,0,1,6.91,16,51.63,51.63,0,0,1-5.22,9.07,66.47,66.47,0,0,1-10.92,12,66.91,66.91,0,0,1-16.29,2.76A65.53,65.53,0,0,1,335.67,111q-10.31-5.53-10.3-11.83a11.93,11.93,0,0,1,2-7.23c2-2.87,3.53-5.07,4.45-6.61q4-7.83,0-16.9Q328,59.47,319.53,56.85a55.1,55.1,0,0,1-1.08,21.36,40.39,40.39,0,0,1-10,18.6,33,33,0,0,1-18.29,10.61,28.92,28.92,0,0,1-20.59-2.62q-9.37-5.22-11.84-16.9a19.54,19.54,0,0,1-.46-3.54c-.74,1-1.51,2.06-2.3,3.08a33.06,33.06,0,0,1-16.91,11.68,32.32,32.32,0,0,1-20.13-.62,33.38,33.38,0,0,1-16.76-11.68q-10,12.15-28,10.76-18.14-1.53-26.13-15.06a28.45,28.45,0,0,1-18,7.68,26.8,26.8,0,0,1-18.9-5.38Q104.67,97.74,79,96L9.07,91.13c1.86-1.08,4.32-2.56,7.38-4.46A56.11,56.11,0,0,1,28,81a36,36,0,0,1,22.29,0q5.37,2.61,8.3,3.69a19.52,19.52,0,0,0,8.91,1.38A19.64,19.64,0,0,0,74.85,82.21Z"/><path class="cls-2" d="M5.23,93.28c.74-.35,2-1.07,3.84-2.15L79,96q25.66,1.69,31.2-11.22a26.8,26.8,0,0,0,18.9,5.38,28.45,28.45,0,0,0,18-7.68q8,13.52,26.13,15.06,18,1.38,28-10.76A33.38,33.38,0,0,0,217.94,98.5a32.32,32.32,0,0,0,20.13.62A33.06,33.06,0,0,0,255,87.44c.79-1,1.56-2,2.3-3.08a19.54,19.54,0,0,0,.46,3.54q2.46,11.67,11.84,16.9a28.92,28.92,0,0,0,20.59,2.62,33,33,0,0,0,18.29-10.61,40.39,40.39,0,0,0,10-18.6,55.1,55.1,0,0,0,1.08-21.36q8.45,2.61,12.29,11.53,4,9.06,0,16.9c-.92,1.54-2.41,3.74-4.45,6.61a11.93,11.93,0,0,0-2,7.23q0,6.3,10.3,11.83a65.53,65.53,0,0,0,30.27,5.53,66.91,66.91,0,0,0,16.29-2.76,74.67,74.67,0,0,1-13.83,9.22q-11.37,5.84-21.82,6.45-12.45.78-20.44-6.14a32.93,32.93,0,0,1-4.92-4.46,10.23,10.23,0,0,0-5.84-2.77c-2.26-.3-4.66.46-7.23,2.31a73.55,73.55,0,0,0-6.3,5.38q-8,7.22-20.13,8.6a49.6,49.6,0,0,1-22.44-2.45Q245.5,125,230.85,111.72a48.39,48.39,0,0,1-10,6,41.74,41.74,0,0,1-18.45,3.69,42.23,42.23,0,0,1-18.59-4.3,44.08,44.08,0,0,1-14.91-11.84,27.6,27.6,0,0,1-17.21,8,27.88,27.88,0,0,1-18.45-3.85q-1.38-.76-4.15-2.61a15.83,15.83,0,0,0-4.3-2,14.62,14.62,0,0,0-6.76.77q-1.7.62-6.31,2.77a52.87,52.87,0,0,1-28.89,3.38,52.79,52.79,0,0,1-21.06-7.84A52.84,52.84,0,0,1,43.19,109a51.43,51.43,0,0,1-26.44-4.15Q12,102.87,0,95.27A30,30,0,0,0,5.23,93.28Z"/></g><path id="Layer0_4_MEMBER_1_1_STROKES" data-name="Layer0 4 MEMBER 1 1 STROKES" class="cls-3" d="M612.61,0H0V202.87H612.61Z"/></g></g></svg>