<svg xmlns="http://www.w3.org/2000/svg" viewBox="0 0 612.61 202.87"><defs><style>.cls-1{fill:#f3bbff;}.cls-2{fill:#ad4dc4;}.cls-3{fill:none;}</style></defs><g id="Layer_2" data-name="Layer 2"><g id="Layer_1-2" data-name="Layer 1"><g id="Layer0_5_MEMBER_0_FILL" data-name="Layer0 5 MEMBER 0 FILL"><path class="cls-1" d="M332,89.9a15.93,15.93,0,0,0,3.38,7.37,18.15,18.15,0,0,0,6.15,4.92,47,47,0,0,0,15.83,3.38,61.46,61.46,0,0,0,13.21-.77q12.93-2.17,19.06-10.75,3.69-4.92,5.69-14.61a67.28,67.28,0,0,0,2.15-19.36,54,54,0,0,0-8.76-4.92,43.27,43.27,0,0,0-21.36-3.69A43.93,43.93,0,0,0,347,59.16,44.4,44.4,0,0,0,336,70.22q-1.16,4.14-2.46,8.92A23.26,23.26,0,0,0,332,89.9m146.77-6q-6.6-14.59-18.9-22.44-12.6-8.61-28.74-6.76-11.19,1.24-18.75,6.92a19.07,19.07,0,0,1,.61,9.06q-.92,8.46-9.53,18.45a46,46,0,0,0-6,8q-2.61,4.77-1.38,8.91,1.53,4.77,7.53,6.3a25.18,25.18,0,0,0,11.37-.15,55.07,55.07,0,0,0,15.37-7.38,38.58,38.58,0,0,1,5.69-3.07q2-.15,7.37,1.54a41.61,41.61,0,0,0,21.21,2,45.67,45.67,0,0,0,8.76-4.3,35.41,35.41,0,0,0,8.76-8.14,75.69,75.69,0,0,0-3.38-8.92M160.46,70.38a27.15,27.15,0,0,0-12.61,2.92,41.74,41.74,0,0,0-6.91,5.07c-1.65,1.41-3.08,2.59-4.31,3.53a36.48,36.48,0,0,0,7.07,9.53A34.73,34.73,0,0,0,159.84,101a38,38,0,0,0,18.9.46,35.45,35.45,0,0,0,16.76-8.91q5.07-4.62,7.68-6.61c3.08-2.15,5.89-3,8.46-2.61,1.63.2,3.89,1.33,6.76,3.38s5.22,3,7.07,3.23a13.45,13.45,0,0,0,6.15-1.54,41,41,0,0,1,6.14-2.31q6.77-1.53,17.37,7.53,11.07,9.54,17.67,8.92,5.08-.47,15.22-8.76,8.91-7.23,14.75-5.07,2.16.61,8.92,6.45,5.38,4.3,9.07,2.77,3.38-1.69,5.38-8.46l5.22-18.9q-2.67-5.52-10.45-8.15a29.31,29.31,0,0,0-20.44.62q-4.16,1.53-18.29,9.22-10.9,6-18.6,6.92a40.1,40.1,0,0,1-16.29-1.39,124.48,124.48,0,0,1-15.67-5.53q-19.38-8.91-31.82-8.45a26,26,0,0,0-15.21,6.15A19,19,0,0,0,181.51,73,28,28,0,0,0,174,71a129.14,129.14,0,0,0-13.52-.61M47.18,93.28q10.6,3.69,17.68,0,5.07-3.07,7.68-3.08c1.85,0,3.79,1,5.84,3.08a44.23,44.23,0,0,0,5.38,5.38,11.24,11.24,0,0,0,8.61,2.15A17.87,17.87,0,0,0,101,97.12a24.13,24.13,0,0,0,6.14-6.92c.38-.64,1-1.71,1.85-3.22-.23,0-.43-.1-.62-.16q-3.37-1.23-11.68-6.3-7.38-4.45-12.14-5.69a23.14,23.14,0,0,0-16.6,2.31,24.68,24.68,0,0,0-7.68,6,17,17,0,0,0-5.84-2.46,21.86,21.86,0,0,0-10.3,0,42.8,42.8,0,0,0-10,3.08c-1,.39-2.32.91-3.84,1.53l.77.31q2,.93,8,4A68.85,68.85,0,0,0,47.18,93.28Z"/><path class="cls-2" d="M31.05,85.59q2,.93,8,4a68.85,68.85,0,0,0,8.14,3.69q10.6,3.69,17.68,0,5.07-3.07,7.68-3.08c1.85,0,3.79,1,5.84,3.08a44.23,44.23,0,0,0,5.38,5.38,11.24,11.24,0,0,0,8.61,2.15A17.87,17.87,0,0,0,101,97.12a24.13,24.13,0,0,0,6.14-6.92c.38-.64,1-1.71,1.85-3.22a31.63,31.63,0,0,0,12.6,1.07A30.52,30.52,0,0,0,134,83.75c.73-.46,1.6-1.08,2.61-1.85a36.48,36.48,0,0,0,7.07,9.53A34.73,34.73,0,0,0,159.84,101a38,38,0,0,0,18.9.46,35.45,35.45,0,0,0,16.76-8.91q5.07-4.62,7.68-6.61c3.08-2.15,5.89-3,8.46-2.61,1.63.2,3.89,1.33,6.76,3.38s5.22,3,7.07,3.23a13.45,13.45,0,0,0,6.15-1.54,41,41,0,0,1,6.14-2.31q6.77-1.53,17.37,7.53,11.07,9.54,17.67,8.92,5.08-.47,15.22-8.76,8.91-7.23,14.75-5.07,2.16.61,8.92,6.45,5.38,4.3,9.07,2.77,3.38-1.69,5.38-8.46l5.22-18.9a15,15,0,0,1,1.39,5.07A40.28,40.28,0,0,1,336,70.22q-1.16,4.14-2.46,8.92A23.26,23.26,0,0,0,332,89.9a15.93,15.93,0,0,0,3.38,7.37,18.15,18.15,0,0,0,6.15,4.92,47,47,0,0,0,15.83,3.38,61.46,61.46,0,0,0,13.21-.77q12.93-2.17,19.06-10.75,3.69-4.92,5.69-14.61a67.28,67.28,0,0,0,2.15-19.36,48.65,48.65,0,0,1,8.3,8.3,34.17,34.17,0,0,1,6.61-6.76,19.07,19.07,0,0,1,.61,9.06q-.92,8.46-9.53,18.45a46,46,0,0,0-6,8q-2.61,4.77-1.38,8.91,1.53,4.77,7.53,6.3a25.18,25.18,0,0,0,11.37-.15,55.07,55.07,0,0,0,15.37-7.38,38.58,38.58,0,0,1,5.69-3.07q2-.15,7.37,1.54a41.61,41.61,0,0,0,21.21,2,61.53,61.53,0,0,1-24,3.39,12.71,12.71,0,0,1,1.53,8.3,17.08,17.08,0,0,1-3.38,7.83A20.68,20.68,0,0,1,427,132.16a27.14,27.14,0,0,1-14.29-.46q-10.77-2.61-25.06-14.14L385,115.72a34.51,34.51,0,0,1-13.68,11.37,42.55,42.55,0,0,1-24,4.3q-23.52-2.76-40.73-25.36a39.67,39.67,0,0,1-14.91,9.38,40.71,40.71,0,0,1-34.43-2.77,37.51,37.51,0,0,1-8-5.68q-9.61,6.69-22.59,6.45-16.29-.3-26.59-11.22-13.68,8.15-23.52,11.22-13.68,4.45-24.9,1.08a51.35,51.35,0,0,1-10.91-4.61q-8.15-4.3-10.91-5.38A45.3,45.3,0,0,0,111.58,102a17.57,17.57,0,0,1-6.92,7.37A21.78,21.78,0,0,1,89.91,113a37.65,37.65,0,0,1-14.45-5.07q-4-2.31-12.91-8.76-7.21,6.91-19.36,7.07a55.25,55.25,0,0,1-21.67-4.77q-6.76-2.91-20-9.37c-.54-.24-1-.5-1.54-.77a79,79,0,0,0,24.59-3.69c2.17-.9,4.06-1.67,5.69-2.31Z"/></g><path id="Layer0_5_MEMBER_1_1_STROKES" data-name="Layer0 5 MEMBER 1 1 STROKES" class="cls-3" d="M612.61,0H0V202.87H612.61Z"/></g></g></svg>