<svg xmlns="http://www.w3.org/2000/svg" viewBox="0 0 612.61 202.87"><defs><style>.cls-1{fill:#f3bbff;}.cls-2{fill:#ad4dc4;}.cls-3{fill:none;}</style></defs><g id="Layer_2" data-name="Layer 2"><g id="Layer_1-2" data-name="Layer 1"><g id="Layer0_6_MEMBER_0_FILL" data-name="Layer0 6 MEMBER 0 FILL"><path class="cls-1" d="M376.85,69.45q-1.82,2.88-2.3,3.84a36.45,36.45,0,0,0-3.07,12q0,9.69,4.3,16.14a10.71,10.71,0,0,0,6.15,6.15q5.07,1.23,9.53-3.54,2-2,6.14-8.76a13.78,13.78,0,0,1,3.54-3.53,7.3,7.3,0,0,1,4.76.46c2.15,1.13,3.74,1.89,4.77,2.3a12.68,12.68,0,0,0,9.83-.61A16.59,16.59,0,0,0,428,87.13q4.92-7.23,3.39-19.52a62.89,62.89,0,0,0-2.16-13.83c-.92-.38-1.85-.74-2.76-1.08a39.16,39.16,0,0,0-22.75-1.23q-12.83,3-24.44,14.14-1.41,2.22-2.46,3.84M334.28,86.82a8,8,0,0,1,5.38,1.23q4.77,2.61,4.92,2.61,4.6,1.84,9.68-1.23A22.92,22.92,0,0,0,362,81.75,39.52,39.52,0,0,0,367,65.3c.1-1.14.15-2.27.15-3.38a41.74,41.74,0,0,0-9.07-3.53Q342.59,54.24,330,61.46q-2.78,1.7-13.07,9.84-7.83,6.3-13.83,8.14a16.76,16.76,0,0,1-3.84.62q-1,7.32,1.23,12.14A15.7,15.7,0,0,0,313.53,101a15.2,15.2,0,0,0,7.84-1.54,14.72,14.72,0,0,0,6-4.92q2-3.23,2.92-4.76a7,7,0,0,1,4-2.92m189.51,6c.08-.51.18-1.07.3-1.69q-12.65-22.91-28.89-32a44.42,44.42,0,0,0-28.13-5.68q-12.56,1.47-20.13,9.07A30.13,30.13,0,0,1,448,65.61q2,6.61-.76,15.83-1.39,3.69-4.46,10.76-2.16,6.15-.92,10.76a12.38,12.38,0,0,0,7.53,7.84q6,2.3,10.91-.62,1.85-1.23,7.84-7.84,4.46-4.92,8.61-5.22a12.34,12.34,0,0,1,6.3,1.69,51.84,51.84,0,0,0,6.45,3.38,20.6,20.6,0,0,0,10.76.61A61.28,61.28,0,0,0,511,99.42q8.78-3,12.76-6.61M229.31,91.43q7.23-5.22,11.07-7.68,6.45-4,12-3.54,4.77.62,12.91,6.76,8.14,5.85,13.22,6.3a14.29,14.29,0,0,0,6.92-1.84,12.18,12.18,0,0,0,6.45-11.68q-8.72-1.34-21.05-6.76-21.37-9.37-32.28-5.84-4.6,1.53-15.21,9.22c-.63.45-1.24.86-1.85,1.23q-3.94-4.26-11.22-5.07a31.5,31.5,0,0,0-17.06,2.76q-5.22,2.31-15.06,8a61.87,61.87,0,0,1-7.07,3.23,16,16,0,0,0,2.15,3.69q3.39,4.15,7.69,3.84A11.13,11.13,0,0,0,188,91.12a43.34,43.34,0,0,0,5.22-6.3q-1.08,4.16,2.92,7.53A15.67,15.67,0,0,0,204.72,96q12.6,2.31,24.59-4.61M54,90.66c0,.31.3.67.92,1.08l2.15.92a29.62,29.62,0,0,0,4.15.15l2.77.31a4.17,4.17,0,0,0,2.3,0,1.38,1.38,0,0,0,.77-.77.93.93,0,0,0-.15-.92l-1.08-.61-1.84-.77a8.53,8.53,0,0,0-2.62-.31,23.33,23.33,0,0,1-4.61-.46,1.72,1.72,0,0,0-1.23-.16l-.92.47c-.51.51-.72.87-.61,1.07m57.94-4.3a12.47,12.47,0,0,0-3.84,2.46,5.13,5.13,0,0,0-1.54,4.3,5.45,5.45,0,0,0,2.77,3.38A8.86,8.86,0,0,0,116,97.73a25.33,25.33,0,0,0,5.07-2A14.82,14.82,0,0,1,126.18,94a31.29,31.29,0,0,1,6.46.77q3.84.76,6-.46c1-.61,1.38-1.33,1.08-2.15q-.32-.77-2.31-1.08c-2-.3-4.87-1.59-8.76-3.84q-5.53-3.07-8.91-3.23A18.22,18.22,0,0,0,111.89,86.36Z"/><path class="cls-2" d="M99.44,88.66q-3.07,3.69-6.15,4.61Q89.15,94.5,83.76,92a92,92,0,0,1-8.91-4.91Q63.78,81,48,82.52q-9.06.92-28.89,6.3Q7.87,92,0,93.43,2.93,95,6.46,96.81a147.31,147.31,0,0,0,30.73,11.53q10,2.91,16.14,0A19.34,19.34,0,0,0,57,106a9,9,0,0,1,3.69-1.54,12.62,12.62,0,0,1,5.38.31,36.53,36.53,0,0,0,5.38,1.54,20.77,20.77,0,0,0,10.91.15,22.23,22.23,0,0,0,5.07-2,94.94,94.94,0,0,0,13.37,6.15q14.15,4.92,25.52,1.08,2-.61,10.6-4.77,6.45-3.08,10.91-3.22,6.15-.47,14.3,3.53,9.21,5.07,13.83,7.22,14.45,6.31,32.12,2.46a78.27,78.27,0,0,0,24.13-9.68,57.45,57.45,0,0,0,7.22,3.07q13.53,4.62,24.13.31,1.23-.47,6.77-3.07a18.15,18.15,0,0,1,7.07-2.31q4.75-.3,10.6,3.08,6.45,4.3,9.68,6.14,10.6,5.7,23.67,3.54a36.15,36.15,0,0,0,20.9-11.22A35.71,35.71,0,0,0,356,125.55a37.63,37.63,0,0,0,22.13,7.68,36.59,36.59,0,0,0,22-7.37,39.63,39.63,0,0,0,10.45-11.07c.41.32.82.63,1.23.92A25.81,25.81,0,0,0,428,120.94a22.17,22.17,0,0,0,6.77,9.53,21.14,21.14,0,0,0,10.45,4.76,22.79,22.79,0,0,0,11.37-1.38,21.61,21.61,0,0,0,9.38-6.76l5.07-7.38c1.95-3,4-5,6.15-6s5-1.44,8.6-.93a83,83,0,0,0,9.07,1.23A26.06,26.06,0,0,0,510,111.26,25.73,25.73,0,0,0,521,100.65a27.76,27.76,0,0,0,2.77-7.84q-4,3.57-12.76,6.61a61.28,61.28,0,0,1-10.76,3.38,20.6,20.6,0,0,1-10.76-.61,51.84,51.84,0,0,1-6.45-3.38,12.34,12.34,0,0,0-6.3-1.69q-4.15.3-8.61,5.22-6,6.61-7.84,7.84-4.92,2.92-10.91.62a12.38,12.38,0,0,1-7.53-7.84q-1.23-4.62.92-10.76,3.07-7.07,4.46-10.76,2.76-9.22.76-15.83a30.13,30.13,0,0,0-1.07-3.07,33.84,33.84,0,0,0-3.54,4.3,30.12,30.12,0,0,0-14.14-13.06,62.89,62.89,0,0,1,2.16,13.83Q433,79.9,428,87.13a16.59,16.59,0,0,1-7.53,6.76,12.68,12.68,0,0,1-9.83.61c-1-.41-2.62-1.17-4.77-2.3a7.3,7.3,0,0,0-4.76-.46,13.78,13.78,0,0,0-3.54,3.53q-4.14,6.77-6.14,8.76-4.47,4.77-9.53,3.54a10.71,10.71,0,0,1-6.15-6.15q-4.3-6.45-4.3-16.14a36.45,36.45,0,0,1,3.07-12q.48-1,2.3-3.84c-.19-.24-.4-.49-.61-.77a35.6,35.6,0,0,0-9.07-6.76c0,1.11-.05,2.24-.15,3.38A39.52,39.52,0,0,1,362,81.75a22.92,22.92,0,0,1-7.69,7.68q-5.07,3.07-9.68,1.23-.15,0-4.92-2.61a8,8,0,0,0-5.38-1.23,7,7,0,0,0-4,2.92q-.93,1.53-2.92,4.76a14.72,14.72,0,0,1-6,4.92,15.2,15.2,0,0,1-7.84,1.54,15.7,15.7,0,0,1-13.06-8.76q-2.25-4.82-1.23-12.14a29.51,29.51,0,0,1-7.38-.31,12.18,12.18,0,0,1-6.45,11.68,14.29,14.29,0,0,1-6.92,1.84q-5.07-.45-13.22-6.3-8.14-6.15-12.91-6.76-5.52-.46-12,3.54-3.85,2.44-11.07,7.68-12,6.91-24.59,4.61a15.67,15.67,0,0,1-8.61-3.69q-4-3.37-2.92-7.53a43.34,43.34,0,0,1-5.22,6.3A11.13,11.13,0,0,1,180.9,94q-4.31.31-7.69-3.84a16,16,0,0,1-2.15-3.69,34.74,34.74,0,0,1-8.91,2.15,41.68,41.68,0,0,1-14.6-2.3q-4.77-1.55-14.3-5.38a39.73,39.73,0,0,0-14.75-2.77q-8.31,0-13.68,4.31c-.1.1-1.9,2.15-5.38,6.14m29.2-1.38c3.89,2.25,6.81,3.54,8.76,3.84q2,.31,2.31,1.08c.3.82-.05,1.54-1.08,2.15q-2.15,1.23-6,.46a31.29,31.29,0,0,0-6.46-.77,14.82,14.82,0,0,0-5.07,1.69,25.33,25.33,0,0,1-5.07,2,8.86,8.86,0,0,1-6.76-1.23,5.45,5.45,0,0,1-2.77-3.38,5.13,5.13,0,0,1,1.54-4.3,12.47,12.47,0,0,1,3.84-2.46,18.22,18.22,0,0,1,7.84-2.31q3.38.17,8.91,3.23M55.48,89.12a1.72,1.72,0,0,1,1.23.16,23.33,23.33,0,0,0,4.61.46,8.53,8.53,0,0,1,2.62.31l1.84.77,1.08.61a.93.93,0,0,1,.15.92,1.38,1.38,0,0,1-.77.77,4.17,4.17,0,0,1-2.3,0l-2.77-.31A29.62,29.62,0,0,1,57,92.66l-2.15-.92c-.62-.41-.92-.77-.92-1.08s.1-.56.61-1.07Z"/></g><path id="Layer0_6_MEMBER_1_1_STROKES" data-name="Layer0 6 MEMBER 1 1 STROKES" class="cls-3" d="M612.61,0H0V202.87H612.61Z"/></g></g></svg>