<svg xmlns="http://www.w3.org/2000/svg" viewBox="0 0 612.61 202.87"><defs><style>.cls-1{fill:#f3bbff;}.cls-2{fill:#ad4dc4;}.cls-3{fill:none;}</style></defs><g id="Layer_2" data-name="Layer 2"><g id="Layer_1-2" data-name="Layer 1"><g id="Layer0_7_MEMBER_0_FILL" data-name="Layer0 7 MEMBER 0 FILL"><path class="cls-1" d="M389.15,88.66a20.89,20.89,0,0,0,8,15.07q7.38,6.13,16.14,4.91,6.62-1.38,9.68-4.91,1.69-2,4.15-9.23,2.16-6.14,5.07-8.14A20.41,20.41,0,0,1,436,84.67a33.11,33.11,0,0,0,3.84-1.39,16.19,16.19,0,0,0,6.92-5.84,23,23,0,0,0,3.38-8.3,34.33,34.33,0,0,0,.15-6,30.45,30.45,0,0,0-2.92-3.84,26.21,26.21,0,0,0-11.07-7.53,27.49,27.49,0,0,0-13.52-1.23,28,28,0,0,0-12.6,5.53,51.68,51.68,0,0,0-7.38,7.22A85.69,85.69,0,0,1,395.61,71c-.76.59-1.52,1.16-2.31,1.69q-5.12,8.53-4.15,16m-16.91-20a8.31,8.31,0,0,0,1.69-1.53A22.75,22.75,0,0,0,375,58.39a27.2,27.2,0,0,0-.77-4.92,39.81,39.81,0,0,0-16.9.77q-14.61,3.52-22.75,14.9-3.69,6-4.92,7.54a19.6,19.6,0,0,1-3.38,3.38A19.48,19.48,0,0,1,324,83.44a13.27,13.27,0,0,1-7.83,4.92q4.91,1.85,7.22,11.52,3.38,10.16,9.22,9.22,3.07-.3,6.3-4.3c2.77-3.38,4.66-5.43,5.69-6.15a10.53,10.53,0,0,1,5.07-1.38,46.93,46.93,0,0,1,5.23-.15q7.83-.62,8.91-5.38.31-1.69-.92-5.84-1.08-3.84-.31-5.69a10.63,10.63,0,0,1,2.15-2.15c1.13-.72,2-1.28,2.46-1.69a8.58,8.58,0,0,0,2.61-3.54,5.74,5.74,0,0,0,.47-2.92,5,5,0,0,0,2-1.23m160.15,6.77q-9.06-14.61-23.05-21.37-14.91-6.76-31.51-1.84-14.06,4.17-21.36,14.45a25.91,25.91,0,0,0,.92,6.45,73.08,73.08,0,0,0,3.53,9.07,11.68,11.68,0,0,0-9.22,3.84,14.81,14.81,0,0,0-4.61,9.22,17.29,17.29,0,0,0,1.85,10,23.76,23.76,0,0,0,6.61,8q6.13,5.53,18.44,9.69a13.42,13.42,0,0,0-3.69-5.38q-1.53-1.69-4.76-4.61a12.8,12.8,0,0,1-3.23-6.3Q461.69,103,464,101a19.14,19.14,0,0,0,3.84-2.61,5.49,5.49,0,0,0,.92-3.38c-.2-1.75-.36-3.08-.46-4q-.92-6.15,3.69-11.53a17.21,17.21,0,0,1,10.91-6.15,21.72,21.72,0,0,1,12.3,1.54,31,31,0,0,1,10.3,7.38A50.59,50.59,0,0,1,511,89.12c2.77,4.21,4.4,6.61,4.92,7.23a32.32,32.32,0,0,0,5.22,6.15,36,36,0,0,0,9.53-2.92,36.46,36.46,0,0,0,9.38-6.46,68.59,68.59,0,0,0-7.69-17.67M226.24,93.27l-.31.16a18.17,18.17,0,0,1-9.07,1.38,18.38,18.38,0,0,1-8.76-3.07l-1.54-1.23-3.22-2.46a16,16,0,0,0-4.77-2.77Q193.65,84,186,88.51q-8.91,5.22-12.76,5.53c-.41.72-.15,1.54.77,2.46a2.66,2.66,0,0,0,2.61,1.08q1.08,0,5.08-2,5.84-1.53,11.83,3.07,6.15,5.85,9.68,7.69,7.53,4.92,17.83,2.76a39.8,39.8,0,0,0,17.06-8.45Q243,96,245.6,94a17.74,17.74,0,0,1,8.61-3.84q5.37-.77,16.14,4.3,11.06,4.77,16.59.77.46-7.83-7.37-14.29A23.2,23.2,0,0,0,277,79.13h-1.53a30.29,30.29,0,0,1-6.76-1.84c-3.49-1.33-5.74-2.15-6.77-2.46a24.42,24.42,0,0,0-18.44,3.54q-2.61,1.68-8.3,7.68Q230.08,91.44,226.24,93.27Z"/><path class="cls-2" d="M138.94,81q4,.47,13.83,5.38,8.61,4.14,13.83,3.53a22,22,0,0,0,8.61-3.53q7.23-4.45,8.3-4.92,11.07-5.84,23.82-2a31.3,31.3,0,0,1,15.52,9.68l-.46.31a16.51,16.51,0,0,1-8.3,2.92,10.63,10.63,0,0,1-7.53-1.84l-3.22-2.46a16,16,0,0,0-4.77-2.77Q193.65,84,186,88.51q-8.91,5.22-12.76,5.53c-.41.72-.15,1.54.77,2.46a2.66,2.66,0,0,0,2.61,1.08q1.08,0,5.08-2,5.84-1.53,11.83,3.07,6.15,5.85,9.68,7.69,7.53,4.92,17.83,2.76a39.8,39.8,0,0,0,17.06-8.45Q243,96,245.6,94a17.74,17.74,0,0,1,8.61-3.84q5.37-.77,16.14,4.3,11.06,4.77,16.59.77.46-7.83-7.37-14.29A23.2,23.2,0,0,0,277,79.13h-1.53a30.29,30.29,0,0,1-6.76-1.84c-3.49-1.33-5.74-2.15-6.77-2.46a24.42,24.42,0,0,0-18.44,3.54q-2.61,1.68-8.3,7.68-5.07,5.39-8.91,7.22l-.31.16a36.29,36.29,0,0,0-3.08-4.31A43.52,43.52,0,0,0,229,83.44q3.84-4.45,6-6.61a42.11,42.11,0,0,1,16.44-9.07,53.07,53.07,0,0,1,18.91-2.15q17.52,1.69,36.11,12a66.18,66.18,0,0,0,8.15,3.84q4.92,1.69,8.45.31a13.37,13.37,0,0,0,3.23-1.69A19.48,19.48,0,0,1,324,83.44a13.27,13.27,0,0,1-7.83,4.92q4.91,1.85,7.22,11.52,3.38,10.16,9.22,9.22,3.07-.3,6.3-4.3c2.77-3.38,4.66-5.43,5.69-6.15a10.53,10.53,0,0,1,5.07-1.38,46.93,46.93,0,0,1,5.23-.15q7.83-.62,8.91-5.38.31-1.69-.92-5.84-1.08-3.84-.31-5.69a10.63,10.63,0,0,1,2.15-2.15c1.13-.72,2-1.28,2.46-1.69a8.58,8.58,0,0,0,2.61-3.54,5.74,5.74,0,0,0,.47-2.92,5,5,0,0,0,2-1.23,8.31,8.31,0,0,0,1.69-1.53,18.38,18.38,0,0,1-6.3,8.91,29.18,29.18,0,0,0,14.6.92,30.6,30.6,0,0,0,11.07-4.3q-5.12,8.53-4.15,16a20.89,20.89,0,0,0,8,15.07q7.38,6.13,16.14,4.91,6.62-1.38,9.68-4.91,1.69-2,4.15-9.23,2.16-6.14,5.07-8.14A20.41,20.41,0,0,1,436,84.67a33.11,33.11,0,0,0,3.84-1.39,16.19,16.19,0,0,0,6.92-5.84,23,23,0,0,0,3.38-8.3,34.33,34.33,0,0,0,.15-6,27.55,27.55,0,0,1,3.38,8.3,42.23,42.23,0,0,1,2.77-4.76,25.91,25.91,0,0,0,.92,6.45,73.08,73.08,0,0,0,3.53,9.07,11.68,11.68,0,0,0-9.22,3.84,14.81,14.81,0,0,0-4.61,9.22,17.29,17.29,0,0,0,1.85,10,23.76,23.76,0,0,0,6.61,8q6.13,5.53,18.44,9.69a13.42,13.42,0,0,0-3.69-5.38q-1.53-1.69-4.76-4.61a12.8,12.8,0,0,1-3.23-6.3Q461.69,103,464,101a19.14,19.14,0,0,0,3.84-2.61,5.49,5.49,0,0,0,.92-3.38c-.2-1.75-.36-3.08-.46-4q-.92-6.15,3.69-11.53a17.21,17.21,0,0,1,10.91-6.15,21.72,21.72,0,0,1,12.3,1.54,31,31,0,0,1,10.3,7.38A50.59,50.59,0,0,1,511,89.12c2.77,4.21,4.4,6.61,4.92,7.23a32.32,32.32,0,0,0,5.22,6.15,34.13,34.13,0,0,1-10.29,0,60.25,60.25,0,0,1-10.15-2.77,69.06,69.06,0,0,0-10.6-2.92q-10.31-1.55-14.6,4.92a12,12,0,0,0-1.08,7.68,17.06,17.06,0,0,0,6,11.53,14.44,14.44,0,0,0,6.15,3.23,30.26,30.26,0,0,1-3.84,6,31.77,31.77,0,0,1-11.37,8.45,29.53,29.53,0,0,1-14,1.85,26.62,26.62,0,0,1-12.91-5.23q-7.85-5.22-8.91-12.75-.61-5.69-3.39-6.15-2.3-.31-5.07,3.84-5.53,9.84-17.83,13.37a39,39,0,0,1-23.2-.61Q369,127.07,355.34,108a31.68,31.68,0,0,1-7.07,5.22,28,28,0,0,1-15.68,3.54A27.35,27.35,0,0,1,317.68,111a26.07,26.07,0,0,1-9.22-13.06,44.35,44.35,0,0,0-10,6.14q-2.93,2.46-8.91,7.38-11.83,8.91-21.52,4.92-1.69-.61-9.84-6.46-5.83-4.31-10.14-3.07a11.15,11.15,0,0,0-4.46,2.3q-1.38,1.08-4,3.39-11.84,12.6-24.59,13.06-10,.3-23.83-9.07T170.91,104q-3.61-.45-6.46-.61-12.3-.77-21.21,3.38-3.37,1.53-10,5.23-5.83,2.76-10.45,2-4.15-.45-10.3-4.76-6.91-5.07-10-6-6.15-1.85-15.67,1.39Q73.31,109.11,71,109.41A44.44,44.44,0,0,1,55.64,108q-5.23-1.23-15.37-4A271.57,271.57,0,0,0,12.76,101,64.84,64.84,0,0,1,0,98.19,53.45,53.45,0,0,1,6.76,95,45.66,45.66,0,0,1,29.51,92.2c3.48.61,6.1,1,7.84,1.23a17.59,17.59,0,0,0,7.53-.92A22.81,22.81,0,0,0,51,88.2a63.9,63.9,0,0,1,5.68-4.92q8-4.75,22.75.77,18.14,6.61,24.59,6.15Q109.27,90,121.26,85,132.33,80.21,138.94,81Z"/></g><path id="Layer0_7_MEMBER_1_1_STROKES" data-name="Layer0 7 MEMBER 1 1 STROKES" class="cls-3" d="M612.61,0H0V202.87H612.61Z"/></g></g></svg>