<svg xmlns="http://www.w3.org/2000/svg" viewBox="0 0 612.61 202.87"><defs><style>.cls-1{fill:#f3bbff;}.cls-2{fill:#ad4dc4;}.cls-3{fill:none;}</style></defs><g id="Layer_2" data-name="Layer 2"><g id="Layer_1-2" data-name="Layer 1"><g id="Layer0_8_MEMBER_0_FILL" data-name="Layer0 8 MEMBER 0 FILL"><path class="cls-1" d="M383.92,90.66q-4.14,2.46-4.91,4.92c-1.34,2.77-.46,6,2.61,9.68q4.15,6.92,8.91,6.92c3,0,5.38-1.54,7.23-4.61a25.41,25.41,0,0,0,2.76-8.92Q403.76,85,411.28,83.28a28,28,0,0,1,5.84-.61,10.81,10.81,0,0,0,5.23-1.23q3.22-2.14,3.84-6.92a26.34,26.34,0,0,0-.77-12.29c-.27-.89-.57-1.76-.92-2.61q-.51-.61-1.08-1.23A26.29,26.29,0,0,0,409,49.93a25.11,25.11,0,0,0-16.45,2.31,24.7,24.7,0,0,0-7.84,6.15.61.61,0,0,0-.15.3,18.92,18.92,0,0,0,1.38,10,56.07,56.07,0,0,0,4.15,8.46q2.31,5.69-.3,9.22c-.82,1-2.77,2.46-5.85,4.3M330.59,71a39.47,39.47,0,0,0-2.76,5.84A10,10,0,0,0,326,80.67a29.55,29.55,0,0,0,.31,6.92q0,4.6-1.84,6.45a15.51,15.51,0,0,1-3.54,2.15,5.57,5.57,0,0,0-2.61,2.46,3.32,3.32,0,0,0,.92,3.54,5,5,0,0,0,3.69,1.54,9.44,9.44,0,0,0,6.15-2.46,15,15,0,0,0,4.15-5.69,29.09,29.09,0,0,0,2.15-10.91,50.07,50.07,0,0,0-.31-6.61c.54-.3,1.61-.81,3.23-1.54a6.44,6.44,0,0,0,3.07-2.46,15.77,15.77,0,0,0,.31-3.84,9.75,9.75,0,0,0-1.85-4.61,4.26,4.26,0,0,0-2.92-.61A5.64,5.64,0,0,0,334,66.07,12.18,12.18,0,0,0,330.59,71M222.24,85.28a16,16,0,0,0-6.3,6.76,14.24,14.24,0,0,0-1.08,9.38,12,12,0,0,0,5.38-4.3h0a61.73,61.73,0,0,0,5.38-5.38q4.45-4.15,7.38-4.61a6.63,6.63,0,0,1,7.22,3.53,7.52,7.52,0,0,0,2,3.08c.51.51,1.64.76,3.38.76a49.68,49.68,0,0,0,10.45-1.23c-2.05-.3-3.33-2.2-3.84-5.68q0-6-.77-7.69-1.53-4-7.68-4.61-2.5,0-6.46.31a33.62,33.62,0,0,1-3.53.31,2.15,2.15,0,0,0-.77.46,5.46,5.46,0,0,0-1.23,2.3,6.33,6.33,0,0,1-3.69,4c-1.23.61-3.18,1.49-5.84,2.61m23-9.22h1.54c0,.21-.15.36-.46.46A1,1,0,0,1,245.29,76.06Z"/><path class="cls-2" d="M129.26,80.67q-6.15-1.23-14.76,3.08-11.69,5.52-14.45,6.14-8,2-20.28-1.23Q61,83.59,59.33,83.28,44,81,11.37,91.89,5.45,93.9,0,95.27c2,.81,3.83,1.47,5.38,2a98.35,98.35,0,0,0,25.82,4.92q5.54.15,20.9-1.23,13.38-1.23,21.06-.31,3.69.31,16.6,2.77a82.58,82.58,0,0,0,16.75,1.84q5.07-.3,20.9-4.15,12.76-3.23,20.6-1.69,8.3,1.55,21.67,11.22,13.83,10,21.36,11.84,11.52,2.91,22.59-3.69,9.83-5.66,13.37-15.06a61,61,0,0,0,6,4.61q10,6,19.52,2.61,4-1.38,11.68-7.69,6.92-5.69,11.83-6.45,9.38-2.16,19.21,7.68,3.69,4.31,5.69,6.31a26.43,26.43,0,0,0,6.61,5.22,20.8,20.8,0,0,0,11.07,2,26.67,26.67,0,0,0,10.75-3.23q5.25-2.57,12.15-9.37a50.83,50.83,0,0,0,4.61,10,47.28,47.28,0,0,0,13.21,14.44,41.87,41.87,0,0,0,18.45,6.77,33.26,33.26,0,0,0,18.9-2.92,21.89,21.89,0,0,0,7.07-5.54,10.89,10.89,0,0,0,2.46-8,15.46,15.46,0,0,0-1.38-5.53,34.41,34.41,0,0,1-2-5.54,10,10,0,0,1,1.23-5.84,10.81,10.81,0,0,1,4.15-4.61,11.52,11.52,0,0,1,6.15-1.07,10.34,10.34,0,0,1,5.68,2.3,26.1,26.1,0,0,0-2,20.6,26.09,26.09,0,0,0,12.76,16.29q9.52,5.22,20.75,1.84a27.61,27.61,0,0,0,12-7.22l-10.76-8.91c-.51-.52-1.33-1.28-2.46-2.31a5,5,0,0,1-1.38-2.61,14.9,14.9,0,0,1,.46-3.23,11.19,11.19,0,0,0,.61-2.92,6.13,6.13,0,0,0-2-3.84,28.71,28.71,0,0,0-3.38-3.08q-5.69-5.37-5.38-14.29a20.67,20.67,0,0,1,5.84-14.6,25.84,25.84,0,0,1,14.14-7.07,31,31,0,0,1,15.83,1.38,84.42,84.42,0,0,1,12.15,6.3,56.68,56.68,0,0,0,12.45,6q6.81,2.31,12,.46a42.52,42.52,0,0,0-10.29-18.44A41.64,41.64,0,0,0,450,54.39Q436.33,61,430,73.29a24.14,24.14,0,0,0-5.53-13.67c.35.85.65,1.72.92,2.61a26.34,26.34,0,0,1,.77,12.29q-.62,4.77-3.84,6.92a10.81,10.81,0,0,1-5.23,1.23,28,28,0,0,0-5.84.61Q403.75,85,400.52,98.65a25.41,25.41,0,0,1-2.76,8.92c-1.85,3.07-4.25,4.61-7.23,4.61q-4.75,0-8.91-6.92c-3.07-3.69-3.95-6.91-2.61-9.68q.76-2.46,4.91-4.92c3.08-1.84,5-3.28,5.85-4.3q2.61-3.54.3-9.22a56.07,56.07,0,0,1-4.15-8.46,18.92,18.92,0,0,1-1.38-10,.61.61,0,0,1,.15-.3,24.46,24.46,0,0,0-3.84,5.68,144.4,144.4,0,0,0-6.3,16.14q-4,8.91-10.61,9.68-3.37.31-11.37-3.07-7.21-2.92-10.91-1.23,3.84-15.68,13.83-25.67a14.59,14.59,0,0,0-10.3-4.76,20.4,20.4,0,0,0-11.52,2.46q-9.54,5.22-13.53,18.75-.61,1.84-1.53,5.38A14,14,0,0,1,316,86.82q-3.23,3.38-8.91,3.53a25.47,25.47,0,0,1-10.3-2q-.46-.17-8.91-4.92a29.78,29.78,0,0,0-9.53-3.54,13.58,13.58,0,0,0-10,1.39h0q-7.83-11.39-24-12.61-18.44-1.38-28,11.53-2.76,3.54-8.15,10.91c-3.27,3.79-6.71,5.54-10.29,5.23Q193.34,96,183.82,87q-7.84-7.53-12.76-4a11.63,11.63,0,0,0-3.23,4.45,22.07,22.07,0,0,1-2.92,5.08Q162,96,156.15,95.27a21.19,21.19,0,0,1-9.68-3.84q-2.92-2.15-8.15-6.61a20.31,20.31,0,0,0-9.06-4.15m98.82,2a6.33,6.33,0,0,0,3.69-4,5.46,5.46,0,0,1,1.23-2.3,2.15,2.15,0,0,1,.77-.46,6.55,6.55,0,0,1,2.3-.31,8.42,8.42,0,0,0,1.23,0q4-.31,6.46-.31,6.15.61,7.68,4.61.76,1.69.77,7.69c.51,3.48,1.79,5.38,3.84,5.68A49.68,49.68,0,0,1,245.6,94.5c-1.74,0-2.87-.25-3.38-.76a7.52,7.52,0,0,1-2-3.08A6.63,6.63,0,0,0,233,87.13q-2.92.45-7.38,4.61a61.73,61.73,0,0,1-5.38,5.38h0a12,12,0,0,1-5.38,4.3A14.24,14.24,0,0,1,215.94,92a16,16,0,0,1,6.3-6.76c2.66-1.12,4.61-2,5.84-2.61M336.89,65a4.26,4.26,0,0,1,2.92.61,9.75,9.75,0,0,1,1.85,4.61,15.77,15.77,0,0,1-.31,3.84,6.44,6.44,0,0,1-3.07,2.46c-1.62.73-2.69,1.24-3.23,1.54a50.07,50.07,0,0,1,.31,6.61,29.09,29.09,0,0,1-2.15,10.91,15,15,0,0,1-4.15,5.69,9.44,9.44,0,0,1-6.15,2.46,5,5,0,0,1-3.69-1.54,3.32,3.32,0,0,1-.92-3.54,5.57,5.57,0,0,1,2.61-2.46A15.51,15.51,0,0,0,324.45,94q1.85-1.85,1.84-6.45a29.55,29.55,0,0,1-.31-6.92,10,10,0,0,1,1.85-3.84A39.47,39.47,0,0,1,330.59,71,12.18,12.18,0,0,1,334,66.07,5.64,5.64,0,0,1,336.89,65Z"/></g><path id="Layer0_8_MEMBER_1_1_STROKES" data-name="Layer0 8 MEMBER 1 1 STROKES" class="cls-3" d="M612.61,0H0V202.87H612.61Z"/></g></g></svg>