<svg xmlns="http://www.w3.org/2000/svg" viewBox="0 0 153.77 145.92"><defs><style>.cls-1{fill:#ee7500;}.cls-1,.cls-3{fill-opacity:0.6;}.cls-1,.cls-2,.cls-3,.cls-4,.cls-5{fill-rule:evenodd;}.cls-2{fill:#fff;}.cls-3,.cls-5{fill:red;}.cls-4{fill:#fefefe;}.cls-5{fill-opacity:0.2;}</style></defs><g id="Layer_2" data-name="Layer 2"><g id="Layer_1-2" data-name="Layer 1"><path class="cls-1" d="M80.53,46.85a4.35,4.35,0,0,0-.73-1c-.63-.6-1,0-1,1.65l.1,1a1.39,1.39,0,0,0,.55.93,2.13,2.13,0,0,0-.1.57c0,.23,0,.39.1.45l.3.1a3.9,3.9,0,0,0,.55-1.1c.34,0,.79-.1,1.35-.2-.27-.65-.53-1.22-.78-1.7.06-.22.12-.46.18-.7s0-.31-.1-.35l-.1,0A.78.78,0,0,0,80.53,46.85Zm-3.68,1.47q0-3.94,3-4t3,4.7a2.71,2.71,0,0,1-.65,1.75,2.6,2.6,0,0,1-2.15,1,2.77,2.77,0,0,1-2.7-1.7C77,48.94,76.85,48.36,76.85,48.32ZM66.28,41.65a1.15,1.15,0,0,1,.87-.58q1.6-.2,2,7c2,7.63,3,11.79,3,12.45a1.61,1.61,0,0,1-.3.9,1.28,1.28,0,0,1-1.1.55,1.33,1.33,0,0,1-.6-.15h-.1a1.72,1.72,0,0,1-1-.3,4.48,4.48,0,0,0-.5-.45,10.12,10.12,0,0,1-1.6,1.3c-.79.49-2.29.65-4.5.45a8.22,8.22,0,0,1,.1-1.6,1.94,1.94,0,0,1,.9.6,1.82,1.82,0,0,0,1.25.5,1.06,1.06,0,0,0,1.1-.6,2.78,2.78,0,0,1,.15-.9h.38c.37,0,.7,0,1,0a4.44,4.44,0,0,0,1.7-.28l.07,0a.58.58,0,0,0,.3-.5,6.16,6.16,0,0,0-1.05-1.17l-.18-.15a2.32,2.32,0,0,0-1.52-.48,2.15,2.15,0,0,0-.57.13,2,2,0,0,0-.83.67,67.18,67.18,0,0,1-2.45-9.15q-2.1-11.15-2.1-11.2Q60.7,30,64.55,43c.45,1.56.87,3,1.25,4.33l-.25-1.48a13.79,13.79,0,0,1,.23-2.82,54.82,54.82,0,0,0,1.27,6.32c1,3.74,1.72,5.9,2.25,6.5l.2-.3c-.6-2.07-1.23-4.63-1.9-7.7C67.06,45.26,66.62,43.18,66.28,41.65ZM61.78,66.9A1.5,1.5,0,0,1,60.4,68c-.77,0-1.22-.43-1.35-1.3V65.32c0-2.1.22-3.38.65-3.85a4.43,4.43,0,0,1,1.6-.87,15.27,15.27,0,0,0-.6,5.17,3.19,3.19,0,0,0,0,.65c.1.4.32.6.65.6A.66.66,0,0,0,61.78,66.9ZM65,59.45a6,6,0,0,0-.55,1.27,5.06,5.06,0,0,0-1-.77l.87-.23A3,3,0,0,0,65,59.45Zm2.33-3.65,0,0-2.4-9.05a23.31,23.31,0,0,0-3.6-8.2q.9,2.85,2.45,8.9a40.2,40.2,0,0,0,3.35,8.65ZM98.85,62a1.55,1.55,0,0,0,.35.1q7.39-5.25,7.45-5.25,4.91-3.39,8.85-5.75-2.1.55-9.3,4.9-7.45,4.5-7.45,5.6C98.75,61.81,98.78,61.94,98.85,62ZM28,68.37q3.11.73,10.25,2.65,10.91,3,12.55,3c.2,0,.32,0,.35-.1a.23.23,0,0,1,0-.2l-.1-.3-12.5-3.8a55,55,0,0,0-12.75-2.2v0c-.3-.18-.45-.32-.45-.43q0-2.59,13.9,1.25t13.9,5.15c0,1.14-.72,1.7-2.15,1.7q-1.39,0-13.35-3.55Q31.05,69.54,28,68.37Zm67.15-6.75q0-.25,3.85-3,4.35-3.15,8.5-5.65,12.3-7.45,12.3-3,0,.41-11.15,6.85T96.8,63.27a1.45,1.45,0,0,1-1.4-.75A1.8,1.8,0,0,1,95.15,61.62Zm-52.3,31.8a38.28,38.28,0,0,1,7.2-3.3q7.8-2.94,9.75-3l1.5.1s0,.07.1.1a1.13,1.13,0,0,1,.05.4q0,.75-8.65,4.4T43,95.77a1,1,0,0,1-1-.55,5.49,5.49,0,0,1-.15-.6,1,1,0,0,1,.38-.67c0,.09.06.11.12.07H44a17.18,17.18,0,0,0,6.45-2c1.5-.7,3.43-1.71,5.8-3a10.79,10.79,0,0,0-2.6.6A26.48,26.48,0,0,0,50.3,91a29.13,29.13,0,0,1-5.3,1.9Zm-8-1.6q0-1.44,14.5-6.95T63.9,82q0,.65-12.7,5.75Q38.3,92.92,36,92.92a1,1,0,0,1-1-.5A1.33,1.33,0,0,1,34.9,91.82Zm83.5,4.6c.33,0,.4-.06.2-.2q-7.6-2.19-12-3.65-8-2.7-11.7-5.45a15.14,15.14,0,0,1,1.65-.25,11.43,11.43,0,0,0-2.1-.25,1.64,1.64,0,0,0-.05.45q0,1.26,9.7,5.25Q114.06,96.43,118.4,96.42Zm-82.95-4.1c.13.2.52.3,1.15.3q1.8,0,12-4.25t10.3-5.2c0-.2,0-.3,0-.3l-.2-.05Q42.45,89.18,35.45,92.32Zm84,7.1q-2.45,0-28.55-13,0-2.64,15.35,3.8t15.35,8a1,1,0,0,1-.55.85A3.09,3.09,0,0,1,119.4,99.42Zm-28.28,4.13c.89.85,2,1.86,3.23,3a44.23,44.23,0,0,1,3.7,3.45,1.06,1.06,0,0,1-.3.7,1,1,0,0,1-.75.35q-4.35,0-10.65-7.9-5.5-6.9-5.5-8.35c0-1.56,1.17-1.12,3.5,1.35C85.14,97,86,98,87,99.07q-2.06-2.14-4.33-4.4l-.05.25q9.45,10.8,13.5,15.15l.2-.3C94.77,107.79,93.05,105.72,91.12,103.55Zm-2.2-11.8a76.52,76.52,0,0,1,9.43,8q12,11.4,12.05,13.65a3.62,3.62,0,0,1-.2,1.1q-2.55-.34-13.4-11.2Q86.26,92.73,86.25,91.62c0-.92.71-1,2.13-.2l0,0A151.2,151.2,0,0,0,109,113.82a.44.44,0,0,0,.25-.25q-4.91-4.69-11-11.35Q96.41,100.18,88.92,91.75ZM76.55,90.27a1.49,1.49,0,0,0,.15-.5q4.8,5.7,10.9,26.25a1.1,1.1,0,0,1-.2.6,1,1,0,0,1-.8.4q-2,0-6.1-11.75-3.7-11.7-3.7-11.75a19.44,19.44,0,0,1-.45-2.65A1.32,1.32,0,0,1,76.55,90.27ZM66.42,98.4Q72,88.23,72,92.22q0,.56-5.9,13.15T59.8,118a.91.91,0,0,1-.9-.5,1.51,1.51,0,0,1-.1-.6,7.23,7.23,0,0,1,.15-1.37q1.36-3.83,3.8-9.23C64.29,103,65.52,100.4,66.42,98.4Zm13.23-.28-.2,0q.9,2.1,3.7,8.25c1.57,3.44,2.73,6.07,3.5,7.9l.1-.15A63.38,63.38,0,0,0,79.65,98.12Zm-14.4,14.45c.47-.1,1.73-2,3.8-5.65q3.65-6.65,5-9Q68.45,106.88,65.25,112.57Zm-1.7,1.1v-.9q0-2,6.45-11T76.45,97Q65.6,114.48,64.6,114.47A.94.94,0,0,1,63.55,113.67Zm.73-11.17q-3,6.23-4.93,11.37A70.26,70.26,0,0,1,64.28,102.5Z"/><path class="cls-2" d="M80.53,46.85a.78.78,0,0,1,.37-.28l.1,0c.07,0,.1.15.1.35s-.12.48-.18.7c.25.48.51,1,.78,1.7-.56.1-1,.17-1.35.2a3.9,3.9,0,0,1-.55,1.1l-.3-.1c-.07-.06-.1-.22-.1-.45a2.13,2.13,0,0,1,.1-.57,1.39,1.39,0,0,1-.55-.93l-.1-1c0-1.7.32-2.25,1-1.65A4.35,4.35,0,0,1,80.53,46.85Zm-14.75-3.8a11.11,11.11,0,0,1-.13-1.58,1.18,1.18,0,0,1,.35-1c.08.35.17.74.28,1.18.34,1.53.78,3.61,1.32,6.22.67,3.07,1.3,5.63,1.9,7.7l-.2.3c-.53-.6-1.28-2.76-2.25-6.5A54.82,54.82,0,0,1,65.78,43.05ZM62.45,62.87c0,.48,0,1,0,1.7-.05,1.28-.28,2.06-.67,2.33a.66.66,0,0,1-.38.12c-.33,0-.55-.2-.65-.6a3.19,3.19,0,0,1,0-.65,15.27,15.27,0,0,1,.6-5.17c.25-.62.58-.93,1-.93a2.35,2.35,0,0,1,1.08.28,5.06,5.06,0,0,1,1,.77A6,6,0,0,1,65,59.45a2.34,2.34,0,0,1,.3-.43,2,2,0,0,1,.83-.67,2.15,2.15,0,0,1,.57-.13,2.32,2.32,0,0,1,1.52.48l.18.15A6.16,6.16,0,0,1,69.4,60a.58.58,0,0,1-.3.5l-.07,0a4.44,4.44,0,0,1-1.7.28c-.3,0-.63,0-1,0H66a2.78,2.78,0,0,0-.15.9,1.06,1.06,0,0,1-1.1.6,1.82,1.82,0,0,1-1.25-.5,1.94,1.94,0,0,0-.9-.6A8.22,8.22,0,0,0,62.45,62.87Zm4.83-7.07-.18.27a40.2,40.2,0,0,1-3.35-8.65q-1.55-6-2.45-8.9a23.31,23.31,0,0,1,3.6,8.2l2.4,9.05ZM28,68.37q-1.77-.41-2.25-.45l.05-.52v0a55,55,0,0,1,12.75,2.2l12.5,3.8.1.3a.23.23,0,0,0,0,.2c0,.07-.15.1-.35.1q-1.65,0-12.55-3Q31.11,69.1,28,68.37ZM98.85,62c-.07,0-.1-.16-.1-.4q0-1.09,7.45-5.6,7.2-4.35,9.3-4.9-3.94,2.35-8.85,5.75s-2.52,1.75-7.45,5.25A1.55,1.55,0,0,1,98.85,62Zm-56,31.45,2.15-.5A29.13,29.13,0,0,0,50.3,91a26.48,26.48,0,0,1,3.35-1.45,10.79,10.79,0,0,1,2.6-.6c-2.37,1.34-4.3,2.35-5.8,3A17.18,17.18,0,0,1,44,94H42.35c-.06,0-.1,0-.12-.07a1.37,1.37,0,0,1,0-.33Zm-7.4-1.1q7-3.15,23.2-9.5l.2.05s0,.1,0,.3q0,.9-10.3,5.2t-12,4.25C36,92.62,35.58,92.52,35.45,92.32Zm83,4.1q-4.35,0-14.35-4.1-9.7-4-9.7-5.25a1.64,1.64,0,0,1,.05-.45,11.43,11.43,0,0,1,2.1.25,15.14,15.14,0,0,0-1.65.25q3.7,2.75,11.7,5.45,4.45,1.46,12,3.65C118.8,96.36,118.73,96.42,118.4,96.42ZM87,99.07q2.2,2.31,4.14,4.48c1.93,2.17,3.65,4.24,5.18,6.22l-.2.3q-4-4.35-13.5-15.15l.05-.25Q84.93,96.92,87,99.07Zm1.94-7.32q7.49,8.43,9.33,10.47,6.1,6.66,11,11.35a.44.44,0,0,1-.25.25A151.2,151.2,0,0,1,88.35,91.47l0,0,.07-.2Zm-9.27,6.37a63.38,63.38,0,0,1,7.1,16l-.1.15c-.77-1.83-1.93-4.46-3.5-7.9q-2.81-6.15-3.7-8.25Zm-13.23.28c-.9,2-2.13,4.64-3.67,7.92q-2.43,5.42-3.8,9.23c-.09.23-.17.45-.25.67l-.2,0c.26-.78.55-1.58.85-2.4q1.9-5.15,4.93-11.37,1.36-2.85,3-5.93C67,97.11,66.74,97.71,66.42,98.4Zm-1.17,14.17q3.19-5.7,8.8-14.6-1.35,2.31-5,9C67,110.59,65.72,112.47,65.25,112.57Z"/><path class="cls-3" d="M61.5,40.17A67.74,67.74,0,0,1,65.35,48l-.1-.28q-3.34-9-3.35-10.75,0-4.89,4.75,6.1t4.7,14.1c.07,1-.32,1.45-1.15,1.45a1.49,1.49,0,0,1-1-.45c.44,1.37.81,2.66,1.13,3.88l.27.12q1.05.5,15.2,5.7l.23.08q3.33-1.77,7.52-3.88,17.34-8.73,20.33-8.47L83.55,69.92l-3-2L43.62,52.75c.13-.2.41-.29.83-.25.13-.22.41-.33.85-.33q.3,0,11.6,4.4,5.76,2.25,9.18,3.65c-.48-2.34-.86-4-1.13-4.9q-.65-2.1-3.35-9.6-2.3-6.49-2.3-6.9,0-2.09,1.78.68a.54.54,0,0,0-.13.37q0,.85,3.9,11.65c.43,1.23,1.27,3.64,2.5,7.2.37,1,.7,1.78,1,2.43.63,1.35,1.11,2,1.45,2s.35-.13.35-.4a5.86,5.86,0,0,0-.27-1c-.49-1.42-1.59-4.31-3.28-8.68Q62.87,43.7,61.5,40.17ZM37.35,64.8a2.69,2.69,0,0,0-.4,0l-.5-.1h-.4l-.5-.1-.5-.1-1.2-.2-.7-.1a4.87,4.87,0,0,1-1.5-.2l-.7-.1H30.6l-1.1-.2a1.83,1.83,0,0,0-.4-.05l-1.1-.2-.7-.1-.7-.1-.4-.1-.4-.1c-.37-.07-.73-.11-1.1-.15l-.4-.1-.7-.1L59,71.32,57.5,72.37q-4.43-1.12-10.15-2.7-16.24-4.5-26.6-7.8c-.07.17-.1.08-.1-.25l.05-.3q2.06.15,15.4,3.2Zm15.73,8.45,3.77.82.55.55-6.75,1.2h-5.1l-4.15-2-14,1.63a60.82,60.82,0,0,0-11.77,1.32l-.32.08L2.1,78.37l15.7,1.85,27.5.5,18.8-1.35L28.35,110.72,70.2,84.42l-11.8,32.7,9.15-18.8-1,13q-.21,1.24-.45,2.55l.3-.7-.1,1.4.7,0L75.1,91.72l1.1-.1.35.85,3.55.9,7,28.1L83.25,103.3q4.31,13.5,4.3,19.27a.35.35,0,0,1-.2.35.37.37,0,0,0-.2.35l.55,1.5-.1.1q-2.89-5.59-6.8-20.15c-.81-3-1.48-5.6-2-7.7A12.6,12.6,0,0,1,76,96.7q-1.25,3.27-3,7.77-6.26,15.6-8.65,15.6-1,0-1.35-1.5l-.1-1.5q0-.69,1.2-8.25c0-.21.07-.42.1-.62q-6.5,14.67-8,14.67a1.27,1.27,0,0,1-1.4-1c0-.67,0-1,0-1.05q0-5.25,10.3-29.75c.07-.16.14-.33.2-.5q-4.47,3.06-10.55,7.1-23.14,15.45-25.1,15.45a2,2,0,0,1-1.9-.85c-.13-.57-.2-.86-.2-.9q0-1.44,9-10.1,6.41-6.15,10.7-9.9l12-10.52q-5.41.08-12.37.52-7.5.55-7.9.55-13.8,1-14.4,1a81.13,81.13,0,0,1-16.8-1.7q-7.65-1.59-7.65-3Q.05,76.88,8.6,76q13.31-1.39,18.9-2.5,9.86-2,12.9-1.2a37.33,37.33,0,0,0,8.7,1.35l2.7-.3Zm3.5-.23-.68.5-1.85-.35C54.93,73.09,55.77,73,56.58,73ZM43.6,52.8,66.4,65.67c-.55.48-1.12.94-1.7,1.38s-1.35,1-2.05,1.42a7.53,7.53,0,0,1-.85.43,6.87,6.87,0,0,1-3.27.57,7.05,7.05,0,0,1-1.48-.25c-2.57-.77-5.18-1.46-7.82-2.1a26,26,0,0,0,3.37.3,34.67,34.67,0,0,1,6.65.9,13.78,13.78,0,0,1,3.4-2.62L59,63.27q-15.4-10.05-15.4-10.2A.72.72,0,0,1,43.6,52.8ZM63.1,37.32a.64.64,0,0,0-.25.6,80.8,80.8,0,0,0,2.9,8.35q3,8.46,3.55,8.45c.17,0,.27,0,.3-.1Q66,43.87,63.1,37.32Zm18.78,59.5-.73-3.45.5-.25,8.5,15.9-4.1-18.6,11.4,6.45L95,92.07l36.3,18.75.45-.7-34.95-25,19.65,4.2,3.8-.1.2-.75L100,82.22l26.65-2.55,14.1-.1,9.55-1.15-6.15-.85-39.7-.95L101.6,73l29.3-10.6.45-.85L88.6,68.22,114,55.55c.37,0,.55.2.55.47s-5,3.17-15.1,8.4l-2.32,1.2q40.82-7.5,40.82-5.35,0,1.6-28.65,12.25l-3.58,1.33q.67.54,1.38,1.17l14.75,0c4.7.5,7.42.79,8.15.85,1.67.14,5.23.3,10.7.5h5.5a11.59,11.59,0,0,1,4,.35,1.26,1.26,0,0,1,1,1.2c0,1.1-2.65,2-7.95,2.8q-9.19,1-11.75,1.3-3.9.51-7.5.7-6.44.41-12.15.85,9.6,4.13,9.6,5.15c0,1.27-.85,1.9-2.55,1.9q-1.2,0-13.3-3-2.66-.66-4.77-1.25l1.47,1.65q2,1.46,6.2,4c1.53.94,3.73,2.25,6.6,4q1.05.65,11.15,8.2,5.06,3.75,9.85,7.4a1.46,1.46,0,0,1-.3.9,1.64,1.64,0,0,1-1.4.6q-.5,0-11.9-5.25-11.59-5.4-16.3-7.85-2.33-1.33-4-2.3,0,.45,0,.9a2,2,0,0,1-.3,1,1.44,1.44,0,0,1-1.3.7q-2.55,0-10.3-5.45l-.9-.65c.31,1.06.63,2.27.95,3.6.77,3.2,1.38,6.4,1.85,9.6a5.32,5.32,0,0,1-.1,1.3,1.43,1.43,0,0,1-1.5,1q-2.32,0-7.65-13.45a1.21,1.21,0,0,1-.3.2A3.48,3.48,0,0,1,81.88,96.82Z"/><path class="cls-4" d="M81.88,96.82l1.37,6.48,3.85,18.17-7-28.1-3.55-.9-.35-.85-1.1.1L67,114.47l-.7,0,.1-1.4.15-1.85,1-13-9.15,18.8,11.8-32.7-41.85,26.3L64.1,79.37,45.3,80.72l-27.5-.5L2.1,78.37l13.23-1.52,12.09-1.4,14-1.63,4.15,2h5.1l6.75-1.2-.55-.55-3.77-.82L41.4,70.67l12.65,2.5,1.85.35.68-.5.92-.65L59,71.32,23.6,62.67l.7.1.4.1c.37,0,.73.08,1.1.15l.4.1.4.1.7.1.7.1,1.1.2a1.83,1.83,0,0,1,.4.05l1.1.2H31l.7.1a4.87,4.87,0,0,0,1.5.2l.7.1,1.2.2.5.1.5.1h.4l.5.1a2.69,2.69,0,0,1,.4,0l.1,0,.5.1h.4l.5.1a13,13,0,0,0,1.9.35,3.83,3.83,0,0,0,.45.1l.9.1.5.1q3.34.66,6.63,1.45c2.64.64,5.25,1.33,7.82,2.1a7.05,7.05,0,0,0,1.48.25,6.87,6.87,0,0,0,3.27-.57,7.53,7.53,0,0,0,.85-.43c.7-.45,1.38-.92,2.05-1.42s1.15-.9,1.7-1.38L43.6,52.8l-.4-.23.42.18L80.55,68l3,2,30.33-14.37,1.45-.7-1.38.7L88.6,68.22l42.75-6.65-.45.85L101.6,73l2.8,3.6,39.7.95,6.15.85-9.55,1.15-14.1.1L100,82.22l20.45,6.25-.2.75-3.8.1-19.65-4.2,34.95,25-.45.7L95,92.07l2.5,4.8-11.4-6.45,4.1,18.6-8.5-15.9-.5.25ZM61.08,39.5a.49.49,0,0,1,.12-.13l.3.8q1.36,3.54,5.1,12.95c1.69,4.37,2.79,7.26,3.28,8.68a5.86,5.86,0,0,1,.27,1c0,.27-.12.4-.35.4s-.82-.67-1.45-2c-.3-.65-.63-1.46-1-2.43-1.23-3.56-2.07-6-2.5-7.2Q61,40.72,61,39.87A.54.54,0,0,1,61.08,39.5Zm2-2.18q2.9,6.56,6.5,17.3c0,.07-.13.1-.3.1q-.6,0-3.55-8.45a80.8,80.8,0,0,1-2.9-8.35A.64.64,0,0,1,63.1,37.32Z"/><path class="cls-3" d="M96.8,59.7a1.55,1.55,0,0,1,.32-.2,1.3,1.3,0,0,1,.18-.23,2.38,2.38,0,0,1,1.75-.65,51.6,51.6,0,0,1,6.35,1.55q1.75,0,7.35-2.25,3.19-1.24,3.2,1.9a2.09,2.09,0,0,1-1.25,1.85,3.38,3.38,0,0,0-1.75,2.7v1.45l2.9.05q.6,0,6.7-.4,1.1,0,12.8-2.85t14.45-2.9c1.93,0,3.17.32,3.7,1a.88.88,0,0,1,.2.95q0,.15-14.85,5.8-15,5.65-17,6.2a2.19,2.19,0,0,1,.5,1.1c0,.09-.5.31-1.5.68a.23.23,0,0,0-.2-.23h-1l-.2.1h-3.65l-.1,0h-3q-4.28.45-5.53.5l3.43-1.25q5.25-1.95,7.5-2.55l5.35-1.65q3.85-1.14,5.8-1.65c2.93-.77,6.58-1.91,11-3.45q1.84-.69,12.4-4.4c0-.2-.12-.3-.25-.3a59.6,59.6,0,0,0-8.85,1.55c-5.13,1.2-8.35,1.94-9.65,2.2q-11.55,2.4-19.55,4.4l-2.65.15c-.57,0-1.08-.62-1.55-1.85a6.7,6.7,0,0,1-.55-2.1c0-.67.62-1.43,1.85-2.3l1.85-1.25q0-.3-.45-.3l-2,.65a15.56,15.56,0,0,1-4.3.6,4.38,4.38,0,0,1-.92-.1,9.89,9.89,0,0,1-2.53-1,6.52,6.52,0,0,0-3.15-1.1,2.08,2.08,0,0,0-1.3.6,3.45,3.45,0,0,0-.27.25,1.18,1.18,0,0,0-.43.75c0,.26.59.53,1.77.83.37.09.77.18,1.23.27a3.64,3.64,0,0,1,2.48,1.5,3.83,3.83,0,0,1,.52,2,8.49,8.49,0,0,1,0,.88c-.06-.67-1-1.49-2.75-2.48-.32-.18-.67-.36-1-.55q-3.85-1.89-3.85-2.9A1.85,1.85,0,0,1,96.8,59.7Zm-12.25,2-.17-.27c-2.09,2.38-3.13,3.68-3.13,3.92v.15l.2-.25a2.79,2.79,0,0,1,2.2-1.15,3.19,3.19,0,0,1,.45,0c.53-1.06.8-1.6.8-1.63A1.58,1.58,0,0,0,84.55,61.67ZM96.3,59.35Q91.7,62.83,86,67.1a6.49,6.49,0,0,1-.5,2.22,2.72,2.72,0,0,1,2.15,1.8,5.79,5.79,0,0,1,.4,2.1c0,2.3-1.63,3.84-4.9,4.6a5.39,5.39,0,0,1,.5,1.5q0,2.36-3.15,2.9l.78,1q1.39-1.11,11.17-6.55,7.68-4.29,10.15-7.07a5.43,5.43,0,0,0,1.05-1.6,8.12,8.12,0,0,1-.8,2.07,12.27,12.27,0,0,1-2.65,3.25c-1.16.84-2.06,1.51-2.67,2s-1.39.86-2.28,1.47c-1.53,1-2.7,1.77-3.5,2.2L84,82.87v0a.24.24,0,0,0-.1.17l.05.15h.9l1-.15c2.92-.41,5.82-1,8.72-1.65l1.15-.27c1.25-.3,2.79-.69,4.63-1.15l2.32-.58q3.41-.8,11.7-2.5,4.29-.9,5.73-1.27-4.14,1.45-15.93,5.07l-4.32,1.33q-14.07,4.2-17.21,4.37Q82.49,87.91,81,96.57c0,.17,0,.33-.08.5q-1.62,9.57-1.77,12.35-.15,3.15-.2,13.85-.49,9.11-3,9.1-2.4,0-3.85-8.2-1.2-9.65-1.9-12.6a35.28,35.28,0,0,1-.7-5.15c-.2-2.9-.35-4.68-.45-5.35a49.57,49.57,0,0,1-.2-5.25,4,4,0,0,0-1.25-3.25.46.46,0,0,1-.07-.07,2.72,2.72,0,0,1-1.18-1.93v-.32q-.64,1.16-1.65,2.82c-1.45,2.34-2.81,4.48-4.1,6.43l0,.07a2.22,2.22,0,0,1,1.25.9,1.9,1.9,0,0,1,.45,1.1q-35,44.35-38.7,44.35-1.65,0-2.1-1a3.55,3.55,0,0,1-.15-1.25q0-.69,28.55-46.67l4.35-7A1.69,1.69,0,0,1,56,91.65q-1.15,1.59-3.75,5.75l-.08.12q-1.15,1.76-3.55,6.4c-.6,1.14-2,3.6-4.2,7.4q-1.89,3.38-2.5,4.68l-1.8,2.77-5.75,8.15q-2.25,3-6.25,9.2-4.16,6.4-4.15,7v.15a.23.23,0,0,0,.25.15q.45,0,3.3-3.55c2.33-2.9,3.72-4.58,4.15-5.05q1.55-1.69,3.75-4.35L39.1,126q10.42-12.88,12.8-16.37l.05,0v0q-3,4.15-3,5.35v.2a.18.18,0,0,0,.2.2c1.23-1.66,2.12-2.78,2.65-3.35,1.13-1.53,2-2.68,2.65-3.45q5.44-6.6,5.45-7l-.15-.15a18.87,18.87,0,0,0-2.55,2.25l-2.3,2.35v-.05c.53-.9,2-3.1,4.43-6.62l1.47-2.13c.67-1,2-2.8,4-5.4l1.6-2.17.8-1.1.15-.23,0,0,0-.1a8.23,8.23,0,0,0-.75.53,36.9,36.9,0,0,0-4.15,3.92c-1.13,1.2-2.8,3-5,5.45l-.4.45q-1.39,1.5-5.85,6-2,2-2.93,3.1a2.08,2.08,0,0,0,.13-.3,17.54,17.54,0,0,1,1.15-2.7l2.4-4.45C52.46,99.07,53,98,53.5,97q1.89-3.67,2.5-5a11.63,11.63,0,0,1-1.55,4.35l0,.08q-.8,1.57-2.12,4.12,2.39-2.87,4.3-5.15,3.33-3.94,5.3-6.1a21.76,21.76,0,0,1,2.95-2.75A42.53,42.53,0,0,1,58.1,82.3a8.72,8.72,0,0,1-1.1.52l-.4.15c-.78,1.87-3,3.23-6.7,4.1-4.77.6-7.3.94-7.6,1l-.18.05q-4.9,1.18-12.32,2.5-6.6,1.2-7.4,1.2a6.81,6.81,0,0,1-3-.85l-.57-.27q3-.2,12.42-2Q37.63,87.51,42,86.57c1.3-.28,2.47-.55,3.5-.8a2.08,2.08,0,0,0-.55,1v.25c0,.13.13.2.3.2s.92-.55,2.65-1.65a29.55,29.55,0,0,1,3.65-1.8l.25-.1q3.45-1.38,5.1-2.12l.18-.08q1.32-.61,1.32-.75l0,0a11.12,11.12,0,0,1-1.45.48l-.2,0a6.16,6.16,0,0,1-1.15.12c-.13,0-.48,0-1-.05-.07,0-.22,0-.45.2H53a2.23,2.23,0,0,0-1.4-.4h-.45A6.1,6.1,0,0,1,50,81l-1-.17c-.67-.14-1.21-.26-1.6-.38-1.07-.33-1.58-.7-1.55-1.1a.8.8,0,0,0-.07-.32c-.05-.14-.14-.2-.25-.18a.41.41,0,0,0-.18,0,4.27,4.27,0,0,0-.85.6l-4,2.25-2.05.85a15.7,15.7,0,0,0-2.35,1,70,70,0,0,1-9.6,4c-1.7.44-3.22.85-4.55,1.25a20.88,20.88,0,0,0-3.8,1.33c-.23-.18-.35-.34-.35-.48q0-1.55,7.4-3.45,9-2.34,9.65-2.65c1.87-.93,3.33-1.7,4.4-2.3,2-1.1,3-1.9,3.25-2.4a1.65,1.65,0,0,1,1.9-1,4.93,4.93,0,0,1,.85.25,17.9,17.9,0,0,1,2.45,1.15h6.68q-.54-.43-1.08-.9-5.59-4.77-8.13-7.3C43.71,69.74,43,68.87,43,68.52a1.3,1.3,0,0,1,.35-.85,1.5,1.5,0,0,1,.32-.3c.2.47,1.57,1.53,4.13,3.2.52.35,1.08.71,1.7,1.1L50,72q2.88,1.8,6.45,4L62.88,81l.22.17a37.56,37.56,0,0,0,4.65,3.3.55.55,0,0,0,.08.15.86.86,0,0,0,.07.1.55.55,0,0,0,.45.25c.23,0,.35-.08.35-.25a2.14,2.14,0,0,0-.32-.92l-.23-.38a1.58,1.58,0,0,1,.8-.35.35.35,0,0,1,.22.08c.36.23.55,1.07.58,2.52a10.16,10.16,0,0,1-.45,2.15c0,.11-.06.23-.1.35a11.82,11.82,0,0,0-.55,2.75l.1.6c.1.4.23.6.4.6a6.72,6.72,0,0,0,.9-1.55c.63-1.2,1-2,1.25-2.3v.85a7,7,0,0,0-.25,2.15,2.64,2.64,0,0,1-.6,1l-.2.28a2.11,2.11,0,0,0-.45.77c0,.33.38.49,1.15.45.8.57,1.28,1.7,1.45,3.4.07,1,.17,2.44.3,4.4q.45,2.66.8,8V113a36,36,0,0,0,.5,4.65v7.85a16.48,16.48,0,0,0,.6,2.45q.5,1.5.9,1.5c.2,0,.35-.73.45-2.2,0-.46-.07-1.27-.2-2.4v-5.45a15.44,15.44,0,0,1-.15-2.5l.05-.5V113c.23-2.86.35-4.58.35-5.15s-.1-2.5-.3-5.5v-1c.16-1.16.3-2.24.42-3.22.22.33.49.77.83,1.32q.9,1.35,1.5,1.35c.2,0,.3-.32.3-1a7.12,7.12,0,0,0-.15-1.65c-.12-.59-.23-1.19-.32-1.8l0-.25V93.67A4.21,4.21,0,0,1,78,92.22c0-.3.23-.56.7-.8a1.13,1.13,0,0,0,.65-1c0-.93-.83-1.76-2.5-2.5s-2.5-1.86-2.5-3.3a.51.51,0,0,1,0-.3.5.5,0,0,1,.55-.35c.87,0,2.13.74,3.8,2.2A29.86,29.86,0,0,1,81,88.27c.2,0,.3-.11.3-.35q-1.6-3.15-2.1-4.35s-.28-.76-.85-2.2c-.1-.31-.2-.59-.3-.82l.75.22h1.55a2.8,2.8,0,0,0,1.55-1,1.9,1.9,0,0,0,.2-1,1.17,1.17,0,0,0-.1-.6,3.27,3.27,0,0,0-1.2-.6v-.05a10,10,0,0,0,1.75-1.1,1.66,1.66,0,0,0,.3-1.1,1,1,0,0,0-.45-1,6.15,6.15,0,0,0,2.8-1.15,2,2,0,0,0,.65-1.6q0-2.4-1.2-2.4A4.5,4.5,0,0,0,81.5,71a9.13,9.13,0,0,0-1.4,2c.2-.67.68-1.88,1.45-3.65s1-2.53,1-2.6-.12-.3-.25-.3a16.57,16.57,0,0,0-2.7,2.85c-1.63,1.9-2.67,2.85-3.1,2.85a1.82,1.82,0,0,0-.8-.2,1.22,1.22,0,0,0-1,.4c-.23.27-.4.4-.5.4s-.38-.36-.55-1.1c0-.06,0-.12-.05-.17a1.22,1.22,0,0,1,.3-.33l-.5-.5a2.49,2.49,0,0,0-.15-.4c.13-.06,1.52-.58,4.15-1.55l.4.1c.2,0,.4-.27.6-.8a3.77,3.77,0,0,0,.2-1,.74.74,0,0,0,0-.6.86.86,0,0,0-.3-.3,2.21,2.21,0,0,0-1.15-.25l-.32,0a2.2,2.2,0,0,0-1,.67c-.37.47-.58.73-.65.8a15,15,0,0,0-1-3,8.49,8.49,0,0,1-1-1.45c-.09-.82-.4-1.28-.95-1.37a1.07,1.07,0,0,0-.25,0h0c-.66,0-1.2,1.07-1.63,3.15a18.31,18.31,0,0,0-.45,3.4,4.5,4.5,0,0,0,.4,1.6c.07.17.13.34.18.5a3.34,3.34,0,0,1,.22,1.1,1.68,1.68,0,0,1-.55,1,1.29,1.29,0,0,0-.1-.8q-.2-.3-1.35-.3l-.8.05a14.62,14.62,0,0,1-3-2.05,14.77,14.77,0,0,0-1.2-1.25,2.79,2.79,0,0,0-1.7-.95.33.33,0,0,0-.15,0,.33.33,0,0,0-.15.32,4.55,4.55,0,0,0,1.15,2c.46.56,1,1.23,1.75,2a31.42,31.42,0,0,1,4,4.6,2.82,2.82,0,0,0-1.7.95c-.29.29-.55.57-.77.83l0,0-.55-.1H63.78a4.6,4.6,0,0,0-.73.05s0,0,0,0-.13-.14-.2-.2c-.18-.25-.42-.57-.72-1s-.52-.65-.83-1a24.85,24.85,0,0,1-2.13-2.87c0-.07,0-.12-.07-.18L56.9,66.67c-.47-1.23-.82-2.17-1-2.8a16.71,16.71,0,0,0-1.4-2.9l-.4-.65L54,60.2q-1.2-3.62-1.68-5.5c.11-3.18,1.27-4.67,3.5-4.48h2A37.94,37.94,0,0,1,66,53.07l4,1.8s.08,0,.15-.1a.44.44,0,0,0,.1-.2c0-.23-.57-.83-1.7-1.8s-1.73-1.48-1.8-1.55a21,21,0,0,0-1.6-2.1,9.16,9.16,0,0,0-1-1C69,50,71.45,51.44,71.45,52.47c0,2.34-.38,3.89-1.15,4.65a1.93,1.93,0,0,1-1.4.55,3.33,3.33,0,0,1-2.1-1s0,0,0,0A17.29,17.29,0,0,0,65,55.22a15.49,15.49,0,0,0-4.2-.9c-2.1-.23-3.42-.4-4-.5l0,.25a77.14,77.14,0,0,0,2.87,7.8l.46,1.1.32,0a3.86,3.86,0,0,1,.68,0,8.06,8.06,0,0,1,3.47,1.48q.58.39,1.2.87a24.06,24.06,0,0,1,3.33,3.13q.12-.59.27-1.23A39.45,39.45,0,0,1,71.55,60l.12-.27q1.59-3.26,3-2.38a2.64,2.64,0,0,1,.61.6.56.56,0,0,0-.23,0,2,2,0,0,0-1,.35l-.3.18a1.16,1.16,0,0,1-.4.17L73,58.47c-.13,0-.2.12-.2.35s.15.34.23.5a34.17,34.17,0,0,0,1.72,3.55,28.76,28.76,0,0,0,.9-3.85c0-.18,0-.34-.05-.47a12.36,12.36,0,0,1,.85,2.05c.24-.67.52-1.45.85-2.33.48-1.3.91-2.49,1.3-3.57.76-2.17,1.32-3.92,1.7-5.23.9-3.53,1.62-6.27,2.15-8.2q1.55-5.35,2.7-5.35c1.57,0,2.45,1.1,2.65,3.3C87.9,40.39,88,42,88,44l0,.1q2.4-3.3,8.15-11.85,4.75-7.09,8.4-11.75,2.9-3.64,10.9-15.45,6.6-8.65,6.6-2.4,0,3-6.45,13.6-6.55,10.2-6.85,10.7a6,6,0,0,1,1.75,1.2,2.11,2.11,0,0,1,.3,1.25Q102.7,45.11,98.23,51.5c.85-.45,1.75-.91,2.67-1.38q2.14-1.3,8.85-6.65,5.66-3.8,5.65.5Q115.4,44.9,96.3,59.35ZM89,60.12c-1.83,1.24-2.87,2.17-3.1,2.8-.11.27-.36.78-.75,1.55-.19.4-.43.87-.7,1.4a.83.83,0,0,0,.3.75l.15-.1v-.35A3.25,3.25,0,0,0,86,66q2.2-.66,6.15-3.95,1.44-1.22,3.6-3.07c1.36-1.15,2.92-2.5,4.7-4q13.8-10.8,13.8-11.55s0-.08-.1-.15q-6.1,4-8.5,5.55a47.47,47.47,0,0,0-4,2.85c-2,1.53-3.28,2.47-3.75,2.8-1,.67-2.48,1.64-4.55,2.9l-.7.43C91.05,58.71,89.85,59.49,89,60.12ZM45,67.57l-.7-.4h.12Zm2,1.1-.3-.35Q35.06,53.77,31.2,50.22q-8.35-6.9-16-13.8Q0,22.77,0,19.57q0-2.7,5.7,2.65l.38.4q4.17,2.47,11.32,7.45Q36,43.12,39,43.12s.38-.2,1-.6a3.6,3.6,0,0,1,1.5-.65q4.3,0,16.9,4.2c1.87.63,3.55,1.22,5,1.78L62.05,48a2.25,2.25,0,0,0-1,.2l-1.4,0a12.51,12.51,0,0,1-2.5-.35H54.65a42.05,42.05,0,0,1-7.35-2.5c-4.07-1.76-6.28-2.71-6.65-2.85v.4l.33.18a.42.42,0,0,0-.08.22A4.86,4.86,0,0,0,42,45a5.61,5.61,0,0,1,1.1,1.7v.25a1.07,1.07,0,0,1-.7.15,7.37,7.37,0,0,1-4.35-1.8A56.9,56.9,0,0,0,31.85,41a78.48,78.48,0,0,1-9.6-6.4,31.19,31.19,0,0,0-4.85-3.25,15.83,15.83,0,0,1-2.65-1.65c-.9-.66-1.67-1.22-2.3-1.65l-3.7-2.7c-3.47-2.56-5.22-3.85-5.25-3.85-.27,0-.4.07-.4.2a35.28,35.28,0,0,0,3.7,4.1l3.37,3.58c1,1,1.57,1.67,1.83,2q3.71,4.25,9.25,9.65c1.1,1.07,2.92,2.68,5.45,4.85,2.37,2,4.13,3.58,5.3,4.75q2.55,2.55,6.1,6c2.13,2,3.43,3.17,3.9,3.53.72.83,1.56,1.68,2.5,2.57l1.17,1.13q3.18,3,8.73,7.87-.45-.19-5.4-2h0A17.68,17.68,0,0,1,47,68.67Zm28.3-16.75a.37.37,0,0,1,0-.15.66.66,0,0,0-.65.55,3.44,3.44,0,0,0,0,.8v.4c0,.27.13.4.3.4S75.08,53.25,75.25,51.92ZM119.05,3q-2.25,3-3,3.7a55.53,55.53,0,0,0-4.5,6.05q-5.89,8-8.65,11.9-5.81,8-8.5,11.95t-4,6a37,37,0,0,1-5.05,5.9v-.05a2.32,2.32,0,0,0,.2-.75.29.29,0,0,0-.1-.2h0c0-.11,0-.22.08-.35.27-1.26.48-2.45.65-3.55.6-3.6.9-5.51.9-5.75,0-1.23-.33-1-1,.75a36.94,36.94,0,0,0-1.45,4.7c-.43,1.54-1.13,3.8-2.1,6.8-.29.93-.68,2.26-1.17,4-.24.84-.5,1.78-.78,2.8q-1.2,4.41-2,6.9v0a.63.63,0,0,0,0,.22.82.82,0,0,0,0,.28v.07l0,0c.18.25.58.37,1.2.37.08,0,1.73-2,4.92-6.07l1.88-2.38q4.55-5.29,7.85-8.55v0A33.54,33.54,0,0,0,92.5,54v.3a.37.37,0,0,0,.08.18.18.18,0,0,0,.17.07,1.28,1.28,0,0,0,.25-.32c.3-.43.87-1.3,1.7-2.63l2-3.2q1.31-2,3.85-6.2,7.65-11.65,7.65-12.55c0-.36-.67.22-2,1.75-1,1.17-1.72,2-2.15,2.65L101,37.25l2.5-3.88q3.9-6,6.5-10.55,5.7-10.1,6.1-10.9c3.27-6,4.9-9.36,4.9-10.2C121,1.06,120.32,1.49,119.05,3Zm-45.8,51.3c-.07-.6-.1-.91-.1-1a3,3,0,0,1,1.55-2.45c1-.7,1.5-.56,1.5.4a7.09,7.09,0,0,1-.5,2.15c-.4,1.17-.83,1.75-1.3,1.75A1.14,1.14,0,0,1,73.25,54.32Zm18.3-1.2q-.9,1.16-3.25,3.85c1-.61,2.09-1.28,3.4-2l.18-.1,0,0a1.6,1.6,0,0,1-.2-1.4A.4.4,0,0,0,91.55,53.12Z"/><path class="cls-4" d="M120.8,75.4v0a2.44,2.44,0,0,1-.72.23q-1.44.38-5.73,1.27-8.3,1.71-11.7,2.5l-2.32.58c-1.84.46-3.38.85-4.63,1.15l-1.15.27c-2.9.69-5.8,1.24-8.72,1.65l-1,.15h-.9l-.05-.15a.24.24,0,0,1,.1-.17v0L91.75,79c.8-.43,2-1.16,3.5-2.2q1.34-.91,2.28-1.47c.61-.52,1.51-1.19,2.67-2a12.27,12.27,0,0,0,2.65-3.25,8.12,8.12,0,0,0,.8-2.07,5.9,5.9,0,0,0,.15-.8,8.49,8.49,0,0,0,0-.88,3.83,3.83,0,0,0-.52-2,3.64,3.64,0,0,0-2.48-1.5c-.46-.09-.86-.18-1.23-.27-1.18-.3-1.77-.57-1.77-.83a1.18,1.18,0,0,1,.43-.75,3.45,3.45,0,0,1,.27-.25,2.08,2.08,0,0,1,1.3-.6,6.52,6.52,0,0,1,3.15,1.1,9.89,9.89,0,0,0,2.53,1,4.38,4.38,0,0,0,.92.1,15.56,15.56,0,0,0,4.3-.6l2-.65q.45,0,.45.3l-1.85,1.25c-1.23.87-1.85,1.63-1.85,2.3a6.7,6.7,0,0,0,.55,2.1c.47,1.23,1,1.85,1.55,1.85l2.65-.15q8-2,19.55-4.4c1.3-.26,4.52-1,9.65-2.2a59.6,59.6,0,0,1,8.85-1.55c.13,0,.22.1.25.3q-10.55,3.71-12.4,4.4c-4.37,1.54-8,2.68-11,3.45q-1.95.51-5.8,1.65L118.05,72q-2.25.6-7.5,2.55l-3.43,1.25q1.26,0,5.53-.5h3l.1,0h3.65l.2-.1h1A.23.23,0,0,1,120.8,75.4ZM119.05,3c1.27-1.53,1.9-2,1.9-1.3,0,.84-1.63,4.23-4.9,10.2q-.4.8-6.1,10.9-2.6,4.5-6.5,10.55L101,37.25l3.15-3.18c.43-.6,1.15-1.48,2.15-2.65,1.33-1.53,2-2.11,2-1.75q0,.9-7.65,12.55-2.55,4.2-3.85,6.2l-2,3.2c-.83,1.33-1.4,2.2-1.7,2.63a1.28,1.28,0,0,1-.25.32.18.18,0,0,1-.17-.07.37.37,0,0,1-.08-.18V54a33.54,33.54,0,0,1,1.9-6.15v0q-3.3,3.26-7.85,8.55l-1.88,2.38c-3.19,4-4.84,6.07-4.92,6.07-.62,0-1-.12-1.2-.37l0,0v-.07a.82.82,0,0,1,0-.28.63.63,0,0,1,0-.22v0q.85-2.49,2-6.9c.28-1,.54-2,.78-2.8.49-1.74.88-3.07,1.17-4,1-3,1.67-5.26,2.1-6.8a36.94,36.94,0,0,1,1.45-4.7c.67-1.73,1-2,1-.75,0,.24-.3,2.15-.9,5.75-.17,1.1-.38,2.29-.65,3.55,0,.13,0,.24-.08.35h0a.29.29,0,0,1,.1.2,2.32,2.32,0,0,1-.2.75v.05a37,37,0,0,0,5.05-5.9q1.45-2,4-6T103,24.67q2.74-3.9,8.65-11.9a55.53,55.53,0,0,1,4.5-6Q116.81,6,119.05,3Zm-43.8,48.9c-.17,1.33-.32,2-.45,2s-.27-.13-.3-.4v-.4a3.44,3.44,0,0,1,0-.8.66.66,0,0,1,.65-.55A.37.37,0,0,0,75.25,51.92ZM18.83,90.7l-.63,0c-.2,0-.3,0-.3-.1v-.15c0-.06.07-.13.2-.22a20.88,20.88,0,0,1,3.8-1.33c1.33-.4,2.85-.81,4.55-1.25a70,70,0,0,0,9.6-4,15.7,15.7,0,0,1,2.35-1l2.05-.85,4-2.25a4.27,4.27,0,0,1,.85-.6.41.41,0,0,1,.18,0c.11,0,.2,0,.25.18a.8.8,0,0,1,.07.32c0,.4.48.77,1.55,1.1.39.12.93.24,1.6.38L50,81a6.1,6.1,0,0,0,1.2.1h.45a2.23,2.23,0,0,1,1.4.4h1c.23-.16.38-.23.45-.2.57,0,.92.05,1,.05a6.16,6.16,0,0,0,1.15-.12l.2,0a11.12,11.12,0,0,0,1.45-.48l0,0q0,.14-1.32.75l-.18.08q-1.65.74-5.1,2.12l-.25.1a29.55,29.55,0,0,0-3.65,1.8c-1.73,1.1-2.62,1.65-2.65,1.65s-.27-.07-.3-.2v-.25a2.08,2.08,0,0,1,.55-1c-1,.25-2.2.52-3.5.8q-4.38.95-10.75,2.15Q21.82,90.51,18.83,90.7ZM89,60.12c.9-.63,2.1-1.41,3.6-2.32l.7-.43c2.07-1.26,3.58-2.23,4.55-2.9.47-.33,1.72-1.27,3.75-2.8a47.47,47.47,0,0,1,4-2.85q2.4-1.55,8.5-5.55c.07.07.1.12.1.15q0,.75-13.8,11.55c-1.78,1.53-3.34,2.88-4.7,4s-2.64,2.26-3.6,3.07Q88.16,65.36,86,66a3.25,3.25,0,0,1-1.1.15v.35l-.15.1a.83.83,0,0,1-.3-.75c.27-.53.51-1,.7-1.4.39-.77.64-1.28.75-1.55C86.08,62.29,87.12,61.36,89,60.12ZM75.6,58.55c0,.13,0,.29.05.47a28.76,28.76,0,0,1-.9,3.85A34.17,34.17,0,0,1,73,59.32c-.08-.16-.15-.33-.23-.5s.07-.35.2-.35l.25.15a1.16,1.16,0,0,0,.4-.17l.3-.18a2,2,0,0,1,1-.35.56.56,0,0,1,.23,0A.82.82,0,0,1,75.6,58.55Zm-2.2,12c0,.2.12.47.2.83,0,0,0,.11.05.17.17.74.35,1.1.55,1.1s.27-.13.5-.4a1.22,1.22,0,0,1,1-.4,1.82,1.82,0,0,1,.8.2c.43,0,1.47-.95,3.1-2.85a16.57,16.57,0,0,1,2.7-2.85c.13,0,.22.1.25.3s-.35.94-1,2.6-1.25,3-1.45,3.65a9.13,9.13,0,0,1,1.4-2,4.5,4.5,0,0,1,3.15-1.7q1.2,0,1.2,2.4a2,2,0,0,1-.65,1.6,6.15,6.15,0,0,1-2.8,1.15,1,1,0,0,1,.45,1,1.66,1.66,0,0,1-.3,1.1,10,10,0,0,1-1.75,1.1v.05a3.27,3.27,0,0,1,1.2.6,1.17,1.17,0,0,1,.1.6,1.9,1.9,0,0,1-.2,1,2.8,2.8,0,0,1-1.55,1H78.8l-.75-.22c.1.23.2.51.3.82.57,1.44.85,2.17.85,2.2q.49,1.2,2.1,4.35c0,.24-.1.35-.3.35a29.86,29.86,0,0,0-2.3-2.15c-1.67-1.46-2.93-2.2-3.8-2.2a.5.5,0,0,0-.55.35.51.51,0,0,0,0,.3c0,1.44.83,2.54,2.5,3.3s2.5,1.57,2.5,2.5a1.13,1.13,0,0,1-.65,1c-.47.24-.7.5-.7.8a4.21,4.21,0,0,0,.25,1.45v2.45l0,.25c.09.61.2,1.21.32,1.8a7.12,7.12,0,0,1,.15,1.65c0,.63-.1,1-.3,1q-.6,0-1.5-1.35c-.34-.55-.61-1-.83-1.32s-.33-.5-.42-.63v4.85c.2,3,.3,4.84.3,5.5s-.12,2.29-.35,5.15v3.4l-.05.5a15.44,15.44,0,0,0,.15,2.5v5.45c.13,1.13.2,1.94.2,2.4-.1,1.47-.25,2.2-.45,2.2s-.57-.5-.9-1.5a16.48,16.48,0,0,1-.6-2.45v-7.85a36,36,0,0,1-.5-4.65v-3.3q-.34-5.4-.8-8c-.13-2-.23-3.43-.3-4.4-.17-1.7-.65-2.83-1.45-3.4-.77,0-1.15-.12-1.15-.45a2.11,2.11,0,0,1,.45-.77l.2-.28a2.64,2.64,0,0,0,.6-1,7,7,0,0,1,.25-2.15v-.85c-.2.34-.62,1.1-1.25,2.3a6.72,6.72,0,0,1-.9,1.55c-.17,0-.3-.2-.4-.6l-.1-.6a11.82,11.82,0,0,1,.55-2.75c0-.12.07-.24.1-.35a10.16,10.16,0,0,0,.45-2.15c0-1.45-.22-2.29-.58-2.52a.35.35,0,0,0-.22-.08,1.58,1.58,0,0,0-.8.35l.23.38a2.14,2.14,0,0,1,.32.92c0,.17-.12.25-.35.25a.55.55,0,0,1-.45-.25.86.86,0,0,1-.07-.1.55.55,0,0,1-.08-.15,37.56,37.56,0,0,1-4.65-3.3L62.88,81,56.4,75.92Q52.83,73.75,50,72l-.45-.28c-.62-.39-1.18-.75-1.7-1.1-2.56-1.67-3.93-2.73-4.13-3.2a.44.44,0,0,1,0-.1c0-.2.08-.3.25-.3l.38.2.7.4.87.5c.4.22.77.43,1.1.6a17.68,17.68,0,0,0,2,1h0q4.95,1.86,5.4,2-5.55-4.87-8.73-7.87L44.5,62.67c-.94-.89-1.78-1.74-2.5-2.57-.47-.36-1.77-1.53-3.9-3.53q-3.56-3.39-6.1-6c-1.17-1.17-2.93-2.75-5.3-4.75-2.53-2.17-4.35-3.78-5.45-4.85Q15.7,35.62,12,31.37c-.26-.3-.87-1-1.83-2L6.8,25.82a35.28,35.28,0,0,1-3.7-4.1c0-.13.13-.2.4-.2,0,0,1.78,1.29,5.25,3.85l3.7,2.7c.63.43,1.4,1,2.3,1.65a15.83,15.83,0,0,0,2.65,1.65,31.19,31.19,0,0,1,4.85,3.25,78.48,78.48,0,0,0,9.6,6.4,56.9,56.9,0,0,1,6.2,4.25,7.37,7.37,0,0,0,4.35,1.8,1.07,1.07,0,0,0,.7-.15v-.25A5.61,5.61,0,0,0,42,45a4.86,4.86,0,0,1-1.1-1.7.42.42,0,0,1,.08-.22l-.33-.18v-.4c.37.14,2.58,1.09,6.65,2.85a42.05,42.05,0,0,0,7.35,2.5H57.1a12.51,12.51,0,0,0,2.5.35l1.4,0a2.25,2.25,0,0,1,1-.2l1.37-.17.18,0a.87.87,0,0,1,.48.28,9.16,9.16,0,0,1,1,1,21,21,0,0,1,1.6,2.1c.07.07.67.59,1.8,1.55s1.7,1.57,1.7,1.8a.44.44,0,0,1-.1.2c-.07.07-.12.1-.15.1l-4-1.8a37.94,37.94,0,0,0-8.2-2.85h-2c-2.23-.19-3.39,1.3-3.5,4.48v.47a7.78,7.78,0,0,0,.55,2.9A18,18,0,0,0,54,60.2l.07.12.4.65a16.71,16.71,0,0,1,1.4,2.9c.23.63.58,1.57,1,2.8l2.15,5.75c0,.06.05.11.07.18a24.85,24.85,0,0,0,2.13,2.87c.31.38.59.72.83,1s.54.7.72,1c.07.06.13.13.2.2s0,0,0,0a4.6,4.6,0,0,1,.73-.05H65.4l.55.1,0,0c.22-.26.48-.54.77-.83a2.82,2.82,0,0,1,1.7-.95,31.42,31.42,0,0,0-4-4.6c-.71-.77-1.29-1.44-1.75-2a4.55,4.55,0,0,1-1.15-2,.33.33,0,0,1,.15-.32.33.33,0,0,1,.15,0,2.79,2.79,0,0,1,1.7.95,14.77,14.77,0,0,1,1.2,1.25,14.62,14.62,0,0,0,3,2.05l.8-.05q1.16,0,1.35.3a1.29,1.29,0,0,1,.1.8,1.68,1.68,0,0,0,.55-1,3.34,3.34,0,0,0-.22-1.1c0-.16-.11-.33-.18-.5a4.5,4.5,0,0,1-.4-1.6,18.31,18.31,0,0,1,.45-3.4c.43-2.08,1-3.13,1.63-3.15h0a1.07,1.07,0,0,1,.25,0c.55.09.86.55.95,1.37a8.49,8.49,0,0,0,1,1.45,15,15,0,0,1,1,3c.07-.07.28-.33.65-.8a2.2,2.2,0,0,1,1-.67l.32,0a2.21,2.21,0,0,1,1.15.25.86.86,0,0,1,.3.3.74.74,0,0,1,0,.6,3.77,3.77,0,0,1-.2,1c-.2.53-.4.8-.6.8l-.4-.1c-2.63,1-4,1.49-4.15,1.55A2.49,2.49,0,0,1,73.4,70.57ZM56,91.65l.27-.38,0,.15a6.11,6.11,0,0,1-.3.65q-.61,1.28-2.5,5c-.48,1-1,2-1.65,3.25l-2.4,4.45a17.54,17.54,0,0,0-1.15,2.7,2.08,2.08,0,0,1-.13.3q1-1.08,2.93-3.1,4.45-4.5,5.85-6l.4-.45c2.2-2.44,3.87-4.25,5-5.45A36.9,36.9,0,0,1,66.5,88.8a8.23,8.23,0,0,1,.75-.53l0,.1,0,0-.15.23-.8,1.1-1.6,2.17c-2,2.6-3.28,4.4-4,5.4l-1.47,2.13c-2.42,3.52-3.9,5.72-4.43,6.62v.05l2.3-2.35a18.87,18.87,0,0,1,2.55-2.25l.15.15q0,.36-5.45,7c-.63.77-1.52,1.92-2.65,3.45-.53.57-1.42,1.69-2.65,3.35a.18.18,0,0,1-.2-.2V115q0-1.2,3-5.35v0l-.05,0Q49.53,113.13,39.1,126l-3.7,4.45q-2.2,2.66-3.75,4.35c-.43.47-1.82,2.15-4.15,5.05q-2.85,3.56-3.3,3.55a.23.23,0,0,1-.25-.15v-.15q0-.6,4.15-7,4-6.15,6.25-9.2l5.75-8.15L41.9,116q.62-1.31,2.5-4.68c2.2-3.8,3.6-6.26,4.2-7.4q2.4-4.65,3.55-6.4l.08-.12Q54.83,93.24,56,91.65Z"/><path class="cls-5" d="M67.48,92.5a20.27,20.27,0,0,0-2.63,3.27q-2.34,3.45-4.3,3.73c1.29-2,2.65-4.09,4.1-6.43q1-1.66,1.65-2.82v.32A2.72,2.72,0,0,0,67.48,92.5Zm13.44,4.57c0-.17,0-.33.08-.5q1.48-8.67,1.62-10.15,3.15-.17,17.21-4.37a45.18,45.18,0,0,1-4.13,6.67q-5.1,7.2-8.5,7.2c-.07,0-.58-.13-1.55-.4s-1.72-.53-2.15-.7A3.45,3.45,0,0,1,80.92,97.07ZM56.6,95.47v-.15l-.2-.2-2,1.38,0-.08A11.63,11.63,0,0,0,56,92.07a6.11,6.11,0,0,0,.3-.65l0-.15-.27.38a1.69,1.69,0,0,0-1.83-1.73L49.8,97a3.28,3.28,0,0,1-1.45-2.38,5.52,5.52,0,0,1,.25-3.45q-4.4.06-5.85-1.65a2.93,2.93,0,0,1-.63-1.35l.18-.05c.3-.06,2.83-.4,7.6-1,3.69-.87,5.92-2.23,6.7-4.1l.4-.15a8.72,8.72,0,0,0,1.1-.52,42.53,42.53,0,0,0,6.75,4.32,21.76,21.76,0,0,0-2.95,2.75Q59.94,91.53,56.6,95.47ZM44.35,77.92a2.89,2.89,0,0,1-.35-.35,4.39,4.39,0,0,1-1.1-3,3.46,3.46,0,0,1,2.22-3.45q2.54,2.52,8.13,7.3.54.47,1.08.9H47.65a17.9,17.9,0,0,0-2.45-1.15A4.93,4.93,0,0,0,44.35,77.92Zm16.73-15a3.86,3.86,0,0,0-.68,0l-.32,0-.46-1.1c.43.28.87.6,1.33,1Zm10.59-3.17-.12.27a39.45,39.45,0,0,0-2.2,7.15q-.15.64-.27,1.23a24.06,24.06,0,0,0-3.33-3.13q-.61-.48-1.2-.87a27.78,27.78,0,0,1,0-3.93q.15-3.06,2.3-3.75a3.33,3.33,0,0,0,2.1,1,1.93,1.93,0,0,0,1.4-.55,3.26,3.26,0,0,1,1.1,1.6A7,7,0,0,1,71.67,59.75ZM73.4,70.57l.5.5a1.22,1.22,0,0,0-.3.33C73.52,71,73.45,70.77,73.4,70.57Zm2.2-12a.82.82,0,0,0-.37-.58,2.64,2.64,0,0,0-.61-.6,11.74,11.74,0,0,1,3.78-2.6l.2-.07c-.39,1.08-.82,2.27-1.3,3.57-.33.88-.61,1.66-.85,2.33A12.36,12.36,0,0,0,75.6,58.55ZM96.8,59.7a1.85,1.85,0,0,0-.65,1.57q0,1,3.85,2.9c.38.19.73.37,1,.55a8.16,8.16,0,0,1,1,3.75,4.33,4.33,0,0,0,.5,1.13q-2.47,2.78-10.15,7.07-9.76,5.44-11.17,6.55l-.78-1q3.15-.54,3.15-2.9a5.39,5.39,0,0,0-.5-1.5c3.27-.76,4.9-2.3,4.9-4.6a5.79,5.79,0,0,0-.4-2.1,2.72,2.72,0,0,0-2.15-1.8A6.49,6.49,0,0,0,86,67.1q5.7-4.26,10.3-7.75Zm-12.25,2a1.58,1.58,0,0,1,.35.8s-.27.57-.8,1.63a3.19,3.19,0,0,0-.45,0,2.79,2.79,0,0,0-2.2,1.15l-.2.25v-.15c0-.24,1-1.54,3.13-3.92Z"/></g></g></svg>