<svg xmlns="http://www.w3.org/2000/svg" viewBox="0 0 155.6 146.25"><defs><style>.cls-1{fill:#fff;}.cls-1,.cls-2,.cls-3,.cls-4,.cls-5{fill-rule:evenodd;}.cls-2{fill:#ee7500;}.cls-2,.cls-3{fill-opacity:0.6;}.cls-3,.cls-5{fill:red;}.cls-4{fill:#fefefe;}.cls-5{fill-opacity:0.2;}</style></defs><g id="Layer_2" data-name="Layer 2"><g id="Layer_1-2" data-name="Layer 1"><path class="cls-1" d="M115.75,65.58l-.65.32-.15-.15.45-.33a51.67,51.67,0,0,1,9.2-4.82q6-2.57,8.33-2.63l.37,0-.25.1q-3,1.18-8.05,3.35Q119,64,115.75,65.58ZM75.85,44.1c1.33.13,2,.78,2,1.95a2,2,0,0,1-.4,1.2,2,2,0,0,1-3.3-.15,2.29,2.29,0,0,1-.27-.8,1.13,1.13,0,0,1,0-.25C73.85,44.65,74.52,44,75.85,44.1Zm-16.7-8.38c.17.47.35,1,.53,1.5q.82,2.39,1.87,5.58a48.25,48.25,0,0,0,2.18,5.1,34.17,34.17,0,0,0,2.57,4.3l0,.1a17.67,17.67,0,0,1-2.15-3.53q-1.24-2.4-2.9-6.27c-.48-1.13-.9-2.16-1.27-3.08s-.69-1.74-1-2.45a14.09,14.09,0,0,1-1-3.27c0-.2,0-.3,0-.3v.1l.3,0C58.59,34.1,58.86,34.86,59.15,35.72Zm-.35,8a9.59,9.59,0,0,1-.5-1.65l.05-.3c.2,0,.3,0,.3,0a80.52,80.52,0,0,1,3.05,8.35c0,.1-.17.17-.4.2C61,49.45,60.42,48,59.65,46,59.3,45.07,59,44.3,58.8,43.7Zm11.25,7.75c.7.1,1,.43,1,1a1.08,1.08,0,0,1-.3.7,1,1,0,0,1-.75.4,1,1,0,0,1-.9-.55L69,52.45C69,51.68,69.35,51.35,70.05,51.45ZM51,55.1a2.7,2.7,0,0,1,1.27,0c1.47.27,2.2,1,2.2,2.1s-.73,1.65-2.2,1.65a2.62,2.62,0,0,1-1-.2,1.81,1.81,0,0,1-.9-.85l-.25-1C50.05,55.87,50.36,55.3,51,55.1ZM59.23,62a4.81,4.81,0,0,1,2.92-1q3.71-.34,3.7,2.7a6.23,6.23,0,0,1-1.45,2.65c-1,1.37-1.75,2.05-2.25,2.05a3.28,3.28,0,0,1-3.1-2.15.5.5,0,0,1,0-.13,5.49,5.49,0,0,1-.55-2.27A2.34,2.34,0,0,1,59.23,62ZM25,67.6q5.65,1.66,9.17,2.35Q39.66,71,50.7,72.4l.1.3a.23.23,0,0,0,0,.2c0,.07-.15.1-.35.1A70,70,0,0,1,32.7,70.2c-3.83-1.06-6.58-1.92-8.27-2.58a12.2,12.2,0,0,1-1.28-.57ZM66.83,80.28a2.42,2.42,0,0,1-.28.52,1.17,1.17,0,0,1-.9.5,1.59,1.59,0,0,1-1.5-.8c-.17-.53-.25-.82-.25-.85a2.41,2.41,0,0,1,0-.4q.2-1.06,1.47-.6c1,.37,1.5.75,1.5,1.15A1.59,1.59,0,0,1,66.83,80.28Zm2.22-21.13a1.59,1.59,0,0,1,1.2-1.25c.07.1.3.4.7.9a2.08,2.08,0,0,1,.55,1.05c0,.4-.25.62-.75.65a1.23,1.23,0,0,1-.4-.08,2.55,2.55,0,0,1-.75-.52c-.37-.33-.55-.53-.55-.6ZM81.9,71a2.45,2.45,0,0,1,.85,2v.08a1.55,1.55,0,0,1-1,1.52,8.05,8.05,0,0,1-2.5.25,2.23,2.23,0,0,1-1.85-.75A1.87,1.87,0,0,1,77,72.9q0-3,2.9-2.65A4,4,0,0,1,81.9,71ZM74.3,68.8a4.73,4.73,0,0,1-1.35.8,7.71,7.71,0,0,1-3,.7,4.23,4.23,0,0,1-.85-.08A1.08,1.08,0,0,1,68,69c0-1.1,1.12-1.8,3.35-2.1s3.35.08,3.35,1.15A1,1,0,0,1,74.3,68.8Zm36.58-23.95q-13.95,6.63-20.78,10L90,54.75a68.24,68.24,0,0,1,10.1-5.7q6-2.85,11.45-4.85l.08.25,0,0Zm-9.78,13q0-.6,4.4-2.75a31.86,31.86,0,0,1,8.75-3.05,83,83,0,0,1-12.8,6.15h-.25C101.13,58.17,101.1,58.05,101.1,57.85Zm10.65,19.4q2.7,1.05,2.7,4.8a2,2,0,0,1-.4,1.2,1.83,1.83,0,0,1-1.6.8c-1.07,0-2-.72-2.65-2.15a6.09,6.09,0,0,1-.75-2.35Q109.05,76.2,111.75,77.25ZM24.83,92.62a24.9,24.9,0,0,1,4.1-1.27q.64-.16,1.35-.3c.23-2.75,1.58-3.08,4-1a5.75,5.75,0,0,0,1.15-.75,3,3,0,0,1,.95-.52,1.71,1.71,0,0,1,.65-.13,1.47,1.47,0,0,1,1.35.75,2.87,2.87,0,0,1,.18.4l3.77-.5-3.73.7a1.53,1.53,0,0,1,0,.3,2.11,2.11,0,0,1-.45,1.15,6,6,0,0,1-.42.52,8.37,8.37,0,0,1-.73.73,6.17,6.17,0,0,1-4.2,1.75,2.41,2.41,0,0,1-2.1-1.1c-.08-.12-.16-.24-.22-.35a2.21,2.21,0,0,1-.28-1v-.35l-1,.22c-1.51.35-2.84.69-4,1-.9.27-1.67.53-2.33.8A8.72,8.72,0,0,1,24.83,92.62Zm81.52-.57a1.77,1.77,0,0,1-1.5.75,4.15,4.15,0,0,1-2.9-1.6c-.87-.93-1.3-1.63-1.3-2.1,0-2.13,1-2.62,3.1-1.45s3,2.27,3,3.2A2,2,0,0,1,106.35,92.05ZM95.5,89.58q.66-.45,5.18,1.64,1.14.54,2.52,1.23c1.13.55,2.16,1.07,3.1,1.55a64.67,64.67,0,0,1,6,3.35l-.15.45c0,.17-.18.25-.45.25a1.82,1.82,0,0,1-.35,0c-1.19-.26-4-1.62-8.55-4q-7.35-4-7.35-4.15A.24.24,0,0,1,95.5,89.58ZM88.8,102c0-1.2.68-1.87,2-2s2.05.93,2.05,3.1a1.35,1.35,0,0,1-.45,1,1.47,1.47,0,0,1-1.1.4,2.37,2.37,0,0,1-1.9-1.2A3.07,3.07,0,0,1,88.8,102Zm9.85,11.5,0-.15a13.74,13.74,0,0,1,1.3,1,.3.3,0,0,1-.15.25A3.23,3.23,0,0,1,98.65,113.45ZM76.85,92.9a1.9,1.9,0,0,1-1.6.8A1.31,1.31,0,0,1,74,93a1.67,1.67,0,0,1-.15-.75,1.71,1.71,0,0,1,1.75-1.85c1.17-.13,1.75.35,1.75,1.45A1.85,1.85,0,0,1,76.85,92.9Zm3.48-3.25c-.15-.09-.23-.1-.23-.05v-.18a2.11,2.11,0,0,1,.08-.45c.26-.9,1.2-1.08,2.82-.52,1.93.67,2.9,1.65,2.9,3a1.61,1.61,0,0,1-.3.9,1.48,1.48,0,0,1-1.25.6L82.2,91.1c-.78-.65-1.34-1.1-1.67-1.32Zm22.9,23.43a23,23,0,0,1-2.28-2.73c-1.63-2.3-2.45-3.47-2.45-3.5a1.48,1.48,0,0,1,.1-.45q1.7.1,3.9,3.25c.46.66,1,1.49,1.68,2.5l1.57,2.5-.5-.5a1.09,1.09,0,0,0-.8-.3C104.17,113.85,103.76,113.59,103.23,113.08Zm-48.15,3.39-.33.53.25-.55c1-2.24,2.29-4.81,3.8-7.7.49-1,.93-1.77,1.32-2.47.63-1.17,1.11-2,1.46-2.56a4.72,4.72,0,0,1-.6-.87c-.11-.22-.22-.45-.33-.7q-.75-2.36-.75-2.4a2.66,2.66,0,0,0-.25-.8q-.09-.18-.15-.33a1.31,1.31,0,0,1-.15-.42,4.11,4.11,0,0,1,.1-1q.46-1.83,2.95-.15,3,2.06,3.05,4.35a4.12,4.12,0,0,1-.65,1.75,2.59,2.59,0,0,1-1.35,1.27,1.1,1.1,0,0,1-.4.08,1.76,1.76,0,0,1-1.12-.42c-.23.49-.65,1.31-1.25,2.45l-1.23,2.27Q56.93,113.48,55.08,116.47ZM55.9,100c.07,0,.1.15.1.35,0,.63-1.13,2.77-3.4,6.4-1.13,1.83-2.37,3.8-3.7,5.9l-.45.2a.42.42,0,0,1-.25,0c-.07,0-.1-.15-.1-.35q0-.56,3.1-5.55,2.7-4.35,4.45-6.95A.92.92,0,0,0,55.9,100Zm8.33,5.85a3,3,0,0,1,.12.65v.25q0,1.76-4.7,12.1l-.2-.1q.9-3,4.33-12c0-.16.11-.32.17-.48s.13-.35.2-.52Zm4,4.45a1.47,1.47,0,0,1-1.35-.75,1.71,1.71,0,0,1-.25-.85q0-1.84,1.95-1.65c1.27.17,1.9.72,1.9,1.65a1.4,1.4,0,0,1-.65,1.2A2.81,2.81,0,0,1,68.25,110.25Z"/><path class="cls-2" d="M133.05,58.1a1.29,1.29,0,0,1,.35.95q0,1.2-7,4.05-6.75,2.75-8.8,2.75a5.43,5.43,0,0,1-1.9-.27Q119,64,125,61.45,130,59.29,133.05,58.1ZM115.4,65.42a1.25,1.25,0,0,1-.7-1.17s3.12-1.53,9.35-4.5c4.83-2,7.78-2.58,8.88-1.78q-2.31.06-8.33,2.63A51.67,51.67,0,0,0,115.4,65.42ZM73.88,46.3a2.29,2.29,0,0,0,.27.8,2,2,0,0,0,3.3.15,2,2,0,0,0,.4-1.2c0-1.17-.67-1.82-2-1.95a7.74,7.74,0,0,1,2-1.15q4.09-1.61,4.1,3.3a3.83,3.83,0,0,1-.65,2.2A4.17,4.17,0,0,1,77.65,50c-1.67,0-2.82-.47-3.45-1.4A2.8,2.8,0,0,1,73.7,47,1.42,1.42,0,0,1,73.88,46.3ZM58.8,43.7c.21.6.5,1.37.85,2.3.77,2,1.32,3.45,1.65,4.25.23,0,.37-.1.4-.2a80.52,80.52,0,0,0-3.05-8.35s-.1,0-.3,0l-.05.3-.3-1c0-2.3.32-3.65,1-4l0,0c.26.71.58,1.53,1,2.45s.79,1.95,1.27,3.08q1.65,3.87,2.9,6.27a17.67,17.67,0,0,0,2.15,3.53l0-.1a34.17,34.17,0,0,1-2.57-4.3,48.25,48.25,0,0,1-2.18-5.1q-1-3.19-1.87-5.58c-.18-.53-.36-1-.53-1.5l0-.32c0-1.5.28-2.23.85-2.2s1.15,1.1,1.75,3.2a38.51,38.51,0,0,1,2.15,5.85Q65.25,47,68,53.9A1.21,1.21,0,0,1,67.3,55a3.51,3.51,0,0,1-1.85.4c-.62,0-1.3-.88-2-2.65q-1.6-.06-3.68-5.85Zm9.45,9.85-.2-.9A2.4,2.4,0,0,1,69.9,50.2c1.23-.37,1.85.12,1.85,1.45,0,1.87-.63,2.8-1.9,2.8A1.58,1.58,0,0,1,68.25,53.55Zm1.8-2.1c-.7-.1-1,.23-1,1l.15.55a1,1,0,0,0,.9.55,1,1,0,0,0,.75-.4,1.08,1.08,0,0,0,.3-.7C71.1,51.88,70.75,51.55,70.05,51.45ZM51.2,58.65a2.62,2.62,0,0,0,1,.2c1.47,0,2.2-.55,2.2-1.65s-.73-1.83-2.2-2.1a2.7,2.7,0,0,0-1.27,0c.47-.55,1.36-.64,2.67-.25q3,.9,3,2.85a3.79,3.79,0,0,1-.45,1.45c-.33.7-.65,1.05-1,1.05C53.3,60.2,52,59.68,51.2,58.65ZM59,66.12a.5.5,0,0,0,0,.13,3.28,3.28,0,0,0,3.1,2.15c.5,0,1.25-.68,2.25-2.05a6.23,6.23,0,0,0,1.45-2.65q0-3-3.7-2.7a4.81,4.81,0,0,0-2.92,1,4.37,4.37,0,0,1,.57-.75,5.37,5.37,0,0,1,2.85-1.55q4-.75,4.05,5a6.41,6.41,0,0,1-1.2,2.7c-1,1.53-2,2.3-3,2.3q-2.25,0-3.35-2.7C59.12,66.68,59.06,66.39,59,66.12Zm-34.57,1.5c1.69.66,4.44,1.52,8.27,2.58A70,70,0,0,0,50.45,73c.2,0,.32,0,.35-.1a.23.23,0,0,1,0-.2l-.1-.3Q39.64,71.05,34.15,70,30.64,69.26,25,67.6a93.13,93.13,0,0,1,12.67,1.1q16.16,2.2,16.15,4.35a1.42,1.42,0,0,1-.25.75,1.25,1.25,0,0,1-1.1.6,56.74,56.74,0,0,1-7.65-1.15q-6.19-1.25-7.25-1.4c-3-.27-5.8-.58-8.4-.95q-7.69-1.05-7.7-2.25C21.45,68,22.44,67.69,24.43,67.62Zm39.5,11.63a2.41,2.41,0,0,0,0,.4s.08.32.25.85a1.59,1.59,0,0,0,1.5.8,1.17,1.17,0,0,0,.9-.5,2.42,2.42,0,0,0,.28-.52c1,.51,1.47,1,1.47,1.52a1.48,1.48,0,0,1-.85,1.3,4.34,4.34,0,0,1-2.2.5c-2.2,0-3.3-.67-3.3-2C62,79.89,62.61,79.11,63.93,79.25Zm6.42-18.83a1.23,1.23,0,0,0,.4.08c.5,0,.75-.25.75-.65A2.08,2.08,0,0,0,71,58.8c-.4-.5-.63-.8-.7-.9a1.59,1.59,0,0,0-1.2,1.25c-.3-.35-.45-.58-.45-.7,0-1.3.92-1.88,2.75-1.75a2.6,2.6,0,0,1,2.7,2.85,2.15,2.15,0,0,1-.35,1.15,1.64,1.64,0,0,1-1.45.75A3.46,3.46,0,0,1,70.35,60.42Zm40.53-15.57q-5.31,3-21.43,11.35a1.21,1.21,0,0,1-1.25-.75c-.1-.53-.15-.82-.15-.85q0-2.35,12.75-8.65t12.7-2.75a9,9,0,0,1-1.92,1.25l-.08-.25q-5.5,2-11.45,4.85A68.24,68.24,0,0,0,90,54.75l.15.15Q96.93,51.48,110.88,44.85ZM81.9,71a4,4,0,0,0-2.05-.77Q77,69.91,77,72.9a1.87,1.87,0,0,0,.45,1.2,2.23,2.23,0,0,0,1.85.75,8.05,8.05,0,0,0,2.5-.25,1.55,1.55,0,0,0,1-1.52,10.07,10.07,0,0,1,.15,1.82,1.77,1.77,0,0,1-.6,1.35A3.34,3.34,0,0,1,80,77c-1.83,0-3.08-.57-3.75-1.7a3.91,3.91,0,0,1-.45-2,3.43,3.43,0,0,1,1.1-2.65.94.94,0,0,0,.1-.1,2.86,2.86,0,0,1-1.55-.85,3,3,0,0,0-1.1-.9,1,1,0,0,0,.4-.75c0-1.07-1.12-1.45-3.35-1.15S68,67.9,68,69a1.08,1.08,0,0,0,1.1,1.22l-.25.08a1.54,1.54,0,0,1-1.35-.65,1.56,1.56,0,0,1-.25-.85A3.2,3.2,0,0,1,69,66.05a7.85,7.85,0,0,1,3.85-1.2q5.59-.34,5.6,4.05a3.28,3.28,0,0,1-.12,1,3.78,3.78,0,0,1,1-.07A3.27,3.27,0,0,1,81.9,71Zm29.75-15q-5.7,3.26-8.4,3.25c-2.53,0-3.8-.62-3.8-1.85l8.8-4.3q8.81-3.7,8.8-.95C117.05,52.73,115.25,54,111.65,56.05Zm-10.55,1.8c0,.2,0,.32.1.35h.25a83,83,0,0,0,12.8-6.15,31.86,31.86,0,0,0-8.75,3.05Q101.1,57.25,101.1,57.85ZM112.35,75.1q5.3-.7,5.3,5.3a3.87,3.87,0,0,1-.8,2.4,4.5,4.5,0,0,1-3.9,1.65,5.73,5.73,0,0,1-4.75-2,4.46,4.46,0,0,1-1.15-2.7,3.86,3.86,0,0,1,1.65-3A6.86,6.86,0,0,1,112.35,75.1ZM24.83,92.62l0,0a1.37,1.37,0,0,1-.35-1c0-.59,1.24-1.26,3.73-2a2.26,2.26,0,0,1,0-.35,2.33,2.33,0,0,1,1.5-2.4,4.8,4.8,0,0,1,3.35,0A9.1,9.1,0,0,1,35.43,88q6-.87,8.12,1-1.11,1.33-5.35,2.5a2.11,2.11,0,0,0,.45-1.15,1.53,1.53,0,0,0,0-.3l3.73-.7-3.77.5a2.87,2.87,0,0,0-.18-.4,1.47,1.47,0,0,0-1.35-.75,1.71,1.71,0,0,0-.65.13,3,3,0,0,0-.95.52,5.75,5.75,0,0,1-1.15.75c-2.44-2.08-3.79-1.75-4,1q-.71.14-1.35.3A24.9,24.9,0,0,0,24.83,92.62Zm86.92-15.37q-2.7-1.05-2.7,2.3a6.09,6.09,0,0,0,.75,2.35c.7,1.43,1.58,2.15,2.65,2.15a1.83,1.83,0,0,0,1.6-.8,2,2,0,0,0,.4-1.2Q114.45,78.3,111.75,77.25Zm-5.4,14.8a2,2,0,0,0,.45-1.2q0-1.39-3-3.2c-2.07-1.17-3.1-.68-3.1,1.45,0,.47.43,1.17,1.3,2.1a4.15,4.15,0,0,0,2.9,1.6A1.77,1.77,0,0,0,106.35,92.05Zm-81.07.85c1.13-.34,2.46-.68,4-1l1-.22V92a2.21,2.21,0,0,0,.28,1c.06.11.14.23.22.35a2.41,2.41,0,0,0,2.1,1.1,6.17,6.17,0,0,0,4.2-1.75,8.37,8.37,0,0,0,.73-.73c0,.18,0,.35,0,.53a3.71,3.71,0,0,1-.7,2,2.83,2.83,0,0,1-2.45,1.45q-2.46,0-4.6-2.82a22.61,22.61,0,0,1-2.4.17A6.22,6.22,0,0,1,25.28,92.9Zm63.52,9a3.07,3.07,0,0,0,.65,1.35,2.37,2.37,0,0,0,1.9,1.2,1.47,1.47,0,0,0,1.1-.4,1.35,1.35,0,0,0,.45-1c0-2.17-.68-3.2-2.05-3.1S88.8,100.75,88.8,102Zm6.7-12.37a.24.24,0,0,0-.1.22q0,.15,7.35,4.15c4.51,2.43,7.36,3.79,8.55,4a1.45,1.45,0,0,1,.3.8,1.8,1.8,0,0,1-.4,1,1.66,1.66,0,0,1-1.35.7q-2.1,0-10.85-5.5-8.4-5.25-8.4-5.65Q90.6,87.82,95.5,89.58ZM106.3,94c-.94-.48-2-1-3.1-1.55q-1.38-.69-2.52-1.23A5.4,5.4,0,0,1,99.2,88.5a2.11,2.11,0,0,1,1.45-2,5.16,5.16,0,0,1,3.2-.3q4.61.85,4.6,5.85C108.45,93.2,107.73,93.85,106.3,94ZM80.18,89l-.38-.82q0-3.6,3.75-1.6c2.5,1.37,3.75,3.28,3.75,5.75a1.93,1.93,0,0,1-2,1.8q-2.44,0-4.25-3l-.57-1.32c.33.22.89.67,1.67,1.32l2.15,1.8a1.48,1.48,0,0,0,1.25-.6,1.61,1.61,0,0,0,.3-.9c0-1.3-1-2.28-2.9-3C81.38,87.89,80.44,88.07,80.18,89Zm-.08.45v.18s.08,0,.23.05a3.84,3.84,0,0,1,.72,2.5c0,2-.67,3-2,3a2.28,2.28,0,0,1-.75-.25,3.87,3.87,0,0,1-.9-.65,2,2,0,0,1-.7.45,2.44,2.44,0,0,1-.85.2q-3.55,0-3.55-2.85t4.4-3.4A4.21,4.21,0,0,1,80.1,89.42ZM76.85,92.9a1.85,1.85,0,0,0,.45-1.05c0-1.1-.58-1.58-1.75-1.45a1.71,1.71,0,0,0-1.75,1.85A1.67,1.67,0,0,0,74,93a1.31,1.31,0,0,0,1.3.7A1.9,1.9,0,0,0,76.85,92.9Zm21.8,20.55a3.23,3.23,0,0,0,1.2,1.15.3.3,0,0,0,.15-.25,13.74,13.74,0,0,0-1.3-1ZM87.1,102.7c0-2,1.43-3,4.3-3s4.25,1.1,4.25,3.4c0,1.47-.83,2.2-2.5,2.2a3.1,3.1,0,0,1-1.4-.3,2.63,2.63,0,0,0-.75-.3,3.44,3.44,0,0,0-1,.25,3.9,3.9,0,0,1-1,.25C87.75,105.15,87.1,104.33,87.1,102.7Zm16.13,10.38a2.63,2.63,0,0,1-.58.07q-2.15,0-4.1-3.75A11.73,11.73,0,0,1,97,105.5q0-5.2,3.7-.2a48.1,48.1,0,0,1,3.65,6.1,1.79,1.79,0,0,1-.17.75c-.66-1-1.22-1.84-1.68-2.5q-2.2-3.15-3.9-3.25a1.48,1.48,0,0,0-.1.45s.82,1.2,2.45,3.5A23,23,0,0,0,103.23,113.08Zm-5.48.17c0-1.43.68-1.87,2-1.3s2,1.28,2,2.15a1.6,1.6,0,0,1-.35,1,1.52,1.52,0,0,1-1.25.55,2.29,2.29,0,0,1-2.1-1.2ZM64.23,105.8l-.08-.15c-.07.17-.13.35-.2.52s-.12.32-.17.48q-3.44,9-4.33,12l.2.1q4.7-10.35,4.7-12.1v-.25A3,3,0,0,0,64.23,105.8ZM55.9,100a.92.92,0,0,1-.25,0q-1.76,2.59-4.45,6.95-3.11,5-3.1,5.55c0,.2,0,.32.1.35a.42.42,0,0,0,.25,0l.45-.2c1.33-2.1,2.57-4.07,3.7-5.9,2.27-3.63,3.4-5.77,3.4-6.4C56,100.1,56,100,55.9,100Zm-.82,16.52q1.85-3,4.37-7.67l1.23-2.27c.6-1.14,1-2,1.25-2.45a1.76,1.76,0,0,0,1.12.42,1.1,1.1,0,0,0,.4-.08,2.59,2.59,0,0,0,1.35-1.27,4.12,4.12,0,0,0,.65-1.75q0-2.3-3.05-4.35-2.49-1.68-2.95.15a4.11,4.11,0,0,0-.1,1,1.31,1.31,0,0,0,.15.42q.06.15.15.33a2.66,2.66,0,0,1,.25.8s.25.83.75,2.4c.11.25.22.48.33.7a4.72,4.72,0,0,0,.6.87c-.35.54-.83,1.39-1.46,2.56-.39.7-.83,1.52-1.32,2.47-1.51,2.89-2.77,5.46-3.8,7.7a1,1,0,0,1-.65-.55,1.54,1.54,0,0,1-.15-.7q0-2,4.92-9.67a7.09,7.09,0,0,1-1.47-2.23c-.12-.44-.23-.84-.32-1.2q-7,11.15-8.48,11.15a1,1,0,0,1-1-.6,1.71,1.71,0,0,1-.1-.65,113.79,113.79,0,0,1,6-9.85A37.38,37.38,0,0,1,56.83,98a5.2,5.2,0,0,1,1.47-3,3.5,3.5,0,0,1,3.45-.8,5.82,5.82,0,0,1,3.45,2.3,7.41,7.41,0,0,1,1.6,4.7,9,9,0,0,1-.45,3.25,1.75,1.75,0,0,1,.05.45q-5.4,14.3-6.55,14.3a1,1,0,0,1-1-.5,1.33,1.33,0,0,1-.15-.6q0-4,3.85-9.9c.35-.54.68-1,1-1.45a6.81,6.81,0,0,1-1.23.1l-.42,0c-1,1.52-1.64,2.48-1.88,2.87s-.82,1.6-1.85,3.8c-1.07,2-2,3-2.75,3A2.13,2.13,0,0,1,55.08,116.47Zm16.07-5.72a2.26,2.26,0,0,1-2,1.5,4.32,4.32,0,0,1-3-1.3c-.77-.73-1.15-1.33-1.15-1.8,0-1.63,1.12-2.62,3.35-3s3.35.45,3.35,2.45A4.64,4.64,0,0,1,71.15,110.75Zm-2.9-.5a2.81,2.81,0,0,0,1.6-.4,1.4,1.4,0,0,0,.65-1.2c0-.93-.63-1.48-1.9-1.65s-1.95.42-1.95,1.65a1.71,1.71,0,0,0,.25.85A1.47,1.47,0,0,0,68.25,110.25Z"/><path class="cls-3" d="M60.85,69.62c-.38-.5-.92-1.16-1.6-2A2.33,2.33,0,0,1,58.7,66,4.27,4.27,0,0,1,61,61.9a6.94,6.94,0,0,1,5-.4,10,10,0,0,1,5,2.85,8.75,8.75,0,0,1,1.43,2,9.65,9.65,0,0,1,5.27-.95c1.47.07,2.33.3,2.6.7a1.36,1.36,0,0,0,1.2.5q3.49,0,4,2.3a5.93,5.93,0,0,1-.17,2.45l1.52.9.1,0a13.61,13.61,0,0,1,4.58.93q1.56.22,3.57.45l10.15,1.1,6.5,0a58.63,58.63,0,0,0,6.3.55q.26,0,6.55-.5c4.23-.37,7.22-.55,8.95-.55a55.44,55.44,0,0,1,12.7,1.6c4.17,1,6.25,1.73,6.25,2.3s-2.17,1.07-6.5,1.4A121.8,121.8,0,0,0,133.25,81l-14,0-.7-.15-10.1-.05a12.19,12.19,0,0,1-2.5-.2L93.2,80.6l-.77.12A95.28,95.28,0,0,1,102.9,85.5c1,.53,2,1,2.93,1.58q-2.19-1-5.43-2.48A77.11,77.11,0,0,0,91.15,81l-.07-.08-.15,0a4.59,4.59,0,0,0-2.23-.25l1,.38-3,.22-4.6.3a15.41,15.41,0,0,1-3.37-.3q-1.44,1.6-3.93,3.9-5.53,5.14-8.45,5.77-1.55,4.86-5.9,15.28-6.34,15.15-8.75,19.25c-.4-.37-.6-.58-.6-.65v0q3.21-7.17,8.5-20.48,4-10,5.07-13.33a7.61,7.61,0,0,0,.43-1.52.17.17,0,0,0,0-.12.27.27,0,0,0-.15-.08l-.75,1.67a12,12,0,0,1-7.3-3.47q-3-2.85-2.95-5.1a4.23,4.23,0,0,1,.13-1h-.73q-1.76,0-10.5-.75a102.56,102.56,0,0,0-14.3-.2h-7.2c-1.13-.1-1.7-.48-1.7-1.15a1,1,0,0,1,.8-1c.21.64,3.57,1.09,10.1,1.35h9a7.34,7.34,0,0,1,1.65-.1l2.55,0,.3-.05,3.3,0a13.73,13.73,0,0,1,2.6-.15,7.93,7.93,0,0,1,1.45.15c.33,0,.5-.08.5-.35s-.38-.38-1.15-.45l-8-.4L30,78.15c-.48,0-1.2,0-2.17-.1H29.2q3.3-.19,9.45-.3,3,0,10.1.55c2.31.16,4.33.35,6.08.55A35.2,35.2,0,0,1,56.5,75.6c1.8-3.15,3.34-5,4.6-5.52a8.84,8.84,0,0,0,.7,1q-3,.9-3.5,2.55a17.25,17.25,0,0,0-.45,2.5,14.34,14.34,0,0,1-1.7,2.2,6.49,6.49,0,0,0-.37.6,4.79,4.79,0,0,0-.58,2.3v.08a4.57,4.57,0,0,0,.35,1.37,7.74,7.74,0,0,1,.3,1,3.1,3.1,0,0,1-.3.7c0,.53.87,1.37,2.6,2.5a9.86,9.86,0,0,0,5.3,1.9,7.38,7.38,0,0,0,2-.38c.48-.14,1-.34,1.62-.57l1.4-.6a.56.56,0,0,1,.55.3c.07.17.23.25.5.25l3.75-4.5.15,0A17.4,17.4,0,0,0,75.7,81.7a16.75,16.75,0,0,1,1.58-1,7.13,7.13,0,0,1,2.22-.92l28.25.25c3.67-.17,6.63-.33,8.9-.5l29.4-.9a7,7,0,0,1,1.6.3,2,2,0,0,0,1.85-.65q-.19-.25-4.05-.45c-2.77-.1-4.4-.18-4.9-.25H134.9a13.78,13.78,0,0,0-2.05-.1l-11-.15-.85-.1H117.4a33.77,33.77,0,0,1-3.55-.3H110.3l-.55-.1H106.9c-5-.43-9.05-.77-12.1-1l-2.15-.2q-8.7-.85-8.7-3a3.85,3.85,0,0,1,.25-1.15l.18-.55a2,2,0,0,0,.07-.45c0-.8-.55-1-1.65-.7l-.27.13-.08,0-.12-.15a4.39,4.39,0,0,0-.88-.55c-.35-.14-.62-.26-.8-.35a1.71,1.71,0,0,1-.35-.15c-.13-.37-.27-.7-.4-1-.27-.6-.55-.9-.85-.9a14.36,14.36,0,0,1-2.85,1.3,15.69,15.69,0,0,0-2.55.8l-.5.2Q72,69.5,72,69.5a3,3,0,0,1-2.22-1.28A7.46,7.46,0,0,1,68.8,67c-.93-1.87-1.53-3-1.8-3.4-1.27-1.9-2.78-2.25-4.55-1-1.57,1.07-2.35,2.12-2.35,3.15a11.79,11.79,0,0,0,.25,2.7A6.84,6.84,0,0,0,60.85,69.62Zm49.33,20c1.38.88,2.68,1.74,3.87,2.6a.53.53,0,0,1-.6.6,3.47,3.47,0,0,1-.8-.15,2.81,2.81,0,0,0-.8-.2q-2.89,0-12.2-5.85-4.29-2.7-6.47-4.2,6.66,2.8,16.57,7.45A.41.41,0,0,0,110.18,89.65ZM60.28,50.8Q59.13,47,58.5,45.15a53,53,0,0,0-2.25-5.7l-.1,0c-.07,0-.1,0-.1.15q2.41,9.16,3.5,11.1c-1-.46-1.87-2.25-2.7-5.4L55.75,40q0-3.26,2.55,2.75t2.55,7.3a.77.77,0,0,1-.3.6A.91.91,0,0,1,60.28,50.8Zm67.12,8.6a1,1,0,0,0-1-.1c-.53.17-.82.25-.85.25q-1.69,0-17.15,5T93,70.25c0,.43.47.65,1.4.65q.45,0,17.6-5.55Q126.7,60.9,127.4,59.4Zm2.2-.55q0,.49-16.95,6.95-17.55,6.7-21.1,6.7c-1,0-1.55-.28-1.55-.85s3.07-1.77,9.2-4q7.2-2.66,11.55-4,3.6-1.15,9.3-3a67.31,67.31,0,0,1,9.45-2.2A1.48,1.48,0,0,0,129.6,58.85Zm-10.15,46.07a7.22,7.22,0,0,1,3.15,1.38c2.47,1.57,3.7,2.48,3.7,2.75a1.64,1.64,0,0,1,0,.23c-.68-.53-1.88-1.36-3.58-2.48A21.46,21.46,0,0,0,119.45,104.92ZM88,118c-.3-.91-.73-2-1.3-3.35-.77-1.83-1.32-3.17-1.65-4-.87-2.43-1.5-4.17-1.9-5.2-.56-1.47-.9-1.8-1-1l-.4-1.37q0-3.35,3.25,3.65t3.2,10.7c0,.33,0,.47,0,.4S88.1,117.92,88,118Zm37.55-8.17-.5,0a6.51,6.51,0,0,1-4.65-2,5.33,5.33,0,0,1-1.52-2c-.59-.07-.93-.1-1-.1q-1.3,0-14.8-8.7Q93,90.49,90.53,88.6c.69.32,1.58.68,2.65,1.1q.36,1,5.27,4Q101.1,95.4,104,97q12.5,7.25,13,7.25.26,0,.3-.3-3.85-2.65-13.8-8.65-5.82-3.51-8.35-4.88l2.3.83,4.8,1.65q8.16,5.17,17.18,12c-.29-.1-.43-.09-.43,0a.5.5,0,0,0,0,.15,7.4,7.4,0,0,0,.78.75c.5.43,1.24,1,2.22,1.75A18.14,18.14,0,0,0,125.55,109.78ZM89.7,87.8q.09-2.46,9.88,3.45l-1.33-.45Q91.89,88.61,89.7,87.8ZM39.48,96.17q-3.55,2.47-8.73,6.38Q21.9,109.2,21.9,110v.2c0,.1.15.15.35.15q2,0,20.53-15.93,1-.49,1.92-.87s0,.07.1.1a1.13,1.13,0,0,1,.05.4q0,.7-11.8,9.4-12,8.89-14,8.9c-.6,0-.9-.32-.9-.95s3.33-3.1,10-7.8Q34.77,98.89,39.48,96.17ZM55.1,30a.88.88,0,0,0-.05.35q5.75,15.94,6.7,15.95c.17,0,.27,0,.3-.1L62.1,46q0-1.61-3.5-9.6l-.2-.45c.16.35.33.71.5,1.1q4.4,9.9,4.4,11a1.08,1.08,0,0,1-.3.7,1,1,0,0,1-.75.35q-1.45,0-4.75-9.1-3-9-3-8.95C54.5,30.05,54.7,29.71,55.1,30ZM45.25,69.5q-3.3,0-23.2-5Q.9,59.1.9,57q0-.9,5.3.8,2.7.86,6,2,1.9.64,10.75,2.35,23.21,4.25,23.2,6.55C46,69.22,45.75,69.5,45.25,69.5Zm61.1-21.45,0-.25a48.85,48.85,0,0,0-9.65,5.05,90.16,90.16,0,0,0-7.2,5.45l.1.05Q106.35,48.35,106.35,48.05ZM80.2,70.15c.12.1.26.2.4.3h-.1S80.37,70.35,80.2,70.15ZM103.78,55.9q-2.28.87-2.28,1.35l0,.25a.47.47,0,0,0,.45.2l6.45-3.1a12.79,12.79,0,0,1,4.8-.35q-.7,1.16-5.25,3a20.89,20.89,0,0,1-5.75,1.65c-1.07,0-1.6-.33-1.6-1S101.69,56.61,103.78,55.9ZM89,58q0-.6,9.2-6.75t9.2-3.8Q91.6,59,89.85,59C89.25,59,89,58.63,89,58Zm-53.5,9a15.93,15.93,0,0,1,2.25.4A22.51,22.51,0,0,0,40,67.7a2.84,2.84,0,0,0,1-.2v-.1q-9-2.7-23.3-6.15-14.1-3.45-14.1-3,0,.8,15.9,4.85Q27.45,65.1,35.45,67Zm32.3,29.83q2.35-5.43,2.35-2.33,0,1.24-3.9,12.45-4.2,12-6.55,16.3l-.55-.55a19.25,19.25,0,0,1,.9-4.15q1.77-4.16,4.2-11Q67.25,98.95,67.75,96.78Zm9.3,6.82c.13.22.27.45.4.7a20.15,20.15,0,0,1,2.6,9.55A7.63,7.63,0,0,0,80.2,115q-1.29-4.86-2-7.42C77.82,106.09,77.43,104.78,77.05,103.6Zm-.9-1.52c.16.63.34,1.3.55,2,.23.87.6,2.13,1.1,3.8l1,3.9a18.2,18.2,0,0,0,1.5,3.85l.08-.1c0,.24.1.51.17.8a1.1,1.1,0,0,1-.2.6.77.77,0,0,1-.65.35q-.34,0-4.85-15.85Q74.8,100,76.15,102.08Z"/><path class="cls-4" d="M93.18,82.45c-1.27-.53-2.45-1-3.53-1.42l-1-.38a4.59,4.59,0,0,1,2.23.25l.22,0a77.11,77.11,0,0,1,9.25,3.65q3.24,1.45,5.43,2.48,4.36,2.07,4.37,2.37a1,1,0,0,1,0,.2.41.41,0,0,1-.43.25Q99.85,85.27,93.18,82.45ZM51.05,124.78l-.3.67-.15,0c-.07,0-.1,0-.1-.2q0-2,6.2-16.9,3.69-9,7.4-17.48l.75-1.67a.27.27,0,0,1,.15.08.17.17,0,0,1,0,.12A7.61,7.61,0,0,1,64.62,91q-1.1,3.28-5.07,13.33Q54.26,117.62,51.05,124.78Zm9.23-74c0,.09,0,.17.07.25a.33.33,0,0,1-.3.2c-.13,0-.3-.17-.5-.5q-1.09-1.94-3.5-11.1c0-.1,0-.15.1-.15l.1,0a53,53,0,0,1,2.25,5.7Q59.13,47,60.28,50.8ZM27.78,78.05c1,.07,1.69.1,2.17.1l12.7-.05,8,.4c.77.07,1.15.22,1.15.45s-.17.38-.5.35a7.93,7.93,0,0,0-1.45-.15,13.73,13.73,0,0,0-2.6.15l-3.3,0-.3.05-2.55,0a7.34,7.34,0,0,0-1.65.1h-9c-6.53-.26-9.89-.71-10.1-1.35v0c0-.43.93-.58,2.8-.45S26.6,78,27.78,78.05ZM127.4,59.4q-.7,1.5-15.4,5.95Q94.85,70.9,94.4,70.9c-.93,0-1.4-.22-1.4-.65S98.15,68,108.45,64.6s16-5,17.15-5c0,0,.32-.08.85-.25A1,1,0,0,1,127.4,59.4ZM60.85,69.62a6.84,6.84,0,0,1-.5-1.27,11.79,11.79,0,0,1-.25-2.7c0-1,.78-2.08,2.35-3.15,1.77-1.2,3.28-.85,4.55,1,.27.4.87,1.53,1.8,3.4a7.46,7.46,0,0,0,.93,1.27A3,3,0,0,0,72,69.5s.43-.15,1.2-.45l.5-.2a15.69,15.69,0,0,1,2.55-.8,14.36,14.36,0,0,0,2.85-1.3c.3,0,.58.3.85.9.13.3.27.63.4,1a1.71,1.71,0,0,0,.35.15c.18.09.45.21.8.35a4.39,4.39,0,0,1,.88.55l.12.15.08,0,.27-.13c1.1-.33,1.65-.1,1.65.7a2,2,0,0,1-.07.45l-.18.55A3.85,3.85,0,0,0,84,72.55q0,2.15,8.7,3l2.15.2c3,.28,7.08.62,12.1,1h2.85l.55.1h3.55a33.77,33.77,0,0,0,3.55.3H121l.85.1,11,.15a13.78,13.78,0,0,1,2.05.1h5.65c.5.07,2.13.15,4.9.25q3.86.2,4.05.45a2,2,0,0,1-1.85.65,7,7,0,0,0-1.6-.3l-29.4.9c-2.27.17-5.23.33-8.9.5L79.5,79.75a7.13,7.13,0,0,0-2.22.92,16.75,16.75,0,0,0-1.58,1,17.4,17.4,0,0,1-2.25,1.65l-.15,0-3.75,4.5c-.27,0-.43-.08-.5-.25a.56.56,0,0,0-.55-.3l-1.4.6c-.59.23-1.14.43-1.62.57a7.38,7.38,0,0,1-2,.38,9.86,9.86,0,0,1-5.3-1.9c-1.73-1.13-2.6-2-2.6-2.5a3.1,3.1,0,0,0,.3-.7,7.74,7.74,0,0,0-.3-1,4.57,4.57,0,0,1-.35-1.37v-.08a4.79,4.79,0,0,1,.58-2.3,6.49,6.49,0,0,1,.37-.6,14.34,14.34,0,0,0,1.7-2.2,17.25,17.25,0,0,1,.45-2.5q.5-1.65,3.5-2.55a8.84,8.84,0,0,1-.7-1A4.09,4.09,0,0,1,60.85,69.62ZM88,118c.08.21.14.41.2.6a.19.19,0,0,1-.2.15c-1,0-2.23-2.23-3.8-6.7q-2.1-6.7-2.1-6.75a6,6,0,0,1,.05-.83c.1-.82.44-.49,1,1,.4,1,1,2.77,1.9,5.2.33.83.88,2.17,1.65,4C87.27,115.93,87.7,117,88,118Zm31.45-13a21.46,21.46,0,0,1,3.25,1.88c1.7,1.12,2.9,2,3.58,2.48a4.54,4.54,0,0,1,.52.47c-.07.17-.15.25-.25.25a3.19,3.19,0,0,1-1-.22A18.14,18.14,0,0,1,122,107.6c-1-.74-1.72-1.32-2.22-1.75a7.4,7.4,0,0,1-.78-.75.5.5,0,0,1,0-.15c0-.14.14-.15.43,0ZM90.53,88.6c-1.32-.6-2-1-2-1.25a10,10,0,0,0,1.15.45q2.19.81,8.55,3l1.33.45,9.17,3.2q0,.3-.3.3a29.83,29.83,0,0,1-5.5-1.6l-.75-.25-4.8-1.65-2.3-.83q2.54,1.38,8.35,4.88,9.94,6,13.8,8.65,0,.3-.3.3-.45,0-13-7.25-2.9-1.6-5.55-3.25-4.9-3.06-5.27-4C92.11,89.28,91.22,88.92,90.53,88.6ZM39.48,96.17c1.57-1.08,2.92-2,4-2.62a1.08,1.08,0,0,0,0,.2l-.77.67q-18.57,15.93-20.53,15.93c-.2,0-.32,0-.35-.15V110q0-.8,8.85-7.45Q35.93,98.65,39.48,96.17ZM58.4,35.9l.2.45q3.49,8,3.5,9.6l-.05.25c0,.07-.13.1-.3.1q-.95,0-6.7-15.95A.88.88,0,0,1,55.1,30q.59.06,2.68,4.52ZM80.2,70.15q.26.3.3.3h.1C80.46,70.35,80.32,70.25,80.2,70.15Zm26.15-22.1q0,.3-16.8,10.3l-.1-.05a90.16,90.16,0,0,1,7.2-5.45,48.85,48.85,0,0,1,9.65-5.05Zm2.1,6.55L102,57.7a.47.47,0,0,1-.45-.2l0-.25q0-.48,2.28-1.35c.4-.16.86-.33,1.37-.5a21.78,21.78,0,0,1,4-1.15ZM35.45,67q-8-1.85-16-3.85Q3.6,59.05,3.6,58.25q0-.45,14.1,3Q32,64.7,41,67.4v.1a2.84,2.84,0,0,1-1,.2,22.51,22.51,0,0,1-2.25-.35A15.93,15.93,0,0,0,35.45,67ZM60,118.5c-.71,1.68-1.34,3-1.9,4,0,.07-.05,0-.05-.15q0-.8,3.65-11,3.85-10.8,6-15.5c.1.07.15.13.15.2a3.16,3.16,0,0,1-.1.63q-.51,2.16-3.55,10.72Q61.77,114.34,60,118.5Zm20.33-3-.08.1a18.2,18.2,0,0,1-1.5-3.85l-1-3.9c-.5-1.67-.87-2.93-1.1-3.8-.21-.72-.39-1.39-.55-2s-.31-1.46-.4-2.08a37.68,37.68,0,0,1,1.3,3.6c.38,1.18.77,2.49,1.15,4q.7,2.57,2,7.42l.15.53Z"/><path class="cls-3" d="M103.23,74.8,113,72q11.89-2.9,11.9.2,0,2.75-20.7,6.85-2.43.5-5.72,1.08-8,1.45-21.18,3.52l-.85-.3s-.05-.15-.05-.55a.64.64,0,0,1,0-.2,1.85,1.85,0,0,1-.78.5,6.77,6.77,0,0,1-2,.32,2.67,2.67,0,0,0-.55-1.22,3.69,3.69,0,0,1-.55-.85,2.74,2.74,0,0,1,.4-1V77.5a2.86,2.86,0,0,0,.45-1.15,1.08,1.08,0,0,0-.3-.7,2.23,2.23,0,0,1-.5-.8,2.1,2.1,0,0,0-.2-.48c.36-.57,1-1.68,1.8-3.32,0-.33-.13-.5-.4-.5a2.24,2.24,0,0,0-1.6.85l-.85,1.15a.54.54,0,0,0-.4-.15,2.08,2.08,0,0,0-1,.25,4.14,4.14,0,0,0-.1-1.15q-.34-.75-1.65-.75a5.07,5.07,0,0,0-2.9.6,3.69,3.69,0,0,1-.9.9q-1-2.81-2.5-2a2.43,2.43,0,0,0-1.3,2.25,2.57,2.57,0,0,0,.45,1.4,3.16,3.16,0,0,0,1.65,1.2h1.65a1.46,1.46,0,0,1,.8-.2s.13.13.3.4l0,.1-.1.1a2.35,2.35,0,0,0-.8,1.65v.22a6.18,6.18,0,0,1-3.45-2.62A5.3,5.3,0,0,1,60,71.9q0-3.34,5.08-3.4L65,68.35A2.32,2.32,0,0,1,64.5,67a10.51,10.51,0,0,1,.12-1.7,2.67,2.67,0,0,1-.32-1.25c0-1.73.43-2.77,1.3-3.1s1.73,0,2.9.95a10.89,10.89,0,0,1,3.7,4.55.53.53,0,0,0-.5-.25c-.4,0-.65.08-.75.25s-.1.23-.1.5c0,.67.23,1,.7,1s.8-.23.8-.7a2.6,2.6,0,0,0,0-.5,9.58,9.58,0,0,1,.57,2.9l0,.1a.28.28,0,0,0,.15.15s.45-.32,1.25-1a3.3,3.3,0,0,1,1.9-.85,4.19,4.19,0,0,1,3.15,1.05,2.21,2.21,0,0,1,.7,1.5,4.36,4.36,0,0,1-2.25,3.55,20,20,0,0,0-2.3,1.7,28.68,28.68,0,0,0,1.3,5.1,3,3,0,0,1-.1.83A1.67,1.67,0,0,1,77,81.6c-.09-.5-.13-.77-.13-.8q0-2.85,10.3-6.85,5-2,11.38-4.25l.52-.2a64.91,64.91,0,0,0-3.75-6.3l-1.8-2.7q0-3.45,5.35-2.15,2.85.75,7.65,2.15a4.34,4.34,0,0,0,1.1-.25,3.86,3.86,0,0,1,1.05-.25,1.69,1.69,0,0,1,1.7,1.1,2.79,2.79,0,0,1,.15,1.15,1.85,1.85,0,0,1-.45,1q-.64.71-1,1.2l2.8,0,5.1-.7a7.53,7.53,0,0,1,4,.75l4.8-1.4q29.89-8.6,29.9-5.45,0,1.88-48.65,15.4,10.77-3.78,27.85-8.8,16-4.75,16-5.4t-9.4,1.5Q131.9,63,131.55,63q-5,1.75-8.7,2.7l-1.37.35a55.06,55.06,0,0,1-10,1.4c-.72,0-1.43,0-2.13,0a18.25,18.25,0,0,0-3.45-.3,5,5,0,0,1-.4-1.7,3.58,3.58,0,0,1,2-2.85c.67-.43,1.32-.87,1.95-1.3a1.63,1.63,0,0,1,0-.35h-4.6l-.2,0h-4.15a13.92,13.92,0,0,0-4.7-.95c-.5,0-.75.17-.75.5q0,.8,3.4,2.75t3.35,3.7a6,6,0,0,1-1.8,4c-.17.18-.36.36-.55.55a20.83,20.83,0,0,1-3.42,2.6,47.21,47.21,0,0,1-5.53,2.9l-1.6.6Q79,81.27,79,81.45v.25h4.35l.73-.1q9.18-1.38,14.15-2.18c2.47-.38,4.16-.65,5.07-.82q14.25-2.55,14.25-4.25c0-.13,0-.2,0-.2l0,0-.35-.15h-5.65c-.77.17-1.48.3-2.15.4A51,51,0,0,1,103.23,74.8ZM114,3.3l-.15,0q-12.64,16.61-21.2,29.6-6.9,10.44-12,19.75-2.83,5.15-5.13,9.95l.1.3a.85.85,0,0,0,.4.1q.35,0,3.5-4.65c1.06-1.58,1.93-2.88,2.63-3.9,1.17-1.75,1.82-2.7,1.92-2.85q4.32-6,7.1-9.53c.26-.33.51-.65.75-.94.36-.45.69-.86,1-1.23l.1,0a21.1,21.1,0,0,1-.85,2.2,5.1,5.1,0,0,0-.5,2.1.75.75,0,0,0,.1.35c.06.07.12.16.2.25q1.53-3.12,4.8-9.2t8.5-15.55Q113.95,4.25,114,3.6ZM83.8,53.58Q76.06,65.4,74.25,65.4a1.1,1.1,0,0,1-1.15-.65,3.45,3.45,0,0,1,0-.75q0-1.64,6.07-11.83c.78-1.31,1.64-2.74,2.58-4.27s4.57-7.28,11.1-17.65q6.2-9.9,11.1-16.9c.77-1.1,1.63-2.5,2.6-4.2.28-.5.61-1.13,1-1.88q1.36-1.24,2.7-2.52c1.65-1.57,3.29-3.16,4.92-4.75.46.35.68,1.15.68,2.4q0,1.2-9,17.65Q99,34,94.05,41.9l-2,4.75q-.7,0-.9-1.8C91,43.65,91,43,91,43a5.13,5.13,0,0,1,0-.65q-3.8,6-6.45,10ZM46.9,73,45.35,71.9Q30,60.61,23,53.5,0,28.49,0,24.7q0-4.65,5.2-.25,3,2.44,9.1,8.6,5.5,4.2,8.7,6.25a46.27,46.27,0,0,0,10.75,5.3Q32,41.5,32,40.3a1.88,1.88,0,0,1,2.1-2.15q6.85,0,16.75,4.7,8.4,3.94,10,7.45a6.52,6.52,0,0,1,1.65-.75l.63-.15a7.18,7.18,0,0,1-.58-1.8l-.3-3.15q0-5.25,3-4.7c2,.37,3,2.43,3,6.2a9.38,9.38,0,0,1-.25,2.7,2.8,2.8,0,0,1-1.85,1.9,5.81,5.81,0,0,1,1.25,4c0,.15,0,.31,0,.47a10,10,0,0,1-1.13,3.58,8.53,8.53,0,0,1-.6,1,1.09,1.09,0,0,1-.13.17,3.67,3.67,0,0,1-3,1.78,8.46,8.46,0,0,1-4.1-.7,2,2,0,0,1-.9-1.8c0-.47,0-.92,0-1.35A14.17,14.17,0,0,1,58.3,54c-.85-.22-2.41-.67-4.7-1.35A36,36,0,0,0,43,51.05l-1.9.05q6.13,7.82,10.58,13.52,11.67,15,11.67,15.53a2.28,2.28,0,0,1-.5,1.5,2.11,2.11,0,0,1-1.7.7Q59.74,82.35,46.9,73Zm43.35-13-3.5,2.55a1.07,1.07,0,0,1-1.1-.55,2.45,2.45,0,0,1-.05-.6c0-.45.79-1.35,2.38-2.73s4.09-3.26,7.37-5.62q9-6.49,11.05-7.45h1.25a9,9,0,0,0,.1,1Q107.75,47.25,90.25,60.05Zm-23-14.25a9.92,9.92,0,0,1-.6-1.45,6.46,6.46,0,0,0-.15-1.45c-.2-.83-.62-1.25-1.25-1.25a.5.5,0,0,0-.55.4,1.83,1.83,0,0,0,0,.4c0,.67.07,1.7.2,3.1a33.8,33.8,0,0,1-.27,3.92.61.61,0,0,0,0,.13v.2c0,.1.15.15.35.15a1.31,1.31,0,0,0,.5-.1,6.28,6.28,0,0,0,2.35-2.75A6.07,6.07,0,0,0,67.25,45.8ZM47,65.6q-3.61-5.29-5.92-8.77a13.31,13.31,0,0,1-1.63-5.73,2.09,2.09,0,0,1,1.15-2c1.37-.8,4-1.2,8-1.2,1.27,0,3.33.65,6.2,1.95q4,1.8,4.53,2h.42c.07,0,.1-.13.1-.3a.45.45,0,0,0-.1-.25,7.23,7.23,0,0,0-1.55-1.6l-1.85-1.6a5.44,5.44,0,0,0-4-2.3,16.24,16.24,0,0,1-3.25-.25c-1.9-.57-4.78-1.58-8.65-3q-5.2-2.05-5.25-2a.4.4,0,0,0-.3.1,0,0,0,0,1-.05.05,4,4,0,0,0,.8,1.7,2.42,2.42,0,0,1,.6,1.35,1.47,1.47,0,0,1-.5.75,2.91,2.91,0,0,1-2.15.75q-2.1,0-9.65-4a94.15,94.15,0,0,1-10.65-6.45A78.07,78.07,0,0,1,2.05,24.1c-.2,0-.3.17-.3.4q25.31,27.41,26,28Q37,62.1,45,69.4c.87.8,1.69,1.55,2.48,2.25Q56.89,80.1,59.1,80.1c.17,0,.27,0,.3-.1a2.16,2.16,0,0,1,.1-.25Q54.27,74.13,50.65,70q-2-2.31-3.5-4.17a.36.36,0,0,1-.07-.1ZM60.3,54.2C59.4,55,59,55.55,59,55.75A7.4,7.4,0,0,0,60,57c.24.26.53.55.85.88,1.33,1.37,2.18,2,2.55,2,.17,0,.27-.07.3-.2v-.3a1.84,1.84,0,0,0,.8-.95,1.94,1.94,0,0,0,.15-.7,12.54,12.54,0,0,1-.05-1.85c.3-2.17.45-3.43.45-3.8s-.13-.7-.3-.7a.4.4,0,0,0-.25.15,1.07,1.07,0,0,0-.3-.5c-.1-.07-.32.07-.65.4a11.94,11.94,0,0,0-1.8,1.45A14.1,14.1,0,0,0,60.3,54.2Zm4.75,10.65A4.76,4.76,0,0,0,65.18,66a3.49,3.49,0,0,0,.52,1.28,2.47,2.47,0,0,0,2.08,1.1h.12a1.37,1.37,0,0,0,1-.35.76.76,0,0,0,.25-.55c0-.2-.33-.47-1-.8a1.41,1.41,0,0,1-1-1.3,8.13,8.13,0,0,0-.05-1.25,1.09,1.09,0,0,0-.65-.9,1.12,1.12,0,0,0-.5-.1c-.24,0-.44.17-.6.5,0,.09-.07.19-.1.3A2.9,2.9,0,0,0,65.05,64.85Zm6.75,19c-.13.22-.26.44-.4.65A2.64,2.64,0,0,1,69,85.6q-3.19,0-4.35-1.75a3.62,3.62,0,0,1-.5-1.95c0-.2.12-.93.35-2.2.1-.59.18-1.08.25-1.45A5.52,5.52,0,0,0,65.6,80c.33.47.67.92,1,1.35a6.9,6.9,0,0,1-.75.75,2,2,0,0,0-.75,1.4l.3.6a1.9,1.9,0,0,0,1.55.6c.67,0,1.18-.45,1.55-1.35s.7-1.4.9-1.4c0,0,.52.4,1.45,1.2A8,8,0,0,0,71.8,83.85Zm-3.45-14.7.2.1-.1-.13Zm37.3-23.05-.05,0q-3,1.8-10.45,7.25a83.32,83.32,0,0,0-7.22,5.68c-.25.23-.38.39-.38.47a.54.54,0,0,0,0,.3h.1l0,0s0,0,.08,0a.4.4,0,0,0,.17,0q17.8-12.2,17.8-13.6A.42.42,0,0,0,105.65,46.1ZM75.9,74.2a3.86,3.86,0,0,0,2.65-1.15,2.85,2.85,0,0,0,1.1-1.75q0-2.4-2.25-1c-1.53,1-2.3,2-2.3,3C75.1,73.9,75.37,74.2,75.9,74.2ZM70.12,98.1q.21,4.66.53,12.2.64,15.26.65,17a2.14,2.14,0,0,1-2,2q-1.31,0-2.1-4.15l-.5-4.1q.15-12.19.15-18.2c0-.1.07-3.2.1-9.32V92.6c0-2.58.4-3.81,1.15-3.7-.09,1.23-.21,2.73-.37,4.5q-.27,3.12-.68,7.35,0,1.8.25,7.1c.17,3.13.28,5.12.35,6q.15,2.1.6,6.45a35.45,35.45,0,0,1,0,3.55,3.85,3.85,0,0,0,1.15,3,1.74,1.74,0,0,0,.35-1.3c0-.8-.12-2.22-.35-4.25-.27-2.43-.4-3.7-.4-3.8l-.2-8.2a36.9,36.9,0,0,1,.4-4.85c.23-1.77.35-2.75.35-2.95a3.75,3.75,0,0,0-.35-1.75,5.77,5.77,0,0,1-.5-2.35c0-.41-.07-.8-.1-1.15v0c-.17-1.76-.25-2.75-.25-3,.21-1.75.34-3,.4-3.85a7,7,0,0,1,1,1.25Q69.83,91.38,70.12,98.1Zm-7.39-7.23Q58.64,96.53,45.1,112.5q-14.46,17.09-24,27.2,4.25-5.52,7-8.85,7-8.75,13.1-15.25,5-5.4,14.95-17.5,2.67-3.25,4.6-5.7c.19-.38.38-.75.58-1.12l2.4-4.81c-1.18,1.25-2.86,3.07-5,5.48L56,94.9q-6,6.6-7.75,6.6s-5.38,7.2-16,21.6q-1.65,2.25-9.3,12.3-5.41,7.31-6.47,9.2l-1.68,1.65-.9-.25a2.21,2.21,0,0,1-.1-.85q12.7-18.8,25.4-35.35Q49.58,96.21,55.7,90.1q8.8-8.76,8.8-2.2A9.94,9.94,0,0,1,62.73,90.87ZM21.8,88.2v0l.75-.1Zm-3.18,1h.63q3.2-.65,14.65-2.75l7-1.3c.6-.13,2.17-.38,4.7-.75a19.79,19.79,0,0,0,2.18-.52c.81-.25,1.22-.49,1.22-.73s-.57-.31-1.7-.55c-.6-.12-1.35-.25-2.25-.4-2.43-.4-3.85-.6-4.25-.6H38.85A30.67,30.67,0,0,0,33.6,83.2l-5,1.8q-1.3.41-5.05,2a24.49,24.49,0,0,1-5.07,1.8,2.06,2.06,0,0,1-.18-.9q0-1.4,6.85-3.75,3.64-1.31,9.7-3.35a26.77,26.77,0,0,1,8.55-1.6,15,15,0,0,1,4.68.28c1.35.36,2,1,2,2S49.39,83.26,48,84.1a37.63,37.63,0,0,1-9.38,3.25A77.5,77.5,0,0,1,20.5,89.9,2.13,2.13,0,0,1,18.62,89.15Z"/><path class="cls-4" d="M107,73.15c-1.63.57-3.14,1.12-4.55,1.65h.83a51,51,0,0,0,6.07-.35c.67-.1,1.38-.23,2.15-.4h5.65l.35.15,0,0s0,.07,0,.2q0,1.7-14.25,4.25c-.91.17-2.6.44-5.07.82q-5,.8-14.15,2.18l-.73.1H79v-.25q0-.18,9.75-3.8l1.6-.6a47.21,47.21,0,0,0,5.53-2.9,20.83,20.83,0,0,0,3.42-2.6c.19-.19.38-.37.55-.55a6,6,0,0,0,1.8-4q0-1.8-3.35-3.7T94.9,60.6c0-.33.25-.5.75-.5a13.92,13.92,0,0,1,4.7.95h4.15l.2,0h4.6a1.63,1.63,0,0,0,0,.35c-.63.43-1.28.87-1.95,1.3a3.58,3.58,0,0,0-2,2.85,5,5,0,0,0,.4,1.7,18.25,18.25,0,0,1,3.45.3c.7,0,1.41,0,2.13,0a55.06,55.06,0,0,0,10-1.4l1.37-.35q3.75-.95,8.7-2.7.34,0,9.9-2.55,9.41-2.25,9.4-1.5t-16,5.4Q117.71,69.36,107,73.15ZM72.2,66.45a1.42,1.42,0,0,1,.13.3,2.6,2.6,0,0,1,0,.5c0,.47-.27.7-.8.7s-.7-.33-.7-1c0-.27,0-.43.1-.5s.35-.25.75-.25A.53.53,0,0,1,72.2,66.45Zm-7.45,11.8a3.91,3.91,0,0,1-.15-.83V77.2a2.35,2.35,0,0,1,.8-1.65l.1-.1,0-.1c-.17-.27-.27-.4-.3-.4a1.46,1.46,0,0,0-.8.2H62.7A3.16,3.16,0,0,1,61.05,74a2.57,2.57,0,0,1-.45-1.4,2.43,2.43,0,0,1,1.3-2.25q1.5-.85,2.5,2a3.69,3.69,0,0,0,.9-.9,5.07,5.07,0,0,1,2.9-.6q1.3,0,1.65.75a4.14,4.14,0,0,1,.1,1.15,2.08,2.08,0,0,1,1-.25.54.54,0,0,1,.4.15l.85-1.15a2.24,2.24,0,0,1,1.6-.85c.27,0,.4.17.4.5-.84,1.64-1.44,2.75-1.8,3.32a2.1,2.1,0,0,1,.2.48,2.23,2.23,0,0,0,.5.8,1.08,1.08,0,0,1,.3.7,2.86,2.86,0,0,1-.45,1.15v2.75a2.74,2.74,0,0,0-.4,1,3.69,3.69,0,0,0,.55.85,2.67,2.67,0,0,1,.55,1.22v.68c-.1.17-.35.25-.75.25a2.09,2.09,0,0,1-1-.45,8,8,0,0,1-1-.75c-.93-.8-1.42-1.2-1.45-1.2-.2,0-.5.47-.9,1.4s-.88,1.35-1.55,1.35a1.9,1.9,0,0,1-1.55-.6l-.3-.6a2,2,0,0,1,.75-1.4,6.9,6.9,0,0,0,.75-.75c-.33-.43-.67-.88-1-1.35A5.52,5.52,0,0,1,64.75,78.25Zm3.3,10.65q.11-1.55.15-2.55h.3a6.39,6.39,0,0,1,.3,2.1c0,.19,0,.47,0,.85-.06.82-.19,2.1-.4,3.85,0,.22.08,1.21.25,3v0c0,.35.06.74.1,1.15a5.77,5.77,0,0,0,.5,2.35,3.75,3.75,0,0,1,.35,1.75c0,.2-.12,1.18-.35,2.95a36.9,36.9,0,0,0-.4,4.85l.2,8.2c0,.1.13,1.37.4,3.8.23,2,.35,3.45.35,4.25a1.74,1.74,0,0,1-.35,1.3,3.85,3.85,0,0,1-1.15-3,35.45,35.45,0,0,0,0-3.55q-.45-4.35-.6-6.45c-.07-.83-.18-2.82-.35-6q-.25-5.3-.25-7.1.41-4.23.68-7.35C67.84,91.63,68,90.13,68.05,88.9ZM114,3.3v.3q0,.65-8.75,16.45Q100,29.38,96.7,35.6t-4.8,9.2c-.08-.09-.14-.18-.2-.25a.75.75,0,0,1-.1-.35,5.1,5.1,0,0,1,.5-2.1A21.1,21.1,0,0,0,93,39.9l-.1,0c-.31.37-.64.78-1,1.23-.24.29-.49.61-.75.94q-2.79,3.54-7.1,9.53c-.1.15-.75,1.1-1.92,2.85-.7,1-1.57,2.32-2.63,3.9Q76.3,63,76,63a.85.85,0,0,1-.4-.1l-.1-.3q2.3-4.8,5.13-9.95,5.13-9.32,12-19.75,8.55-13,21.2-29.6ZM67.25,45.8a6.07,6.07,0,0,1,.5,1.3,6.28,6.28,0,0,1-2.35,2.75,1.31,1.31,0,0,1-.5.1c-.2,0-.32-.05-.35-.15v-.2a.61.61,0,0,1,0-.13,33.8,33.8,0,0,0,.27-3.92c-.13-1.4-.2-2.43-.2-3.1a1.83,1.83,0,0,1,0-.4.5.5,0,0,1,.55-.4c.63,0,1,.42,1.25,1.25a6.46,6.46,0,0,1,.15,1.45A9.92,9.92,0,0,0,67.25,45.8Zm-26.17,11A47.86,47.86,0,0,0,47,65.6l.08.1a.36.36,0,0,0,.07.1q1.5,1.86,3.5,4.17,3.62,4.16,8.85,9.78a2.16,2.16,0,0,0-.1.25c0,.07-.13.1-.3.1q-2.22,0-11.62-8.45C46.69,71,45.87,70.2,45,69.4Q37.05,62.1,27.7,52.5q-.64-.6-25.95-28c0-.23.1-.37.3-.4a78.07,78.07,0,0,0,11.3,10.55A94.15,94.15,0,0,0,24,41.1q7.55,4,9.65,4a2.91,2.91,0,0,0,2.15-.75,1.47,1.47,0,0,0,.5-.75,2.42,2.42,0,0,0-.6-1.35,4,4,0,0,1-.8-1.7,0,0,0,0,0,.05-.05.4.4,0,0,1,.3-.1s1.78.68,5.25,2c3.87,1.47,6.75,2.48,8.65,3a16.24,16.24,0,0,0,3.25.25,5.44,5.44,0,0,1,4,2.3l1.85,1.6a7.23,7.23,0,0,1,1.55,1.6.45.45,0,0,1,.1.25c0,.17,0,.27-.1.3h-.42q-.57-.15-4.53-2C51.93,48.6,49.87,48,48.6,48c-4,0-6.63.4-8,1.2a2.09,2.09,0,0,0-1.15,2A13.31,13.31,0,0,0,41.08,56.83ZM60.3,54.2a14.1,14.1,0,0,1,1.45-1.3,11.94,11.94,0,0,1,1.8-1.45c.33-.33.55-.47.65-.4a1.07,1.07,0,0,1,.3.5.4.4,0,0,1,.25-.15c.17,0,.27.23.3.7s-.15,1.63-.45,3.8a12.54,12.54,0,0,0,.05,1.85,1.94,1.94,0,0,1-.15.7,1.84,1.84,0,0,1-.8.95v.3c0,.13-.13.2-.3.2-.37,0-1.22-.68-2.55-2-.32-.33-.61-.62-.85-.88a7.4,7.4,0,0,1-1-1.22C59,55.55,59.4,55,60.3,54.2Zm4.75,10.65a2.9,2.9,0,0,1,.2-.9c0-.11.07-.21.1-.3.16-.33.36-.5.6-.5a1.12,1.12,0,0,1,.5.1,1.09,1.09,0,0,1,.65.9,8.13,8.13,0,0,1,.05,1.25,1.41,1.41,0,0,0,1,1.3c.67.33,1,.6,1,.8a.76.76,0,0,1-.25.55,1.37,1.37,0,0,1-1,.35h-.12a2.47,2.47,0,0,1-2.08-1.1A3.49,3.49,0,0,1,65.18,66,4.76,4.76,0,0,1,65.05,64.85ZM75.9,74.2c-.53,0-.8-.3-.8-.9,0-1,.77-2,2.3-3s2.25-.65,2.25,1a2.85,2.85,0,0,1-1.1,1.75A3.86,3.86,0,0,1,75.9,74.2Zm29.75-28.1a.42.42,0,0,1,0,.25q0,1.4-17.8,13.6a.4.4,0,0,1-.17,0s-.06,0-.08,0l0,0h-.1a.54.54,0,0,1,0-.3c0-.08.13-.24.38-.47a83.32,83.32,0,0,1,7.22-5.68q7.45-5.44,10.45-7.25Zm-87,43.05h-.47L18,89l.48-.1a24.49,24.49,0,0,0,5.07-1.8q3.75-1.65,5.05-2l5-1.8a30.67,30.67,0,0,1,5.25-1.65H40.8c.4,0,1.82.2,4.25.6.9.15,1.65.28,2.25.4,1.13.24,1.7.42,1.7.55s-.41.48-1.22.73a19.79,19.79,0,0,1-2.18.52c-2.53.37-4.1.62-4.7.75l-7,1.3q-11.44,2.1-14.65,2.75Zm3.18-1,.75-.15-.75.1Zm-5.37,56.4q1-1.9,6.47-9.2,7.65-10.05,9.3-12.3,16-21.6,16-21.6,1.7,0,7.75-6.6l2.68-3c2.19-2.41,3.87-4.23,5-5.48l-2.4,4.81c-.2.37-.39.74-.58,1.12q-1.94,2.44-4.6,5.7-9.94,12.11-14.95,17.5-6.11,6.5-13.1,15.25-2.7,3.33-7,8.85-2.13,2.75-4.65,6.05a.55.55,0,0,1-.35-.55A1.68,1.68,0,0,1,16.43,144.6Z"/><path class="cls-5" d="M90.25,60.05a1.25,1.25,0,0,1,.4-.1,3.1,3.1,0,0,1,3,1.8,4.52,4.52,0,0,1,.5,1.8,7,7,0,0,1-1.6,3.3l-2.2,3-.3.3a18.88,18.88,0,0,0,2.45-.6,16.27,16.27,0,0,1,2.55-.6,7,7,0,0,1,3.48.75Q92.19,71.94,87.15,74q-10.31,4-10.3,6.85s0,.3.13.8a1.67,1.67,0,0,0-.23.23,3,3,0,0,0,.1-.83,28.68,28.68,0,0,1-1.3-5.1,20,20,0,0,1,2.3-1.7,4.36,4.36,0,0,0,2.25-3.55,2.21,2.21,0,0,0-.7-1.5,4.19,4.19,0,0,0-3.15-1.05,3.3,3.3,0,0,0-1.9.85c-.8.63-1.22,1-1.25,1a.28.28,0,0,1-.15-.15l0-.1a9.58,9.58,0,0,0-.57-2.9,1.42,1.42,0,0,0-.13-.3,10.89,10.89,0,0,0-3.7-4.55c-1.17-.9-2.13-1.22-2.9-.95s-1.3,1.37-1.3,3.1a2.67,2.67,0,0,0,.32,1.25A10.51,10.51,0,0,0,64.5,67,2.32,2.32,0,0,0,65,68.35l.13.15Q60,68.56,60,71.9a5.3,5.3,0,0,0,1.15,2.9,6.18,6.18,0,0,0,3.45,2.62,3.91,3.91,0,0,0,.15.83c-.07.37-.15.86-.25,1.45-.23,1.27-.35,2-.35,2.2a3.62,3.62,0,0,0,.5,1.95Q65.81,85.6,69,85.6a2.64,2.64,0,0,0,2.4-1.1c.14-.21.27-.43.4-.65a2.09,2.09,0,0,0,1,.45c.4,0,.65-.08.75-.25v-.68a6.77,6.77,0,0,0,2-.32,1.85,1.85,0,0,0,.78-.5.64.64,0,0,0,0,.2c0,.4,0,.58.05.55l.85.3q13.14-2.05,21.18-3.52a1.11,1.11,0,0,1,0,.17q0,1.65-4,4.75-4.5,3.45-5.75,6.65Q87.9,93.79,82,96.3a26.38,26.38,0,0,1-9.55,2.35,4.52,4.52,0,0,1-2.33-.55q-.28-6.72-.32-7.55a7,7,0,0,0-1-1.25c0-.38,0-.66,0-.85a6.39,6.39,0,0,0-.3-2.1h-.3q0,1-.15,2.55c-.75-.11-1.13,1.12-1.15,3.7v.93l-.65,0a3.39,3.39,0,0,1-2.75-1.2,4.11,4.11,0,0,1-.77-1.48,9.94,9.94,0,0,0,1.77-3q0-6.57-8.8,2.2a5,5,0,0,1-.3-1.2,6.8,6.8,0,0,1,.35-3.45v-.1q-4.95,1.05-7.1-.6A3.45,3.45,0,0,1,48,84.1c1.41-.84,2.12-1.69,2.12-2.55s-.67-1.66-2-2a8.13,8.13,0,0,1,2.27-1.48,5.36,5.36,0,0,1-3-2,4.08,4.08,0,0,1-.55-2.25,5.84,5.84,0,0,1,0-.73q12.84,9.33,14.25,9.33a2.11,2.11,0,0,0,1.7-.7,2.28,2.28,0,0,0,.5-1.5q0-.51-11.67-15.53,1.64-1.77,4.77-.67a11.08,11.08,0,0,1-.2-3.85,3.26,3.26,0,0,1,1.4-2.4c0,.43,0,.88,0,1.35a2,2,0,0,0,.9,1.8,8.46,8.46,0,0,0,4.1.7,3.67,3.67,0,0,0,3-1.78l.13.18V59.6a8.53,8.53,0,0,0,.6-1A10,10,0,0,0,67.48,55a4.35,4.35,0,0,1,3.17-1.17,4.64,4.64,0,0,1,2.35.6,2.71,2.71,0,0,1,1,.8,6.23,6.23,0,0,1,4.1-2.9,5.83,5.83,0,0,1,1.07-.18Q73.06,62.37,73.05,64a3.45,3.45,0,0,0,0,.75,1.1,1.1,0,0,0,1.15.65q1.81,0,9.55-11.82l.45,0q3.8,0,3.9,3.2a9.65,9.65,0,0,1-.17,2C86.39,60.1,85.6,61,85.6,61.45a2.45,2.45,0,0,0,.05.6,1.07,1.07,0,0,0,1.1.55Zm-21.9,9.1.1,0,.1.13Z"/></g></g></svg>