<svg xmlns="http://www.w3.org/2000/svg" viewBox="0 0 156.75 135.72"><defs><style>.cls-1{fill:#ee7500;fill-opacity:0.3;}.cls-1,.cls-2,.cls-3,.cls-4,.cls-5{fill-rule:evenodd;}.cls-2{fill:#fff;fill-opacity:0.7;}.cls-3{fill:#fefefe;}.cls-4,.cls-5{fill:red;}.cls-4{fill-opacity:0.6;}.cls-5{fill-opacity:0.2;}</style></defs><g id="Layer_2" data-name="Layer 2"><g id="Layer_1-2" data-name="Layer 1"><path class="cls-1" d="M131.75,101.92a4.16,4.16,0,0,1-3.4,1.4q-4.95,0-14.2-7.3-8.4-6.6-8.4-7.8c0-2,.88-3,2.65-3l-.45-.6q0-4.5,6.2-1.7a17.7,17.7,0,0,1,4.25,2.6c1.3,1,1.95,1.81,1.95,2.35a2.79,2.79,0,0,1-.85,1.92,101.93,101.93,0,0,1,8.95,6.13c2.8,2.1,4.2,3.26,4.2,3.5A3.78,3.78,0,0,1,131.75,101.92ZM129,99.57c.2,0,.32,0,.35-.1v-.2q-2.4-2.61-10.2-6.6c-1.41-.72-2.64-1.31-3.68-1.78a23.87,23.87,0,0,0-2.62-1c-1-.3-1.55-.25-1.55.15s2.77,2.13,8.3,5.1S128.22,99.57,129,99.57ZM79,41.44a3.88,3.88,0,0,1-.3.48,3.39,3.39,0,0,1-2.9,1.2,4,4,0,0,1-3.6-1.8,4.62,4.62,0,0,1-.68-1.58,3.75,3.75,0,0,1-2.72,1q-3.19,0-4.8-3.9a11.57,11.57,0,0,1-1-4.08c-.08-.1-.15-.21-.23-.32a2.35,2.35,0,0,1-.27.4,2.68,2.68,0,0,1-2.1,1,3.61,3.61,0,0,1-3.6-2.4,7,7,0,0,1-.5-2.7,4.39,4.39,0,0,1,1.1-3.3,2.21,2.21,0,0,1,2.35-.55,4.66,4.66,0,0,1,1.58.82,5.22,5.22,0,0,0,0,.58s0,.58,0,1.65.32,1.6.65,1.6.5-.09.5-.25c0-.88,0-1.57,0-2.08,0-.16,0-.3,0-.42s0-.29,0-.43a2.31,2.31,0,0,1,.4-.47,1.68,1.68,0,0,1,2-.2,4.82,4.82,0,0,1,2.63,3.55q.21.21.42.45a33.79,33.79,0,0,1,4.42,6.45c.65-.74,1.69-.74,3.13,0a11.11,11.11,0,0,1,2.7,2.1A4.32,4.32,0,0,1,79.22,40a11.2,11.2,0,0,0-1.92-1.5c-1.6-.9-2.4-.59-2.4,1a1.78,1.78,0,0,0,.9,1.35,4.76,4.76,0,0,0,2.75.75A1.06,1.06,0,0,0,79,41.44ZM57.5,28.27c0-.2,0-.32-.1-.35a.92.92,0,0,1-.25-.05,1.85,1.85,0,0,0-.6,1.65c0,1.06.13,1.68.4,1.85a.75.75,0,0,0,.35-.25ZM64.75,33a.37.37,0,0,0-.2.05.38.38,0,0,0-.25.4,1.54,1.54,0,0,0,.08.32c.13.44.46,1.28,1,2.53C66.12,38.1,66.65,39,67,39s.52-.09.55-.25c0,.06,0-.07,0-.4a13.21,13.21,0,0,0-1.3-2.8c-.37-.69-.68-1.24-.92-1.65A9.4,9.4,0,0,0,64.75,33Zm21.92,5.12c.32-1,.56-1.88.73-2.57a5.12,5.12,0,0,1,0,.7,2.91,2.91,0,0,1-.7,1.8Zm.16-4a8.88,8.88,0,0,0-.53,2.05,19.65,19.65,0,0,0-.15,2.35v.07a3.19,3.19,0,0,1-2,.63,3,3,0,0,1-2.8-1.5l-.4-1.5c0-2,1.08-3,3.25-3A3.26,3.26,0,0,1,86.83,34.12Zm-33.68,13c0-2.8,1.2-4,3.6-3.55s3.6,1.76,3.6,4a2.74,2.74,0,0,1-.8,1.8,3.53,3.53,0,0,1-2.8,1.2,3.24,3.24,0,0,1-3.1-1.8Zm2,1a3.64,3.64,0,0,0,.1,1.05,1.34,1.34,0,0,0,1.45.9c.73,0,1.37-.55,1.9-1.65a5.08,5.08,0,0,0,.6-2.05c0-.87-.27-1.1-.8-.7q-.9.9-1.2.9a4,4,0,0,0-1.7.2C55.22,46.93,55.1,47.38,55.1,48.12ZM66.45,68.47a8.46,8.46,0,0,1,4.35-1.25,7.47,7.47,0,0,1,4.35.9,3.61,3.61,0,0,1,2,3.3,3.65,3.65,0,0,1-2.9,3.8,21.67,21.67,0,0,1-5.7.5,3.72,3.72,0,0,1-3.6-1.9,4.52,4.52,0,0,1-.5-2.1A3.8,3.8,0,0,1,66.45,68.47Zm-10.1-1.55q-4.05,0-12.4-7.2-7.8-6.75-7.8-8.3,0-8.7,11.65,0a58,58,0,0,1,8,7.2q3.64,3.9,3.65,5a3.23,3.23,0,0,1-.8,2.1A2.86,2.86,0,0,1,56.35,66.92Zm56-16.45q.9,0,4.65-3.5-5.5,2-5.5,2.65a1,1,0,0,0,.1.45A.76.76,0,0,0,112.35,50.47Zm1-6a4.27,4.27,0,0,1,3.25-.5c1,.33,1.5,1.25,1.5,2.75q0,.8-2.9,3.6t-4,2.9A2.37,2.37,0,0,1,109,52a2.71,2.71,0,0,1-.4-1.35Q108.55,46.77,113.3,44.47Zm-6.55,0a2.13,2.13,0,0,1,.3.3,1.63,1.63,0,0,1,.4,1.05c0,.46-.77,1.26-2.3,2.4a7.66,7.66,0,0,1-4,1.75,2,2,0,0,1-2-1.15c-.13-.8-.2-1.24-.2-1.3,0-1,.67-1.82,2-2.55a7.85,7.85,0,0,1,3.8-1l.4,0-.25.13q-3.8,2.15-3.8,3a.6.6,0,0,0,.1.35.55.55,0,0,0,.55.35,25.44,25.44,0,0,0,3.1-2C105.54,45.29,106.18,44.84,106.75,44.42ZM96,70a3.23,3.23,0,0,1-2,.6,4,4,0,0,1-3.4-1.5,2.76,2.76,0,0,1-.7-1.65q0-5.16,3.45-3.15t3.45,4.3A1.66,1.66,0,0,1,96,70ZM90.8,75c0-1.34-.62-1.34-1.85,0s-1.9,2.36-1.9,3.1a1.93,1.93,0,0,0,.2.85,1.3,1.3,0,0,0,1.3.75c.7,0,1.28-.72,1.75-2.15A8.88,8.88,0,0,0,90.8,75Zm3.55-5.15a1.35,1.35,0,0,0,.45-1.05q0-4-1.85-3.4a2.85,2.85,0,0,0-1.9,3c0,1.2.73,1.8,2.2,1.8A1.51,1.51,0,0,0,94.35,69.87ZM96,74.52a4.78,4.78,0,0,1-1.45,3.9q-1.8,1.5-6.15,1.5c-1.7,0-2.83-.55-3.4-1.65q-.3-1.71-.3-1.8,0-4.16,5.65-4.75a7.31,7.31,0,0,1,3.9.5A2.44,2.44,0,0,1,96,74.52Zm22.4-.4a3.22,3.22,0,0,1,1.4,2.2,2.57,2.57,0,0,1-1.6,2.3,8.08,8.08,0,0,1-3.8.8,3.23,3.23,0,0,1-3.3-1.8l-.3-1.65q0-4.91,4.5-3.55A8.29,8.29,0,0,1,118.35,74.12Zm-2.2-.45c-1.13,0-1.7.81-1.7,2.35l.2.75a1.37,1.37,0,0,0,1.3.75,1.69,1.69,0,0,0,1.5-1,2.71,2.71,0,0,0,.4-1.35C117.85,74.18,117.28,73.67,116.15,73.67Zm-76.07,6A11.61,11.61,0,0,1,35,78.42q-2.4-1.26-2.4-2.55c0-2.64,2-3.4,6-2.3a17.91,17.91,0,0,1,2.8,1,25.81,25.81,0,0,0-1-2.8q0-5.8,4.2-1a36.41,36.41,0,0,1,4.2,6,2.16,2.16,0,0,1-.7,1.65,2.34,2.34,0,0,1-1.7.7,4.08,4.08,0,0,1-2.27-.68,2.94,2.94,0,0,1-.63.58,5.37,5.37,0,0,1-3.1.8c1.17-.06,1.75-.56,1.75-1.5,0-1.1-1-1.87-2.85-2.3s-2.9-.1-2.9,1.1l1.25,1.35A4.19,4.19,0,0,0,40.08,79.72ZM15.2,76.27c-.2,0-1.15,0-2.85,0s-2.82.43-3.15.8a.46.46,0,0,1,.05.2s.1.05.3.05a6,6,0,0,0,.9-.15,5,5,0,0,1,1.1-.15c.93,0,2.12-.07,3.55-.1,1,0,1.45-.15,1.45-.35S16.1,76.3,15.2,76.27Zm19.15,8.45q5.9.15,5.9,3.1a2.92,2.92,0,0,1-1.4,2.4,9.07,9.07,0,0,1-5.3,1.3q-3.25,0-4.5-1.5a2.79,2.79,0,0,1-.6-1.8Q28.45,84.62,34.35,84.72Zm-3.3,6a2.21,2.21,0,0,0,1.8.55c2.63,0,3.95-.47,3.95-1.4,0-1.5-1-2.19-2.95-2s-3,.81-3,2.15A1.36,1.36,0,0,0,31.05,90.67ZM14.15,80.42c-4,0-6.43-.17-7.4-.5q-1.2-.4-1.2-2.1,0-2.8,8.05-2.8t8,2.9c0,1-.63,1.63-1.9,2A21.86,21.86,0,0,1,14.15,80.42Zm8.7,22.5c0-1.6.87-2.35,2.6-2.25s2.6.71,2.6,2a1.9,1.9,0,0,1-.5,1.2,3.33,3.33,0,0,1-2.8,1.1,1.74,1.74,0,0,1-1.8-1C22.88,103.33,22.85,103,22.85,102.92Zm89.25-16.7a1.83,1.83,0,0,0,.3.9,1.4,1.4,0,0,0,1.25.75,1.41,1.41,0,0,0,.95-.35,1.17,1.17,0,0,0,.28-.35,1.2,1.2,0,0,0,.12-.55c0-.77-.48-1.29-1.45-1.55s-1.36.09-1.45.9Zm-8.6,24a1.48,1.48,0,0,0-.1.45l1.95,1.95c1.43,1.3,2.5,2,3.2,2,.33,0,.5-.2.5-.6Q104.55,110.26,103.5,110.17Zm-11.2-7.38a1.49,1.49,0,0,0,.85.23c.53,0,1-.37,1.35-1.1a3.54,3.54,0,0,0,.45-1.5c0-1-.53-1.44-1.6-1.2a1.93,1.93,0,0,0-1.6,2.15,3.48,3.48,0,0,0,0,.47L90.5,99.27q0-4.2,3.65-.45a31.69,31.69,0,0,1,3.6,4.55,2,2,0,0,1-.3,1,1.59,1.59,0,0,1-1.5.8,11.18,11.18,0,0,0-1.9-.3C93.7,104.92,93.12,104.21,92.3,102.79Zm16,6.68q3.75,4.65,3.75,6.6a2.66,2.66,0,0,1-.35,1.35,1.7,1.7,0,0,1-1.6.9c-.9,0-1.87-.67-2.9-2s-2.07-2-3.1-2a3.28,3.28,0,0,1-2.6-1.25,2.62,2.62,0,0,1-.75-1.45c0-1.14.82-1.75,2.45-1.85Q104.35,104.52,108.35,109.47Zm-19.6-.3a1.64,1.64,0,0,0,1.2-.5,1.4,1.4,0,0,0,.45-1c0-.6-.47-.92-1.4-1s-1.4.35-1.4,1.15c0,0,0,.25.05.65S88.15,109.17,88.75,109.17Zm3.7,2.65c0,1.8-.63,2.7-1.9,2.7s-2.28-1.34-3.25-4a15.32,15.32,0,0,1-1-4.2c0-1.24.32-2,1-2.25a2.11,2.11,0,0,1,2.15.55Q92.46,107,92.45,111.82Zm-34.8-11.5c1.07.43,1.6,1.5,1.6,3.2a9.61,9.61,0,0,1-1.8,5c-1.5,2.36-3.37,3.55-5.6,3.55q-2.81,0-2.8-3.35,0-5.2,5.1-7.9A4.21,4.21,0,0,1,57.65,100.32Zm5.15-10a7.37,7.37,0,0,1,3.8,2.35A6.47,6.47,0,0,1,68.3,97a3.18,3.18,0,0,1-.8,2,4.4,4.4,0,0,1-3.65,1.5q-4.45,0-6-2.55c-.4-1.77-.6-2.7-.6-2.8,0-2,.57-3.47,1.7-4.3A4.32,4.32,0,0,1,62.8,90.32Zm-4,6.2q.8,1.35,3.15,1.35a3.18,3.18,0,0,0,2.5-.9,2.07,2.07,0,0,0,.5-1.35q0-3.56-3.2-3.1c-2.17.3-3.25,1.2-3.25,2.7Zm6.6,17c-1.2,1.26-2,1.9-2.25,1.9a1.71,1.71,0,0,1-1.7-1,2.09,2.09,0,0,1-.25-1,15.69,15.69,0,0,1,.2-3.05,10.51,10.51,0,0,1,1.6-3.25c.87-1.34,1.83-1.19,2.9.45A7.13,7.13,0,0,1,67.25,111C67.25,111.33,66.63,112.17,65.4,113.47Zm1.6,5.07a18.43,18.43,0,0,0-2.3,5.63s0,.15,0,.35a.59.59,0,0,0,.6.35q1,0,2.65-6.45v-.1c1.23-.16,1.85.43,1.85,1.75a7.33,7.33,0,0,1-.45,1.65,7.8,7.8,0,0,0-.5,2.7c0,1.06-1,1.6-3,1.6a1.81,1.81,0,0,1-1.9-1.45c-.07-1-.1-1.47-.1-1.5q0-3.51,3-4.5Zm5.55-7.22a.93.93,0,0,1-.9-.7l-.1-.6c0-.77.47-1.17,1.4-1.2s1.4.33,1.4,1.2S73.75,111.32,72.55,111.32Zm14.53,11.12c.88-.93,1.57-.23,2.07,2.13a32.59,32.59,0,0,1,.7,7.1v2.25c-.2,1.2-.83,1.8-1.9,1.8-1.7,0-2.88-1.54-3.55-4.6-.33-3.14-.5-4.77-.5-4.9a1.85,1.85,0,0,1,.3-1c.3-.5.82-.64,1.55-.4a14.67,14.67,0,0,1,.8-1.63c.14,1,.36,2.67.65,4.93.63,4.13,1.22,6.2,1.75,6.2.33,0,.53-.09.6-.25,0,0,0-.12,0-.45C89.6,131.18,88.76,127.48,87.08,122.44Z"/><path class="cls-2" d="M129,99.57q-1.09,0-9.4-4.45t-8.3-5.1c0-.4.52-.45,1.55-.15a23.87,23.87,0,0,1,2.62,1c1,.47,2.27,1.06,3.68,1.78q7.8,4,10.2,6.6v.2C129.27,99.53,129.15,99.57,129,99.57ZM79.22,40a5.36,5.36,0,0,1,.43.4,1.2,1.2,0,0,1-.25.7.89.89,0,0,1-.45.37,1.06,1.06,0,0,1-.4.08,4.76,4.76,0,0,1-2.75-.75,1.78,1.78,0,0,1-.9-1.35c0-1.54.8-1.85,2.4-1A11.2,11.2,0,0,1,79.22,40ZM62.35,26.34c0,.14,0,.28,0,.43s0,.26,0,.42c0,.51,0,1.2,0,2.08,0,.16-.17.25-.5.25s-.55-.54-.65-1.6,0-1.62,0-1.65a5.22,5.22,0,0,1,0-.58,1.53,1.53,0,0,1,.47-1.17A4,4,0,0,1,62.35,26.34Zm24.48,7.78a2.7,2.7,0,0,1,.52-.9l.3.1c.07,0,.1.15.1.35a9.83,9.83,0,0,1-.35,1.85c-.17.69-.41,1.55-.73,2.57,0,.21-.11.41-.17.63l-.25.05c-.06.15-.09.09-.1-.18v-.07a19.65,19.65,0,0,1,.15-2.35A8.88,8.88,0,0,1,86.83,34.12ZM64.75,33a9.4,9.4,0,0,1,.58,1c.24.41.55,1,.92,1.65a13.21,13.21,0,0,1,1.3,2.8c0,.33,0,.46,0,.4,0,.16-.22.25-.55.25s-.83-.92-1.6-2.75c-.51-1.25-.84-2.09-1-2.53a1.54,1.54,0,0,1-.08-.32.38.38,0,0,1,.25-.4A.37.37,0,0,1,64.75,33Zm-7.25-4.7-.2,2.85a.75.75,0,0,1-.35.25c-.27-.17-.4-.79-.4-1.85a1.85,1.85,0,0,1,.6-1.65.92.92,0,0,0,.25.05C57.47,28,57.5,28.07,57.5,28.27ZM55.1,48.12c0-.74.12-1.19.35-1.35a4,4,0,0,1,1.7-.2q.3,0,1.2-.9c.53-.4.8-.17.8.7a5.08,5.08,0,0,1-.6,2.05c-.53,1.1-1.17,1.65-1.9,1.65a1.34,1.34,0,0,1-1.45-.9A3.64,3.64,0,0,1,55.1,48.12Zm57.25,2.35a.76.76,0,0,1-.75-.4,1,1,0,0,1-.1-.45q0-.66,5.5-2.65Q113.25,50.47,112.35,50.47Zm-5.6-6c-.57.42-1.21.87-1.9,1.35a25.44,25.44,0,0,1-3.1,2,.55.55,0,0,1-.55-.35.6.6,0,0,1-.1-.35q0-.85,3.8-3l.25-.13q3.48-1.92,4.4-1.92A22.59,22.59,0,0,1,106.75,44.42ZM94.35,69.87a1.51,1.51,0,0,1-1.1.4c-1.47,0-2.2-.6-2.2-1.8a2.85,2.85,0,0,1,1.9-3q1.85-.6,1.85,3.4A1.35,1.35,0,0,1,94.35,69.87ZM90.8,75a8.88,8.88,0,0,1-.5,2.55c-.47,1.43-1,2.15-1.75,2.15a1.3,1.3,0,0,1-1.3-.75,1.93,1.93,0,0,1-.2-.85c0-.74.63-1.77,1.9-3.1S90.8,73.68,90.8,75Zm25.35-1.35c1.13,0,1.7.51,1.7,1.55a2.71,2.71,0,0,1-.4,1.35,1.69,1.69,0,0,1-1.5,1,1.37,1.37,0,0,1-1.3-.75l-.2-.75C114.45,74.48,115,73.7,116.15,73.67ZM15.2,76.27c.9,0,1.35.15,1.35.35s-.48.31-1.45.35c-1.43,0-2.62.06-3.55.1a5,5,0,0,0-1.1.15,6,6,0,0,1-.9.15c-.2,0-.3,0-.3-.05a.46.46,0,0,0-.05-.2c.33-.37,1.38-.64,3.15-.8S15,76.27,15.2,76.27Zm24.88,3.45a4.19,4.19,0,0,1-2.48-1.35L36.35,77c0-1.2,1-1.57,2.9-1.1s2.85,1.2,2.85,2.3c0,.94-.58,1.44-1.75,1.5h-.27Zm-9,11a1.36,1.36,0,0,1-.15-.75c0-1.34,1-2,3-2.15s2.95.55,2.95,2c0,.93-1.32,1.4-3.95,1.4A2.21,2.21,0,0,1,31.05,90.67Zm-7.7,18.1-.25-.1c-.07.16-.1.08-.1-.25a2.48,2.48,0,0,1,.7-1.2,2.38,2.38,0,0,1,1.7-1l.1.3A7.69,7.69,0,0,1,23.35,108.77ZM112.1,86.22V86c.09-.81.57-1.12,1.45-.9s1.45.78,1.45,1.55a1.2,1.2,0,0,1-.12.55,1.17,1.17,0,0,1-.28.35,1.41,1.41,0,0,1-.95.35,1.4,1.4,0,0,1-1.25-.75A1.83,1.83,0,0,1,112.1,86.22ZM92.3,102.79a1.33,1.33,0,0,1-.52-1,3.48,3.48,0,0,1,0-.47,1.93,1.93,0,0,1,1.6-2.15c1.07-.24,1.6.16,1.6,1.2a3.54,3.54,0,0,1-.45,1.5c-.37.73-.82,1.1-1.35,1.1A1.49,1.49,0,0,1,92.3,102.79Zm11.2,7.38q1.05.09,5.55,3.75c0,.4-.17.6-.5.6-.7,0-1.77-.65-3.2-2l-1.95-1.95A1.48,1.48,0,0,1,103.5,110.17Zm-14.75-1c-.6,0-1-.22-1.1-.65s-.05-.62-.05-.65c0-.8.47-1.19,1.4-1.15s1.4.35,1.4,1a1.4,1.4,0,0,1-.45,1A1.64,1.64,0,0,1,88.75,109.17ZM58.8,96.52l-.3-1.3c0-1.5,1.08-2.4,3.25-2.7s3.2.73,3.2,3.1a2.07,2.07,0,0,1-.5,1.35,3.18,3.18,0,0,1-2.5.9Q59.6,97.87,58.8,96.52Zm9.2,21.8v.1q-1.65,6.45-2.65,6.45a.59.59,0,0,1-.6-.35c0-.2,0-.32,0-.35a18.43,18.43,0,0,1,2.3-5.63,2.74,2.74,0,0,1,.55-.57l.3.1C67.93,118.09,68,118.18,68,118.32Zm19.08,4.12c1.68,5,2.52,8.74,2.52,11.13,0,.33,0,.48,0,.45-.07.16-.27.25-.6.25-.53,0-1.12-2.07-1.75-6.2-.29-2.26-.51-3.9-.65-4.93l-.15-1.27c0-.2.07-.32.2-.35s.15,0,.15,0Z"/><path class="cls-3" d="M130.83,56q-5.78,1.75-19.78,5.73c-.17-.07-.25-.17-.25-.3s.17-.17.5-.33c.8-.35,2.54-1,5.2-1.82,3.17-1,5.73-1.84,7.7-2.4a80,80,0,0,1,10.6-2.45,1.08,1.08,0,0,0,0,.2A26.4,26.4,0,0,1,130.83,56Zm7.07,17.48,4.15,0,.35.1,0,.15a.54.54,0,0,1-.4.15h-.45l-53,.52-6.38.08-2.12,0c-2.63,2.42-4.94,3.63-6.9,3.63-.87,0-1.4-.12-1.6-.35a.67.67,0,0,1-.1-.45c-.7.36-1.5-.15-2.4-1.55-.21-.32-.39-.62-.55-.9a5.88,5.88,0,0,1-.6-1.38c-.48.06-.9.11-1.28.18s-.47.06-.67.1h-4.4c-.9-.07-2.27-.12-4.1-.15-.27-.07-.4-.22-.4-.45s.15-.37.45-.4a25.1,25.1,0,0,1,4,0H66l.58.17a6.75,6.75,0,0,0,1.3.23,1.69,1.69,0,0,1,0-.3,2.5,2.5,0,0,1,.28-1.15,3.25,3.25,0,0,1,.37-.6c.93-1.27,1.47-2,1.6-2.25.37-.7.57-1.07.6-1.1a2.44,2.44,0,0,1,1.1-.9c1-.5,1.77-.55,2.2-.15a5.21,5.21,0,0,1,1,1.15,8.59,8.59,0,0,0,3.35,1.75c.86.28,2,.62,3.32,1l.18,0a25.3,25.3,0,0,0,3,.75c.5.08,1,.14,1.52.2,2.83.3,5.82.71,9,1.25a.36.36,0,0,0,.08.15l3.9,0,19.45.15ZM59.1,35.32a.32.32,0,0,1-.2.1c-.53,0-1.1-1.19-1.7-3.55s-.75-3.62-.75-3.65q0-1.71,1.35,2.4c.47,1.36.92,2.85,1.35,4.45Zm.15-11.5a14.73,14.73,0,0,1,1,5.15c0,.26-.1.4-.3.4s-.54-1.37-1.17-4.1c-.22-.93-.46-2-.73-3.25,0-.74.37-.17,1.1,1.7A.47.47,0,0,0,59.25,23.82Zm-7.5,49.95c0,.26-.6.4-1.8.4l-14.4,0c-1.77-.07-3.58-.15-5.45-.25l-.05-.35c.17,0,2.57-.1,7.2-.2l14.2.1Zm58.05-32.1a12.52,12.52,0,0,1-2.65,2l-3,1.85q-4.65,3.65-4.7,3.65c-.23,0-.37-.09-.4-.25v-.3q0-.75,5-3.9a47.78,47.78,0,0,1,5.5-3.25A.93.93,0,0,1,109.8,41.67Zm.4,7.4a1,1,0,0,1,0-.3,10.63,10.63,0,0,1,2.8-1.5,15.56,15.56,0,0,1,3.45-1.4l0,.25q0,.5-5.9,3.2A.36.36,0,0,1,110.2,49.07ZM17.85,55l4.5.78q2.68.52,6.85,1.3l3.7.7a31.2,31.2,0,0,1,4,1c.57.19.85.36.85.5s-.23.33-.67.42c-.19,0-.42.06-.68.08a51.22,51.22,0,0,1-8.5-1.4Q21.7,57,21.45,57c-3.77-.54-6.85-1-9.25-1.4q-6.85-1.2-6.85-2.45Q5.35,52.94,17.85,55ZM11.5,76.94l-1,0c-.83,0-1.3-.22-1.4-.55.47-.08,1.61-.21,3.4-.38l2.72-.22,5-.4a.33.33,0,0,1,.25.1.32.32,0,0,0,.2.1c.17,0,.6-.05,1.3-.15-.5.17-1,.34-1.6.5l-.95.25a29.2,29.2,0,0,1-6.8.7Zm28,16c.11-.1.22-.2.35-.3a3.39,3.39,0,0,1,2.25-1.1h0s.05.05.05.15a7.54,7.54,0,0,1-1.45,1.65,9.81,9.81,0,0,1-1.6,1.45.46.46,0,0,1-.5-.3.78.78,0,0,1,0-.3,1.52,1.52,0,0,1,.52-.9A4.38,4.38,0,0,1,39.5,93Zm-17.08,16c1.08-1.3,2.17-2.51,3.28-3.65q3.4-3.55,3.4-2.25a38.73,38.73,0,0,1-3.25,3.3l-.18.17c-2,2-3,2.93-3.07,2.93l-.3,0-.05-.25Zm95.86-21,0,.08c0,.06,0,.1,0,.1a.21.21,0,0,1-.2.1,8.93,8.93,0,0,1-2.35-.6c-.77-.28-1.71-.65-2.8-1.1l-2.17-1-.35-.15L109,84.72c-1.8-.8-3.15-1.42-4-1.85a8.29,8.29,0,0,1-3-2l0,0,1.25.5q9.42,3.82,15,6.45Zm-5,2.9v0l6.5,2.7a52.82,52.82,0,0,1,6.55,3.15q0,.3-.3.3c-.8,0-3.15-.94-7-2.8-2.44-1.17-4.09-2-5-2.53q-.78-.45-.78-.57Zm5.85,7.9-.05-.07q0-.9,3.75,1.65c2.47,1.7,3.7,2.71,3.7,3,0,.06.22.26.65.6v0a.81.81,0,0,1-.65-.2.39.39,0,0,0-.3-.2,2.81,2.81,0,0,1-1.08-.48c-.67-.4-1.63-1.06-2.87-2C120.44,99.75,119.39,99,119.15,98.69ZM92.1,119.62l0,.2-.3.15q-.45,0-1.5-2.4a25.2,25.2,0,0,1-1.4-3.8,32.51,32.51,0,0,1-1.7-6.15c0-.9.32-.49.95,1.25.33,1,.8,2.28,1.4,3.95A39.17,39.17,0,0,0,92.1,119.62Zm-28.65-10.5q-.69,1.83-2.35,5.37l-.3.63-.15,0a.25.25,0,0,1-.2-.25c.07-.3.13-.59.2-.88q1.31-5.34,3.13-6.77l.12-.1.05.25A6.46,6.46,0,0,1,63.45,109.12Zm-14.25,2.2c-.45.75-.93,1.55-1.45,2.4-.17-.17-.25-.29-.25-.35,0-.4,1.07-2.54,3.2-6.4q2.74-5,3.13-4.1a1,1,0,0,1,.07.45Q53.9,103.62,49.2,111.32Zm17,5.65a2,2,0,0,1,0,.5q-1.41,5.46-2.3,8.5c-.73,2.56-1.18,3.85-1.35,3.85a2,2,0,0,1-.4-.1l-.05-.35a11.14,11.14,0,0,1,.4-1.9q.51-1.92,1.65-5.65l.15-.5Q66,116,66.2,117Zm19.72,6a18.87,18.87,0,0,1,1.18,3,17.17,17.17,0,0,1,1,4.55l0,.3c0,.06-.13.1-.3.1a31.87,31.87,0,0,1-1.37-4.78c-.26-1-.55-2.16-.88-3.47a.92.92,0,0,1,0-.2A1.69,1.69,0,0,1,85.92,123Z"/><path class="cls-4" d="M111.3,61.09c-.33.16-.5.27-.5.33s.08.23.25.3q14-4,19.78-5.73a22.24,22.24,0,0,1,4-.62q-7.8,3.15-11.35,4.35-8.55,3-12.5,3l-1.65,0-1.65-.15c-.07,0-.1-.12-.1-.45C107.55,61.94,108.8,61.62,111.3,61.09Zm30.3,12.83c.3.25.45.42.45.5a.86.86,0,0,1-.7.7,11.66,11.66,0,0,1-3.65-.2c-.07,0-1.78.23-5.15.8l-31,.2q-5.23-.33-13-1.48Zm-3.7-.45-19.17-.23,13.82-.12c1.53.3,2.5.15,2.9-.45C135.67,72.36,136.49,72.62,137.9,73.47Zm-55.73,1a11.51,11.51,0,0,1-1.87,3.15q-2.14,2.85-3.75,2.85c-.83,0-1.6,0-2.3-.1a13,13,0,0,0-1.8-.15q-4.15,0-5.65-5.15a2.29,2.29,0,0,1,0-.25,65.3,65.3,0,0,1-7.13-.6c-2.57-.4-3.85-.89-3.85-1.45,0-.9,3.13-1.29,9.4-1.15l1.18,0c-.16-1.22-.23-1.86-.23-1.92q0-3.45,2.5-4.85a7.2,7.2,0,0,1,5.55-.45,10.76,10.76,0,0,1,5.55,3.25,9.61,9.61,0,0,1,1.87,3c-1.35-.38-2.46-.72-3.32-1A8.59,8.59,0,0,1,75,67.92a5.21,5.21,0,0,0-1-1.15c-.43-.4-1.17-.35-2.2.15a2.44,2.44,0,0,0-1.1.9s-.23.4-.6,1.1c-.13.23-.67,1-1.6,2.25a3.25,3.25,0,0,0-.37.6,2.5,2.5,0,0,0-.28,1.15,1.69,1.69,0,0,0,0,.3,6.75,6.75,0,0,1-1.3-.23L66,72.82h-4.4a25.1,25.1,0,0,0-4,0c-.3,0-.45.16-.45.4s.13.38.4.45c1.83,0,3.2.08,4.1.15H66c.2,0,.43-.07.67-.1s.8-.12,1.28-.18a5.88,5.88,0,0,0,.6,1.38c.16.28.34.58.55.9.9,1.4,1.7,1.91,2.4,1.55a.67.67,0,0,0,.1.45c.2.23.73.35,1.6.35,2,0,4.27-1.21,6.9-3.63Zm-30.42-.75-.3-.25-14.2-.1c-4.63.1-7,.16-7.2.2l.05.35c1.87.1,3.68.18,5.45.25l14.4,0C51.15,74.17,51.75,74,51.75,73.77Zm7.08-48.5c.63,2.73,1,4.1,1.17,4.1s.3-.14.3-.4a14.73,14.73,0,0,0-1-5.15c.25,0,.62.51,1.1,1.65A15.52,15.52,0,0,1,61.9,31,4.68,4.68,0,0,1,61.8,32q0,.15-.45.15c-.53,0-1.12-1-1.75-3l-.8-2.95C58.8,25.89,58.81,25.55,58.83,25.27Zm.27,10.05,0-.25c-.43-1.6-.88-3.09-1.35-4.45q-1.35-4.11-1.35-2.4s.25,1.25.75,3.65,1.17,3.55,1.7,3.55A.32.32,0,0,0,59.1,35.32ZM99.28,73.09l-3.9,0a.36.36,0,0,1-.08-.15c-3.13-.54-6.12-1-9-1.25-.51-.06-1-.12-1.52-.2.71.07,1.46.15,2.27.25C92.89,72.39,96.94,72.85,99.28,73.09ZM55,26.12q1.61-.15,3.3,4.2a17.24,17.24,0,0,1,1.4,5.25c0,.66-.32,1-1,1s-1.63-1.67-2.6-5-1.25-5-1.25-5A1.48,1.48,0,0,1,55,26.12Zm.55,49.55q-5.2.19-11.25,0-12-.36-16.5-2.15c.43-.57,1.42-.87,2.95-.9s6.27-.19,14.4-.35q10.31,1.05,12.7,2.2A3.47,3.47,0,0,1,55.55,75.67Zm58.85-36.6s0,.1,0,.3q0,.8-4.5,3.45c-3.13,1.7-4.82,2.63-5,2.8a47,47,0,0,0-4.1,3.55c-1.73,1.63-2.62,2.45-2.65,2.45a.7.7,0,0,1-.75-.5c0-.3-.05-.47-.05-.5q0-2.31,6.45-7,6.7-4.95,10.4-4.55Zm-4.2,10a.36.36,0,0,0,.35.25q5.9-2.7,5.9-3.2l0-.25a15.56,15.56,0,0,0-3.45,1.4,10.63,10.63,0,0,0-2.8,1.5A1,1,0,0,0,110.2,49.07Zm-.4-7.4a.93.93,0,0,0-.25-.2,47.78,47.78,0,0,0-5.5,3.25q-5,3.15-5,3.9v.3c0,.16.17.25.4.25t4.7-3.65l3-1.85A12.52,12.52,0,0,0,109.8,41.67Zm-.4,7.95q0-1,4.3-3T119.2,45a18.81,18.81,0,0,1-4.75,3.7c-2.1,1.26-3.47,1.9-4.1,1.9q-.7,0-.9-.45A1.6,1.6,0,0,1,109.4,49.62Zm-80.2,7.5,2.3.35q4.36.64,5.35,1.35a31.2,31.2,0,0,0-4-1ZM17.85,55q-12.5-2.1-12.5-1.92,0,1.25,6.85,2.45c2.4.4,5.48.86,9.25,1.4q.26,0,6.4,1.45a51.22,51.22,0,0,0,8.5,1.4c.26,0,.49,0,.68-.08a1.21,1.21,0,0,1-.88.48c-.23,0-1.3.05-3.2.05q-28.8-3.81-28.8-8.2c0-.64,2.13-.35,6.4.85C12.46,53.45,14.9,54.16,17.85,55ZM11.5,76.94l1.15,0a29.2,29.2,0,0,0,6.8-.7L20.4,76h2.35c.57.2.85.48.85.85s-.28.65-.85.85h-6.2c-1.1,0-2,0-2.65-.1A4.86,4.86,0,0,1,11.5,76.94Zm3.72-1.12L12.5,76a4.21,4.21,0,0,1,1.6-.27A11.1,11.1,0,0,1,15.22,75.82Zm7.2,33.1a.6.6,0,0,1-.52-.35c0-.2,0-.32,0-.35q0-.9,4.6-4.65t4.6-1.75q0,.44-5.38,4.67l.18-.17A38.73,38.73,0,0,0,29.1,103q0-1.3-3.4,2.25C24.59,106.41,23.5,107.62,22.42,108.92ZM39.5,93a4.38,4.38,0,0,0-.38.35,6.26,6.26,0,0,1-1.77,1.2l-.9-.15q-.15-.11-.15-.6c0-.14.52-.6,1.55-1.4a10.51,10.51,0,0,1,2.5-1.55,1,1,0,0,0,.3.05c.07,0,.1.15.1.35S40.33,92.13,39.5,93Zm78.78-5.08,0-.07q-5.53-2.62-15-6.45c.63-.39,3.08.22,7.35,1.85Q118,86,119.4,87.42A2.89,2.89,0,0,1,118.28,87.89ZM114,91.59c.88.52,2.53,1.36,5,2.53,3.9,1.86,6.25,2.8,7,2.8q.26,0,.3-.3a52.82,52.82,0,0,0-6.55-3.15l-6.5-2.7v0q-.24-.29-.45-.57l.15,0,.8.25.55,0q3.45,0,13.75,6.85a1.85,1.85,0,0,1-1,.45c-.4,0-.63,0-.7,0a9.72,9.72,0,0,0-2-.4q-2.14,0-5.9-2.25A20.52,20.52,0,0,1,114,91.59Zm-21.93,28a39.17,39.17,0,0,1-2.6-6.8c-.6-1.67-1.07-3-1.4-3.95-.63-1.74-.95-2.15-.95-1.25a32.51,32.51,0,0,0,1.7,6.15,25.2,25.2,0,0,0,1.4,3.8q1.05,2.4,1.5,2.4l.3-.15Zm27.05-20.93c.24.26,1.29,1.06,3.15,2.43,1.24.91,2.2,1.57,2.87,2,.73.64,1.49,1.33,2.28,2.08,0,.63-.3,1-.9,1-1,0-2.92-1.29-5.65-3.85q-3.75-3.85-3.75-3.9a1.48,1.48,0,0,1,.1-.45A9,9,0,0,1,119.15,98.69Zm-30.6,15.48a47.61,47.61,0,0,1-1.85-6.75q0-3,3.1,4.25t3,9.75a2.86,2.86,0,0,1-.7,1.35Q90.7,120.87,88.55,114.17Zm-24.77-6.9Q62,108.7,60.65,114v-.22a12.07,12.07,0,0,1,1-3.7c.7-1.84,1.27-2.84,1.7-3l.35.1A.18.18,0,0,1,63.78,107.27Zm-2.68,7.22q1.66-3.54,2.35-5.37v.1q-1.85,5.3-2.1,5.3A.81.81,0,0,1,61.1,114.49Zm-7.27-11.62Q56.7,98.52,56.7,101a42.24,42.24,0,0,1-2.8,4.9c-2.27,3.7-3.72,6.11-4.35,7.25a.73.73,0,0,1-.55-.8,3.85,3.85,0,0,1,.2-1.05q4.69-7.69,4.7-8A1,1,0,0,0,53.83,102.87ZM66.2,117a12.4,12.4,0,0,1,1.55-2.6l.3.1c.1,0,.15.15.15.35q0,.95-2.2,6.4c-.8,2-1.48,3.59-2,4.75q.89-3,2.3-8.5A2,2,0,0,0,66.2,117Zm-3.65,10.5a3,3,0,0,1,0-.5,28.37,28.37,0,0,1,1.85-5.65l-.15.5Q63.06,125.56,62.55,127.47Zm23.83-1.28A31.87,31.87,0,0,0,87.75,131c.17,0,.27,0,.3-.1l0-.3a17.17,17.17,0,0,0-1-4.55,18.87,18.87,0,0,0-1.18-3l-.17-1.17q0-5.46,2,2.35t2,9.45a.82.82,0,0,1-.25.6.81.81,0,0,1-.65.3c-.67,0-1.37-2.14-2.1-6.4Z"/><path class="cls-4" d="M112.42,60.92a7.65,7.65,0,0,1,1.73-.6c1,0,4.18-.47,9.65-1.4,1.7-.24,3.1-.38,4.23-.43l1.87-.62q26.85-9.1,26.85-5.7,0,1.74-10.55,5-9.91,2.7-11.28,3.1,15.78-5.67,15.78-6a1.8,1.8,0,0,1,0-.3q-7.6,2-20,4.75l-1,.2q-4.36.94-7.5,1.57a62.61,62.61,0,0,1-7.7,1.28,2.81,2.81,0,0,1-1.45-.45A4.89,4.89,0,0,0,112.42,60.92Zm21.75-.38-12.64,4.73a.89.89,0,0,1,.22.6q0,2-6.5,3.9l-7.45,1.65q-3.85,1-13.45,4.4Q86.6,78.57,85,78.57c-.77,0-1.23-.17-1.4-.5a2.12,2.12,0,0,1,0-.6q0-1.41,5.12-3.73c-.11-.55-.17-.84-.17-.87q0-.51,12.35-6.55,8-3.88,11.2-5.25c-.27,1.37-1.36,2.8-3.25,4.27a30.41,30.41,0,0,1-4.47,2.8c-.42.22-.85.44-1.3.65l-.23.13L90.3,74.67l-3.4,1.6v.25c.1.13.43.2,1,.2q1.6,0,6.85-1.85c4-1.4,6.38-2.19,7.15-2.35a90.25,90.25,0,0,0,12.3-3.75v-.1a6.83,6.83,0,0,0-1.58-.13l-.47,0H110q3.66-.94,11.23-3.48,5.31-1.79,12.57-4.37ZM44.4,52.64Q41.19,46.33,39.5,43a.58.58,0,0,1,0,.2,1.62,1.62,0,0,1-.45,1.1l-.13.1c-.13-.3-.25-.58-.35-.85a5.28,5.28,0,0,1-.42-1.8v-.18a3.67,3.67,0,0,1,.15-.85,2.07,2.07,0,0,1,.77-1.1,3.07,3.07,0,0,1,1.38-.52c.57-.08,1-.15,1.4-.23.6-.11.9-.22.9-.32l-8.75-3.65a.47.47,0,0,0-.45.2.52.52,0,0,0-.1.35c0,.13.28.48.85,1a2.41,2.41,0,0,1,.77,1.27.91.91,0,0,1,0,.23,9.39,9.39,0,0,1-.1,1.05c-.09.73-.26,1.1-.5,1.1h-.08a6.17,6.17,0,0,1-1.42-.25q-5-1.47-18-11.25-1.92-1.44-4-3.05-3.71-2.88-8-6.3,0,2.6,13.4,14.5,6.75,6,14,11.95a193.54,193.54,0,0,1,14.4,13.5q4.1,4.17,7,7l.43.42c.45.46.89.9,1.3,1.3q2.93,2.92,4.07,4l.05,0c-1.22-1.75-2.7-3.64-4.42-5.65q-4.37-6.76-7.78-11.95C45.12,53.75,44.76,53.19,44.4,52.64ZM111.33,3.22q-2.94,4.56-6.78,11.65Q99,25.12,96.05,29.52q-5.3,8-11.15,17.35-7,11.15-7,11.9a.59.59,0,0,0,0,.3l.15,0Q88.89,43.19,95.17,33.77,88.77,45,85.1,51.27q-6.94,12-8.35,12a1.53,1.53,0,0,1-.3,0,1,1,0,0,1-.85-.47,1.57,1.57,0,0,1-.1-.6.64.64,0,0,1,0-.15q.75-2.25,18.32-32.25,5.75-9.81,11.2-17.9Q108.86,6.2,111.33,3.22ZM100,26.44Q109.2,11.93,112.8,1.57q3-3.09,3-.1,0,1.35-8.6,14.2ZM82.72,66.52a2.31,2.31,0,0,1-.37.55,1.79,1.79,0,0,1-1,.62,2,2,0,0,1-.35,0,1.49,1.49,0,0,1-1.22-.5A1.44,1.44,0,0,1,79.6,67a1.66,1.66,0,0,1-.2-.8v0c0-1,.58-1.49,1.75-1.55s1.7.33,1.7,1.3A1.64,1.64,0,0,1,82.72,66.52ZM70.15,61.67a2.62,2.62,0,0,1-1.4.3,1.47,1.47,0,0,1-1.55-.9l0-.65c0-1.3.58-1.84,1.75-1.6s1.75.85,1.75,1.85a1.75,1.75,0,0,1-.05.4A1.1,1.1,0,0,1,70.15,61.67ZM64.3,66.42c0,.2-.15.41-.45.65a1.35,1.35,0,0,1-.85.4,1,1,0,0,1-1-.7l-.1-.55c0-.9.4-1.27,1.2-1.1S64.3,65.75,64.3,66.42ZM59,72.14a1.46,1.46,0,0,1-.38.63,1.81,1.81,0,0,1-1.4.55q-.64,0-12.45-11.4-14.5-14-17.5-16.7-5.6-4.95-15.9-15.35Q0,18.36,0,17.07c0-.27.22-.31.65-.13Q.86,15.75,20.1,28.57q7.68,5.13,12.32,8.5C32,35,31.85,34,31.85,34c0-1.25.21-1.87.62-1.88q1.23-1,6,1.08Q44.8,35.92,44.8,38c0,.05-1.33,1.26-4,3.65q2.7,3.57,7.75,11.55,5.51,8.64,11,18a1.52,1.52,0,0,1-.4.9Zm6.62-2.87c0-1.77.83-2.57,2.5-2.4a2.38,2.38,0,0,1,2.45,2.6,2,2,0,0,1-.75,1.5,2.52,2.52,0,0,1-1.85.75,2.09,2.09,0,0,1-2-1.15A2.79,2.79,0,0,1,65.65,69.27Zm3-9.3c-.33-.27-.5-.07-.5.6l.1.3a.67.67,0,0,0,.65.45.45.45,0,0,0,.3-.1.32.32,0,0,0,.15-.2A2.37,2.37,0,0,0,68.65,60Zm.7,9.55a.49.49,0,0,0,.2-.4,1.49,1.49,0,0,0-.65-1.3c-.47-.3-.7-.07-.7.7l0,.5a.76.76,0,0,0,.8.65A.43.43,0,0,0,69.35,69.52ZM81.8,65.67V66c.07.16.25.25.55.25s.35-.2.35-.6-.15-.55-.45-.55S81.8,65.27,81.8,65.67ZM70,72a5.43,5.43,0,0,0-.47,2.38s0,.51.15,1.45.57,1.28,1.15,1.35H71c.8,0,1.45-.74,2-2.2a8.93,8.93,0,0,0,.5-2.6c0-1.46-.4-2.15-1.2-2.05a2,2,0,0,0-.75.25l-.12.05.47-.4a8,8,0,0,1,1.25-.93c1.5-.86,2.25-.19,2.25,2q-2.31,5.84-3.9,7.2a1.49,1.49,0,0,1-.9.4,2,2,0,0,1-1.9-1.6c-.2-1.1-.3-1.67-.3-1.7A5.85,5.85,0,0,1,70,72ZM104.3,56.57c.57.06,1,.1,1.2.1s.22,0,.25-.1a1,1,0,0,1,0-.25c-.63-.54-1-.8-1.2-.8a5.3,5.3,0,0,0-1.25.8A4.47,4.47,0,0,0,104.3,56.57Zm3.6-.4q0,.75-1.5,1.5a7.42,7.42,0,0,1-3.5.85,1.27,1.27,0,0,1-1.2-.6,1.57,1.57,0,0,1-.15-.7c0-1.27,1.07-2.1,3.2-2.5S107.9,54.8,107.9,56.17Zm3.55-.1a8.5,8.5,0,0,1,2.85-1q3.49-.75,3.5,1.35c0,.73-.48,1.31-1.45,1.75a7.55,7.55,0,0,1-3.1.6A2.67,2.67,0,0,1,111,58c-.17-.54-.25-.82-.25-.85a1,1,0,0,1,.28-.68l1.67,2c.6,0,.75-.52.45-1.55,1.4-.24,2.2-.52,2.4-.85l-.1-.15a4.26,4.26,0,0,0-.9-.05,23.73,23.73,0,0,0-2.5.15ZM21.5,84.12a1,1,0,0,1-.6-1q0-2.36,14.45-4.65a125.42,125.42,0,0,1,16.5-1.85,2.55,2.55,0,0,1,2,.6,1.09,1.09,0,0,1,.15.65q0,1.69-6.75,2.6-7.61.69-9.4,1c-2.73.73-4.92,1.3-6.55,1.7a34.24,34.24,0,0,1-7.3,1c-.85,0-1.46,0-1.83,0q5.59-1.8,11.38-3.3l4.8-1.2q.85-.21,5.85-.55c2.77-.17,4.25-.4,4.45-.7q-2.2-2.05-14.8,1-12.34,3-12.35,4.4ZM39.65,46.67a.54.54,0,0,1,0-.18c.21.48.45,1,.7,1.5A13.91,13.91,0,0,1,39.65,46.67Zm.9,64.15q6.9-9.06,10.35-13.3,6.2-7.65,6.2-3.8,0,2.25-12.85,18.55L27.5,133.47l-1-.3a4.68,4.68,0,0,1-.1-1q0-1.56,6.6-11Q37.8,114.32,40.55,110.82ZM28,130.07c0,.26,0,.35.1.25h.3q2.66-3.6,16.8-21.75,11.1-14.2,11.1-15a.79.79,0,0,0-.1-.45L39.05,115Q28,129.32,28,130.07ZM71.17,98.92c0,1.21.08,3,.13,5.45v6.45a14.61,14.61,0,0,0,.6,5.7,1.89,1.89,0,0,0,.2-1,12.16,12.16,0,0,0-.15-2v-9c-.1-.94-.2-2.55-.3-4.85,0-1.35-.1-2.46-.18-3.35a17,17,0,0,1,.78-3.85A38.43,38.43,0,0,1,73,98.87q.1,1.84.1,6.4,0,1.24-.4,5.9a53.5,53.5,0,0,1-1.1,7.75l-.35.1c-.73-.44-1.1-1.47-1.1-3.1q0-3.3.6-11.65C70.89,102.23,71,100.45,71.17,98.92Z"/><path class="cls-3" d="M112.42,60.92a4.89,4.89,0,0,1,.63.4,2.81,2.81,0,0,0,1.45.45,62.61,62.61,0,0,0,7.7-1.28q3.14-.63,7.5-1.57l1-.2Q143,56,150.65,54a1.8,1.8,0,0,0,0,.3q0,.33-15.78,6l-.75.27-.37.13q-7.26,2.58-12.57,4.37-7.56,2.53-11.23,3.48h2.15l.47,0a6.83,6.83,0,0,1,1.58.13v.1a90.25,90.25,0,0,1-12.3,3.75c-.77.16-3.15,1-7.15,2.35q-5.25,1.84-6.85,1.85c-.57,0-.9-.07-1-.2v-.25l3.4-1.6,12.5-5.75.23-.13c.45-.21.88-.43,1.3-.65a30.41,30.41,0,0,0,4.47-2.8c1.89-1.47,3-2.9,3.25-4.27,0-.09,0-.17,0-.25h.15A.45.45,0,0,1,112.42,60.92ZM39,44.37c.15.32.32.67.5,1q2.12,3,4.93,7.25c.36.55.72,1.11,1.1,1.68q3.41,5.18,7.78,11.95c1.72,2,3.2,3.9,4.42,5.65l-.05,0q-1.14-1.05-4.07-4c-.41-.4-.85-.84-1.3-1.3l-.43-.42q-2.85-2.88-7-7a193.54,193.54,0,0,0-14.4-13.5q-7.24-5.91-14-11.95Q3.11,21.86,3.1,19.27q4.24,3.42,8,6.3,2.08,1.61,4,3.05,13,9.78,18,11.25a6.17,6.17,0,0,0,1.42.25h.08c.24,0,.41-.37.5-1.1a9.39,9.39,0,0,0,.1-1.05.91.91,0,0,0,0-.23,2.41,2.41,0,0,0-.77-1.27c-.57-.57-.85-.92-.85-1a.52.52,0,0,1,.1-.35.47.47,0,0,1,.45-.2l8.75,3.65c0,.1-.3.21-.9.32-.36.08-.83.15-1.4.23a3.07,3.07,0,0,0-1.38.52,2.07,2.07,0,0,0-.77,1.1,3.67,3.67,0,0,0-.15.85v.18a5.28,5.28,0,0,0,.42,1.8C38.72,43.79,38.84,44.07,39,44.37Zm61-17.93-2.23,3.43q-1.17,1.78-2.58,3.9Q88.9,43.19,78.1,59l-.15,0a.59.59,0,0,1,0-.3q0-.75,7-11.9,5.85-9.3,11.15-17.35,3-4.41,8.5-14.65,3.84-7.09,6.78-11.65c.64-1,1.25-1.89,1.82-2.7-.11.34-.23.69-.35,1.05Q109.22,11.94,100,26.44ZM65,66.12l.15.25-.1.2a1.2,1.2,0,0,1-.5.1l-.1-.35.1-.2ZM68.65,60a2.37,2.37,0,0,1,.7,1.05.32.32,0,0,1-.15.2.45.45,0,0,1-.3.1.67.67,0,0,1-.65-.45l-.1-.3C68.15,59.9,68.32,59.7,68.65,60Zm.7,9.55a.43.43,0,0,1-.3.15.76.76,0,0,1-.8-.65l0-.5c0-.77.23-1,.7-.7a1.49,1.49,0,0,1,.65,1.3A.49.49,0,0,1,69.35,69.52ZM70,72a3.32,3.32,0,0,1,1.36-1.37l.12-.05a2,2,0,0,1,.75-.25c.8-.1,1.2.59,1.2,2.05a8.93,8.93,0,0,1-.5,2.6c-.5,1.46-1.15,2.2-2,2.2H70.8c-.58-.07-1-.52-1.15-1.35s-.15-1.42-.15-1.45A5.43,5.43,0,0,1,70,72ZM81.8,65.67q0-.6.45-.6c.3,0,.45.18.45.55s-.12.6-.35.6-.48-.09-.55-.25Zm22.5-9.1a4.47,4.47,0,0,1-1-.25,5.3,5.3,0,0,1,1.25-.8c.17,0,.57.26,1.2.8a1,1,0,0,0,0,.25c0,.06-.12.1-.25.1S104.87,56.63,104.3,56.57Zm7.15-.5.6,0a23.73,23.73,0,0,1,2.5-.15,4.26,4.26,0,0,1,.9.05l.1.15c-.2.33-1,.61-2.4.85.3,1,.15,1.55-.45,1.55l-1.67-2-.23-.27A2,2,0,0,1,111.45,56.07Zm-71.8-9.4a13.91,13.91,0,0,0,.7,1.32c-.25-.52-.49-1-.7-1.5A.54.54,0,0,0,39.65,46.67ZM21.5,84.12V84q0-1.35,12.35-4.4,12.6-3.1,14.8-1c-.2.3-1.68.53-4.45.7q-5,.34-5.85.55L33.55,81q-5.79,1.5-11.38,3.3l-.32.1a.81.81,0,0,1-.25-.1A.25.25,0,0,1,21.5,84.12ZM28,130.07q0-.75,11-15l17.15-22a.79.79,0,0,1,.1.45q0,.84-11.1,15-14.14,18.15-16.8,21.75h-.3C28,130.42,28,130.33,28,130.07Zm43.47-33.8c.08.89.14,2,.18,3.35.1,2.3.2,3.91.3,4.85v9a12.16,12.16,0,0,1,.15,2,1.89,1.89,0,0,1-.2,1,14.61,14.61,0,0,1-.6-5.7v-6.45c0-2.42-.09-4.24-.13-5.45s0-1.69,0-1.8a7,7,0,0,1,.2-2.1C71.4,95.37,71.44,95.78,71.47,96.27Z"/><path class="cls-5" d="M76.45,63.29a8.3,8.3,0,0,1,1.3,3.28,9,9,0,0,1,1.65-.4,1.66,1.66,0,0,0,.2.8,1.44,1.44,0,0,0,.18.25,1.49,1.49,0,0,0,1.22.5,2,2,0,0,0,.35,0,1.79,1.79,0,0,0,1-.62,2.31,2.31,0,0,0,.37-.55,2.92,2.92,0,0,1,1.93,2.9q-1.09,4.8-1.1,5.1c0,1.23-.83,2.4-2.5,3.5a11.09,11.09,0,0,1-6.3,1.8,5.82,5.82,0,0,1-1.5-.18Q69.34,84,68.75,84a2.65,2.65,0,0,1-2.9-1.9,14.05,14.05,0,0,1-.1-2.3c-2-.1-3.42-.6-4.15-1.5A3.6,3.6,0,0,1,61,76a3.35,3.35,0,0,1,.3-1.65q.15-.21,1.8-2-4.9-2.55-4.9-5.4a3.55,3.55,0,0,1,.7-2.1,3.13,3.13,0,0,1,2.7-1.3,14.66,14.66,0,0,1,4.55,1.25c1.1.4,2.15.81,3.15,1.25a9.88,9.88,0,0,1,.9-4.45,1.1,1.1,0,0,0,.45-.6,2.51,2.51,0,0,1,3-.4,5.26,5.26,0,0,1,2,1.4.64.64,0,0,0,0,.15,1.57,1.57,0,0,0,.1.6A1,1,0,0,0,76.45,63.29ZM64.3,66.42c0-.67-.4-1.1-1.2-1.3s-1.2.2-1.2,1.1l.1.55a1,1,0,0,0,1,.7,1.35,1.35,0,0,0,.85-.4C64.15,66.83,64.3,66.62,64.3,66.42Zm.7-.3h-.45l-.1.2.1.35a1.2,1.2,0,0,0,.5-.1l.1-.2Zm.65,3.15a2.79,2.79,0,0,0,.35,1.3,2.09,2.09,0,0,0,2,1.15A2.52,2.52,0,0,0,69.85,71a2,2,0,0,0,.75-1.5,2.38,2.38,0,0,0-2.45-2.6C66.48,66.7,65.65,67.5,65.65,69.27Zm5.68,1.35A3.32,3.32,0,0,0,70,72a5.85,5.85,0,0,0-1.67,3.63s.1.6.3,1.7a2,2,0,0,0,1.9,1.6,1.49,1.49,0,0,0,.9-.4q1.59-1.36,3.9-7.2c0-2.22-.75-2.89-2.25-2a8,8,0,0,0-1.25.93Z"/></g></g></svg>