<svg xmlns="http://www.w3.org/2000/svg" viewBox="0 0 136.4 119.71"><defs><style>.cls-1{fill:#ee7500;}.cls-1,.cls-3{fill-opacity:0.3;}.cls-1,.cls-2,.cls-3,.cls-4,.cls-5,.cls-6{fill-rule:evenodd;}.cls-2{fill:#fff;fill-opacity:0.4;}.cls-3,.cls-5,.cls-6{fill:red;}.cls-4{fill:#fefefe;}.cls-5{fill-opacity:0.6;}.cls-6{fill-opacity:0.2;}</style></defs><g id="Layer_2" data-name="Layer 2"><g id="Layer_1-2" data-name="Layer 1"><path class="cls-1" d="M128.15,34.9a2,2,0,0,1,2.2,2.25,2.33,2.33,0,0,1-.6,1.65,2,2,0,0,1-1.6.7,1.94,1.94,0,0,1-1.9-1.1,2.43,2.43,0,0,1-.3-1.2C126,35.6,126.68,34.84,128.15,34.9Zm-80.9-4a4.67,4.67,0,0,1-2.7-2.38c-.47-1.76-.7-2.61-.7-2.55q0-7.29,4.3-3.35a26.57,26.57,0,0,1,4.3,5.5,3.23,3.23,0,0,1-.6,1.8,2.86,2.86,0,0,1-2.5,1.3,5.52,5.52,0,0,1-.58,0,1.11,1.11,0,0,0,.83-.83,2.84,2.84,0,0,0,.2-1.05c0-1.63-.67-2.58-2-2.85s-2,.35-2,1.85A3,3,0,0,0,46.3,30,2.72,2.72,0,0,0,47.25,30.88ZM49.8,84.65a1.53,1.53,0,0,1-.45.06q-7.85,0-11.3-12.21a50.52,50.52,0,0,1-1.6-8.4c-.2-2.56-.3-3.86-.3-3.89q0-9.76,6.45-19.81a26.54,26.54,0,0,1,4.45-5.55c1.33-1.2,2-1.33,2-.4a6.5,6.5,0,0,1-1.4,3.1c-1.3,1.74-2.33,3.15-3.1,4.25q-4.5,6.56-4.5,13.05a91.63,91.63,0,0,0,.62,12.4q.21-3.7,3.88-1.45,3.9,2.4,3.9,4c0,1.37-1,2-3.1,2a4.35,4.35,0,0,1-4.1-2.09l-.37-1.23c0,.28.11.53.17.77a25.28,25.28,0,0,0,3,7,22.73,22.73,0,0,1-1.82-2.88q-2.8-5.34-2.8-14.75a48,48,0,0,1,.2-5,20.16,20.16,0,0,1,1.2-5.35A35.65,35.65,0,0,1,44.8,40.9l2.35-3.4a1.13,1.13,0,0,0,0-.4c-.07,0-.1-.06-.1-.1q-9,5.25-9,21.71a59.27,59.27,0,0,0,.25,7.14,28.72,28.72,0,0,0,2.6,7.86,29.47,29.47,0,0,0,6.85,9.19A24.78,24.78,0,0,0,49.8,84.65Zm60.05-51.77,2.85-1.43.22-.12a2,2,0,0,1,1.53,2,1.65,1.65,0,0,1-.8,1.5,2.27,2.27,0,0,1-1.3.4,2.32,2.32,0,0,1-2.1-1.1,2.28,2.28,0,0,1-.4-1.2ZM98.55,24.5a3.83,3.83,0,0,1-3.4-1.6q-.6-1.59-.6-1.65,0-2.79,3-2.15a3.26,3.26,0,0,1,3,3.45,1.87,1.87,0,0,1-.6,1.35A1.92,1.92,0,0,1,98.55,24.5Zm-.3,15.2c0-1.83,1-2.71,3-2.65s3,1,3,2.6a2.43,2.43,0,0,1-1.1,2,3.53,3.53,0,0,1-2.2.8,2.45,2.45,0,0,1-2.3-1.2A2.76,2.76,0,0,1,98.25,39.7ZM89.6,50.65c-.9.16-1.35.79-1.35,1.9a1.91,1.91,0,0,0,2.1,1.85,2.57,2.57,0,0,0,.75-.1,2.91,2.91,0,0,1-.65,1.3,2.74,2.74,0,0,1-2.3,1.11,4.64,4.64,0,0,1-4.1-1.81,3.35,3.35,0,0,1-.7-1.95q0-3.75,3.9-3.15A6.11,6.11,0,0,1,89.6,50.65Zm-1,12.78a7.43,7.43,0,0,0,.1-1.33c0-2.13-.87-2.64-2.6-1.55S83.45,62.8,83.45,64a2.19,2.19,0,0,0,.15.83A3.91,3.91,0,0,1,82,63.21l-.65-2.11c0-2.76,1.27-3.8,3.8-3.1S89,60.1,89,62.21A2.56,2.56,0,0,1,88.6,63.43ZM15.77,76.33a3.26,3.26,0,0,1-.52-.83l-.4-1.79q0-3.7,4-3.71c2.63,0,3.95,1.14,3.95,3.4a2,2,0,0,1-.2.78c-.12-2.71-1.28-4-3.5-3.93s-3.5,1.39-3.5,3.75C15.55,74.1,15.62,74.87,15.77,76.33Zm98-3.62a1.27,1.27,0,0,0,1.15-.91,2.73,2.73,0,0,0,.25-1,1.46,1.46,0,0,0-1.7-1.65c-1.13,0-1.7.57-1.7,1.61l.35,1A1.79,1.79,0,0,0,113.75,72.71Zm-72.6-5.66.3,1a2,2,0,0,0,1.9,1,1.72,1.72,0,0,0,1.3-.45,1.21,1.21,0,0,0,.4-.9A2,2,0,0,0,43.1,65.6C41.8,65.4,41.15,65.89,41.15,67.05Zm75.7,5.25a3.27,3.27,0,0,1-5.5,0,3.68,3.68,0,0,1-.5-1.8q0-3.54,3.3-3.2c2.2.24,3.3,1.3,3.3,3.2A3.55,3.55,0,0,1,116.85,72.3Zm-25.73,17a4,4,0,0,1,3.93-3.59q4-.55,4,3.79a5.21,5.21,0,0,1-.9,2.71,3.63,3.63,0,0,1-3.2,2,3.58,3.58,0,0,1-3.4-1.81q-.09-.32-.15-.6a1.77,1.77,0,0,0,1.55.66c.27,0,.92-.56,2-1.66s1.55-1.8,1.55-2.09q0-2.05-2.7-1.5A3,3,0,0,0,91.12,89.3ZM71.25,86.5a2,2,0,0,1-1.9,1.1,2.09,2.09,0,0,1-2-1.1,2.43,2.43,0,0,1-.3-1.2A2.05,2.05,0,0,1,69.35,83c1.53,0,2.3.73,2.3,2.19A2.65,2.65,0,0,1,71.25,86.5Zm-16.6-5.42q.12-2.52,2.85-2.43c1.9.07,2.85,1,2.85,2.75a2.71,2.71,0,0,1-.5,1.5,2.32,2.32,0,0,1-2.1,1.1,4.09,4.09,0,0,1-1.83-.35c0-.19,0-.35,0-.44C56,82,55.52,81.24,54.65,81.08Zm1.87,5-.85-.45c0-.32.09-.61.13-.88A1.94,1.94,0,0,1,56.52,86.13ZM50.22,85l.7.5.08.77a2.06,2.06,0,0,0,2,1.8,2.74,2.74,0,0,0,1.77-.5c.38.15.74.27,1.1.38a.23.23,0,0,1-.07.07,4.28,4.28,0,0,1-2.9.8,3.37,3.37,0,0,1-2.9-1.09,2,2,0,0,1-.4-1.21A2.06,2.06,0,0,1,50.22,85ZM43.27,96.4h.08c.33,0,1-.46,2-1.4a8,8,0,0,0,1.42-1.52C48.24,94,49,94.71,49,95.75a1.85,1.85,0,0,1-.6,1.35,1.93,1.93,0,0,1-1.4.61c-1.67,0-2.8-.31-3.4-.91A1.3,1.3,0,0,1,43.27,96.4Zm11.28,7A2.5,2.5,0,0,1,52,101.9a3.65,3.65,0,0,1-.35-1.65q0-3.19,3.15-3.15T58,99.8a3.71,3.71,0,0,1-.7,2.1A3,3,0,0,1,54.55,103.4Zm-.6-.55a3,3,0,0,0,2-.6,1.69,1.69,0,0,0,.65-1.35c0-1.19-.8-1.85-2.4-1.94s-2.4.53-2.4,1.89c0,0,.08.39.25,1.05A1.93,1.93,0,0,0,54,102.85Z"/><path class="cls-2" d="M129.55,40.65a2,2,0,0,1,1-.7,1.33,1.33,0,0,1,.8,0l.15.3a2.68,2.68,0,0,1-.9.45,3.79,3.79,0,0,1-.7.15c-.2,0-.32,0-.35,0A.17.17,0,0,0,129.55,40.65Zm-80-30.1a36.32,36.32,0,0,1,3.2,11.35.59.59,0,0,1-.4.4,25.78,25.78,0,0,1-2.2-5.95,29.55,29.55,0,0,1-1.1-4.65A1.32,1.32,0,0,1,49.55,10.55Zm-.78,20.63a.78.78,0,0,1-.22,0,2.51,2.51,0,0,1-1.3-.32,2.72,2.72,0,0,1-1-.93,3,3,0,0,1-.55-1.65c0-1.5.68-2.11,2-1.85s2,1.22,2,2.85a2.84,2.84,0,0,1-.2,1.05A1.11,1.11,0,0,1,48.77,31.18ZM50.22,85l-.42-.33a24.78,24.78,0,0,1-2-1.75,29.47,29.47,0,0,1-6.85-9.19,28.72,28.72,0,0,1-2.6-7.86,59.27,59.27,0,0,1-.25-7.14q0-16.45,9-21.71s0,.07.1.1a1.13,1.13,0,0,1,0,.4L44.8,40.9a35.65,35.65,0,0,0-3.95,7.35,20.16,20.16,0,0,0-1.2,5.35,48,48,0,0,0-.2,5q0,9.41,2.8,14.75a22.73,22.73,0,0,0,1.82,2.88,30.47,30.47,0,0,0,7,6.6,3.2,3.2,0,0,1,2.3-1.73,3,3,0,0,1,1.25-.07c.87.16,1.3.87,1.3,2.13,0,.09,0,.25,0,.44s-.06.67-.12,1.15c0,.27-.08.56-.13.88l.85.45c1.14.6,2.33,1.17,3.58,1.72-.1.4-.28.61-.55.61a13.12,13.12,0,0,1-3.63-.53c-.36-.11-.72-.23-1.1-.38a2.74,2.74,0,0,1-1.77.5,2.06,2.06,0,0,1-2-1.8l-.08-.77Zm62.7-53.65-.22.12-2.85,1.43-1.5.72-.35-.1q-.15-.09-.15-.45t3.85-2.3a31.66,31.66,0,0,1,4.5-2.05l.2.05s0,.1,0,.3S115.27,30.1,112.92,31.33ZM101.2,25.5a1.36,1.36,0,0,1,1.45.05,7.31,7.31,0,0,1-1.7,1c-.2.17-.3.09-.3-.25A.9.9,0,0,1,101.2,25.5ZM91.1,54.3a2.57,2.57,0,0,1-.75.1,1.91,1.91,0,0,1-2.1-1.85c0-1.11.45-1.74,1.35-1.9a4.5,4.5,0,0,1,.9,0q2.25.26,2.25,1.8a1.74,1.74,0,0,1-.7,1.35A2.24,2.24,0,0,1,91.1,54.3ZM83.6,64.83a2.19,2.19,0,0,1-.15-.83q0-1.8,2.65-3.45c1.73-1.09,2.6-.58,2.6,1.55a7.43,7.43,0,0,1-.1,1.33,3.42,3.42,0,0,1-.3,1.07,3,3,0,0,1-3,1.5,1.65,1.65,0,0,1-1.65-1A.88.88,0,0,1,83.6,64.83Zm-61,9.35v.42a5,5,0,0,1-.8,2.5,4,4,0,0,1-3.6,2c-1.17,0-1.95-.81-2.35-2.45l0-.32c-.15-1.46-.22-2.23-.22-2.33q0-3.54,3.5-3.75C21.27,70.16,22.43,71.47,22.55,74.18Zm18.6-7.13c0-1.16.65-1.65,2-1.45a2,2,0,0,1,1.95,2.15,1.21,1.21,0,0,1-.4.9,1.72,1.72,0,0,1-1.3.45,2,2,0,0,1-1.9-1Zm72.6,5.66a1.79,1.79,0,0,1-1.65-1l-.35-1c0-1,.57-1.57,1.7-1.61a1.46,1.46,0,0,1,1.7,1.65,2.73,2.73,0,0,1-.25,1A1.27,1.27,0,0,1,113.75,72.71ZM91.12,89.3a3,3,0,0,1,2.63-2.09q2.7-.55,2.7,1.5c0,.29-.52,1-1.55,2.09s-1.68,1.66-2,1.66a1.77,1.77,0,0,1-1.55-.66,2.28,2.28,0,0,1-.4-1.45A4.32,4.32,0,0,1,91.12,89.3ZM84.5,98.1c0-.6.38-.86,1.15-.8s1.15.32,1.15.75a.75.75,0,0,1-.4.66,1.82,1.82,0,0,1-1,.25.85.85,0,0,1-.85-.41A3,3,0,0,1,84.5,98.1ZM46.82,93.48A8,8,0,0,1,45.4,95c-1,.94-1.72,1.4-2,1.4h-.08a1,1,0,0,1-.87-.55,5.49,5.49,0,0,1-.15-.6c0-.74.52-1.36,1.57-1.85l.58-.22a14.59,14.59,0,0,1,2.4-.58s0,.07.1.11a1,1,0,0,1,.05.39A.78.78,0,0,1,46.82,93.48ZM54,102.85a1.93,1.93,0,0,1-1.9-.95c-.17-.66-.25-1-.25-1.05,0-1.36.8-2,2.4-1.89s2.4.75,2.4,1.94a1.69,1.69,0,0,1-.65,1.35A3,3,0,0,1,54,102.85Z"/><path class="cls-3" d="M134.7,40a31.64,31.64,0,0,0-5,.6c-.93.24-2.43.72-4.5,1.45-1.83.67-2.77,1-2.8,1q-.7,0-.9-.45a1.51,1.51,0,0,1,0-.5q0-1.7,7.5-3.55c5-1.26,7.5-1.15,7.5.35C136.4,39.57,135.83,39.94,134.7,40Zm-1.9-.8-.1-.2a34.39,34.39,0,0,0-4.6,1.1c-2.5.67-3.75,1.15-3.75,1.45l.05.35.35.1c.23-.1,1.77-.58,4.6-1.45Q132.8,39.46,132.8,39.2ZM52.65,10.8a23.8,23.8,0,0,1,1.55,3.65c0,.6-.28.9-.85.9s-1.2-.73-1.7-2.2L51.1,11.1Q51.1,7.86,52.65,10.8Zm-.2,1.8a.4.4,0,0,0,.25-.15c0,.07,0,0,0-.15a5.26,5.26,0,0,0-.6-1.5q-.6-1.14-.6-.15a3.9,3.9,0,0,0,.25,1C52,12.29,52.22,12.6,52.45,12.6ZM50.2,15.38c0,.08.07.15.1.22.37.84.72,1.3,1.05,1.4A13.61,13.61,0,0,0,50,13.65a.53.53,0,0,0-.15.15v-.05c0-1.5.57-1.46,1.7.1s1.7,2.72,1.7,3.45a.9.9,0,0,1-.35.7,1.08,1.08,0,0,1-.7.3c-.67,0-1.27-.78-1.8-2.35ZM83,59.9l-28,.1-.95.1L49,60v.15l.7.2,52,.2a8.32,8.32,0,0,1,1.7-.2l.15-.14,0,0,4.88.07a1.51,1.51,0,0,1,.8.4,2,2,0,0,1,.2.45,19.62,19.62,0,0,1,2.9.25c-.07,0-1,.09-2.9.15a2.07,2.07,0,0,1-.2.46,1.86,1.86,0,0,1-.8.39l-35.6-.3q-26.7-1-26.7-2.34c0-.44,1.82-.57,5.45-.41q10.8.45,19.75.41Zm18.25-31.45A18.82,18.82,0,0,0,104,26.8a17.64,17.64,0,0,1,2.65-.4s0,.07.1.1a1.13,1.13,0,0,1,0,.4q0,1.3-4.8,2.1a.62.62,0,0,1-.65-.35C101.29,28.57,101.28,28.5,101.27,28.45Zm8,4.68c-.72.56-1.55,1.18-2.47,1.87a.93.93,0,0,1-.4,0,3.11,3.11,0,0,0-.25-.2s0-.11,0-.45c0-1.3,1.22-2.66,3.65-4.1s3.65-1.58,3.65-.35a24.85,24.85,0,0,1-2.88,2.33L110.4,32a12.4,12.4,0,0,0-2.25.85c-1.33.6-2,1-2,1.25a.23.23,0,0,0,.2.25C107.58,33.88,108.54,33.47,109.22,33.13ZM6.45,62.15h-.8c-1.23.1-2.1.19-2.6.25-.9.1-1.33.31-1.3.6l.2.1c.13,0,.67-.1,1.6-.2l.6-.07c-.54.18-1.12.38-1.75.63C1.47,63.82,1,64,1,64a.81.81,0,0,1-.85-.54c-.07-.37-.1-.57-.1-.61,0-1.33,2.08-2.3,6.25-2.89s6.2-.31,6.2.89c0,.37-.33.55-1,.55A20.68,20.68,0,0,0,6.45,62.15ZM19.7,91.3c0-.93,1.23-2.3,3.7-4.09s3.65-1.89,3.65-.36c0,.54-.93,1.49-2.8,2.86s-2.88,2.43-2.95,3.09a1.16,1.16,0,0,1-.75.2c-.3,0-.53-.26-.7-.79A3.25,3.25,0,0,1,19.7,91.3Zm85.75-18.65,4.4,1.65.2-.2a84.45,84.45,0,0,0-8.5-3.64C102,71.05,103.25,71.79,105.45,72.65Zm-85,18.56c0,.16,0,.19.05.09A15.9,15.9,0,0,0,22,89.9,4.79,4.79,0,0,0,23,88.55c0-.09-.08-.18-.25-.25-.6.6-1,1-1.2,1.25C20.82,90.35,20.45,90.9,20.45,91.21Zm63.15,7h-.15l-.1.94a28.61,28.61,0,0,0,1.05,3.56,40.34,40.34,0,0,0,1.6,4.44l.1-.1a26.3,26.3,0,0,0-1.2-4.4A38,38,0,0,1,83.6,98.21Zm25.92-20.88c1,.41,2.47,1.1,4.33,2.07q3.65,2,5.3,2.65a.19.19,0,0,0,.15-.2c-1.77-1-3.57-2-5.4-2.89-1.07-.53-2-1-2.78-1.28a34.12,34.12,0,0,1,3.73,1.42q7.16,3.11,7.15,4a.85.85,0,0,1-.3.7.84.84,0,0,1-.55.21q-1.91,0-8-3.06a54.59,54.59,0,0,0-5.5-2.6C107.7,77.52,108.31,77.19,109.52,77.33Zm4.18-1.93a.93.93,0,0,1-.75.35c-1.23,0-3.57-.81-7-2.45l-4.8-2.45q0-1.8,6.45.45t6.4,3.41A1.06,1.06,0,0,1,113.7,75.4ZM87.85,107.6a1,1,0,0,1-.7.3c-1.13,0-2.22-1.43-3.25-4.3l-1.25-4.3q0-5.79,2.75.3a65.9,65.9,0,0,1,2.75,7.3A1,1,0,0,1,87.85,107.6ZM57.3,98.71q-2.85,7.74-4.35,7.75c-.6,0-1-.22-1.1-.66s-.05-.61-.05-.65q0-2.85,2.75-6.1C56.38,96.89,57.3,96.77,57.3,98.71Zm-9.85-6.66a26.56,26.56,0,0,0-2.05,3l-.6,2.8c-.3,1.37-.78,2.05-1.45,2.05s-1-.41-1.2-1.25S42,97.34,42,97.3q0-2.6,3.45-6.7t3.4-.75A10.56,10.56,0,0,1,47.45,92.05ZM57.6,107.6h-.3a9.76,9.76,0,0,1-1.2,3.45,6.33,6.33,0,0,0-.9,3c0,.14,0,.22.15.25a.29.29,0,0,0,.2-.15c0-.16.42-1.11,1.15-2.85a10.94,10.94,0,0,0,.95-3.15Zm-1.55-7.8c0-.09-.07-.16-.2-.2a24.25,24.25,0,0,0-1.5,3.3,17.52,17.52,0,0,0-1,2.5c0,.24.13.35.4.35S54.85,103.77,56.05,99.8Zm-13.2-2.5.3.1a36.25,36.25,0,0,1,2.3-3.35,28.39,28.39,0,0,0,2.15-3.4,16.44,16.44,0,0,0-2.05,2.45A22.87,22.87,0,0,0,42.85,97.3Zm16.6,10.2q-3.56,8.16-4.5,8.15a1,1,0,0,1-1-.55,5.49,5.49,0,0,1-.15-.6,11.5,11.5,0,0,1,2.85-7.1Q59.46,103.86,59.45,107.5Zm23.67,11.4a1.08,1.08,0,0,1-.17.4,1,1,0,0,1-.8.41c-.9,0-1.52-1.29-1.85-3.86l-.25-3.7q0-6.09,1.55-.55a38.13,38.13,0,0,1,1.55,7.11v.12a28.33,28.33,0,0,0-.55-3,9,9,0,0,0-1.35-2.95l-.1.06c-.07,0-.1,0-.1.14s.22.89.65,2.36a28,28,0,0,1,.85,3.44l.3.1Z"/><path class="cls-4" d="M132.8,39.2q0,.25-3.45,1.35c-2.83.87-4.37,1.35-4.6,1.45l-.35-.1-.05-.35c0-.3,1.25-.78,3.75-1.45a34.39,34.39,0,0,1,4.6-1.1ZM52.45,12.6c-.23,0-.45-.31-.65-.95a3.9,3.9,0,0,1-.25-1q0-1,.6.15a5.26,5.26,0,0,1,.6,1.5c0,.17,0,.22,0,.15A.4.4,0,0,1,52.45,12.6ZM49.8,13.8a.53.53,0,0,1,.15-.15A13.61,13.61,0,0,1,51.35,17c-.33-.1-.68-.56-1.05-1.4,0-.07-.07-.14-.1-.22a4.35,4.35,0,0,1-.4-1.53Zm53.67,46.38,0,0-.15.14a8.32,8.32,0,0,0-1.7.2l-52-.2-.7-.2V60l5.15.1.95-.1,28-.1h18.63a4,4,0,0,0,.95.06A1.07,1.07,0,0,1,103.47,60.18ZM104,26.8a18.82,18.82,0,0,1-2.68,1.65l-1.32.7a.31.31,0,0,1-.25-.3c0-.2.73-.76,2.2-1.7s2.2-1.15,2.2-.55C104.1,26.65,104.05,26.71,104,26.8Zm6.52,5.38,0,0c0,.21-.43.52-1.28.93-.68.34-1.64.75-2.87,1.22a.23.23,0,0,1-.2-.25c0-.23.67-.65,2-1.25A12.4,12.4,0,0,1,110.4,32ZM4.15,62.83l-.6.07c-.93.1-1.47.17-1.6.2l-.2-.1c0-.29.4-.5,1.3-.6.5-.06,1.37-.15,2.6-.25H9.5l1.2.2.05.15-.05.25-5.3,0C5.22,62.71,4.8,62.75,4.15,62.83Zm16.3,28.38c0-.31.37-.86,1.1-1.66.2-.23.6-.65,1.2-1.25.17.07.25.16.25.25A4.79,4.79,0,0,1,22,89.9a15.9,15.9,0,0,1-1.45,1.4C20.47,91.4,20.45,91.37,20.45,91.21Zm85-18.56c-2.2-.86-3.5-1.6-3.9-2.19a84.45,84.45,0,0,1,8.5,3.64l-.2.2Zm4.07,4.68-.47-.18V77a12.76,12.76,0,0,1,2.07.68c.78.32,1.71.75,2.78,1.28,1.83.89,3.63,1.86,5.4,2.89a.19.19,0,0,1-.15.2q-1.65-.69-5.3-2.65C112,78.43,110.54,77.74,109.52,77.33ZM83.6,98.21a38,38,0,0,0,1.3,4.44,26.3,26.3,0,0,1,1.2,4.4l-.1.1a40.34,40.34,0,0,1-1.6-4.44,28.61,28.61,0,0,1-1.05-3.56l.1-.94ZM42.85,97.3a22.87,22.87,0,0,1,2.7-4.2,16.44,16.44,0,0,1,2.05-2.45,28.39,28.39,0,0,1-2.15,3.4,36.25,36.25,0,0,0-2.3,3.35Zm13.2,2.5q-1.8,6-2.25,6c-.27,0-.4-.11-.4-.35a17.52,17.52,0,0,1,1-2.5,24.25,24.25,0,0,1,1.5-3.3C56,99.64,56.05,99.71,56.05,99.8Zm1.55,7.8,0,.5a10.94,10.94,0,0,1-.95,3.15c-.73,1.74-1.12,2.69-1.15,2.85a.29.29,0,0,1-.2.15c-.1,0-.15-.11-.15-.25a6.33,6.33,0,0,1,.9-3,9.76,9.76,0,0,0,1.2-3.45Zm25.52,11.3-.27.1-.3-.1a28,28,0,0,0-.85-3.44c-.43-1.47-.65-2.25-.65-2.36s0-.14.1-.14l.1-.06a9,9,0,0,1,1.35,2.95,28.33,28.33,0,0,1,.55,3v.07Z"/><path class="cls-5" d="M127.2,45.3q0,.71-16,7.5-16.4,7-20,7a2.6,2.6,0,0,1-2-.65,1.32,1.32,0,0,1-.35-.9q0-2.43,17-7.85a.44.44,0,0,0,0-.1c-.1-.7-.15-1.06-.15-1.1.7-2.16,1-3.3,1-3.4a2.22,2.22,0,0,0-.25-.85,2.56,2.56,0,0,1-.25-.9q0-3.54,6.7-.55a41.71,41.71,0,0,1,5.62,3.13c2.48-.71,5-1.38,7.43-2l1.15.1A2.45,2.45,0,0,0,127.2,45.3Zm-8.68,1.33-.12,0a26.25,26.25,0,0,1-3.9.4q-.8,0-4.1-2.2c-1.87-1.23-2.8-1.63-2.8-1.2a1.75,1.75,0,0,0,.85,1.35,2.33,2.33,0,0,1,.8,1.9q0,1.37-3,3.35l-.42.28a41.92,41.92,0,0,1-3.68,2.07c-4.7,2.17-7,3.36-7,3.55s0,.34.1.31l.35,0q1.91,0,13.6-4.35,4.44-1.65,7.77-3c.81-.33,1.57-.63,2.28-.93q3.48-1.43,5.45-2.4l0-.3h-.75c-.73.2-2,.47-3.85.8l-1.5.28ZM91.77,13.18c-2.41,3.91-3.62,6.09-3.62,6.52,0,.24,0,.35,0,.35a.76.76,0,0,0,.35.05q.65-1.09,5.85-9a70.66,70.66,0,0,0,5-8.72q3.48-4.08,3.48-1,0,2.31-7,11.6-6.7,8.91-7.1,8.9a.85.85,0,0,1-.9-.5,1.33,1.33,0,0,1-.1-.6Q87.8,19.34,91.77,13.18ZM59.7,49.9a1.25,1.25,0,0,1-.3.25,2.62,2.62,0,0,1-1.5.4c-1.07,0-1.6-.48-1.6-1.45s.62-1.45,1.85-1.15,1.78.74,1.8,1.33a2.37,2.37,0,0,0-.8,0v.35l.2.2A.69.69,0,0,0,59.7,49.9Zm20-29.72a5.79,5.79,0,0,0-2,3A16.36,16.36,0,0,0,77,26.55v.05a1.38,1.38,0,0,1-1.15-.9l-.35-.9q0-.75,1.8-2.7A8,8,0,0,1,79.65,20.18Zm-2.23,6.37a18.59,18.59,0,0,0,2-3,10.77,10.77,0,0,0,1.5-3.3,2.45,2.45,0,0,1-.1-.35h0a.44.44,0,0,0,.1.2.67.67,0,0,1,.1.45Q79.12,26,77.42,26.55ZM27.62,24.6C26.24,23,25.55,22,25.55,21.55c0-1.15.4-1.63,1.2-1.45q.46-2.14,4.15.75,4.16,3.3,4.15,4.35a1.57,1.57,0,0,1-.88,1.48c.43.51.85,1,1.28,1.57a1.52,1.52,0,0,1-.4,1.05,1.45,1.45,0,0,1-1,.4,4.45,4.45,0,0,1-2.5-1.15A6.55,6.55,0,0,0,32.3,31a6.8,6.8,0,0,1,.75,1.85,1,1,0,0,1-.1.45q2.55,3.36,5.95,7.6A1.47,1.47,0,0,0,39,41q-.39-1-.6-1.53.35.55,5.85,7.55,4.3,5.61,4.3,6.15c0,1.17-.8,1.75-2.4,1.75q-4,0-13.15-9.45-9.15-10.2-10.8-11.8-4.39-4.24-9.5-10-8.29-9.34-8.3-12.1c0-1.72,2.35-.07,7,5,1,.68,2.16,1.49,3.45,2.42q7.41,5.4,10.82,6.63a16,16,0,0,1-8.22-2.53l-.65-.52a32.19,32.19,0,0,0-3.5-2.63A10.92,10.92,0,0,1,9.65,17C8.75,15.69,8,14.7,7.38,14l-.18-.23H7.05l0,.1A36,36,0,0,0,12,20.38c.94,1.05,2,2.15,3.15,3.32q3.45,3.4,10.35,10L37.15,45.8q7.91,8,9.5,8h.2c.07.07.1,0,.1-.3a2.29,2.29,0,0,0-.1-.65,11.86,11.86,0,0,0-2.7-3.95q-2.05-2.06-3.65-3.67T38,42.6A55.62,55.62,0,0,1,33.07,37,32.85,32.85,0,0,1,31,34a19.79,19.79,0,0,1-1.14-2.32,12.83,12.83,0,0,1-.71-2.18A9.85,9.85,0,0,1,29,27.7v-.25a2.47,2.47,0,0,1,.15-.75l.12-.32a1.61,1.61,0,0,1,.38-.53h1.9a3,3,0,0,1,1,.5,1.75,1.75,0,0,0,.75.45c.17,0,.27,0,.3-.1v-.1A24.09,24.09,0,0,0,30,22.75a19.84,19.84,0,0,0-2.35-2.1,1.48,1.48,0,0,1-.45.1v.75a1.77,1.77,0,0,0,.07.43c.05.21.12.48.23.82a5.39,5.39,0,0,1,.3,1.35A1.31,1.31,0,0,1,27.62,24.6ZM64.27,53.88a2.2,2.2,0,0,1-1.07.45,1.51,1.51,0,0,1-.3,0c-.6,0-1-.2-1.1-.6a1.3,1.3,0,0,1-.1-.65c0-.7.32-1.06.95-1.1a4.27,4.27,0,0,1,2.4,1A3.47,3.47,0,0,1,64.27,53.88Zm-1,8.6a2.15,2.15,0,0,1-.1-.68q0-1.69,2.7-5.45t2.65-.85a36,36,0,0,1-2.8,7.21c-.36.56-.68.84-1,.84a1.42,1.42,0,0,1-1.4-.84C63.36,62.63,63.33,62.55,63.3,62.48Zm7.1-7.68c0-.7.88-1.36,2.65-2s2.65-.46,2.65.5a2.7,2.7,0,0,1-1,1.6,3.85,3.85,0,0,1-2.8,1.25,1.28,1.28,0,0,1-1.25-.65A1.15,1.15,0,0,1,70.4,54.8Zm1.5-.5-.05.25L72,55a5.76,5.76,0,0,0,1.45-.21,2.73,2.73,0,0,0,.95-.4.41.41,0,0,0-.25-.15l-.2-.05A4.79,4.79,0,0,0,71.9,54.3Zm-8.45-.4a1.88,1.88,0,0,0-.1-.75H62.7l-.1.1v.35c0,.3,0,.47.1.5s.15.07.35.1A.61.61,0,0,0,63.45,53.9Zm1.75,7.35a.68.68,0,0,0,.75.65c.07,0,.68-1.76,1.85-5.3,0-1-.43-.81-1.3.45a6.32,6.32,0,0,0-1.35,3.45A2.94,2.94,0,0,0,65.2,61.25ZM26.32,25.6l-.17-.3c0-.56.22-.9.65-1,.17.31.36.62.58.95a1.67,1.67,0,0,0-.08.3l-.75.05ZM36.7,65.05q0,.86-5.4,2.45a31.07,31.07,0,0,1-7.75,1.55,1.29,1.29,0,0,1-1.15-.5,1.1,1.1,0,0,1-.2-.59c0-.94,1.05-1.64,3.15-2.11q2.29-.5,11.2-1.39s0,.08.1.14A1.12,1.12,0,0,1,36.7,65.05Zm-3.4,1-.2-.4a40.24,40.24,0,0,0-4.3.5c-2.6.4-3.9.75-3.9,1.06s.07.48.2.54a1.15,1.15,0,0,0,.45.15q.7-.09,3.75-.6A12.24,12.24,0,0,0,33.3,66.05Zm-6.6,41.66q0-1.81,11.1-14.31T48.85,84q0,1.5-9.35,11.75-4.84,5.35-11.95,12.85a4.47,4.47,0,0,1-.6-.45A.55.55,0,0,1,26.7,107.71ZM65.3,89.15l-.2,6.95q0,.66.3,7.25a1,1,0,0,0,.7-.2L65.65,89.1ZM36.9,95.46,28.65,106.3c0,.17.17.27.4.3Q41,92.65,46.1,85.46A60.15,60.15,0,0,0,36.9,95.46Zm27.45-5.91q.25-4.14,1.2-3.2c.6-.5,1,.64,1.15,3.4.07.9.1,2.55.1,5q0,5.54-.35,10.5c0,.23-.25.34-.65.34q-1.24,0-1.5-5.59V94.6C64.3,91.94,64.32,90.25,64.35,89.55Z"/><path class="cls-4" d="M118.52,46.63h0l1.5-.28c1.83-.33,3.12-.6,3.85-.8h.75l0,.3q-2,1-5.45,2.4c-.71.3-1.47.6-2.28.93q-3.33,1.32-7.77,3Q97.5,56.5,95.6,56.5l-.35,0c-.07,0-.1-.07-.1-.31s2.35-1.38,7-3.55a41.92,41.92,0,0,0,3.68-2.07l.42-.28q3-2,3-3.35a2.33,2.33,0,0,0-.8-1.9,1.75,1.75,0,0,1-.85-1.35c0-.43.93,0,2.8,1.2q3.3,2.2,4.1,2.2a26.25,26.25,0,0,0,3.9-.4ZM99.42,2.33a70.66,70.66,0,0,1-5,8.72q-5.2,8-5.85,9.05a.76.76,0,0,1-.35-.05s0-.11,0-.35c0-.43,1.21-2.61,3.62-6.52l.53-.88A74,74,0,0,1,99.6,2C99.55,2.07,99.49,2.2,99.42,2.33Zm-22,24.22a2.12,2.12,0,0,1-.32.3c-.1.23-.15.15-.15-.25v-.05a16.36,16.36,0,0,1,.75-3.35,5.79,5.79,0,0,1,2-3,2.42,2.42,0,0,1,1.15-.38v.1a2.45,2.45,0,0,0,.1.35,10.77,10.77,0,0,1-1.5,3.3A18.59,18.59,0,0,1,77.42,26.55ZM59.7,49.9a.69.69,0,0,1-.35,0l-.2-.2V49.3a2.37,2.37,0,0,1,.8,0,3.48,3.48,0,0,1,.65.17v.2a1.08,1.08,0,0,1-.8.25Zm-34-24.32.6,0h.23l.75-.05a1.67,1.67,0,0,1,.08-.3,2,2,0,0,1,.22-.6l0,0a1.31,1.31,0,0,0,.13-.5,5.39,5.39,0,0,0-.3-1.35c-.11-.34-.18-.61-.23-.82a1.77,1.77,0,0,1-.07-.43v-.75a1.48,1.48,0,0,0,.45-.1A19.84,19.84,0,0,1,30,22.75,24.09,24.09,0,0,1,33.5,26.6v.1c0,.07-.13.1-.3.1a1.75,1.75,0,0,1-.75-.45,3,3,0,0,0-1-.5H29.6a1.61,1.61,0,0,0-.38.53l-.12.32a2.47,2.47,0,0,0-.15.75v.25a9.85,9.85,0,0,0,.22,1.75,12.83,12.83,0,0,0,.71,2.18A19.79,19.79,0,0,0,31,34,32.85,32.85,0,0,0,33.07,37,55.62,55.62,0,0,0,38,42.6Q39,43.71,40.5,45.18q1.59,1.62,3.65,3.67a11.86,11.86,0,0,1,2.7,3.95,2.29,2.29,0,0,1,.1.65c0,.27,0,.37-.1.3h-.2q-1.6,0-9.5-8L25.5,33.7q-6.9-6.6-10.35-10C14,22.53,12.94,21.43,12,20.38a36,36,0,0,1-4.9-6.53l0-.1H7.2l.18.23c.61.72,1.37,1.71,2.27,3a10.92,10.92,0,0,0,3.7,2.95,32.19,32.19,0,0,1,3.5,2.63l.65.52A16,16,0,0,0,25.72,25.58ZM71.9,54.3a4.79,4.79,0,0,1,2-.15l.2.05a.41.41,0,0,1,.25.15,2.73,2.73,0,0,1-.95.4A5.76,5.76,0,0,1,72,55l-.1-.41Zm-8.45-.4a.61.61,0,0,1-.4.3c-.2,0-.32-.06-.35-.1s-.1-.2-.1-.5v-.35l.1-.1h.65A1.88,1.88,0,0,1,63.45,53.9Zm1.75,7.35a2.94,2.94,0,0,1,0-.75,6.32,6.32,0,0,1,1.35-3.45c.87-1.26,1.3-1.41,1.3-.45C66.63,60.14,66,61.9,66,61.9A.68.68,0,0,1,65.2,61.25Zm-31.9,4.8a12.24,12.24,0,0,1-4,1.25q-3,.51-3.75.6a1.15,1.15,0,0,1-.45-.15c-.13-.06-.2-.25-.2-.54s1.3-.66,3.9-1.06a40.24,40.24,0,0,1,4.3-.5Zm3.6,29.41a60.15,60.15,0,0,1,9.2-10q-5.1,7.19-17,21.14c-.23,0-.37-.13-.4-.3Zm28.4-6.31.35-.05.45,14.05a1,1,0,0,1-.7.2q-.3-6.59-.3-7.25Z"/><path class="cls-6" d="M65.75,62.71a36,36,0,0,0,2.8-7.21q0-2.94-2.65.85T63.2,61.8a2.15,2.15,0,0,0,.1.68q-3.64-.73-3.65-3.58a4.58,4.58,0,0,1,1.75-3.35,8.78,8.78,0,0,1,1.8-1.22,2.2,2.2,0,0,0,1.07-.45c.32-.11.65-.2,1-.28,3.73-.86,5.6.5,5.6,4.11,0,.66-.63,1.66-1.9,3s-2.2,2-2.8,2Z"/></g></g></svg>