<svg xmlns="http://www.w3.org/2000/svg" viewBox="0 0 140.75 107.14"><defs><style>.cls-1{fill:#fff;fill-opacity:0.4;}.cls-1,.cls-2,.cls-3{fill-rule:evenodd;}.cls-2{fill:red;fill-opacity:0.3;}.cls-3{fill:#fefefe;}</style></defs><g id="Layer_2" data-name="Layer 2"><g id="Layer_1-2" data-name="Layer 1"><path class="cls-1" d="M87.4,51.48c.47,0,.7.3.7.9s-.23.9-.7.9a.63.63,0,0,1-.7-.55v-.4C86.7,51.76,86.93,51.48,87.4,51.48Zm5.3-9.95a2.14,2.14,0,0,1-.35-1q0-1.5,1.65-1.35t1.65,1.65a1.76,1.76,0,0,1-.3,1,1.3,1.3,0,0,1-1.15.6A1.69,1.69,0,0,1,92.7,41.53ZM40.8,57.48a.81.81,0,0,1-.85-.55l-.05-.4c0-.57.3-.85.9-.85a.8.8,0,0,1,.9.9.82.82,0,0,1-.35.7A1,1,0,0,1,40.8,57.48Zm-26.9,9.6c.73-.2,1.1.1,1.1.9a4.18,4.18,0,0,1-.2,1.2c-.23.67-.57,1-1,1a.93.93,0,0,1-1-.75c0-.5-.05-.77-.05-.8A1.44,1.44,0,0,1,13.9,67.08ZM118.15,64c0-1.1.67-1.58,2-1.45s2,.75,2,1.85a1.08,1.08,0,0,1-.4.85,1.65,1.65,0,0,1-1.15.4C119,65.63,118.15,65.08,118.15,64ZM95.3,82.68A1.6,1.6,0,0,1,95,81.53c0-1.53,1.12-2.23,3.35-2.1s3.35.8,3.35,2.1A1.58,1.58,0,0,1,101,83a5.91,5.91,0,0,1-2.65.4Q96,83.43,95.3,82.68ZM88.1,91c1,.3,1.55.77,1.55,1.4s-.45,1.05-1.35,1.05a1.66,1.66,0,0,1-1.55-.75l-.2-.7C86.55,91,87.07,90.65,88.1,91ZM48.6,75.78c-.8-.4-1.2-.82-1.2-1.25,0-1,.77-1.42,2.3-1.15s2.25,1,2.25,2a.92.92,0,0,1-.25.6.9.9,0,0,1-.7.35A5.47,5.47,0,0,1,48.6,75.78Z"/><path class="cls-2" d="M134.05,29c1.67-.44,2.5-.75,2.5-1s0-.15-.05-.15h-.05c-2.67.19-4.21.52-4.62,1a1.86,1.86,0,0,1-1-.37c-.07-.07-.1-.27-.1-.6,0-.67.48-1,1.45-1.05a24.23,24.23,0,0,1,5.65.8l.15.3c0,.2-.15.38-.45.55A8.54,8.54,0,0,1,134.05,29Zm-8.15,44.6a3.59,3.59,0,0,1-.9.1,5.67,5.67,0,0,1-2.45-.9c-1-.57-1.55-1-1.55-1.2,0-.8.63-.82,1.9,0A32.39,32.39,0,0,1,125.9,73.63Zm-74.75-72L51,.93c0-.8.33-1.08,1-.85a1.33,1.33,0,0,1,1,1.25c0,.67-.27,1-.8,1A1.06,1.06,0,0,1,51.15,1.63Zm-.6,1.3c0,.7-.38,1-1.15,1a.93.93,0,0,1-.9-.5,4.6,4.6,0,0,1-.1-.5c0-.7.37-1,1.1-1S50.55,2.33,50.55,2.93Zm58.9,11.6a1.48,1.48,0,0,0,.1.45A2.33,2.33,0,0,1,109,16a1.78,1.78,0,0,1-1.4.9c-.37,0-.6-.12-.7-.35s-.05-.32-.05-.35c0-.3.32-.68,1-1.15A2.11,2.11,0,0,1,109.45,14.53Zm2.3,7.2q0-.64,2.85-2.25,3-1.65,4.05-1.3l.2.05s.05.1.05.3-.75.83-2.25,1.7a39.92,39.92,0,0,1-4.25,2.2C112,22.06,111.75,21.83,111.75,21.73Zm4.45-2.1,0-.15a3.84,3.84,0,0,0-1.55.7c-.83.5-1.25.83-1.25,1s.05.22.15.15ZM2,53.83a2.69,2.69,0,0,1-1.9-.45L0,52.93c0-.57.7-.85,2.1-.85s2.05.3,2.05.9a.71.71,0,0,1-.5.7A6,6,0,0,1,2,53.83Zm14.15,29.8a2.5,2.5,0,0,1-.2-.9c0-.7.75-1.47,2.25-2.3s2.25-.62,2.25.55q-2.65,3.45-3.25,3.45A1.13,1.13,0,0,1,16.15,83.63Zm99.15-19.3a2.68,2.68,0,0,1-1.25-.6q.4-.79,1.65-.6a2.59,2.59,0,0,1,1.85,1.1c-.1.33-.28.5-.55.5A5.32,5.32,0,0,1,115.3,64.33ZM42.1,90.48a1.56,1.56,0,0,1-.05-.5,25.21,25.21,0,0,1,2.05-2.75q2.05-2.36,2-.25-2.05,3.94-3.15,4Q42.3,90.93,42.1,90.48Zm13.95,15h0c-.6,0-.9-.32-.9-1a3,3,0,0,1,.95-1.6,2.24,2.24,0,0,1,2.15-1,.75.75,0,0,0,.1.35,4.35,4.35,0,0,1-.75,1.75,3.45,3.45,0,0,1-1.13,1.27l.13-.27c0-.1,0-.15,0-.15l0,0C56.3,105.15,56.17,105.32,56.05,105.48Z"/><path class="cls-3" d="M131.83,28.9c.41-.45,1.95-.78,4.62-1h.05s.05.05.05.15-.83.51-2.5,1c-.58.15-1.26.32-2.05.5a1.42,1.42,0,0,1-.3-.35A.38.38,0,0,1,131.83,28.9ZM116.2,19.63l-2.7,1.7q-.15.11-.15-.15c0-.17.42-.5,1.25-1a3.84,3.84,0,0,1,1.55-.7ZM56.05,105.48c.12-.16.25-.33.4-.5l0,0s0,0,0,.15l-.13.27-.72,1.73-.15,0c-.07,0-.1,0-.1-.2A2.58,2.58,0,0,1,56.05,105.48Z"/><path class="cls-2" d="M128.35,38c-.67.27-2.93,1-6.8,2.2s-5.82,1.8-6,1.8a3.22,3.22,0,0,1-2.2-.6,1.19,1.19,0,0,1-.4-.85l13.9-5.6q13.85-5.14,13.85-2.95,0,1.65-3.55,2.95Q131.9,36.58,128.35,38Zm-61.7,11.4q0-.71-.9-.6c-.63.07-1,.5-1,1.3a1.94,1.94,0,0,0,.75,1.6c.13,0,.35-.4.65-1.1A5.25,5.25,0,0,0,66.65,49.38Zm58-11.2q6.25-2.35,8.45-4.7a1.19,1.19,0,0,0-.55-.5q-5.15,2.25-11.55,4.7-4.69,1.8-4.7,1.9c0,.23,0,.37.15.4l.1.1,2,.05Q119.6,40.13,124.65,38.18ZM63.1,49.48q0-2.55,2.8-1.85c1.83.43,2.75,1.1,2.75,2a2.59,2.59,0,0,1-.55,1.65,3,3,0,0,1-2.5,1,2.22,2.22,0,0,1-2.15-1.35C63.22,50,63.1,49.51,63.1,49.48ZM4.85,1.68l-.25.05q6.75,8.65,23.75,23.65c.43,0,.62-.08.55-.25A155.32,155.32,0,0,0,17.25,13.28Q5.29,2.13,4.85,1.68Zm16.7,20.1q-5.85-6.4-6.85-7.35Q10.91,11.13,8,8.23,2.21,2.68,2.2.78q0-2.4,13.8,10.35T29.75,26.78a.84.84,0,0,1-.95.95Q27.2,27.73,21.55,21.78ZM22.4,59a15.36,15.36,0,0,1-4.8,1.65.91.91,0,0,1-.85-.35c0-.2-.05-.32-.05-.35q0-1,4.75-3.1c3.13-1.37,4.7-1.48,4.7-.35Q26.15,57.28,22.4,59Zm-3.6,1.1c.4-.17,1.3-.48,2.7-1,1.23-.5,1.93-1,2.1-1.45a41.37,41.37,0,0,0-5.55,2.1A1.5,1.5,0,0,0,18.8,60.13Zm20.55,24.2q0,.35-6.55,8.4t-6.6,8c-.47,0-.78-.28-.95-.85s-.1-.87-.1-.9q0-2.2,7.1-10.4T39.35,84.33ZM26.05,99.58a12.84,12.84,0,0,0,1.25-1,6,6,0,0,0,1.1-1q0-.9,3.2-4.9Q35.35,88,35.35,88a40.73,40.73,0,0,0-5.3,5.25,38.18,38.18,0,0,0-4.5,6.1ZM65.8,96a.53.53,0,0,0,0,.15c.3,0,.48-.12.55-.25a41.23,41.23,0,0,1-.7-7,.53.53,0,0,1,.15-.45.49.49,0,0,0,.1-.2l-.65-.3-.35.05v-.1q0-4.55,2,.15a23.24,23.24,0,0,1,2,8.9c0,2.53-.5,3.8-1.5,3.8Q66.5,100.68,65.8,96Z"/><path class="cls-3" d="M124.65,38.18q-5.06,1.95-6.1,2l-2-.05-.1-.1c-.1,0-.15-.17-.15-.4q0-.11,4.7-1.9,6.41-2.45,11.55-4.7a1.19,1.19,0,0,1,.55.5Q130.89,35.83,124.65,38.18Zm-58,11.2a5.25,5.25,0,0,1-.45,1.2c-.3.7-.52,1.07-.65,1.1a1.94,1.94,0,0,1-.75-1.6c0-.8.32-1.23,1-1.3S66.65,48.91,66.65,49.38ZM4.85,1.68q.45.45,12.4,11.6A155.32,155.32,0,0,1,28.9,25.13c.07.17-.12.25-.55.25q-17-15-23.75-23.65Zm14,58.45a1.5,1.5,0,0,1-.75-.3,41.37,41.37,0,0,1,5.55-2.1c-.17.47-.87,1-2.1,1.45C20.1,59.65,19.2,60,18.8,60.13Zm7.25,39.45-.5-.25a38.18,38.18,0,0,1,4.5-6.1A40.73,40.73,0,0,1,35.35,88s-1.25,1.6-3.75,4.7q-3.2,4-3.2,4.9a6,6,0,0,1-1.1,1A12.84,12.84,0,0,1,26.05,99.58ZM65,87.93l.35-.05.65.3a.49.49,0,0,1-.1.2.53.53,0,0,0-.15.45,41.23,41.23,0,0,0,.7,7c-.07.13-.25.22-.55.25a.53.53,0,0,1,0-.15,18.7,18.7,0,0,1-.65-2.3,15.84,15.84,0,0,1-.45-3l.2-2.75Z"/></g></g></svg>