<svg xmlns="http://www.w3.org/2000/svg" viewBox="0 0 640 18.34"><defs><style>.cls-1{fill:green;}</style></defs><g id="Layer_2" data-name="Layer 2"><g id="Layer_1-2" data-name="Layer 1"><path class="cls-1" d="M640,18.34V5.45c-.35-1-.69-2-1-3,0,0,0,.27,0,.3.12,1.35.22,2.58.38,3.79a10.67,10.67,0,0,0-.7-.87c.07-1.06.11-2.14.16-3.32,0,0,0-.27,0-.3-.22,1-.51,2-.8,3-.4-.38-.85-.77-1.34-1.16.1-.89.19-1.78.23-2.67,0,0-.06.3-.07.33-.16.68-.37,1.35-.56,2l-.27-.22L635.61,3c.27.25.49.49.71.73q-.66,2.4-1.49,4.79c-.21-.41-.44-.83-.67-1.23a9,9,0,0,1,1-1l-.33.24c-.26.2-.5.4-.74.6-.69-1.21-1.45-2.4-2.28-3.73a2.46,2.46,0,0,0-.17-.27,47,47,0,0,1,1.76,4.65,7.59,7.59,0,0,0-2.18,3.81c.35-3.55-.06-7.07-3.2-10.44l-.3-.3a10,10,0,0,1,1.53,6.92,43.2,43.2,0,0,1-1.37-4.17s-.07-.26-.07-.28A29.83,29.83,0,0,0,628.38,8l-.14.09a15.91,15.91,0,0,0-2.89,2.22c-.2-.68-.66-2.26-.67-2.27-.23,1.24-.41,2.48-.56,3.72a8.29,8.29,0,0,0-1,1.8q-.33-2.27-.78-4.53a12.9,12.9,0,0,1,3-3.17l-.4.24a18,18,0,0,0-2.79,2.15c-.42-2-1.35-6.34-1.35-6.37-.5,3.17-.84,6.34-1.06,9.5a10.54,10.54,0,0,0-.68,1.56,10.21,10.21,0,0,0-1-6l1.36-1.19-1.5,1A10.9,10.9,0,0,0,613.88,3l-.49-.27a7.24,7.24,0,0,1,2.82,3.79,15,15,0,0,0-3.7-3.42s-.47-.3-.51-.32a11,11,0,0,1,2.25,2.57c-.44,1.5-.82,3-1.2,4.5a26,26,0,0,0-.85-5.05V5a37.06,37.06,0,0,1-.27,5.47c-.1-1.78-1-3.52-3.11-5.21.38-.36.79-.72,1.25-1.08l-.4.24c-.37.24-.71.47-1,.71a15.77,15.77,0,0,0-2.09-1.35L606,3.52a9.76,9.76,0,0,1,2.12,2c-4.36,3.36-4.92,7-5.22,10.57l-.07-.11a37.08,37.08,0,0,1,.74-6.84l.12-.27-.09.12a40.27,40.27,0,0,1,1.15-4.44l-.13.27a47.51,47.51,0,0,0-3,6.7l-.87,1.13a8.6,8.6,0,0,1-1-6.32s.08-.23.08-.25a17.28,17.28,0,0,0-1,2c.23-1.75.28-3.43.36-5.36,0,0,0-.3,0-.3A43.61,43.61,0,0,1,597.56,8c-.8-2-1.74-3.79-2.82-5.92,0,0-.14-.27-.15-.29a51.39,51.39,0,0,1,1.8,6.72,10.8,10.8,0,0,0-.95-.74c0-.19,0-.78,0-.8-.06.23-.14.46-.19.68l-.17-.11.15.16c0,.11-.06.22-.09.33a11.06,11.06,0,0,0-4.7-4.56L590,3.23c2.34,1.77,3.26,3.61,3.36,5.47a7.12,7.12,0,0,0-2.88-4.46L590.12,4a4.84,4.84,0,0,1,1,4.91c-.34-.66-.65-1.33-1-2,.12-.5.21-1,.36-1.52,0,0,.07-.23.07-.25-.23.44-.44.89-.65,1.33-.19-.4-.39-.79-.56-1.19.08-.11.15-.22.24-.33l-.28.23c-.45-1-.88-2-1.24-3.07,0,0-.09-.25-.09-.27a28.65,28.65,0,0,0,.77,3.86,9.6,9.6,0,0,0-2.48,3.58l0,0,0,0a7.89,7.89,0,0,0-.38,1.38c-.23-2.83-.55-5.65-1-8.47,0,0-1.14,5.51-1.62,8.11a7.42,7.42,0,0,0-1.16-1.48s-.22-.2-.23-.22a4.39,4.39,0,0,1,.1,4.65c-.23-1.28-.48-2.55-.8-3.82,0,0-.85,3.12-1.22,4.57a8.55,8.55,0,0,1,1.88-8.32l-.31.27a10,10,0,0,0-3.19,4.83A10.69,10.69,0,0,0,576,8.59c.18-2.26,1.23-4.54,3.91-6.86l-.54.35c-4.07,2.82-5.65,5.61-6,8.38-.06.11-.11.22-.18.33a7.11,7.11,0,0,0-1-1.27v0A24.35,24.35,0,0,0,573,5.21l-.08.24c-.35,1-.76,1.91-1.19,2.87a57.68,57.68,0,0,1-1.68-6.48s-.06-.3-.06-.3a45.28,45.28,0,0,0,.88,8.52l0,.07c-.06-.09-.11-.17-.18-.26-.63-1.93-2.21-3.8-5.38-5.58L564.79,4A10,10,0,0,1,567.58,7c-.51.3-1,.59-1.36.88-.13-.41-.29-.83-.39-1.24a2.1,2.1,0,0,1-.06-.24c0,.58,0,1.16.09,1.74-.25.19-.49.37-.7.56-.46-1.17-1-2.33-1.54-3.62l-.11-.26a39.34,39.34,0,0,1,.85,4.64,7.14,7.14,0,0,0-1.73,2.84Q562.33,6.1,561.5,0s0,.29-.06.32c-.58,3.09-1.2,6.18-1.72,9.27a22.27,22.27,0,0,0-.83-4.53s0,.21,0,.23a32.71,32.71,0,0,1-.29,5.12A12.94,12.94,0,0,0,554.22,1l-.34-.3a12.74,12.74,0,0,1,2.93,9.7c-.65-2.44-2.29-4.66-4.6-6.9l.19.25c2.11,3,2.11,6.2,1.63,9.46a6.4,6.4,0,0,1-.19-5.78l.06-.11.06-.1a17.67,17.67,0,0,0-1.27,1.68,10.08,10.08,0,0,0-3.28-6.75,4,4,0,0,1-.3-.28,8.53,8.53,0,0,1,1.41,7c-.09-.18-.37-.73-.37-.75,0,.59,0,1.17,0,1.76a6.56,6.56,0,0,0-1.3-1.74l-.24-.22a4.06,4.06,0,0,1,.67,2.9s0-.05,0-.08A17.15,17.15,0,0,0,547,6.21a34.14,34.14,0,0,0,.66-4.45s-.07.27-.08.29c-.32,1.14-.7,2.28-1.1,3.42-.55-.72-1.13-1.45-1.77-2.18l.18.26a15.94,15.94,0,0,1,1.35,2.58q-.37,1-.78,2A66.45,66.45,0,0,1,543.34.84s-.07-.31-.07-.31a43.89,43.89,0,0,0,.83,7.2c-.52.36-1,.71-1.4,1.06l-.3-.87c.31-1.12.65-2.25.94-3.38,0,0-.9,1.69-1.29,2.4-.32-.91-1-3-1-3,0,.78.13,1.57.19,2.36a11.6,11.6,0,0,0-2.82,3.21,57.27,57.27,0,0,0-3-6.08l-.15-.27a43.12,43.12,0,0,1,2.23,9,10.28,10.28,0,0,0-.14,2.28c-.18-.25-.35-.5-.55-.74-.26-2.29-.91-7.09-.92-7.11-.22,1.37-.39,2.74-.56,4.11-.15-2.35-1.38-4.73-4.65-7.16,0-.16.08-.33.13-.5l-.21.44-.14-.11L529.9,3c.21.19.38.39.56.58a53.41,53.41,0,0,0-2.58,6,11.47,11.47,0,0,0-3-3.13c0-.88.08-1.77.08-2.66,0,0-.66,2.28-1,3.29l-1.37-2.27c.33,1.08.73,2.16,1.09,3.24l-.24.82A14.39,14.39,0,0,0,522.1,8a44.06,44.06,0,0,0,.5-7.6s-.05.29-.05.31a65.38,65.38,0,0,1-1.75,7.55c-.32-.7-.65-1.4-.95-2.11a15.14,15.14,0,0,1,1.27-2.8s.15-.25.16-.27c-.63.8-1.19,1.59-1.71,2.38-.42-1-.84-2.07-1.19-3.12,0,0-.09-.27-.09-.29a34.83,34.83,0,0,0,.82,4.14,17.05,17.05,0,0,0-2.06,4.57c0,.15,0,.3-.08.45a4.06,4.06,0,0,1,.48-3.1l-.22.23A7,7,0,0,0,516.08,10c0-.11-.07-.23-.11-.35,0-.55,0-1.09,0-1.64,0,0-.19.44-.24.55a8.34,8.34,0,0,1,1.13-6.68l-.29.29a10,10,0,0,0-2.91,6.81,18.22,18.22,0,0,0-1.45-1.73,10.07,10.07,0,0,1,1.4-3.67l.17-.26c-2.12,2.3-3.65,4.53-4.2,6.93A12.58,12.58,0,0,1,512,.53s-.3.29-.33.32a13,13,0,0,0-3.89,9.72,33.6,33.6,0,0,1-.58-5.25V5.09a21.47,21.47,0,0,0-.59,4.35c-.68-3-1.45-6-2.18-9,0,0-.07-.3-.07-.32-.36,4.15-.51,8.31-.48,12.47a7.23,7.23,0,0,0-2-3.08,40.1,40.1,0,0,1,.61-4.72l-.1.26c-.5,1.34-1,2.54-1.35,3.75a8.61,8.61,0,0,0-.76-.54,19.83,19.83,0,0,0,0-2,2,2,0,0,1,0,.24c-.1.51-.26,1-.39,1.52-.4-.25-.83-.5-1.31-.74l-.12-.06a9.51,9.51,0,0,1,2.73-3.26l-.51.3c-2.95,1.86-4.43,3.73-5,5.61l-.2.31a44.72,44.72,0,0,0,.46-8.72s0,.28,0,.31a62.42,62.42,0,0,1-1.39,6.79c-.49-.92-.94-1.85-1.34-2.78,0,0-.09-.22-.09-.23a24.29,24.29,0,0,0,1.09,4.07,7.36,7.36,0,0,0-1,1.31c-.6-.95-1.27-1.89-2-2.91.14-.14.27-.29.43-.43l-.39.24a.5.5,0,0,1-.12.08l-.36-.51c.09.2.16.39.26.59-.2.13-.38.26-.56.4.36-2.16,1.55-4.29,4.23-6.38l-.55.32c-4.1,2.54-5.85,5.16-6.4,7.84a10.32,10.32,0,0,0-3.19-4l-.33-.25c2.68,2.74,2.82,5.55,2.29,8.37-.47-1.49-1.52-4.67-1.52-4.69-.25,1.29-.44,2.57-.6,3.86a4.34,4.34,0,0,1-.1-4.58L484,9a8,8,0,0,0-1,1.29c-.62-2.58-2-8-2-8-.29,2.84-.46,5.67-.54,8.51a8.87,8.87,0,0,0-3.12-4.9A29.59,29.59,0,0,0,478,1.61l-.08.26c-.34,1.16-.75,2.31-1.19,3.46l-.3-.22c.1.1.17.2.26.3-.16.42-.35.83-.52,1.24-.23-.43-.46-.86-.72-1.3l.09.25c.17.5.29,1,.44,1.51-.27.63-.52,1.26-.81,1.89a4.84,4.84,0,0,1,.76-4.9l-.31.26c-2,1.84-2.69,3.56-2.66,5.23-.25-2.13.45-4.29,3-6.46l-.49.3c-2.53,1.66-3.9,3.32-4.53,5a1.42,1.42,0,0,0-.05-.16,49.75,49.75,0,0,1,2.24-6.06l-.18.27a59.79,59.79,0,0,0-3.87,6.8.1.1,0,0,1,0,.05,43.64,43.64,0,0,1-2.4-6.47s0,.28,0,.3a47.21,47.21,0,0,0,.9,6.58,11.83,11.83,0,0,1-1.69,3.54l-.32-.38c0-.25-.08-.52-.13-.76a43.76,43.76,0,0,0-2.51-7.47l-.11-.28a40,40,0,0,1,.95,6.41l-1.37-1.6c.44.95.94,1.9,1.42,2.85a34.86,34.86,0,0,1-.1,4.09l-.16.19c0-3.6-.18-7.2-4.08-10.91a10.56,10.56,0,0,1,2.12-1.61l-.53.22a16,16,0,0,0-2,1c-.38-.34-.78-.68-1.22-1l-.38-.28a15.15,15.15,0,0,1,1.37,1.44c-2.63,1.64-3.64,3.51-3.78,5.5a36.65,36.65,0,0,1,.2-5.55s0-.22,0-.24A25.92,25.92,0,0,0,454,9.64c-.25-1.55-.49-3.1-.81-4.65,0,0-.11,1.17-.16,1.64A9.41,9.41,0,0,0,452,4.83a9.24,9.24,0,0,1,2.24-2l-.51.23a15.53,15.53,0,0,0-2.14,1.22,17.47,17.47,0,0,0-2.48-2.45l-.48-.37a10.33,10.33,0,0,1,2.28,3.33,8,8,0,0,0-1.4,1.38c-.47-.37-.93-.73-1.36-1,0,0,.86.89,1.21,1.26-1.6,2.23-1.28,4.69-.41,7.22,0,.07-.09.14-.14.21-.2-.64-.65-2.09-.66-2.1-.07.72-.08,1.46-.12,2.19a11.38,11.38,0,0,0-.91-2.93c0-3,0-6.1-.24-9.18,0,0-1.27,4.15-1.85,6.08a17.72,17.72,0,0,0-2.46-2.24l-.37-.27a13.13,13.13,0,0,1,2.62,3.21c-.43,1.46-.83,2.93-1.18,4.4a8.9,8.9,0,0,0-.63-1.28c-.05-1.23-.12-2.46-.23-3.7,0,0-.6,1.52-.85,2.17a16.22,16.22,0,0,0-2.7-2.49L439,7.56a28.76,28.76,0,0,0,.81-3.88l-.09.27c-.49,1.35-1.08,2.67-1.7,4A10.06,10.06,0,0,1,440.14.84l-.33.28c-3.4,3.06-4.12,6.51-4.1,10.06A7.85,7.85,0,0,0,434,7.73,44.54,44.54,0,0,1,436,3.49l-.19.25c-.89,1.18-1.71,2.25-2.46,3.32-.22-.23-.46-.46-.71-.7l-.31-.26a9.6,9.6,0,0,1,.88,1.16c-.29.41-.56.82-.83,1.24a72.38,72.38,0,0,1-1.5-7.25s0-.31,0-.33a51.65,51.65,0,0,0,.6,9.16l-.3.54a44.07,44.07,0,0,1-2.27-9.1s0,.28,0,.3a36.57,36.57,0,0,0,.15,8.23,34.53,34.53,0,0,0,.79,3.44c0,.09-.06.18-.1.26-.26.65-.51,1.28-.75,1.9-.26-4.15-1-8.37-1.65-12.58l0-.28c-.59,2.57-1,5.17-1.43,7.77l-.85.83a10.67,10.67,0,0,0-.87-1.4,42.7,42.7,0,0,1,2.48-6.61l-.17.25c-1.24,1.88-2.32,3.46-3.27,5.23a13,13,0,0,0-1-1c.25-1.8.3-3.52.38-5.5V2.1a42.89,42.89,0,0,1-1.39,4.77c-.22-.24-.45-.49-.7-.73l-.31-.28a9,9,0,0,1,.73,1l-.33-.24.46.44.05.08a49.22,49.22,0,0,1-2.42,5.65,58.56,58.56,0,0,0,2-11.58s-.06.3-.07.33A91.53,91.53,0,0,1,417.28,12c-.19-.38-.36-.77-.55-1.15,0,0-.06,1.77-.09,2.55-.21-.78-.43-1.57-.63-2.35a7.08,7.08,0,0,1,2.43-4.65l-.32.24a11,11,0,0,0-2.55,2.59,51.75,51.75,0,0,1-1.09-5.66s0-.26,0-.28c-.07.79-.1,1.59-.1,2.39a12,12,0,0,0-2.72-4.51l-.3-.3c3.18,4.84,1,9.87-.84,14.87-.31-1.3-.66-2.6-1-3.9a10.5,10.5,0,0,1,3.27-3.74l-.39.23a15.13,15.13,0,0,0-3.17,2.52L408.35,8c-.3,1.61-.52,3.22-.7,4.83a8.5,8.5,0,0,0-.72,1.69c-.51-1.4-1.07-2.79-1.67-4.17A11.76,11.76,0,0,1,409,5.84l-.4.24a16.34,16.34,0,0,0-3.81,3.24c-1.05-2.33-3.36-7.25-3.36-7.25.27,3.34.7,6.67,1.27,10l-1,2.33c-.2-.23-.39-.47-.58-.7.53-2.56.49-5-1.6-7.3l1-1.12-1.11.93A11.27,11.27,0,0,0,397.89,5a8.43,8.43,0,0,1,1.82-3.24l-.43.36a14.11,14.11,0,0,0-2.14,2.38,21.11,21.11,0,0,0-2.34-1.2L394.25,3A11.4,11.4,0,0,1,396.8,5a7.72,7.72,0,0,0-.92,2.09c-.13-.54-.46-1.82-.46-1.84-.09,1.44-.1,2.87-.13,4.3A28,28,0,0,0,393.36,5a2.17,2.17,0,0,1,.07.24c.23.83.41,1.67.56,2.51a10.45,10.45,0,0,0-1.77-2c.15-.12.29-.25.45-.37l-.38.22-.14.09a18.76,18.76,0,0,0-3-2.12l-.53-.3a11.47,11.47,0,0,1,2.88,2.87c-4,2.81-4.72,6-4.8,9.26a43.64,43.64,0,0,1-.23-6l.09-.25-.08.11a44,44,0,0,1,.87-7.19l-.1.29a43.67,43.67,0,0,0-2.4,7.82c-.1.54-.18,1.14-.25,1.76l-.38.54c-1.28-2.16-2.06-4.33-1.66-6.5,0,0,0-.23,0-.25a14.51,14.51,0,0,0-.77,1.92c0-1.5-.08-3-.18-4.64,0,0,0-.28,0-.3a38.12,38.12,0,0,1-1.06,5.14c-1-2-2.09-3.86-3.36-6,0,0-.16-.27-.17-.3a58.22,58.22,0,0,1,2.58,7.29,13.23,13.23,0,0,0-1.4-1.14l-.07-.06s0-.35,0-.37,0,.21-.06.31l-.17-.11.16.16c0,.11,0,.22-.06.33a14.25,14.25,0,0,0-5-4.59L372.46,3a9.48,9.48,0,0,1,3.7,4.89,9.65,9.65,0,0,0-3-3.81l-.35-.26a5.38,5.38,0,0,1,1.52,4.78c-.45-.77-.86-1.53-1.28-2.29,0-.31.07-.61.13-.91a2.21,2.21,0,0,1,.05-.25c-.13.28-.24.57-.35.86-.2-.38-.41-.75-.61-1.12l0,0,0,0c-.54-1-1.05-2.07-1.51-3.1l-.11-.27a30.69,30.69,0,0,0,1.11,3.83,7.93,7.93,0,0,0-2.41,3.81L369.07,9l.23.23a8,8,0,0,0-.2,1.07C368.61,7.54,368,4.77,367.35,2l0,.29c-.34,3.27-.74,6.54-1,9.81a6.74,6.74,0,0,0-2.66-3.34l-.29-.19a4.49,4.49,0,0,1,1.36,3.53c-.31-.68-.62-1.35-1-2,0,0,0,.19,0,.2,0,1.7-.13,3.41-.15,5.1l-.06-.09a7.33,7.33,0,0,0-.79-3.24,8.78,8.78,0,0,0-.58-4.94,9.08,9.08,0,0,1,.67-1.37l-.25.29c-.21.25-.39.51-.57.76a13.77,13.77,0,0,0-4-4.71l-.49-.37c2.59,2.62,3.24,5.13,2.93,7.58a15,15,0,0,0-1.79-1.25c.12-.3.21-.6.34-.9l-.51.79-.41-.22c.13.1.24.21.36.32-.62,1-1.18,1.85-1.69,2.75a7.62,7.62,0,0,0-1-1.28,25.43,25.43,0,0,0,.93-4.3l-.09.24c-.35,1-.76,1.93-1.2,2.89a60.86,60.86,0,0,1-1.68-6.5s-.06-.28-.06-.3a39.27,39.27,0,0,0,.46,6,13.94,13.94,0,0,0-3.4-3.49l-.48-.35A8.48,8.48,0,0,1,353,8.47c-.28-.23-.57-.46-.89-.68l-.31-.21A7.74,7.74,0,0,1,353.09,9a8.18,8.18,0,0,1-.76,3.76,49.07,49.07,0,0,1-1.22-5.59c.17-.15.34-.31.54-.46l-.4.22-.17.1c0-.28-.11-.56-.14-.85,0,0,0-.22,0-.24-.06.42-.1.85-.13,1.27-.38.24-.74.48-1.07.72-.25-1-.88-3.25-.89-3.27.14,1.27.2,2.53.22,3.78a8.57,8.57,0,0,0-2.37,2.86c.31-3.71.49-7.42.49-11.15,0,0-2.08,6.07-3,9A21.31,21.31,0,0,0,344,5.07l0,.23a33.52,33.52,0,0,1-1.09,5.36,13,13,0,0,0-3-9.94l-.3-.35a12.49,12.49,0,0,1,1.64,9.54A16.39,16.39,0,0,0,337.62,3s.14.25.15.28a10.13,10.13,0,0,1,1.08,3.94A16.9,16.9,0,0,0,337.12,9a10.14,10.14,0,0,0-2.32-6.95l-.26-.31a8.27,8.27,0,0,1,.71,6.18l-.05-.15c0,.19-.05.38-.07.58a18,18,0,0,1-1.42,3.32c0-.32,0-.65-.1-1A16.88,16.88,0,0,0,332,6.07a32.31,32.31,0,0,0,1-3.58l-.12.28c-.38.87-.82,1.73-1.26,2.58-.47-.88-1-1.76-1.58-2.66l.14.27a14.62,14.62,0,0,1,1.08,3.14c-.56,1.07-1.17,2.14-1.79,3.21A71.55,71.55,0,0,1,327,.84s-.06-.29-.07-.31A46.56,46.56,0,0,0,328,9.14l-.15.22c-.23-.74-.47-1.47-.65-2.21,0,0-.06-.23-.06-.25a24,24,0,0,0,.22,3.17,24.23,24.23,0,0,0-2.5,4.22c-.12-.37-.25-.74-.4-1.12.92-2.87,1.78-5.75,2.51-8.63,0,0-2.79,5.18-4.06,7.65-.09-.33-.19-.64-.29-.95a7.68,7.68,0,0,1,1.18-3.48c.29-.25.59-.5.93-.76l-.38.23-.34.22A9.7,9.7,0,0,1,325.22,6l-.33.25A13.11,13.11,0,0,0,323,8.22c-.39.29-.75.59-1.08.88A62.73,62.73,0,0,0,319,3.44l-.15-.27a43.13,43.13,0,0,1,1.94,7,8.3,8.3,0,0,0-.74,1L319,10c.32.54.58,1.08.85,1.63a9.72,9.72,0,0,0-.73,1.58,98.11,98.11,0,0,0-.86-10.26s-.06.25-.07.28c-1,4.21-2.16,8.42-2.77,12.62l0-.11a5.18,5.18,0,0,0,0-.88,5.65,5.65,0,0,0-.4-1.43,26.5,26.5,0,0,0,.89-2.82,36.46,36.46,0,0,0,.88-8.18s0-.3,0-.3a43.86,43.86,0,0,1-3,8.76s0-.1-.05-.14-.16-.34-.24-.51a50.82,50.82,0,0,0,1.38-9s-.06.3-.07.33a70.72,70.72,0,0,1-2.1,7c-.21-.41-.44-.83-.67-1.23a10,10,0,0,1,.95-1l-.32.24c-.27.2-.51.4-.74.6-.7-1.21-1.45-2.4-2.29-3.73,0,0-.15-.25-.16-.27a49.55,49.55,0,0,1,1.75,4.65A7.49,7.49,0,0,0,309,11.56c.34-3.55-.07-7.07-3.21-10.44,0,0-.28-.28-.3-.3A9.93,9.93,0,0,1,307,7.74a43.2,43.2,0,0,1-1.37-4.17s-.07-.26-.07-.28A31.06,31.06,0,0,0,306.22,8l-.14.09a15.91,15.91,0,0,0-2.89,2.22c-.2-.68-.66-2.26-.67-2.27-.23,1.24-.4,2.48-.56,3.72a9.23,9.23,0,0,0-1,1.8q-.33-2.27-.78-4.53a12.9,12.9,0,0,1,3-3.17l-.4.24A18,18,0,0,0,300,8.23c-.42-2-1.35-6.37-1.35-6.37-.5,3.17-.84,6.34-1.06,9.5a13.17,13.17,0,0,0-.68,1.56c0-.34,0-.68,0-1l-.07.17c-.84,2.08.58-2.27-.95-5.16l1.37-1.19-1.51,1A10.83,10.83,0,0,0,291.72,3l-.49-.27a7.24,7.24,0,0,1,2.82,3.79,14.85,14.85,0,0,0-3.7-3.42l-.5-.32a11.43,11.43,0,0,1,2.25,2.57c-.45,1.5-.83,3-1.2,4.5A26,26,0,0,0,290,4.76s0,.22,0,.24a37.06,37.06,0,0,1-.27,5.47c-.1-1.78-.95-3.52-3.11-5.21.38-.36.79-.72,1.25-1.08l-.4.24c-.36.24-.71.47-1,.71a16.61,16.61,0,0,0-2.1-1.35l-.51-.26a9.76,9.76,0,0,1,2.12,2c-4.35,3.36-4.92,7-5.22,10.56l-.07-.1a37.08,37.08,0,0,1,.74-6.84l.12-.27-.09.12a42.64,42.64,0,0,1,1.15-4.44l-.13.27a48.68,48.68,0,0,0-3,6.7c-.29.38-.57.76-.86,1.13a8.56,8.56,0,0,1-1-6.32l.09-.25a16,16,0,0,0-1,2c.23-1.75.28-3.43.36-5.36v-.3A43.61,43.61,0,0,1,275.4,8c-.8-2-1.74-3.79-2.82-5.92,0,0-.14-.27-.15-.29a49.86,49.86,0,0,1,1.8,6.72,9.33,9.33,0,0,0-.94-.74c0-.19,0-.78,0-.8-.05.23-.13.46-.19.68L273,7.57l.16.16c0,.11-.07.22-.1.33a11.06,11.06,0,0,0-4.7-4.56l-.5-.27c2.34,1.77,3.25,3.61,3.36,5.47a7.21,7.21,0,0,0-2.88-4.46L268,4a4.82,4.82,0,0,1,1,4.91c-.34-.66-.65-1.33-1-2,.12-.5.21-1,.36-1.52l.08-.25c-.24.44-.45.89-.66,1.33-.18-.4-.38-.79-.56-1.19a3.59,3.59,0,0,1,.25-.33l-.29.23c-.45-1-.88-2-1.24-3.07,0,0-.08-.25-.09-.27a28.65,28.65,0,0,0,.77,3.86,9.6,9.6,0,0,0-2.48,3.58l0,0,0,0a7.14,7.14,0,0,0-.39,1.38c-.23-2.83-.54-5.65-1-8.47,0,0-1.14,5.51-1.62,8.11A7.07,7.07,0,0,0,260,8.83l-.23-.22a4.39,4.39,0,0,1,.1,4.65c-.22-1.28-.48-2.55-.8-3.82,0,0-.85,3.12-1.22,4.57a8.53,8.53,0,0,1,1.89-8.32l-.32.27a10,10,0,0,0-3.19,4.83,10.69,10.69,0,0,0-2.41-2.2C254,6.33,255,4.05,257.7,1.73l-.54.35c-4.07,2.82-5.65,5.61-6,8.38-.07.11-.12.22-.18.33a7.19,7.19,0,0,0-1-1.27v0a26.29,26.29,0,0,0,.92-4.29l-.09.24c-.35,1-.75,1.91-1.19,2.87a59.91,59.91,0,0,1-1.68-6.48s0-.28-.06-.3a44.48,44.48,0,0,0,.89,8.52l0,.07c-.05-.09-.11-.17-.17-.26-.64-1.93-2.21-3.8-5.39-5.58L242.63,4A9.85,9.85,0,0,1,245.42,7c-.51.3-.95.59-1.36.88-.13-.41-.28-.83-.39-1.24a2.1,2.1,0,0,1-.06-.24c0,.58,0,1.16.09,1.74-.25.19-.48.37-.7.56-.45-1.17-1-2.33-1.54-3.62l-.11-.26a39.34,39.34,0,0,1,.85,4.64,7.26,7.26,0,0,0-1.73,2.84c-.2-4.1-.56-8.18-1.13-12.25l-.06.32c-.57,3.09-1.2,6.18-1.72,9.27a21.6,21.6,0,0,0-.83-4.53s0,.21,0,.23a32.71,32.71,0,0,1-.29,5.12A12.9,12.9,0,0,0,232.06,1l-.34-.3a12.66,12.66,0,0,1,2.93,9.7c-.64-2.44-2.29-4.66-4.6-6.9l.19.25c2.11,3,2.12,6.2,1.63,9.46a6.43,6.43,0,0,1-.19-5.78l.12-.21a19.53,19.53,0,0,0-1.27,1.68,10,10,0,0,0-3.28-6.75s-.28-.25-.3-.28a8.53,8.53,0,0,1,1.41,7L228,8.12c0,.59,0,1.17,0,1.76a6.56,6.56,0,0,0-1.3-1.74l-.23-.22a4.16,4.16,0,0,1,.67,2.9.19.19,0,0,1,0-.08,17.49,17.49,0,0,0-2.35-4.53,34.14,34.14,0,0,0,.66-4.45s-.07.27-.08.29c-.31,1.14-.69,2.28-1.1,3.42-.55-.72-1.12-1.45-1.77-2.18a2.4,2.4,0,0,1,.18.26A15.19,15.19,0,0,1,224,6.13c-.25.66-.51,1.32-.77,2A64.36,64.36,0,0,1,221.18.84s-.06-.31-.06-.31a41.81,41.81,0,0,0,.83,7.2,16.16,16.16,0,0,0-1.41,1.06l-.3-.87c.31-1.12.66-2.25.94-3.38l-1.28,2.4-1.05-3c0,.78.14,1.57.2,2.36a11.49,11.49,0,0,0-2.83,3.21,57.27,57.27,0,0,0-3-6.08l-.14-.27a43.09,43.09,0,0,1,2.22,9,9.71,9.71,0,0,0-.13,2.28c-.18-.25-.36-.5-.55-.74-.27-2.29-.92-7.09-.92-7.11-.23,1.37-.39,2.74-.57,4.11C213,8.33,211.72,6,208.45,3.52c.05-.16.08-.33.13-.5,0,0-.18.39-.21.44l-.14-.11L207.74,3c.21.19.38.39.57.58a53.53,53.53,0,0,0-2.59,6,11.47,11.47,0,0,0-3-3.13c0-.88.08-1.77.08-2.66,0,0-.66,2.28-1,3.29l-1.37-2.27c.34,1.08.73,2.16,1.09,3.24l-.24.82A14.39,14.39,0,0,0,199.94,8a44.06,44.06,0,0,0,.5-7.6s0,.29-.05.31a65.33,65.33,0,0,1-1.74,7.55c-.33-.7-.65-1.4-1-2.11A14.45,14.45,0,0,1,199,3.3s.15-.25.17-.27c-.63.8-1.19,1.59-1.72,2.38-.42-1-.83-2.07-1.18-3.12l-.1-.29A34.83,34.83,0,0,0,197,6.14a17.37,17.37,0,0,0-2.06,4.57c0,.15,0,.3-.08.45a4.15,4.15,0,0,1,.48-3.1l-.22.23A7.26,7.26,0,0,0,193.92,10a3.57,3.57,0,0,1-.1-.35c0-.55,0-1.09,0-1.64,0,0-.19.44-.24.55a8.42,8.42,0,0,1,1.13-6.68l-.29.29a10.07,10.07,0,0,0-2.91,6.81A18.06,18.06,0,0,0,190,7.21a9.87,9.87,0,0,1,1.39-3.67l.18-.26c-2.13,2.3-3.66,4.53-4.21,6.93A12.58,12.58,0,0,1,189.81.53s-.3.29-.33.32a13,13,0,0,0-3.89,9.72A33.6,33.6,0,0,1,185,5.32V5.09a21.47,21.47,0,0,0-.59,4.35c-.67-3-1.45-6-2.18-9,0,0-.07-.3-.07-.32-.36,4.15-.5,8.31-.48,12.47a7.29,7.29,0,0,0-2-3.08,38.07,38.07,0,0,1,.6-4.72,2.77,2.77,0,0,1-.1.26c-.5,1.34-1,2.54-1.35,3.75a8.61,8.61,0,0,0-.76-.54,19.83,19.83,0,0,0,0-2s0,.22,0,.24c-.11.51-.26,1-.4,1.52-.4-.25-.83-.5-1.31-.74l-.11-.06A9.47,9.47,0,0,1,179,3.88l-.51.3c-3,1.86-4.43,3.73-5,5.61l-.19.31a44.71,44.71,0,0,0,.45-8.72l0,.31a60.13,60.13,0,0,1-1.39,6.79c-.49-.92-.94-1.85-1.33-2.78,0,0-.09-.22-.1-.23a25.29,25.29,0,0,0,1.09,4.07,6.82,6.82,0,0,0-1,1.31c-.61-.95-1.28-1.89-2-2.91.14-.14.27-.29.43-.43l-.39.24-.11.08c-.08-.1-.37-.51-.37-.51.1.2.17.39.26.59-.19.13-.38.26-.55.4.36-2.16,1.54-4.29,4.22-6.38l-.55.32c-4.1,2.54-5.85,5.16-6.4,7.84a10.32,10.32,0,0,0-3.19-4L162,5.8c2.68,2.74,2.82,5.55,2.29,8.37-.47-1.49-1.51-4.67-1.52-4.69-.25,1.29-.44,2.57-.6,3.86a4.36,4.36,0,0,1-.1-4.58,2.39,2.39,0,0,0-.22.23,7.54,7.54,0,0,0-1,1.29c-.62-2.58-2-8-2.05-8-.29,2.84-.46,5.67-.54,8.51a8.87,8.87,0,0,0-3.12-4.9,29.59,29.59,0,0,0,.65-4.24l-.08.26c-.34,1.16-.74,2.31-1.19,3.46l-.29-.22.25.3c-.16.42-.34.83-.51,1.24-.24-.43-.47-.86-.73-1.3l.09.25c.17.5.3,1,.44,1.51-.26.63-.52,1.26-.8,1.89a4.82,4.82,0,0,1,.75-4.9l-.31.26c-2,1.84-2.69,3.56-2.66,5.23-.25-2.13.45-4.29,3-6.46l-.49.3a10.81,10.81,0,0,0-4.52,5c-.07-.21-.15-.42-.21-.63s.15-.18.24-.27l-.27.2c0-.13-.09-.25-.13-.38s0,.38,0,.45c-.27.22-.52.43-.75.65a49.71,49.71,0,0,1,1.44-6.72L149,2c-1,2.25-1.87,4.15-2.57,6.25a43,43,0,0,1-2-5.42s0,.28,0,.3c.15,1.67.28,3.16.52,4.65A18.64,18.64,0,0,0,144,5.91l.09.25c.74,2.21.23,4.4-.78,6.59-.19-.22-.37-.44-.56-.65a.56.56,0,0,0,0-.12,44.14,44.14,0,0,0-3.52-7S139,4.7,139,4.68a40.2,40.2,0,0,1,1.5,4.84l-.3-.35c.13.28.29.56.42.84a36.5,36.5,0,0,1,.89,5.92v0c-.49-3.61-1.26-7.18-5.86-10.31a9.75,9.75,0,0,1,2.1-2.23l-.5.29a16.67,16.67,0,0,0-2.15,1.57l-.92-.56-.42-.22c.44.3.82.6,1.18.9a9.61,9.61,0,0,0-1.66,1.88A7.91,7.91,0,0,0,131.67,5V4.79a.69.69,0,0,0,0,.13,15.13,15.13,0,0,0-2.45-2l-.48-.29a7.3,7.3,0,0,1,2.63,4,28.58,28.58,0,0,0-.27,3.31v0l-.3-.92a7,7,0,0,0-.72-2.22c-.17-.51-.32-1-.5-1.53,0,0,0,.58,0,.75a13.77,13.77,0,0,0-4.42-3.93l-.52-.29c2.84,2.19,3.71,4.39,3.62,6.59-1.39-.81-2.72-1.57-3.86-2.21l.25.18c1,.8,2.22,1.74,3.56,2.75a13,13,0,0,1-.91,3.16c-.55-.75-1.14-1.51-1.79-2.34l-.16-.19a22.1,22.1,0,0,1,1.49,3.6c-.22.48-.44,1-.67,1.43-.41-.85-1.28-2.71-1.29-2.73,0,.13,0,.26,0,.39-.11-.25-.24-.51-.38-.76-.4-3.28-.92-6.55-1.61-9.83,0,0-.72,4.5-1,6.61a18.41,18.41,0,0,0-3-2.07l-.41-.22a12.72,12.72,0,0,1,3.26,3.12c-.22,1.54-.39,3.07-.52,4.61A9.22,9.22,0,0,0,120,11.79c-.23-1.27-.48-2.55-.79-3.82,0,0-.39,1.67-.56,2.4a15.93,15.93,0,0,0-3-2l-.09-.05A33.41,33.41,0,0,0,116,3.1a2.3,2.3,0,0,0-.06.28c-.3,1.4-.7,2.79-1.13,4.18A9.87,9.87,0,0,1,116,.76l-.28.32c-3.15,3.75-3.2,7.5-2.55,11.25v0a7.37,7.37,0,0,0-2.55-4.58,47.25,47.25,0,0,1,1.54-4.87l-.15.27c-.79,1.42-1.5,2.69-2.15,4-.23-.18-.47-.36-.73-.54l-.34-.21a8.82,8.82,0,0,1,1,1c-.2.4-.39.79-.57,1.2a70.66,70.66,0,0,1-2.43-6.79s-.08-.3-.09-.32a51.36,51.36,0,0,0,1.82,8.8c-.06.16-.13.31-.19.48a1.68,1.68,0,0,0-.07.24,44.71,44.71,0,0,1-3.4-8.48,2.77,2.77,0,0,1,0,.3,36.86,36.86,0,0,0,1.3,8.12c.23.75.55,1.59.9,2.43a5.34,5.34,0,0,0-.35,1.51c-.85-3.87-2.1-7.73-3.25-11.6A2.76,2.76,0,0,1,103.4,3a97.47,97.47,0,0,0-.33,10.39,8.9,8.9,0,0,0-1-1.88c.25-.57.48-1.13.78-1.69l-1,1.32q-.3-.39-.66-.78A42.21,42.21,0,0,1,102.76,3l-.14.28A61.67,61.67,0,0,0,100,9.24c-.25-.2-.51-.41-.79-.61a12.64,12.64,0,0,0-2.39-2.21l-.35-.24a9.71,9.71,0,0,1,1.45,1.63l-.56-.33L97,7.28a13.66,13.66,0,0,1,1.21.92,7.57,7.57,0,0,1,1.16,3.24c-.08.28-.15.56-.22.87-1.41-2.42-4.47-7.46-4.48-7.48.85,2.77,1.83,5.52,2.86,8.28-.12.37-.24.74-.34,1.1a24.82,24.82,0,0,0-2.73-4.08,24,24,0,0,0,.08-3.39s0,.22,0,.24c-.15.81-.36,1.61-.57,2.41a47.46,47.46,0,0,0,.72-9s-.05.29-.05.31a65.38,65.38,0,0,1-1.75,7.55c-.32-.7-.65-1.4-.95-2.11a14.51,14.51,0,0,1,1.27-2.8s.15-.25.16-.27c-.63.8-1.19,1.59-1.71,2.38-.43-1-.84-2.07-1.19-3.12,0,0-.09-.29-.09-.29a32.94,32.94,0,0,0,.82,4.14,17.05,17.05,0,0,0-2.06,4.57,11.57,11.57,0,0,0-.23,1.2A23.75,23.75,0,0,1,88,9.61c0-.55,0-1.09,0-1.64,0,0-.19.44-.24.55a8.34,8.34,0,0,1,1.13-6.68s-.27.26-.29.29a10,10,0,0,0-2.91,6.81,18.22,18.22,0,0,0-1.45-1.73,10.07,10.07,0,0,1,1.4-3.67l.17-.26a15.92,15.92,0,0,0-4.21,6.93A12.63,12.63,0,0,1,84,.53l-.33.32a13,13,0,0,0-3.89,9.72,33.6,33.6,0,0,1-.58-5.25V5.09a21.47,21.47,0,0,0-.59,4.35c-.68-3-1.45-6-2.18-9,0,0-.07-.3-.07-.32-.36,4.15-.51,8.31-.48,12.47a7.23,7.23,0,0,0-2-3.08,38.1,38.1,0,0,1,.61-4.72l-.1.26c-.5,1.34-1,2.54-1.35,3.75a8.61,8.61,0,0,0-.76-.54,19.83,19.83,0,0,0,0-2,2,2,0,0,1-.05.24c-.1.51-.26,1-.39,1.52a14.47,14.47,0,0,0-1.32-.74l-.11-.06a9.51,9.51,0,0,1,2.73-3.26l-.51.3c-3,1.86-4.43,3.73-5,5.61l-.2.31a44.72,44.72,0,0,0,.46-8.72l0,.31a60.18,60.18,0,0,1-1.4,6.79c-.48-.92-.93-1.85-1.33-2.78,0,0-.09-.22-.09-.23A25.24,25.24,0,0,0,66.1,9.54a7.8,7.8,0,0,0-1,1.31c-.6-.95-1.27-1.89-2-2.91.14-.14.27-.29.43-.43l-.39.24-.12.08-.37-.51c.1.2.17.39.27.59-.26.17-.5.35-.73.52,0-2.2.91-4.4,3.34-6.62l-.51.34a12.55,12.55,0,0,0-4.74,5.53A9.74,9.74,0,0,0,59.06,6l-.26-.28A7.5,7.5,0,0,1,60,8.61,8.73,8.73,0,0,0,59.74,11a7.75,7.75,0,0,0-.47.82c-.07-.7-.2-2.3-.2-2.32-.58,1.31-1.1,2.63-1.57,3.95a4.57,4.57,0,0,1,.88-4.83l-.28.21a8.06,8.06,0,0,0-1.88,2.08c0-2.79-.08-5.59-.12-8.38,0,0,0-.28,0-.3-.83,2.42-1.57,4.84-2.25,7.27l-.16.09-.12.07a8,8,0,0,0-2.14-4.23,34,34,0,0,0,1.26-3.34l-.14.26c-.48.88-1,1.75-1.56,2.61-.22.35-.44.7-.67,1-.08-.3-.17-.59-.27-.89l0,.25c0,.31,0,.62,0,.92-.53.8-1.06,1.6-1.62,2.4A5.37,5.37,0,0,1,50.42,4l-.37.24a11.72,11.72,0,0,0-2.38,2.08,11.31,11.31,0,0,1,3.27-3l-.56.26a14.46,14.46,0,0,0-5.31,4c0-.26-.06-.52-.07-.77l-.15,1A12.62,12.62,0,0,0,43.19,9a57.54,57.54,0,0,1,3.24-7.1l-.21.28c-1.43,2-2.67,3.75-3.81,5.64a38.58,38.58,0,0,1-.66-5.54s0,.28,0,.3c-.25,1.76-.48,3.31-.59,4.89-.13-.44-.27-.88-.44-1.32a1.87,1.87,0,0,1,0,.25,9.2,9.2,0,0,1-2,6.06l-.77-1.34c0-.22,0-.46,0-.67a44.82,44.82,0,0,0-1.71-8s-.08-.27-.08-.29a44.2,44.2,0,0,1-.44,12.94A10.28,10.28,0,0,0,31.8,6a11.58,11.58,0,0,1,2.93-2.37l-.56.24a20.5,20.5,0,0,0-2.94,1.68l-.35-.28s-.33-.24-.36-.25c.22.2.42.4.61.6a8.25,8.25,0,0,0-3.53,4.56,36.2,36.2,0,0,1,.7-5.15s.05-.22.05-.24a28.54,28.54,0,0,0-1.7,4.7c-.1-1.46-.2-2.92-.36-4.38,0,0-.23,1.16-.32,1.62a8,8,0,0,0-1-1.95,11.37,11.37,0,0,1,2.39-2s-.49.23-.53.26a19.06,19.06,0,0,0-2.21,1.28A14.11,14.11,0,0,0,22.33,2l-.44-.34a8.36,8.36,0,0,1,2,3.22,10.79,10.79,0,0,0-1.65,1.54l-1.06-.8.92,1c-1.81,2.28-1.73,4.69-1.1,7.13q-.33.46-.69.93l-1-2.1c.44-3.56.73-7.14.82-10.72,0,0-2.1,5.15-3,7.6a16.1,16.1,0,0,0-4-3.09l-.41-.22a11.85,11.85,0,0,1,4,4.39c-.53,1.43-1,2.86-1.45,4.3a9.08,9.08,0,0,0-.89-1.94c-.26-1.64-.58-3.29-1-4.93,0,0-.47,2-.69,2.9A15,15,0,0,0,9.42,8.53L9.17,8.4a10.15,10.15,0,0,1,1-7.64l-.28.32A12.29,12.29,0,0,0,8,4.26c0-.4,0-.79,0-1.18a2.3,2.3,0,0,0-.06.28A51.14,51.14,0,0,1,6.28,9.11,10.66,10.66,0,0,0,3.81,6.82c.38-1.34.81-2.69,1.33-4L5,3.07c-.8,1.44-1.53,2.73-2.18,4C2.12,5.33,1.48,3.56,1,1.77c0,0-.08-.3-.09-.32a45.49,45.49,0,0,0,1.32,7c-.17.38-.33.78-.49,1.17C1.05,8.21.5,6.83,0,5.45V18.34ZM2.76,11.59c0-.23.07-.47.11-.71.21.71.42,1.42.64,2.12C3.24,12.53,3,12.06,2.76,11.59Zm2.3,1q-.87-2-1.68-4.05c.13-.54.25-1.08.41-1.61a7,7,0,0,1,2.08,3.44C5.61,11.11,5.33,11.85,5.06,12.59Zm6.67,2.77A39.21,39.21,0,0,1,9.18,8.44a10.35,10.35,0,0,1,3.3,3.43C12.2,13,12,14.2,11.73,15.36ZM23.37,10a6.39,6.39,0,0,1,0-2l.52.53A10,10,0,0,1,23.37,10Zm.7-2.15-.54-.41A5.66,5.66,0,0,1,24.13,6,6.29,6.29,0,0,1,24.07,7.82Zm7.57-1.59a8.72,8.72,0,0,1,2,4.29,11.84,11.84,0,0,0-3.13,2.28A7,7,0,0,1,31.64,6.23ZM31,13.8a7.48,7.48,0,0,1,2.66-3.16,11.16,11.16,0,0,1,.11,1.41l-.13.12c-.23-.3-.45-.6-.71-.91l.1.17a5.35,5.35,0,0,1,.39.94c-.71.65-1.37,1.27-2,1.89C31.33,14.11,31.18,14,31,13.8Zm2.34,2.47c0,.06,0,.11,0,.17-.36-.5-.77-1-1.23-1.52a24,24,0,0,1,1.42-2.31A5.71,5.71,0,0,1,33.69,14C33.61,14.73,33.49,15.5,33.36,16.27Zm.43-3.93,0-.06,0-.07ZM44.83,8a7.62,7.62,0,0,0-1.32,4.37c-.22-.73-.44-1.46-.62-2.19A8,8,0,0,1,44.83,8Zm5.31,4.44-.12.15c-.12-.21-.24-.42-.35-.63a5.18,5.18,0,0,1,.53-1.28C50.19,11.3,50.17,11.89,50.14,12.47Zm-1-1.57c-.08-.18-.15-.37-.22-.55.45-.81.89-1.62,1.3-2.44,0,.68,0,1.35,0,2A11.82,11.82,0,0,0,49.13,10.9Zm2.32.21-.06.05c-.08-.56-.16-1.11-.26-1.67a6.27,6.27,0,0,1,.59-.55l-.33.19a2.9,2.9,0,0,0-.29.19c-.13-.74-.29-1.48-.47-2.22.25-.5.48-1,.71-1.52A6.39,6.39,0,0,1,51.45,11.11Zm2.18-.8a4.93,4.93,0,0,0-.05-.54l.24-.2C53.75,9.81,53.7,10.06,53.63,10.31ZM62.23,9a8.34,8.34,0,0,1,.79-1,30.32,30.32,0,0,1,1.27,3.11A18.23,18.23,0,0,0,63,12.42,12.09,12.09,0,0,1,62.23,9Zm2.33,6.46c0,.16-.09.31-.13.47-.36-.77-.71-1.53-1-2.3a5.38,5.38,0,0,1,.94-2.3l.25.76A6.75,6.75,0,0,0,64.56,15.48Zm5.91-4,0,.13c0,.12,0,.25.07.37s-.18.52-.28.77a7.25,7.25,0,0,1,.08-5.58,10.2,10.2,0,0,1,1.35,1.19c-.32,1.15-.68,2.29-1.09,3.44-.07-.12-.12-.24-.2-.36Zm1.66.75a31.62,31.62,0,0,0-.36,3.81l0,0a5.39,5.39,0,0,0-.26-2.38A36.05,36.05,0,0,0,72.22,9a5.22,5.22,0,0,1,.49.84A24,24,0,0,0,72.13,12.26ZM84.45,13a15.9,15.9,0,0,1-.26-5.82l.1.15A6.36,6.36,0,0,1,84.45,13Zm7-5.59c.21.75.44,1.49.68,2.22l-.2.21a6.92,6.92,0,0,0-1,1.49A20.26,20.26,0,0,1,91.48,7.45Zm.14,4.86a4.12,4.12,0,0,1,.55-2.62l.12.35C92.06,10.8,91.84,11.56,91.62,12.31Zm3.33.37c-.21-.43-.42-.87-.64-1.31,0-.24,0-.48.08-.72.23.53.45,1.07.63,1.6C95,12.4,95,12.54,95,12.68Zm16.42,1.05c-.47-1.08-.92-2.15-1.37-3.23.14-.73.32-1.47.51-2.2A7.13,7.13,0,0,1,111.37,13.73Zm6.19,1.63a50.75,50.75,0,0,1-2.23-5.64c.09-.46.18-.93.25-1.39a10.72,10.72,0,0,1,2.88,2.87C118.13,12.59,117.82,14,117.56,15.36Zm18.52-1.92c-.09-.16-.17-.32-.25-.48a6.81,6.81,0,0,1,2.24-3.08l-.33.21a10.58,10.58,0,0,0-2.32,2c-.9-2.06-1.2-4.14.08-6.23a10.5,10.5,0,0,1,3.24,5.63l-.72.93c-.33-.32-.67-.64-1-1l.14.16a6.61,6.61,0,0,1,.7,1c-.35.46-.67.9-1,1.35Zm1.55,1.21c.13-.47.26-.94.43-1.41a6.81,6.81,0,0,1,.51,2.23Zm.66-2c.15-.36.3-.73.47-1.09.14.65.24,1.31.32,2A10.73,10.73,0,0,0,138.29,12.7Zm10.26-.13c-.38-.68-.76-1.36-1.1-2.05.05-.47.08-.93.14-1.4a7.22,7.22,0,0,1,.88-1.23c0,.4.07.78.1,1.16A7.23,7.23,0,0,0,148.55,12.57Zm5.79-3.52.12.54q-.21.2-.39.39Zm.5,3c-.25-.31-.48-.61-.7-.92a4.77,4.77,0,0,1,.41-1.08c.14.61.28,1.22.4,1.83A1.63,1.63,0,0,0,154.84,12Zm1-1.28c-.21-.55-.43-1.1-.67-1.64.06-.08.1-.15.17-.23l-.2.15c-.15-.34-.31-.69-.48-1,.17-.59.31-1.19.45-1.79a6.53,6.53,0,0,1,1.17,4.13C156.11,10.45,156,10.59,155.82,10.73ZM168.14,8.9a7.55,7.55,0,0,1,.71-.84,32.66,32.66,0,0,1,1.26,3.11,17,17,0,0,0-1.66,1.59A12.33,12.33,0,0,1,168.14,8.9Zm2.24,6.58L170,16.9c-.05.19-.09.38-.14.57-.19-.6-.39-1.21-.59-1.81a5.62,5.62,0,0,1,.91-4.31c.09.25.18.51.25.76A6.75,6.75,0,0,0,170.38,15.48Zm5.91-4a.5.5,0,0,1,.05.13,2.41,2.41,0,0,1,.07.37c-.09.26-.18.52-.28.77a7.25,7.25,0,0,1,.09-5.58,9.48,9.48,0,0,1,1.34,1.19c-.32,1.15-.67,2.29-1.08,3.44l-.2-.36Zm1.67.75a33.72,33.72,0,0,0-.37,3.81l0,0a5.38,5.38,0,0,0-.25-2.38A37.86,37.86,0,0,0,178.05,9a5.14,5.14,0,0,1,.48.84A24,24,0,0,0,178,12.26Zm12.31.78A15.9,15.9,0,0,1,190,7.22l.1.15A6.36,6.36,0,0,1,190.27,13Zm6.5,1.53-.1-.12a35.94,35.94,0,0,1,.19-4.64c.29.59.57,1.17.8,1.76C197.36,12.57,197.07,13.57,196.77,14.57Zm1.08-3.67-1-1.25a18.5,18.5,0,0,1,.41-2.2c.25.87.52,1.73.81,2.59C198,10.33,197.94,10.62,197.85,10.9Zm2.6,1.12c-.29-.59-.58-1.19-.86-1.78.12-.71.23-1.43.33-2.14a8.92,8.92,0,0,1,1.25,1.31C200.92,10.28,200.69,11.15,200.45,12Zm4.5.29q-1.12-1.94-2.29-3.86l.06-1.86a8,8,0,0,1,2.45,4.85C205.1,11.72,205,12,205,12.31ZM209.38,14c-.12-.72-.23-1.43-.36-2.15.15-.31.27-.63.43-.94l-.49.63c-.29-1.65-.58-3.3-.94-4.95,0,0-.39,4.68-.54,6.89-.17.24-.32.48-.48.71a10.1,10.1,0,0,0-.19-1.89A42.55,42.55,0,0,1,208.4,3.7C211.74,7.25,211,10.65,209.38,14Zm7.75-1.85c-.09-.33-.19-.65-.29-1a8,8,0,0,1,2.22-4.8c0,.61.09,1.22.15,1.82Q218.15,10.21,217.13,12.17Zm4.51-.1q-.45-1.39-.93-2.79A9.39,9.39,0,0,1,222,7.86c.15.77.3,1.54.47,2.3C222.18,10.8,221.91,11.43,221.64,12.07Zm2.26-2.14c.22-.82.44-1.64.63-2.45A16.69,16.69,0,0,1,225,9.42l-.86,1.25C224.07,10.42,224,10.18,223.9,9.93Zm1.56,4.43c-.36-1-.72-2.06-1.09-3.1.2-.57.42-1.15.68-1.73a33.92,33.92,0,0,1,.5,4.7Zm19,.36c-.11-.9-.24-1.79-.42-2.58s-.45-1.64-.71-2.42a5.79,5.79,0,0,1,.41-.83,35,35,0,0,0,1,4.7A6.51,6.51,0,0,0,244.51,14.72Zm1.4-1.92c-.13-.3-.25-.61-.38-.92,0,0,0-.09,0-.13s0-.16,0-.17a1.47,1.47,0,0,0-.1.22c-.49-1.16-.91-2.32-1.29-3.49A8.77,8.77,0,0,1,245.46,7,7.15,7.15,0,0,1,245.91,12.8Zm8.83,1.45a14.68,14.68,0,0,1-1-5.12,5.57,5.57,0,0,1,1.17,3l0,0a.36.36,0,0,1,0,.11A7,7,0,0,1,254.74,14.25Zm11.93-5.12c-.2.56-.39,1.11-.57,1.67l-.35-.32A6.59,6.59,0,0,1,266.7,6q.24.87.51,1.74c-.17.43-.34.86-.5,1.29l-.27-.19Zm.51,3a1.37,1.37,0,0,0-.13-.2c.09-.61.2-1.22.29-1.82a4.91,4.91,0,0,1,.45,1.14C267.6,11.52,267.4,11.82,267.18,12.11Zm.24-2.5c.05-.27.08-.54.14-.81.16.47.32.94.49,1.41Q267.77,9.91,267.42,9.61Zm6.13,2.76a7.2,7.2,0,0,0-.29-3.76c0-.23,0-.47,0-.7a6.79,6.79,0,0,1,1.14,1.47c.05.29.07.59.12.88C274.24,11,273.89,11.67,273.55,12.37Zm9.7-.39c.12.23.23.46.34.69-.17.19-.32.38-.46.57Q283.16,12.61,283.25,12Zm.27,3.93a7.1,7.1,0,0,1,.34-2.69c.25.58.45,1.15.64,1.73C284.15,15.27,283.83,15.59,283.52,15.91Zm3.09-3.68a10.39,10.39,0,0,0-2.54-2l-.34-.19a6.71,6.71,0,0,1,2.48,3.16l-.21.45c-.25.2-.48.4-.71.6-.38-.51-.78-1-1.23-1.54a6.41,6.41,0,0,1,.7-1.23l.13-.16c-.39.37-.75.74-1.08,1.1l-.53-.62a10.51,10.51,0,0,1,2.9-6C287.69,7.85,287.47,10,286.61,12.23Zm5.58.59c0-.91,0-1.81,0-2.72l.94-.8A10.8,10.8,0,0,1,292.19,12.82Zm0-3.76c0-1.22,0-2.45-.05-3.67a6.58,6.58,0,0,1,1,3Zm12.48,6.63c-.36-1.52-.78-3-1.23-4.56A10.6,10.6,0,0,1,306.23,8c.12.62.26,1.23.41,1.84A55.4,55.4,0,0,1,304.67,15.69Zm6.13-1.91a7.12,7.12,0,0,1,.55-5.52l.3,1L311.44,9s.14.18.16.19.06.12.1.18c.1.36.2.72.29,1.08C311.6,11.59,311.2,12.69,310.8,13.78Zm16.27-.41c-.06-.29-.13-.58-.19-.87a18.7,18.7,0,0,1,.61-1.88c.08.53.17,1.06.28,1.59C327.54,12.6,327.31,13,327.07,13.37Zm1.06-3.21c-.08-.22-.13-.45-.2-.67a2.85,2.85,0,0,1,.12-.31c.05.2.09.41.13.62S328.15,10,328.13,10.16Zm1.94.79c0-.07.06-.14.09-.2a3.78,3.78,0,0,1,.15.87Zm1.56,2a5.31,5.31,0,0,0-1.27-2.65c.41-1,.8-1.92,1.16-2.88A24.38,24.38,0,0,1,331.63,13Zm6.46-.18a6.27,6.27,0,0,1,.71-5.46l.05-.06A15.88,15.88,0,0,1,338.09,12.77Zm12.48.82c0-.42,0-.83-.06-1.21a24.23,24.23,0,0,0-.64-3.84,8.23,8.23,0,0,1,.9-1,29.51,29.51,0,0,0,.19,5.05A8.79,8.79,0,0,0,350.57,13.59ZM357.92,16l-.3-.89a6.67,6.67,0,0,0-.22-3c0-.18.09-.36.14-.53a5.39,5.39,0,0,1,1.14,3C358.43,15,358.18,15.5,357.92,16Zm1.5-3a15.47,15.47,0,0,0-1.82-1.62,32.13,32.13,0,0,1,1-3.14,6.83,6.83,0,0,1,1.64,2.22A14.67,14.67,0,0,1,359.42,13Zm12.44-4-.15-.12-.31-.22c.16.16.28.32.42.48-.16.57-.3,1.14-.43,1.72l-.23-.23a6.2,6.2,0,0,1,.64-5.06c.19.55.4,1.09.61,1.64C372.21,7.77,372,8.37,371.86,9Zm.7,3.27-.09-.14c0-.63.07-1.26.11-1.9a5.61,5.61,0,0,1,.51,1.24C372.92,11.71,372.75,12,372.56,12.24Zm1-1.67a11.13,11.13,0,0,0-1-1c0-.51.09-1,.15-1.54q.47,1.11,1,2.22Zm5.5,1.76a7.66,7.66,0,0,0-.9-4c0-.21,0-.41,0-.62a8,8,0,0,1,1.8,2.4C379.7,10.83,379.38,11.58,379.09,12.33Zm9.79-.82c.13.19.22.39.34.59l-.46.54C388.79,12.26,388.82,11.88,388.88,11.51Zm.27,4.93a6.88,6.88,0,0,1,.22-4.07,22.15,22.15,0,0,1,1.15,2.28C390,15.26,389.55,15.86,389.15,16.44Zm2-2.47c-.5-.59-1-1.19-1.62-1.82a4.28,4.28,0,0,1,.37-.7.91.91,0,0,1,.11-.16c-.23.23-.43.46-.64.68l-.44-.49a8.3,8.3,0,0,1,.29-1.27,7.8,7.8,0,0,1,2.42,3.22Zm1-1.47a12.89,12.89,0,0,0-2.87-2.38,8.81,8.81,0,0,1,2.38-3.77A7,7,0,0,1,392.08,12.5Zm5.62-6.45a6.66,6.66,0,0,1,.57,1.13l-.5.43A5.8,5.8,0,0,1,397.7,6.05Zm.94,4a9.33,9.33,0,0,1-.71-1.72l.52-.59A6.65,6.65,0,0,1,398.64,10Zm22.27,4.4a15.57,15.57,0,0,1,.19-1.93c.22-.67.43-1.32.58-1.92s.2-1,.29-1.44a7.57,7.57,0,0,1,.28,1.6A37.6,37.6,0,0,0,420.91,14.43Zm4.63-1.67c-.1-.32-.23-.64-.37-1,.2-.33.41-.67.64-1C425.72,11.45,425.62,12.1,425.54,12.76Zm8.26,1.11-.92-3.44a7.33,7.33,0,0,1,.73-1l.18-.18c-.24.17-.44.35-.67.53.2-.53.42-1,.64-1.56A7.18,7.18,0,0,1,433.8,13.87Zm6,2.2c-.33-1.22-.69-2.44-1-3.66.05-.09.08-.18.13-.27l-.16.17c-.19-.77-.36-1.54-.48-2.31.26-.8.51-1.6.73-2.41A10.85,10.85,0,0,1,441.61,11C441,12.7,440.31,14.38,439.77,16.07Zm11.16-6.16a7,7,0,0,1-.16-2.07l.56.57A8.74,8.74,0,0,1,450.93,9.91Zm-.08-2.66A5.6,5.6,0,0,1,451.26,6a6.25,6.25,0,0,1,.14,1.71Zm8.37-1.6a10.36,10.36,0,0,1,2.06,4.74l-.15.08a9.91,9.91,0,0,0-2.95,2C457.43,10.07,457.34,7.74,459.22,5.65Zm-.5,8.36c-.05-.12-.09-.24-.14-.37a5.93,5.93,0,0,1,1.72-2.45l0,.05a6,6,0,0,1,.66,1.53c-.62.61-1.18,1.2-1.7,1.81ZM461,16.55c-.29-.36-.6-.73-.94-1.11a17.71,17.71,0,0,1,1-2.16A7.67,7.67,0,0,1,461,16.55Zm.29-4.11c-.3-.42-.64-.83-1-1.26a9,9,0,0,1,1-.74,13.25,13.25,0,0,1,.16,1.88Zm9.38.13c-.22-.4-.43-.8-.64-1.2.2-.85.4-1.7.65-2.54a1.49,1.49,0,0,0,0,.21A7.39,7.39,0,0,0,470.7,12.57Zm5.8-3.52.12.54-.39.39Zm.49,3c-.24-.31-.48-.61-.69-.92a4.34,4.34,0,0,1,.41-1.08c.13.61.28,1.22.4,1.83Zm1-1.28c-.21-.55-.44-1.1-.67-1.64l.16-.23-.19.15c-.16-.34-.31-.69-.48-1,.16-.6.31-1.19.45-1.79a6.52,6.52,0,0,1,1.16,4.13C478.26,10.45,478.11,10.59,478,10.73ZM490.3,8.9a8.65,8.65,0,0,1,.7-.84,30.32,30.32,0,0,1,1.27,3.11,15.91,15.91,0,0,0-1.66,1.59A12,12,0,0,1,490.3,8.9Zm2.24,6.58c-.13.47-.27.95-.39,1.42,0,.19-.09.38-.14.57-.2-.6-.4-1.21-.59-1.81a5.58,5.58,0,0,1,.91-4.31l.25.76A6.75,6.75,0,0,0,492.54,15.48Zm5.91-4s0,.11.05.13,0,.25.07.37-.18.52-.28.77a7.29,7.29,0,0,1,.08-5.58,9.06,9.06,0,0,1,1.35,1.19c-.32,1.15-.68,2.29-1.09,3.44-.07-.12-.12-.24-.19-.36Zm1,2.14A37.86,37.86,0,0,0,500.21,9a6,6,0,0,1,.48.84,21.61,21.61,0,0,0-.57,2.43ZM512.43,13a15.9,15.9,0,0,1-.26-5.82l.1.15A6.36,6.36,0,0,1,512.43,13Zm6.5,1.53-.1-.12A35.94,35.94,0,0,1,519,9.81c.29.59.56,1.17.8,1.76C519.52,12.57,519.23,13.57,518.93,14.57ZM520,10.9l-1-1.25a20.8,20.8,0,0,1,.42-2.2c.24.87.52,1.73.81,2.59C520.18,10.33,520.1,10.62,520,10.9Zm2.6,1.12-.87-1.78c.12-.71.24-1.43.34-2.14a8.92,8.92,0,0,1,1.25,1.31Q523,10.72,522.61,12Zm4.5.29c-.75-1.29-1.52-2.58-2.29-3.86,0-.62,0-1.24,0-1.86a8,8,0,0,1,2.46,4.85C527.25,11.72,527.18,12,527.11,12.31ZM531.53,14c-.11-.72-.22-1.43-.35-2.15.15-.31.27-.62.43-.94l-.49.63c-.29-1.65-.58-3.3-1-4.95,0,0-.39,4.68-.53,6.89-.17.24-.33.48-.48.71a10.1,10.1,0,0,0-.19-1.89,42.55,42.55,0,0,1,1.59-8.62C533.89,7.25,533.17,10.65,531.53,14Zm7.76-1.85c-.1-.33-.19-.65-.3-1a8.13,8.13,0,0,1,2.22-4.8l.15,1.82Q540.31,10.21,539.29,12.17Zm4.51-.1c-.31-.93-.61-1.86-.93-2.79a9.39,9.39,0,0,1,1.26-1.42c.14.77.3,1.54.47,2.3C544.34,10.8,544.07,11.43,543.8,12.07Zm2.25-2.14c.23-.82.45-1.64.64-2.45a19,19,0,0,1,.49,1.94l-.86,1.25Zm1.57,4.43c-.37-1-.73-2.06-1.09-3.1.2-.57.42-1.15.67-1.73a32.47,32.47,0,0,1,.51,4.7Zm19,.36c-.11-.9-.25-1.79-.43-2.58a23.65,23.65,0,0,0-.7-2.42,5.79,5.79,0,0,1,.41-.83,35,35,0,0,0,1,4.7A5.7,5.7,0,0,0,566.67,14.72Zm1.4-1.92c-.13-.3-.25-.61-.38-.92a.59.59,0,0,1,0-.13.84.84,0,0,1,0-.17l-.11.21c-.48-1.15-.9-2.31-1.28-3.48A8.77,8.77,0,0,1,567.62,7,7.19,7.19,0,0,1,568.07,12.8Zm8.83,1.45a14.68,14.68,0,0,1-1-5.12,5.57,5.57,0,0,1,1.17,3l0,0s0,.07,0,.11A7,7,0,0,1,576.9,14.25Zm11.93-5.11c-.2.55-.39,1.1-.57,1.66l-.35-.32a6.54,6.54,0,0,1,1-4.47q.24.87.51,1.74c-.18.43-.35.86-.5,1.29l-.27-.19Zm.51,3a1.37,1.37,0,0,0-.13-.2c.08-.61.19-1.22.29-1.82a4.91,4.91,0,0,1,.45,1.14C589.75,11.52,589.55,11.82,589.34,12.11Zm.24-2.5c0-.27.08-.54.13-.81.16.47.33.94.5,1.41Q589.92,9.91,589.58,9.61Zm6.13,2.76a7.41,7.41,0,0,0-.29-3.76c0-.23,0-.47,0-.7a6.43,6.43,0,0,1,1.13,1.47c.06.29.08.59.13.88C596.39,11,596.05,11.67,595.71,12.37Zm9.7-.39c.12.23.22.46.33.69l-.46.57C605.31,12.82,605.35,12.4,605.41,12Zm.27,3.93a7.1,7.1,0,0,1,.34-2.69c.25.58.45,1.15.64,1.73C606.31,15.27,606,15.59,605.68,15.91Zm3.09-3.68a10.39,10.39,0,0,0-2.54-2l-.34-.19a6.71,6.71,0,0,1,2.48,3.16c-.07.15-.14.3-.22.45l-.7.6c-.38-.51-.79-1-1.23-1.54a6.41,6.41,0,0,1,.7-1.23l.12-.16c-.38.37-.74.74-1.07,1.1l-.53-.62a10.51,10.51,0,0,1,2.9-6C609.85,7.85,609.63,10,608.77,12.23Zm5.58.59c0-.91,0-1.81,0-2.72l.94-.8A10.8,10.8,0,0,1,614.35,12.82Zm0-3.76c0-1.22,0-2.45-.05-3.67a6.7,6.7,0,0,1,1,3Zm12.48,6.63c-.36-1.52-.79-3-1.24-4.56a10.79,10.79,0,0,1,2.8-3.1c.12.62.26,1.23.41,1.84A57.8,57.8,0,0,1,626.83,15.69ZM633,13.78a7.17,7.17,0,0,1,.55-5.52c.1.32.21.64.3,1L633.59,9s.15.18.16.19a1.74,1.74,0,0,1,.11.18c.1.36.2.72.29,1.08C633.76,11.59,633.36,12.69,633,13.78Zm2.91-3.07-.24-.51a60.09,60.09,0,0,0,1.1-6,9.26,9.26,0,0,1,1.15,1.7,44.62,44.62,0,0,1-2,4.95A.78.78,0,0,1,635.86,10.71Zm1.45,3.18a4.24,4.24,0,0,0-.18-.5,29,29,0,0,0,.89-2.82,24.74,24.74,0,0,0,.51-2.72A10,10,0,0,1,637.31,13.89Z"/></g></g></svg>