<svg id="Layer_1" data-name="Layer 1" xmlns="http://www.w3.org/2000/svg" viewBox="0 0 1000 948.98"><defs><style>.cls-1{fill:#ee7608;}.cls-1,.cls-3{fill-opacity:0.6;}.cls-1,.cls-2,.cls-3,.cls-4{fill-rule:evenodd;}.cls-2{fill:#fff;}.cls-3,.cls-4{fill:#e52521;}.cls-4{fill-opacity:0.2;}</style></defs><path class="cls-1" d="M523.68,330.17a29.13,29.13,0,0,0-4.71-6.34q-6.18-5.85-6.18,10.73l.65,6.51c.78,3.13,2,5.13,3.58,6a15.1,15.1,0,0,0-.65,3.74c0,1.51.21,2.49.65,2.92l2,.66a26,26,0,0,0,3.58-7.16c2.2-.22,5.13-.65,8.77-1.29q-2.66-6.42-5-11.06c.38-1.46.76-3,1.15-4.56,0-1.3-.23-2.05-.66-2.27l-.65.32A5.12,5.12,0,0,0,523.68,330.17Zm-23.89,9.6q0-25.69,19.51-26,19.17-.66,19.18,30.57a17.67,17.67,0,0,1-4.23,11.38,17,17,0,0,1-14,6.5q-12.36,0-17.56-11.05Q499.79,340.08,499.79,339.77ZM431,296.36a7.56,7.56,0,0,1,5.69-3.74q10.41-1.31,13.33,45.84,19.52,74.46,19.51,81a10.41,10.41,0,0,1-2,5.85,8.35,8.35,0,0,1-7.15,3.58,8.6,8.6,0,0,1-3.9-1h-.65a11.14,11.14,0,0,1-6.84-1.94A25.15,25.15,0,0,0,445.8,423a67.7,67.7,0,0,1-10.4,8.45q-7.69,4.82-29.26,2.93c0-5.41.23-8.88.64-10.4,1.52.21,3.48,1.51,5.86,3.89a11.74,11.74,0,0,0,8.13,3.26c3.68,0,6.07-1.31,7.15-3.9a19.47,19.47,0,0,1,1-5.86h2.44c2.41,0,4.59,0,6.5-.16q8.18-.27,11.06-1.79l.49-.32a3.85,3.85,0,0,0,1.94-3.25,40.37,40.37,0,0,0-6.82-7.65c-.41-.33-.79-.65-1.15-1a15.19,15.19,0,0,0-9.91-3.09,12.64,12.64,0,0,0-3.74.81,13.5,13.5,0,0,0-5.37,4.39q-6.87-17.66-15.93-59.51Q394.76,277.33,394.75,277q0-56.26,25,28.29,4.43,15.15,8.13,28.12l-1.63-9.59a95,95,0,0,1,1.47-18.37q1.82,15,8.29,41.13,9.43,36.42,14.63,42.27l1.3-1.94q-5.85-20.18-12.35-50.08Q434.32,311.34,431,296.36ZM401.75,460.57q-3,7-8.95,7-7.47,0-8.78-8.45v-8.78q0-20.49,4.23-25,2.24-2.56,10.4-5.69-3.88,9.53-3.9,33.66a19,19,0,0,0,.33,4.22q1,3.91,4.23,3.91A4,4,0,0,0,401.75,460.57Zm20.64-48.45a38.12,38.12,0,0,0-3.57,8.28,32,32,0,0,0-6.67-5c1.78-.47,3.68-.95,5.69-1.47A18.71,18.71,0,0,0,422.39,412.12Zm15.13-23.74.15-.16-15.6-58.86q-9.44-35.44-23.42-53.33,5.87,18.54,15.94,57.88,9.75,34.79,21.79,56.26Zm205.34,40.15a9.9,9.9,0,0,0,2.27.66q48.14-34.14,48.45-34.15,31.88-22.11,57.56-37.39-13.65,3.57-60.48,31.86-48.45,29.26-48.45,36.43C642.21,427.45,642.42,428.32,642.86,428.53ZM182.09,470.16q20.24,4.74,66.66,17.23,70.89,19.19,81.62,19.19c1.3,0,2.06-.22,2.28-.65a1.38,1.38,0,0,1,0-1.31l-.66-1.95Q275.42,485.44,250.7,478a356.27,356.27,0,0,0-82.91-14.31v.17c-1.95-1.14-2.93-2.07-2.93-2.77q0-16.91,90.4,8.13t90.4,33.49q0,11.07-14,11.06-9.1,0-86.82-23.09Q201.91,477.73,182.09,470.16Zm436.71-43.9q0-1.63,25-19.51,28.29-20.49,55.28-36.75,80-48.45,80-19.51,0,2.61-72.51,44.55T629.52,437q-6.49,0-9.1-4.88A12,12,0,0,1,618.8,426.26ZM278.67,633.06q12.21-8.37,46.82-21.46,50.73-19.17,63.41-19.18l9.75.65c0,.22.23.43.66.65a7,7,0,0,1,.32,2.6q0,4.89-56.25,28.61-55.28,23.43-63.74,23.42a6.82,6.82,0,0,1-6.5-3.57c-.65-2.39-1-3.69-1-3.91q0-1.95,2.44-4.39c.17.57.44.74.81.49h10.73q15.27-.33,42-13,14.63-6.83,37.71-19.83-6.17.33-16.9,3.9a172.32,172.32,0,0,0-21.79,9.43q-13,6.51-34.47,12.35ZM227,622.66q0-9.43,94.3-45.2t94.3-18.53q0,4.22-82.6,37.39-83.88,33.49-98.85,33.49a6.67,6.67,0,0,1-6.18-3.25A8.61,8.61,0,0,1,227,622.66Zm543,29.91c2.16,0,2.6-.43,1.3-1.29Q721.88,637,692.93,627.54q-52-17.56-76.08-35.45a90.57,90.57,0,0,1,10.72-1.62,75.23,75.23,0,0,0-13.65-1.63,9.8,9.8,0,0,0-.33,2.93q0,8.13,63.08,34.14Q741.71,652.58,770,652.57ZM230.54,625.91c.87,1.31,3.36,2,7.49,2q11.7,0,78-27.64,67-28,67-33.82c0-1.29-.11-1.94-.32-1.94l-1.31-.33Q276.08,605.42,230.54,625.91Zm546,46.17q-15.93,0-185.67-84.54,0-17.22,99.83,24.72,99.83,42.27,99.82,52,0,3.24-3.58,5.52C784.31,671.33,780.83,672.08,776.5,672.08ZM592.62,698.91q8.63,8.37,21,19.68Q637.65,740,637.65,741a7.07,7.07,0,0,1-1.95,4.56,6.18,6.18,0,0,1-4.88,2.27q-28.27,0-69.25-51.38-35.77-44.87-35.77-54.3,0-15.28,22.76,8.78,7.66,7.89,17.07,18.86-13.32-14-28.13-28.62l-.32,1.63q61.46,70.23,87.8,98.53l1.29-2Q611.38,720.08,592.62,698.91Zm-14.31-76.74q19.52,12.51,61.3,51.87Q718,748.17,718,762.81a22.71,22.71,0,0,1-1.3,7.15q-16.59-2.28-87.15-72.83-68.61-68.62-68.61-75.77,0-9,13.82-1.3l-.16.33q62.11,81.93,134.29,145.34a3,3,0,0,0,1.63-1.62Q678.63,733.56,639,690.3,627,677,578.31,622.17Zm-80.48-9.59a9.9,9.9,0,0,0,1-3.25Q530,646.4,569.7,780a7,7,0,0,1-1.3,3.9,6.2,6.2,0,0,1-5.21,2.61q-13,0-39.67-76.42-24.06-76.08-24.06-76.41-2.93-14-2.93-17.24A8.32,8.32,0,0,1,497.83,612.58ZM432,665.42q35.94-66.13,35.94-40.15,0,3.57-38.38,85.51-38.68,82.28-40.64,82.27c-2.81,0-4.77-1.09-5.85-3.25a10.6,10.6,0,0,1-.65-3.91,48.68,48.68,0,0,1,1-8.94q8.91-24.81,24.71-60Q423.13,685,432,665.42Zm86-1.79-1.3.32q5.85,13.66,24.07,53.66Q556,751.11,563.52,769l.65-1Q552.79,722.82,518,663.63Zm-93.65,94q4.56-1,24.71-36.75,23.74-43.24,32.52-58.2Q445.15,720.55,424.34,757.61Zm-11,7.15v-5.85q0-13,41.94-71.22,42-58.53,41.95-31.21Q426.62,770,420.12,770,414.26,770,413.29,764.76ZM418,692.08q-19.61,40.51-32,74Q393.63,739.68,418,692.08Z" transform="translate(0 -25.51)"/><path class="cls-2" d="M523.68,330.17a5.12,5.12,0,0,1,2.44-1.79l.65-.32c.43.22.66,1,.66,2.27-.39,1.58-.77,3.1-1.15,4.56q2.38,4.65,5,11.06c-3.64.64-6.57,1.07-8.77,1.29A26,26,0,0,1,519,354.4l-2-.66c-.44-.43-.65-1.41-.65-2.92a15.1,15.1,0,0,1,.65-3.74c-1.6-.88-2.8-2.88-3.58-6l-.65-6.51q0-16.57,6.18-10.73A29.13,29.13,0,0,1,523.68,330.17Zm-95.92-24.71a76.87,76.87,0,0,1-.81-10.25c0-3.25.75-5.41,2.27-6.5q.79,3.42,1.79,7.65,3.32,15,8.62,40.48,6.5,29.91,12.35,50.08l-1.3,1.94q-5.21-5.83-14.63-42.27Q429.59,320.49,427.76,305.46ZM406.14,434.39q-.12,4.62,0,11.06-.51,12.46-4.39,15.12a4,4,0,0,1-2.44.81q-3.26,0-4.23-3.91a19,19,0,0,1-.33-4.22q0-24.13,3.9-33.66c1.62-4,3.8-6,6.51-6a15.57,15.57,0,0,1,7,1.79,32,32,0,0,1,6.67,5,38.12,38.12,0,0,1,3.57-8.28,18.29,18.29,0,0,1,1.95-2.77,13.5,13.5,0,0,1,5.37-4.39,12.64,12.64,0,0,1,3.74-.81,15.19,15.19,0,0,1,9.91,3.09c.36.32.74.64,1.15,1a40.37,40.37,0,0,1,6.82,7.65,3.85,3.85,0,0,1-1.94,3.25l-.49.32q-2.88,1.51-11.06,1.79c-1.91.13-4.09.18-6.5.16H428.9a19.47,19.47,0,0,0-1,5.86c-1.08,2.59-3.47,3.9-7.15,3.9a11.74,11.74,0,0,1-8.13-3.26c-2.38-2.38-4.34-3.68-5.86-3.89C406.37,425.51,406.15,429,406.14,434.39Zm31.38-46-1.14,1.79q-12-21.46-21.79-56.26Q404.51,294.57,398.65,276q14,17.88,23.42,53.33l15.6,58.86ZM182.09,470.16q-11.46-2.7-14.63-2.93l.33-3.41v-.17A356.27,356.27,0,0,1,250.7,478q24.72,7.49,81.29,24.71l.66,1.95a1.38,1.38,0,0,0,0,1.31c-.22.43-1,.65-2.28.65q-10.72,0-81.62-19.19Q202.33,474.9,182.09,470.16Zm460.77-41.63c-.44-.21-.65-1.08-.65-2.59q0-7.15,48.45-36.43,46.82-28.27,60.48-31.86-25.7,15.28-57.56,37.39-.32,0-48.45,34.15A9.9,9.9,0,0,1,642.86,428.53ZM278.67,633.06l14-3.25q21.47-5.85,34.47-12.35A172.32,172.32,0,0,1,348.91,608q10.72-3.59,16.9-3.9-23.08,13-37.71,19.83-26.67,12.69-42,13H275.42c-.37.25-.64.08-.81-.49a9.89,9.89,0,0,1-.17-2.11Zm-48.13-7.15q45.54-20.48,150.88-61.78l1.31.33c.21,0,.32.65.32,1.94q0,5.86-67,33.82-66.35,27.64-78,27.64C233.9,627.86,231.41,627.22,230.54,625.91ZM770,652.57q-28.29,0-93.33-26.66-63.07-26-63.08-34.14a9.8,9.8,0,0,1,.33-2.93,75.23,75.23,0,0,1,13.65,1.63,90.57,90.57,0,0,0-10.72,1.62q24,17.88,76.08,35.45,28.94,9.44,78.37,23.74C772.6,652.14,772.16,652.57,770,652.57ZM565.63,669.81q14.34,15,27,29.1,18.75,21.2,33.65,40.49l-1.29,2q-26.34-28.29-87.8-98.53l.32-1.63Q552.32,655.83,565.63,669.81Zm12.68-47.64Q627,677.06,639,690.3q39.67,43.25,71.54,73.81a3,3,0,0,1-1.63,1.62q-72.18-63.4-134.29-145.34l.16-.33.49-1.3C576.25,619.92,577.29,621.06,578.31,622.17ZM518,663.63q34.8,59.19,46.18,104.38l-.65,1q-7.49-17.9-22.76-51.38-18.22-40-24.07-53.66Zm-86,1.79Q423.13,685,408.08,717q-15.79,35.19-24.71,60c-.57,1.49-1.12,2.95-1.62,4.4l-1.3.32q2.57-7.62,5.53-15.61,12.43-33.46,32-74,8.89-18.51,19.34-38.53Q435,658.76,432,665.42Zm-7.64,92.19q20.82-37.08,57.23-95-8.77,15-32.52,58.2Q428.91,756.64,424.34,757.61Z" transform="translate(0 -25.51)"/><path class="cls-3" d="M400,286.76q10.91,18.06,25,50.57l-.66-1.79q-21.78-58.86-21.78-69.92,0-31.86,30.89,39.68Q464,376.51,464,397q.64,9.43-7.48,9.44A9.71,9.71,0,0,1,450,403.5q4.28,13.31,7.32,25.2c.65.28,1.24.55,1.79.81Q466,432.77,558,466.58c.48.18,1,.34,1.46.49q21.75-11.51,48.94-25.2,112.79-56.81,132.18-55.12L543.35,480.24l-19.51-12.69-240.13-99q1.23-1.94,5.37-1.62,1.26-2.12,5.52-2.12,1.95,0,75.44,28.62,37.44,14.64,59.67,23.73-4.66-22.87-7.32-31.86-4.23-13.67-21.78-62.44-15-42.27-15-44.87,0-13.55,11.54,4.39a3.82,3.82,0,0,0-.81,2.44q0,5.52,25.37,75.77Q426,372.6,438,407.4q3.6,9.41,6.51,15.77,6.14,13.17,9.42,13.17c1.52,0,2.28-.87,2.28-2.6a36.71,36.71,0,0,0-1.79-6.34q-4.76-13.81-21.29-56.42Q408.85,309.72,400,286.76ZM242.9,446.91a20.62,20.62,0,0,0-2.6-.16l-3.25-.66h-2.61l-3.25-.64-3.25-.66-7.8-1.29-4.55-.66a33.15,33.15,0,0,1-9.76-1.3l-4.55-.65H199l-7.16-1.3a10.52,10.52,0,0,0-2.6-.32L182.09,438l-4.55-.64-4.55-.66-2.6-.65-2.6-.64c-2.39-.44-4.77-.77-7.16-1l-2.6-.65-4.55-.65,229.89,56.25-9.43,6.83q-28.76-7.35-66-17.56-105.69-29.26-173-50.73c-.43,1.09-.64.54-.64-1.62l.32-1.95q13.33,1,100.15,20.81Q238.91,446.05,242.9,446.91Zm102.27,54.95,24.55,5.37,3.57,3.57-43.89,7.81H296.23l-27-13-90.89,10.57a394.94,394.94,0,0,0-76.57,8.62c-.74.16-1.44.32-2.11.49l-86,9.91,102.1,12,178.84,3.25,122.27-8.79L184.37,745.58,456.54,574.53,379.8,787.19l59.5-122.26-6.83,84.22q-1.38,8.07-2.93,16.58.63-1.34,2-4.55l-.65,9.11,4.55-.33,53-148,7.15-.65,2.27,5.53,23.09,5.85,45.53,182.75L541.4,697.28q28,87.86,28,125.36a2.33,2.33,0,0,1-1.3,2.27,2.33,2.33,0,0,0-1.3,2.28l3.57,9.76-.64.65q-18.87-36.42-44.23-131-7.94-29.65-13-50.08a81.88,81.88,0,0,1-18.21-2.11q-8.12,21.25-19.83,50.56-40.65,101.45-56.26,101.45-6.81,0-8.77-9.75l-.65-9.76q0-4.54,7.8-53.65c.21-1.38.43-2.73.65-4.07q-42.29,95.45-51.7,95.44-7.49,0-9.11-6.5-.31-6.51-.32-6.83,0-34.14,67-193.48c.46-1.08.89-2.17,1.3-3.25q-29.05,19.83-68.61,46.17Q205.18,761.19,192.5,761.18q-9.1,0-12.36-5.52-1.3-5.53-1.3-5.86,0-9.42,58.53-65.68,41.63-40,69.59-64.39,54.1-47.64,77.87-68.44-35.26.54-80.47,3.41-48.78,3.57-51.38,3.58-89.74,6.5-93.65,6.5a530.59,530.59,0,0,1-109.25-11Q.32,543.32.32,533.89q0-8.46,55.61-14,86.49-9.1,122.91-16.26,64.07-13,83.9-7.8,34.78,8.77,56.58,8.77.65,0,17.55-1.95C339.68,502.36,342.44,502.08,345.17,501.86Zm22.76-1.46-4.39,3.25-12-2.28Q360.06,500.61,367.93,500.4ZM283.55,368.87,431.82,452.6q-5.4,4.65-11.05,8.94-6.5,4.89-13.33,9.26a44.61,44.61,0,0,1-5.53,2.77,44.07,44.07,0,0,1-21.3,3.74,49,49,0,0,1-9.6-1.63q-25.1-7.47-50.88-13.65a170.15,170.15,0,0,0,21.95,2q15.44,0,43.24,5.85,6.94-8.07,22.12-17.07L383.37,437q-100.14-65.36-100.15-66.33A4.43,4.43,0,0,1,283.55,368.87ZM410.37,268.23c-1.09.65-1.63,1.95-1.63,3.9q0,3.9,18.85,54.31,19.2,54.94,23.09,54.94c1.09,0,1.73-.21,2-.64Q429.23,310.83,410.37,268.23ZM532.46,655.18l-4.71-22.44,3.25-1.63,55.28,103.41-26.67-121,74.14,42-16.26-31.21L853.56,746.22l2.93-4.55L629.2,579.09,757,606.4l24.71-.64,1.31-4.88L650,560.23l173.32-16.59L915,543l62.11-7.49-40-5.52L679,523.81,660.74,500.4l190.55-68.94,2.93-5.52-278,43.24,164.86-82.43q3.57.44,3.57,3.09,0,3.57-98.19,54.63-7.65,4-15.13,7.8,265.5-48.82,265.5-34.79,0,10.41-186.32,79.67l-23.25,8.62q4.32,3.54,8.94,7.64l95.93.32q45.84,4.88,53,5.53,16.26,1.31,69.59,3.25h35.77q18.85-.64,26.33,2.28,6.51,2.28,6.51,7.8,0,10.73-51.71,18.21-59.82,6.18-76.41,8.45-25.37,3.27-48.78,4.56-41.82,2.61-79,5.52,62.43,26.85,62.43,33.5,0,12.34-16.58,12.35-7.8,0-86.49-19.51-17.28-4.32-31.06-8.13c3.06,3.35,6.26,6.94,9.59,10.73q12.69,9.43,40.32,26,15,9.11,42.93,25.69,6.83,4.21,72.51,53.33,32.85,24.38,64.06,48.12a9.46,9.46,0,0,1-2,5.85q-2.92,3.9-9.1,3.9-3.25,0-77.39-34.14-75.43-35.12-106-51-15.12-8.75-26.18-15,.16,3,.16,5.85a13,13,0,0,1-1.95,6.83,9.44,9.44,0,0,1-8.45,4.55q-16.59,0-67-35.44-3-2.16-5.85-4.22,3,10.35,6.18,23.41,7.49,31.22,12,62.43a36.23,36.23,0,0,1-.65,8.45q-2.28,6.84-9.75,6.83-15.09,0-49.76-87.47a9,9,0,0,1-2,1.3A24.27,24.27,0,0,1,532.46,655.18Z" transform="translate(0 -25.51)"/><path class="cls-2" d="M532.46,655.18l8.94,42.1,25.05,118.21L520.92,632.74l-23.09-5.85-2.27-5.53-7.15.65-53,148-4.55.33.65-9.11,1-12,6.83-84.22L379.8,787.19l76.74-212.66L184.37,745.58l232.5-203.89L294.6,550.48l-178.84-3.25-102.1-12,86-9.91,78.68-9.11,90.89-10.57,27,13H329.4l43.89-7.81-3.57-3.57-24.55-5.37-75.93-16.75,82.26,16.26,12,2.28,4.39-3.25,6-4.23,9.43-6.83L153.48,433.09l4.55.65,2.6.65c2.39.21,4.77.54,7.16,1l2.6.64,2.6.65,4.55.66,4.55.64,7.16,1.31a10.52,10.52,0,0,1,2.6.32l7.16,1.3h2.27l4.55.65a33.15,33.15,0,0,0,9.76,1.3l4.55.66,7.8,1.29,3.25.66,3.25.64h2.61l3.25.66a20.62,20.62,0,0,1,2.6.16c.22.06.44.12.65.16l3.25.65h2.61l3.25.65A95.37,95.37,0,0,0,265,450.65c.87.21,1.84.43,2.93.64l5.85.66,3.26.65q21.76,4.26,43.08,9.43,25.78,6.18,50.88,13.65a49,49,0,0,0,9.6,1.63,44.07,44.07,0,0,0,21.3-3.74,44.61,44.61,0,0,0,5.53-2.77q6.82-4.37,13.33-9.26,5.66-4.29,11.05-8.94L283.55,368.87l-2.6-1.46,2.76,1.13,240.13,99,19.51,12.69,197.22-93.49L750,382.2l-8.94,4.55L576.2,469.18l278-43.24-2.93,5.52L660.74,500.4,679,523.81,937.14,530l40,5.52L915,543l-91.69.64L650,560.23l133,40.65-1.31,4.88L757,606.4,629.2,579.09,856.49,741.67l-2.93,4.55L617.49,624.29l16.26,31.21-74.14-42,26.67,121L531,631.11l-3.25,1.63ZM397.19,282.37a5.7,5.7,0,0,1,.82-.81c.57,1.52,1.23,3.26,1.95,5.2q8.9,23,33.17,84.22,16.53,42.6,21.29,56.42a36.71,36.71,0,0,1,1.79,6.34c0,1.73-.76,2.6-2.28,2.6q-3.29,0-9.42-13.17-2.92-6.36-6.51-15.77-12-34.8-16.25-46.82-25.38-70.24-25.37-75.77A3.82,3.82,0,0,1,397.19,282.37Zm13.18-14.14q18.84,42.58,42.27,112.51c-.23.43-.87.64-2,.64q-3.9,0-23.09-54.94Q408.74,276,408.74,272.13C408.74,270.18,409.28,268.88,410.37,268.23Z" transform="translate(0 -25.51)"/><path class="cls-3" d="M629.52,413.74a11.16,11.16,0,0,1,2.12-1.3,10.8,10.8,0,0,1,1.13-1.46q4.23-4.23,11.39-4.23,4.88,0,41.3,10.08,11.37,0,47.79-14.63,20.82-8.13,20.81,12.35,0,7.49-8.12,12-9.44,4.88-11.39,17.56v9.43l18.87.33q3.89,0,43.56-2.61,7.15,0,83.25-18.53,76.41-18.86,94-18.86,18.85,0,24.06,6.18,2.61,3.26,1.31,6.18,0,1-96.58,37.72-97.54,36.74-110.88,40.32,3.25,4.54,3.25,7.16,0,.84-9.76,4.39a1.51,1.51,0,0,0-1.29-1.47H777.8l-1.3.65H752.76l-.65.33H732.6q-27.83,2.92-35.93,3.25,8-2.85,22.27-8.13,34.15-12.68,48.78-16.58,1.95-.66,34.8-10.74,25-7.47,37.71-10.73,28.62-7.49,71.22-22.43,12-4.56,80.63-28.62-.32-2-1.62-1.95-11.7,0-57.55,10.08-50.08,11.72-62.76,14.31Q795,459.42,743,472.43l-17.23,1q-5.53,0-10.09-12-3.57-9.44-3.57-13.66,0-6.51,12-15,6.18-4.23,12-8.13c0-1.3-1-1.95-2.93-1.95-4.11,1.31-8.45,2.71-13,4.23a101.4,101.4,0,0,1-28,3.9,29.93,29.93,0,0,1-6-.65,63.54,63.54,0,0,1-16.43-6.83q-13-7.47-20.48-7.15-3.9,0-8.46,3.9c-.67.58-1.27,1.12-1.78,1.63-1.84,1.9-2.76,3.53-2.76,4.87,0,1.68,3.84,3.46,11.54,5.37,2.34.6,5,1.19,8,1.79Q667.26,436,672,443.5c2.27,3.56,3.42,8,3.42,13.33a48.57,48.57,0,0,1-.33,5.69q-.57-6.48-17.89-16.1c-2.08-1.15-4.36-2.35-6.83-3.58q-25-12.36-25-18.85Q625.3,417,629.52,413.74Zm-79.66,12.84-1.14-1.78Q528.4,448,528.4,450.32v1c.4-.48.83-1,1.3-1.62q6.18-7.49,14.31-7.48a25.39,25.39,0,0,1,2.93.16q5.19-10.29,5.2-10.57C552.14,430.49,551.37,428.75,549.86,426.58Zm76.41-15.12q-29.91,22.69-67,50.4A43,43,0,0,1,556,476.34q9.42,1.29,14,11.7a38.23,38.23,0,0,1,2.6,13.66q0,22.44-31.86,29.91,3.24,7.49,3.25,9.76,0,15.28-20.49,18.86,3,3.76,5,6.51,9.15-7.23,72.68-42.61,49.9-27.92,66-46a33.9,33.9,0,0,0,6.82-10.4,52.64,52.64,0,0,1-5.2,13.49Q663,492,651.64,502.35q-11.37,8.13-17.4,13.17-6.15,3.62-14.8,9.59-15,10.08-22.76,14.31l-50.72,25v.16a1.62,1.62,0,0,0-.65,1.14l.32,1h5.85q3.35-.45,6.67-1,28.5-4.05,56.74-10.74l7.48-1.78q12.21-2.94,30.08-7.48,7.08-1.71,15.12-3.74,22.11-5.21,76.09-16.26,27.9-5.84,37.23-8.29-26.83,9.54-103.56,33l-28.13,8.61q-91.43,27.36-111.86,28.45-.93,9.63-10.57,66c-.18,1.07-.34,2.16-.49,3.25q-10.57,62.25-11.54,80.32-1,20.49-1.3,90.07-3.26,59.17-19.83,59.18-15.62,0-25.05-53.33-7.8-62.76-12.35-81.94-2.93-12.35-4.55-33.49-1.95-28.29-2.93-34.79-1.29-10.73-1.3-34.15,0-14.29-8.13-21.13a3.69,3.69,0,0,1-.48-.49q-7.65-6.54-7.65-12.52v-2.11Q427,620,420.44,630.79q-14.12,22.79-26.66,41.78l-.33.49a14.4,14.4,0,0,1,8.13,5.86q2.93,3.9,2.93,7.15Q176.9,974.49,152.83,974.49q-10.72,0-13.66-6.83c-.65-1.52-1-4.22-1-8.13Q138.2,955,323.87,656q13.61-22.07,28.29-45.69,10.6,0,11.87,11.22-7.48,10.4-24.39,37.4c-.16.27-.32.54-.49.81q-7.47,11.38-23.08,41.62-5.86,11.05-27.32,48.13-12.28,21.93-16.26,30.4-5.1,7.9-11.7,18l-37.4,53q-14.62,19.83-40.64,59.83-27,41.63-27,45.52v1a1.48,1.48,0,0,0,1.62,1q2.93,0,21.46-23.08,22.75-28.29,27-32.84,10.08-11.05,24.39-28.29,16.26-19.51,24.06-28.94,67.79-83.87,83.25-106.5l.32-.16v.32q-19.52,27-19.51,34.8v1.3a1.15,1.15,0,0,0,1.3,1.3q12-16.26,17.23-21.79,11.07-15,17.24-22.43,35.44-42.92,35.44-45.2l-1-1A119.9,119.9,0,0,0,372,700.38q-5.19,5.21-14.95,15.28v-.33q5.19-8.76,28.77-43.08,4.5-6.46,9.59-13.82,6.51-9.75,25.69-35.12,6.45-8.73,10.41-14.14,3.72-5.07,5.2-7.16l1-1.46-.15-.33-.17-.64a59,59,0,0,0-4.88,3.41q-10.34,7.85-27,25.53Q394.45,640.16,373,664c-.85,1-1.71,1.95-2.6,2.93q-9.11,9.76-38.05,39-12.78,13.13-19,20.17a20.37,20.37,0,0,0,.81-2q4.56-12.68,7.48-17.55l15.61-28.94q6-11.73,10.73-21.14,12.26-24,16.26-32.19-.19,9.16-10.08,28.28a2.35,2.35,0,0,0-.17.49q-5.22,10.28-13.82,26.83,15.48-18.67,28-33.49,21.69-25.65,34.47-39.67,11.38-12.3,19.19-17.89-18.51-9-43.9-28.13a53.88,53.88,0,0,1-7.16,3.42l-2.6,1q-7.6,18.18-43.57,26.66-46.5,5.85-49.43,6.5-.58.15-1.14.33Q242,606.24,193.8,614.86q-42.92,7.8-48.12,7.8-8.46,0-19.51-5.52c-1.36-.62-2.61-1.22-3.74-1.79q19.41-1.26,80.8-12.85,41.46-7.89,69.91-14,12.67-2.81,22.76-5.2c-2.38,3-3.57,5.31-3.57,6.82v1.63a1.75,1.75,0,0,0,1.95,1.3q.32,0,17.23-10.73a186.71,186.71,0,0,1,23.74-11.71l1.62-.64q22.44-9,33.17-13.82c.37-.17.75-.33,1.14-.49q8.63-4,8.62-4.88l-.33-.32a76,76,0,0,1-9.43,3.08l-1.3.33a38.47,38.47,0,0,1-7.48.81q-1.29,0-6.83-.32c-.43-.22-1.41.21-2.93,1.3h-6.82c-1.52-1.52-4.56-2.38-9.1-2.61h-2.93a45,45,0,0,1-7.81-.64q-3.36-.6-6.18-1.14-6.56-1.32-10.4-2.44c-6.93-2.17-10.3-4.55-10.08-7.16a5.75,5.75,0,0,0-.49-2.11c-.3-.92-.85-1.3-1.62-1.14a2.39,2.39,0,0,0-1.14.33,26.48,26.48,0,0,0-5.53,3.9L263.06,557.3q-2.28,1-13.33,5.53a96.75,96.75,0,0,0-15.29,6.83q-26.33,13.65-62.43,26-16.57,4.23-29.58,8.13-20.16,5.79-24.72,8.62c-1.51-1.16-2.28-2.19-2.28-3.09q0-10.08,48.13-22.44,58.86-15.27,62.76-17.23,18.21-9.12,28.61-15,19.19-10.73,21.14-15.6,3.51-8,12.36-6.84a30,30,0,0,1,5.52,1.63,114,114,0,0,1,15.94,7.48H353.3q-3.45-2.86-7-5.86Q309.91,504.46,293.46,488q-13.81-13.5-13.82-16.91a8.34,8.34,0,0,1,2.28-5.53,9.45,9.45,0,0,1,2.11-2q1.91,4.53,26.83,20.82,5,3.34,11.06,7.15c1,.61,1.95,1.2,2.92,1.79q18.77,11.7,42,25.85,1.27,1,42.11,33l1.47,1.14q22.36,17.4,30.23,21.46a6.36,6.36,0,0,0,.49,1l.49.65a3.73,3.73,0,0,0,2.93,1.63c1.52,0,2.27-.55,2.27-1.63,0-1.49-.7-3.49-2.11-6-.42-.75-.9-1.56-1.46-2.44,2.16-1.51,3.9-2.27,5.2-2.27a2.42,2.42,0,0,1,1.46.49q3.47,2.25,3.74,16.41,0,3.52-2.93,14c-.2.71-.41,1.47-.65,2.27q-3.57,12.69-3.57,17.89l.65,3.9c.65,2.6,1.51,3.9,2.6,3.9q.65,0,5.85-10.08,6.18-11.7,8.13-14.95v5.52q-1.62,4.88-1.63,14c0,1.08-1.29,3.36-3.9,6.82-.46.61-.9,1.21-1.3,1.79-1.95,2.63-2.93,4.32-2.93,5,0,2.17,2.5,3.14,7.48,2.93q7.81,5.52,9.43,22.11.66,9.44,2,28.61,2.93,17.24,5.21,52.35v21.47q1.31,20.81,3.25,30.24v51a114.61,114.61,0,0,0,3.9,15.93q3.25,9.75,5.85,9.75,2,0,2.93-14.3a154.33,154.33,0,0,0-1.3-15.61V801.83a101,101,0,0,1-1-16.26l.32-3.25V760.21q2.28-28,2.27-33.5,0-6.5-1.95-35.76v-6.51q1.6-11.36,2.77-21c1.39,2.18,3.18,5.06,5.36,8.61q5.85,8.79,9.76,8.79c1.3,0,1.95-2.07,1.95-6.18a47,47,0,0,0-1-10.74q-1.16-5.73-2.12-11.7c0-.54-.09-1.09-.16-1.63V634.69a27.9,27.9,0,0,1-1.63-9.42c0-2,1.52-3.69,4.55-5.21a7.32,7.32,0,0,0,4.23-6.83q0-9.09-16.25-16.26-16.28-7.47-16.26-21.46a3,3,0,0,1,0-2q.64-2.28,3.57-2.28,8.46,0,24.71,14.31a185.32,185.32,0,0,1,15,14q2,0,2-2.28-10.4-20.49-13.65-28.29,0-.33-5.53-14.31c-.69-2-1.33-3.83-2-5.37,1,.33,2.62.82,4.88,1.47h10.09q7.8-2.59,10.08-6.18c.86-1.3,1.3-3.47,1.3-6.5a7.73,7.73,0,0,0-.66-3.9q-1.29-1.63-7.8-3.91V530q9.43-5.21,11.38-7.15c1.3-1.53,2-3.91,2-7.16q0-4.54-2.93-6.18,13.32-2.92,18.21-7.47,4.23-3.58,4.23-10.41,0-15.62-7.81-15.61-10.08,0-20.49,11.05a59.12,59.12,0,0,0-9.1,12.69q2-6.51,9.43-23.74,6.82-16.26,6.83-16.91c-.22-1.3-.76-2-1.63-2q-1.62,0-17.56,18.53t-20.16,18.54a11.5,11.5,0,0,0-5.2-1.3c-3.25,0-5.53.86-6.83,2.6-1.52,1.74-2.6,2.6-3.25,2.6-1.3,0-2.5-2.38-3.58-7.15-.1-.41-.21-.79-.32-1.14a7.74,7.74,0,0,1,2-2.11l-3.25-3.25a13.94,13.94,0,0,0-1-2.61q1.31-.64,27-10.08l2.6.65q1.95,0,3.9-5.2a24.12,24.12,0,0,0,1.31-6.5,4.87,4.87,0,0,0-2.28-5.85q-2.53-1.63-7.48-1.63a10.19,10.19,0,0,0-8.78,4.55q-3.57,4.54-4.22,5.21-1-6.19-6.84-19.84-5.52-7.49-6.17-9.43c-.57-5.34-2.64-8.32-6.18-8.94a7.4,7.4,0,0,0-1.63-.17h-.16q-6.37.17-10.57,20.49-2.92,14.29-2.93,22.11,0,3.9,2.61,10.41a25.17,25.17,0,0,1,1.13,3.25,21.42,21.42,0,0,1,1.47,7.15q0,2.93-3.58,6.83c.22-2.6,0-4.34-.65-5.2-.83-1.34-3.76-2-8.78-1.95-1.56.06-3.29.17-5.2.32q-14.31-8.13-19.51-13.33a97.93,97.93,0,0,0-7.8-8.13q-6.51-6.18-11.06-6.18a2.33,2.33,0,0,0-1,.17,2.18,2.18,0,0,0-1,2.11q0,3.7,7.47,13.33,4.47,5.49,11.39,13,22.11,23.09,25.69,29.91-5.21.33-11.06,6.18-2.82,2.82-5,5.37l-.16.16-3.58-.65H414.75a27.45,27.45,0,0,0-4.72.32.83.83,0,0,0-.32.17c-.44-.47-.88-.9-1.3-1.3-1.15-1.64-2.73-3.7-4.71-6.18q-2.31-3-5.37-6.67-11.11-13.7-13.82-18.7c-.19-.41-.36-.79-.49-1.14L370,459.1q-4.55-12-6.82-18.21A110,110,0,0,0,354.11,422q-1.37-2.19-2.61-4.22c-.15-.27-.31-.54-.48-.82q-7.8-23.46-10.9-35.77,1-31,22.77-29.1h12.68q24.71,5.2,53.33,18.54,14.31,6.49,25.69,11.7c.21,0,.54-.21,1-.65a3.23,3.23,0,0,0,.65-1.3q0-2.28-11-11.7t-11.71-10.09A127.92,127.92,0,0,0,423,345a58,58,0,0,0-6.34-6.67q48,18.42,48,28.45,0,22.8-7.49,30.24a12.56,12.56,0,0,1-9.1,3.58q-6.34,0-13.66-6.18a2.42,2.42,0,0,0-.32-.32c-6.51-5.64-10.4-8.78-11.71-9.43q-7.47-3.58-27.31-5.85-20.49-2.28-25.69-3.26l-.33,1.63q4.57,16.54,18.7,50.72c.92,2.32,1.9,4.7,2.93,7.16.68-.14,1.38-.25,2.11-.33a24.75,24.75,0,0,1,4.39,0q9.74,1,22.6,9.6,3.79,2.54,7.8,5.69a154.62,154.62,0,0,1,21.63,20.32c.55-2.51,1.14-5.16,1.79-8q6.5-28.94,14.3-46.49c.28-.59.55-1.19.82-1.79q10.26-21.12,19.18-15.45a16.16,16.16,0,0,1,3.91,3.9,3.12,3.12,0,0,0-1.47-.32,12.82,12.82,0,0,0-6.83,2.28c-.73.47-1.39.84-1.95,1.13a7,7,0,0,1-2.6,1.14l-1.63-1c-.86,0-1.3.76-1.3,2.28.5,1.09,1,2.17,1.47,3.25q10.6,23.08,11.22,23.09t5.85-25a24.58,24.58,0,0,0-.32-3.09,80.62,80.62,0,0,1,5.52,13.33q2.34-6.51,5.53-15.11,4.65-12.69,8.46-23.26,7.37-21.18,11.05-34,8.78-34.47,14-53.32,10.08-34.8,17.56-34.8,15.29,0,17.23,21.46,1,11.39,1,30.89l.32.66q15.62-21.47,53-77.07,30.88-46.17,54.62-76.42,18.87-23.73,70.89-100.47Q793.74,1.9,793.73,42.56q0,19.52-41.94,88.44-42.6,66.34-44.55,69.59,8.78,4.56,11.38,7.81,1.95,2.59,2,8.13-52.7,102.29-81.77,143.88,8.37-4.35,17.39-8.94,14-8.46,57.55-43.25,36.75-24.71,36.75,3.25Q750.49,317.52,626.27,411.46Zm-47.8,5q-17.88,12-20.15,18.21-1.08,2.58-4.88,10.08c-1.27,2.6-2.78,5.64-4.56,9.11q0,3.57,2,4.88l1-.65v-2.28a23.37,23.37,0,0,0,7.15-1q14.34-4.35,40-25.69,9.39-7.89,23.41-20Q635.63,398,652.94,383q89.74-70.23,89.74-75.11c0-.22-.21-.54-.64-1q-39.69,26-55.28,36.09a297.56,297.56,0,0,0-26.35,18.53q-19.83,15-24.38,18.21-9.43,6.51-29.59,18.86-2.38,1.42-4.56,2.76Q587.21,410.3,578.47,416.5ZM292.49,465l-4.55-2.61h.81Zm12.84,7.15q-.94-1.12-1.95-2.28-75.43-94.62-100.47-117.71-54.3-44.87-104.38-89.75Q0,173.61,0,152.79,0,135.24,37.07,170l2.44,2.61q27.12,16.06,73.65,48.45Q234.44,306,253.31,306a76.23,76.23,0,0,0,6.82-3.9q6.84-4.23,9.76-4.23,28,0,109.91,27.31,18.27,6.09,32.67,11.54-2.42.21-8.94,1.15c-3.9.21-6.17.64-6.83,1.29l-9.1-.32q-14.31-1.31-16.26-2.28H355.41q-20.49-4.54-47.8-16.25Q267.94,303,264.36,301.72v2.6l2.12,1.14a3.5,3.5,0,0,0-.49,1.47q0,2.26,7.15,11.05,7.16,9.11,7.16,11v1.63c-.66.65-2.17,1-4.56,1q-13,0-28.29-11.71-26.67-20.16-40.31-27.64Q180.8,278,144.7,250.67q-19.18-15-31.54-21.14A108.56,108.56,0,0,1,95.92,218.8c-5.84-4.33-10.84-7.91-15-10.73q-13.57-10-24.07-17.56-33.88-25-34.14-25c-1.73,0-2.6.43-2.6,1.29q0,1.64,24.06,26.67,13.62,14.37,22,23.25,9.28,9.92,11.87,12.84,24.06,27.65,60.16,62.76,10.73,10.41,35.44,31.54,23.09,19.51,34.47,30.89,16.57,16.59,39.67,38.7,20.8,19.47,25.36,22.92,7.07,8.09,16.26,16.75,3.5,3.38,7.64,7.31,20.64,19.47,56.74,51.22-2.92-1.31-35.12-13.33h-.15A122.42,122.42,0,0,1,305.33,472.11ZM489.38,363.18a2.5,2.5,0,0,1-.33-1q-3.57.33-4.23,3.58c-.21.43-.32,2.16-.32,5.2v2.6c.22,1.74.87,2.6,1.95,2.6Q487.76,376.18,489.38,363.18Zm284.84-318Q759.6,64.34,755,69.22q-10.74,11.72-29.26,39.35-38.37,52-56.26,77.39-37.71,52-55.28,77.72-16.9,26-26.33,39-16.59,23.42-32.85,38.37v-.33a14.69,14.69,0,0,0,1.3-4.88,1.91,1.91,0,0,0-.65-1.3h-.16c.16-.69.32-1.46.49-2.28q2.6-12.34,4.23-23.08,5.85-35.11,5.84-37.4,0-12-6.5,4.88a239.6,239.6,0,0,0-9.42,30.57q-4.23,15-13.66,44.22-2.87,9-7.64,26-2.31,8.2-5,18.21-7.8,28.62-13.33,44.88v.16a4.11,4.11,0,0,0-.32,1.46,4.84,4.84,0,0,0,.32,1.79v.49l.33.16c1.18,1.63,3.79,2.44,7.8,2.44q.83,0,32-39.51,5.6-7.05,12.19-15.44,29.61-34.47,51.06-55.61v.33q-12.36,34.14-12.36,40v2a2.59,2.59,0,0,0,.49,1.13,1.34,1.34,0,0,0,1.14.49,8.43,8.43,0,0,0,1.62-2.11q3-4.17,11.06-17.07l13.33-20.82q8.46-13,25-40.32Q704,224.33,704,218.48q0-3.58-13,11.38-9.75,11.38-14,17.23-12.82,12.82-20.49,20.65,7.2-11.13,16.26-25.2Q698.14,203.2,715,173.93q37.08-65.69,39.67-70.89,31.88-58.2,31.87-66.33Q786.58,30.2,774.22,45.17ZM476.37,378.79q-.64-5.87-.65-6.18,0-9.12,10.08-15.94,9.75-6.82,9.76,2.61,0,4.88-3.26,14-3.9,11.38-8.45,11.39Q478.33,384.64,476.37,378.79Zm119-7.81q-5.83,7.51-21.14,25,9.39-6,22.12-13c.39-.21.76-.43,1.13-.65l-.15-.32q-2.94-5.87-1.31-9.11A2.63,2.63,0,0,0,595.38,371Z" transform="translate(0 -25.51)"/><path class="cls-2" d="M785.6,515.85V516c0,.22-1.57.72-4.71,1.47q-9.32,2.44-37.23,8.29-54,11.06-76.09,16.26-8,2-15.12,3.74-17.88,4.53-30.08,7.48L614.89,555q-28.25,6.72-56.74,10.74-3.33.53-6.67,1h-5.85l-.32-1a1.62,1.62,0,0,1,.65-1.14v-.16l50.72-25q7.8-4.23,22.76-14.31,8.67-6,14.8-9.59,6-5,17.4-13.17Q663,492,668.87,481.21a52.64,52.64,0,0,0,5.2-13.49,42,42,0,0,0,1-5.2,48.57,48.57,0,0,0,.33-5.69c0-5.33-1.15-9.77-3.42-13.33q-4.71-7.49-16.09-9.76c-3-.6-5.63-1.19-8-1.79-7.7-1.91-11.54-3.69-11.54-5.37,0-1.34.92-3,2.76-4.87.51-.51,1.11-1,1.78-1.63q4.56-3.9,8.46-3.9,7.49-.33,20.48,7.15a63.54,63.54,0,0,0,16.43,6.83,29.93,29.93,0,0,0,6,.65,101.4,101.4,0,0,0,28-3.9c4.55-1.52,8.89-2.92,13-4.23,2,0,2.93.65,2.93,1.95q-5.85,3.92-12,8.13-12,8.46-12,15,0,4.23,3.57,13.66,4.56,12,10.09,12l17.23-1q52-13,127.14-28.61,12.69-2.6,62.76-14.31,45.84-10.08,57.55-10.08,1.31,0,1.62,1.95Q923.47,445.44,911.45,450q-42.6,15-71.22,22.43-12.68,3.26-37.71,10.73-32.85,10.08-34.8,10.74-14.64,3.89-48.78,16.58-14.33,5.28-22.27,8.13,8.12-.33,35.93-3.25h19.51l.65-.33H776.5l1.3-.65h6.51A1.51,1.51,0,0,1,785.6,515.85ZM774.22,45.17q12.36-15,12.36-8.46,0,8.13-31.87,66.33-2.6,5.2-39.67,70.89-16.9,29.26-42.27,68.61-9.06,14.06-16.26,25.2,7.66-7.82,20.49-20.65,4.23-5.85,14-17.23,13-15,13-11.38,0,5.85-49.75,81.61-16.59,27.33-25,40.32l-13.33,20.82q-8.1,12.9-11.06,17.07a8.43,8.43,0,0,1-1.62,2.11,1.34,1.34,0,0,1-1.14-.49,2.59,2.59,0,0,1-.49-1.13v-2q0-5.86,12.36-40v-.33q-21.46,21.14-51.06,55.61-6.6,8.38-12.19,15.44-31.2,39.51-32,39.51c-4,0-6.62-.81-7.8-2.44l-.33-.16V444a4.84,4.84,0,0,1-.32-1.79,4.11,4.11,0,0,1,.32-1.46v-.16q5.54-16.26,13.33-44.88,2.74-10,5-18.21,4.77-17,7.64-26,9.42-29.27,13.66-44.22a239.6,239.6,0,0,1,9.42-30.57q6.51-16.9,6.5-4.88,0,2.28-5.84,37.4-1.63,10.73-4.23,23.08c-.17.82-.33,1.59-.49,2.28h.16a1.91,1.91,0,0,1,.65,1.3,14.69,14.69,0,0,1-1.3,4.88v.33q16.26-15,32.85-38.37,9.42-13,26.33-39Q631.81,238,669.52,186q17.88-25.36,56.26-77.39Q744.31,80.93,755,69.22,759.59,64.35,774.22,45.17Zm-284.84,318q-1.62,13-2.93,13c-1.08,0-1.73-.86-1.95-2.6V371c0-3,.11-4.77.32-5.2q.66-3.25,4.23-3.58A2.5,2.5,0,0,0,489.38,363.18ZM122.43,615.35c-1.55.1-2.91.16-4.07.16s-2-.22-2-.65v-1c0-.39.43-.88,1.3-1.46q4.58-2.83,24.72-8.62,13-3.9,29.58-8.13,36.11-12.34,62.43-26a96.75,96.75,0,0,1,15.29-6.83q11.06-4.55,13.33-5.53l26.34-14.63a26.48,26.48,0,0,1,5.53-3.9,2.39,2.39,0,0,1,1.14-.33c.77-.16,1.32.22,1.62,1.14a5.75,5.75,0,0,1,.49,2.11c-.22,2.61,3.15,5,10.08,7.16q3.84,1.13,10.4,2.44,2.82.54,6.18,1.14a45,45,0,0,0,7.81.64h2.93c4.54.23,7.58,1.09,9.1,2.61h6.82c1.52-1.09,2.5-1.52,2.93-1.3q5.54.32,6.83.32a38.47,38.47,0,0,0,7.48-.81l1.3-.33a76,76,0,0,0,9.43-3.08l.33.32q0,.87-8.62,4.88c-.39.16-.77.32-1.14.49Q359.31,561,336.87,570l-1.62.64a186.71,186.71,0,0,0-23.74,11.71q-16.9,10.74-17.23,10.73a1.75,1.75,0,0,1-1.95-1.3v-1.63c0-1.51,1.19-3.79,3.57-6.82q-10.08,2.38-22.76,5.2-28.44,6.09-69.91,14Q141.84,614.1,122.43,615.35Zm456-198.85q8.74-6.19,23.41-15.12,2.18-1.33,4.56-2.76Q626.6,386.26,636,379.76q4.54-3.25,24.38-18.21A297.56,297.56,0,0,1,686.76,343q15.6-10.08,55.28-36.09c.43.43.64.75.64,1q0,4.88-89.74,75.11-17.33,15-30.57,26.18-14,12.12-23.41,20-25.66,21.33-40,25.69a23.37,23.37,0,0,1-7.15,1v2.28l-1,.65q-2-1.3-2-4.88c1.78-3.47,3.29-6.51,4.56-9.11q3.79-7.5,4.88-10.08Q560.59,428.55,578.47,416.5Zm-86.81-10.24a24.58,24.58,0,0,1,.32,3.09q-5.21,25-5.85,25T474.91,411.3c-.48-1.08-1-2.16-1.47-3.25,0-1.52.44-2.28,1.3-2.28l1.63,1a7,7,0,0,0,2.6-1.14c.56-.29,1.22-.66,1.95-1.13a12.82,12.82,0,0,1,6.83-2.28,3.12,3.12,0,0,1,1.47.32C490.36,403.08,491.17,404.32,491.66,406.26Zm-14.31,78.21c.34,1.27.77,3,1.3,5.36.11.35.22.73.32,1.14,1.08,4.77,2.28,7.15,3.58,7.15.65,0,1.73-.86,3.25-2.6,1.3-1.74,3.58-2.6,6.83-2.6a11.5,11.5,0,0,1,5.2,1.3q4.23,0,20.16-18.54t17.56-18.53c.87,0,1.41.65,1.63,2q0,.64-6.83,16.91-7.49,17.24-9.43,23.74a59.12,59.12,0,0,1,9.1-12.69q10.41-11,20.49-11.05,7.8,0,7.81,15.61,0,6.83-4.23,10.41-4.89,4.53-18.21,7.47,2.93,1.63,2.93,6.18c0,3.25-.66,5.63-2,7.16q-2,1.93-11.38,7.15v.32q6.51,2.28,7.8,3.91a7.73,7.73,0,0,1,.66,3.9c0,3-.44,5.2-1.3,6.5q-2.28,3.58-10.08,6.18H512.46c-2.26-.65-3.88-1.14-4.88-1.47.63,1.54,1.27,3.33,2,5.37q5.52,14,5.53,14.31,3.24,7.8,13.65,28.29,0,2.28-2,2.28a185.32,185.32,0,0,0-15-14q-16.26-14.3-24.71-14.31-2.93,0-3.57,2.28a3,3,0,0,0,0,2q0,14,16.26,21.46Q516,604.13,516,613.23a7.32,7.32,0,0,1-4.23,6.83c-3,1.52-4.55,3.25-4.55,5.21a27.9,27.9,0,0,0,1.63,9.42v15.93c.07.54.13,1.09.16,1.63q1,6,2.12,11.7a47,47,0,0,1,1,10.74c0,4.11-.65,6.18-1.95,6.18q-3.92,0-9.76-8.79c-2.18-3.55-4-6.43-5.36-8.61q-1.86-2.85-2.77-4.06V691q2,29.26,1.95,35.76,0,5.53-2.27,33.5v22.11l-.32,3.25a101,101,0,0,0,1,16.26v35.44a154.33,154.33,0,0,1,1.3,15.61q-1,14.31-2.93,14.3-2.6,0-5.85-9.75a114.61,114.61,0,0,1-3.9-15.93v-51q-2-9.42-3.25-30.24V738.74q-2.28-35.12-5.21-52.35-1.31-19.17-2-28.61-1.62-16.57-9.43-22.11c-5,.21-7.48-.76-7.48-2.93,0-.72,1-2.41,2.93-5,.4-.58.84-1.18,1.3-1.79,2.61-3.46,3.9-5.74,3.9-6.82q0-9.12,1.63-14v-5.52q-1.95,3.24-8.13,14.95-5.21,10.08-5.85,10.08c-1.09,0-1.95-1.3-2.6-3.9l-.65-3.9q0-5.2,3.57-17.89c.24-.8.45-1.56.65-2.27q2.94-10.46,2.93-14-.27-14.14-3.74-16.41a2.42,2.42,0,0,0-1.46-.49c-1.3,0-3,.76-5.2,2.27.56.88,1,1.69,1.46,2.44,1.41,2.53,2.11,4.53,2.11,6,0,1.08-.75,1.63-2.27,1.63a3.73,3.73,0,0,1-2.93-1.63l-.49-.65a6.36,6.36,0,0,1-.49-1q-7.86-4.07-30.23-21.46l-1.47-1.14q-40.83-32-42.11-33-23.19-14.16-42-25.85c-1-.59-1.95-1.18-2.92-1.79q-6-3.81-11.06-7.15Q285.93,468.18,284,463.65a1.54,1.54,0,0,1-.16-.64c0-1.31.54-2,1.63-2l2.44,1.3,4.55,2.61,5.69,3.25c2.59,1.45,5,2.75,7.15,3.9a122.42,122.42,0,0,0,13.18,6.18h.15q32.19,12,35.12,13.33Q317.67,459.87,297,440.4q-4.14-3.93-7.64-7.31-9.21-8.67-16.26-16.75-4.56-3.45-25.36-22.92-23.09-22.11-39.67-38.7-11.38-11.39-34.47-30.89-24.7-21.13-35.44-31.54Q102.1,257.17,78,229.53q-2.58-2.92-11.87-12.84-8.33-8.88-22-23.25-24.06-25-24.06-26.67c0-.86.87-1.29,2.6-1.29q.25,0,34.14,25Q67.4,198.09,81,208.07c4.11,2.82,9.11,6.4,15,10.73a108.56,108.56,0,0,0,17.24,10.73q12.36,6.18,31.54,21.14,36.09,27.32,62.44,41.62,13.65,7.48,40.31,27.64,15.29,11.7,28.29,11.71c2.39,0,3.9-.33,4.56-1V329q0-1.95-7.16-11Q266,309.21,266,306.93a3.5,3.5,0,0,1,.49-1.47l-2.12-1.14v-2.6q3.58,1.3,43.25,18.54,27.31,11.7,47.8,16.25h15.93q1.95,1,16.26,2.28l9.1.32c.66-.65,2.93-1.08,6.83-1.29q6.53-.94,8.94-1.15a7.6,7.6,0,0,1,1.15-.16c.69,0,1.72.6,3.08,1.79A58,58,0,0,1,423,345a127.92,127.92,0,0,1,10.41,13.65q.65.66,11.71,10.09t11,11.7a3.23,3.23,0,0,1-.65,1.3c-.43.44-.76.65-1,.65q-11.38-5.21-25.69-11.7-28.62-13.34-53.33-18.54H362.89q-21.72-1.86-22.77,29.1v3.09a51.05,51.05,0,0,0,3.59,18.86A124.44,124.44,0,0,0,351,417c.17.28.33.55.48.82q1.25,2,2.61,4.22a110,110,0,0,1,9.11,18.86q2.26,6.18,6.82,18.21l14,37.39c.13.35.3.73.49,1.14q2.7,5,13.82,18.7,3.06,3.7,5.37,6.67c2,2.48,3.56,4.54,4.71,6.18.42.4.86.83,1.3,1.3a.83.83,0,0,1,.32-.17,27.45,27.45,0,0,1,4.72-.32h10.57l3.58.65.16-.16q2.22-2.55,5-5.37,5.85-5.85,11.06-6.18-3.59-6.82-25.69-29.91-6.93-7.53-11.39-13-7.47-9.63-7.47-13.33a2.18,2.18,0,0,1,1-2.11,2.33,2.33,0,0,1,1-.17q4.56,0,11.06,6.18a97.93,97.93,0,0,1,7.8,8.13q5.2,5.21,19.51,13.33c1.91-.15,3.64-.26,5.2-.32,5,0,7.95.61,8.78,1.95.65.86.87,2.6.65,5.2q3.58-3.9,3.58-6.83a21.42,21.42,0,0,0-1.47-7.15,25.17,25.17,0,0,0-1.13-3.25q-2.61-6.51-2.61-10.41,0-7.8,2.93-22.11,4.18-20.33,10.57-20.49h.16a7.4,7.4,0,0,1,1.63.17c3.54.62,5.61,3.6,6.18,8.94q.64,2,6.17,9.43,5.87,13.65,6.84,19.84.64-.66,4.22-5.21a10.19,10.19,0,0,1,8.78-4.55q4.95,0,7.48,1.63a4.87,4.87,0,0,1,2.28,5.85,24.12,24.12,0,0,1-1.31,6.5q-2,5.2-3.9,5.2l-2.6-.65q-25.69,9.44-27,10.08A13.94,13.94,0,0,1,477.35,484.47ZM364,621.52c.65-.9,1.24-1.72,1.78-2.43l.33,1a40.55,40.55,0,0,1-1.95,4.23q-4,8.25-16.26,32.19-4.73,9.4-10.73,21.14l-15.61,28.94q-2.93,4.88-7.48,17.55a20.37,20.37,0,0,1-.81,2q6.24-7.05,19-20.17,28.94-29.26,38.05-39c.89-1,1.75-2,2.6-2.93q21.48-23.78,32.52-35.43,16.63-17.68,27-25.53a59,59,0,0,1,4.88-3.41l.17.64.15.33-1,1.46q-1.47,2.1-5.2,7.16-3.94,5.42-10.41,14.14-19.18,25.37-25.69,35.12-5.08,7.35-9.59,13.82Q362.23,706.57,357,715.33v.33q9.75-10.08,14.95-15.28a119.9,119.9,0,0,1,16.58-14.63l1,1q0,2.28-35.44,45.2-6.18,7.47-17.24,22.43-5.21,5.53-17.23,21.79a1.15,1.15,0,0,1-1.3-1.3v-1.3q0-7.8,19.51-34.8v-.32l-.32.16q-15.46,22.63-83.25,106.5-7.8,9.42-24.06,28.94-14.31,17.22-24.39,28.29-4.23,4.55-27,32.84-18.53,23.07-21.46,23.08a1.48,1.48,0,0,1-1.62-1v-1q0-3.9,27-45.52,26-40,40.64-59.83l37.4-53q6.6-10.15,11.7-18,4-8.48,16.26-30.4,21.47-37.07,27.32-48.13,15.6-30.24,23.08-41.62c.17-.27.33-.54.49-.81Q356.55,631.91,364,621.52Z" transform="translate(0 -25.51)"/><path class="cls-4" d="M438.82,627.05q-6.21,5.63-17.07,21.3-15.22,22.36-28,24.22,12.54-19,26.66-41.78,6.58-10.85,10.73-18.37v2.11Q431.17,620.5,438.82,627.05Zm87.46,29.75c.15-1.09.31-2.18.49-3.25q9.65-56.38,10.57-66,20.43-1.08,111.86-28.45-6.62,14.85-26.83,43.41-33.17,46.83-55.28,46.82-.65,0-10.08-2.59-9.75-2.93-14-4.56Q537.59,654.69,526.28,656.8ZM368.09,646.4v-1l-1.3-1.3q-5.52,3.86-12.85,8.94a2.35,2.35,0,0,1,.17-.49q9.87-19.12,10.08-28.28a40.55,40.55,0,0,0,1.95-4.23l-.33-1c-.54.71-1.13,1.53-1.78,2.43q-1.27-11.22-11.87-11.22Q337.48,633.92,323.87,656q-7.51-4.51-9.43-15.44-2.6-13.66,1.63-22.44-28.62.33-38.05-10.73A18.81,18.81,0,0,1,274,598.6q.56-.18,1.14-.33,2.94-.64,49.43-6.5,36-8.47,43.57-26.66l2.6-1a53.88,53.88,0,0,0,7.16-3.42q25.38,19.14,43.9,28.13-7.81,5.6-19.19,17.89Q389.78,620.76,368.09,646.4ZM288.43,532.26a20.38,20.38,0,0,1-2.28-2.27A28.55,28.55,0,0,1,279,510.48q0-16.19,14.46-22.44,16.46,16.41,52.84,47.47,3.56,3,7,5.86H309.89A114,114,0,0,0,294,533.89,30,30,0,0,0,288.43,532.26Zm108.76-97.55a24.75,24.75,0,0,0-4.39,0c-.73.08-1.43.19-2.11.33-1-2.46-2-4.84-2.93-7.16,2.76,1.82,5.64,3.89,8.62,6.18Zm68.94-20.64c-.27.6-.54,1.2-.82,1.79q-7.8,17.55-14.3,46.49c-.65,2.81-1.24,5.46-1.79,8A154.62,154.62,0,0,0,427.59,450q-4-3.15-7.8-5.69a185.74,185.74,0,0,1-.32-25.53q1-20,14.95-24.39,7.31,6.18,13.66,6.18a12.56,12.56,0,0,0,9.1-3.58,20.73,20.73,0,0,1,7.16,10.41A50.7,50.7,0,0,1,466.13,414.07Zm11.22,70.4,3.25,3.25a7.74,7.74,0,0,0-2,2.11C478.12,487.52,477.69,485.74,477.35,484.47Zm14.31-78.21c-.49-1.94-1.3-3.18-2.44-3.74a16.16,16.16,0,0,0-3.91-3.9,75.71,75.71,0,0,1,24.55-16.91c.42-.17.85-.33,1.31-.49q-3.81,10.57-8.46,23.26-3.18,8.59-5.53,15.11A80.62,80.62,0,0,0,491.66,406.26Zm137.86,7.48Q625.31,417,625.3,424q0,6.5,25,18.85c2.47,1.23,4.75,2.43,6.83,3.58Q664,459.47,664,470.8q0,1.26,3.25,7.32-16.11,18.09-66,46-63.53,35.39-72.68,42.61-2.07-2.75-5-6.51Q544,556.65,544,541.37q0-2.28-3.25-9.76,31.86-7.47,31.86-29.91A38.23,38.23,0,0,0,570,488q-4.54-10.4-14-11.7a43,43,0,0,0,3.25-14.48q37.08-27.71,67-50.4C627.37,412.22,628.46,413,629.52,413.74Zm-79.66,12.84c1.51,2.17,2.28,3.91,2.28,5.2q0,.27-5.2,10.57a25.39,25.39,0,0,0-2.93-.16q-8.14,0-14.31,7.48c-.47.6-.9,1.14-1.3,1.62v-1q0-2.32,20.32-25.52Z" transform="translate(0 -25.51)"/></svg>