<?xml version="1.0" encoding="utf-8"?>
<!-- Generator: Adobe Illustrator 25.2.0, SVG Export Plug-In . SVG Version: 6.00 Build 0)  -->
<svg version="1.1" id="Layer_1" xmlns="http://www.w3.org/2000/svg" xmlns:xlink="http://www.w3.org/1999/xlink" x="0px" y="0px"
	 viewBox="0 0 300 300" style="enable-background:new 0 0 300 300;" xml:space="preserve">
<style type="text/css">
	.st0{fill-rule:evenodd;clip-rule:evenodd;fill:url(#SVGID_1_);}
	.st1{fill:#FFFFFF;}
</style>
<symbol  id="RGB_Pound" viewBox="-43.2 -43.2 86.5 86.4">
	<linearGradient id="SVGID_1_" gradientUnits="userSpaceOnUse" x1="0" y1="43.22" x2="5.292924e-15" y2="-43.22">
		<stop  offset="0" style="stop-color:#00C244"/>
		<stop  offset="1" style="stop-color:#00D64B"/>
	</linearGradient>
	<path class="st0" d="M13-43.2c8.7,0,13,0,17.7,1.5c5.1,1.9,9.1,5.9,11,11c1.5,4.7,1.5,9,1.5,17.7v26.1c0,8.7,0,13-1.5,17.7
		c-1.9,5.1-5.9,9.1-11,11c-4.7,1.5-9,1.5-17.7,1.5h-26.2c-8.7,0-13,0-17.7-1.5c-5.1-1.9-9.1-5.9-11-11c-1.4-4.7-1.4-9-1.4-17.7
		v-26.2c0-8.7,0-13,1.5-17.7c1.9-5.1,5.9-9.1,11-11c4.6-1.4,9-1.4,17.6-1.4H13z"/>
	<path class="st1" d="M6.5-15.5c2.9,0,5.5,1.6,6.9,4.1c0.5,0.7,1.4,0.8,2.1,0.4c0.1,0,0.1-0.1,0.2-0.2l5-4.8
		c0.5-0.5,0.6-1.3,0.2-1.9c-3.3-4.7-8.8-7.5-14.6-7.3c-9.6,0-17.9,6.1-17.9,16.3c0,1.4,0.1,2.8,0.4,4.2h-2.7c-0.7,0-1.3,0.4-1.5,1.1
		l-1.2,5.4c-0.2,0.8,0.3,1.6,1.1,1.7c0.1,0,0.2,0,0.3,0h5.7l0.2,1C-9.1,5.2-9,5.8-9,6.4c0,4.2-4.5,8.3-9.9,10
		c-0.5,0.1-0.9,0.6-1,1.1l-1.2,5.3c-0.1,0.8,0.4,1.6,1.2,1.7c0.1,0,0.2,0,0.2,0h34.2c0.7,0,1.2-0.5,1.4-1.2l1.5-6.7
		c0.2-0.8-0.3-1.5-1.1-1.7c-0.1,0-0.2,0-0.3,0H-2c2.2-2,3.4-7.4,3-11.4h9c0.7,0,1.3-0.5,1.5-1.2L12.6-3c0.2-0.8-0.4-1.6-1.2-1.7
		c-0.1,0-0.2,0-0.3,0H-0.6c-0.1-0.9-0.2-1.9-0.2-2.7C-0.7-13,2.6-15.5,6.5-15.5z"/>
</symbol>
<g>
	<defs>
		<rect id="SVGID_2_" x="0" y="0" width="300" height="300"/>
	</defs>
	<clipPath id="SVGID_3_">
		<use xlink:href="#SVGID_2_"  style="overflow:visible;"/>
	</clipPath>
	<g style="clip-path:url(#SVGID_3_);">
		
			<use xlink:href="#RGB_Pound"  width="86.5" height="86.4" x="-43.2" y="-43.2" transform="matrix(3.4722 0 0 3.4722 150.1389 150.0694)" style="overflow:visible;"/>
	</g>
</g>
</svg>
