<svg id="Layer_2" data-name="Layer 2" xmlns="http://www.w3.org/2000/svg" viewBox="0 0 1568.31 488.4"><defs><style>.cls-1,.cls-3{stroke:#fff;stroke-miterlimit:10;stroke-width:5px;}.cls-2{font-size:57px;font-family:Consolas;}.cls-2,.cls-4{fill:#fff;}.cls-3{fill:none;}.cls-4{font-size:32px;font-family:Consolas-Bold, Consolas;font-weight:700;}</style></defs><rect class="cls-1" x="489.97" y="203.15" width="72" height="72"/><rect class="cls-1" x="489.97" y="275.15" width="72" height="72"/><rect class="cls-1" x="418.97" y="275.15" width="72" height="72"/><rect class="cls-1" x="561.97" y="275.15" width="72" height="72"/><text class="cls-2" transform="translate(510.3 257.15)">W</text><text class="cls-2" transform="translate(439.7 328.88)">A</text><text class="cls-2" transform="translate(510.7 328.88)">S</text><text class="cls-2" transform="translate(582.7 328.88)">D</text><rect class="cls-1" x="721.97" y="275.15" width="388" height="71"/><text class="cls-2" transform="translate(838.03 328.88)">SPACE</text><line class="cls-3" x1="370.47" y1="213.65" x2="419.47" y2="275.65"/><text class="cls-4" transform="translate(211.13 165.65)">Move left<tspan x="-211.13" y="38.4">(Double tap to boost)</tspan></text><line class="cls-3" x1="683.07" y1="213.18" x2="634.07" y2="275.18"/><text class="cls-4" transform="translate(685.07 167.18)">Move right<tspan x="0" y="38.4">(Double tap to boost)</tspan></text><line class="cls-3" x1="611.07" y1="410.12" x2="562.07" y2="348.12"/><text class="cls-4" transform="translate(615.07 440.18)">Crouch<tspan x="0" y="38.4">Pound (if in air)</tspan></text><line class="cls-3" x1="1158.97" y1="410.15" x2="1109.97" y2="348.15"/><text class="cls-4" transform="translate(1163.65 440.51)">Jump<tspan x="0" y="38.4">Double jump (if in air)</tspan></text><ellipse class="cls-1" cx="1276.97" cy="222.65" rx="83" ry="123.5"/><line class="cls-3" x1="1196.97" y1="189.15" x2="1356.97" y2="189.15"/><line class="cls-3" x1="1276.97" y1="99.15" x2="1276.97" y2="189.15"/><line class="cls-3" x1="1218.68" y1="137.85" x2="1169.68" y2="75.85"/><text class="cls-4" transform="translate(1082.32 26.21)">Boost<tspan x="-369.47" y="38.4">(in direction of movement)</tspan></text></svg>