<svg id="Layer_1" data-name="Layer 1" xmlns="http://www.w3.org/2000/svg" viewBox="0 0 998.03 784.14"><defs><style>.cls-1{fill:#fff;}.cls-2{stroke:#fff;stroke-miterlimit:10;stroke-width:16.14px;}.cls-3{fill:none;}</style></defs><polygon class="cls-1" points="968.87 0 884.72 0 740.62 0 656.47 0 638.73 0 638.73 144.1 656.47 144.1 740.62 144.1 740.62 472.48 884.72 472.48 884.72 144.1 968.87 144.1 986.62 144.1 986.62 0 968.87 0"/><rect class="cls-1" x="453.16" width="144.1" height="472.48"/><polygon class="cls-1" points="267.59 0 267.59 213.28 155.52 213.28 155.52 0 11.41 0 11.41 213.28 11.41 357.38 11.41 571.38 155.52 571.38 155.52 357.38 267.59 357.38 267.59 571.38 411.69 571.38 411.69 357.38 411.69 213.28 411.69 0 267.59 0"/><polygon class="cls-2" points="986.62 472.48 884.72 370.58 785.83 469.48 686.93 370.58 585.03 472.48 683.93 571.38 585.03 670.28 686.93 772.17 785.83 673.27 884.72 772.17 986.62 670.28 887.72 571.38 986.62 472.48"/><path class="cls-2" d="M483.56,483.22,282.21,684.58,483.56,885.93,684.91,684.58ZM450.34,684.58l33.22-33.23,33.22,33.23L483.56,717.8Z" transform="translate(-0.98 -113.2)"/><line class="cls-3" x1="212.77" y1="370.03" x2="281.23" y2="438.48"/><path class="cls-2" d="M348.66,618.13,213.75,483.22l-95.06,95.06L12.4,684.58l85.13,85.13L213.75,885.93,348.66,751l-66.45-66.44ZM237.43,795.8l-33.22-33.22,33.22-33.22,33.22,33.22Zm0-156-33.22-33.23,33.22-33.22,33.22,33.22Z" transform="translate(-0.98 -113.2)"/></svg>