<?xml version="1.0" encoding="utf-8"?>
<!-- Generator: Adobe Illustrator 24.2.1, SVG Export Plug-In . SVG Version: 6.00 Build 0)  -->
<svg version="1.1" id="Layer_1" xmlns="http://www.w3.org/2000/svg" xmlns:xlink="http://www.w3.org/1999/xlink" x="0px" y="0px"
	 viewBox="0 0 998 784.1" style="enable-background:new 0 0 998 784.1;" xml:space="preserve">
<style type="text/css">
	.st0{fill:#C63838;}
	.st1{stroke:#C63838;stroke-width:16.14;stroke-miterlimit:10;}
	.st2{fill:none;}
</style>
<polygon class="st0" points="968.9,0 884.7,0 740.6,0 656.5,0 638.7,0 638.7,144.1 656.5,144.1 740.6,144.1 740.6,472.5 
	884.7,472.5 884.7,144.1 968.9,144.1 986.6,144.1 986.6,0 "/>
<rect x="453.2" class="st0" width="144.1" height="472.5"/>
<polygon class="st0" points="267.6,0 267.6,213.3 155.5,213.3 155.5,0 11.4,0 11.4,213.3 11.4,357.4 11.4,571.4 155.5,571.4 
	155.5,357.4 267.6,357.4 267.6,571.4 411.7,571.4 411.7,357.4 411.7,213.3 411.7,0 "/>
<polygon class="st1" points="986.6,472.5 884.7,370.6 785.8,469.5 686.9,370.6 585,472.5 683.9,571.4 585,670.3 686.9,772.2 
	785.8,673.3 884.7,772.2 986.6,670.3 887.7,571.4 "/>
<path class="st1" d="M482.6,370L281.2,571.4l201.4,201.3l201.4-201.3L482.6,370z M449.4,571.4l33.2-33.2l33.2,33.2l-33.2,33.2
	L449.4,571.4z"/>
<line class="st2" x1="212.8" y1="370" x2="281.2" y2="438.5"/>
<path class="st1" d="M347.7,504.9L212.8,370l-95.1,95.1L11.4,571.4l85.1,85.1l116.2,116.2l134.9-134.9l-66.4-66.4L347.7,504.9z
	 M236.4,682.6l-33.2-33.2l33.2-33.2l33.2,33.2L236.4,682.6z M236.4,526.6l-33.2-33.2l33.2-33.2l33.2,33.2L236.4,526.6z"/>
</svg>
